<?xml version="1.0" encoding="UTF-8" standalone="no"?>
<!DOCTYPE svg PUBLIC "-//W3C//DTD SVG 1.1//EN"
 "http://www.w3.org/Graphics/SVG/1.1/DTD/svg11.dtd">
<!-- Generated by graphviz version 12.2.1 (20241206.2353)
 -->
<!-- Title: TTL_double_scheme.h Pages: 1 -->
<svg width="133pt" height="138pt"
 viewBox="0.00 0.00 132.75 137.75" xmlns="http://www.w3.org/2000/svg" xmlns:xlink="http://www.w3.org/1999/xlink">
<g id="graph0" class="graph" transform="scale(1 1) rotate(0) translate(4 133.75)">
<title>TTL_double_scheme.h</title>
<!-- Node1 -->
<g id="Node000001" class="node">
<title>Node1</title>
<g id="a_Node000001"><a xlink:title=" ">
<polygon fill="#999999" stroke="#666666" points="119.88,-129.75 4.88,-129.75 4.88,-110.5 119.88,-110.5 119.88,-129.75"/>
<text text-anchor="middle" x="62.38" y="-116.25" font-family="Helvetica,sans-Serif" font-size="10.00">TTL_double_scheme.h</text>
</a>
</g>
</g>
<!-- Node2 -->
<g id="Node000002" class="node">
<title>Node2</title>
<g id="a_Node000002"><a xlink:href="TTL__cpp_2TTL__pipeline__schemes_8h.html" target="_top" xlink:title=" ">
<polygon fill="white" stroke="#666666" points="124.75,-74.5 0,-74.5 0,-55.25 124.75,-55.25 124.75,-74.5"/>
<text text-anchor="middle" x="62.38" y="-61" font-family="Helvetica,sans-Serif" font-size="10.00">TTL_pipeline_schemes.h</text>
</a>
</g>
</g>
<!-- Node1&#45;&gt;Node2 -->
<g id="edge1_Node000001_Node000002" class="edge">
<title>Node1&#45;&gt;Node2</title>
<g id="a_edge1_Node000001_Node000002"><a xlink:title=" ">
<path fill="none" stroke="#63b8ff" d="M62.38,-98.88C62.38,-90.59 62.38,-81.42 62.38,-74.86"/>
<polygon fill="#63b8ff" stroke="#63b8ff" points="58.88,-98.82 62.38,-108.82 65.88,-98.82 58.88,-98.82"/>
</a>
</g>
</g>
<!-- Node3 -->
<g id="Node000003" class="node">
<title>Node3</title>
<g id="a_Node000003"><a xlink:href="TTL__cpp_2TTL_8h.html" target="_top" xlink:title=" ">
<polygon fill="white" stroke="#666666" points="83.12,-19.25 41.62,-19.25 41.62,0 83.12,0 83.12,-19.25"/>
<text text-anchor="middle" x="62.38" y="-5.75" font-family="Helvetica,sans-Serif" font-size="10.00">TTL.h</text>
</a>
</g>
</g>
<!-- Node2&#45;&gt;Node3 -->
<g id="edge2_Node000002_Node000003" class="edge">
<title>Node2&#45;&gt;Node3</title>
<g id="a_edge2_Node000002_Node000003"><a xlink:title=" ">
<path fill="none" stroke="#63b8ff" d="M62.38,-43.63C62.38,-35.34 62.38,-26.17 62.38,-19.61"/>
<polygon fill="#63b8ff" stroke="#63b8ff" points="58.88,-43.57 62.38,-53.57 65.88,-43.57 58.88,-43.57"/>
</a>
</g>
</g>
</g>
</svg>
