<?xml version="1.0" encoding="UTF-8" standalone="no"?>
<!DOCTYPE svg PUBLIC "-//W3C//DTD SVG 1.1//EN"
 "http://www.w3.org/Graphics/SVG/1.1/DTD/svg11.dtd">
<!-- Generated by graphviz version 12.2.1 (20241206.2353)
 -->
<!-- Title: TTL_schemes_common.h Pages: 1 -->
<svg width="393pt" height="193pt"
 viewBox="0.00 0.00 393.25 193.00" xmlns="http://www.w3.org/2000/svg" xmlns:xlink="http://www.w3.org/1999/xlink">
<g id="graph0" class="graph" transform="scale(1 1) rotate(0) translate(4 189)">
<title>TTL_schemes_common.h</title>
<!-- Node1 -->
<g id="Node000001" class="node">
<title>Node1</title>
<g id="a_Node000001"><a xlink:title=" ">
<polygon fill="#999999" stroke="#666666" points="255.12,-185 125.88,-185 125.88,-165.75 255.12,-165.75 255.12,-185"/>
<text text-anchor="middle" x="190.5" y="-171.5" font-family="Helvetica,sans-Serif" font-size="10.00">TTL_schemes_common.h</text>
</a>
</g>
</g>
<!-- Node2 -->
<g id="Node000002" class="node">
<title>Node2</title>
<g id="a_Node000002"><a xlink:href="p_2pipelines_2TTL__double__scheme_8h.html" target="_top" xlink:title=" ">
<polygon fill="white" stroke="#666666" points="115,-129.75 0,-129.75 0,-110.5 115,-110.5 115,-129.75"/>
<text text-anchor="middle" x="57.5" y="-116.25" font-family="Helvetica,sans-Serif" font-size="10.00">TTL_double_scheme.h</text>
</a>
</g>
</g>
<!-- Node1&#45;&gt;Node2 -->
<g id="edge1_Node000001_Node000002" class="edge">
<title>Node1&#45;&gt;Node2</title>
<g id="a_edge1_Node000001_Node000002"><a xlink:title=" ">
<path fill="none" stroke="#63b8ff" d="M157.5,-161.16C133.43,-151.52 101.42,-138.71 80.17,-130.2"/>
<polygon fill="#63b8ff" stroke="#63b8ff" points="155.95,-164.31 166.53,-164.78 158.55,-157.81 155.95,-164.31"/>
</a>
</g>
</g>
<!-- Node5 -->
<g id="Node000005" class="node">
<title>Node5</title>
<g id="a_Node000005"><a xlink:href="p_2pipelines_2TTL__duplex__scheme_8h.html" target="_top" xlink:title=" ">
<polygon fill="white" stroke="#666666" points="247.62,-129.75 133.38,-129.75 133.38,-110.5 247.62,-110.5 247.62,-129.75"/>
<text text-anchor="middle" x="190.5" y="-116.25" font-family="Helvetica,sans-Serif" font-size="10.00">TTL_duplex_scheme.h</text>
</a>
</g>
</g>
<!-- Node1&#45;&gt;Node5 -->
<g id="edge4_Node000001_Node000005" class="edge">
<title>Node1&#45;&gt;Node5</title>
<g id="a_edge4_Node000001_Node000005"><a xlink:title=" ">
<path fill="none" stroke="#63b8ff" d="M190.5,-154.13C190.5,-145.84 190.5,-136.67 190.5,-130.11"/>
<polygon fill="#63b8ff" stroke="#63b8ff" points="187,-154.07 190.5,-164.07 194,-154.07 187,-154.07"/>
</a>
</g>
</g>
<!-- Node6 -->
<g id="Node000006" class="node">
<title>Node6</title>
<g id="a_Node000006"><a xlink:href="p_2pipelines_2TTL__simplex__scheme_8h.html" target="_top" xlink:title=" ">
<polygon fill="white" stroke="#666666" points="385.25,-129.75 265.75,-129.75 265.75,-110.5 385.25,-110.5 385.25,-129.75"/>
<text text-anchor="middle" x="325.5" y="-116.25" font-family="Helvetica,sans-Serif" font-size="10.00">TTL_simplex_scheme.h</text>
</a>
</g>
</g>
<!-- Node1&#45;&gt;Node6 -->
<g id="edge6_Node000001_Node000006" class="edge">
<title>Node1&#45;&gt;Node6</title>
<g id="a_edge6_Node000001_Node000006"><a xlink:title=" ">
<path fill="none" stroke="#63b8ff" d="M223.99,-161.16C248.43,-151.52 280.92,-138.71 302.49,-130.2"/>
<polygon fill="#63b8ff" stroke="#63b8ff" points="222.83,-157.86 214.81,-164.79 225.4,-164.37 222.83,-157.86"/>
</a>
</g>
</g>
<!-- Node3 -->
<g id="Node000003" class="node">
<title>Node3</title>
<g id="a_Node000003"><a xlink:href="TTL__cpp_2TTL__pipeline__schemes_8h.html" target="_top" xlink:title=" ">
<polygon fill="white" stroke="#666666" points="252.88,-74.5 128.12,-74.5 128.12,-55.25 252.88,-55.25 252.88,-74.5"/>
<text text-anchor="middle" x="190.5" y="-61" font-family="Helvetica,sans-Serif" font-size="10.00">TTL_pipeline_schemes.h</text>
</a>
</g>
</g>
<!-- Node2&#45;&gt;Node3 -->
<g id="edge2_Node000002_Node000003" class="edge">
<title>Node2&#45;&gt;Node3</title>
<g id="a_edge2_Node000002_Node000003"><a xlink:title=" ">
<path fill="none" stroke="#63b8ff" d="M90.5,-105.91C114.57,-96.27 146.58,-83.46 167.83,-74.95"/>
<polygon fill="#63b8ff" stroke="#63b8ff" points="89.45,-102.56 81.47,-109.53 92.05,-109.06 89.45,-102.56"/>
</a>
</g>
</g>
<!-- Node4 -->
<g id="Node000004" class="node">
<title>Node4</title>
<g id="a_Node000004"><a xlink:href="TTL__cpp_2TTL_8h.html" target="_top" xlink:title=" ">
<polygon fill="white" stroke="#666666" points="211.25,-19.25 169.75,-19.25 169.75,0 211.25,0 211.25,-19.25"/>
<text text-anchor="middle" x="190.5" y="-5.75" font-family="Helvetica,sans-Serif" font-size="10.00">TTL.h</text>
</a>
</g>
</g>
<!-- Node3&#45;&gt;Node4 -->
<g id="edge3_Node000003_Node000004" class="edge">
<title>Node3&#45;&gt;Node4</title>
<g id="a_edge3_Node000003_Node000004"><a xlink:title=" ">
<path fill="none" stroke="#63b8ff" d="M190.5,-43.63C190.5,-35.34 190.5,-26.17 190.5,-19.61"/>
<polygon fill="#63b8ff" stroke="#63b8ff" points="187,-43.57 190.5,-53.57 194,-43.57 187,-43.57"/>
</a>
</g>
</g>
<!-- Node5&#45;&gt;Node3 -->
<g id="edge5_Node000005_Node000003" class="edge">
<title>Node5&#45;&gt;Node3</title>
<g id="a_edge5_Node000005_Node000003"><a xlink:title=" ">
<path fill="none" stroke="#63b8ff" d="M190.5,-98.88C190.5,-90.59 190.5,-81.42 190.5,-74.86"/>
<polygon fill="#63b8ff" stroke="#63b8ff" points="187,-98.82 190.5,-108.82 194,-98.82 187,-98.82"/>
</a>
</g>
</g>
<!-- Node6&#45;&gt;Node3 -->
<g id="edge7_Node000006_Node000003" class="edge">
<title>Node6&#45;&gt;Node3</title>
<g id="a_edge7_Node000006_Node000003"><a xlink:title=" ">
<path fill="none" stroke="#63b8ff" d="M292.01,-105.91C267.57,-96.27 235.08,-83.46 213.51,-74.95"/>
<polygon fill="#63b8ff" stroke="#63b8ff" points="290.6,-109.12 301.19,-109.54 293.17,-102.61 290.6,-109.12"/>
</a>
</g>
</g>
</g>
</svg>
