<?xml version="1.0" encoding="UTF-8" standalone="no"?>
<!DOCTYPE svg PUBLIC "-//W3C//DTD SVG 1.1//EN"
 "http://www.w3.org/Graphics/SVG/1.1/DTD/svg11.dtd">
<!-- Generated by graphviz version 12.2.1 (20241206.2353)
 -->
<!-- Title: TTL_duplex_const_ushort_tensor_buffering_t Pages: 1 -->
<svg width="256pt" height="424pt"
 viewBox="0.00 0.00 256.23 423.50" xmlns="http://www.w3.org/2000/svg" xmlns:xlink="http://www.w3.org/1999/xlink">
<g id="graph0" class="graph" transform="scale(1 1) rotate(0) translate(4 419.5)">
<title>TTL_duplex_const_ushort_tensor_buffering_t</title>
<!-- Node1 -->
<g id="Node000001" class="node">
<title>Node1</title>
<g id="a_Node000001"><a xlink:title="Data required to perform duplex buffer pipelining.">
<polygon fill="#999999" stroke="none" points="181.62,-122 61.12,-122 61.12,0 181.62,0 181.62,-122"/>
<text text-anchor="start" x="65.12" y="-108.5" font-family="Helvetica,sans-Serif" font-size="10.00">TTL_duplex_const_ushort</text>
<text text-anchor="start" x="80.12" y="-97.25" font-family="Helvetica,sans-Serif" font-size="10.00">_tensor_buffering_t</text>
<text text-anchor="start" x="72" y="-82" font-family="Helvetica,sans-Serif" font-size="10.00">+</text>
<text text-anchor="start" x="88.88" y="-82" font-family="Helvetica,sans-Serif" font-size="10.00">index</text>
<text text-anchor="start" x="72" y="-66.75" font-family="Helvetica,sans-Serif" font-size="10.00">+</text>
<text text-anchor="start" x="88.88" y="-66.75" font-family="Helvetica,sans-Serif" font-size="10.00">int_base</text>
<text text-anchor="start" x="72" y="-51.5" font-family="Helvetica,sans-Serif" font-size="10.00">+</text>
<text text-anchor="start" x="88.88" y="-51.5" font-family="Helvetica,sans-Serif" font-size="10.00">common</text>
<text text-anchor="start" x="72" y="-36.25" font-family="Helvetica,sans-Serif" font-size="10.00">+</text>
<text text-anchor="start" x="88.88" y="-36.25" font-family="Helvetica,sans-Serif" font-size="10.00">events</text>
<text text-anchor="start" x="72" y="-21" font-family="Helvetica,sans-Serif" font-size="10.00">+</text>
<text text-anchor="start" x="88.88" y="-21" font-family="Helvetica,sans-Serif" font-size="10.00">prev_out_tensors</text>
<text text-anchor="start" x="119.88" y="-5.75" font-family="Helvetica,sans-Serif" font-size="10.00"> </text>
<polygon fill="#666666" stroke="#666666" points="61.12,-93.5 61.12,-93.5 181.62,-93.5 181.62,-93.5 61.12,-93.5"/>
<polygon fill="#666666" stroke="#666666" points="61.12,-17.25 61.12,-17.25 86.88,-17.25 86.88,-17.25 61.12,-17.25"/>
<polygon fill="#666666" stroke="#666666" points="86.88,-17.25 86.88,-17.25 181.62,-17.25 181.62,-17.25 86.88,-17.25"/>
<polygon fill="none" stroke="#666666" points="61.12,0 61.12,-122 181.62,-122 181.62,0 61.12,0"/>
</a>
</g>
</g>
<!-- Node2 -->
<g id="Node000002" class="node">
<title>Node2</title>
<g id="a_Node000002"><a xlink:href="structTTL__ext__ushort__tensor__t.html" target="_top" xlink:title="const and non&#45;const tensors in the appropriate address space">
<polygon fill="white" stroke="none" points="116.75,-276.38 0,-276.38 0,-211.38 116.75,-211.38 116.75,-276.38"/>
<text text-anchor="start" x="4" y="-262.88" font-family="Helvetica,sans-Serif" font-size="10.00">TTL_ext_ushort_tensor_t</text>
<text text-anchor="start" x="17.81" y="-247.62" font-family="Helvetica,sans-Serif" font-size="10.00">+</text>
<text text-anchor="start" x="41.62" y="-247.62" font-family="Helvetica,sans-Serif" font-size="10.00">base</text>
<text text-anchor="start" x="17.81" y="-232.38" font-family="Helvetica,sans-Serif" font-size="10.00">+</text>
<text text-anchor="start" x="41.62" y="-232.38" font-family="Helvetica,sans-Serif" font-size="10.00">elem_size</text>
<text text-anchor="start" x="56.88" y="-217.12" font-family="Helvetica,sans-Serif" font-size="10.00"> </text>
<polygon fill="#666666" stroke="#666666" points="0,-259.12 0,-259.12 116.75,-259.12 116.75,-259.12 0,-259.12"/>
<polygon fill="#666666" stroke="#666666" points="0,-228.62 0,-228.62 39.62,-228.62 39.62,-228.62 0,-228.62"/>
<polygon fill="#666666" stroke="#666666" points="39.62,-228.62 39.62,-228.62 116.75,-228.62 116.75,-228.62 39.62,-228.62"/>
<polygon fill="none" stroke="#666666" points="0,-211.38 0,-276.38 116.75,-276.38 116.75,-211.38 0,-211.38"/>
</a>
</g>
</g>
<!-- Node2&#45;&gt;Node1 -->
<g id="edge1_Node000001_Node000002" class="edge">
<title>Node2&#45;&gt;Node1</title>
<g id="a_edge1_Node000001_Node000002"><a xlink:title=" ">
<path fill="none" stroke="#63b8ff" d="M62.88,-211.66C66.42,-190.94 72.17,-163.37 80.62,-140 81.38,-137.93 82.17,-135.84 83,-133.74"/>
<polygon fill="none" stroke="#63b8ff" points="83.06,-133.6 81.74,-126.52 87.78,-122.57 89.1,-129.66 83.06,-133.6"/>
</a>
</g>
<text text-anchor="start" x="83.62" y="-175.25" font-family="Helvetica,sans-Serif" font-size="10.00" fill="grey">+ext_tensor_in</text>
<text text-anchor="start" x="83.62" y="-160" font-family="Helvetica,sans-Serif" font-size="10.00" fill="grey">+ext_tensor_out</text>
<text text-anchor="start" x="83.62" y="-144.75" font-family="Helvetica,sans-Serif" font-size="10.00" fill="grey">+to_export_to</text>
</g>
<!-- Node3 -->
<g id="Node000003" class="node">
<title>Node3</title>
<g id="a_Node000003"><a xlink:href="structTTL__layout__t.html" target="_top" xlink:title="Description of a Tensor layout in memory.">
<polygon fill="white" stroke="none" points="109.5,-407.88 29.25,-407.88 29.25,-342.88 109.5,-342.88 109.5,-407.88"/>
<text text-anchor="start" x="40.88" y="-394.38" font-family="Helvetica,sans-Serif" font-size="10.00">TTL_layout_t</text>
<text text-anchor="start" x="33.25" y="-379.12" font-family="Helvetica,sans-Serif" font-size="10.00">+</text>
<text text-anchor="start" x="43.25" y="-379.12" font-family="Helvetica,sans-Serif" font-size="10.00">row_spacing</text>
<text text-anchor="start" x="33.25" y="-363.88" font-family="Helvetica,sans-Serif" font-size="10.00">+</text>
<text text-anchor="start" x="43.25" y="-363.88" font-family="Helvetica,sans-Serif" font-size="10.00">plane_spacing</text>
<text text-anchor="start" x="67.88" y="-348.62" font-family="Helvetica,sans-Serif" font-size="10.00"> </text>
<polygon fill="#666666" stroke="#666666" points="29.25,-390.62 29.25,-390.62 109.5,-390.62 109.5,-390.62 29.25,-390.62"/>
<polygon fill="#666666" stroke="#666666" points="29.25,-360.12 29.25,-360.12 41.25,-360.12 41.25,-360.12 29.25,-360.12"/>
<polygon fill="#666666" stroke="#666666" points="41.25,-360.12 41.25,-360.12 109.5,-360.12 109.5,-360.12 41.25,-360.12"/>
<polygon fill="none" stroke="#666666" points="29.25,-342.88 29.25,-407.88 109.5,-407.88 109.5,-342.88 29.25,-342.88"/>
</a>
</g>
</g>
<!-- Node3&#45;&gt;Node2 -->
<g id="edge2_Node000002_Node000003" class="edge">
<title>Node3&#45;&gt;Node2</title>
<g id="a_edge2_Node000002_Node000003"><a xlink:title=" ">
<path fill="none" stroke="#63b8ff" d="M44.9,-343.01C39.96,-335.03 35.48,-326.17 32.88,-317.25 30.12,-307.83 31.07,-297.83 33.81,-288.37"/>
<polygon fill="none" stroke="#63b8ff" points="33.79,-288.43 32.13,-281.41 37.98,-277.18 39.63,-284.2 33.79,-288.43"/>
</a>
</g>
<text text-anchor="start" x="35.88" y="-304.75" font-family="Helvetica,sans-Serif" font-size="10.00" fill="grey">+layout</text>
</g>
<!-- Node5 -->
<g id="Node000005" class="node">
<title>Node5</title>
<g id="a_Node000005"><a xlink:href="structTTL__const__int__ushort__tensor__t.html" target="_top" xlink:title=" ">
<polygon fill="white" stroke="none" points="238,-282 134.75,-282 134.75,-205.75 238,-205.75 238,-282"/>
<text text-anchor="start" x="138.75" y="-268.5" font-family="Helvetica,sans-Serif" font-size="10.00">TTL_const_int_ushort</text>
<text text-anchor="start" x="166.12" y="-257.25" font-family="Helvetica,sans-Serif" font-size="10.00">_tensor_t</text>
<text text-anchor="start" x="149.19" y="-242" font-family="Helvetica,sans-Serif" font-size="10.00">+</text>
<text text-anchor="start" x="169.62" y="-242" font-family="Helvetica,sans-Serif" font-size="10.00">base</text>
<text text-anchor="start" x="149.19" y="-226.75" font-family="Helvetica,sans-Serif" font-size="10.00">+</text>
<text text-anchor="start" x="169.62" y="-226.75" font-family="Helvetica,sans-Serif" font-size="10.00">elem_size</text>
<text text-anchor="start" x="184.88" y="-211.5" font-family="Helvetica,sans-Serif" font-size="10.00"> </text>
<polygon fill="#666666" stroke="#666666" points="134.75,-253.5 134.75,-253.5 238,-253.5 238,-253.5 134.75,-253.5"/>
<polygon fill="#666666" stroke="#666666" points="134.75,-223 134.75,-223 167.62,-223 167.62,-223 134.75,-223"/>
<polygon fill="#666666" stroke="#666666" points="167.62,-223 167.62,-223 238,-223 238,-223 167.62,-223"/>
<polygon fill="none" stroke="#666666" points="134.75,-205.75 134.75,-282 238,-282 238,-205.75 134.75,-205.75"/>
</a>
</g>
</g>
<!-- Node3&#45;&gt;Node5 -->
<g id="edge5_Node000005_Node000003" class="edge">
<title>Node3&#45;&gt;Node5</title>
<g id="a_edge5_Node000005_Node000003"><a xlink:title=" ">
<path fill="none" stroke="#63b8ff" d="M72.17,-343.14C74.82,-328.71 79.96,-312.13 89.88,-300 99.15,-288.66 106.81,-289.66 123.39,-282.36"/>
<polygon fill="none" stroke="#63b8ff" points="123.42,-282.34 126.99,-276.07 134.15,-276.96 130.58,-283.22 123.42,-282.34"/>
</a>
</g>
<text text-anchor="start" x="92.88" y="-304.75" font-family="Helvetica,sans-Serif" font-size="10.00" fill="grey">+layout</text>
</g>
<!-- Node4 -->
<g id="Node000004" class="node">
<title>Node4</title>
<g id="a_Node000004"><a xlink:href="structTTL__shape__t.html" target="_top" xlink:title="Description of a Shape.">
<polygon fill="white" stroke="none" points="208.25,-415.5 142.5,-415.5 142.5,-335.25 208.25,-335.25 208.25,-415.5"/>
<text text-anchor="start" x="146.5" y="-402" font-family="Helvetica,sans-Serif" font-size="10.00">TTL_shape_t</text>
<text text-anchor="start" x="151.88" y="-386.75" font-family="Helvetica,sans-Serif" font-size="10.00">+</text>
<text text-anchor="start" x="167.25" y="-386.75" font-family="Helvetica,sans-Serif" font-size="10.00">width</text>
<text text-anchor="start" x="151.88" y="-371.5" font-family="Helvetica,sans-Serif" font-size="10.00">+</text>
<text text-anchor="start" x="167.25" y="-371.5" font-family="Helvetica,sans-Serif" font-size="10.00">height</text>
<text text-anchor="start" x="151.88" y="-356.25" font-family="Helvetica,sans-Serif" font-size="10.00">+</text>
<text text-anchor="start" x="167.25" y="-356.25" font-family="Helvetica,sans-Serif" font-size="10.00">depth</text>
<text text-anchor="start" x="173.88" y="-341" font-family="Helvetica,sans-Serif" font-size="10.00"> </text>
<polygon fill="#666666" stroke="#666666" points="142.5,-398.25 142.5,-398.25 208.25,-398.25 208.25,-398.25 142.5,-398.25"/>
<polygon fill="#666666" stroke="#666666" points="142.5,-352.5 142.5,-352.5 165.25,-352.5 165.25,-352.5 142.5,-352.5"/>
<polygon fill="#666666" stroke="#666666" points="165.25,-352.5 165.25,-352.5 208.25,-352.5 208.25,-352.5 165.25,-352.5"/>
<polygon fill="none" stroke="#666666" points="142.5,-335.25 142.5,-415.5 208.25,-415.5 208.25,-335.25 142.5,-335.25"/>
</a>
</g>
</g>
<!-- Node4&#45;&gt;Node2 -->
<g id="edge3_Node000002_Node000004" class="edge">
<title>Node4&#45;&gt;Node2</title>
<g id="a_edge3_Node000002_Node000004"><a xlink:title=" ">
<path fill="none" stroke="#63b8ff" d="M156.1,-335.35C149.2,-323.34 140.77,-310.52 131.38,-300 126.49,-294.54 121,-289.25 115.28,-284.26"/>
<polygon fill="none" stroke="#63b8ff" points="115.43,-284.39 108.26,-283.64 106.19,-276.73 113.36,-277.48 115.43,-284.39"/>
</a>
</g>
<text text-anchor="start" x="147.43" y="-304.75" font-family="Helvetica,sans-Serif" font-size="10.00" fill="grey">+shape</text>
</g>
<!-- Node4&#45;&gt;Node5 -->
<g id="edge6_Node000005_Node000004" class="edge">
<title>Node4&#45;&gt;Node5</title>
<g id="a_edge6_Node000005_Node000004"><a xlink:title=" ">
<path fill="none" stroke="#63b8ff" d="M188.6,-335.38C190.16,-329.37 191.51,-323.19 192.38,-317.25 193.43,-309.99 193.7,-302.28 193.48,-294.72"/>
<polygon fill="none" stroke="#63b8ff" points="193.48,-294.67 189.11,-288.93 192.72,-282.69 197.09,-288.43 193.48,-294.67"/>
</a>
</g>
<text text-anchor="start" x="196.54" y="-304.75" font-family="Helvetica,sans-Serif" font-size="10.00" fill="grey">+shape</text>
</g>
<!-- Node5&#45;&gt;Node1 -->
<g id="edge4_Node000001_Node000005" class="edge">
<title>Node5&#45;&gt;Node1</title>
<g id="a_edge4_Node000001_Node000005"><a xlink:title=" ">
<path fill="none" stroke="#63b8ff" d="M176.9,-205.81C171.52,-186.06 164.28,-161.47 156.38,-140 155.62,-137.94 154.83,-135.86 154.02,-133.77"/>
<polygon fill="none" stroke="#63b8ff" points="153.98,-133.67 148.03,-129.59 149.5,-122.53 155.45,-126.61 153.98,-133.67"/>
</a>
</g>
<text text-anchor="start" x="174.73" y="-160" font-family="Helvetica,sans-Serif" font-size="10.00" fill="grey">+to_export_from</text>
</g>
</g>
</svg>
