<?xml version="1.0" encoding="UTF-8" standalone="no"?>
<!DOCTYPE svg PUBLIC "-//W3C//DTD SVG 1.1//EN"
 "http://www.w3.org/Graphics/SVG/1.1/DTD/svg11.dtd">
<!-- Generated by graphviz version 12.2.1 (20241206.2353)
 -->
<!-- Title: TTL_const_int_void_sub_tensor_t Pages: 1 -->
<svg width="282pt" height="336pt"
 viewBox="0.00 0.00 281.88 336.00" xmlns="http://www.w3.org/2000/svg" xmlns:xlink="http://www.w3.org/1999/xlink">
<g id="graph0" class="graph" transform="scale(1 1) rotate(0) translate(4 332)">
<title>TTL_const_int_void_sub_tensor_t</title>
<!-- Node1 -->
<g id="Node000001" class="node">
<title>Node1</title>
<g id="a_Node000001"><a xlink:title=" ">
<polygon fill="#999999" stroke="none" points="201.25,-61 107,-61 107,0 201.25,0 201.25,-61"/>
<text text-anchor="start" x="111" y="-47.5" font-family="Helvetica,sans-Serif" font-size="10.00">TTL_const_int_void</text>
<text text-anchor="start" x="123.38" y="-36.25" font-family="Helvetica,sans-Serif" font-size="10.00">_sub_tensor_t</text>
<text text-anchor="start" x="124.25" y="-21" font-family="Helvetica,sans-Serif" font-size="10.00">+</text>
<text text-anchor="start" x="147.5" y="-21" font-family="Helvetica,sans-Serif" font-size="10.00">origin</text>
<text text-anchor="start" x="152.62" y="-5.75" font-family="Helvetica,sans-Serif" font-size="10.00"> </text>
<polygon fill="#666666" stroke="#666666" points="107,-32.5 107,-32.5 201.25,-32.5 201.25,-32.5 107,-32.5"/>
<polygon fill="#666666" stroke="#666666" points="107,-17.25 107,-17.25 145.5,-17.25 145.5,-17.25 107,-17.25"/>
<polygon fill="#666666" stroke="#666666" points="145.5,-17.25 145.5,-17.25 201.25,-17.25 201.25,-17.25 145.5,-17.25"/>
<polygon fill="none" stroke="#666666" points="107,0 107,-61 201.25,-61 201.25,0 107,0"/>
</a>
</g>
</g>
<!-- Node2 -->
<g id="Node000002" class="node">
<title>Node2</title>
<g id="a_Node000002"><a xlink:href="structTTL__const__int__void__tensor__t.html" target="_top" xlink:title=" ">
<polygon fill="white" stroke="none" points="118.25,-192.5 24,-192.5 24,-116.25 118.25,-116.25 118.25,-192.5"/>
<text text-anchor="start" x="28" y="-179" font-family="Helvetica,sans-Serif" font-size="10.00">TTL_const_int_void</text>
<text text-anchor="start" x="50.88" y="-167.75" font-family="Helvetica,sans-Serif" font-size="10.00">_tensor_t</text>
<text text-anchor="start" x="36.19" y="-152.5" font-family="Helvetica,sans-Serif" font-size="10.00">+</text>
<text text-anchor="start" x="54.38" y="-152.5" font-family="Helvetica,sans-Serif" font-size="10.00">base</text>
<text text-anchor="start" x="36.19" y="-137.25" font-family="Helvetica,sans-Serif" font-size="10.00">+</text>
<text text-anchor="start" x="54.38" y="-137.25" font-family="Helvetica,sans-Serif" font-size="10.00">elem_size</text>
<text text-anchor="start" x="69.62" y="-122" font-family="Helvetica,sans-Serif" font-size="10.00"> </text>
<polygon fill="#666666" stroke="#666666" points="24,-164 24,-164 118.25,-164 118.25,-164 24,-164"/>
<polygon fill="#666666" stroke="#666666" points="24,-133.5 24,-133.5 52.38,-133.5 52.38,-133.5 24,-133.5"/>
<polygon fill="#666666" stroke="#666666" points="52.38,-133.5 52.38,-133.5 118.25,-133.5 118.25,-133.5 52.38,-133.5"/>
<polygon fill="none" stroke="#666666" points="24,-116.25 24,-192.5 118.25,-192.5 118.25,-116.25 24,-116.25"/>
</a>
</g>
</g>
<!-- Node2&#45;&gt;Node1 -->
<g id="edge1_Node000001_Node000002" class="edge">
<title>Node2&#45;&gt;Node1</title>
<g id="a_edge1_Node000001_Node000002"><a xlink:title=" ">
<path fill="none" stroke="#63b8ff" d="M82.2,-116.5C86.93,-103.96 93.21,-90.28 101.12,-79 103.22,-76.01 105.54,-73.08 108,-70.24"/>
<polygon fill="none" stroke="#63b8ff" points="107.94,-70.3 109.15,-63.19 116.18,-61.57 114.97,-68.68 107.94,-70.3"/>
</a>
</g>
<text text-anchor="start" x="104.12" y="-83.75" font-family="Helvetica,sans-Serif" font-size="10.00" fill="grey">+tensor</text>
</g>
<!-- Node3 -->
<g id="Node000003" class="node">
<title>Node3</title>
<g id="a_Node000003"><a xlink:href="structTTL__layout__t.html" target="_top" xlink:title="Description of a Tensor layout in memory.">
<polygon fill="white" stroke="none" points="80.25,-320.38 0,-320.38 0,-255.38 80.25,-255.38 80.25,-320.38"/>
<text text-anchor="start" x="11.62" y="-306.88" font-family="Helvetica,sans-Serif" font-size="10.00">TTL_layout_t</text>
<text text-anchor="start" x="4" y="-291.62" font-family="Helvetica,sans-Serif" font-size="10.00">+</text>
<text text-anchor="start" x="14" y="-291.62" font-family="Helvetica,sans-Serif" font-size="10.00">row_spacing</text>
<text text-anchor="start" x="4" y="-276.38" font-family="Helvetica,sans-Serif" font-size="10.00">+</text>
<text text-anchor="start" x="14" y="-276.38" font-family="Helvetica,sans-Serif" font-size="10.00">plane_spacing</text>
<text text-anchor="start" x="38.62" y="-261.12" font-family="Helvetica,sans-Serif" font-size="10.00"> </text>
<polygon fill="#666666" stroke="#666666" points="0,-303.12 0,-303.12 80.25,-303.12 80.25,-303.12 0,-303.12"/>
<polygon fill="#666666" stroke="#666666" points="0,-272.62 0,-272.62 12,-272.62 12,-272.62 0,-272.62"/>
<polygon fill="#666666" stroke="#666666" points="12,-272.62 12,-272.62 80.25,-272.62 80.25,-272.62 12,-272.62"/>
<polygon fill="none" stroke="#666666" points="0,-255.38 0,-320.38 80.25,-320.38 80.25,-255.38 0,-255.38"/>
</a>
</g>
</g>
<!-- Node3&#45;&gt;Node2 -->
<g id="edge2_Node000002_Node000003" class="edge">
<title>Node3&#45;&gt;Node2</title>
<g id="a_edge2_Node000002_Node000003"><a xlink:title=" ">
<path fill="none" stroke="#63b8ff" d="M37.63,-255.7C37.35,-242.22 38.1,-226.4 41.62,-212.5 42.33,-209.73 43.18,-206.94 44.16,-204.17"/>
<polygon fill="none" stroke="#63b8ff" points="44.17,-204.14 42.74,-197.08 48.71,-193.04 50.14,-200.1 44.17,-204.14"/>
</a>
</g>
<text text-anchor="start" x="44.62" y="-217.25" font-family="Helvetica,sans-Serif" font-size="10.00" fill="grey">+layout</text>
</g>
<!-- Node4 -->
<g id="Node000004" class="node">
<title>Node4</title>
<g id="a_Node000004"><a xlink:href="structTTL__shape__t.html" target="_top" xlink:title="Description of a Shape.">
<polygon fill="white" stroke="none" points="175,-328 109.25,-328 109.25,-247.75 175,-247.75 175,-328"/>
<text text-anchor="start" x="113.25" y="-314.5" font-family="Helvetica,sans-Serif" font-size="10.00">TTL_shape_t</text>
<text text-anchor="start" x="118.62" y="-299.25" font-family="Helvetica,sans-Serif" font-size="10.00">+</text>
<text text-anchor="start" x="134" y="-299.25" font-family="Helvetica,sans-Serif" font-size="10.00">width</text>
<text text-anchor="start" x="118.62" y="-284" font-family="Helvetica,sans-Serif" font-size="10.00">+</text>
<text text-anchor="start" x="134" y="-284" font-family="Helvetica,sans-Serif" font-size="10.00">height</text>
<text text-anchor="start" x="118.62" y="-268.75" font-family="Helvetica,sans-Serif" font-size="10.00">+</text>
<text text-anchor="start" x="134" y="-268.75" font-family="Helvetica,sans-Serif" font-size="10.00">depth</text>
<text text-anchor="start" x="140.62" y="-253.5" font-family="Helvetica,sans-Serif" font-size="10.00"> </text>
<polygon fill="#666666" stroke="#666666" points="109.25,-310.75 109.25,-310.75 175,-310.75 175,-310.75 109.25,-310.75"/>
<polygon fill="#666666" stroke="#666666" points="109.25,-265 109.25,-265 132,-265 132,-265 109.25,-265"/>
<polygon fill="#666666" stroke="#666666" points="132,-265 132,-265 175,-265 175,-265 132,-265"/>
<polygon fill="none" stroke="#666666" points="109.25,-247.75 109.25,-328 175,-328 175,-247.75 109.25,-247.75"/>
</a>
</g>
</g>
<!-- Node4&#45;&gt;Node1 -->
<g id="edge4_Node000001_Node000004" class="edge">
<title>Node4&#45;&gt;Node1</title>
<g id="a_edge4_Node000001_Node000004"><a xlink:title=" ">
<path fill="none" stroke="#63b8ff" d="M143.96,-247.81C146.18,-200.68 149.88,-121.77 152.16,-73.41"/>
<polygon fill="none" stroke="#63b8ff" points="152.15,-73.52 148.44,-67.34 152.71,-61.53 156.43,-67.71 152.15,-73.52"/>
</a>
</g>
<text text-anchor="start" x="153.09" y="-150.5" font-family="Helvetica,sans-Serif" font-size="10.00" fill="grey">+shape</text>
</g>
<!-- Node4&#45;&gt;Node2 -->
<g id="edge3_Node000002_Node000004" class="edge">
<title>Node4&#45;&gt;Node2</title>
<g id="a_edge3_Node000002_Node000004"><a xlink:title=" ">
<path fill="none" stroke="#63b8ff" d="M113.01,-247.97C109.05,-242 105.21,-235.81 101.88,-229.75 97.48,-221.76 93.33,-213.01 89.58,-204.41"/>
<polygon fill="none" stroke="#63b8ff" points="89.55,-204.34 83.55,-200.36 84.92,-193.28 90.92,-197.27 89.55,-204.34"/>
</a>
</g>
<text text-anchor="start" x="104.88" y="-217.25" font-family="Helvetica,sans-Serif" font-size="10.00" fill="grey">+shape</text>
</g>
<!-- Node5 -->
<g id="Node000005" class="node">
<title>Node5</title>
<g id="a_Node000005"><a xlink:href="structTTL__offset__t.html" target="_top" xlink:title="Description of the 3D offset of an object.">
<polygon fill="white" stroke="none" points="273.88,-194.5 210.38,-194.5 210.38,-114.25 273.88,-114.25 273.88,-194.5"/>
<text text-anchor="start" x="214.38" y="-181" font-family="Helvetica,sans-Serif" font-size="10.00">TTL_offset_t</text>
<text text-anchor="start" x="224.62" y="-165.75" font-family="Helvetica,sans-Serif" font-size="10.00">+</text>
<text text-anchor="start" x="244.88" y="-165.75" font-family="Helvetica,sans-Serif" font-size="10.00">x</text>
<text text-anchor="start" x="224.62" y="-150.5" font-family="Helvetica,sans-Serif" font-size="10.00">+</text>
<text text-anchor="start" x="244.88" y="-150.5" font-family="Helvetica,sans-Serif" font-size="10.00">y</text>
<text text-anchor="start" x="224.62" y="-135.25" font-family="Helvetica,sans-Serif" font-size="10.00">+</text>
<text text-anchor="start" x="244.88" y="-135.25" font-family="Helvetica,sans-Serif" font-size="10.00">z</text>
<text text-anchor="start" x="240.62" y="-120" font-family="Helvetica,sans-Serif" font-size="10.00"> </text>
<polygon fill="#666666" stroke="#666666" points="210.38,-177.25 210.38,-177.25 273.88,-177.25 273.88,-177.25 210.38,-177.25"/>
<polygon fill="#666666" stroke="#666666" points="210.38,-131.5 210.38,-131.5 242.88,-131.5 242.88,-131.5 210.38,-131.5"/>
<polygon fill="#666666" stroke="#666666" points="242.88,-131.5 242.88,-131.5 273.88,-131.5 273.88,-131.5 242.88,-131.5"/>
<polygon fill="none" stroke="#666666" points="210.38,-114.25 210.38,-194.5 273.88,-194.5 273.88,-114.25 210.38,-114.25"/>
</a>
</g>
</g>
<!-- Node5&#45;&gt;Node1 -->
<g id="edge5_Node000001_Node000005" class="edge">
<title>Node5&#45;&gt;Node1</title>
<g id="a_edge5_Node000001_Node000005"><a xlink:title=" ">
<path fill="none" stroke="#63b8ff" d="M214.04,-114.48C204.02,-100.6 192.72,-84.96 182.67,-71.03"/>
<polygon fill="none" stroke="#63b8ff" points="182.81,-71.23 176.05,-68.7 175.78,-61.5 182.54,-64.02 182.81,-71.23"/>
</a>
</g>
<text text-anchor="start" x="203.76" y="-83.75" font-family="Helvetica,sans-Serif" font-size="10.00" fill="grey">+sub_offset</text>
</g>
</g>
</svg>
