<?xml version="1.0" encoding="UTF-8" standalone="no"?>
<!DOCTYPE svg PUBLIC "-//W3C//DTD SVG 1.1//EN"
 "http://www.w3.org/Graphics/SVG/1.1/DTD/svg11.dtd">
<!-- Generated by graphviz version 12.2.1 (20241206.2353)
 -->
<!-- Title: TTL_overlap Pages: 1 -->
<svg width="87pt" height="88pt"
 viewBox="0.00 0.00 86.75 88.25" xmlns="http://www.w3.org/2000/svg" xmlns:xlink="http://www.w3.org/1999/xlink">
<g id="graph0" class="graph" transform="scale(1 1) rotate(0) translate(4 84.25)">
<title>TTL_overlap</title>
<!-- Node1 -->
<g id="Node000001" class="node">
<title>Node1</title>
<g id="a_Node000001"><a xlink:title="Description of the overlap in 3D space of adjacent tiles.">
<polygon fill="#999999" stroke="none" points="78.75,-80.25 0,-80.25 0,0 78.75,0 78.75,-80.25"/>
<text text-anchor="start" x="12" y="-66.75" font-family="Helvetica,sans-Serif" font-size="10.00">TTL_overlap</text>
<text text-anchor="start" x="4" y="-51.5" font-family="Helvetica,sans-Serif" font-size="10.00">+</text>
<text text-anchor="start" x="14" y="-51.5" font-family="Helvetica,sans-Serif" font-size="10.00">width</text>
<text text-anchor="start" x="4" y="-36.25" font-family="Helvetica,sans-Serif" font-size="10.00">+</text>
<text text-anchor="start" x="14" y="-36.25" font-family="Helvetica,sans-Serif" font-size="10.00">height</text>
<text text-anchor="start" x="4" y="-21" font-family="Helvetica,sans-Serif" font-size="10.00">+</text>
<text text-anchor="start" x="14" y="-21" font-family="Helvetica,sans-Serif" font-size="10.00">depth</text>
<text text-anchor="start" x="4" y="-5.75" font-family="Helvetica,sans-Serif" font-size="10.00">+</text>
<text text-anchor="start" x="14" y="-5.75" font-family="Helvetica,sans-Serif" font-size="10.00">TTL_overlap()</text>
<polygon fill="#666666" stroke="#666666" points="0,-63 0,-63 78.75,-63 78.75,-63 0,-63"/>
<polygon fill="#666666" stroke="#666666" points="0,-17.25 0,-17.25 12,-17.25 12,-17.25 0,-17.25"/>
<polygon fill="#666666" stroke="#666666" points="12,-17.25 12,-17.25 78.75,-17.25 78.75,-17.25 12,-17.25"/>
<polygon fill="none" stroke="#666666" points="0,0 0,-80.25 78.75,-80.25 78.75,0 0,0"/>
</a>
</g>
</g>
</g>
</svg>
