<?xml version="1.0" encoding="UTF-8" standalone="no"?>
<!DOCTYPE svg PUBLIC "-//W3C//DTD SVG 1.1//EN"
 "http://www.w3.org/Graphics/SVG/1.1/DTD/svg11.dtd">
<!-- Generated by graphviz version 12.2.1 (20241206.2353)
 -->
<!-- Title: TTL_tile Pages: 1 -->
<svg width="170pt" height="222pt"
 viewBox="0.00 0.00 170.38 221.75" xmlns="http://www.w3.org/2000/svg" xmlns:xlink="http://www.w3.org/1999/xlink">
<g id="graph0" class="graph" transform="scale(1 1) rotate(0) translate(4 217.75)">
<title>TTL_tile</title>
<!-- Node1 -->
<g id="Node000001" class="node">
<title>Node1</title>
<g id="a_Node000001"><a xlink:title=" ">
<polygon fill="#999999" stroke="none" points="111.75,-65 51.75,-65 51.75,0 111.75,0 111.75,-65"/>
<text text-anchor="start" x="63.75" y="-51.5" font-family="Helvetica,sans-Serif" font-size="10.00">TTL_tile</text>
<text text-anchor="start" x="80.25" y="-36.25" font-family="Helvetica,sans-Serif" font-size="10.00"> </text>
<text text-anchor="start" x="55.75" y="-21" font-family="Helvetica,sans-Serif" font-size="10.00">+</text>
<text text-anchor="start" x="65.75" y="-21" font-family="Helvetica,sans-Serif" font-size="10.00">TTL_tile()</text>
<text text-anchor="start" x="55.75" y="-5.75" font-family="Helvetica,sans-Serif" font-size="10.00">+</text>
<text text-anchor="start" x="65.75" y="-5.75" font-family="Helvetica,sans-Serif" font-size="10.00">empty()</text>
<polygon fill="#666666" stroke="#666666" points="51.75,-47.75 51.75,-47.75 111.75,-47.75 111.75,-47.75 51.75,-47.75"/>
<polygon fill="#666666" stroke="#666666" points="51.75,-32.5 51.75,-32.5 111.75,-32.5 111.75,-32.5 51.75,-32.5"/>
<polygon fill="none" stroke="#666666" points="51.75,0 51.75,-65 111.75,-65 111.75,0 51.75,0"/>
</a>
</g>
</g>
<!-- Node2 -->
<g id="Node000002" class="node">
<title>Node2</title>
<g id="a_Node000002"><a xlink:href="structTTL__shape.html" target="_top" xlink:title="Description of a Shape.">
<polygon fill="white" stroke="none" points="73.5,-213.75 0,-213.75 0,-118.25 73.5,-118.25 73.5,-213.75"/>
<text text-anchor="start" x="12" y="-200.25" font-family="Helvetica,sans-Serif" font-size="10.00">TTL_shape</text>
<text text-anchor="start" x="4" y="-185" font-family="Helvetica,sans-Serif" font-size="10.00">+</text>
<text text-anchor="start" x="14" y="-185" font-family="Helvetica,sans-Serif" font-size="10.00">width</text>
<text text-anchor="start" x="4" y="-169.75" font-family="Helvetica,sans-Serif" font-size="10.00">+</text>
<text text-anchor="start" x="14" y="-169.75" font-family="Helvetica,sans-Serif" font-size="10.00">height</text>
<text text-anchor="start" x="4" y="-154.5" font-family="Helvetica,sans-Serif" font-size="10.00">+</text>
<text text-anchor="start" x="14" y="-154.5" font-family="Helvetica,sans-Serif" font-size="10.00">depth</text>
<text text-anchor="start" x="4" y="-139.25" font-family="Helvetica,sans-Serif" font-size="10.00">+</text>
<text text-anchor="start" x="14" y="-139.25" font-family="Helvetica,sans-Serif" font-size="10.00">TTL_shape()</text>
<text text-anchor="start" x="4" y="-124" font-family="Helvetica,sans-Serif" font-size="10.00">+</text>
<text text-anchor="start" x="14" y="-124" font-family="Helvetica,sans-Serif" font-size="10.00">empty()</text>
<polygon fill="#666666" stroke="#666666" points="0,-196.5 0,-196.5 73.5,-196.5 73.5,-196.5 0,-196.5"/>
<polygon fill="#666666" stroke="#666666" points="0,-150.75 0,-150.75 12,-150.75 12,-150.75 0,-150.75"/>
<polygon fill="#666666" stroke="#666666" points="12,-150.75 12,-150.75 73.5,-150.75 73.5,-150.75 12,-150.75"/>
<polygon fill="none" stroke="#666666" points="0,-118.25 0,-213.75 73.5,-213.75 73.5,-118.25 0,-118.25"/>
</a>
</g>
</g>
<!-- Node2&#45;&gt;Node1 -->
<g id="edge1_Node000001_Node000002" class="edge">
<title>Node2&#45;&gt;Node1</title>
<g id="a_edge1_Node000001_Node000002"><a xlink:title=" ">
<path fill="none" stroke="#63b8ff" d="M52.74,-118.27C57.34,-104.84 62.33,-90.26 66.85,-77.03"/>
<polygon fill="none" stroke="#63b8ff" points="66.84,-77.06 65,-70.09 70.73,-65.7 72.57,-72.68 66.84,-77.06"/>
</a>
</g>
<text text-anchor="start" x="67.6" y="-87.75" font-family="Helvetica,sans-Serif" font-size="10.00" fill="grey">+shape</text>
</g>
<!-- Node3 -->
<g id="Node000003" class="node">
<title>Node3</title>
<g id="a_Node000003"><a xlink:href="structTTL__offset.html" target="_top" xlink:title="Description of the 3D offset of an object.">
<polygon fill="white" stroke="none" points="162.38,-206.12 91.12,-206.12 91.12,-125.88 162.38,-125.88 162.38,-206.12"/>
<text text-anchor="start" x="103.12" y="-192.62" font-family="Helvetica,sans-Serif" font-size="10.00">TTL_offset</text>
<text text-anchor="start" x="95.12" y="-177.38" font-family="Helvetica,sans-Serif" font-size="10.00">+</text>
<text text-anchor="start" x="105.12" y="-177.38" font-family="Helvetica,sans-Serif" font-size="10.00">x</text>
<text text-anchor="start" x="95.12" y="-162.12" font-family="Helvetica,sans-Serif" font-size="10.00">+</text>
<text text-anchor="start" x="105.12" y="-162.12" font-family="Helvetica,sans-Serif" font-size="10.00">y</text>
<text text-anchor="start" x="95.12" y="-146.88" font-family="Helvetica,sans-Serif" font-size="10.00">+</text>
<text text-anchor="start" x="105.12" y="-146.88" font-family="Helvetica,sans-Serif" font-size="10.00">z</text>
<text text-anchor="start" x="95.12" y="-131.62" font-family="Helvetica,sans-Serif" font-size="10.00">+</text>
<text text-anchor="start" x="105.12" y="-131.62" font-family="Helvetica,sans-Serif" font-size="10.00">TTL_offset()</text>
<polygon fill="#666666" stroke="#666666" points="91.12,-188.88 91.12,-188.88 162.38,-188.88 162.38,-188.88 91.12,-188.88"/>
<polygon fill="#666666" stroke="#666666" points="91.12,-143.12 91.12,-143.12 103.12,-143.12 103.12,-143.12 91.12,-143.12"/>
<polygon fill="#666666" stroke="#666666" points="103.12,-143.12 103.12,-143.12 162.38,-143.12 162.38,-143.12 103.12,-143.12"/>
<polygon fill="none" stroke="#666666" points="91.12,-125.88 91.12,-206.12 162.38,-206.12 162.38,-125.88 91.12,-125.88"/>
</a>
</g>
</g>
<!-- Node3&#45;&gt;Node1 -->
<g id="edge2_Node000001_Node000003" class="edge">
<title>Node3&#45;&gt;Node1</title>
<g id="a_edge2_Node000001_Node000003"><a xlink:title=" ">
<path fill="none" stroke="#63b8ff" d="M117.81,-126.19C114.24,-112.4 109.78,-96.85 104.75,-83 104,-80.95 103.21,-78.87 102.37,-76.77"/>
<polygon fill="none" stroke="#63b8ff" points="102.35,-76.72 96.32,-72.76 97.66,-65.68 103.68,-69.63 102.35,-76.72"/>
</a>
</g>
<text text-anchor="start" x="112.93" y="-87.75" font-family="Helvetica,sans-Serif" font-size="10.00" fill="grey">+offset</text>
</g>
</g>
</svg>
