<?xml version="1.0" encoding="UTF-8" standalone="no"?>
<!DOCTYPE svg PUBLIC "-//W3C//DTD SVG 1.1//EN"
 "http://www.w3.org/Graphics/SVG/1.1/DTD/svg11.dtd">
<!-- Generated by graphviz version 12.2.1 (20241206.2353)
 -->
<!-- Title: TTL_tiler Pages: 1 -->
<svg width="302pt" height="481pt"
 viewBox="0.00 0.00 301.62 481.00" xmlns="http://www.w3.org/2000/svg" xmlns:xlink="http://www.w3.org/1999/xlink">
<g id="graph0" class="graph" transform="scale(1 1) rotate(0) translate(4 477)">
<title>TTL_tiler</title>
<!-- Node1 -->
<g id="Node000001" class="node">
<title>Node1</title>
<g id="a_Node000001"><a xlink:title="TTL_tiler is the basic unit that describes how a tile is subdivided.">
<polygon fill="#999999" stroke="none" points="191.5,-278.5 70,-278.5 70,0 191.5,0 191.5,-278.5"/>
<text text-anchor="start" x="111.25" y="-265" font-family="Helvetica,sans-Serif" font-size="10.00">TTL_tiler</text>
<text text-anchor="start" x="74" y="-249.75" font-family="Helvetica,sans-Serif" font-size="10.00">+</text>
<text text-anchor="start" x="84" y="-249.75" font-family="Helvetica,sans-Serif" font-size="10.00">number_of_tiles</text>
<text text-anchor="start" x="74" y="-234.5" font-family="Helvetica,sans-Serif" font-size="10.00">+</text>
<text text-anchor="start" x="84" y="-234.5" font-family="Helvetica,sans-Serif" font-size="10.00">tiles_in_width</text>
<text text-anchor="start" x="74" y="-219.25" font-family="Helvetica,sans-Serif" font-size="10.00">+</text>
<text text-anchor="start" x="84" y="-219.25" font-family="Helvetica,sans-Serif" font-size="10.00">tiles_in_height</text>
<text text-anchor="start" x="74" y="-204" font-family="Helvetica,sans-Serif" font-size="10.00">+</text>
<text text-anchor="start" x="84" y="-204" font-family="Helvetica,sans-Serif" font-size="10.00">tiles_in_depth</text>
<text text-anchor="start" x="74" y="-188.75" font-family="Helvetica,sans-Serif" font-size="10.00">+</text>
<text text-anchor="start" x="84" y="-188.75" font-family="Helvetica,sans-Serif" font-size="10.00">tiles_in_plane</text>
<text text-anchor="start" x="74" y="-173.5" font-family="Helvetica,sans-Serif" font-size="10.00">+</text>
<text text-anchor="start" x="84" y="-173.5" font-family="Helvetica,sans-Serif" font-size="10.00">cache</text>
<text text-anchor="start" x="74" y="-158.25" font-family="Helvetica,sans-Serif" font-size="10.00">+</text>
<text text-anchor="start" x="84" y="-158.25" font-family="Helvetica,sans-Serif" font-size="10.00">TTL_tiler()</text>
<text text-anchor="start" x="74" y="-143" font-family="Helvetica,sans-Serif" font-size="10.00">+</text>
<text text-anchor="start" x="84" y="-143" font-family="Helvetica,sans-Serif" font-size="10.00">TTL_tiler()</text>
<text text-anchor="start" x="74" y="-127.75" font-family="Helvetica,sans-Serif" font-size="10.00">+</text>
<text text-anchor="start" x="84" y="-127.75" font-family="Helvetica,sans-Serif" font-size="10.00">number_of_tiles()</text>
<text text-anchor="start" x="74" y="-112.5" font-family="Helvetica,sans-Serif" font-size="10.00">+</text>
<text text-anchor="start" x="84" y="-112.5" font-family="Helvetica,sans-Serif" font-size="10.00">valid_tile_id()</text>
<text text-anchor="start" x="74" y="-97.25" font-family="Helvetica,sans-Serif" font-size="10.00">+</text>
<text text-anchor="start" x="84" y="-97.25" font-family="Helvetica,sans-Serif" font-size="10.00">TTL_ceil_of_a_div_b()</text>
<text text-anchor="start" x="74" y="-82" font-family="Helvetica,sans-Serif" font-size="10.00">+</text>
<text text-anchor="start" x="84" y="-82" font-family="Helvetica,sans-Serif" font-size="10.00">tiles_in_width()</text>
<text text-anchor="start" x="74" y="-66.75" font-family="Helvetica,sans-Serif" font-size="10.00">+</text>
<text text-anchor="start" x="84" y="-66.75" font-family="Helvetica,sans-Serif" font-size="10.00">tiles_in_height()</text>
<text text-anchor="start" x="74" y="-51.5" font-family="Helvetica,sans-Serif" font-size="10.00">+</text>
<text text-anchor="start" x="84" y="-51.5" font-family="Helvetica,sans-Serif" font-size="10.00">tiles_in_depth()</text>
<text text-anchor="start" x="74" y="-36.25" font-family="Helvetica,sans-Serif" font-size="10.00">+</text>
<text text-anchor="start" x="84" y="-36.25" font-family="Helvetica,sans-Serif" font-size="10.00">create_tile()</text>
<text text-anchor="start" x="74" y="-21" font-family="Helvetica,sans-Serif" font-size="10.00">+</text>
<text text-anchor="start" x="84" y="-21" font-family="Helvetica,sans-Serif" font-size="10.00">get_tile()</text>
<text text-anchor="start" x="74" y="-5.75" font-family="Helvetica,sans-Serif" font-size="10.00">+</text>
<text text-anchor="start" x="84" y="-5.75" font-family="Helvetica,sans-Serif" font-size="10.00">get_tile_column_major()</text>
<polygon fill="#666666" stroke="#666666" points="70,-261.25 70,-261.25 191.5,-261.25 191.5,-261.25 70,-261.25"/>
<polygon fill="#666666" stroke="#666666" points="70,-169.75 70,-169.75 82,-169.75 82,-169.75 70,-169.75"/>
<polygon fill="#666666" stroke="#666666" points="82,-169.75 82,-169.75 191.5,-169.75 191.5,-169.75 82,-169.75"/>
<polygon fill="none" stroke="#666666" points="70,0 70,-278.5 191.5,-278.5 191.5,0 70,0"/>
</a>
</g>
</g>
<!-- Node2 -->
<g id="Node000002" class="node">
<title>Node2</title>
<g id="a_Node000002"><a xlink:href="structTTL__shape.html" target="_top" xlink:title="Description of a Shape.">
<polygon fill="white" stroke="none" points="73.5,-457.75 0,-457.75 0,-362.25 73.5,-362.25 73.5,-457.75"/>
<text text-anchor="start" x="12" y="-444.25" font-family="Helvetica,sans-Serif" font-size="10.00">TTL_shape</text>
<text text-anchor="start" x="4" y="-429" font-family="Helvetica,sans-Serif" font-size="10.00">+</text>
<text text-anchor="start" x="14" y="-429" font-family="Helvetica,sans-Serif" font-size="10.00">width</text>
<text text-anchor="start" x="4" y="-413.75" font-family="Helvetica,sans-Serif" font-size="10.00">+</text>
<text text-anchor="start" x="14" y="-413.75" font-family="Helvetica,sans-Serif" font-size="10.00">height</text>
<text text-anchor="start" x="4" y="-398.5" font-family="Helvetica,sans-Serif" font-size="10.00">+</text>
<text text-anchor="start" x="14" y="-398.5" font-family="Helvetica,sans-Serif" font-size="10.00">depth</text>
<text text-anchor="start" x="4" y="-383.25" font-family="Helvetica,sans-Serif" font-size="10.00">+</text>
<text text-anchor="start" x="14" y="-383.25" font-family="Helvetica,sans-Serif" font-size="10.00">TTL_shape()</text>
<text text-anchor="start" x="4" y="-368" font-family="Helvetica,sans-Serif" font-size="10.00">+</text>
<text text-anchor="start" x="14" y="-368" font-family="Helvetica,sans-Serif" font-size="10.00">empty()</text>
<polygon fill="#666666" stroke="#666666" points="0,-440.5 0,-440.5 73.5,-440.5 73.5,-440.5 0,-440.5"/>
<polygon fill="#666666" stroke="#666666" points="0,-394.75 0,-394.75 12,-394.75 12,-394.75 0,-394.75"/>
<polygon fill="#666666" stroke="#666666" points="12,-394.75 12,-394.75 73.5,-394.75 73.5,-394.75 12,-394.75"/>
<polygon fill="none" stroke="#666666" points="0,-362.25 0,-457.75 73.5,-457.75 73.5,-362.25 0,-362.25"/>
</a>
</g>
</g>
<!-- Node2&#45;&gt;Node1 -->
<g id="edge1_Node000001_Node000002" class="edge">
<title>Node2&#45;&gt;Node1</title>
<g id="a_edge1_Node000001_Node000002"><a xlink:title=" ">
<path fill="none" stroke="#63b8ff" d="M53.02,-362.49C60.19,-341.97 69.07,-316.59 78.24,-290.39"/>
<polygon fill="none" stroke="#63b8ff" points="78.2,-290.49 76.41,-283.5 82.16,-279.16 83.96,-286.15 78.2,-290.49"/>
</a>
</g>
<text text-anchor="start" x="78.33" y="-316.5" font-family="Helvetica,sans-Serif" font-size="10.00" fill="grey">+space</text>
<text text-anchor="start" x="78.33" y="-301.25" font-family="Helvetica,sans-Serif" font-size="10.00" fill="grey">+tile</text>
</g>
<!-- Node3 -->
<g id="Node000003" class="node">
<title>Node3</title>
<g id="a_Node000003"><a xlink:href="structTTL__overlap.html" target="_top" xlink:title="Description of the overlap in 3D space of adjacent tiles.">
<polygon fill="white" stroke="none" points="170.12,-450.12 91.38,-450.12 91.38,-369.88 170.12,-369.88 170.12,-450.12"/>
<text text-anchor="start" x="103.38" y="-436.62" font-family="Helvetica,sans-Serif" font-size="10.00">TTL_overlap</text>
<text text-anchor="start" x="95.38" y="-421.38" font-family="Helvetica,sans-Serif" font-size="10.00">+</text>
<text text-anchor="start" x="105.38" y="-421.38" font-family="Helvetica,sans-Serif" font-size="10.00">width</text>
<text text-anchor="start" x="95.38" y="-406.12" font-family="Helvetica,sans-Serif" font-size="10.00">+</text>
<text text-anchor="start" x="105.38" y="-406.12" font-family="Helvetica,sans-Serif" font-size="10.00">height</text>
<text text-anchor="start" x="95.38" y="-390.88" font-family="Helvetica,sans-Serif" font-size="10.00">+</text>
<text text-anchor="start" x="105.38" y="-390.88" font-family="Helvetica,sans-Serif" font-size="10.00">depth</text>
<text text-anchor="start" x="95.38" y="-375.62" font-family="Helvetica,sans-Serif" font-size="10.00">+</text>
<text text-anchor="start" x="105.38" y="-375.62" font-family="Helvetica,sans-Serif" font-size="10.00">TTL_overlap()</text>
<polygon fill="#666666" stroke="#666666" points="91.38,-432.88 91.38,-432.88 170.12,-432.88 170.12,-432.88 91.38,-432.88"/>
<polygon fill="#666666" stroke="#666666" points="91.38,-387.12 91.38,-387.12 103.38,-387.12 103.38,-387.12 91.38,-387.12"/>
<polygon fill="#666666" stroke="#666666" points="103.38,-387.12 103.38,-387.12 170.12,-387.12 170.12,-387.12 103.38,-387.12"/>
<polygon fill="none" stroke="#666666" points="91.38,-369.88 91.38,-450.12 170.12,-450.12 170.12,-369.88 91.38,-369.88"/>
</a>
</g>
</g>
<!-- Node3&#45;&gt;Node1 -->
<g id="edge2_Node000001_Node000003" class="edge">
<title>Node3&#45;&gt;Node1</title>
<g id="a_edge2_Node000001_Node000003"><a xlink:title=" ">
<path fill="none" stroke="#63b8ff" d="M130.75,-369.92C130.75,-348.49 130.75,-320.4 130.75,-291.24"/>
<polygon fill="none" stroke="#63b8ff" points="130.75,-291.15 126.75,-285.15 130.75,-279.15 134.75,-285.15 130.75,-291.15"/>
</a>
</g>
<text text-anchor="start" x="133.75" y="-308.88" font-family="Helvetica,sans-Serif" font-size="10.00" fill="grey">+overlap</text>
</g>
<!-- Node4 -->
<g id="Node000004" class="node">
<title>Node4</title>
<g id="a_Node000004"><a xlink:href="structTTL__augmentation.html" target="_top" xlink:title="3D description of the augmented margins">
<polygon fill="white" stroke="none" points="293.62,-473 187.88,-473 187.88,-347 293.62,-347 293.62,-473"/>
<text text-anchor="start" x="199.88" y="-459.5" font-family="Helvetica,sans-Serif" font-size="10.00">TTL_augmentation</text>
<text text-anchor="start" x="191.88" y="-444.25" font-family="Helvetica,sans-Serif" font-size="10.00">+</text>
<text text-anchor="start" x="201.88" y="-444.25" font-family="Helvetica,sans-Serif" font-size="10.00">left</text>
<text text-anchor="start" x="191.88" y="-429" font-family="Helvetica,sans-Serif" font-size="10.00">+</text>
<text text-anchor="start" x="201.88" y="-429" font-family="Helvetica,sans-Serif" font-size="10.00">right</text>
<text text-anchor="start" x="191.88" y="-413.75" font-family="Helvetica,sans-Serif" font-size="10.00">+</text>
<text text-anchor="start" x="201.88" y="-413.75" font-family="Helvetica,sans-Serif" font-size="10.00">top</text>
<text text-anchor="start" x="191.88" y="-398.5" font-family="Helvetica,sans-Serif" font-size="10.00">+</text>
<text text-anchor="start" x="201.88" y="-398.5" font-family="Helvetica,sans-Serif" font-size="10.00">bottom</text>
<text text-anchor="start" x="191.88" y="-383.25" font-family="Helvetica,sans-Serif" font-size="10.00">+</text>
<text text-anchor="start" x="201.88" y="-383.25" font-family="Helvetica,sans-Serif" font-size="10.00">front</text>
<text text-anchor="start" x="191.88" y="-368" font-family="Helvetica,sans-Serif" font-size="10.00">+</text>
<text text-anchor="start" x="201.88" y="-368" font-family="Helvetica,sans-Serif" font-size="10.00">back</text>
<text text-anchor="start" x="191.88" y="-352.75" font-family="Helvetica,sans-Serif" font-size="10.00">+</text>
<text text-anchor="start" x="201.88" y="-352.75" font-family="Helvetica,sans-Serif" font-size="10.00">TTL_augmentation()</text>
<polygon fill="#666666" stroke="#666666" points="187.88,-455.75 187.88,-455.75 293.62,-455.75 293.62,-455.75 187.88,-455.75"/>
<polygon fill="#666666" stroke="#666666" points="187.88,-364.25 187.88,-364.25 199.88,-364.25 199.88,-364.25 187.88,-364.25"/>
<polygon fill="#666666" stroke="#666666" points="199.88,-364.25 199.88,-364.25 293.62,-364.25 293.62,-364.25 199.88,-364.25"/>
<polygon fill="none" stroke="#666666" points="187.88,-347 187.88,-473 293.62,-473 293.62,-347 187.88,-347"/>
</a>
</g>
</g>
<!-- Node4&#45;&gt;Node1 -->
<g id="edge3_Node000001_Node000004" class="edge">
<title>Node4&#45;&gt;Node1</title>
<g id="a_edge3_Node000001_Node000004"><a xlink:title=" ">
<path fill="none" stroke="#63b8ff" d="M215.38,-347.01C208.29,-329.71 200.28,-310.13 192.08,-290.08"/>
<polygon fill="none" stroke="#63b8ff" points="192.12,-290.18 186.14,-286.14 187.57,-279.07 193.54,-283.11 192.12,-290.18"/>
</a>
</g>
<text text-anchor="start" x="208.17" y="-308.88" font-family="Helvetica,sans-Serif" font-size="10.00" fill="grey">+augmentation</text>
</g>
</g>
</svg>
