<?xml version="1.0" encoding="UTF-8" standalone="no"?>
<!DOCTYPE svg PUBLIC "-//W3C//DTD SVG 1.1//EN"
 "http://www.w3.org/Graphics/SVG/1.1/DTD/svg11.dtd">
<!-- Generated by graphviz version 12.2.1 (20241206.2353)
 -->
<!-- Title: TTL_export_double_const_int_tensor_buffering_t Pages: 1 -->
<svg width="263pt" height="382pt"
 viewBox="0.00 0.00 262.88 381.75" xmlns="http://www.w3.org/2000/svg" xmlns:xlink="http://www.w3.org/1999/xlink">
<g id="graph0" class="graph" transform="scale(1 1) rotate(0) translate(4 377.75)">
<title>TTL_export_double_const_int_tensor_buffering_t</title>
<!-- Node1 -->
<g id="Node000001" class="node">
<title>Node1</title>
<g id="a_Node000001"><a xlink:title="Data required to perform double buffer pipelining.">
<polygon fill="#999999" stroke="none" points="191.38,-106.75 70.88,-106.75 70.88,0 191.38,0 191.38,-106.75"/>
<text text-anchor="start" x="74.88" y="-93.25" font-family="Helvetica,sans-Serif" font-size="10.00">TTL_export_double_const</text>
<text text-anchor="start" x="82" y="-82" font-family="Helvetica,sans-Serif" font-size="10.00">_int_tensor_buffering_t</text>
<text text-anchor="start" x="91.12" y="-66.75" font-family="Helvetica,sans-Serif" font-size="10.00">+</text>
<text text-anchor="start" x="117.38" y="-66.75" font-family="Helvetica,sans-Serif" font-size="10.00">index</text>
<text text-anchor="start" x="91.12" y="-51.5" font-family="Helvetica,sans-Serif" font-size="10.00">+</text>
<text text-anchor="start" x="117.38" y="-51.5" font-family="Helvetica,sans-Serif" font-size="10.00">int_base</text>
<text text-anchor="start" x="91.12" y="-36.25" font-family="Helvetica,sans-Serif" font-size="10.00">+</text>
<text text-anchor="start" x="117.38" y="-36.25" font-family="Helvetica,sans-Serif" font-size="10.00">common</text>
<text text-anchor="start" x="91.12" y="-21" font-family="Helvetica,sans-Serif" font-size="10.00">+</text>
<text text-anchor="start" x="117.38" y="-21" font-family="Helvetica,sans-Serif" font-size="10.00">event</text>
<text text-anchor="start" x="129.62" y="-5.75" font-family="Helvetica,sans-Serif" font-size="10.00"> </text>
<polygon fill="#666666" stroke="#666666" points="70.88,-78.25 70.88,-78.25 191.38,-78.25 191.38,-78.25 70.88,-78.25"/>
<polygon fill="#666666" stroke="#666666" points="70.88,-17.25 70.88,-17.25 115.38,-17.25 115.38,-17.25 70.88,-17.25"/>
<polygon fill="#666666" stroke="#666666" points="115.38,-17.25 115.38,-17.25 191.38,-17.25 191.38,-17.25 115.38,-17.25"/>
<polygon fill="none" stroke="#666666" points="70.88,0 70.88,-106.75 191.38,-106.75 191.38,0 70.88,0"/>
</a>
</g>
</g>
<!-- Node2 -->
<g id="Node000002" class="node">
<title>Node2</title>
<g id="a_Node000002"><a xlink:href="structTTL__ext__int__tensor__t.html" target="_top" xlink:title="const and non&#45;const tensors in the appropriate address space">
<polygon fill="white" stroke="none" points="132.25,-240.25 32,-240.25 32,-175.25 132.25,-175.25 132.25,-240.25"/>
<text text-anchor="start" x="36" y="-226.75" font-family="Helvetica,sans-Serif" font-size="10.00">TTL_ext_int_tensor_t</text>
<text text-anchor="start" x="45.69" y="-211.5" font-family="Helvetica,sans-Serif" font-size="10.00">+</text>
<text text-anchor="start" x="65.38" y="-211.5" font-family="Helvetica,sans-Serif" font-size="10.00">base</text>
<text text-anchor="start" x="45.69" y="-196.25" font-family="Helvetica,sans-Serif" font-size="10.00">+</text>
<text text-anchor="start" x="65.38" y="-196.25" font-family="Helvetica,sans-Serif" font-size="10.00">elem_size</text>
<text text-anchor="start" x="80.62" y="-181" font-family="Helvetica,sans-Serif" font-size="10.00"> </text>
<polygon fill="#666666" stroke="#666666" points="32,-223 32,-223 132.25,-223 132.25,-223 32,-223"/>
<polygon fill="#666666" stroke="#666666" points="32,-192.5 32,-192.5 63.38,-192.5 63.38,-192.5 32,-192.5"/>
<polygon fill="#666666" stroke="#666666" points="63.38,-192.5 63.38,-192.5 132.25,-192.5 132.25,-192.5 63.38,-192.5"/>
<polygon fill="none" stroke="#666666" points="32,-175.25 32,-240.25 132.25,-240.25 132.25,-175.25 32,-175.25"/>
</a>
</g>
</g>
<!-- Node2&#45;&gt;Node1 -->
<g id="edge1_Node000001_Node000002" class="edge">
<title>Node2&#45;&gt;Node1</title>
<g id="a_edge1_Node000001_Node000002"><a xlink:title=" ">
<path fill="none" stroke="#63b8ff" d="M78.43,-175.31C77.65,-159.76 78.28,-140.91 83.38,-124.75 84.08,-122.52 84.88,-120.3 85.75,-118.1"/>
<polygon fill="none" stroke="#63b8ff" points="85.71,-118.18 84.61,-111.06 90.77,-107.3 91.87,-114.43 85.71,-118.18"/>
</a>
</g>
<text text-anchor="start" x="86.38" y="-144.75" font-family="Helvetica,sans-Serif" font-size="10.00" fill="grey">+ext_tensor_in</text>
<text text-anchor="start" x="86.38" y="-129.5" font-family="Helvetica,sans-Serif" font-size="10.00" fill="grey">+ext_tensor_out</text>
</g>
<!-- Node3 -->
<g id="Node000003" class="node">
<title>Node3</title>
<g id="a_Node000003"><a xlink:href="structTTL__layout__t.html" target="_top" xlink:title="Description of a Tensor layout in memory.">
<polygon fill="white" stroke="none" points="80.25,-366.12 0,-366.12 0,-301.12 80.25,-301.12 80.25,-366.12"/>
<text text-anchor="start" x="11.62" y="-352.62" font-family="Helvetica,sans-Serif" font-size="10.00">TTL_layout_t</text>
<text text-anchor="start" x="4" y="-337.38" font-family="Helvetica,sans-Serif" font-size="10.00">+</text>
<text text-anchor="start" x="14" y="-337.38" font-family="Helvetica,sans-Serif" font-size="10.00">row_spacing</text>
<text text-anchor="start" x="4" y="-322.12" font-family="Helvetica,sans-Serif" font-size="10.00">+</text>
<text text-anchor="start" x="14" y="-322.12" font-family="Helvetica,sans-Serif" font-size="10.00">plane_spacing</text>
<text text-anchor="start" x="38.62" y="-306.88" font-family="Helvetica,sans-Serif" font-size="10.00"> </text>
<polygon fill="#666666" stroke="#666666" points="0,-348.88 0,-348.88 80.25,-348.88 80.25,-348.88 0,-348.88"/>
<polygon fill="#666666" stroke="#666666" points="0,-318.38 0,-318.38 12,-318.38 12,-318.38 0,-318.38"/>
<polygon fill="#666666" stroke="#666666" points="12,-318.38 12,-318.38 80.25,-318.38 80.25,-318.38 12,-318.38"/>
<polygon fill="none" stroke="#666666" points="0,-301.12 0,-366.12 80.25,-366.12 80.25,-301.12 0,-301.12"/>
</a>
</g>
</g>
<!-- Node3&#45;&gt;Node2 -->
<g id="edge2_Node000002_Node000003" class="edge">
<title>Node3&#45;&gt;Node2</title>
<g id="a_edge2_Node000002_Node000003"><a xlink:title=" ">
<path fill="none" stroke="#63b8ff" d="M36.27,-301.39C35.71,-287.76 36.63,-271.82 41.62,-258.25 42.5,-255.87 43.55,-253.51 44.72,-251.21"/>
<polygon fill="none" stroke="#63b8ff" points="44.78,-251.11 44.49,-243.9 51.03,-240.86 51.32,-248.07 44.78,-251.11"/>
</a>
</g>
<text text-anchor="start" x="44.62" y="-263" font-family="Helvetica,sans-Serif" font-size="10.00" fill="grey">+layout</text>
</g>
<!-- Node4 -->
<g id="Node000004" class="node">
<title>Node4</title>
<g id="a_Node000004"><a xlink:href="structTTL__shape__t.html" target="_top" xlink:title="Description of a Shape.">
<polygon fill="white" stroke="none" points="169,-373.75 103.25,-373.75 103.25,-293.5 169,-293.5 169,-373.75"/>
<text text-anchor="start" x="107.25" y="-360.25" font-family="Helvetica,sans-Serif" font-size="10.00">TTL_shape_t</text>
<text text-anchor="start" x="112.62" y="-345" font-family="Helvetica,sans-Serif" font-size="10.00">+</text>
<text text-anchor="start" x="128" y="-345" font-family="Helvetica,sans-Serif" font-size="10.00">width</text>
<text text-anchor="start" x="112.62" y="-329.75" font-family="Helvetica,sans-Serif" font-size="10.00">+</text>
<text text-anchor="start" x="128" y="-329.75" font-family="Helvetica,sans-Serif" font-size="10.00">height</text>
<text text-anchor="start" x="112.62" y="-314.5" font-family="Helvetica,sans-Serif" font-size="10.00">+</text>
<text text-anchor="start" x="128" y="-314.5" font-family="Helvetica,sans-Serif" font-size="10.00">depth</text>
<text text-anchor="start" x="134.62" y="-299.25" font-family="Helvetica,sans-Serif" font-size="10.00"> </text>
<polygon fill="#666666" stroke="#666666" points="103.25,-356.5 103.25,-356.5 169,-356.5 169,-356.5 103.25,-356.5"/>
<polygon fill="#666666" stroke="#666666" points="103.25,-310.75 103.25,-310.75 126,-310.75 126,-310.75 103.25,-310.75"/>
<polygon fill="#666666" stroke="#666666" points="126,-310.75 126,-310.75 169,-310.75 169,-310.75 126,-310.75"/>
<polygon fill="none" stroke="#666666" points="103.25,-293.5 103.25,-373.75 169,-373.75 169,-293.5 103.25,-293.5"/>
</a>
</g>
</g>
<!-- Node4&#45;&gt;Node2 -->
<g id="edge3_Node000002_Node000004" class="edge">
<title>Node4&#45;&gt;Node2</title>
<g id="a_edge3_Node000002_Node000004"><a xlink:title=" ">
<path fill="none" stroke="#63b8ff" d="M118.83,-293.62C116.15,-287.56 113.43,-281.36 110.88,-275.5 107.56,-267.91 104.06,-259.83 100.68,-252"/>
<polygon fill="none" stroke="#63b8ff" points="100.62,-251.87 94.58,-247.94 95.88,-240.85 101.92,-244.77 100.62,-251.87"/>
</a>
</g>
<text text-anchor="start" x="113.88" y="-263" font-family="Helvetica,sans-Serif" font-size="10.00" fill="grey">+shape</text>
</g>
<!-- Node5 -->
<g id="Node000005" class="node">
<title>Node5</title>
<g id="a_Node000005"><a xlink:href="structTTL__tile__t.html" target="_top" xlink:title=" ">
<polygon fill="white" stroke="none" points="207.25,-232.62 155,-232.62 155,-182.88 207.25,-182.88 207.25,-232.62"/>
<text text-anchor="start" x="159" y="-219.12" font-family="Helvetica,sans-Serif" font-size="10.00">TTL_tile_t</text>
<text text-anchor="start" x="179.62" y="-203.88" font-family="Helvetica,sans-Serif" font-size="10.00"> </text>
<text text-anchor="start" x="179.62" y="-188.62" font-family="Helvetica,sans-Serif" font-size="10.00"> </text>
<polygon fill="#666666" stroke="#666666" points="155,-215.38 155,-215.38 207.25,-215.38 207.25,-215.38 155,-215.38"/>
<polygon fill="#666666" stroke="#666666" points="155,-200.12 155,-200.12 207.25,-200.12 207.25,-200.12 155,-200.12"/>
<polygon fill="none" stroke="#666666" points="155,-182.88 155,-232.62 207.25,-232.62 207.25,-182.88 155,-182.88"/>
</a>
</g>
</g>
<!-- Node4&#45;&gt;Node5 -->
<g id="edge5_Node000005_Node000004" class="edge">
<title>Node4&#45;&gt;Node5</title>
<g id="a_edge5_Node000005_Node000004"><a xlink:title=" ">
<path fill="none" stroke="#63b8ff" d="M147.02,-293.71C150.52,-282.19 154.6,-269.63 158.88,-258.25 160.65,-253.52 162.66,-248.61 164.73,-243.79"/>
<polygon fill="none" stroke="#63b8ff" points="164.65,-243.96 163.42,-236.85 169.51,-232.99 170.74,-240.1 164.65,-243.96"/>
</a>
</g>
<text text-anchor="start" x="161.88" y="-263" font-family="Helvetica,sans-Serif" font-size="10.00" fill="grey">+shape</text>
</g>
<!-- Node5&#45;&gt;Node1 -->
<g id="edge4_Node000001_Node000005" class="edge">
<title>Node5&#45;&gt;Node1</title>
<g id="a_edge4_Node000001_Node000005"><a xlink:title=" ">
<path fill="none" stroke="#63b8ff" d="M175.58,-183.21C171.51,-166.7 165.58,-144.2 159.12,-124.75 158.44,-122.69 157.73,-120.6 157,-118.5"/>
<polygon fill="none" stroke="#63b8ff" points="157,-118.52 151.2,-114.24 152.91,-107.24 158.72,-111.52 157,-118.52"/>
</a>
</g>
<text text-anchor="start" x="171.51" y="-137.12" font-family="Helvetica,sans-Serif" font-size="10.00" fill="grey">+prev_tile</text>
</g>
<!-- Node6 -->
<g id="Node000006" class="node">
<title>Node6</title>
<g id="a_Node000006"><a xlink:href="structTTL__offset__t.html" target="_top" xlink:title="Description of the 3D offset of an object.">
<polygon fill="white" stroke="none" points="254.88,-373.75 191.38,-373.75 191.38,-293.5 254.88,-293.5 254.88,-373.75"/>
<text text-anchor="start" x="195.38" y="-360.25" font-family="Helvetica,sans-Serif" font-size="10.00">TTL_offset_t</text>
<text text-anchor="start" x="205.62" y="-345" font-family="Helvetica,sans-Serif" font-size="10.00">+</text>
<text text-anchor="start" x="225.88" y="-345" font-family="Helvetica,sans-Serif" font-size="10.00">x</text>
<text text-anchor="start" x="205.62" y="-329.75" font-family="Helvetica,sans-Serif" font-size="10.00">+</text>
<text text-anchor="start" x="225.88" y="-329.75" font-family="Helvetica,sans-Serif" font-size="10.00">y</text>
<text text-anchor="start" x="205.62" y="-314.5" font-family="Helvetica,sans-Serif" font-size="10.00">+</text>
<text text-anchor="start" x="225.88" y="-314.5" font-family="Helvetica,sans-Serif" font-size="10.00">z</text>
<text text-anchor="start" x="221.62" y="-299.25" font-family="Helvetica,sans-Serif" font-size="10.00"> </text>
<polygon fill="#666666" stroke="#666666" points="191.38,-356.5 191.38,-356.5 254.88,-356.5 254.88,-356.5 191.38,-356.5"/>
<polygon fill="#666666" stroke="#666666" points="191.38,-310.75 191.38,-310.75 223.88,-310.75 223.88,-310.75 191.38,-310.75"/>
<polygon fill="#666666" stroke="#666666" points="223.88,-310.75 223.88,-310.75 254.88,-310.75 254.88,-310.75 223.88,-310.75"/>
<polygon fill="none" stroke="#666666" points="191.38,-293.5 191.38,-373.75 254.88,-373.75 254.88,-293.5 191.38,-293.5"/>
</a>
</g>
</g>
<!-- Node6&#45;&gt;Node5 -->
<g id="edge6_Node000005_Node000006" class="edge">
<title>Node6&#45;&gt;Node5</title>
<g id="a_edge6_Node000005_Node000006"><a xlink:title=" ">
<path fill="none" stroke="#63b8ff" d="M212.41,-293.8C209.02,-282.28 205.12,-269.69 201.12,-258.25 199.53,-253.69 197.76,-248.94 195.95,-244.27"/>
<polygon fill="none" stroke="#63b8ff" points="195.94,-244.22 190,-240.13 191.49,-233.08 197.43,-237.17 195.94,-244.22"/>
</a>
</g>
<text text-anchor="start" x="209.48" y="-263" font-family="Helvetica,sans-Serif" font-size="10.00" fill="grey">+offset</text>
</g>
</g>
</svg>
