<?xml version="1.0" encoding="UTF-8" standalone="no"?>
<!DOCTYPE svg PUBLIC "-//W3C//DTD SVG 1.1//EN"
 "http://www.w3.org/Graphics/SVG/1.1/DTD/svg11.dtd">
<!-- Generated by graphviz version 12.2.1 (20241206.2353)
 -->
<!-- Title: TTL_import_double_const_int_tensor_buffering_t Pages: 1 -->
<svg width="263pt" height="382pt"
 viewBox="0.00 0.00 262.88 381.75" xmlns="http://www.w3.org/2000/svg" xmlns:xlink="http://www.w3.org/1999/xlink">
<g id="graph0" class="graph" transform="scale(1 1) rotate(0) translate(4 377.75)">
<title>TTL_import_double_const_int_tensor_buffering_t</title>
<!-- Node1 -->
<g id="Node000001" class="node">
<title>Node1</title>
<g id="a_Node000001"><a xlink:title="Data required to perform double buffer pipelining.">
<polygon fill="#999999" stroke="none" points="191.75,-106.75 70.5,-106.75 70.5,0 191.75,0 191.75,-106.75"/>
<text text-anchor="start" x="74.5" y="-93.25" font-family="Helvetica,sans-Serif" font-size="10.00">TTL_import_double_const</text>
<text text-anchor="start" x="82" y="-82" font-family="Helvetica,sans-Serif" font-size="10.00">_int_tensor_buffering_t</text>
<text text-anchor="start" x="90.94" y="-66.75" font-family="Helvetica,sans-Serif" font-size="10.00">+</text>
<text text-anchor="start" x="117.38" y="-66.75" font-family="Helvetica,sans-Serif" font-size="10.00">index</text>
<text text-anchor="start" x="90.94" y="-51.5" font-family="Helvetica,sans-Serif" font-size="10.00">+</text>
<text text-anchor="start" x="117.38" y="-51.5" font-family="Helvetica,sans-Serif" font-size="10.00">int_base</text>
<text text-anchor="start" x="90.94" y="-36.25" font-family="Helvetica,sans-Serif" font-size="10.00">+</text>
<text text-anchor="start" x="117.38" y="-36.25" font-family="Helvetica,sans-Serif" font-size="10.00">common</text>
<text text-anchor="start" x="90.94" y="-21" font-family="Helvetica,sans-Serif" font-size="10.00">+</text>
<text text-anchor="start" x="117.38" y="-21" font-family="Helvetica,sans-Serif" font-size="10.00">event</text>
<text text-anchor="start" x="129.62" y="-5.75" font-family="Helvetica,sans-Serif" font-size="10.00"> </text>
<polygon fill="#666666" stroke="#666666" points="70.5,-78.25 70.5,-78.25 191.75,-78.25 191.75,-78.25 70.5,-78.25"/>
<polygon fill="#666666" stroke="#666666" points="70.5,-17.25 70.5,-17.25 115.38,-17.25 115.38,-17.25 70.5,-17.25"/>
<polygon fill="#666666" stroke="#666666" points="115.38,-17.25 115.38,-17.25 191.75,-17.25 191.75,-17.25 115.38,-17.25"/>
<polygon fill="none" stroke="#666666" points="70.5,0 70.5,-106.75 191.75,-106.75 191.75,0 70.5,0"/>
</a>
</g>
</g>
<!-- Node2 -->
<g id="Node000002" class="node">
<title>Node2</title>
<g id="a_Node000002"><a xlink:href="structTTL__const__ext__int__tensor__t.html" target="_top" xlink:title=" ">
<polygon fill="white" stroke="none" points="141.88,-240.25 12.38,-240.25 12.38,-175.25 141.88,-175.25 141.88,-240.25"/>
<text text-anchor="start" x="16.38" y="-226.75" font-family="Helvetica,sans-Serif" font-size="10.00">TTL_const_ext_int_tensor_t</text>
<text text-anchor="start" x="33.38" y="-211.5" font-family="Helvetica,sans-Serif" font-size="10.00">+</text>
<text text-anchor="start" x="60.38" y="-211.5" font-family="Helvetica,sans-Serif" font-size="10.00">base</text>
<text text-anchor="start" x="33.38" y="-196.25" font-family="Helvetica,sans-Serif" font-size="10.00">+</text>
<text text-anchor="start" x="60.38" y="-196.25" font-family="Helvetica,sans-Serif" font-size="10.00">elem_size</text>
<text text-anchor="start" x="75.62" y="-181" font-family="Helvetica,sans-Serif" font-size="10.00"> </text>
<polygon fill="#666666" stroke="#666666" points="12.38,-223 12.38,-223 141.88,-223 141.88,-223 12.38,-223"/>
<polygon fill="#666666" stroke="#666666" points="12.38,-192.5 12.38,-192.5 58.38,-192.5 58.38,-192.5 12.38,-192.5"/>
<polygon fill="#666666" stroke="#666666" points="58.38,-192.5 58.38,-192.5 141.88,-192.5 141.88,-192.5 58.38,-192.5"/>
<polygon fill="none" stroke="#666666" points="12.38,-175.25 12.38,-240.25 141.88,-240.25 141.88,-175.25 12.38,-175.25"/>
</a>
</g>
</g>
<!-- Node2&#45;&gt;Node1 -->
<g id="edge1_Node000001_Node000002" class="edge">
<title>Node2&#45;&gt;Node1</title>
<g id="a_edge1_Node000001_Node000002"><a xlink:title=" ">
<path fill="none" stroke="#63b8ff" d="M76.81,-175.62C77.51,-159.98 79.68,-140.95 85.38,-124.75 86.16,-122.53 87.02,-120.3 87.96,-118.09"/>
<polygon fill="none" stroke="#63b8ff" points="87.99,-118.02 86.97,-110.89 93.17,-107.2 94.19,-114.34 87.99,-118.02"/>
</a>
</g>
<text text-anchor="start" x="88.38" y="-144.75" font-family="Helvetica,sans-Serif" font-size="10.00" fill="grey">+ext_tensor_in</text>
<text text-anchor="start" x="88.38" y="-129.5" font-family="Helvetica,sans-Serif" font-size="10.00" fill="grey">+ext_tensor_out</text>
</g>
<!-- Node3 -->
<g id="Node000003" class="node">
<title>Node3</title>
<g id="a_Node000003"><a xlink:href="structTTL__layout__t.html" target="_top" xlink:title="Description of a Tensor layout in memory.">
<polygon fill="white" stroke="none" points="80.25,-366.12 0,-366.12 0,-301.12 80.25,-301.12 80.25,-366.12"/>
<text text-anchor="start" x="11.62" y="-352.62" font-family="Helvetica,sans-Serif" font-size="10.00">TTL_layout_t</text>
<text text-anchor="start" x="4" y="-337.38" font-family="Helvetica,sans-Serif" font-size="10.00">+</text>
<text text-anchor="start" x="14" y="-337.38" font-family="Helvetica,sans-Serif" font-size="10.00">row_spacing</text>
<text text-anchor="start" x="4" y="-322.12" font-family="Helvetica,sans-Serif" font-size="10.00">+</text>
<text text-anchor="start" x="14" y="-322.12" font-family="Helvetica,sans-Serif" font-size="10.00">plane_spacing</text>
<text text-anchor="start" x="38.62" y="-306.88" font-family="Helvetica,sans-Serif" font-size="10.00"> </text>
<polygon fill="#666666" stroke="#666666" points="0,-348.88 0,-348.88 80.25,-348.88 80.25,-348.88 0,-348.88"/>
<polygon fill="#666666" stroke="#666666" points="0,-318.38 0,-318.38 12,-318.38 12,-318.38 0,-318.38"/>
<polygon fill="#666666" stroke="#666666" points="12,-318.38 12,-318.38 80.25,-318.38 80.25,-318.38 12,-318.38"/>
<polygon fill="none" stroke="#666666" points="0,-301.12 0,-366.12 80.25,-366.12 80.25,-301.12 0,-301.12"/>
</a>
</g>
</g>
<!-- Node3&#45;&gt;Node2 -->
<g id="edge2_Node000002_Node000003" class="edge">
<title>Node3&#45;&gt;Node2</title>
<g id="a_edge2_Node000002_Node000003"><a xlink:title=" ">
<path fill="none" stroke="#63b8ff" d="M36.67,-301.16C36.22,-287.64 37.1,-271.85 41.62,-258.25 42.37,-256.01 43.25,-253.79 44.24,-251.6"/>
<polygon fill="none" stroke="#63b8ff" points="44.27,-251.56 43.62,-244.38 50,-241.02 50.65,-248.2 44.27,-251.56"/>
</a>
</g>
<text text-anchor="start" x="44.62" y="-263" font-family="Helvetica,sans-Serif" font-size="10.00" fill="grey">+layout</text>
</g>
<!-- Node4 -->
<g id="Node000004" class="node">
<title>Node4</title>
<g id="a_Node000004"><a xlink:href="structTTL__shape__t.html" target="_top" xlink:title="Description of a Shape.">
<polygon fill="white" stroke="none" points="169,-373.75 103.25,-373.75 103.25,-293.5 169,-293.5 169,-373.75"/>
<text text-anchor="start" x="107.25" y="-360.25" font-family="Helvetica,sans-Serif" font-size="10.00">TTL_shape_t</text>
<text text-anchor="start" x="112.62" y="-345" font-family="Helvetica,sans-Serif" font-size="10.00">+</text>
<text text-anchor="start" x="128" y="-345" font-family="Helvetica,sans-Serif" font-size="10.00">width</text>
<text text-anchor="start" x="112.62" y="-329.75" font-family="Helvetica,sans-Serif" font-size="10.00">+</text>
<text text-anchor="start" x="128" y="-329.75" font-family="Helvetica,sans-Serif" font-size="10.00">height</text>
<text text-anchor="start" x="112.62" y="-314.5" font-family="Helvetica,sans-Serif" font-size="10.00">+</text>
<text text-anchor="start" x="128" y="-314.5" font-family="Helvetica,sans-Serif" font-size="10.00">depth</text>
<text text-anchor="start" x="134.62" y="-299.25" font-family="Helvetica,sans-Serif" font-size="10.00"> </text>
<polygon fill="#666666" stroke="#666666" points="103.25,-356.5 103.25,-356.5 169,-356.5 169,-356.5 103.25,-356.5"/>
<polygon fill="#666666" stroke="#666666" points="103.25,-310.75 103.25,-310.75 126,-310.75 126,-310.75 103.25,-310.75"/>
<polygon fill="#666666" stroke="#666666" points="126,-310.75 126,-310.75 169,-310.75 169,-310.75 126,-310.75"/>
<polygon fill="none" stroke="#666666" points="103.25,-293.5 103.25,-373.75 169,-373.75 169,-293.5 103.25,-293.5"/>
</a>
</g>
</g>
<!-- Node4&#45;&gt;Node2 -->
<g id="edge3_Node000002_Node000004" class="edge">
<title>Node4&#45;&gt;Node2</title>
<g id="a_edge3_Node000002_Node000004"><a xlink:title=" ">
<path fill="none" stroke="#63b8ff" d="M117.62,-293.77C111.24,-280.38 104.06,-265.31 97.54,-251.62"/>
<polygon fill="none" stroke="#63b8ff" points="97.56,-251.66 91.37,-247.97 92.4,-240.83 98.6,-244.53 97.56,-251.66"/>
</a>
</g>
<text text-anchor="start" x="111.39" y="-263" font-family="Helvetica,sans-Serif" font-size="10.00" fill="grey">+shape</text>
</g>
<!-- Node5 -->
<g id="Node000005" class="node">
<title>Node5</title>
<g id="a_Node000005"><a xlink:href="structTTL__tile__t.html" target="_top" xlink:title=" ">
<polygon fill="white" stroke="none" points="212.25,-232.62 160,-232.62 160,-182.88 212.25,-182.88 212.25,-232.62"/>
<text text-anchor="start" x="164" y="-219.12" font-family="Helvetica,sans-Serif" font-size="10.00">TTL_tile_t</text>
<text text-anchor="start" x="184.62" y="-203.88" font-family="Helvetica,sans-Serif" font-size="10.00"> </text>
<text text-anchor="start" x="184.62" y="-188.62" font-family="Helvetica,sans-Serif" font-size="10.00"> </text>
<polygon fill="#666666" stroke="#666666" points="160,-215.38 160,-215.38 212.25,-215.38 212.25,-215.38 160,-215.38"/>
<polygon fill="#666666" stroke="#666666" points="160,-200.12 160,-200.12 212.25,-200.12 212.25,-200.12 160,-200.12"/>
<polygon fill="none" stroke="#666666" points="160,-182.88 160,-232.62 212.25,-232.62 212.25,-182.88 160,-182.88"/>
</a>
</g>
</g>
<!-- Node4&#45;&gt;Node5 -->
<g id="edge5_Node000005_Node000004" class="edge">
<title>Node4&#45;&gt;Node5</title>
<g id="a_edge5_Node000005_Node000004"><a xlink:title=" ">
<path fill="none" stroke="#63b8ff" d="M146.33,-293.87C149.83,-282.24 154.09,-269.57 158.88,-258.25 160.88,-253.51 163.21,-248.63 165.65,-243.87"/>
<polygon fill="none" stroke="#63b8ff" points="165.69,-243.79 165,-236.61 171.37,-233.22 172.05,-240.4 165.69,-243.79"/>
</a>
</g>
<text text-anchor="start" x="161.88" y="-263" font-family="Helvetica,sans-Serif" font-size="10.00" fill="grey">+shape</text>
</g>
<!-- Node5&#45;&gt;Node1 -->
<g id="edge4_Node000001_Node000005" class="edge">
<title>Node5&#45;&gt;Node1</title>
<g id="a_edge4_Node000001_Node000005"><a xlink:title=" ">
<path fill="none" stroke="#63b8ff" d="M179.67,-183.2C174.97,-166.69 168.21,-144.19 161.12,-124.75 160.37,-122.69 159.6,-120.61 158.8,-118.5"/>
<polygon fill="none" stroke="#63b8ff" points="158.76,-118.4 152.84,-114.28 154.36,-107.23 160.28,-111.35 158.76,-118.4"/>
</a>
</g>
<text text-anchor="start" x="174.59" y="-137.12" font-family="Helvetica,sans-Serif" font-size="10.00" fill="grey">+prev_tile</text>
</g>
<!-- Node6 -->
<g id="Node000006" class="node">
<title>Node6</title>
<g id="a_Node000006"><a xlink:href="structTTL__offset__t.html" target="_top" xlink:title="Description of the 3D offset of an object.">
<polygon fill="white" stroke="none" points="254.88,-373.75 191.38,-373.75 191.38,-293.5 254.88,-293.5 254.88,-373.75"/>
<text text-anchor="start" x="195.38" y="-360.25" font-family="Helvetica,sans-Serif" font-size="10.00">TTL_offset_t</text>
<text text-anchor="start" x="205.62" y="-345" font-family="Helvetica,sans-Serif" font-size="10.00">+</text>
<text text-anchor="start" x="225.88" y="-345" font-family="Helvetica,sans-Serif" font-size="10.00">x</text>
<text text-anchor="start" x="205.62" y="-329.75" font-family="Helvetica,sans-Serif" font-size="10.00">+</text>
<text text-anchor="start" x="225.88" y="-329.75" font-family="Helvetica,sans-Serif" font-size="10.00">y</text>
<text text-anchor="start" x="205.62" y="-314.5" font-family="Helvetica,sans-Serif" font-size="10.00">+</text>
<text text-anchor="start" x="225.88" y="-314.5" font-family="Helvetica,sans-Serif" font-size="10.00">z</text>
<text text-anchor="start" x="221.62" y="-299.25" font-family="Helvetica,sans-Serif" font-size="10.00"> </text>
<polygon fill="#666666" stroke="#666666" points="191.38,-356.5 191.38,-356.5 254.88,-356.5 254.88,-356.5 191.38,-356.5"/>
<polygon fill="#666666" stroke="#666666" points="191.38,-310.75 191.38,-310.75 223.88,-310.75 223.88,-310.75 191.38,-310.75"/>
<polygon fill="#666666" stroke="#666666" points="223.88,-310.75 223.88,-310.75 254.88,-310.75 254.88,-310.75 223.88,-310.75"/>
<polygon fill="none" stroke="#666666" points="191.38,-293.5 191.38,-373.75 254.88,-373.75 254.88,-293.5 191.38,-293.5"/>
</a>
</g>
</g>
<!-- Node6&#45;&gt;Node5 -->
<g id="edge6_Node000005_Node000006" class="edge">
<title>Node6&#45;&gt;Node5</title>
<g id="a_edge6_Node000005_Node000006"><a xlink:title=" ">
<path fill="none" stroke="#63b8ff" d="M211.64,-293.62C208.27,-282.22 204.56,-269.73 201.12,-258.25 199.82,-253.9 198.45,-249.34 197.09,-244.82"/>
<polygon fill="none" stroke="#63b8ff" points="197.07,-244.76 191.5,-240.17 193.59,-233.27 199.16,-237.85 197.07,-244.76"/>
</a>
</g>
<text text-anchor="start" x="208.98" y="-263" font-family="Helvetica,sans-Serif" font-size="10.00" fill="grey">+offset</text>
</g>
</g>
</svg>
