<?xml version="1.0" encoding="UTF-8" standalone="no"?>
<!DOCTYPE svg PUBLIC "-//W3C//DTD SVG 1.1//EN"
 "http://www.w3.org/Graphics/SVG/1.1/DTD/svg11.dtd">
<!-- Generated by graphviz version 12.2.1 (20241206.2353)
 -->
<!-- Title: TTL_const_ext_int_tensor_t Pages: 1 -->
<svg width="172pt" height="207pt"
 viewBox="0.00 0.00 172.00 206.50" xmlns="http://www.w3.org/2000/svg" xmlns:xlink="http://www.w3.org/1999/xlink">
<g id="graph0" class="graph" transform="scale(1 1) rotate(0) translate(4 202.5)">
<title>TTL_const_ext_int_tensor_t</title>
<!-- Node1 -->
<g id="Node000001" class="node">
<title>Node1</title>
<g id="a_Node000001"><a xlink:title=" ">
<polygon fill="#999999" stroke="none" points="149.88,-65 20.38,-65 20.38,0 149.88,0 149.88,-65"/>
<text text-anchor="start" x="24.38" y="-51.5" font-family="Helvetica,sans-Serif" font-size="10.00">TTL_const_ext_int_tensor_t</text>
<text text-anchor="start" x="41.38" y="-36.25" font-family="Helvetica,sans-Serif" font-size="10.00">+</text>
<text text-anchor="start" x="68.38" y="-36.25" font-family="Helvetica,sans-Serif" font-size="10.00">base</text>
<text text-anchor="start" x="41.38" y="-21" font-family="Helvetica,sans-Serif" font-size="10.00">+</text>
<text text-anchor="start" x="68.38" y="-21" font-family="Helvetica,sans-Serif" font-size="10.00">elem_size</text>
<text text-anchor="start" x="83.62" y="-5.75" font-family="Helvetica,sans-Serif" font-size="10.00"> </text>
<polygon fill="#666666" stroke="#666666" points="20.38,-47.75 20.38,-47.75 149.88,-47.75 149.88,-47.75 20.38,-47.75"/>
<polygon fill="#666666" stroke="#666666" points="20.38,-17.25 20.38,-17.25 66.38,-17.25 66.38,-17.25 20.38,-17.25"/>
<polygon fill="#666666" stroke="#666666" points="66.38,-17.25 66.38,-17.25 149.88,-17.25 149.88,-17.25 66.38,-17.25"/>
<polygon fill="none" stroke="#666666" points="20.38,0 20.38,-65 149.88,-65 149.88,0 20.38,0"/>
</a>
</g>
</g>
<!-- Node2 -->
<g id="Node000002" class="node">
<title>Node2</title>
<g id="a_Node000002"><a xlink:href="structTTL__layout__t.html" target="_top" xlink:title="Description of a Tensor layout in memory.">
<polygon fill="white" stroke="none" points="80.25,-190.88 0,-190.88 0,-125.88 80.25,-125.88 80.25,-190.88"/>
<text text-anchor="start" x="11.62" y="-177.38" font-family="Helvetica,sans-Serif" font-size="10.00">TTL_layout_t</text>
<text text-anchor="start" x="4" y="-162.12" font-family="Helvetica,sans-Serif" font-size="10.00">+</text>
<text text-anchor="start" x="14" y="-162.12" font-family="Helvetica,sans-Serif" font-size="10.00">row_spacing</text>
<text text-anchor="start" x="4" y="-146.88" font-family="Helvetica,sans-Serif" font-size="10.00">+</text>
<text text-anchor="start" x="14" y="-146.88" font-family="Helvetica,sans-Serif" font-size="10.00">plane_spacing</text>
<text text-anchor="start" x="38.62" y="-131.62" font-family="Helvetica,sans-Serif" font-size="10.00"> </text>
<polygon fill="#666666" stroke="#666666" points="0,-173.62 0,-173.62 80.25,-173.62 80.25,-173.62 0,-173.62"/>
<polygon fill="#666666" stroke="#666666" points="0,-143.12 0,-143.12 12,-143.12 12,-143.12 0,-143.12"/>
<polygon fill="#666666" stroke="#666666" points="12,-143.12 12,-143.12 80.25,-143.12 80.25,-143.12 12,-143.12"/>
<polygon fill="none" stroke="#666666" points="0,-125.88 0,-190.88 80.25,-190.88 80.25,-125.88 0,-125.88"/>
</a>
</g>
</g>
<!-- Node2&#45;&gt;Node1 -->
<g id="edge1_Node000001_Node000002" class="edge">
<title>Node2&#45;&gt;Node1</title>
<g id="a_edge1_Node000001_Node000002"><a xlink:title=" ">
<path fill="none" stroke="#63b8ff" d="M51.48,-126.12C56.92,-111.15 63.51,-92.99 69.42,-76.73"/>
<polygon fill="none" stroke="#63b8ff" points="69.37,-76.87 67.66,-69.87 73.47,-65.6 75.18,-72.6 69.37,-76.87"/>
</a>
</g>
<text text-anchor="start" x="69.66" y="-87.75" font-family="Helvetica,sans-Serif" font-size="10.00" fill="grey">+layout</text>
</g>
<!-- Node3 -->
<g id="Node000003" class="node">
<title>Node3</title>
<g id="a_Node000003"><a xlink:href="structTTL__shape__t.html" target="_top" xlink:title="Description of a Shape.">
<polygon fill="white" stroke="none" points="164,-198.5 98.25,-198.5 98.25,-118.25 164,-118.25 164,-198.5"/>
<text text-anchor="start" x="102.25" y="-185" font-family="Helvetica,sans-Serif" font-size="10.00">TTL_shape_t</text>
<text text-anchor="start" x="107.62" y="-169.75" font-family="Helvetica,sans-Serif" font-size="10.00">+</text>
<text text-anchor="start" x="123" y="-169.75" font-family="Helvetica,sans-Serif" font-size="10.00">width</text>
<text text-anchor="start" x="107.62" y="-154.5" font-family="Helvetica,sans-Serif" font-size="10.00">+</text>
<text text-anchor="start" x="123" y="-154.5" font-family="Helvetica,sans-Serif" font-size="10.00">height</text>
<text text-anchor="start" x="107.62" y="-139.25" font-family="Helvetica,sans-Serif" font-size="10.00">+</text>
<text text-anchor="start" x="123" y="-139.25" font-family="Helvetica,sans-Serif" font-size="10.00">depth</text>
<text text-anchor="start" x="129.62" y="-124" font-family="Helvetica,sans-Serif" font-size="10.00"> </text>
<polygon fill="#666666" stroke="#666666" points="98.25,-181.25 98.25,-181.25 164,-181.25 164,-181.25 98.25,-181.25"/>
<polygon fill="#666666" stroke="#666666" points="98.25,-135.5 98.25,-135.5 121,-135.5 121,-135.5 98.25,-135.5"/>
<polygon fill="#666666" stroke="#666666" points="121,-135.5 121,-135.5 164,-135.5 164,-135.5 121,-135.5"/>
<polygon fill="none" stroke="#666666" points="98.25,-118.25 98.25,-198.5 164,-198.5 164,-118.25 98.25,-118.25"/>
</a>
</g>
</g>
<!-- Node3&#45;&gt;Node1 -->
<g id="edge2_Node000001_Node000003" class="edge">
<title>Node3&#45;&gt;Node1</title>
<g id="a_edge2_Node000001_Node000003"><a xlink:title=" ">
<path fill="none" stroke="#63b8ff" d="M120.17,-118.43C116.63,-106.91 112.49,-94.35 108.12,-83 107.34,-80.96 106.51,-78.89 105.65,-76.81"/>
<polygon fill="none" stroke="#63b8ff" points="105.63,-76.75 99.57,-72.84 100.85,-65.74 106.91,-69.65 105.63,-76.75"/>
</a>
</g>
<text text-anchor="start" x="116.91" y="-87.75" font-family="Helvetica,sans-Serif" font-size="10.00" fill="grey">+shape</text>
</g>
</g>
</svg>
