<?xml version="1.0" encoding="UTF-8" standalone="no"?>
<!DOCTYPE svg PUBLIC "-//W3C//DTD SVG 1.1//EN"
 "http://www.w3.org/Graphics/SVG/1.1/DTD/svg11.dtd">
<!-- Generated by graphviz version 12.2.1 (20241206.2353)
 -->
<!-- Title: TTL_export_double_buffering&lt; TENSORTYPE &gt; Pages: 1 -->
<svg width="248pt" height="393pt"
 viewBox="0.00 0.00 248.12 393.00" xmlns="http://www.w3.org/2000/svg" xmlns:xlink="http://www.w3.org/1999/xlink">
<g id="graph0" class="graph" transform="scale(1 1) rotate(0) translate(4 389)">
<title>TTL_export_double_buffering&lt; TENSORTYPE &gt;</title>
<!-- Node1 -->
<g id="Node000001" class="node">
<title>Node1</title>
<g id="a_Node000001"><a xlink:title=" ">
<polygon fill="#999999" stroke="none" points="216.38,-91.5 67.12,-91.5 67.12,0 216.38,0 216.38,-91.5"/>
<text text-anchor="start" x="79.12" y="-78" font-family="Helvetica,sans-Serif" font-size="10.00">TTL_export_double_buffering</text>
<text text-anchor="start" x="100.5" y="-66.75" font-family="Helvetica,sans-Serif" font-size="10.00">&lt; TENSORTYPE &gt;</text>
<text text-anchor="start" x="71.12" y="-51.5" font-family="Helvetica,sans-Serif" font-size="10.00">+</text>
<text text-anchor="start" x="81.12" y="-51.5" font-family="Helvetica,sans-Serif" font-size="10.00">m_event</text>
<text text-anchor="start" x="71.12" y="-36.25" font-family="Helvetica,sans-Serif" font-size="10.00">+</text>
<text text-anchor="start" x="81.12" y="-36.25" font-family="Helvetica,sans-Serif" font-size="10.00">TTL_export_double_buffering()</text>
<text text-anchor="start" x="71.12" y="-21" font-family="Helvetica,sans-Serif" font-size="10.00">+</text>
<text text-anchor="start" x="81.12" y="-21" font-family="Helvetica,sans-Serif" font-size="10.00">step_buffering()</text>
<text text-anchor="start" x="71.12" y="-5.75" font-family="Helvetica,sans-Serif" font-size="10.00">+</text>
<text text-anchor="start" x="81.12" y="-5.75" font-family="Helvetica,sans-Serif" font-size="10.00">finish_buffering()</text>
<polygon fill="#666666" stroke="#666666" points="67.12,-63 67.12,-63 216.38,-63 216.38,-63 67.12,-63"/>
<polygon fill="#666666" stroke="#666666" points="67.12,-47.75 67.12,-47.75 79.12,-47.75 79.12,-47.75 67.12,-47.75"/>
<polygon fill="#666666" stroke="#666666" points="79.12,-47.75 79.12,-47.75 216.38,-47.75 216.38,-47.75 79.12,-47.75"/>
<polygon fill="none" stroke="#666666" points="67.12,0 67.12,-91.5 216.38,-91.5 216.38,0 67.12,0"/>
</a>
</g>
</g>
<!-- Node2 -->
<g id="Node000002" class="node">
<title>Node2</title>
<g id="a_Node000002"><a xlink:href="structTTL__tile.html" target="_top" xlink:title=" ">
<polygon fill="white" stroke="none" points="111.75,-223 51.75,-223 51.75,-158 111.75,-158 111.75,-223"/>
<text text-anchor="start" x="63.75" y="-209.5" font-family="Helvetica,sans-Serif" font-size="10.00">TTL_tile</text>
<text text-anchor="start" x="80.25" y="-194.25" font-family="Helvetica,sans-Serif" font-size="10.00"> </text>
<text text-anchor="start" x="55.75" y="-179" font-family="Helvetica,sans-Serif" font-size="10.00">+</text>
<text text-anchor="start" x="65.75" y="-179" font-family="Helvetica,sans-Serif" font-size="10.00">TTL_tile()</text>
<text text-anchor="start" x="55.75" y="-163.75" font-family="Helvetica,sans-Serif" font-size="10.00">+</text>
<text text-anchor="start" x="65.75" y="-163.75" font-family="Helvetica,sans-Serif" font-size="10.00">empty()</text>
<polygon fill="#666666" stroke="#666666" points="51.75,-205.75 51.75,-205.75 111.75,-205.75 111.75,-205.75 51.75,-205.75"/>
<polygon fill="#666666" stroke="#666666" points="51.75,-190.5 51.75,-190.5 111.75,-190.5 111.75,-190.5 51.75,-190.5"/>
<polygon fill="none" stroke="#666666" points="51.75,-158 51.75,-223 111.75,-223 111.75,-158 51.75,-158"/>
</a>
</g>
</g>
<!-- Node2&#45;&gt;Node1 -->
<g id="edge1_Node000001_Node000002" class="edge">
<title>Node2&#45;&gt;Node1</title>
<g id="a_edge1_Node000001_Node000002"><a xlink:title=" ">
<path fill="none" stroke="#63b8ff" d="M83.21,-158.14C84.8,-142.96 88.01,-124.77 94.5,-109.5 95.48,-107.19 96.56,-104.9 97.73,-102.62"/>
<polygon fill="none" stroke="#63b8ff" points="97.73,-102.61 97.25,-95.41 103.71,-92.2 104.19,-99.4 97.73,-102.61"/>
</a>
</g>
<text text-anchor="start" x="97.5" y="-114.25" font-family="Helvetica,sans-Serif" font-size="10.00" fill="grey">+m_prev_tile</text>
</g>
<!-- Node3 -->
<g id="Node000003" class="node">
<title>Node3</title>
<g id="a_Node000003"><a xlink:href="structTTL__shape.html" target="_top" xlink:title="Description of a Shape.">
<polygon fill="white" stroke="none" points="73.5,-385 0,-385 0,-289.5 73.5,-289.5 73.5,-385"/>
<text text-anchor="start" x="12" y="-371.5" font-family="Helvetica,sans-Serif" font-size="10.00">TTL_shape</text>
<text text-anchor="start" x="4" y="-356.25" font-family="Helvetica,sans-Serif" font-size="10.00">+</text>
<text text-anchor="start" x="14" y="-356.25" font-family="Helvetica,sans-Serif" font-size="10.00">width</text>
<text text-anchor="start" x="4" y="-341" font-family="Helvetica,sans-Serif" font-size="10.00">+</text>
<text text-anchor="start" x="14" y="-341" font-family="Helvetica,sans-Serif" font-size="10.00">height</text>
<text text-anchor="start" x="4" y="-325.75" font-family="Helvetica,sans-Serif" font-size="10.00">+</text>
<text text-anchor="start" x="14" y="-325.75" font-family="Helvetica,sans-Serif" font-size="10.00">depth</text>
<text text-anchor="start" x="4" y="-310.5" font-family="Helvetica,sans-Serif" font-size="10.00">+</text>
<text text-anchor="start" x="14" y="-310.5" font-family="Helvetica,sans-Serif" font-size="10.00">TTL_shape()</text>
<text text-anchor="start" x="4" y="-295.25" font-family="Helvetica,sans-Serif" font-size="10.00">+</text>
<text text-anchor="start" x="14" y="-295.25" font-family="Helvetica,sans-Serif" font-size="10.00">empty()</text>
<polygon fill="#666666" stroke="#666666" points="0,-367.75 0,-367.75 73.5,-367.75 73.5,-367.75 0,-367.75"/>
<polygon fill="#666666" stroke="#666666" points="0,-322 0,-322 12,-322 12,-322 0,-322"/>
<polygon fill="#666666" stroke="#666666" points="12,-322 12,-322 73.5,-322 73.5,-322 12,-322"/>
<polygon fill="none" stroke="#666666" points="0,-289.5 0,-385 73.5,-385 73.5,-289.5 0,-289.5"/>
</a>
</g>
</g>
<!-- Node3&#45;&gt;Node2 -->
<g id="edge2_Node000002_Node000003" class="edge">
<title>Node3&#45;&gt;Node2</title>
<g id="a_edge2_Node000002_Node000003"><a xlink:title=" ">
<path fill="none" stroke="#63b8ff" d="M51.24,-289.65C56.67,-272.18 62.82,-252.4 68.16,-235.2"/>
<polygon fill="none" stroke="#63b8ff" points="68.15,-235.24 66.11,-228.32 71.71,-223.78 73.75,-230.7 68.15,-235.24"/>
</a>
</g>
<text text-anchor="start" x="64.94" y="-259" font-family="Helvetica,sans-Serif" font-size="10.00" fill="grey">+shape</text>
</g>
<!-- Node4 -->
<g id="Node000004" class="node">
<title>Node4</title>
<g id="a_Node000004"><a xlink:href="structTTL__offset.html" target="_top" xlink:title="Description of the 3D offset of an object.">
<polygon fill="white" stroke="none" points="162.38,-377.38 91.12,-377.38 91.12,-297.12 162.38,-297.12 162.38,-377.38"/>
<text text-anchor="start" x="103.12" y="-363.88" font-family="Helvetica,sans-Serif" font-size="10.00">TTL_offset</text>
<text text-anchor="start" x="95.12" y="-348.62" font-family="Helvetica,sans-Serif" font-size="10.00">+</text>
<text text-anchor="start" x="105.12" y="-348.62" font-family="Helvetica,sans-Serif" font-size="10.00">x</text>
<text text-anchor="start" x="95.12" y="-333.38" font-family="Helvetica,sans-Serif" font-size="10.00">+</text>
<text text-anchor="start" x="105.12" y="-333.38" font-family="Helvetica,sans-Serif" font-size="10.00">y</text>
<text text-anchor="start" x="95.12" y="-318.12" font-family="Helvetica,sans-Serif" font-size="10.00">+</text>
<text text-anchor="start" x="105.12" y="-318.12" font-family="Helvetica,sans-Serif" font-size="10.00">z</text>
<text text-anchor="start" x="95.12" y="-302.88" font-family="Helvetica,sans-Serif" font-size="10.00">+</text>
<text text-anchor="start" x="105.12" y="-302.88" font-family="Helvetica,sans-Serif" font-size="10.00">TTL_offset()</text>
<polygon fill="#666666" stroke="#666666" points="91.12,-360.12 91.12,-360.12 162.38,-360.12 162.38,-360.12 91.12,-360.12"/>
<polygon fill="#666666" stroke="#666666" points="91.12,-314.38 91.12,-314.38 103.12,-314.38 103.12,-314.38 91.12,-314.38"/>
<polygon fill="#666666" stroke="#666666" points="103.12,-314.38 103.12,-314.38 162.38,-314.38 162.38,-314.38 103.12,-314.38"/>
<polygon fill="none" stroke="#666666" points="91.12,-297.12 91.12,-377.38 162.38,-377.38 162.38,-297.12 91.12,-297.12"/>
</a>
</g>
</g>
<!-- Node4&#45;&gt;Node2 -->
<g id="edge3_Node000002_Node000004" class="edge">
<title>Node4&#45;&gt;Node2</title>
<g id="a_edge3_Node000002_Node000004"><a xlink:title=" ">
<path fill="none" stroke="#63b8ff" d="M116.37,-297.31C112.59,-283.64 108.15,-268.21 103.75,-254.25 101.78,-248.01 99.61,-241.46 97.42,-235.04"/>
<polygon fill="none" stroke="#63b8ff" points="97.46,-235.16 91.71,-230.8 93.52,-223.82 99.27,-228.18 97.46,-235.16"/>
</a>
</g>
<text text-anchor="start" x="111.51" y="-259" font-family="Helvetica,sans-Serif" font-size="10.00" fill="grey">+offset</text>
</g>
<!-- Node5 -->
<g id="Node000005" class="node">
<title>Node5</title>
<g id="a_Node000005"><a xlink:href="structTTL__common__buffering.html" target="_top" xlink:title=" ">
<polygon fill="white" stroke="none" points="240.12,-236.25 129.38,-236.25 129.38,-144.75 240.12,-144.75 240.12,-236.25"/>
<text text-anchor="start" x="133.38" y="-222.75" font-family="Helvetica,sans-Serif" font-size="10.00">TTL_common_buffering</text>
<text text-anchor="start" x="138.25" y="-211.5" font-family="Helvetica,sans-Serif" font-size="10.00">&lt; TENSORTYPE, 2 &gt;</text>
<text text-anchor="start" x="140.62" y="-196.25" font-family="Helvetica,sans-Serif" font-size="10.00">+</text>
<text text-anchor="start" x="157.88" y="-196.25" font-family="Helvetica,sans-Serif" font-size="10.00">index</text>
<text text-anchor="start" x="140.62" y="-181" font-family="Helvetica,sans-Serif" font-size="10.00">+</text>
<text text-anchor="start" x="157.88" y="-181" font-family="Helvetica,sans-Serif" font-size="10.00">ext_tensor_in</text>
<text text-anchor="start" x="140.62" y="-165.75" font-family="Helvetica,sans-Serif" font-size="10.00">+</text>
<text text-anchor="start" x="157.88" y="-165.75" font-family="Helvetica,sans-Serif" font-size="10.00">ext_tensor_out</text>
<text text-anchor="start" x="140.62" y="-150.5" font-family="Helvetica,sans-Serif" font-size="10.00">+</text>
<text text-anchor="start" x="157.88" y="-150.5" font-family="Helvetica,sans-Serif" font-size="10.00">TTL_local()</text>
<polygon fill="#666666" stroke="#666666" points="129.38,-207.75 129.38,-207.75 240.12,-207.75 240.12,-207.75 129.38,-207.75"/>
<polygon fill="#666666" stroke="#666666" points="129.38,-162 129.38,-162 155.88,-162 155.88,-162 129.38,-162"/>
<polygon fill="#666666" stroke="#666666" points="155.88,-162 155.88,-162 240.12,-162 240.12,-162 155.88,-162"/>
<polygon fill="none" stroke="#666666" points="129.38,-144.75 129.38,-236.25 240.12,-236.25 240.12,-144.75 129.38,-144.75"/>
</a>
</g>
</g>
<!-- Node5&#45;&gt;Node1 -->
<g id="edge4_Node000001_Node000005" class="edge">
<title>Node5&#45;&gt;Node1</title>
<g id="a_edge4_Node000001_Node000005"><a xlink:title=" ">
<path fill="none" stroke="#63b8ff" d="M171.38,-145.12C167.42,-131.96 163.02,-117.36 158.85,-103.53"/>
<polygon fill="none" stroke="#63b8ff" points="158.83,-103.46 153.27,-98.87 155.37,-91.97 160.93,-96.56 158.83,-103.46"/>
</a>
</g>
<text text-anchor="start" x="168.82" y="-114.25" font-family="Helvetica,sans-Serif" font-size="10.00" fill="grey">+m_common</text>
</g>
</g>
</svg>
