<?xml version="1.0" encoding="UTF-8" standalone="no"?>
<!DOCTYPE svg PUBLIC "-//W3C//DTD SVG 1.1//EN"
 "http://www.w3.org/Graphics/SVG/1.1/DTD/svg11.dtd">
<!-- Generated by graphviz version 12.2.1 (20241206.2353)
 -->
<!-- Title: TTL_duplex_const_short_tensor_buffering_t Pages: 1 -->
<svg width="250pt" height="424pt"
 viewBox="0.00 0.00 249.75 423.50" xmlns="http://www.w3.org/2000/svg" xmlns:xlink="http://www.w3.org/1999/xlink">
<g id="graph0" class="graph" transform="scale(1 1) rotate(0) translate(4 419.5)">
<title>TTL_duplex_const_short_tensor_buffering_t</title>
<!-- Node1 -->
<g id="Node000001" class="node">
<title>Node1</title>
<g id="a_Node000001"><a xlink:title="Data required to perform duplex buffer pipelining.">
<polygon fill="#999999" stroke="none" points="174.38,-122 59.12,-122 59.12,0 174.38,0 174.38,-122"/>
<text text-anchor="start" x="63.12" y="-108.5" font-family="Helvetica,sans-Serif" font-size="10.00">TTL_duplex_const_short</text>
<text text-anchor="start" x="75.5" y="-97.25" font-family="Helvetica,sans-Serif" font-size="10.00">_tensor_buffering_t</text>
<text text-anchor="start" x="68.69" y="-82" font-family="Helvetica,sans-Serif" font-size="10.00">+</text>
<text text-anchor="start" x="84.25" y="-82" font-family="Helvetica,sans-Serif" font-size="10.00">index</text>
<text text-anchor="start" x="68.69" y="-66.75" font-family="Helvetica,sans-Serif" font-size="10.00">+</text>
<text text-anchor="start" x="84.25" y="-66.75" font-family="Helvetica,sans-Serif" font-size="10.00">int_base</text>
<text text-anchor="start" x="68.69" y="-51.5" font-family="Helvetica,sans-Serif" font-size="10.00">+</text>
<text text-anchor="start" x="84.25" y="-51.5" font-family="Helvetica,sans-Serif" font-size="10.00">common</text>
<text text-anchor="start" x="68.69" y="-36.25" font-family="Helvetica,sans-Serif" font-size="10.00">+</text>
<text text-anchor="start" x="84.25" y="-36.25" font-family="Helvetica,sans-Serif" font-size="10.00">events</text>
<text text-anchor="start" x="68.69" y="-21" font-family="Helvetica,sans-Serif" font-size="10.00">+</text>
<text text-anchor="start" x="84.25" y="-21" font-family="Helvetica,sans-Serif" font-size="10.00">prev_out_tensors</text>
<text text-anchor="start" x="115.25" y="-5.75" font-family="Helvetica,sans-Serif" font-size="10.00"> </text>
<polygon fill="#666666" stroke="#666666" points="59.12,-93.5 59.12,-93.5 174.38,-93.5 174.38,-93.5 59.12,-93.5"/>
<polygon fill="#666666" stroke="#666666" points="59.12,-17.25 59.12,-17.25 82.25,-17.25 82.25,-17.25 59.12,-17.25"/>
<polygon fill="#666666" stroke="#666666" points="82.25,-17.25 82.25,-17.25 174.38,-17.25 174.38,-17.25 82.25,-17.25"/>
<polygon fill="none" stroke="#666666" points="59.12,0 59.12,-122 174.38,-122 174.38,0 59.12,0"/>
</a>
</g>
</g>
<!-- Node2 -->
<g id="Node000002" class="node">
<title>Node2</title>
<g id="a_Node000002"><a xlink:href="structTTL__ext__short__tensor__t.html" target="_top" xlink:title="const and non&#45;const tensors in the appropriate address space">
<polygon fill="white" stroke="none" points="111.5,-276.38 0,-276.38 0,-211.38 111.5,-211.38 111.5,-276.38"/>
<text text-anchor="start" x="4" y="-262.88" font-family="Helvetica,sans-Serif" font-size="10.00">TTL_ext_short_tensor_t</text>
<text text-anchor="start" x="16.5" y="-247.62" font-family="Helvetica,sans-Serif" font-size="10.00">+</text>
<text text-anchor="start" x="39" y="-247.62" font-family="Helvetica,sans-Serif" font-size="10.00">base</text>
<text text-anchor="start" x="16.5" y="-232.38" font-family="Helvetica,sans-Serif" font-size="10.00">+</text>
<text text-anchor="start" x="39" y="-232.38" font-family="Helvetica,sans-Serif" font-size="10.00">elem_size</text>
<text text-anchor="start" x="54.25" y="-217.12" font-family="Helvetica,sans-Serif" font-size="10.00"> </text>
<polygon fill="#666666" stroke="#666666" points="0,-259.12 0,-259.12 111.5,-259.12 111.5,-259.12 0,-259.12"/>
<polygon fill="#666666" stroke="#666666" points="0,-228.62 0,-228.62 37,-228.62 37,-228.62 0,-228.62"/>
<polygon fill="#666666" stroke="#666666" points="37,-228.62 37,-228.62 111.5,-228.62 111.5,-228.62 37,-228.62"/>
<polygon fill="none" stroke="#666666" points="0,-211.38 0,-276.38 111.5,-276.38 111.5,-211.38 0,-211.38"/>
</a>
</g>
</g>
<!-- Node2&#45;&gt;Node1 -->
<g id="edge1_Node000001_Node000002" class="edge">
<title>Node2&#45;&gt;Node1</title>
<g id="a_edge1_Node000001_Node000002"><a xlink:title=" ">
<path fill="none" stroke="#63b8ff" d="M59.07,-211.62C61.88,-190.89 66.8,-163.31 75,-140 75.77,-137.81 76.59,-135.61 77.46,-133.41"/>
<polygon fill="none" stroke="#63b8ff" points="77.42,-133.5 76.1,-126.41 82.14,-122.46 83.46,-129.55 77.42,-133.5"/>
</a>
</g>
<text text-anchor="start" x="78" y="-175.25" font-family="Helvetica,sans-Serif" font-size="10.00" fill="grey">+ext_tensor_in</text>
<text text-anchor="start" x="78" y="-160" font-family="Helvetica,sans-Serif" font-size="10.00" fill="grey">+ext_tensor_out</text>
<text text-anchor="start" x="78" y="-144.75" font-family="Helvetica,sans-Serif" font-size="10.00" fill="grey">+to_export_to</text>
</g>
<!-- Node3 -->
<g id="Node000003" class="node">
<title>Node3</title>
<g id="a_Node000003"><a xlink:href="structTTL__layout__t.html" target="_top" xlink:title="Description of a Tensor layout in memory.">
<polygon fill="white" stroke="none" points="103.88,-407.88 23.62,-407.88 23.62,-342.88 103.88,-342.88 103.88,-407.88"/>
<text text-anchor="start" x="35.25" y="-394.38" font-family="Helvetica,sans-Serif" font-size="10.00">TTL_layout_t</text>
<text text-anchor="start" x="27.62" y="-379.12" font-family="Helvetica,sans-Serif" font-size="10.00">+</text>
<text text-anchor="start" x="37.62" y="-379.12" font-family="Helvetica,sans-Serif" font-size="10.00">row_spacing</text>
<text text-anchor="start" x="27.62" y="-363.88" font-family="Helvetica,sans-Serif" font-size="10.00">+</text>
<text text-anchor="start" x="37.62" y="-363.88" font-family="Helvetica,sans-Serif" font-size="10.00">plane_spacing</text>
<text text-anchor="start" x="62.25" y="-348.62" font-family="Helvetica,sans-Serif" font-size="10.00"> </text>
<polygon fill="#666666" stroke="#666666" points="23.62,-390.62 23.62,-390.62 103.88,-390.62 103.88,-390.62 23.62,-390.62"/>
<polygon fill="#666666" stroke="#666666" points="23.62,-360.12 23.62,-360.12 35.62,-360.12 35.62,-360.12 23.62,-360.12"/>
<polygon fill="#666666" stroke="#666666" points="35.62,-360.12 35.62,-360.12 103.88,-360.12 103.88,-360.12 35.62,-360.12"/>
<polygon fill="none" stroke="#666666" points="23.62,-342.88 23.62,-407.88 103.88,-407.88 103.88,-342.88 23.62,-342.88"/>
</a>
</g>
</g>
<!-- Node3&#45;&gt;Node2 -->
<g id="edge2_Node000002_Node000003" class="edge">
<title>Node3&#45;&gt;Node2</title>
<g id="a_edge2_Node000002_Node000003"><a xlink:title=" ">
<path fill="none" stroke="#63b8ff" d="M39.27,-343.01C34.33,-335.03 29.86,-326.17 27.25,-317.25 24.46,-307.7 25.64,-297.64 28.73,-288.17"/>
<polygon fill="none" stroke="#63b8ff" points="28.78,-288.06 27.39,-280.99 33.38,-276.98 34.77,-284.06 28.78,-288.06"/>
</a>
</g>
<text text-anchor="start" x="30.25" y="-304.75" font-family="Helvetica,sans-Serif" font-size="10.00" fill="grey">+layout</text>
</g>
<!-- Node5 -->
<g id="Node000005" class="node">
<title>Node5</title>
<g id="a_Node000005"><a xlink:href="structTTL__const__int__short__tensor__t.html" target="_top" xlink:title=" ">
<polygon fill="white" stroke="none" points="227.75,-282 129.75,-282 129.75,-205.75 227.75,-205.75 227.75,-282"/>
<text text-anchor="start" x="133.75" y="-268.5" font-family="Helvetica,sans-Serif" font-size="10.00">TTL_const_int_short</text>
<text text-anchor="start" x="158.5" y="-257.25" font-family="Helvetica,sans-Serif" font-size="10.00">_tensor_t</text>
<text text-anchor="start" x="142.88" y="-242" font-family="Helvetica,sans-Serif" font-size="10.00">+</text>
<text text-anchor="start" x="162" y="-242" font-family="Helvetica,sans-Serif" font-size="10.00">base</text>
<text text-anchor="start" x="142.88" y="-226.75" font-family="Helvetica,sans-Serif" font-size="10.00">+</text>
<text text-anchor="start" x="162" y="-226.75" font-family="Helvetica,sans-Serif" font-size="10.00">elem_size</text>
<text text-anchor="start" x="177.25" y="-211.5" font-family="Helvetica,sans-Serif" font-size="10.00"> </text>
<polygon fill="#666666" stroke="#666666" points="129.75,-253.5 129.75,-253.5 227.75,-253.5 227.75,-253.5 129.75,-253.5"/>
<polygon fill="#666666" stroke="#666666" points="129.75,-223 129.75,-223 160,-223 160,-223 129.75,-223"/>
<polygon fill="#666666" stroke="#666666" points="160,-223 160,-223 227.75,-223 227.75,-223 160,-223"/>
<polygon fill="none" stroke="#666666" points="129.75,-205.75 129.75,-282 227.75,-282 227.75,-205.75 129.75,-205.75"/>
</a>
</g>
</g>
<!-- Node3&#45;&gt;Node5 -->
<g id="edge5_Node000005_Node000003" class="edge">
<title>Node3&#45;&gt;Node5</title>
<g id="a_edge5_Node000005_Node000003"><a xlink:title=" ">
<path fill="none" stroke="#63b8ff" d="M66.49,-343.09C69.13,-328.65 74.27,-312.08 84.25,-300 93.79,-288.46 101.76,-289.78 118.38,-282.5"/>
<polygon fill="none" stroke="#63b8ff" points="118.42,-282.48 121.97,-276.2 129.13,-277.07 125.58,-283.34 118.42,-282.48"/>
</a>
</g>
<text text-anchor="start" x="87.25" y="-304.75" font-family="Helvetica,sans-Serif" font-size="10.00" fill="grey">+layout</text>
</g>
<!-- Node4 -->
<g id="Node000004" class="node">
<title>Node4</title>
<g id="a_Node000004"><a xlink:href="structTTL__shape__t.html" target="_top" xlink:title="Description of a Shape.">
<polygon fill="white" stroke="none" points="202.62,-415.5 136.88,-415.5 136.88,-335.25 202.62,-335.25 202.62,-415.5"/>
<text text-anchor="start" x="140.88" y="-402" font-family="Helvetica,sans-Serif" font-size="10.00">TTL_shape_t</text>
<text text-anchor="start" x="146.25" y="-386.75" font-family="Helvetica,sans-Serif" font-size="10.00">+</text>
<text text-anchor="start" x="161.62" y="-386.75" font-family="Helvetica,sans-Serif" font-size="10.00">width</text>
<text text-anchor="start" x="146.25" y="-371.5" font-family="Helvetica,sans-Serif" font-size="10.00">+</text>
<text text-anchor="start" x="161.62" y="-371.5" font-family="Helvetica,sans-Serif" font-size="10.00">height</text>
<text text-anchor="start" x="146.25" y="-356.25" font-family="Helvetica,sans-Serif" font-size="10.00">+</text>
<text text-anchor="start" x="161.62" y="-356.25" font-family="Helvetica,sans-Serif" font-size="10.00">depth</text>
<text text-anchor="start" x="168.25" y="-341" font-family="Helvetica,sans-Serif" font-size="10.00"> </text>
<polygon fill="#666666" stroke="#666666" points="136.88,-398.25 136.88,-398.25 202.62,-398.25 202.62,-398.25 136.88,-398.25"/>
<polygon fill="#666666" stroke="#666666" points="136.88,-352.5 136.88,-352.5 159.62,-352.5 159.62,-352.5 136.88,-352.5"/>
<polygon fill="#666666" stroke="#666666" points="159.62,-352.5 159.62,-352.5 202.62,-352.5 202.62,-352.5 159.62,-352.5"/>
<polygon fill="none" stroke="#666666" points="136.88,-335.25 136.88,-415.5 202.62,-415.5 202.62,-335.25 136.88,-335.25"/>
</a>
</g>
</g>
<!-- Node4&#45;&gt;Node2 -->
<g id="edge3_Node000002_Node000004" class="edge">
<title>Node4&#45;&gt;Node2</title>
<g id="a_edge3_Node000002_Node000004"><a xlink:title=" ">
<path fill="none" stroke="#63b8ff" d="M150.35,-335.47C143.44,-323.46 135.04,-310.61 125.75,-300 120.99,-294.56 115.63,-289.26 110.05,-284.24"/>
<polygon fill="none" stroke="#63b8ff" points="110.32,-284.48 103.16,-283.61 101.2,-276.67 108.36,-277.53 110.32,-284.48"/>
</a>
</g>
<text text-anchor="start" x="141.7" y="-304.75" font-family="Helvetica,sans-Serif" font-size="10.00" fill="grey">+shape</text>
</g>
<!-- Node4&#45;&gt;Node5 -->
<g id="edge6_Node000005_Node000004" class="edge">
<title>Node4&#45;&gt;Node5</title>
<g id="a_edge6_Node000005_Node000004"><a xlink:title=" ">
<path fill="none" stroke="#63b8ff" d="M182.98,-335.38C184.54,-329.37 185.89,-323.19 186.75,-317.25 187.81,-309.97 187.98,-302.25 187.6,-294.68"/>
<polygon fill="none" stroke="#63b8ff" points="187.59,-294.61 183.08,-288.98 186.54,-282.65 191.05,-288.28 187.59,-294.61"/>
</a>
</g>
<text text-anchor="start" x="190.78" y="-304.75" font-family="Helvetica,sans-Serif" font-size="10.00" fill="grey">+shape</text>
</g>
<!-- Node5&#45;&gt;Node1 -->
<g id="edge4_Node000001_Node000005" class="edge">
<title>Node5&#45;&gt;Node1</title>
<g id="a_edge4_Node000001_Node000005"><a xlink:title=" ">
<path fill="none" stroke="#63b8ff" d="M170.05,-205.82C165.07,-186.06 158.31,-161.48 150.75,-140 150.03,-137.94 149.27,-135.86 148.49,-133.76"/>
<polygon fill="none" stroke="#63b8ff" points="148.48,-133.72 142.58,-129.57 144.14,-122.53 150.04,-126.68 148.48,-133.72"/>
</a>
</g>
<text text-anchor="start" x="168.25" y="-160" font-family="Helvetica,sans-Serif" font-size="10.00" fill="grey">+to_export_from</text>
</g>
</g>
</svg>
