<?xml version="1.0" encoding="UTF-8" standalone="no"?>
<!DOCTYPE svg PUBLIC "-//W3C//DTD SVG 1.1//EN"
 "http://www.w3.org/Graphics/SVG/1.1/DTD/svg11.dtd">
<!-- Generated by graphviz version 12.2.1 (20241206.2353)
 -->
<!-- Title: TTL_simplex_const_ulong_tensor_buffering_t Pages: 1 -->
<svg width="480pt" height="500pt"
 viewBox="0.00 0.00 479.94 500.00" xmlns="http://www.w3.org/2000/svg" xmlns:xlink="http://www.w3.org/1999/xlink">
<g id="graph0" class="graph" transform="scale(1 1) rotate(0) translate(4 496)">
<title>TTL_simplex_const_ulong_tensor_buffering_t</title>
<!-- Node1 -->
<g id="Node000001" class="node">
<title>Node1</title>
<g id="a_Node000001"><a xlink:title=" ">
<polygon fill="#999999" stroke="none" points="338.5,-122 216.5,-122 216.5,0 338.5,0 338.5,-122"/>
<text text-anchor="start" x="220.5" y="-108.5" font-family="Helvetica,sans-Serif" font-size="10.00">TTL_simplex_const_ulong</text>
<text text-anchor="start" x="236.25" y="-97.25" font-family="Helvetica,sans-Serif" font-size="10.00">_tensor_buffering_t</text>
<text text-anchor="start" x="235.81" y="-82" font-family="Helvetica,sans-Serif" font-size="10.00">+</text>
<text text-anchor="start" x="261.12" y="-82" font-family="Helvetica,sans-Serif" font-size="10.00">index</text>
<text text-anchor="start" x="235.81" y="-66.75" font-family="Helvetica,sans-Serif" font-size="10.00">+</text>
<text text-anchor="start" x="261.12" y="-66.75" font-family="Helvetica,sans-Serif" font-size="10.00">int_base</text>
<text text-anchor="start" x="235.81" y="-51.5" font-family="Helvetica,sans-Serif" font-size="10.00">+</text>
<text text-anchor="start" x="261.12" y="-51.5" font-family="Helvetica,sans-Serif" font-size="10.00">common</text>
<text text-anchor="start" x="235.81" y="-36.25" font-family="Helvetica,sans-Serif" font-size="10.00">+</text>
<text text-anchor="start" x="261.12" y="-36.25" font-family="Helvetica,sans-Serif" font-size="10.00">event_in</text>
<text text-anchor="start" x="235.81" y="-21" font-family="Helvetica,sans-Serif" font-size="10.00">+</text>
<text text-anchor="start" x="261.12" y="-21" font-family="Helvetica,sans-Serif" font-size="10.00">event_out</text>
<text text-anchor="start" x="276" y="-5.75" font-family="Helvetica,sans-Serif" font-size="10.00"> </text>
<polygon fill="#666666" stroke="#666666" points="216.5,-93.5 216.5,-93.5 338.5,-93.5 338.5,-93.5 216.5,-93.5"/>
<polygon fill="#666666" stroke="#666666" points="216.5,-17.25 216.5,-17.25 259.12,-17.25 259.12,-17.25 216.5,-17.25"/>
<polygon fill="#666666" stroke="#666666" points="259.12,-17.25 259.12,-17.25 338.5,-17.25 338.5,-17.25 259.12,-17.25"/>
<polygon fill="none" stroke="#666666" points="216.5,0 216.5,-122 338.5,-122 338.5,0 216.5,0"/>
</a>
</g>
</g>
<!-- Node2 -->
<g id="Node000002" class="node">
<title>Node2</title>
<g id="a_Node000002"><a xlink:href="structTTL__ext__ulong__tensor__t.html" target="_top" xlink:title="const and non&#45;const tensors in the appropriate address space">
<polygon fill="white" stroke="none" points="113,-350.88 0,-350.88 0,-285.88 113,-285.88 113,-350.88"/>
<text text-anchor="start" x="4" y="-337.38" font-family="Helvetica,sans-Serif" font-size="10.00">TTL_ext_ulong_tensor_t</text>
<text text-anchor="start" x="16.88" y="-322.12" font-family="Helvetica,sans-Serif" font-size="10.00">+</text>
<text text-anchor="start" x="39.75" y="-322.12" font-family="Helvetica,sans-Serif" font-size="10.00">base</text>
<text text-anchor="start" x="16.88" y="-306.88" font-family="Helvetica,sans-Serif" font-size="10.00">+</text>
<text text-anchor="start" x="39.75" y="-306.88" font-family="Helvetica,sans-Serif" font-size="10.00">elem_size</text>
<text text-anchor="start" x="55" y="-291.62" font-family="Helvetica,sans-Serif" font-size="10.00"> </text>
<polygon fill="#666666" stroke="#666666" points="0,-333.62 0,-333.62 113,-333.62 113,-333.62 0,-333.62"/>
<polygon fill="#666666" stroke="#666666" points="0,-303.12 0,-303.12 37.75,-303.12 37.75,-303.12 0,-303.12"/>
<polygon fill="#666666" stroke="#666666" points="37.75,-303.12 37.75,-303.12 113,-303.12 113,-303.12 37.75,-303.12"/>
<polygon fill="none" stroke="#666666" points="0,-285.88 0,-350.88 113,-350.88 113,-285.88 0,-285.88"/>
</a>
</g>
</g>
<!-- Node2&#45;&gt;Node1 -->
<g id="edge1_Node000001_Node000002" class="edge">
<title>Node2&#45;&gt;Node1</title>
<g id="a_edge1_Node000001_Node000002"><a xlink:title=" ">
<path fill="none" stroke="#63b8ff" d="M67.08,-286.13C78.47,-255.59 98.8,-208.92 126.75,-175.25 148.99,-148.46 178.78,-124.37 206,-105.38"/>
<polygon fill="none" stroke="#63b8ff" points="206.03,-105.36 208.73,-98.67 215.94,-98.59 213.24,-105.28 206.03,-105.36"/>
</a>
</g>
<text text-anchor="start" x="129.75" y="-203.88" font-family="Helvetica,sans-Serif" font-size="10.00" fill="grey">+ext_tensor_in</text>
<text text-anchor="start" x="129.75" y="-188.62" font-family="Helvetica,sans-Serif" font-size="10.00" fill="grey">+ext_tensor_out</text>
</g>
<!-- Node3 -->
<g id="Node000003" class="node">
<title>Node3</title>
<g id="a_Node000003"><a xlink:href="structTTL__layout__t.html" target="_top" xlink:title="Description of a Tensor layout in memory.">
<polygon fill="white" stroke="none" points="153.62,-484.38 73.38,-484.38 73.38,-419.38 153.62,-419.38 153.62,-484.38"/>
<text text-anchor="start" x="85" y="-470.88" font-family="Helvetica,sans-Serif" font-size="10.00">TTL_layout_t</text>
<text text-anchor="start" x="77.38" y="-455.62" font-family="Helvetica,sans-Serif" font-size="10.00">+</text>
<text text-anchor="start" x="87.38" y="-455.62" font-family="Helvetica,sans-Serif" font-size="10.00">row_spacing</text>
<text text-anchor="start" x="77.38" y="-440.38" font-family="Helvetica,sans-Serif" font-size="10.00">+</text>
<text text-anchor="start" x="87.38" y="-440.38" font-family="Helvetica,sans-Serif" font-size="10.00">plane_spacing</text>
<text text-anchor="start" x="112" y="-425.12" font-family="Helvetica,sans-Serif" font-size="10.00"> </text>
<polygon fill="#666666" stroke="#666666" points="73.38,-467.12 73.38,-467.12 153.62,-467.12 153.62,-467.12 73.38,-467.12"/>
<polygon fill="#666666" stroke="#666666" points="73.38,-436.62 73.38,-436.62 85.38,-436.62 85.38,-436.62 73.38,-436.62"/>
<polygon fill="#666666" stroke="#666666" points="85.38,-436.62 85.38,-436.62 153.62,-436.62 153.62,-436.62 85.38,-436.62"/>
<polygon fill="none" stroke="#666666" points="73.38,-419.38 73.38,-484.38 153.62,-484.38 153.62,-419.38 73.38,-419.38"/>
</a>
</g>
</g>
<!-- Node3&#45;&gt;Node2 -->
<g id="edge2_Node000002_Node000003" class="edge">
<title>Node3&#45;&gt;Node2</title>
<g id="a_edge2_Node000002_Node000003"><a xlink:title=" ">
<path fill="none" stroke="#63b8ff" d="M73.68,-428.38C61.53,-419.32 49.64,-407.69 43,-393.75 38.46,-384.23 38.1,-373.37 39.74,-362.93"/>
<polygon fill="none" stroke="#63b8ff" points="39.7,-363.11 37.15,-356.37 42.39,-351.42 44.95,-358.16 39.7,-363.11"/>
</a>
</g>
<text text-anchor="start" x="46" y="-381.25" font-family="Helvetica,sans-Serif" font-size="10.00" fill="grey">+layout</text>
</g>
<!-- Node8 -->
<g id="Node000008" class="node">
<title>Node8</title>
<g id="a_Node000008"><a xlink:href="structTTL__int__ulong__tensor__t.html" target="_top" xlink:title="const and non&#45;const tensors in the appropriate address space">
<polygon fill="white" stroke="none" points="241.88,-350.88 131.12,-350.88 131.12,-285.88 241.88,-285.88 241.88,-350.88"/>
<text text-anchor="start" x="135.12" y="-337.38" font-family="Helvetica,sans-Serif" font-size="10.00">TTL_int_ulong_tensor_t</text>
<text text-anchor="start" x="147.44" y="-322.12" font-family="Helvetica,sans-Serif" font-size="10.00">+</text>
<text text-anchor="start" x="169.75" y="-322.12" font-family="Helvetica,sans-Serif" font-size="10.00">base</text>
<text text-anchor="start" x="147.44" y="-306.88" font-family="Helvetica,sans-Serif" font-size="10.00">+</text>
<text text-anchor="start" x="169.75" y="-306.88" font-family="Helvetica,sans-Serif" font-size="10.00">elem_size</text>
<text text-anchor="start" x="185" y="-291.62" font-family="Helvetica,sans-Serif" font-size="10.00"> </text>
<polygon fill="#666666" stroke="#666666" points="131.12,-333.62 131.12,-333.62 241.88,-333.62 241.88,-333.62 131.12,-333.62"/>
<polygon fill="#666666" stroke="#666666" points="131.12,-303.12 131.12,-303.12 167.75,-303.12 167.75,-303.12 131.12,-303.12"/>
<polygon fill="#666666" stroke="#666666" points="167.75,-303.12 167.75,-303.12 241.88,-303.12 241.88,-303.12 167.75,-303.12"/>
<polygon fill="none" stroke="#666666" points="131.12,-285.88 131.12,-350.88 241.88,-350.88 241.88,-285.88 131.12,-285.88"/>
</a>
</g>
</g>
<!-- Node3&#45;&gt;Node8 -->
<g id="edge9_Node000008_Node000003" class="edge">
<title>Node3&#45;&gt;Node8</title>
<g id="a_edge9_Node000008_Node000003"><a xlink:title=" ">
<path fill="none" stroke="#63b8ff" d="M130.99,-419.38C140.56,-402.14 152.55,-380.54 162.93,-361.83"/>
<polygon fill="none" stroke="#63b8ff" points="162.9,-361.9 162.31,-354.71 168.72,-351.4 169.3,-358.59 162.9,-361.9"/>
</a>
</g>
<text text-anchor="start" x="157.37" y="-381.25" font-family="Helvetica,sans-Serif" font-size="10.00" fill="grey">+layout</text>
</g>
<!-- Node4 -->
<g id="Node000004" class="node">
<title>Node4</title>
<g id="a_Node000004"><a xlink:href="structTTL__shape__t.html" target="_top" xlink:title="Description of a Shape.">
<polygon fill="white" stroke="none" points="283.38,-492 217.62,-492 217.62,-411.75 283.38,-411.75 283.38,-492"/>
<text text-anchor="start" x="221.62" y="-478.5" font-family="Helvetica,sans-Serif" font-size="10.00">TTL_shape_t</text>
<text text-anchor="start" x="227" y="-463.25" font-family="Helvetica,sans-Serif" font-size="10.00">+</text>
<text text-anchor="start" x="242.38" y="-463.25" font-family="Helvetica,sans-Serif" font-size="10.00">width</text>
<text text-anchor="start" x="227" y="-448" font-family="Helvetica,sans-Serif" font-size="10.00">+</text>
<text text-anchor="start" x="242.38" y="-448" font-family="Helvetica,sans-Serif" font-size="10.00">height</text>
<text text-anchor="start" x="227" y="-432.75" font-family="Helvetica,sans-Serif" font-size="10.00">+</text>
<text text-anchor="start" x="242.38" y="-432.75" font-family="Helvetica,sans-Serif" font-size="10.00">depth</text>
<text text-anchor="start" x="249" y="-417.5" font-family="Helvetica,sans-Serif" font-size="10.00"> </text>
<polygon fill="#666666" stroke="#666666" points="217.62,-474.75 217.62,-474.75 283.38,-474.75 283.38,-474.75 217.62,-474.75"/>
<polygon fill="#666666" stroke="#666666" points="217.62,-429 217.62,-429 240.38,-429 240.38,-429 217.62,-429"/>
<polygon fill="#666666" stroke="#666666" points="240.38,-429 240.38,-429 283.38,-429 283.38,-429 240.38,-429"/>
<polygon fill="none" stroke="#666666" points="217.62,-411.75 217.62,-492 283.38,-492 283.38,-411.75 217.62,-411.75"/>
</a>
</g>
</g>
<!-- Node4&#45;&gt;Node2 -->
<g id="edge3_Node000002_Node000004" class="edge">
<title>Node4&#45;&gt;Node2</title>
<g id="a_edge3_Node000002_Node000004"><a xlink:title=" ">
<path fill="none" stroke="#63b8ff" d="M217.89,-435.22C201.47,-427.64 181.14,-418.7 162.5,-411.75 136.71,-402.14 125.12,-410.46 103.25,-393.75 92.23,-385.33 83.14,-373.51 76,-361.76"/>
<polygon fill="none" stroke="#63b8ff" points="76.07,-361.89 69.64,-358.61 70.19,-351.42 76.62,-354.7 76.07,-361.89"/>
</a>
</g>
<text text-anchor="start" x="106.25" y="-381.25" font-family="Helvetica,sans-Serif" font-size="10.00" fill="grey">+shape</text>
</g>
<!-- Node5 -->
<g id="Node000005" class="node">
<title>Node5</title>
<g id="a_Node000005"><a xlink:href="structTTL__tile__t.html" target="_top" xlink:title=" ">
<polygon fill="white" stroke="none" points="416.62,-225 364.38,-225 364.38,-175.25 416.62,-175.25 416.62,-225"/>
<text text-anchor="start" x="368.38" y="-211.5" font-family="Helvetica,sans-Serif" font-size="10.00">TTL_tile_t</text>
<text text-anchor="start" x="389" y="-196.25" font-family="Helvetica,sans-Serif" font-size="10.00"> </text>
<text text-anchor="start" x="389" y="-181" font-family="Helvetica,sans-Serif" font-size="10.00"> </text>
<polygon fill="#666666" stroke="#666666" points="364.38,-207.75 364.38,-207.75 416.62,-207.75 416.62,-207.75 364.38,-207.75"/>
<polygon fill="#666666" stroke="#666666" points="364.38,-192.5 364.38,-192.5 416.62,-192.5 416.62,-192.5 364.38,-192.5"/>
<polygon fill="none" stroke="#666666" points="364.38,-175.25 364.38,-225 416.62,-225 416.62,-175.25 364.38,-175.25"/>
</a>
</g>
</g>
<!-- Node4&#45;&gt;Node5 -->
<g id="edge5_Node000005_Node000004" class="edge">
<title>Node4&#45;&gt;Node5</title>
<g id="a_edge5_Node000005_Node000004"><a xlink:title=" ">
<path fill="none" stroke="#63b8ff" d="M283.35,-441.68C320.8,-429.33 380.68,-403.58 410.5,-358.5 438.97,-315.45 439.04,-291.89 422.5,-243 421.69,-240.59 420.67,-238.22 419.51,-235.89"/>
<polygon fill="none" stroke="#63b8ff" points="419.46,-235.81 412.92,-232.78 413.2,-225.57 419.75,-228.6 419.46,-235.81"/>
</a>
</g>
<text text-anchor="start" x="436.69" y="-314.5" font-family="Helvetica,sans-Serif" font-size="10.00" fill="grey">+shape</text>
</g>
<!-- Node7 -->
<g id="Node000007" class="node">
<title>Node7</title>
<g id="a_Node000007"><a xlink:href="structTTL__int__ulong__sub__tensor__t.html" target="_top" xlink:title="const and non&#45;const sub tensors in the appropriate address space">
<polygon fill="white" stroke="none" points="343.38,-225 211.62,-225 211.62,-175.25 343.38,-175.25 343.38,-225"/>
<text text-anchor="start" x="215.62" y="-211.5" font-family="Helvetica,sans-Serif" font-size="10.00">TTL_int_ulong_sub_tensor_t</text>
<text text-anchor="start" x="238.25" y="-196.25" font-family="Helvetica,sans-Serif" font-size="10.00">+</text>
<text text-anchor="start" x="270.88" y="-196.25" font-family="Helvetica,sans-Serif" font-size="10.00">origin</text>
<text text-anchor="start" x="276" y="-181" font-family="Helvetica,sans-Serif" font-size="10.00"> </text>
<polygon fill="#666666" stroke="#666666" points="211.62,-207.75 211.62,-207.75 343.38,-207.75 343.38,-207.75 211.62,-207.75"/>
<polygon fill="#666666" stroke="#666666" points="211.62,-192.5 211.62,-192.5 268.88,-192.5 268.88,-192.5 211.62,-192.5"/>
<polygon fill="#666666" stroke="#666666" points="268.88,-192.5 268.88,-192.5 343.38,-192.5 343.38,-192.5 268.88,-192.5"/>
<polygon fill="none" stroke="#666666" points="211.62,-175.25 211.62,-225 343.38,-225 343.38,-175.25 211.62,-175.25"/>
</a>
</g>
</g>
<!-- Node4&#45;&gt;Node7 -->
<g id="edge11_Node000007_Node000004" class="edge">
<title>Node4&#45;&gt;Node7</title>
<g id="a_edge11_Node000007_Node000004"><a xlink:title=" ">
<path fill="none" stroke="#63b8ff" d="M260.17,-412C261.45,-405.92 262.61,-399.69 263.5,-393.75 271.54,-339.88 275.01,-276.81 276.48,-237.91"/>
<polygon fill="none" stroke="#63b8ff" points="276.48,-237.87 272.69,-231.74 276.89,-225.88 280.68,-232.01 276.48,-237.87"/>
</a>
</g>
<text text-anchor="start" x="277.55" y="-314.5" font-family="Helvetica,sans-Serif" font-size="10.00" fill="grey">+shape</text>
</g>
<!-- Node4&#45;&gt;Node8 -->
<g id="edge10_Node000008_Node000004" class="edge">
<title>Node4&#45;&gt;Node8</title>
<g id="a_edge10_Node000008_Node000004"><a xlink:title=" ">
<path fill="none" stroke="#63b8ff" d="M231.47,-411.78C223.9,-396.21 215.15,-378.25 207.4,-362.32"/>
<polygon fill="none" stroke="#63b8ff" points="207.35,-362.21 201.13,-358.57 202.1,-351.42 208.32,-355.07 207.35,-362.21"/>
</a>
</g>
<text text-anchor="start" x="225.33" y="-381.25" font-family="Helvetica,sans-Serif" font-size="10.00" fill="grey">+shape</text>
</g>
<!-- Node5&#45;&gt;Node1 -->
<g id="edge4_Node000001_Node000005" class="edge">
<title>Node5&#45;&gt;Node1</title>
<g id="a_edge4_Node000001_Node000005"><a xlink:title=" ">
<path fill="none" stroke="#63b8ff" d="M384.18,-175.37C380.46,-164.02 374.99,-150.62 367.5,-140 361.59,-131.62 354.6,-123.56 347.16,-116.01"/>
<polygon fill="none" stroke="#63b8ff" points="347.52,-116.36 340.43,-115.06 338.9,-108.01 346,-109.31 347.52,-116.36"/>
</a>
</g>
<text text-anchor="start" x="379.87" y="-144.75" font-family="Helvetica,sans-Serif" font-size="10.00" fill="grey">+next_exported_tile</text>
</g>
<!-- Node6 -->
<g id="Node000006" class="node">
<title>Node6</title>
<g id="a_Node000006"><a xlink:href="structTTL__offset__t.html" target="_top" xlink:title="Description of the 3D offset of an object.">
<polygon fill="white" stroke="none" points="401.25,-358.5 337.75,-358.5 337.75,-278.25 401.25,-278.25 401.25,-358.5"/>
<text text-anchor="start" x="341.75" y="-345" font-family="Helvetica,sans-Serif" font-size="10.00">TTL_offset_t</text>
<text text-anchor="start" x="352" y="-329.75" font-family="Helvetica,sans-Serif" font-size="10.00">+</text>
<text text-anchor="start" x="372.25" y="-329.75" font-family="Helvetica,sans-Serif" font-size="10.00">x</text>
<text text-anchor="start" x="352" y="-314.5" font-family="Helvetica,sans-Serif" font-size="10.00">+</text>
<text text-anchor="start" x="372.25" y="-314.5" font-family="Helvetica,sans-Serif" font-size="10.00">y</text>
<text text-anchor="start" x="352" y="-299.25" font-family="Helvetica,sans-Serif" font-size="10.00">+</text>
<text text-anchor="start" x="372.25" y="-299.25" font-family="Helvetica,sans-Serif" font-size="10.00">z</text>
<text text-anchor="start" x="368" y="-284" font-family="Helvetica,sans-Serif" font-size="10.00"> </text>
<polygon fill="#666666" stroke="#666666" points="337.75,-341.25 337.75,-341.25 401.25,-341.25 401.25,-341.25 337.75,-341.25"/>
<polygon fill="#666666" stroke="#666666" points="337.75,-295.5 337.75,-295.5 370.25,-295.5 370.25,-295.5 337.75,-295.5"/>
<polygon fill="#666666" stroke="#666666" points="370.25,-295.5 370.25,-295.5 401.25,-295.5 401.25,-295.5 370.25,-295.5"/>
<polygon fill="none" stroke="#666666" points="337.75,-278.25 337.75,-358.5 401.25,-358.5 401.25,-278.25 337.75,-278.25"/>
</a>
</g>
</g>
<!-- Node6&#45;&gt;Node5 -->
<g id="edge6_Node000005_Node000006" class="edge">
<title>Node6&#45;&gt;Node5</title>
<g id="a_edge6_Node000005_Node000006"><a xlink:title=" ">
<path fill="none" stroke="#63b8ff" d="M376.55,-278.34C378.92,-265.22 381.55,-250.64 383.89,-237.72"/>
<polygon fill="none" stroke="#63b8ff" points="383.9,-237.67 381.03,-231.06 386.03,-225.86 388.9,-232.48 383.9,-237.67"/>
</a>
</g>
<text text-anchor="start" x="385.5" y="-247.75" font-family="Helvetica,sans-Serif" font-size="10.00" fill="grey">+offset</text>
</g>
<!-- Node6&#45;&gt;Node7 -->
<g id="edge12_Node000007_Node000006" class="edge">
<title>Node6&#45;&gt;Node7</title>
<g id="a_edge12_Node000007_Node000006"><a xlink:title=" ">
<path fill="none" stroke="#63b8ff" d="M337.99,-282.5C331.73,-275.26 325.3,-267.59 319.5,-260.25 313.26,-252.35 306.82,-243.61 300.92,-235.34"/>
<polygon fill="none" stroke="#63b8ff" points="300.95,-235.38 294.22,-232.78 294.04,-225.57 300.77,-228.17 300.95,-235.38"/>
</a>
</g>
<text text-anchor="start" x="322.5" y="-247.75" font-family="Helvetica,sans-Serif" font-size="10.00" fill="grey">+sub_offset</text>
</g>
<!-- Node7&#45;&gt;Node1 -->
<g id="edge7_Node000001_Node000007" class="edge">
<title>Node7&#45;&gt;Node1</title>
<g id="a_edge7_Node000001_Node000007"><a xlink:title=" ">
<path fill="none" stroke="#63b8ff" d="M277.5,-175.55C277.5,-164.06 277.5,-149.55 277.5,-134.78"/>
<polygon fill="none" stroke="#63b8ff" points="277.5,-134.71 273.5,-128.71 277.5,-122.71 281.5,-128.71 277.5,-134.71"/>
</a>
</g>
<text text-anchor="start" x="280.5" y="-144.75" font-family="Helvetica,sans-Serif" font-size="10.00" fill="grey">+int_prev_imported</text>
</g>
<!-- Node8&#45;&gt;Node7 -->
<g id="edge8_Node000007_Node000008" class="edge">
<title>Node8&#45;&gt;Node7</title>
<g id="a_edge8_Node000007_Node000008"><a xlink:title=" ">
<path fill="none" stroke="#63b8ff" d="M198.93,-285.91C205.33,-271.92 214.01,-255.78 224.5,-243 227.26,-239.63 230.34,-236.36 233.58,-233.23"/>
<polygon fill="none" stroke="#63b8ff" points="233.39,-233.4 235.21,-226.42 242.35,-225.41 240.53,-232.39 233.39,-233.4"/>
</a>
</g>
<text text-anchor="start" x="227.5" y="-247.75" font-family="Helvetica,sans-Serif" font-size="10.00" fill="grey">+tensor</text>
</g>
</g>
</svg>
