<?xml version="1.0" encoding="UTF-8" standalone="no"?>
<!DOCTYPE svg PUBLIC "-//W3C//DTD SVG 1.1//EN"
 "http://www.w3.org/Graphics/SVG/1.1/DTD/svg11.dtd">
<!-- Generated by graphviz version 12.2.1 (20241206.2353)
 -->
<!-- Title: StrongTypeConversion&lt; TARGET_TYPE, SOURCE_TYPE, CONVERSION_MULTIPLY, CONVERSION_DIVISION &gt; Pages: 1 -->
<svg width="177pt" height="193pt"
 viewBox="0.00 0.00 176.50 192.50" xmlns="http://www.w3.org/2000/svg" xmlns:xlink="http://www.w3.org/1999/xlink">
<g id="graph0" class="graph" transform="scale(1 1) rotate(0) translate(4 188.5)">
<title>StrongTypeConversion&lt; TARGET_TYPE, SOURCE_TYPE, CONVERSION_MULTIPLY, CONVERSION_DIVISION &gt;</title>
<!-- Node1 -->
<g id="Node000001" class="node">
<title>Node1</title>
<g id="a_Node000001"><a xlink:title="Wrapper to allow a single conversion to another type.">
<polygon fill="#999999" stroke="none" points="168.5,-98.75 0,-98.75 0,0 168.5,0 168.5,-98.75"/>
<text text-anchor="start" x="4" y="-85.25" font-family="Helvetica,sans-Serif" font-size="10.00">StrongTypeConversion</text>
<text text-anchor="start" x="4" y="-74" font-family="Helvetica,sans-Serif" font-size="10.00">&lt; TARGET_TYPE, SOURCE</text>
<text text-anchor="start" x="4" y="-62.75" font-family="Helvetica,sans-Serif" font-size="10.00">_TYPE, CONVERSION_MULTIPLY,</text>
<text text-anchor="start" x="21.25" y="-51.5" font-family="Helvetica,sans-Serif" font-size="10.00"> CONVERSION_DIVISION &gt;</text>
<text text-anchor="start" x="82.75" y="-36.25" font-family="Helvetica,sans-Serif" font-size="10.00"> </text>
<text text-anchor="start" x="13.31" y="-21" font-family="Helvetica,sans-Serif" font-size="10.00">+</text>
<text text-anchor="start" x="32.62" y="-21" font-family="Helvetica,sans-Serif" font-size="10.00">StrongTypeConversion()</text>
<text text-anchor="start" x="13.31" y="-5.75" font-family="Helvetica,sans-Serif" font-size="10.00">+</text>
<text text-anchor="start" x="32.62" y="-5.75" font-family="Helvetica,sans-Serif" font-size="10.00">operator TARGET_TYPE()</text>
<polygon fill="#666666" stroke="#666666" points="0,-47.75 0,-47.75 168.5,-47.75 168.5,-47.75 0,-47.75"/>
<polygon fill="#666666" stroke="#666666" points="0,-32.5 0,-32.5 168.5,-32.5 168.5,-32.5 0,-32.5"/>
<polygon fill="none" stroke="#666666" points="0,0 0,-98.75 168.5,-98.75 168.5,0 0,0"/>
</a>
</g>
</g>
<!-- Node2 -->
<g id="Node000002" class="node">
<title>Node2</title>
<g id="a_Node000002"><a xlink:title=" ">
<polygon fill="white" stroke="none" points="123.12,-184.5 45.38,-184.5 45.38,-134.75 123.12,-134.75 123.12,-184.5"/>
<text text-anchor="start" x="49.38" y="-171" font-family="Helvetica,sans-Serif" font-size="10.00">TARGET_TYPE</text>
<text text-anchor="start" x="82.75" y="-155.75" font-family="Helvetica,sans-Serif" font-size="10.00"> </text>
<text text-anchor="start" x="82.75" y="-140.5" font-family="Helvetica,sans-Serif" font-size="10.00"> </text>
<polygon fill="#666666" stroke="#666666" points="45.38,-167.25 45.38,-167.25 123.12,-167.25 123.12,-167.25 45.38,-167.25"/>
<polygon fill="#666666" stroke="#666666" points="45.38,-152 45.38,-152 123.12,-152 123.12,-152 45.38,-152"/>
<polygon fill="none" stroke="#666666" points="45.38,-134.75 45.38,-184.5 123.12,-184.5 123.12,-134.75 45.38,-134.75"/>
</a>
</g>
</g>
<!-- Node2&#45;&gt;Node1 -->
<g id="edge1_Node000001_Node000002" class="edge">
<title>Node2&#45;&gt;Node1</title>
<g id="a_edge1_Node000001_Node000002"><a xlink:title=" ">
<path fill="none" stroke="#63b8ff" d="M84.25,-123.39C84.25,-115.45 84.25,-106.88 84.25,-98.51"/>
<polygon fill="none" stroke="#63b8ff" points="80.75,-123.36 84.25,-133.36 87.75,-123.36 80.75,-123.36"/>
</a>
</g>
</g>
</g>
</svg>
