<?xml version="1.0" encoding="UTF-8" standalone="no"?>
<!DOCTYPE svg PUBLIC "-//W3C//DTD SVG 1.1//EN"
 "http://www.w3.org/Graphics/SVG/1.1/DTD/svg11.dtd">
<!-- Generated by graphviz version 12.2.1 (20241206.2353)
 -->
<!-- Title: TTL_duplex_const_uint_tensor_buffering_t Pages: 1 -->
<svg width="241pt" height="424pt"
 viewBox="0.00 0.00 241.16 423.50" xmlns="http://www.w3.org/2000/svg" xmlns:xlink="http://www.w3.org/1999/xlink">
<g id="graph0" class="graph" transform="scale(1 1) rotate(0) translate(4 419.5)">
<title>TTL_duplex_const_uint_tensor_buffering_t</title>
<!-- Node1 -->
<g id="Node000001" class="node">
<title>Node1</title>
<g id="a_Node000001"><a xlink:title="Data required to perform duplex buffer pipelining.">
<polygon fill="#999999" stroke="none" points="165.38,-122 56.12,-122 56.12,0 165.38,0 165.38,-122"/>
<text text-anchor="start" x="60.12" y="-108.5" font-family="Helvetica,sans-Serif" font-size="10.00">TTL_duplex_const_uint</text>
<text text-anchor="start" x="69.5" y="-97.25" font-family="Helvetica,sans-Serif" font-size="10.00">_tensor_buffering_t</text>
<text text-anchor="start" x="64.19" y="-82" font-family="Helvetica,sans-Serif" font-size="10.00">+</text>
<text text-anchor="start" x="78.25" y="-82" font-family="Helvetica,sans-Serif" font-size="10.00">index</text>
<text text-anchor="start" x="64.19" y="-66.75" font-family="Helvetica,sans-Serif" font-size="10.00">+</text>
<text text-anchor="start" x="78.25" y="-66.75" font-family="Helvetica,sans-Serif" font-size="10.00">int_base</text>
<text text-anchor="start" x="64.19" y="-51.5" font-family="Helvetica,sans-Serif" font-size="10.00">+</text>
<text text-anchor="start" x="78.25" y="-51.5" font-family="Helvetica,sans-Serif" font-size="10.00">common</text>
<text text-anchor="start" x="64.19" y="-36.25" font-family="Helvetica,sans-Serif" font-size="10.00">+</text>
<text text-anchor="start" x="78.25" y="-36.25" font-family="Helvetica,sans-Serif" font-size="10.00">events</text>
<text text-anchor="start" x="64.19" y="-21" font-family="Helvetica,sans-Serif" font-size="10.00">+</text>
<text text-anchor="start" x="78.25" y="-21" font-family="Helvetica,sans-Serif" font-size="10.00">prev_out_tensors</text>
<text text-anchor="start" x="109.25" y="-5.75" font-family="Helvetica,sans-Serif" font-size="10.00"> </text>
<polygon fill="#666666" stroke="#666666" points="56.12,-93.5 56.12,-93.5 165.38,-93.5 165.38,-93.5 56.12,-93.5"/>
<polygon fill="#666666" stroke="#666666" points="56.12,-17.25 56.12,-17.25 76.25,-17.25 76.25,-17.25 56.12,-17.25"/>
<polygon fill="#666666" stroke="#666666" points="76.25,-17.25 76.25,-17.25 165.38,-17.25 165.38,-17.25 76.25,-17.25"/>
<polygon fill="none" stroke="#666666" points="56.12,0 56.12,-122 165.38,-122 165.38,0 56.12,0"/>
</a>
</g>
</g>
<!-- Node2 -->
<g id="Node000002" class="node">
<title>Node2</title>
<g id="a_Node000002"><a xlink:href="structTTL__ext__uint__tensor__t.html" target="_top" xlink:title="const and non&#45;const tensors in the appropriate address space">
<polygon fill="white" stroke="none" points="105.5,-276.38 0,-276.38 0,-211.38 105.5,-211.38 105.5,-276.38"/>
<text text-anchor="start" x="4" y="-262.88" font-family="Helvetica,sans-Serif" font-size="10.00">TTL_ext_uint_tensor_t</text>
<text text-anchor="start" x="15" y="-247.62" font-family="Helvetica,sans-Serif" font-size="10.00">+</text>
<text text-anchor="start" x="36" y="-247.62" font-family="Helvetica,sans-Serif" font-size="10.00">base</text>
<text text-anchor="start" x="15" y="-232.38" font-family="Helvetica,sans-Serif" font-size="10.00">+</text>
<text text-anchor="start" x="36" y="-232.38" font-family="Helvetica,sans-Serif" font-size="10.00">elem_size</text>
<text text-anchor="start" x="51.25" y="-217.12" font-family="Helvetica,sans-Serif" font-size="10.00"> </text>
<polygon fill="#666666" stroke="#666666" points="0,-259.12 0,-259.12 105.5,-259.12 105.5,-259.12 0,-259.12"/>
<polygon fill="#666666" stroke="#666666" points="0,-228.62 0,-228.62 34,-228.62 34,-228.62 0,-228.62"/>
<polygon fill="#666666" stroke="#666666" points="34,-228.62 34,-228.62 105.5,-228.62 105.5,-228.62 34,-228.62"/>
<polygon fill="none" stroke="#666666" points="0,-211.38 0,-276.38 105.5,-276.38 105.5,-211.38 0,-211.38"/>
</a>
</g>
</g>
<!-- Node2&#45;&gt;Node1 -->
<g id="edge1_Node000001_Node000002" class="edge">
<title>Node2&#45;&gt;Node1</title>
<g id="a_edge1_Node000001_Node000002"><a xlink:title=" ">
<path fill="none" stroke="#63b8ff" d="M54.06,-211.57C55.65,-190.82 59.18,-163.24 67,-140 67.7,-137.93 68.45,-135.84 69.25,-133.76"/>
<polygon fill="none" stroke="#63b8ff" points="69.26,-133.75 67.92,-126.66 73.95,-122.7 75.28,-129.79 69.26,-133.75"/>
</a>
</g>
<text text-anchor="start" x="70" y="-175.25" font-family="Helvetica,sans-Serif" font-size="10.00" fill="grey">+ext_tensor_in</text>
<text text-anchor="start" x="70" y="-160" font-family="Helvetica,sans-Serif" font-size="10.00" fill="grey">+ext_tensor_out</text>
<text text-anchor="start" x="70" y="-144.75" font-family="Helvetica,sans-Serif" font-size="10.00" fill="grey">+to_export_to</text>
</g>
<!-- Node3 -->
<g id="Node000003" class="node">
<title>Node3</title>
<g id="a_Node000003"><a xlink:href="structTTL__layout__t.html" target="_top" xlink:title="Description of a Tensor layout in memory.">
<polygon fill="white" stroke="none" points="97.88,-407.88 17.62,-407.88 17.62,-342.88 97.88,-342.88 97.88,-407.88"/>
<text text-anchor="start" x="29.25" y="-394.38" font-family="Helvetica,sans-Serif" font-size="10.00">TTL_layout_t</text>
<text text-anchor="start" x="21.62" y="-379.12" font-family="Helvetica,sans-Serif" font-size="10.00">+</text>
<text text-anchor="start" x="31.62" y="-379.12" font-family="Helvetica,sans-Serif" font-size="10.00">row_spacing</text>
<text text-anchor="start" x="21.62" y="-363.88" font-family="Helvetica,sans-Serif" font-size="10.00">+</text>
<text text-anchor="start" x="31.62" y="-363.88" font-family="Helvetica,sans-Serif" font-size="10.00">plane_spacing</text>
<text text-anchor="start" x="56.25" y="-348.62" font-family="Helvetica,sans-Serif" font-size="10.00"> </text>
<polygon fill="#666666" stroke="#666666" points="17.62,-390.62 17.62,-390.62 97.88,-390.62 97.88,-390.62 17.62,-390.62"/>
<polygon fill="#666666" stroke="#666666" points="17.62,-360.12 17.62,-360.12 29.62,-360.12 29.62,-360.12 17.62,-360.12"/>
<polygon fill="#666666" stroke="#666666" points="29.62,-360.12 29.62,-360.12 97.88,-360.12 97.88,-360.12 29.62,-360.12"/>
<polygon fill="none" stroke="#666666" points="17.62,-342.88 17.62,-407.88 97.88,-407.88 97.88,-342.88 17.62,-342.88"/>
</a>
</g>
</g>
<!-- Node3&#45;&gt;Node2 -->
<g id="edge2_Node000002_Node000003" class="edge">
<title>Node3&#45;&gt;Node2</title>
<g id="a_edge2_Node000002_Node000003"><a xlink:title=" ">
<path fill="none" stroke="#63b8ff" d="M33.27,-343.01C28.33,-335.03 23.86,-326.17 21.25,-317.25 18.41,-307.54 19.83,-297.41 23.29,-287.91"/>
<polygon fill="none" stroke="#63b8ff" points="23.23,-288.03 22.08,-280.91 28.21,-277.12 29.36,-284.23 23.23,-288.03"/>
</a>
</g>
<text text-anchor="start" x="24.25" y="-304.75" font-family="Helvetica,sans-Serif" font-size="10.00" fill="grey">+layout</text>
</g>
<!-- Node5 -->
<g id="Node000005" class="node">
<title>Node5</title>
<g id="a_Node000005"><a xlink:href="structTTL__const__int__uint__tensor__t.html" target="_top" xlink:title=" ">
<polygon fill="white" stroke="none" points="215.75,-282 123.75,-282 123.75,-205.75 215.75,-205.75 215.75,-282"/>
<text text-anchor="start" x="127.75" y="-268.5" font-family="Helvetica,sans-Serif" font-size="10.00">TTL_const_int_uint</text>
<text text-anchor="start" x="149.5" y="-257.25" font-family="Helvetica,sans-Serif" font-size="10.00">_tensor_t</text>
<text text-anchor="start" x="135.38" y="-242" font-family="Helvetica,sans-Serif" font-size="10.00">+</text>
<text text-anchor="start" x="153" y="-242" font-family="Helvetica,sans-Serif" font-size="10.00">base</text>
<text text-anchor="start" x="135.38" y="-226.75" font-family="Helvetica,sans-Serif" font-size="10.00">+</text>
<text text-anchor="start" x="153" y="-226.75" font-family="Helvetica,sans-Serif" font-size="10.00">elem_size</text>
<text text-anchor="start" x="168.25" y="-211.5" font-family="Helvetica,sans-Serif" font-size="10.00"> </text>
<polygon fill="#666666" stroke="#666666" points="123.75,-253.5 123.75,-253.5 215.75,-253.5 215.75,-253.5 123.75,-253.5"/>
<polygon fill="#666666" stroke="#666666" points="123.75,-223 123.75,-223 151,-223 151,-223 123.75,-223"/>
<polygon fill="#666666" stroke="#666666" points="151,-223 151,-223 215.75,-223 215.75,-223 151,-223"/>
<polygon fill="none" stroke="#666666" points="123.75,-205.75 123.75,-282 215.75,-282 215.75,-205.75 123.75,-205.75"/>
</a>
</g>
</g>
<!-- Node3&#45;&gt;Node5 -->
<g id="edge5_Node000005_Node000003" class="edge">
<title>Node3&#45;&gt;Node5</title>
<g id="a_edge5_Node000005_Node000003"><a xlink:title=" ">
<path fill="none" stroke="#63b8ff" d="M60.49,-343.09C63.13,-328.65 68.27,-312.08 78.25,-300 87.79,-288.46 95.83,-289.91 112.36,-282.5"/>
<polygon fill="none" stroke="#63b8ff" points="112.38,-282.48 115.86,-276.17 123.03,-276.95 119.55,-283.27 112.38,-282.48"/>
</a>
</g>
<text text-anchor="start" x="81.25" y="-304.75" font-family="Helvetica,sans-Serif" font-size="10.00" fill="grey">+layout</text>
</g>
<!-- Node4 -->
<g id="Node000004" class="node">
<title>Node4</title>
<g id="a_Node000004"><a xlink:href="structTTL__shape__t.html" target="_top" xlink:title="Description of a Shape.">
<polygon fill="white" stroke="none" points="196.62,-415.5 130.88,-415.5 130.88,-335.25 196.62,-335.25 196.62,-415.5"/>
<text text-anchor="start" x="134.88" y="-402" font-family="Helvetica,sans-Serif" font-size="10.00">TTL_shape_t</text>
<text text-anchor="start" x="140.25" y="-386.75" font-family="Helvetica,sans-Serif" font-size="10.00">+</text>
<text text-anchor="start" x="155.62" y="-386.75" font-family="Helvetica,sans-Serif" font-size="10.00">width</text>
<text text-anchor="start" x="140.25" y="-371.5" font-family="Helvetica,sans-Serif" font-size="10.00">+</text>
<text text-anchor="start" x="155.62" y="-371.5" font-family="Helvetica,sans-Serif" font-size="10.00">height</text>
<text text-anchor="start" x="140.25" y="-356.25" font-family="Helvetica,sans-Serif" font-size="10.00">+</text>
<text text-anchor="start" x="155.62" y="-356.25" font-family="Helvetica,sans-Serif" font-size="10.00">depth</text>
<text text-anchor="start" x="162.25" y="-341" font-family="Helvetica,sans-Serif" font-size="10.00"> </text>
<polygon fill="#666666" stroke="#666666" points="130.88,-398.25 130.88,-398.25 196.62,-398.25 196.62,-398.25 130.88,-398.25"/>
<polygon fill="#666666" stroke="#666666" points="130.88,-352.5 130.88,-352.5 153.62,-352.5 153.62,-352.5 130.88,-352.5"/>
<polygon fill="#666666" stroke="#666666" points="153.62,-352.5 153.62,-352.5 196.62,-352.5 196.62,-352.5 153.62,-352.5"/>
<polygon fill="none" stroke="#666666" points="130.88,-335.25 130.88,-415.5 196.62,-415.5 196.62,-335.25 130.88,-335.25"/>
</a>
</g>
</g>
<!-- Node4&#45;&gt;Node2 -->
<g id="edge3_Node000002_Node000004" class="edge">
<title>Node4&#45;&gt;Node2</title>
<g id="a_edge3_Node000002_Node000004"><a xlink:title=" ">
<path fill="none" stroke="#63b8ff" d="M144.21,-335.59C137.29,-323.58 128.92,-310.71 119.75,-300 115.28,-294.78 110.27,-289.67 105.07,-284.8"/>
<polygon fill="none" stroke="#63b8ff" points="105.18,-284.89 98.04,-283.89 96.22,-276.91 103.36,-277.91 105.18,-284.89"/>
</a>
</g>
<text text-anchor="start" x="135.59" y="-304.75" font-family="Helvetica,sans-Serif" font-size="10.00" fill="grey">+shape</text>
</g>
<!-- Node4&#45;&gt;Node5 -->
<g id="edge6_Node000005_Node000004" class="edge">
<title>Node4&#45;&gt;Node5</title>
<g id="a_edge6_Node000005_Node000004"><a xlink:title=" ">
<path fill="none" stroke="#63b8ff" d="M176.98,-335.38C178.54,-329.37 179.89,-323.19 180.75,-317.25 181.82,-309.93 181.83,-302.19 181.21,-294.61"/>
<polygon fill="none" stroke="#63b8ff" points="181.2,-294.48 176.48,-289.03 179.7,-282.58 184.41,-288.03 181.2,-294.48"/>
</a>
</g>
<text text-anchor="start" x="184.62" y="-304.75" font-family="Helvetica,sans-Serif" font-size="10.00" fill="grey">+shape</text>
</g>
<!-- Node5&#45;&gt;Node1 -->
<g id="edge4_Node000001_Node000005" class="edge">
<title>Node5&#45;&gt;Node1</title>
<g id="a_edge4_Node000001_Node000005"><a xlink:title=" ">
<path fill="none" stroke="#63b8ff" d="M161.3,-205.86C156.47,-186.13 149.96,-161.54 142.75,-140 142.06,-137.95 141.35,-135.87 140.61,-133.79"/>
<polygon fill="none" stroke="#63b8ff" points="140.64,-133.85 134.82,-129.6 136.51,-122.59 142.33,-126.84 140.64,-133.85"/>
</a>
</g>
<text text-anchor="start" x="159.66" y="-160" font-family="Helvetica,sans-Serif" font-size="10.00" fill="grey">+to_export_from</text>
</g>
</g>
</svg>
