<?xml version="1.0" encoding="UTF-8" standalone="no"?>
<!DOCTYPE svg PUBLIC "-//W3C//DTD SVG 1.1//EN"
 "http://www.w3.org/Graphics/SVG/1.1/DTD/svg11.dtd">
<!-- Generated by graphviz version 12.2.1 (20241206.2353)
 -->
<!-- Title: TTL_const_int_ushort_sub_tensor_t Pages: 1 -->
<svg width="282pt" height="336pt"
 viewBox="0.00 0.00 281.88 336.00" xmlns="http://www.w3.org/2000/svg" xmlns:xlink="http://www.w3.org/1999/xlink">
<g id="graph0" class="graph" transform="scale(1 1) rotate(0) translate(4 332)">
<title>TTL_const_int_ushort_sub_tensor_t</title>
<!-- Node1 -->
<g id="Node000001" class="node">
<title>Node1</title>
<g id="a_Node000001"><a xlink:title=" ">
<polygon fill="#999999" stroke="none" points="205.75,-61 102.5,-61 102.5,0 205.75,0 205.75,-61"/>
<text text-anchor="start" x="106.5" y="-47.5" font-family="Helvetica,sans-Serif" font-size="10.00">TTL_const_int_ushort</text>
<text text-anchor="start" x="123.38" y="-36.25" font-family="Helvetica,sans-Serif" font-size="10.00">_sub_tensor_t</text>
<text text-anchor="start" x="122" y="-21" font-family="Helvetica,sans-Serif" font-size="10.00">+</text>
<text text-anchor="start" x="147.5" y="-21" font-family="Helvetica,sans-Serif" font-size="10.00">origin</text>
<text text-anchor="start" x="152.62" y="-5.75" font-family="Helvetica,sans-Serif" font-size="10.00"> </text>
<polygon fill="#666666" stroke="#666666" points="102.5,-32.5 102.5,-32.5 205.75,-32.5 205.75,-32.5 102.5,-32.5"/>
<polygon fill="#666666" stroke="#666666" points="102.5,-17.25 102.5,-17.25 145.5,-17.25 145.5,-17.25 102.5,-17.25"/>
<polygon fill="#666666" stroke="#666666" points="145.5,-17.25 145.5,-17.25 205.75,-17.25 205.75,-17.25 145.5,-17.25"/>
<polygon fill="none" stroke="#666666" points="102.5,0 102.5,-61 205.75,-61 205.75,0 102.5,0"/>
</a>
</g>
</g>
<!-- Node2 -->
<g id="Node000002" class="node">
<title>Node2</title>
<g id="a_Node000002"><a xlink:href="structTTL__const__int__ushort__tensor__t.html" target="_top" xlink:title=" ">
<polygon fill="white" stroke="none" points="117.75,-192.5 14.5,-192.5 14.5,-116.25 117.75,-116.25 117.75,-192.5"/>
<text text-anchor="start" x="18.5" y="-179" font-family="Helvetica,sans-Serif" font-size="10.00">TTL_const_int_ushort</text>
<text text-anchor="start" x="45.88" y="-167.75" font-family="Helvetica,sans-Serif" font-size="10.00">_tensor_t</text>
<text text-anchor="start" x="28.94" y="-152.5" font-family="Helvetica,sans-Serif" font-size="10.00">+</text>
<text text-anchor="start" x="49.38" y="-152.5" font-family="Helvetica,sans-Serif" font-size="10.00">base</text>
<text text-anchor="start" x="28.94" y="-137.25" font-family="Helvetica,sans-Serif" font-size="10.00">+</text>
<text text-anchor="start" x="49.38" y="-137.25" font-family="Helvetica,sans-Serif" font-size="10.00">elem_size</text>
<text text-anchor="start" x="64.62" y="-122" font-family="Helvetica,sans-Serif" font-size="10.00"> </text>
<polygon fill="#666666" stroke="#666666" points="14.5,-164 14.5,-164 117.75,-164 117.75,-164 14.5,-164"/>
<polygon fill="#666666" stroke="#666666" points="14.5,-133.5 14.5,-133.5 47.38,-133.5 47.38,-133.5 14.5,-133.5"/>
<polygon fill="#666666" stroke="#666666" points="47.38,-133.5 47.38,-133.5 117.75,-133.5 117.75,-133.5 47.38,-133.5"/>
<polygon fill="none" stroke="#666666" points="14.5,-116.25 14.5,-192.5 117.75,-192.5 117.75,-116.25 14.5,-116.25"/>
</a>
</g>
</g>
<!-- Node2&#45;&gt;Node1 -->
<g id="edge1_Node000001_Node000002" class="edge">
<title>Node2&#45;&gt;Node1</title>
<g id="a_edge1_Node000001_Node000002"><a xlink:title=" ">
<path fill="none" stroke="#63b8ff" d="M79.95,-116.55C85.54,-104.02 92.69,-90.33 101.12,-79 103.34,-76.03 105.76,-73.1 108.31,-70.24"/>
<polygon fill="none" stroke="#63b8ff" points="108.41,-70.15 109.7,-63.05 116.75,-61.52 115.45,-68.62 108.41,-70.15"/>
</a>
</g>
<text text-anchor="start" x="104.12" y="-83.75" font-family="Helvetica,sans-Serif" font-size="10.00" fill="grey">+tensor</text>
</g>
<!-- Node3 -->
<g id="Node000003" class="node">
<title>Node3</title>
<g id="a_Node000003"><a xlink:href="structTTL__layout__t.html" target="_top" xlink:title="Description of a Tensor layout in memory.">
<polygon fill="white" stroke="none" points="80.25,-320.38 0,-320.38 0,-255.38 80.25,-255.38 80.25,-320.38"/>
<text text-anchor="start" x="11.62" y="-306.88" font-family="Helvetica,sans-Serif" font-size="10.00">TTL_layout_t</text>
<text text-anchor="start" x="4" y="-291.62" font-family="Helvetica,sans-Serif" font-size="10.00">+</text>
<text text-anchor="start" x="14" y="-291.62" font-family="Helvetica,sans-Serif" font-size="10.00">row_spacing</text>
<text text-anchor="start" x="4" y="-276.38" font-family="Helvetica,sans-Serif" font-size="10.00">+</text>
<text text-anchor="start" x="14" y="-276.38" font-family="Helvetica,sans-Serif" font-size="10.00">plane_spacing</text>
<text text-anchor="start" x="38.62" y="-261.12" font-family="Helvetica,sans-Serif" font-size="10.00"> </text>
<polygon fill="#666666" stroke="#666666" points="0,-303.12 0,-303.12 80.25,-303.12 80.25,-303.12 0,-303.12"/>
<polygon fill="#666666" stroke="#666666" points="0,-272.62 0,-272.62 12,-272.62 12,-272.62 0,-272.62"/>
<polygon fill="#666666" stroke="#666666" points="12,-272.62 12,-272.62 80.25,-272.62 80.25,-272.62 12,-272.62"/>
<polygon fill="none" stroke="#666666" points="0,-255.38 0,-320.38 80.25,-320.38 80.25,-255.38 0,-255.38"/>
</a>
</g>
</g>
<!-- Node3&#45;&gt;Node2 -->
<g id="edge2_Node000002_Node000003" class="edge">
<title>Node3&#45;&gt;Node2</title>
<g id="a_edge2_Node000002_Node000003"><a xlink:title=" ">
<path fill="none" stroke="#63b8ff" d="M38.11,-255.44C37.93,-242.07 38.63,-226.39 41.62,-212.5 42.19,-209.9 42.86,-207.28 43.63,-204.66"/>
<polygon fill="none" stroke="#63b8ff" points="43.62,-204.7 41.78,-197.73 47.5,-193.35 49.34,-200.32 43.62,-204.7"/>
</a>
</g>
<text text-anchor="start" x="44.62" y="-217.25" font-family="Helvetica,sans-Serif" font-size="10.00" fill="grey">+layout</text>
</g>
<!-- Node4 -->
<g id="Node000004" class="node">
<title>Node4</title>
<g id="a_Node000004"><a xlink:href="structTTL__shape__t.html" target="_top" xlink:title="Description of a Shape.">
<polygon fill="white" stroke="none" points="175,-328 109.25,-328 109.25,-247.75 175,-247.75 175,-328"/>
<text text-anchor="start" x="113.25" y="-314.5" font-family="Helvetica,sans-Serif" font-size="10.00">TTL_shape_t</text>
<text text-anchor="start" x="118.62" y="-299.25" font-family="Helvetica,sans-Serif" font-size="10.00">+</text>
<text text-anchor="start" x="134" y="-299.25" font-family="Helvetica,sans-Serif" font-size="10.00">width</text>
<text text-anchor="start" x="118.62" y="-284" font-family="Helvetica,sans-Serif" font-size="10.00">+</text>
<text text-anchor="start" x="134" y="-284" font-family="Helvetica,sans-Serif" font-size="10.00">height</text>
<text text-anchor="start" x="118.62" y="-268.75" font-family="Helvetica,sans-Serif" font-size="10.00">+</text>
<text text-anchor="start" x="134" y="-268.75" font-family="Helvetica,sans-Serif" font-size="10.00">depth</text>
<text text-anchor="start" x="140.62" y="-253.5" font-family="Helvetica,sans-Serif" font-size="10.00"> </text>
<polygon fill="#666666" stroke="#666666" points="109.25,-310.75 109.25,-310.75 175,-310.75 175,-310.75 109.25,-310.75"/>
<polygon fill="#666666" stroke="#666666" points="109.25,-265 109.25,-265 132,-265 132,-265 109.25,-265"/>
<polygon fill="#666666" stroke="#666666" points="132,-265 132,-265 175,-265 175,-265 132,-265"/>
<polygon fill="none" stroke="#666666" points="109.25,-247.75 109.25,-328 175,-328 175,-247.75 109.25,-247.75"/>
</a>
</g>
</g>
<!-- Node4&#45;&gt;Node1 -->
<g id="edge4_Node000001_Node000004" class="edge">
<title>Node4&#45;&gt;Node1</title>
<g id="a_edge4_Node000001_Node000004"><a xlink:title=" ">
<path fill="none" stroke="#63b8ff" d="M143.96,-247.81C146.18,-200.68 149.88,-121.77 152.16,-73.41"/>
<polygon fill="none" stroke="#63b8ff" points="152.15,-73.52 148.44,-67.34 152.71,-61.53 156.43,-67.71 152.15,-73.52"/>
</a>
</g>
<text text-anchor="start" x="153.09" y="-150.5" font-family="Helvetica,sans-Serif" font-size="10.00" fill="grey">+shape</text>
</g>
<!-- Node4&#45;&gt;Node2 -->
<g id="edge3_Node000002_Node000004" class="edge">
<title>Node4&#45;&gt;Node2</title>
<g id="a_edge3_Node000002_Node000004"><a xlink:title=" ">
<path fill="none" stroke="#63b8ff" d="M113.32,-247.8C109.31,-241.85 105.38,-235.71 101.88,-229.75 97.09,-221.6 92.39,-212.7 88.06,-203.99"/>
<polygon fill="none" stroke="#63b8ff" points="88.03,-203.93 81.81,-200.27 82.8,-193.13 89.01,-196.79 88.03,-203.93"/>
</a>
</g>
<text text-anchor="start" x="104.88" y="-217.25" font-family="Helvetica,sans-Serif" font-size="10.00" fill="grey">+shape</text>
</g>
<!-- Node5 -->
<g id="Node000005" class="node">
<title>Node5</title>
<g id="a_Node000005"><a xlink:href="structTTL__offset__t.html" target="_top" xlink:title="Description of the 3D offset of an object.">
<polygon fill="white" stroke="none" points="273.88,-194.5 210.38,-194.5 210.38,-114.25 273.88,-114.25 273.88,-194.5"/>
<text text-anchor="start" x="214.38" y="-181" font-family="Helvetica,sans-Serif" font-size="10.00">TTL_offset_t</text>
<text text-anchor="start" x="224.62" y="-165.75" font-family="Helvetica,sans-Serif" font-size="10.00">+</text>
<text text-anchor="start" x="244.88" y="-165.75" font-family="Helvetica,sans-Serif" font-size="10.00">x</text>
<text text-anchor="start" x="224.62" y="-150.5" font-family="Helvetica,sans-Serif" font-size="10.00">+</text>
<text text-anchor="start" x="244.88" y="-150.5" font-family="Helvetica,sans-Serif" font-size="10.00">y</text>
<text text-anchor="start" x="224.62" y="-135.25" font-family="Helvetica,sans-Serif" font-size="10.00">+</text>
<text text-anchor="start" x="244.88" y="-135.25" font-family="Helvetica,sans-Serif" font-size="10.00">z</text>
<text text-anchor="start" x="240.62" y="-120" font-family="Helvetica,sans-Serif" font-size="10.00"> </text>
<polygon fill="#666666" stroke="#666666" points="210.38,-177.25 210.38,-177.25 273.88,-177.25 273.88,-177.25 210.38,-177.25"/>
<polygon fill="#666666" stroke="#666666" points="210.38,-131.5 210.38,-131.5 242.88,-131.5 242.88,-131.5 210.38,-131.5"/>
<polygon fill="#666666" stroke="#666666" points="242.88,-131.5 242.88,-131.5 273.88,-131.5 273.88,-131.5 242.88,-131.5"/>
<polygon fill="none" stroke="#666666" points="210.38,-114.25 210.38,-194.5 273.88,-194.5 273.88,-114.25 210.38,-114.25"/>
</a>
</g>
</g>
<!-- Node5&#45;&gt;Node1 -->
<g id="edge5_Node000001_Node000005" class="edge">
<title>Node5&#45;&gt;Node1</title>
<g id="a_edge5_Node000001_Node000005"><a xlink:title=" ">
<path fill="none" stroke="#63b8ff" d="M214.04,-114.48C204.02,-100.6 192.72,-84.96 182.67,-71.03"/>
<polygon fill="none" stroke="#63b8ff" points="182.81,-71.23 176.05,-68.7 175.78,-61.5 182.54,-64.02 182.81,-71.23"/>
</a>
</g>
<text text-anchor="start" x="203.76" y="-83.75" font-family="Helvetica,sans-Serif" font-size="10.00" fill="grey">+sub_offset</text>
</g>
</g>
</svg>
