<?xml version="1.0" encoding="UTF-8" standalone="no"?>
<!DOCTYPE svg PUBLIC "-//W3C//DTD SVG 1.1//EN"
 "http://www.w3.org/Graphics/SVG/1.1/DTD/svg11.dtd">
<!-- Generated by graphviz version 12.2.1 (20241206.2353)
 -->
<!-- Title: TTL_const_ext_ulong_tensor_t Pages: 1 -->
<svg width="172pt" height="218pt"
 viewBox="0.00 0.00 172.00 217.75" xmlns="http://www.w3.org/2000/svg" xmlns:xlink="http://www.w3.org/1999/xlink">
<g id="graph0" class="graph" transform="scale(1 1) rotate(0) translate(4 213.75)">
<title>TTL_const_ext_ulong_tensor_t</title>
<!-- Node1 -->
<g id="Node000001" class="node">
<title>Node1</title>
<g id="a_Node000001"><a xlink:title=" ">
<polygon fill="#999999" stroke="none" points="136,-76.25 34.25,-76.25 34.25,0 136,0 136,-76.25"/>
<text text-anchor="start" x="38.25" y="-62.75" font-family="Helvetica,sans-Serif" font-size="10.00">TTL_const_ext_ulong</text>
<text text-anchor="start" x="64.88" y="-51.5" font-family="Helvetica,sans-Serif" font-size="10.00">_tensor_t</text>
<text text-anchor="start" x="48.31" y="-36.25" font-family="Helvetica,sans-Serif" font-size="10.00">+</text>
<text text-anchor="start" x="68.38" y="-36.25" font-family="Helvetica,sans-Serif" font-size="10.00">base</text>
<text text-anchor="start" x="48.31" y="-21" font-family="Helvetica,sans-Serif" font-size="10.00">+</text>
<text text-anchor="start" x="68.38" y="-21" font-family="Helvetica,sans-Serif" font-size="10.00">elem_size</text>
<text text-anchor="start" x="83.62" y="-5.75" font-family="Helvetica,sans-Serif" font-size="10.00"> </text>
<polygon fill="#666666" stroke="#666666" points="34.25,-47.75 34.25,-47.75 136,-47.75 136,-47.75 34.25,-47.75"/>
<polygon fill="#666666" stroke="#666666" points="34.25,-17.25 34.25,-17.25 66.38,-17.25 66.38,-17.25 34.25,-17.25"/>
<polygon fill="#666666" stroke="#666666" points="66.38,-17.25 66.38,-17.25 136,-17.25 136,-17.25 66.38,-17.25"/>
<polygon fill="none" stroke="#666666" points="34.25,0 34.25,-76.25 136,-76.25 136,0 34.25,0"/>
</a>
</g>
</g>
<!-- Node2 -->
<g id="Node000002" class="node">
<title>Node2</title>
<g id="a_Node000002"><a xlink:href="structTTL__layout__t.html" target="_top" xlink:title="Description of a Tensor layout in memory.">
<polygon fill="white" stroke="none" points="80.25,-202.12 0,-202.12 0,-137.12 80.25,-137.12 80.25,-202.12"/>
<text text-anchor="start" x="11.62" y="-188.62" font-family="Helvetica,sans-Serif" font-size="10.00">TTL_layout_t</text>
<text text-anchor="start" x="4" y="-173.38" font-family="Helvetica,sans-Serif" font-size="10.00">+</text>
<text text-anchor="start" x="14" y="-173.38" font-family="Helvetica,sans-Serif" font-size="10.00">row_spacing</text>
<text text-anchor="start" x="4" y="-158.12" font-family="Helvetica,sans-Serif" font-size="10.00">+</text>
<text text-anchor="start" x="14" y="-158.12" font-family="Helvetica,sans-Serif" font-size="10.00">plane_spacing</text>
<text text-anchor="start" x="38.62" y="-142.88" font-family="Helvetica,sans-Serif" font-size="10.00"> </text>
<polygon fill="#666666" stroke="#666666" points="0,-184.88 0,-184.88 80.25,-184.88 80.25,-184.88 0,-184.88"/>
<polygon fill="#666666" stroke="#666666" points="0,-154.38 0,-154.38 12,-154.38 12,-154.38 0,-154.38"/>
<polygon fill="#666666" stroke="#666666" points="12,-154.38 12,-154.38 80.25,-154.38 80.25,-154.38 12,-154.38"/>
<polygon fill="none" stroke="#666666" points="0,-137.12 0,-202.12 80.25,-202.12 80.25,-137.12 0,-137.12"/>
</a>
</g>
</g>
<!-- Node2&#45;&gt;Node1 -->
<g id="edge1_Node000001_Node000002" class="edge">
<title>Node2&#45;&gt;Node1</title>
<g id="a_edge1_Node000001_Node000002"><a xlink:title=" ">
<path fill="none" stroke="#63b8ff" d="M51.02,-137.28C56.12,-122.6 62.31,-104.78 68.01,-88.36"/>
<polygon fill="none" stroke="#63b8ff" points="68.02,-88.35 66.21,-81.37 71.96,-77.02 73.77,-84 68.02,-88.35"/>
</a>
</g>
<text text-anchor="start" x="68.32" y="-99" font-family="Helvetica,sans-Serif" font-size="10.00" fill="grey">+layout</text>
</g>
<!-- Node3 -->
<g id="Node000003" class="node">
<title>Node3</title>
<g id="a_Node000003"><a xlink:href="structTTL__shape__t.html" target="_top" xlink:title="Description of a Shape.">
<polygon fill="white" stroke="none" points="164,-209.75 98.25,-209.75 98.25,-129.5 164,-129.5 164,-209.75"/>
<text text-anchor="start" x="102.25" y="-196.25" font-family="Helvetica,sans-Serif" font-size="10.00">TTL_shape_t</text>
<text text-anchor="start" x="107.62" y="-181" font-family="Helvetica,sans-Serif" font-size="10.00">+</text>
<text text-anchor="start" x="123" y="-181" font-family="Helvetica,sans-Serif" font-size="10.00">width</text>
<text text-anchor="start" x="107.62" y="-165.75" font-family="Helvetica,sans-Serif" font-size="10.00">+</text>
<text text-anchor="start" x="123" y="-165.75" font-family="Helvetica,sans-Serif" font-size="10.00">height</text>
<text text-anchor="start" x="107.62" y="-150.5" font-family="Helvetica,sans-Serif" font-size="10.00">+</text>
<text text-anchor="start" x="123" y="-150.5" font-family="Helvetica,sans-Serif" font-size="10.00">depth</text>
<text text-anchor="start" x="129.62" y="-135.25" font-family="Helvetica,sans-Serif" font-size="10.00"> </text>
<polygon fill="#666666" stroke="#666666" points="98.25,-192.5 98.25,-192.5 164,-192.5 164,-192.5 98.25,-192.5"/>
<polygon fill="#666666" stroke="#666666" points="98.25,-146.75 98.25,-146.75 121,-146.75 121,-146.75 98.25,-146.75"/>
<polygon fill="#666666" stroke="#666666" points="121,-146.75 121,-146.75 164,-146.75 164,-146.75 121,-146.75"/>
<polygon fill="none" stroke="#666666" points="98.25,-129.5 98.25,-209.75 164,-209.75 164,-129.5 98.25,-129.5"/>
</a>
</g>
</g>
<!-- Node3&#45;&gt;Node1 -->
<g id="edge2_Node000001_Node000003" class="edge">
<title>Node3&#45;&gt;Node1</title>
<g id="a_edge2_Node000001_Node000003"><a xlink:title=" ">
<path fill="none" stroke="#63b8ff" d="M119.16,-129.85C115.46,-118.34 111.27,-105.74 107.12,-94.25 106.39,-92.22 105.63,-90.15 104.85,-88.06"/>
<polygon fill="none" stroke="#63b8ff" points="104.87,-88.11 98.99,-83.93 100.59,-76.9 106.46,-81.08 104.87,-88.11"/>
</a>
</g>
<text text-anchor="start" x="115.76" y="-99" font-family="Helvetica,sans-Serif" font-size="10.00" fill="grey">+shape</text>
</g>
</g>
</svg>
