<?xml version="1.0" encoding="UTF-8" standalone="no"?>
<!DOCTYPE svg PUBLIC "-//W3C//DTD SVG 1.1//EN"
 "http://www.w3.org/Graphics/SVG/1.1/DTD/svg11.dtd">
<!-- Generated by graphviz version 12.2.1 (20241206.2353)
 -->
<!-- Title: TTL_export_double_const_ushort_tensor_buffering_t Pages: 1 -->
<svg width="263pt" height="382pt"
 viewBox="0.00 0.00 262.88 381.75" xmlns="http://www.w3.org/2000/svg" xmlns:xlink="http://www.w3.org/1999/xlink">
<g id="graph0" class="graph" transform="scale(1 1) rotate(0) translate(4 377.75)">
<title>TTL_export_double_const_ushort_tensor_buffering_t</title>
<!-- Node1 -->
<g id="Node000001" class="node">
<title>Node1</title>
<g id="a_Node000001"><a xlink:title="Data required to perform double buffer pipelining.">
<polygon fill="#999999" stroke="none" points="192.5,-106.75 69.75,-106.75 69.75,0 192.5,0 192.5,-106.75"/>
<text text-anchor="start" x="73.75" y="-93.25" font-family="Helvetica,sans-Serif" font-size="10.00">TTL_export_double_const</text>
<text text-anchor="start" x="73.75" y="-82" font-family="Helvetica,sans-Serif" font-size="10.00">_ushort_tensor_buffering_t</text>
<text text-anchor="start" x="90.56" y="-66.75" font-family="Helvetica,sans-Serif" font-size="10.00">+</text>
<text text-anchor="start" x="117.38" y="-66.75" font-family="Helvetica,sans-Serif" font-size="10.00">index</text>
<text text-anchor="start" x="90.56" y="-51.5" font-family="Helvetica,sans-Serif" font-size="10.00">+</text>
<text text-anchor="start" x="117.38" y="-51.5" font-family="Helvetica,sans-Serif" font-size="10.00">int_base</text>
<text text-anchor="start" x="90.56" y="-36.25" font-family="Helvetica,sans-Serif" font-size="10.00">+</text>
<text text-anchor="start" x="117.38" y="-36.25" font-family="Helvetica,sans-Serif" font-size="10.00">common</text>
<text text-anchor="start" x="90.56" y="-21" font-family="Helvetica,sans-Serif" font-size="10.00">+</text>
<text text-anchor="start" x="117.38" y="-21" font-family="Helvetica,sans-Serif" font-size="10.00">event</text>
<text text-anchor="start" x="129.62" y="-5.75" font-family="Helvetica,sans-Serif" font-size="10.00"> </text>
<polygon fill="#666666" stroke="#666666" points="69.75,-78.25 69.75,-78.25 192.5,-78.25 192.5,-78.25 69.75,-78.25"/>
<polygon fill="#666666" stroke="#666666" points="69.75,-17.25 69.75,-17.25 115.38,-17.25 115.38,-17.25 69.75,-17.25"/>
<polygon fill="#666666" stroke="#666666" points="115.38,-17.25 115.38,-17.25 192.5,-17.25 192.5,-17.25 115.38,-17.25"/>
<polygon fill="none" stroke="#666666" points="69.75,0 69.75,-106.75 192.5,-106.75 192.5,0 69.75,0"/>
</a>
</g>
</g>
<!-- Node2 -->
<g id="Node000002" class="node">
<title>Node2</title>
<g id="a_Node000002"><a xlink:href="structTTL__ext__ushort__tensor__t.html" target="_top" xlink:title="const and non&#45;const tensors in the appropriate address space">
<polygon fill="white" stroke="none" points="138.5,-240.25 21.75,-240.25 21.75,-175.25 138.5,-175.25 138.5,-240.25"/>
<text text-anchor="start" x="25.75" y="-226.75" font-family="Helvetica,sans-Serif" font-size="10.00">TTL_ext_ushort_tensor_t</text>
<text text-anchor="start" x="39.56" y="-211.5" font-family="Helvetica,sans-Serif" font-size="10.00">+</text>
<text text-anchor="start" x="63.38" y="-211.5" font-family="Helvetica,sans-Serif" font-size="10.00">base</text>
<text text-anchor="start" x="39.56" y="-196.25" font-family="Helvetica,sans-Serif" font-size="10.00">+</text>
<text text-anchor="start" x="63.38" y="-196.25" font-family="Helvetica,sans-Serif" font-size="10.00">elem_size</text>
<text text-anchor="start" x="78.62" y="-181" font-family="Helvetica,sans-Serif" font-size="10.00"> </text>
<polygon fill="#666666" stroke="#666666" points="21.75,-223 21.75,-223 138.5,-223 138.5,-223 21.75,-223"/>
<polygon fill="#666666" stroke="#666666" points="21.75,-192.5 21.75,-192.5 61.38,-192.5 61.38,-192.5 21.75,-192.5"/>
<polygon fill="#666666" stroke="#666666" points="61.38,-192.5 61.38,-192.5 138.5,-192.5 138.5,-192.5 61.38,-192.5"/>
<polygon fill="none" stroke="#666666" points="21.75,-175.25 21.75,-240.25 138.5,-240.25 138.5,-175.25 21.75,-175.25"/>
</a>
</g>
</g>
<!-- Node2&#45;&gt;Node1 -->
<g id="edge1_Node000001_Node000002" class="edge">
<title>Node2&#45;&gt;Node1</title>
<g id="a_edge1_Node000001_Node000002"><a xlink:title=" ">
<path fill="none" stroke="#63b8ff" d="M77.9,-175.27C77.76,-159.71 79.05,-140.86 84.38,-124.75 85.07,-122.64 85.85,-120.54 86.69,-118.45"/>
<polygon fill="none" stroke="#63b8ff" points="86.76,-118.31 85.67,-111.18 91.83,-107.44 92.92,-114.57 86.76,-118.31"/>
</a>
</g>
<text text-anchor="start" x="87.38" y="-144.75" font-family="Helvetica,sans-Serif" font-size="10.00" fill="grey">+ext_tensor_in</text>
<text text-anchor="start" x="87.38" y="-129.5" font-family="Helvetica,sans-Serif" font-size="10.00" fill="grey">+ext_tensor_out</text>
</g>
<!-- Node3 -->
<g id="Node000003" class="node">
<title>Node3</title>
<g id="a_Node000003"><a xlink:href="structTTL__layout__t.html" target="_top" xlink:title="Description of a Tensor layout in memory.">
<polygon fill="white" stroke="none" points="80.25,-366.12 0,-366.12 0,-301.12 80.25,-301.12 80.25,-366.12"/>
<text text-anchor="start" x="11.62" y="-352.62" font-family="Helvetica,sans-Serif" font-size="10.00">TTL_layout_t</text>
<text text-anchor="start" x="4" y="-337.38" font-family="Helvetica,sans-Serif" font-size="10.00">+</text>
<text text-anchor="start" x="14" y="-337.38" font-family="Helvetica,sans-Serif" font-size="10.00">row_spacing</text>
<text text-anchor="start" x="4" y="-322.12" font-family="Helvetica,sans-Serif" font-size="10.00">+</text>
<text text-anchor="start" x="14" y="-322.12" font-family="Helvetica,sans-Serif" font-size="10.00">plane_spacing</text>
<text text-anchor="start" x="38.62" y="-306.88" font-family="Helvetica,sans-Serif" font-size="10.00"> </text>
<polygon fill="#666666" stroke="#666666" points="0,-348.88 0,-348.88 80.25,-348.88 80.25,-348.88 0,-348.88"/>
<polygon fill="#666666" stroke="#666666" points="0,-318.38 0,-318.38 12,-318.38 12,-318.38 0,-318.38"/>
<polygon fill="#666666" stroke="#666666" points="12,-318.38 12,-318.38 80.25,-318.38 80.25,-318.38 12,-318.38"/>
<polygon fill="none" stroke="#666666" points="0,-301.12 0,-366.12 80.25,-366.12 80.25,-301.12 0,-301.12"/>
</a>
</g>
</g>
<!-- Node3&#45;&gt;Node2 -->
<g id="edge2_Node000002_Node000003" class="edge">
<title>Node3&#45;&gt;Node2</title>
<g id="a_edge2_Node000002_Node000003"><a xlink:title=" ">
<path fill="none" stroke="#63b8ff" d="M36.43,-301.44C35.9,-287.82 36.79,-271.88 41.62,-258.25 42.47,-255.86 43.48,-253.5 44.62,-251.18"/>
<polygon fill="none" stroke="#63b8ff" points="44.66,-251.11 44.25,-243.91 50.73,-240.76 51.15,-247.96 44.66,-251.11"/>
</a>
</g>
<text text-anchor="start" x="44.62" y="-263" font-family="Helvetica,sans-Serif" font-size="10.00" fill="grey">+layout</text>
</g>
<!-- Node4 -->
<g id="Node000004" class="node">
<title>Node4</title>
<g id="a_Node000004"><a xlink:href="structTTL__shape__t.html" target="_top" xlink:title="Description of a Shape.">
<polygon fill="white" stroke="none" points="169,-373.75 103.25,-373.75 103.25,-293.5 169,-293.5 169,-373.75"/>
<text text-anchor="start" x="107.25" y="-360.25" font-family="Helvetica,sans-Serif" font-size="10.00">TTL_shape_t</text>
<text text-anchor="start" x="112.62" y="-345" font-family="Helvetica,sans-Serif" font-size="10.00">+</text>
<text text-anchor="start" x="128" y="-345" font-family="Helvetica,sans-Serif" font-size="10.00">width</text>
<text text-anchor="start" x="112.62" y="-329.75" font-family="Helvetica,sans-Serif" font-size="10.00">+</text>
<text text-anchor="start" x="128" y="-329.75" font-family="Helvetica,sans-Serif" font-size="10.00">height</text>
<text text-anchor="start" x="112.62" y="-314.5" font-family="Helvetica,sans-Serif" font-size="10.00">+</text>
<text text-anchor="start" x="128" y="-314.5" font-family="Helvetica,sans-Serif" font-size="10.00">depth</text>
<text text-anchor="start" x="134.62" y="-299.25" font-family="Helvetica,sans-Serif" font-size="10.00"> </text>
<polygon fill="#666666" stroke="#666666" points="103.25,-356.5 103.25,-356.5 169,-356.5 169,-356.5 103.25,-356.5"/>
<polygon fill="#666666" stroke="#666666" points="103.25,-310.75 103.25,-310.75 126,-310.75 126,-310.75 103.25,-310.75"/>
<polygon fill="#666666" stroke="#666666" points="126,-310.75 126,-310.75 169,-310.75 169,-310.75 126,-310.75"/>
<polygon fill="none" stroke="#666666" points="103.25,-293.5 103.25,-373.75 169,-373.75 169,-293.5 103.25,-293.5"/>
</a>
</g>
</g>
<!-- Node4&#45;&gt;Node2 -->
<g id="edge3_Node000002_Node000004" class="edge">
<title>Node4&#45;&gt;Node2</title>
<g id="a_edge3_Node000002_Node000004"><a xlink:title=" ">
<path fill="none" stroke="#63b8ff" d="M118.56,-293.77C112.51,-280.38 105.69,-265.31 99.5,-251.62"/>
<polygon fill="none" stroke="#63b8ff" points="99.57,-251.77 93.46,-247.95 94.63,-240.84 100.75,-244.66 99.57,-251.77"/>
</a>
</g>
<text text-anchor="start" x="112.8" y="-263" font-family="Helvetica,sans-Serif" font-size="10.00" fill="grey">+shape</text>
</g>
<!-- Node5 -->
<g id="Node000005" class="node">
<title>Node5</title>
<g id="a_Node000005"><a xlink:href="structTTL__tile__t.html" target="_top" xlink:title=" ">
<polygon fill="white" stroke="none" points="209.25,-232.62 157,-232.62 157,-182.88 209.25,-182.88 209.25,-232.62"/>
<text text-anchor="start" x="161" y="-219.12" font-family="Helvetica,sans-Serif" font-size="10.00">TTL_tile_t</text>
<text text-anchor="start" x="181.62" y="-203.88" font-family="Helvetica,sans-Serif" font-size="10.00"> </text>
<text text-anchor="start" x="181.62" y="-188.62" font-family="Helvetica,sans-Serif" font-size="10.00"> </text>
<polygon fill="#666666" stroke="#666666" points="157,-215.38 157,-215.38 209.25,-215.38 209.25,-215.38 157,-215.38"/>
<polygon fill="#666666" stroke="#666666" points="157,-200.12 157,-200.12 209.25,-200.12 209.25,-200.12 157,-200.12"/>
<polygon fill="none" stroke="#666666" points="157,-182.88 157,-232.62 209.25,-232.62 209.25,-182.88 157,-182.88"/>
</a>
</g>
</g>
<!-- Node4&#45;&gt;Node5 -->
<g id="edge5_Node000005_Node000004" class="edge">
<title>Node4&#45;&gt;Node5</title>
<g id="a_edge5_Node000005_Node000004"><a xlink:title=" ">
<path fill="none" stroke="#63b8ff" d="M146.78,-293.62C150.27,-282.1 154.41,-269.55 158.88,-258.25 160.72,-253.58 162.83,-248.74 165.02,-244"/>
<polygon fill="none" stroke="#63b8ff" points="164.92,-244.2 163.91,-237.06 170.11,-233.39 171.12,-240.53 164.92,-244.2"/>
</a>
</g>
<text text-anchor="start" x="161.88" y="-263" font-family="Helvetica,sans-Serif" font-size="10.00" fill="grey">+shape</text>
</g>
<!-- Node5&#45;&gt;Node1 -->
<g id="edge4_Node000001_Node000005" class="edge">
<title>Node5&#45;&gt;Node1</title>
<g id="a_edge4_Node000001_Node000005"><a xlink:title=" ">
<path fill="none" stroke="#63b8ff" d="M177.3,-183.2C173.03,-166.68 166.83,-144.18 160.12,-124.75 159.41,-122.69 158.67,-120.6 157.91,-118.5"/>
<polygon fill="none" stroke="#63b8ff" points="157.9,-118.45 152.04,-114.25 153.67,-107.22 159.53,-111.43 157.9,-118.45"/>
</a>
</g>
<text text-anchor="start" x="172.9" y="-137.12" font-family="Helvetica,sans-Serif" font-size="10.00" fill="grey">+prev_tile</text>
</g>
<!-- Node6 -->
<g id="Node000006" class="node">
<title>Node6</title>
<g id="a_Node000006"><a xlink:href="structTTL__offset__t.html" target="_top" xlink:title="Description of the 3D offset of an object.">
<polygon fill="white" stroke="none" points="254.88,-373.75 191.38,-373.75 191.38,-293.5 254.88,-293.5 254.88,-373.75"/>
<text text-anchor="start" x="195.38" y="-360.25" font-family="Helvetica,sans-Serif" font-size="10.00">TTL_offset_t</text>
<text text-anchor="start" x="205.62" y="-345" font-family="Helvetica,sans-Serif" font-size="10.00">+</text>
<text text-anchor="start" x="225.88" y="-345" font-family="Helvetica,sans-Serif" font-size="10.00">x</text>
<text text-anchor="start" x="205.62" y="-329.75" font-family="Helvetica,sans-Serif" font-size="10.00">+</text>
<text text-anchor="start" x="225.88" y="-329.75" font-family="Helvetica,sans-Serif" font-size="10.00">y</text>
<text text-anchor="start" x="205.62" y="-314.5" font-family="Helvetica,sans-Serif" font-size="10.00">+</text>
<text text-anchor="start" x="225.88" y="-314.5" font-family="Helvetica,sans-Serif" font-size="10.00">z</text>
<text text-anchor="start" x="221.62" y="-299.25" font-family="Helvetica,sans-Serif" font-size="10.00"> </text>
<polygon fill="#666666" stroke="#666666" points="191.38,-356.5 191.38,-356.5 254.88,-356.5 254.88,-356.5 191.38,-356.5"/>
<polygon fill="#666666" stroke="#666666" points="191.38,-310.75 191.38,-310.75 223.88,-310.75 223.88,-310.75 191.38,-310.75"/>
<polygon fill="#666666" stroke="#666666" points="223.88,-310.75 223.88,-310.75 254.88,-310.75 254.88,-310.75 223.88,-310.75"/>
<polygon fill="none" stroke="#666666" points="191.38,-293.5 191.38,-373.75 254.88,-373.75 254.88,-293.5 191.38,-293.5"/>
</a>
</g>
</g>
<!-- Node6&#45;&gt;Node5 -->
<g id="edge6_Node000005_Node000006" class="edge">
<title>Node6&#45;&gt;Node5</title>
<g id="a_edge6_Node000005_Node000006"><a xlink:title=" ">
<path fill="none" stroke="#63b8ff" d="M212.15,-293.88C208.76,-282.37 204.92,-269.76 201.12,-258.25 199.64,-253.73 198.01,-249 196.36,-244.33"/>
<polygon fill="none" stroke="#63b8ff" points="196.4,-244.45 190.6,-240.16 192.33,-233.16 198.13,-237.45 196.4,-244.45"/>
</a>
</g>
<text text-anchor="start" x="209.29" y="-263" font-family="Helvetica,sans-Serif" font-size="10.00" fill="grey">+offset</text>
</g>
</g>
</svg>
