<?xml version="1.0" encoding="UTF-8" standalone="no"?>
<!DOCTYPE svg PUBLIC "-//W3C//DTD SVG 1.1//EN"
 "http://www.w3.org/Graphics/SVG/1.1/DTD/svg11.dtd">
<!-- Generated by graphviz version 12.2.1 (20241206.2353)
 -->
<!-- Title: TTL_duplex_buffering&lt; TENSORTYPE &gt; Pages: 1 -->
<svg width="130pt" height="321pt"
 viewBox="0.00 0.00 129.50 320.50" xmlns="http://www.w3.org/2000/svg" xmlns:xlink="http://www.w3.org/1999/xlink">
<g id="graph0" class="graph" transform="scale(1 1) rotate(0) translate(4 316.5)">
<title>TTL_duplex_buffering&lt; TENSORTYPE &gt;</title>
<!-- Node1 -->
<g id="Node000001" class="node">
<title>Node1</title>
<g id="a_Node000001"><a xlink:title="Data required to perform duplex buffer pipelining.">
<polygon fill="#999999" stroke="none" points="117,-167.75 0,-167.75 0,0 117,0 117,-167.75"/>
<text text-anchor="start" x="12" y="-154.25" font-family="Helvetica,sans-Serif" font-size="10.00">TTL_duplex_buffering</text>
<text text-anchor="start" x="17.25" y="-143" font-family="Helvetica,sans-Serif" font-size="10.00">&lt; TENSORTYPE &gt;</text>
<text text-anchor="start" x="4" y="-127.75" font-family="Helvetica,sans-Serif" font-size="10.00">+</text>
<text text-anchor="start" x="14" y="-127.75" font-family="Helvetica,sans-Serif" font-size="10.00">m_events</text>
<text text-anchor="start" x="4" y="-112.5" font-family="Helvetica,sans-Serif" font-size="10.00">+</text>
<text text-anchor="start" x="14" y="-112.5" font-family="Helvetica,sans-Serif" font-size="10.00">to_export_to</text>
<text text-anchor="start" x="4" y="-97.25" font-family="Helvetica,sans-Serif" font-size="10.00">+</text>
<text text-anchor="start" x="14" y="-97.25" font-family="Helvetica,sans-Serif" font-size="10.00">to_export_from</text>
<text text-anchor="start" x="4" y="-82" font-family="Helvetica,sans-Serif" font-size="10.00">+</text>
<text text-anchor="start" x="14" y="-82" font-family="Helvetica,sans-Serif" font-size="10.00">m_prev_out_tensors</text>
<text text-anchor="start" x="4" y="-66.75" font-family="Helvetica,sans-Serif" font-size="10.00">+</text>
<text text-anchor="start" x="14" y="-66.75" font-family="Helvetica,sans-Serif" font-size="10.00">IMPORT_BUFFER</text>
<text text-anchor="start" x="4" y="-51.5" font-family="Helvetica,sans-Serif" font-size="10.00">+</text>
<text text-anchor="start" x="14" y="-51.5" font-family="Helvetica,sans-Serif" font-size="10.00">EXPORT_BUFFER</text>
<text text-anchor="start" x="4" y="-36.25" font-family="Helvetica,sans-Serif" font-size="10.00">+</text>
<text text-anchor="start" x="14" y="-36.25" font-family="Helvetica,sans-Serif" font-size="10.00">TTL_duplex_buffering()</text>
<text text-anchor="start" x="4" y="-21" font-family="Helvetica,sans-Serif" font-size="10.00">+</text>
<text text-anchor="start" x="14" y="-21" font-family="Helvetica,sans-Serif" font-size="10.00">step_buffering()</text>
<text text-anchor="start" x="4" y="-5.75" font-family="Helvetica,sans-Serif" font-size="10.00">+</text>
<text text-anchor="start" x="14" y="-5.75" font-family="Helvetica,sans-Serif" font-size="10.00">finish_buffering()</text>
<polygon fill="#666666" stroke="#666666" points="0,-139.25 0,-139.25 117,-139.25 117,-139.25 0,-139.25"/>
<polygon fill="#666666" stroke="#666666" points="0,-47.75 0,-47.75 12,-47.75 12,-47.75 0,-47.75"/>
<polygon fill="#666666" stroke="#666666" points="12,-47.75 12,-47.75 117,-47.75 117,-47.75 12,-47.75"/>
<polygon fill="none" stroke="#666666" points="0,0 0,-167.75 117,-167.75 117,0 0,0"/>
</a>
</g>
</g>
<!-- Node2 -->
<g id="Node000002" class="node">
<title>Node2</title>
<g id="a_Node000002"><a xlink:href="structTTL__common__buffering.html" target="_top" xlink:title=" ">
<polygon fill="white" stroke="none" points="113.88,-312.5 3.12,-312.5 3.12,-221 113.88,-221 113.88,-312.5"/>
<text text-anchor="start" x="7.12" y="-299" font-family="Helvetica,sans-Serif" font-size="10.00">TTL_common_buffering</text>
<text text-anchor="start" x="12" y="-287.75" font-family="Helvetica,sans-Serif" font-size="10.00">&lt; TENSORTYPE, 2 &gt;</text>
<text text-anchor="start" x="14.38" y="-272.5" font-family="Helvetica,sans-Serif" font-size="10.00">+</text>
<text text-anchor="start" x="31.62" y="-272.5" font-family="Helvetica,sans-Serif" font-size="10.00">index</text>
<text text-anchor="start" x="14.38" y="-257.25" font-family="Helvetica,sans-Serif" font-size="10.00">+</text>
<text text-anchor="start" x="31.62" y="-257.25" font-family="Helvetica,sans-Serif" font-size="10.00">ext_tensor_in</text>
<text text-anchor="start" x="14.38" y="-242" font-family="Helvetica,sans-Serif" font-size="10.00">+</text>
<text text-anchor="start" x="31.62" y="-242" font-family="Helvetica,sans-Serif" font-size="10.00">ext_tensor_out</text>
<text text-anchor="start" x="14.38" y="-226.75" font-family="Helvetica,sans-Serif" font-size="10.00">+</text>
<text text-anchor="start" x="31.62" y="-226.75" font-family="Helvetica,sans-Serif" font-size="10.00">TTL_local()</text>
<polygon fill="#666666" stroke="#666666" points="3.12,-284 3.12,-284 113.88,-284 113.88,-284 3.12,-284"/>
<polygon fill="#666666" stroke="#666666" points="3.12,-238.25 3.12,-238.25 29.62,-238.25 29.62,-238.25 3.12,-238.25"/>
<polygon fill="#666666" stroke="#666666" points="29.62,-238.25 29.62,-238.25 113.88,-238.25 113.88,-238.25 29.62,-238.25"/>
<polygon fill="none" stroke="#666666" points="3.12,-221 3.12,-312.5 113.88,-312.5 113.88,-221 3.12,-221"/>
</a>
</g>
</g>
<!-- Node2&#45;&gt;Node1 -->
<g id="edge1_Node000001_Node000002" class="edge">
<title>Node2&#45;&gt;Node1</title>
<g id="a_edge1_Node000001_Node000002"><a xlink:title=" ">
<path fill="none" stroke="#63b8ff" d="M58.5,-221.04C58.5,-208.62 58.5,-194.65 58.5,-180.51"/>
<polygon fill="none" stroke="#63b8ff" points="58.5,-180.41 54.5,-174.41 58.5,-168.41 62.5,-174.41 58.5,-180.41"/>
</a>
</g>
<text text-anchor="start" x="61.5" y="-190.5" font-family="Helvetica,sans-Serif" font-size="10.00" fill="grey">+m_common</text>
</g>
</g>
</svg>
