<?xml version="1.0" encoding="UTF-8" standalone="no"?>
<!DOCTYPE svg PUBLIC "-//W3C//DTD SVG 1.1//EN"
 "http://www.w3.org/Graphics/SVG/1.1/DTD/svg11.dtd">
<!-- Generated by graphviz version 12.2.1 (20241206.2353)
 -->
<!-- Title: TTL_simplex_const_uint_tensor_buffering_t Pages: 1 -->
<svg width="465pt" height="500pt"
 viewBox="0.00 0.00 465.19 500.00" xmlns="http://www.w3.org/2000/svg" xmlns:xlink="http://www.w3.org/1999/xlink">
<g id="graph0" class="graph" transform="scale(1 1) rotate(0) translate(4 496)">
<title>TTL_simplex_const_uint_tensor_buffering_t</title>
<!-- Node1 -->
<g id="Node000001" class="node">
<title>Node1</title>
<g id="a_Node000001"><a xlink:title=" ">
<polygon fill="#999999" stroke="none" points="320,-122 205.5,-122 205.5,0 320,0 320,-122"/>
<text text-anchor="start" x="209.5" y="-108.5" font-family="Helvetica,sans-Serif" font-size="10.00">TTL_simplex_const_uint</text>
<text text-anchor="start" x="221.5" y="-97.25" font-family="Helvetica,sans-Serif" font-size="10.00">_tensor_buffering_t</text>
<text text-anchor="start" x="222.94" y="-82" font-family="Helvetica,sans-Serif" font-size="10.00">+</text>
<text text-anchor="start" x="246.38" y="-82" font-family="Helvetica,sans-Serif" font-size="10.00">index</text>
<text text-anchor="start" x="222.94" y="-66.75" font-family="Helvetica,sans-Serif" font-size="10.00">+</text>
<text text-anchor="start" x="246.38" y="-66.75" font-family="Helvetica,sans-Serif" font-size="10.00">int_base</text>
<text text-anchor="start" x="222.94" y="-51.5" font-family="Helvetica,sans-Serif" font-size="10.00">+</text>
<text text-anchor="start" x="246.38" y="-51.5" font-family="Helvetica,sans-Serif" font-size="10.00">common</text>
<text text-anchor="start" x="222.94" y="-36.25" font-family="Helvetica,sans-Serif" font-size="10.00">+</text>
<text text-anchor="start" x="246.38" y="-36.25" font-family="Helvetica,sans-Serif" font-size="10.00">event_in</text>
<text text-anchor="start" x="222.94" y="-21" font-family="Helvetica,sans-Serif" font-size="10.00">+</text>
<text text-anchor="start" x="246.38" y="-21" font-family="Helvetica,sans-Serif" font-size="10.00">event_out</text>
<text text-anchor="start" x="261.25" y="-5.75" font-family="Helvetica,sans-Serif" font-size="10.00"> </text>
<polygon fill="#666666" stroke="#666666" points="205.5,-93.5 205.5,-93.5 320,-93.5 320,-93.5 205.5,-93.5"/>
<polygon fill="#666666" stroke="#666666" points="205.5,-17.25 205.5,-17.25 244.38,-17.25 244.38,-17.25 205.5,-17.25"/>
<polygon fill="#666666" stroke="#666666" points="244.38,-17.25 244.38,-17.25 320,-17.25 320,-17.25 244.38,-17.25"/>
<polygon fill="none" stroke="#666666" points="205.5,0 205.5,-122 320,-122 320,0 205.5,0"/>
</a>
</g>
</g>
<!-- Node2 -->
<g id="Node000002" class="node">
<title>Node2</title>
<g id="a_Node000002"><a xlink:href="structTTL__ext__uint__tensor__t.html" target="_top" xlink:title="const and non&#45;const tensors in the appropriate address space">
<polygon fill="white" stroke="none" points="105.5,-350.88 0,-350.88 0,-285.88 105.5,-285.88 105.5,-350.88"/>
<text text-anchor="start" x="4" y="-337.38" font-family="Helvetica,sans-Serif" font-size="10.00">TTL_ext_uint_tensor_t</text>
<text text-anchor="start" x="15" y="-322.12" font-family="Helvetica,sans-Serif" font-size="10.00">+</text>
<text text-anchor="start" x="36" y="-322.12" font-family="Helvetica,sans-Serif" font-size="10.00">base</text>
<text text-anchor="start" x="15" y="-306.88" font-family="Helvetica,sans-Serif" font-size="10.00">+</text>
<text text-anchor="start" x="36" y="-306.88" font-family="Helvetica,sans-Serif" font-size="10.00">elem_size</text>
<text text-anchor="start" x="51.25" y="-291.62" font-family="Helvetica,sans-Serif" font-size="10.00"> </text>
<polygon fill="#666666" stroke="#666666" points="0,-333.62 0,-333.62 105.5,-333.62 105.5,-333.62 0,-333.62"/>
<polygon fill="#666666" stroke="#666666" points="0,-303.12 0,-303.12 34,-303.12 34,-303.12 0,-303.12"/>
<polygon fill="#666666" stroke="#666666" points="34,-303.12 34,-303.12 105.5,-303.12 105.5,-303.12 34,-303.12"/>
<polygon fill="none" stroke="#666666" points="0,-285.88 0,-350.88 105.5,-350.88 105.5,-285.88 0,-285.88"/>
</a>
</g>
</g>
<!-- Node2&#45;&gt;Node1 -->
<g id="edge1_Node000001_Node000002" class="edge">
<title>Node2&#45;&gt;Node1</title>
<g id="a_edge1_Node000001_Node000002"><a xlink:title=" ">
<path fill="none" stroke="#63b8ff" d="M61.77,-285.88C71.6,-255.37 89.55,-208.91 116,-175.25 137.77,-147.55 167.75,-122.83 194.95,-103.61"/>
<polygon fill="none" stroke="#63b8ff" points="194.99,-103.58 197.65,-96.88 204.86,-96.77 202.2,-103.47 194.99,-103.58"/>
</a>
</g>
<text text-anchor="start" x="119" y="-203.88" font-family="Helvetica,sans-Serif" font-size="10.00" fill="grey">+ext_tensor_in</text>
<text text-anchor="start" x="119" y="-188.62" font-family="Helvetica,sans-Serif" font-size="10.00" fill="grey">+ext_tensor_out</text>
</g>
<!-- Node3 -->
<g id="Node000003" class="node">
<title>Node3</title>
<g id="a_Node000003"><a xlink:href="structTTL__layout__t.html" target="_top" xlink:title="Description of a Tensor layout in memory.">
<polygon fill="white" stroke="none" points="138.88,-484.38 58.62,-484.38 58.62,-419.38 138.88,-419.38 138.88,-484.38"/>
<text text-anchor="start" x="70.25" y="-470.88" font-family="Helvetica,sans-Serif" font-size="10.00">TTL_layout_t</text>
<text text-anchor="start" x="62.62" y="-455.62" font-family="Helvetica,sans-Serif" font-size="10.00">+</text>
<text text-anchor="start" x="72.62" y="-455.62" font-family="Helvetica,sans-Serif" font-size="10.00">row_spacing</text>
<text text-anchor="start" x="62.62" y="-440.38" font-family="Helvetica,sans-Serif" font-size="10.00">+</text>
<text text-anchor="start" x="72.62" y="-440.38" font-family="Helvetica,sans-Serif" font-size="10.00">plane_spacing</text>
<text text-anchor="start" x="97.25" y="-425.12" font-family="Helvetica,sans-Serif" font-size="10.00"> </text>
<polygon fill="#666666" stroke="#666666" points="58.62,-467.12 58.62,-467.12 138.88,-467.12 138.88,-467.12 58.62,-467.12"/>
<polygon fill="#666666" stroke="#666666" points="58.62,-436.62 58.62,-436.62 70.62,-436.62 70.62,-436.62 58.62,-436.62"/>
<polygon fill="#666666" stroke="#666666" points="70.62,-436.62 70.62,-436.62 138.88,-436.62 138.88,-436.62 70.62,-436.62"/>
<polygon fill="none" stroke="#666666" points="58.62,-419.38 58.62,-484.38 138.88,-484.38 138.88,-419.38 58.62,-419.38"/>
</a>
</g>
</g>
<!-- Node3&#45;&gt;Node2 -->
<g id="edge2_Node000002_Node000003" class="edge">
<title>Node3&#45;&gt;Node2</title>
<g id="a_edge2_Node000002_Node000003"><a xlink:title=" ">
<path fill="none" stroke="#63b8ff" d="M58.93,-428.38C46.78,-419.32 34.89,-407.69 28.25,-393.75 23.63,-384.07 24.19,-373.29 27.17,-363"/>
<polygon fill="none" stroke="#63b8ff" points="27.22,-362.87 25.62,-355.84 31.5,-351.66 33.1,-358.69 27.22,-362.87"/>
</a>
</g>
<text text-anchor="start" x="31.25" y="-381.25" font-family="Helvetica,sans-Serif" font-size="10.00" fill="grey">+layout</text>
</g>
<!-- Node8 -->
<g id="Node000008" class="node">
<title>Node8</title>
<g id="a_Node000008"><a xlink:href="structTTL__int__uint__tensor__t.html" target="_top" xlink:title="const and non&#45;const tensors in the appropriate address space">
<polygon fill="white" stroke="none" points="226.38,-350.88 123.12,-350.88 123.12,-285.88 226.38,-285.88 226.38,-350.88"/>
<text text-anchor="start" x="127.12" y="-337.38" font-family="Helvetica,sans-Serif" font-size="10.00">TTL_int_uint_tensor_t</text>
<text text-anchor="start" x="137.56" y="-322.12" font-family="Helvetica,sans-Serif" font-size="10.00">+</text>
<text text-anchor="start" x="158" y="-322.12" font-family="Helvetica,sans-Serif" font-size="10.00">base</text>
<text text-anchor="start" x="137.56" y="-306.88" font-family="Helvetica,sans-Serif" font-size="10.00">+</text>
<text text-anchor="start" x="158" y="-306.88" font-family="Helvetica,sans-Serif" font-size="10.00">elem_size</text>
<text text-anchor="start" x="173.25" y="-291.62" font-family="Helvetica,sans-Serif" font-size="10.00"> </text>
<polygon fill="#666666" stroke="#666666" points="123.12,-333.62 123.12,-333.62 226.38,-333.62 226.38,-333.62 123.12,-333.62"/>
<polygon fill="#666666" stroke="#666666" points="123.12,-303.12 123.12,-303.12 156,-303.12 156,-303.12 123.12,-303.12"/>
<polygon fill="#666666" stroke="#666666" points="156,-303.12 156,-303.12 226.38,-303.12 226.38,-303.12 156,-303.12"/>
<polygon fill="none" stroke="#666666" points="123.12,-285.88 123.12,-350.88 226.38,-350.88 226.38,-285.88 123.12,-285.88"/>
</a>
</g>
</g>
<!-- Node3&#45;&gt;Node8 -->
<g id="edge9_Node000008_Node000003" class="edge">
<title>Node3&#45;&gt;Node8</title>
<g id="a_edge9_Node000008_Node000003"><a xlink:title=" ">
<path fill="none" stroke="#63b8ff" d="M116.95,-419.38C126.92,-402.14 139.4,-380.54 150.22,-361.83"/>
<polygon fill="none" stroke="#63b8ff" points="150.24,-361.79 149.78,-354.59 156.24,-351.4 156.7,-358.59 150.24,-361.79"/>
</a>
</g>
<text text-anchor="start" x="144.3" y="-381.25" font-family="Helvetica,sans-Serif" font-size="10.00" fill="grey">+layout</text>
</g>
<!-- Node4 -->
<g id="Node000004" class="node">
<title>Node4</title>
<g id="a_Node000004"><a xlink:href="structTTL__shape__t.html" target="_top" xlink:title="Description of a Shape.">
<polygon fill="white" stroke="none" points="268.62,-492 202.88,-492 202.88,-411.75 268.62,-411.75 268.62,-492"/>
<text text-anchor="start" x="206.88" y="-478.5" font-family="Helvetica,sans-Serif" font-size="10.00">TTL_shape_t</text>
<text text-anchor="start" x="212.25" y="-463.25" font-family="Helvetica,sans-Serif" font-size="10.00">+</text>
<text text-anchor="start" x="227.62" y="-463.25" font-family="Helvetica,sans-Serif" font-size="10.00">width</text>
<text text-anchor="start" x="212.25" y="-448" font-family="Helvetica,sans-Serif" font-size="10.00">+</text>
<text text-anchor="start" x="227.62" y="-448" font-family="Helvetica,sans-Serif" font-size="10.00">height</text>
<text text-anchor="start" x="212.25" y="-432.75" font-family="Helvetica,sans-Serif" font-size="10.00">+</text>
<text text-anchor="start" x="227.62" y="-432.75" font-family="Helvetica,sans-Serif" font-size="10.00">depth</text>
<text text-anchor="start" x="234.25" y="-417.5" font-family="Helvetica,sans-Serif" font-size="10.00"> </text>
<polygon fill="#666666" stroke="#666666" points="202.88,-474.75 202.88,-474.75 268.62,-474.75 268.62,-474.75 202.88,-474.75"/>
<polygon fill="#666666" stroke="#666666" points="202.88,-429 202.88,-429 225.62,-429 225.62,-429 202.88,-429"/>
<polygon fill="#666666" stroke="#666666" points="225.62,-429 225.62,-429 268.62,-429 268.62,-429 225.62,-429"/>
<polygon fill="none" stroke="#666666" points="202.88,-411.75 202.88,-492 268.62,-492 268.62,-411.75 202.88,-411.75"/>
</a>
</g>
</g>
<!-- Node4&#45;&gt;Node2 -->
<g id="edge3_Node000002_Node000004" class="edge">
<title>Node4&#45;&gt;Node2</title>
<g id="a_edge3_Node000002_Node000004"><a xlink:title=" ">
<path fill="none" stroke="#63b8ff" d="M203.12,-435.26C186.7,-427.69 166.38,-418.74 147.75,-411.75 122.38,-402.23 110.12,-411.33 89.5,-393.75 79.74,-385.43 72.32,-373.9 66.8,-362.39"/>
<polygon fill="none" stroke="#63b8ff" points="66.8,-362.41 60.76,-358.47 62.06,-351.38 68.11,-355.31 66.8,-362.41"/>
</a>
</g>
<text text-anchor="start" x="92.5" y="-381.25" font-family="Helvetica,sans-Serif" font-size="10.00" fill="grey">+shape</text>
</g>
<!-- Node5 -->
<g id="Node000005" class="node">
<title>Node5</title>
<g id="a_Node000005"><a xlink:href="structTTL__tile__t.html" target="_top" xlink:title=" ">
<polygon fill="white" stroke="none" points="401.88,-225 349.62,-225 349.62,-175.25 401.88,-175.25 401.88,-225"/>
<text text-anchor="start" x="353.62" y="-211.5" font-family="Helvetica,sans-Serif" font-size="10.00">TTL_tile_t</text>
<text text-anchor="start" x="374.25" y="-196.25" font-family="Helvetica,sans-Serif" font-size="10.00"> </text>
<text text-anchor="start" x="374.25" y="-181" font-family="Helvetica,sans-Serif" font-size="10.00"> </text>
<polygon fill="#666666" stroke="#666666" points="349.62,-207.75 349.62,-207.75 401.88,-207.75 401.88,-207.75 349.62,-207.75"/>
<polygon fill="#666666" stroke="#666666" points="349.62,-192.5 349.62,-192.5 401.88,-192.5 401.88,-192.5 349.62,-192.5"/>
<polygon fill="none" stroke="#666666" points="349.62,-175.25 349.62,-225 401.88,-225 401.88,-175.25 349.62,-175.25"/>
</a>
</g>
</g>
<!-- Node4&#45;&gt;Node5 -->
<g id="edge5_Node000005_Node000004" class="edge">
<title>Node4&#45;&gt;Node5</title>
<g id="a_edge5_Node000005_Node000004"><a xlink:title=" ">
<path fill="none" stroke="#63b8ff" d="M268.6,-441.68C306.05,-429.33 365.93,-403.58 395.75,-358.5 424.22,-315.45 424.29,-291.89 407.75,-243 406.94,-240.59 405.92,-238.22 404.76,-235.89"/>
<polygon fill="none" stroke="#63b8ff" points="404.71,-235.81 398.17,-232.78 398.45,-225.57 405,-228.6 404.71,-235.81"/>
</a>
</g>
<text text-anchor="start" x="421.94" y="-314.5" font-family="Helvetica,sans-Serif" font-size="10.00" fill="grey">+shape</text>
</g>
<!-- Node7 -->
<g id="Node000007" class="node">
<title>Node7</title>
<g id="a_Node000007"><a xlink:href="structTTL__int__uint__sub__tensor__t.html" target="_top" xlink:title="const and non&#45;const sub tensors in the appropriate address space">
<polygon fill="white" stroke="none" points="324.88,-225 200.62,-225 200.62,-175.25 324.88,-175.25 324.88,-225"/>
<text text-anchor="start" x="204.62" y="-211.5" font-family="Helvetica,sans-Serif" font-size="10.00">TTL_int_uint_sub_tensor_t</text>
<text text-anchor="start" x="225.38" y="-196.25" font-family="Helvetica,sans-Serif" font-size="10.00">+</text>
<text text-anchor="start" x="256.12" y="-196.25" font-family="Helvetica,sans-Serif" font-size="10.00">origin</text>
<text text-anchor="start" x="261.25" y="-181" font-family="Helvetica,sans-Serif" font-size="10.00"> </text>
<polygon fill="#666666" stroke="#666666" points="200.62,-207.75 200.62,-207.75 324.88,-207.75 324.88,-207.75 200.62,-207.75"/>
<polygon fill="#666666" stroke="#666666" points="200.62,-192.5 200.62,-192.5 254.12,-192.5 254.12,-192.5 200.62,-192.5"/>
<polygon fill="#666666" stroke="#666666" points="254.12,-192.5 254.12,-192.5 324.88,-192.5 324.88,-192.5 254.12,-192.5"/>
<polygon fill="none" stroke="#666666" points="200.62,-175.25 200.62,-225 324.88,-225 324.88,-175.25 200.62,-175.25"/>
</a>
</g>
</g>
<!-- Node4&#45;&gt;Node7 -->
<g id="edge11_Node000007_Node000004" class="edge">
<title>Node4&#45;&gt;Node7</title>
<g id="a_edge11_Node000007_Node000004"><a xlink:title=" ">
<path fill="none" stroke="#63b8ff" d="M245.42,-412C246.7,-405.92 247.86,-399.69 248.75,-393.75 256.79,-339.88 260.26,-276.81 261.73,-237.91"/>
<polygon fill="none" stroke="#63b8ff" points="261.73,-237.87 257.94,-231.74 262.14,-225.88 265.93,-232.01 261.73,-237.87"/>
</a>
</g>
<text text-anchor="start" x="262.8" y="-314.5" font-family="Helvetica,sans-Serif" font-size="10.00" fill="grey">+shape</text>
</g>
<!-- Node4&#45;&gt;Node8 -->
<g id="edge10_Node000008_Node000004" class="edge">
<title>Node4&#45;&gt;Node8</title>
<g id="a_edge10_Node000008_Node000004"><a xlink:title=" ">
<path fill="none" stroke="#63b8ff" d="M217.61,-411.78C210.39,-396.21 202.06,-378.25 194.67,-362.32"/>
<polygon fill="none" stroke="#63b8ff" points="194.67,-362.32 188.52,-358.56 189.62,-351.43 195.77,-355.19 194.67,-362.32"/>
</a>
</g>
<text text-anchor="start" x="211.9" y="-381.25" font-family="Helvetica,sans-Serif" font-size="10.00" fill="grey">+shape</text>
</g>
<!-- Node5&#45;&gt;Node1 -->
<g id="edge4_Node000001_Node000005" class="edge">
<title>Node5&#45;&gt;Node1</title>
<g id="a_edge4_Node000001_Node000005"><a xlink:title=" ">
<path fill="none" stroke="#63b8ff" d="M369.43,-175.37C365.71,-164.02 360.24,-150.62 352.75,-140 346.02,-130.44 337.86,-121.3 329.25,-112.86"/>
<polygon fill="none" stroke="#63b8ff" points="329.19,-112.8 322.08,-111.62 320.43,-104.6 327.54,-105.78 329.19,-112.8"/>
</a>
</g>
<text text-anchor="start" x="365.12" y="-144.75" font-family="Helvetica,sans-Serif" font-size="10.00" fill="grey">+next_exported_tile</text>
</g>
<!-- Node6 -->
<g id="Node000006" class="node">
<title>Node6</title>
<g id="a_Node000006"><a xlink:href="structTTL__offset__t.html" target="_top" xlink:title="Description of the 3D offset of an object.">
<polygon fill="white" stroke="none" points="386.5,-358.5 323,-358.5 323,-278.25 386.5,-278.25 386.5,-358.5"/>
<text text-anchor="start" x="327" y="-345" font-family="Helvetica,sans-Serif" font-size="10.00">TTL_offset_t</text>
<text text-anchor="start" x="337.25" y="-329.75" font-family="Helvetica,sans-Serif" font-size="10.00">+</text>
<text text-anchor="start" x="357.5" y="-329.75" font-family="Helvetica,sans-Serif" font-size="10.00">x</text>
<text text-anchor="start" x="337.25" y="-314.5" font-family="Helvetica,sans-Serif" font-size="10.00">+</text>
<text text-anchor="start" x="357.5" y="-314.5" font-family="Helvetica,sans-Serif" font-size="10.00">y</text>
<text text-anchor="start" x="337.25" y="-299.25" font-family="Helvetica,sans-Serif" font-size="10.00">+</text>
<text text-anchor="start" x="357.5" y="-299.25" font-family="Helvetica,sans-Serif" font-size="10.00">z</text>
<text text-anchor="start" x="353.25" y="-284" font-family="Helvetica,sans-Serif" font-size="10.00"> </text>
<polygon fill="#666666" stroke="#666666" points="323,-341.25 323,-341.25 386.5,-341.25 386.5,-341.25 323,-341.25"/>
<polygon fill="#666666" stroke="#666666" points="323,-295.5 323,-295.5 355.5,-295.5 355.5,-295.5 323,-295.5"/>
<polygon fill="#666666" stroke="#666666" points="355.5,-295.5 355.5,-295.5 386.5,-295.5 386.5,-295.5 355.5,-295.5"/>
<polygon fill="none" stroke="#666666" points="323,-278.25 323,-358.5 386.5,-358.5 386.5,-278.25 323,-278.25"/>
</a>
</g>
</g>
<!-- Node6&#45;&gt;Node5 -->
<g id="edge6_Node000005_Node000006" class="edge">
<title>Node6&#45;&gt;Node5</title>
<g id="a_edge6_Node000005_Node000006"><a xlink:title=" ">
<path fill="none" stroke="#63b8ff" d="M361.8,-278.34C364.17,-265.22 366.8,-250.64 369.14,-237.72"/>
<polygon fill="none" stroke="#63b8ff" points="369.15,-237.67 366.28,-231.06 371.28,-225.86 374.15,-232.48 369.15,-237.67"/>
</a>
</g>
<text text-anchor="start" x="370.75" y="-247.75" font-family="Helvetica,sans-Serif" font-size="10.00" fill="grey">+offset</text>
</g>
<!-- Node6&#45;&gt;Node7 -->
<g id="edge12_Node000007_Node000006" class="edge">
<title>Node6&#45;&gt;Node7</title>
<g id="a_edge12_Node000007_Node000006"><a xlink:title=" ">
<path fill="none" stroke="#63b8ff" d="M323.24,-282.5C316.98,-275.26 310.55,-267.59 304.75,-260.25 298.51,-252.35 292.07,-243.61 286.17,-235.34"/>
<polygon fill="none" stroke="#63b8ff" points="286.2,-235.38 279.47,-232.78 279.29,-225.57 286.02,-228.17 286.2,-235.38"/>
</a>
</g>
<text text-anchor="start" x="307.75" y="-247.75" font-family="Helvetica,sans-Serif" font-size="10.00" fill="grey">+sub_offset</text>
</g>
<!-- Node7&#45;&gt;Node1 -->
<g id="edge7_Node000001_Node000007" class="edge">
<title>Node7&#45;&gt;Node1</title>
<g id="a_edge7_Node000001_Node000007"><a xlink:title=" ">
<path fill="none" stroke="#63b8ff" d="M262.75,-175.55C262.75,-164.06 262.75,-149.55 262.75,-134.78"/>
<polygon fill="none" stroke="#63b8ff" points="262.75,-134.71 258.75,-128.71 262.75,-122.71 266.75,-128.71 262.75,-134.71"/>
</a>
</g>
<text text-anchor="start" x="265.75" y="-144.75" font-family="Helvetica,sans-Serif" font-size="10.00" fill="grey">+int_prev_imported</text>
</g>
<!-- Node8&#45;&gt;Node7 -->
<g id="edge8_Node000007_Node000008" class="edge">
<title>Node8&#45;&gt;Node7</title>
<g id="a_edge8_Node000007_Node000008"><a xlink:title=" ">
<path fill="none" stroke="#63b8ff" d="M185.62,-286.24C191.45,-272.17 199.55,-255.85 209.75,-243 212.34,-239.74 215.23,-236.58 218.29,-233.55"/>
<polygon fill="none" stroke="#63b8ff" points="218.27,-233.57 220.03,-226.58 227.16,-225.51 225.4,-232.5 218.27,-233.57"/>
</a>
</g>
<text text-anchor="start" x="212.75" y="-247.75" font-family="Helvetica,sans-Serif" font-size="10.00" fill="grey">+tensor</text>
</g>
</g>
</svg>
