<?xml version="1.0" encoding="UTF-8" standalone="no"?>
<!DOCTYPE svg PUBLIC "-//W3C//DTD SVG 1.1//EN"
 "http://www.w3.org/Graphics/SVG/1.1/DTD/svg11.dtd">
<!-- Generated by graphviz version 12.2.1 (20241206.2353)
 -->
<!-- Title: TTL_simplex_const_ushort_tensor_buffering_t Pages: 1 -->
<svg width="486pt" height="511pt"
 viewBox="0.00 0.00 486.38 511.25" xmlns="http://www.w3.org/2000/svg" xmlns:xlink="http://www.w3.org/1999/xlink">
<g id="graph0" class="graph" transform="scale(1 1) rotate(0) translate(4 507.25)">
<title>TTL_simplex_const_ushort_tensor_buffering_t</title>
<!-- Node1 -->
<g id="Node000001" class="node">
<title>Node1</title>
<g id="a_Node000001"><a xlink:title=" ">
<polygon fill="#999999" stroke="none" points="348.25,-122 222.5,-122 222.5,0 348.25,0 348.25,-122"/>
<text text-anchor="start" x="226.5" y="-108.5" font-family="Helvetica,sans-Serif" font-size="10.00">TTL_simplex_const_ushort</text>
<text text-anchor="start" x="244.12" y="-97.25" font-family="Helvetica,sans-Serif" font-size="10.00">_tensor_buffering_t</text>
<text text-anchor="start" x="242.75" y="-82" font-family="Helvetica,sans-Serif" font-size="10.00">+</text>
<text text-anchor="start" x="269" y="-82" font-family="Helvetica,sans-Serif" font-size="10.00">index</text>
<text text-anchor="start" x="242.75" y="-66.75" font-family="Helvetica,sans-Serif" font-size="10.00">+</text>
<text text-anchor="start" x="269" y="-66.75" font-family="Helvetica,sans-Serif" font-size="10.00">int_base</text>
<text text-anchor="start" x="242.75" y="-51.5" font-family="Helvetica,sans-Serif" font-size="10.00">+</text>
<text text-anchor="start" x="269" y="-51.5" font-family="Helvetica,sans-Serif" font-size="10.00">common</text>
<text text-anchor="start" x="242.75" y="-36.25" font-family="Helvetica,sans-Serif" font-size="10.00">+</text>
<text text-anchor="start" x="269" y="-36.25" font-family="Helvetica,sans-Serif" font-size="10.00">event_in</text>
<text text-anchor="start" x="242.75" y="-21" font-family="Helvetica,sans-Serif" font-size="10.00">+</text>
<text text-anchor="start" x="269" y="-21" font-family="Helvetica,sans-Serif" font-size="10.00">event_out</text>
<text text-anchor="start" x="283.88" y="-5.75" font-family="Helvetica,sans-Serif" font-size="10.00"> </text>
<polygon fill="#666666" stroke="#666666" points="222.5,-93.5 222.5,-93.5 348.25,-93.5 348.25,-93.5 222.5,-93.5"/>
<polygon fill="#666666" stroke="#666666" points="222.5,-17.25 222.5,-17.25 267,-17.25 267,-17.25 222.5,-17.25"/>
<polygon fill="#666666" stroke="#666666" points="267,-17.25 267,-17.25 348.25,-17.25 348.25,-17.25 267,-17.25"/>
<polygon fill="none" stroke="#666666" points="222.5,0 222.5,-122 348.25,-122 348.25,0 222.5,0"/>
</a>
</g>
</g>
<!-- Node2 -->
<g id="Node000002" class="node">
<title>Node2</title>
<g id="a_Node000002"><a xlink:href="structTTL__ext__ushort__tensor__t.html" target="_top" xlink:title="const and non&#45;const tensors in the appropriate address space">
<polygon fill="white" stroke="none" points="116.75,-362.12 0,-362.12 0,-297.12 116.75,-297.12 116.75,-362.12"/>
<text text-anchor="start" x="4" y="-348.62" font-family="Helvetica,sans-Serif" font-size="10.00">TTL_ext_ushort_tensor_t</text>
<text text-anchor="start" x="17.81" y="-333.38" font-family="Helvetica,sans-Serif" font-size="10.00">+</text>
<text text-anchor="start" x="41.62" y="-333.38" font-family="Helvetica,sans-Serif" font-size="10.00">base</text>
<text text-anchor="start" x="17.81" y="-318.12" font-family="Helvetica,sans-Serif" font-size="10.00">+</text>
<text text-anchor="start" x="41.62" y="-318.12" font-family="Helvetica,sans-Serif" font-size="10.00">elem_size</text>
<text text-anchor="start" x="56.88" y="-302.88" font-family="Helvetica,sans-Serif" font-size="10.00"> </text>
<polygon fill="#666666" stroke="#666666" points="0,-344.88 0,-344.88 116.75,-344.88 116.75,-344.88 0,-344.88"/>
<polygon fill="#666666" stroke="#666666" points="0,-314.38 0,-314.38 39.62,-314.38 39.62,-314.38 0,-314.38"/>
<polygon fill="#666666" stroke="#666666" points="39.62,-314.38 39.62,-314.38 116.75,-314.38 116.75,-314.38 39.62,-314.38"/>
<polygon fill="none" stroke="#666666" points="0,-297.12 0,-362.12 116.75,-362.12 116.75,-297.12 0,-297.12"/>
</a>
</g>
</g>
<!-- Node2&#45;&gt;Node1 -->
<g id="edge1_Node000001_Node000002" class="edge">
<title>Node2&#45;&gt;Node1</title>
<g id="a_edge1_Node000001_Node000002"><a xlink:title=" ">
<path fill="none" stroke="#63b8ff" d="M74.11,-297.37C91.22,-264.99 120.59,-213.82 153.62,-175.25 171.16,-154.78 192.51,-134.79 212.87,-117.46"/>
<polygon fill="none" stroke="#63b8ff" points="212.88,-117.45 214.91,-110.53 222.08,-109.75 220.05,-116.66 212.88,-117.45"/>
</a>
</g>
<text text-anchor="start" x="156.62" y="-209.5" font-family="Helvetica,sans-Serif" font-size="10.00" fill="grey">+ext_tensor_in</text>
<text text-anchor="start" x="156.62" y="-194.25" font-family="Helvetica,sans-Serif" font-size="10.00" fill="grey">+ext_tensor_out</text>
</g>
<!-- Node3 -->
<g id="Node000003" class="node">
<title>Node3</title>
<g id="a_Node000003"><a xlink:href="structTTL__layout__t.html" target="_top" xlink:title="Description of a Tensor layout in memory.">
<polygon fill="white" stroke="none" points="161.5,-495.62 81.25,-495.62 81.25,-430.62 161.5,-430.62 161.5,-495.62"/>
<text text-anchor="start" x="92.88" y="-482.12" font-family="Helvetica,sans-Serif" font-size="10.00">TTL_layout_t</text>
<text text-anchor="start" x="85.25" y="-466.88" font-family="Helvetica,sans-Serif" font-size="10.00">+</text>
<text text-anchor="start" x="95.25" y="-466.88" font-family="Helvetica,sans-Serif" font-size="10.00">row_spacing</text>
<text text-anchor="start" x="85.25" y="-451.62" font-family="Helvetica,sans-Serif" font-size="10.00">+</text>
<text text-anchor="start" x="95.25" y="-451.62" font-family="Helvetica,sans-Serif" font-size="10.00">plane_spacing</text>
<text text-anchor="start" x="119.88" y="-436.38" font-family="Helvetica,sans-Serif" font-size="10.00"> </text>
<polygon fill="#666666" stroke="#666666" points="81.25,-478.38 81.25,-478.38 161.5,-478.38 161.5,-478.38 81.25,-478.38"/>
<polygon fill="#666666" stroke="#666666" points="81.25,-447.88 81.25,-447.88 93.25,-447.88 93.25,-447.88 81.25,-447.88"/>
<polygon fill="#666666" stroke="#666666" points="93.25,-447.88 93.25,-447.88 161.5,-447.88 161.5,-447.88 93.25,-447.88"/>
<polygon fill="none" stroke="#666666" points="81.25,-430.62 81.25,-495.62 161.5,-495.62 161.5,-430.62 81.25,-430.62"/>
</a>
</g>
</g>
<!-- Node3&#45;&gt;Node2 -->
<g id="edge2_Node000002_Node000003" class="edge">
<title>Node3&#45;&gt;Node2</title>
<g id="a_edge2_Node000002_Node000003"><a xlink:title=" ">
<path fill="none" stroke="#63b8ff" d="M81.55,-439.63C69.41,-430.57 57.52,-418.94 50.88,-405 46.44,-395.69 45.48,-385 46.26,-374.67"/>
<polygon fill="none" stroke="#63b8ff" points="46.26,-374.7 43.14,-368.2 47.93,-362.82 51.06,-369.32 46.26,-374.7"/>
</a>
</g>
<text text-anchor="start" x="53.88" y="-392.5" font-family="Helvetica,sans-Serif" font-size="10.00" fill="grey">+layout</text>
</g>
<!-- Node8 -->
<g id="Node000008" class="node">
<title>Node8</title>
<g id="a_Node000008"><a xlink:href="structTTL__int__ushort__tensor__t.html" target="_top" xlink:title="const and non&#45;const tensors in the appropriate address space">
<polygon fill="white" stroke="none" points="249.62,-362.12 135.12,-362.12 135.12,-297.12 249.62,-297.12 249.62,-362.12"/>
<text text-anchor="start" x="139.12" y="-348.62" font-family="Helvetica,sans-Serif" font-size="10.00">TTL_int_ushort_tensor_t</text>
<text text-anchor="start" x="152.38" y="-333.38" font-family="Helvetica,sans-Serif" font-size="10.00">+</text>
<text text-anchor="start" x="175.62" y="-333.38" font-family="Helvetica,sans-Serif" font-size="10.00">base</text>
<text text-anchor="start" x="152.38" y="-318.12" font-family="Helvetica,sans-Serif" font-size="10.00">+</text>
<text text-anchor="start" x="175.62" y="-318.12" font-family="Helvetica,sans-Serif" font-size="10.00">elem_size</text>
<text text-anchor="start" x="190.88" y="-302.88" font-family="Helvetica,sans-Serif" font-size="10.00"> </text>
<polygon fill="#666666" stroke="#666666" points="135.12,-344.88 135.12,-344.88 249.62,-344.88 249.62,-344.88 135.12,-344.88"/>
<polygon fill="#666666" stroke="#666666" points="135.12,-314.38 135.12,-314.38 173.62,-314.38 173.62,-314.38 135.12,-314.38"/>
<polygon fill="#666666" stroke="#666666" points="173.62,-314.38 173.62,-314.38 249.62,-314.38 249.62,-314.38 173.62,-314.38"/>
<polygon fill="none" stroke="#666666" points="135.12,-297.12 135.12,-362.12 249.62,-362.12 249.62,-297.12 135.12,-297.12"/>
</a>
</g>
</g>
<!-- Node3&#45;&gt;Node8 -->
<g id="edge9_Node000008_Node000003" class="edge">
<title>Node3&#45;&gt;Node8</title>
<g id="a_edge9_Node000008_Node000003"><a xlink:title=" ">
<path fill="none" stroke="#63b8ff" d="M138.38,-430.63C147.65,-413.47 159.24,-391.99 169.31,-373.34"/>
<polygon fill="none" stroke="#63b8ff" points="169.38,-373.22 168.71,-366.04 175.08,-362.66 175.75,-369.84 169.38,-373.22"/>
</a>
</g>
<text text-anchor="start" x="164.13" y="-392.5" font-family="Helvetica,sans-Serif" font-size="10.00" fill="grey">+layout</text>
</g>
<!-- Node4 -->
<g id="Node000004" class="node">
<title>Node4</title>
<g id="a_Node000004"><a xlink:href="structTTL__shape__t.html" target="_top" xlink:title="Description of a Shape.">
<polygon fill="white" stroke="none" points="291.25,-503.25 225.5,-503.25 225.5,-423 291.25,-423 291.25,-503.25"/>
<text text-anchor="start" x="229.5" y="-489.75" font-family="Helvetica,sans-Serif" font-size="10.00">TTL_shape_t</text>
<text text-anchor="start" x="234.88" y="-474.5" font-family="Helvetica,sans-Serif" font-size="10.00">+</text>
<text text-anchor="start" x="250.25" y="-474.5" font-family="Helvetica,sans-Serif" font-size="10.00">width</text>
<text text-anchor="start" x="234.88" y="-459.25" font-family="Helvetica,sans-Serif" font-size="10.00">+</text>
<text text-anchor="start" x="250.25" y="-459.25" font-family="Helvetica,sans-Serif" font-size="10.00">height</text>
<text text-anchor="start" x="234.88" y="-444" font-family="Helvetica,sans-Serif" font-size="10.00">+</text>
<text text-anchor="start" x="250.25" y="-444" font-family="Helvetica,sans-Serif" font-size="10.00">depth</text>
<text text-anchor="start" x="256.88" y="-428.75" font-family="Helvetica,sans-Serif" font-size="10.00"> </text>
<polygon fill="#666666" stroke="#666666" points="225.5,-486 225.5,-486 291.25,-486 291.25,-486 225.5,-486"/>
<polygon fill="#666666" stroke="#666666" points="225.5,-440.25 225.5,-440.25 248.25,-440.25 248.25,-440.25 225.5,-440.25"/>
<polygon fill="#666666" stroke="#666666" points="248.25,-440.25 248.25,-440.25 291.25,-440.25 291.25,-440.25 248.25,-440.25"/>
<polygon fill="none" stroke="#666666" points="225.5,-423 225.5,-503.25 291.25,-503.25 291.25,-423 225.5,-423"/>
</a>
</g>
</g>
<!-- Node4&#45;&gt;Node2 -->
<g id="edge3_Node000002_Node000004" class="edge">
<title>Node4&#45;&gt;Node2</title>
<g id="a_edge3_Node000002_Node000004"><a xlink:title=" ">
<path fill="none" stroke="#63b8ff" d="M225.77,-446.43C209.36,-438.84 189.04,-429.9 170.38,-423 144.16,-413.3 132.76,-421.39 110.12,-405 98.42,-396.53 88.45,-384.55 80.48,-372.69"/>
<polygon fill="none" stroke="#63b8ff" points="80.58,-372.85 74,-369.89 74.21,-362.69 80.78,-365.64 80.58,-372.85"/>
</a>
</g>
<text text-anchor="start" x="113.12" y="-392.5" font-family="Helvetica,sans-Serif" font-size="10.00" fill="grey">+shape</text>
</g>
<!-- Node5 -->
<g id="Node000005" class="node">
<title>Node5</title>
<g id="a_Node000005"><a xlink:href="structTTL__tile__t.html" target="_top" xlink:title=" ">
<polygon fill="white" stroke="none" points="424.5,-230.62 372.25,-230.62 372.25,-180.88 424.5,-180.88 424.5,-230.62"/>
<text text-anchor="start" x="376.25" y="-217.12" font-family="Helvetica,sans-Serif" font-size="10.00">TTL_tile_t</text>
<text text-anchor="start" x="396.88" y="-201.88" font-family="Helvetica,sans-Serif" font-size="10.00"> </text>
<text text-anchor="start" x="396.88" y="-186.62" font-family="Helvetica,sans-Serif" font-size="10.00"> </text>
<polygon fill="#666666" stroke="#666666" points="372.25,-213.38 372.25,-213.38 424.5,-213.38 424.5,-213.38 372.25,-213.38"/>
<polygon fill="#666666" stroke="#666666" points="372.25,-198.12 372.25,-198.12 424.5,-198.12 424.5,-198.12 372.25,-198.12"/>
<polygon fill="none" stroke="#666666" points="372.25,-180.88 372.25,-230.62 424.5,-230.62 424.5,-180.88 372.25,-180.88"/>
</a>
</g>
</g>
<!-- Node4&#45;&gt;Node5 -->
<g id="edge5_Node000005_Node000004" class="edge">
<title>Node4&#45;&gt;Node5</title>
<g id="a_edge5_Node000005_Node000004"><a xlink:title=" ">
<path fill="none" stroke="#63b8ff" d="M290.97,-453.09C328.47,-440.84 388.7,-415.11 418.38,-369.75 446.61,-326.6 444.08,-303.68 429.38,-254.25 428.1,-249.97 426.3,-245.71 424.21,-241.6"/>
<polygon fill="none" stroke="#63b8ff" points="424.25,-241.66 417.76,-238.52 418.17,-231.32 424.66,-234.46 424.25,-241.66"/>
</a>
</g>
<text text-anchor="start" x="443.13" y="-325.75" font-family="Helvetica,sans-Serif" font-size="10.00" fill="grey">+shape</text>
</g>
<!-- Node7 -->
<g id="Node000007" class="node">
<title>Node7</title>
<g id="a_Node000007"><a xlink:href="structTTL__int__ushort__sub__tensor__t.html" target="_top" xlink:title="const and non&#45;const sub tensors in the appropriate address space">
<polygon fill="white" stroke="none" points="332.88,-236.25 237.88,-236.25 237.88,-175.25 332.88,-175.25 332.88,-236.25"/>
<text text-anchor="start" x="241.88" y="-222.75" font-family="Helvetica,sans-Serif" font-size="10.00">TTL_int_ushort_sub</text>
<text text-anchor="start" x="265.12" y="-211.5" font-family="Helvetica,sans-Serif" font-size="10.00">_tensor_t</text>
<text text-anchor="start" x="255.31" y="-196.25" font-family="Helvetica,sans-Serif" font-size="10.00">+</text>
<text text-anchor="start" x="278.75" y="-196.25" font-family="Helvetica,sans-Serif" font-size="10.00">origin</text>
<text text-anchor="start" x="283.88" y="-181" font-family="Helvetica,sans-Serif" font-size="10.00"> </text>
<polygon fill="#666666" stroke="#666666" points="237.88,-207.75 237.88,-207.75 332.88,-207.75 332.88,-207.75 237.88,-207.75"/>
<polygon fill="#666666" stroke="#666666" points="237.88,-192.5 237.88,-192.5 276.75,-192.5 276.75,-192.5 237.88,-192.5"/>
<polygon fill="#666666" stroke="#666666" points="276.75,-192.5 276.75,-192.5 332.88,-192.5 332.88,-192.5 276.75,-192.5"/>
<polygon fill="none" stroke="#666666" points="237.88,-175.25 237.88,-236.25 332.88,-236.25 332.88,-175.25 237.88,-175.25"/>
</a>
</g>
</g>
<!-- Node4&#45;&gt;Node7 -->
<g id="edge11_Node000007_Node000004" class="edge">
<title>Node4&#45;&gt;Node7</title>
<g id="a_edge11_Node000007_Node000004"><a xlink:title=" ">
<path fill="none" stroke="#63b8ff" d="M268.06,-423.25C269.33,-417.17 270.5,-410.94 271.38,-405 279.29,-351.61 282.76,-289.44 284.26,-249.16"/>
<polygon fill="none" stroke="#63b8ff" points="284.26,-249.02 280.47,-242.89 284.67,-237.03 288.47,-243.16 284.26,-249.02"/>
</a>
</g>
<text text-anchor="start" x="285.23" y="-325.75" font-family="Helvetica,sans-Serif" font-size="10.00" fill="grey">+shape</text>
</g>
<!-- Node4&#45;&gt;Node8 -->
<g id="edge10_Node000008_Node000004" class="edge">
<title>Node4&#45;&gt;Node8</title>
<g id="a_edge10_Node000008_Node000004"><a xlink:title=" ">
<path fill="none" stroke="#63b8ff" d="M238.75,-423.03C230.86,-407.31 221.75,-389.15 213.69,-373.1"/>
<polygon fill="none" stroke="#63b8ff" points="213.84,-373.39 207.57,-369.83 208.46,-362.67 214.72,-366.24 213.84,-373.39"/>
</a>
</g>
<text text-anchor="start" x="232.33" y="-392.5" font-family="Helvetica,sans-Serif" font-size="10.00" fill="grey">+shape</text>
</g>
<!-- Node5&#45;&gt;Node1 -->
<g id="edge4_Node000001_Node000005" class="edge">
<title>Node5&#45;&gt;Node1</title>
<g id="a_edge4_Node000001_Node000005"><a xlink:title=" ">
<path fill="none" stroke="#63b8ff" d="M393.08,-180.91C389.46,-168.04 383.78,-152.32 375.38,-140 369.97,-132.08 363.56,-124.46 356.7,-117.3"/>
<polygon fill="none" stroke="#63b8ff" points="356.97,-117.57 349.89,-116.19 348.44,-109.13 355.52,-110.51 356.97,-117.57"/>
</a>
</g>
<text text-anchor="start" x="387.38" y="-144.75" font-family="Helvetica,sans-Serif" font-size="10.00" fill="grey">+next_exported_tile</text>
</g>
<!-- Node6 -->
<g id="Node000006" class="node">
<title>Node6</title>
<g id="a_Node000006"><a xlink:href="structTTL__offset__t.html" target="_top" xlink:title="Description of the 3D offset of an object.">
<polygon fill="white" stroke="none" points="409.12,-369.75 345.62,-369.75 345.62,-289.5 409.12,-289.5 409.12,-369.75"/>
<text text-anchor="start" x="349.62" y="-356.25" font-family="Helvetica,sans-Serif" font-size="10.00">TTL_offset_t</text>
<text text-anchor="start" x="359.88" y="-341" font-family="Helvetica,sans-Serif" font-size="10.00">+</text>
<text text-anchor="start" x="380.12" y="-341" font-family="Helvetica,sans-Serif" font-size="10.00">x</text>
<text text-anchor="start" x="359.88" y="-325.75" font-family="Helvetica,sans-Serif" font-size="10.00">+</text>
<text text-anchor="start" x="380.12" y="-325.75" font-family="Helvetica,sans-Serif" font-size="10.00">y</text>
<text text-anchor="start" x="359.88" y="-310.5" font-family="Helvetica,sans-Serif" font-size="10.00">+</text>
<text text-anchor="start" x="380.12" y="-310.5" font-family="Helvetica,sans-Serif" font-size="10.00">z</text>
<text text-anchor="start" x="375.88" y="-295.25" font-family="Helvetica,sans-Serif" font-size="10.00"> </text>
<polygon fill="#666666" stroke="#666666" points="345.62,-352.5 345.62,-352.5 409.12,-352.5 409.12,-352.5 345.62,-352.5"/>
<polygon fill="#666666" stroke="#666666" points="345.62,-306.75 345.62,-306.75 378.12,-306.75 378.12,-306.75 345.62,-306.75"/>
<polygon fill="#666666" stroke="#666666" points="378.12,-306.75 378.12,-306.75 409.12,-306.75 409.12,-306.75 378.12,-306.75"/>
<polygon fill="none" stroke="#666666" points="345.62,-289.5 345.62,-369.75 409.12,-369.75 409.12,-289.5 345.62,-289.5"/>
</a>
</g>
</g>
<!-- Node6&#45;&gt;Node5 -->
<g id="edge6_Node000005_Node000006" class="edge">
<title>Node6&#45;&gt;Node5</title>
<g id="a_edge6_Node000005_Node000006"><a xlink:title=" ">
<path fill="none" stroke="#63b8ff" d="M384.08,-289.73C386.65,-274.79 389.58,-257.82 392.11,-243.13"/>
<polygon fill="none" stroke="#63b8ff" points="392.11,-243.12 389.18,-236.53 394.15,-231.3 397.07,-237.89 392.11,-243.12"/>
</a>
</g>
<text text-anchor="start" x="392.76" y="-259" font-family="Helvetica,sans-Serif" font-size="10.00" fill="grey">+offset</text>
</g>
<!-- Node6&#45;&gt;Node7 -->
<g id="edge12_Node000007_Node000006" class="edge">
<title>Node6&#45;&gt;Node7</title>
<g id="a_edge12_Node000007_Node000006"><a xlink:title=" ">
<path fill="none" stroke="#63b8ff" d="M345.68,-294.97C339.06,-287.44 332.3,-279.35 326.38,-271.5 320.59,-263.83 314.8,-255.34 309.48,-247.1"/>
<polygon fill="none" stroke="#63b8ff" points="309.44,-247.03 302.85,-244.09 303.04,-236.88 309.62,-239.82 309.44,-247.03"/>
</a>
</g>
<text text-anchor="start" x="329.38" y="-259" font-family="Helvetica,sans-Serif" font-size="10.00" fill="grey">+sub_offset</text>
</g>
<!-- Node7&#45;&gt;Node1 -->
<g id="edge7_Node000001_Node000007" class="edge">
<title>Node7&#45;&gt;Node1</title>
<g id="a_edge7_Node000001_Node000007"><a xlink:title=" ">
<path fill="none" stroke="#63b8ff" d="M285.38,-175.52C285.38,-163.53 285.38,-149.07 285.38,-134.55"/>
<polygon fill="none" stroke="#63b8ff" points="285.38,-134.73 281.38,-128.73 285.38,-122.73 289.38,-128.73 285.38,-134.73"/>
</a>
</g>
<text text-anchor="start" x="288.38" y="-144.75" font-family="Helvetica,sans-Serif" font-size="10.00" fill="grey">+int_prev_imported</text>
</g>
<!-- Node8&#45;&gt;Node7 -->
<g id="edge8_Node000007_Node000008" class="edge">
<title>Node8&#45;&gt;Node7</title>
<g id="a_edge8_Node000007_Node000008"><a xlink:title=" ">
<path fill="none" stroke="#63b8ff" d="M206.1,-297.48C212.98,-283.57 222.04,-267.38 232.38,-254.25 234.78,-251.19 237.4,-248.17 240.13,-245.22"/>
<polygon fill="none" stroke="#63b8ff" points="240.11,-245.25 241.49,-238.17 248.55,-236.72 247.17,-243.8 240.11,-245.25"/>
</a>
</g>
<text text-anchor="start" x="235.38" y="-259" font-family="Helvetica,sans-Serif" font-size="10.00" fill="grey">+tensor</text>
</g>
</g>
</svg>
