<?xml version="1.0" encoding="UTF-8" standalone="no"?>
<!DOCTYPE svg PUBLIC "-//W3C//DTD SVG 1.1//EN"
 "http://www.w3.org/Graphics/SVG/1.1/DTD/svg11.dtd">
<!-- Generated by graphviz version 12.2.1 (20241206.2353)
 -->
<!-- Title: TTL_common_buffering&lt; TENSORTYPE, BASES_COUNT &gt; Pages: 1 -->
<svg width="177pt" height="100pt"
 viewBox="0.00 0.00 177.25 99.50" xmlns="http://www.w3.org/2000/svg" xmlns:xlink="http://www.w3.org/1999/xlink">
<g id="graph0" class="graph" transform="scale(1 1) rotate(0) translate(4 95.5)">
<title>TTL_common_buffering&lt; TENSORTYPE, BASES_COUNT &gt;</title>
<!-- Node1 -->
<g id="Node000001" class="node">
<title>Node1</title>
<g id="a_Node000001"><a xlink:title=" ">
<polygon fill="#999999" stroke="none" points="169.25,-91.5 0,-91.5 0,0 169.25,0 169.25,-91.5"/>
<text text-anchor="start" x="4" y="-78" font-family="Helvetica,sans-Serif" font-size="10.00">TTL_common_buffering</text>
<text text-anchor="start" x="4" y="-66.75" font-family="Helvetica,sans-Serif" font-size="10.00">&lt; TENSORTYPE, BASES_COUNT &gt;</text>
<text text-anchor="start" x="25.88" y="-51.5" font-family="Helvetica,sans-Serif" font-size="10.00">+</text>
<text text-anchor="start" x="57.75" y="-51.5" font-family="Helvetica,sans-Serif" font-size="10.00">index</text>
<text text-anchor="start" x="25.88" y="-36.25" font-family="Helvetica,sans-Serif" font-size="10.00">+</text>
<text text-anchor="start" x="57.75" y="-36.25" font-family="Helvetica,sans-Serif" font-size="10.00">ext_tensor_in</text>
<text text-anchor="start" x="25.88" y="-21" font-family="Helvetica,sans-Serif" font-size="10.00">+</text>
<text text-anchor="start" x="57.75" y="-21" font-family="Helvetica,sans-Serif" font-size="10.00">ext_tensor_out</text>
<text text-anchor="start" x="25.88" y="-5.75" font-family="Helvetica,sans-Serif" font-size="10.00">+</text>
<text text-anchor="start" x="57.75" y="-5.75" font-family="Helvetica,sans-Serif" font-size="10.00">TTL_local()</text>
<polygon fill="#666666" stroke="#666666" points="0,-63 0,-63 169.25,-63 169.25,-63 0,-63"/>
<polygon fill="#666666" stroke="#666666" points="0,-17.25 0,-17.25 55.75,-17.25 55.75,-17.25 0,-17.25"/>
<polygon fill="#666666" stroke="#666666" points="55.75,-17.25 55.75,-17.25 169.25,-17.25 169.25,-17.25 55.75,-17.25"/>
<polygon fill="none" stroke="#666666" points="0,0 0,-91.5 169.25,-91.5 169.25,0 0,0"/>
</a>
</g>
</g>
</g>
</svg>
