<?xml version="1.0" encoding="UTF-8" standalone="no"?>
<!DOCTYPE svg PUBLIC "-//W3C//DTD SVG 1.1//EN"
 "http://www.w3.org/Graphics/SVG/1.1/DTD/svg11.dtd">
<!-- Generated by graphviz version 12.2.1 (20241206.2353)
 -->
<!-- Title: TTL_duplex_const_int_tensor_buffering_t Pages: 1 -->
<svg width="254pt" height="412pt"
 viewBox="0.00 0.00 253.75 412.25" xmlns="http://www.w3.org/2000/svg" xmlns:xlink="http://www.w3.org/1999/xlink">
<g id="graph0" class="graph" transform="scale(1 1) rotate(0) translate(4 408.25)">
<title>TTL_duplex_const_int_tensor_buffering_t</title>
<!-- Node1 -->
<g id="Node000001" class="node">
<title>Node1</title>
<g id="a_Node000001"><a xlink:title="Data required to perform duplex buffer pipelining.">
<polygon fill="#999999" stroke="none" points="167.12,-122 63.12,-122 63.12,0 167.12,0 167.12,-122"/>
<text text-anchor="start" x="67.12" y="-108.5" font-family="Helvetica,sans-Serif" font-size="10.00">TTL_duplex_const_int</text>
<text text-anchor="start" x="73.88" y="-97.25" font-family="Helvetica,sans-Serif" font-size="10.00">_tensor_buffering_t</text>
<text text-anchor="start" x="69.88" y="-82" font-family="Helvetica,sans-Serif" font-size="10.00">+</text>
<text text-anchor="start" x="82.62" y="-82" font-family="Helvetica,sans-Serif" font-size="10.00">index</text>
<text text-anchor="start" x="69.88" y="-66.75" font-family="Helvetica,sans-Serif" font-size="10.00">+</text>
<text text-anchor="start" x="82.62" y="-66.75" font-family="Helvetica,sans-Serif" font-size="10.00">int_base</text>
<text text-anchor="start" x="69.88" y="-51.5" font-family="Helvetica,sans-Serif" font-size="10.00">+</text>
<text text-anchor="start" x="82.62" y="-51.5" font-family="Helvetica,sans-Serif" font-size="10.00">common</text>
<text text-anchor="start" x="69.88" y="-36.25" font-family="Helvetica,sans-Serif" font-size="10.00">+</text>
<text text-anchor="start" x="82.62" y="-36.25" font-family="Helvetica,sans-Serif" font-size="10.00">events</text>
<text text-anchor="start" x="69.88" y="-21" font-family="Helvetica,sans-Serif" font-size="10.00">+</text>
<text text-anchor="start" x="82.62" y="-21" font-family="Helvetica,sans-Serif" font-size="10.00">prev_out_tensors</text>
<text text-anchor="start" x="113.62" y="-5.75" font-family="Helvetica,sans-Serif" font-size="10.00"> </text>
<polygon fill="#666666" stroke="#666666" points="63.12,-93.5 63.12,-93.5 167.12,-93.5 167.12,-93.5 63.12,-93.5"/>
<polygon fill="#666666" stroke="#666666" points="63.12,-17.25 63.12,-17.25 80.62,-17.25 80.62,-17.25 63.12,-17.25"/>
<polygon fill="#666666" stroke="#666666" points="80.62,-17.25 80.62,-17.25 167.12,-17.25 167.12,-17.25 80.62,-17.25"/>
<polygon fill="none" stroke="#666666" points="63.12,0 63.12,-122 167.12,-122 167.12,0 63.12,0"/>
</a>
</g>
</g>
<!-- Node2 -->
<g id="Node000002" class="node">
<title>Node2</title>
<g id="a_Node000002"><a xlink:href="structTTL__ext__int__tensor__t.html" target="_top" xlink:title="const and non&#45;const tensors in the appropriate address space">
<polygon fill="white" stroke="none" points="100.25,-270.75 0,-270.75 0,-205.75 100.25,-205.75 100.25,-270.75"/>
<text text-anchor="start" x="4" y="-257.25" font-family="Helvetica,sans-Serif" font-size="10.00">TTL_ext_int_tensor_t</text>
<text text-anchor="start" x="13.69" y="-242" font-family="Helvetica,sans-Serif" font-size="10.00">+</text>
<text text-anchor="start" x="33.38" y="-242" font-family="Helvetica,sans-Serif" font-size="10.00">base</text>
<text text-anchor="start" x="13.69" y="-226.75" font-family="Helvetica,sans-Serif" font-size="10.00">+</text>
<text text-anchor="start" x="33.38" y="-226.75" font-family="Helvetica,sans-Serif" font-size="10.00">elem_size</text>
<text text-anchor="start" x="48.62" y="-211.5" font-family="Helvetica,sans-Serif" font-size="10.00"> </text>
<polygon fill="#666666" stroke="#666666" points="0,-253.5 0,-253.5 100.25,-253.5 100.25,-253.5 0,-253.5"/>
<polygon fill="#666666" stroke="#666666" points="0,-223 0,-223 31.38,-223 31.38,-223 0,-223"/>
<polygon fill="#666666" stroke="#666666" points="31.38,-223 31.38,-223 100.25,-223 100.25,-223 31.38,-223"/>
<polygon fill="none" stroke="#666666" points="0,-205.75 0,-270.75 100.25,-270.75 100.25,-205.75 0,-205.75"/>
</a>
</g>
</g>
<!-- Node2&#45;&gt;Node1 -->
<g id="edge1_Node000001_Node000002" class="edge">
<title>Node2&#45;&gt;Node1</title>
<g id="a_edge1_Node000001_Node000002"><a xlink:title=" ">
<path fill="none" stroke="#63b8ff" d="M56.41,-206.06C60.75,-186.71 67.21,-161.53 75.38,-140 76.15,-137.95 76.97,-135.88 77.82,-133.8"/>
<polygon fill="none" stroke="#63b8ff" points="77.86,-133.72 76.57,-126.62 82.62,-122.71 83.91,-129.8 77.86,-133.72"/>
</a>
</g>
<text text-anchor="start" x="78.38" y="-175.25" font-family="Helvetica,sans-Serif" font-size="10.00" fill="grey">+ext_tensor_in</text>
<text text-anchor="start" x="78.38" y="-160" font-family="Helvetica,sans-Serif" font-size="10.00" fill="grey">+ext_tensor_out</text>
<text text-anchor="start" x="78.38" y="-144.75" font-family="Helvetica,sans-Serif" font-size="10.00" fill="grey">+to_export_to</text>
</g>
<!-- Node3 -->
<g id="Node000003" class="node">
<title>Node3</title>
<g id="a_Node000003"><a xlink:href="structTTL__layout__t.html" target="_top" xlink:title="Description of a Tensor layout in memory.">
<polygon fill="white" stroke="none" points="103.25,-396.62 23,-396.62 23,-331.62 103.25,-331.62 103.25,-396.62"/>
<text text-anchor="start" x="34.62" y="-383.12" font-family="Helvetica,sans-Serif" font-size="10.00">TTL_layout_t</text>
<text text-anchor="start" x="27" y="-367.88" font-family="Helvetica,sans-Serif" font-size="10.00">+</text>
<text text-anchor="start" x="37" y="-367.88" font-family="Helvetica,sans-Serif" font-size="10.00">row_spacing</text>
<text text-anchor="start" x="27" y="-352.62" font-family="Helvetica,sans-Serif" font-size="10.00">+</text>
<text text-anchor="start" x="37" y="-352.62" font-family="Helvetica,sans-Serif" font-size="10.00">plane_spacing</text>
<text text-anchor="start" x="61.62" y="-337.38" font-family="Helvetica,sans-Serif" font-size="10.00"> </text>
<polygon fill="#666666" stroke="#666666" points="23,-379.38 23,-379.38 103.25,-379.38 103.25,-379.38 23,-379.38"/>
<polygon fill="#666666" stroke="#666666" points="23,-348.88 23,-348.88 35,-348.88 35,-348.88 23,-348.88"/>
<polygon fill="#666666" stroke="#666666" points="35,-348.88 35,-348.88 103.25,-348.88 103.25,-348.88 35,-348.88"/>
<polygon fill="none" stroke="#666666" points="23,-331.62 23,-396.62 103.25,-396.62 103.25,-331.62 23,-331.62"/>
</a>
</g>
</g>
<!-- Node3&#45;&gt;Node2 -->
<g id="edge2_Node000002_Node000003" class="edge">
<title>Node3&#45;&gt;Node2</title>
<g id="a_edge2_Node000002_Node000003"><a xlink:title=" ">
<path fill="none" stroke="#63b8ff" d="M38.65,-331.76C33.71,-323.78 29.23,-314.92 26.62,-306 24.41,-298.43 24.79,-290.46 26.59,-282.76"/>
<polygon fill="none" stroke="#63b8ff" points="26.56,-282.85 24.64,-275.9 30.32,-271.46 32.24,-278.41 26.56,-282.85"/>
</a>
</g>
<text text-anchor="start" x="29.62" y="-293.5" font-family="Helvetica,sans-Serif" font-size="10.00" fill="grey">+layout</text>
</g>
<!-- Node5 -->
<g id="Node000005" class="node">
<title>Node5</title>
<g id="a_Node000005"><a xlink:href="structTTL__const__int__int__tensor__t.html" target="_top" xlink:title=" ">
<polygon fill="white" stroke="none" points="245.75,-270.75 118.5,-270.75 118.5,-205.75 245.75,-205.75 245.75,-270.75"/>
<text text-anchor="start" x="122.5" y="-257.25" font-family="Helvetica,sans-Serif" font-size="10.00">TTL_const_int_int_tensor_t</text>
<text text-anchor="start" x="138.94" y="-242" font-family="Helvetica,sans-Serif" font-size="10.00">+</text>
<text text-anchor="start" x="165.38" y="-242" font-family="Helvetica,sans-Serif" font-size="10.00">base</text>
<text text-anchor="start" x="138.94" y="-226.75" font-family="Helvetica,sans-Serif" font-size="10.00">+</text>
<text text-anchor="start" x="165.38" y="-226.75" font-family="Helvetica,sans-Serif" font-size="10.00">elem_size</text>
<text text-anchor="start" x="180.62" y="-211.5" font-family="Helvetica,sans-Serif" font-size="10.00"> </text>
<polygon fill="#666666" stroke="#666666" points="118.5,-253.5 118.5,-253.5 245.75,-253.5 245.75,-253.5 118.5,-253.5"/>
<polygon fill="#666666" stroke="#666666" points="118.5,-223 118.5,-223 163.38,-223 163.38,-223 118.5,-223"/>
<polygon fill="#666666" stroke="#666666" points="163.38,-223 163.38,-223 245.75,-223 245.75,-223 163.38,-223"/>
<polygon fill="none" stroke="#666666" points="118.5,-205.75 118.5,-270.75 245.75,-270.75 245.75,-205.75 118.5,-205.75"/>
</a>
</g>
</g>
<!-- Node3&#45;&gt;Node5 -->
<g id="edge5_Node000005_Node000003" class="edge">
<title>Node3&#45;&gt;Node5</title>
<g id="a_edge5_Node000005_Node000003"><a xlink:title=" ">
<path fill="none" stroke="#63b8ff" d="M65.9,-331.87C68.55,-317.44 73.69,-300.87 83.62,-288.75 87.74,-283.73 96.6,-277.89 107.4,-272.02"/>
<polygon fill="none" stroke="#63b8ff" points="107.27,-272.09 110.77,-265.78 117.94,-266.58 114.44,-272.89 107.27,-272.09"/>
</a>
</g>
<text text-anchor="start" x="86.62" y="-293.5" font-family="Helvetica,sans-Serif" font-size="10.00" fill="grey">+layout</text>
</g>
<!-- Node4 -->
<g id="Node000004" class="node">
<title>Node4</title>
<g id="a_Node000004"><a xlink:href="structTTL__shape__t.html" target="_top" xlink:title="Description of a Shape.">
<polygon fill="white" stroke="none" points="202,-404.25 136.25,-404.25 136.25,-324 202,-324 202,-404.25"/>
<text text-anchor="start" x="140.25" y="-390.75" font-family="Helvetica,sans-Serif" font-size="10.00">TTL_shape_t</text>
<text text-anchor="start" x="145.62" y="-375.5" font-family="Helvetica,sans-Serif" font-size="10.00">+</text>
<text text-anchor="start" x="161" y="-375.5" font-family="Helvetica,sans-Serif" font-size="10.00">width</text>
<text text-anchor="start" x="145.62" y="-360.25" font-family="Helvetica,sans-Serif" font-size="10.00">+</text>
<text text-anchor="start" x="161" y="-360.25" font-family="Helvetica,sans-Serif" font-size="10.00">height</text>
<text text-anchor="start" x="145.62" y="-345" font-family="Helvetica,sans-Serif" font-size="10.00">+</text>
<text text-anchor="start" x="161" y="-345" font-family="Helvetica,sans-Serif" font-size="10.00">depth</text>
<text text-anchor="start" x="167.62" y="-329.75" font-family="Helvetica,sans-Serif" font-size="10.00"> </text>
<polygon fill="#666666" stroke="#666666" points="136.25,-387 136.25,-387 202,-387 202,-387 136.25,-387"/>
<polygon fill="#666666" stroke="#666666" points="136.25,-341.25 136.25,-341.25 159,-341.25 159,-341.25 136.25,-341.25"/>
<polygon fill="#666666" stroke="#666666" points="159,-341.25 159,-341.25 202,-341.25 202,-341.25 159,-341.25"/>
<polygon fill="none" stroke="#666666" points="136.25,-324 136.25,-404.25 202,-404.25 202,-324 136.25,-324"/>
</a>
</g>
</g>
<!-- Node4&#45;&gt;Node2 -->
<g id="edge3_Node000002_Node000004" class="edge">
<title>Node4&#45;&gt;Node2</title>
<g id="a_edge3_Node000002_Node000004"><a xlink:title=" ">
<path fill="none" stroke="#63b8ff" d="M150.47,-324.12C143.55,-311.98 134.95,-299.07 125.12,-288.75 120.67,-284.07 115.69,-279.6 110.47,-275.41"/>
<polygon fill="none" stroke="#63b8ff" points="110.53,-275.46 103.33,-275.04 100.95,-268.24 108.15,-268.65 110.53,-275.46"/>
</a>
</g>
<text text-anchor="start" x="141.5" y="-293.5" font-family="Helvetica,sans-Serif" font-size="10.00" fill="grey">+shape</text>
</g>
<!-- Node4&#45;&gt;Node5 -->
<g id="edge6_Node000005_Node000004" class="edge">
<title>Node4&#45;&gt;Node5</title>
<g id="a_edge6_Node000005_Node000004"><a xlink:title=" ">
<path fill="none" stroke="#63b8ff" d="M182.35,-324.13C183.91,-318.12 185.26,-311.94 186.12,-306 187.23,-298.41 186.43,-296.41 186.12,-288.75 186.05,-287.01 185.97,-285.24 185.88,-283.45"/>
<polygon fill="none" stroke="#63b8ff" points="185.88,-283.52 181.5,-277.8 185.1,-271.55 189.48,-277.28 185.88,-283.52"/>
</a>
</g>
<text text-anchor="start" x="189.69" y="-293.5" font-family="Helvetica,sans-Serif" font-size="10.00" fill="grey">+shape</text>
</g>
<!-- Node5&#45;&gt;Node1 -->
<g id="edge4_Node000001_Node000005" class="edge">
<title>Node5&#45;&gt;Node1</title>
<g id="a_edge4_Node000001_Node000005"><a xlink:title=" ">
<path fill="none" stroke="#63b8ff" d="M173.18,-205.81C167.45,-186.6 159.53,-161.64 151.12,-140 150.29,-137.85 149.43,-135.68 148.54,-133.49"/>
<polygon fill="none" stroke="#63b8ff" points="148.59,-133.62 142.58,-129.63 143.95,-122.55 149.96,-126.54 148.59,-133.62"/>
</a>
</g>
<text text-anchor="start" x="170.55" y="-160" font-family="Helvetica,sans-Serif" font-size="10.00" fill="grey">+to_export_from</text>
</g>
</g>
</svg>
