<?xml version="1.0" encoding="UTF-8" standalone="no"?>
<!DOCTYPE svg PUBLIC "-//W3C//DTD SVG 1.1//EN"
 "http://www.w3.org/Graphics/SVG/1.1/DTD/svg11.dtd">
<!-- Generated by graphviz version 12.2.1 (20241206.2353)
 -->
<!-- Title: TTL_const_int_int_sub_tensor_t Pages: 1 -->
<svg width="291pt" height="336pt"
 viewBox="0.00 0.00 291.38 336.00" xmlns="http://www.w3.org/2000/svg" xmlns:xlink="http://www.w3.org/1999/xlink">
<g id="graph0" class="graph" transform="scale(1 1) rotate(0) translate(4 332)">
<title>TTL_const_int_int_sub_tensor_t</title>
<!-- Node1 -->
<g id="Node000001" class="node">
<title>Node1</title>
<g id="a_Node000001"><a xlink:title=" ">
<polygon fill="#999999" stroke="none" points="217.5,-61 109.75,-61 109.75,0 217.5,0 217.5,-61"/>
<text text-anchor="start" x="113.75" y="-47.5" font-family="Helvetica,sans-Serif" font-size="10.00">TTL_const_int_int_sub</text>
<text text-anchor="start" x="143.38" y="-36.25" font-family="Helvetica,sans-Serif" font-size="10.00">_tensor_t</text>
<text text-anchor="start" x="130.38" y="-21" font-family="Helvetica,sans-Serif" font-size="10.00">+</text>
<text text-anchor="start" x="157" y="-21" font-family="Helvetica,sans-Serif" font-size="10.00">origin</text>
<text text-anchor="start" x="162.12" y="-5.75" font-family="Helvetica,sans-Serif" font-size="10.00"> </text>
<polygon fill="#666666" stroke="#666666" points="109.75,-32.5 109.75,-32.5 217.5,-32.5 217.5,-32.5 109.75,-32.5"/>
<polygon fill="#666666" stroke="#666666" points="109.75,-17.25 109.75,-17.25 155,-17.25 155,-17.25 109.75,-17.25"/>
<polygon fill="#666666" stroke="#666666" points="155,-17.25 155,-17.25 217.5,-17.25 217.5,-17.25 155,-17.25"/>
<polygon fill="none" stroke="#666666" points="109.75,0 109.75,-61 217.5,-61 217.5,0 109.75,0"/>
</a>
</g>
</g>
<!-- Node2 -->
<g id="Node000002" class="node">
<title>Node2</title>
<g id="a_Node000002"><a xlink:href="structTTL__const__int__int__tensor__t.html" target="_top" xlink:title=" ">
<polygon fill="white" stroke="none" points="127.25,-186.88 0,-186.88 0,-121.88 127.25,-121.88 127.25,-186.88"/>
<text text-anchor="start" x="4" y="-173.38" font-family="Helvetica,sans-Serif" font-size="10.00">TTL_const_int_int_tensor_t</text>
<text text-anchor="start" x="20.44" y="-158.12" font-family="Helvetica,sans-Serif" font-size="10.00">+</text>
<text text-anchor="start" x="46.88" y="-158.12" font-family="Helvetica,sans-Serif" font-size="10.00">base</text>
<text text-anchor="start" x="20.44" y="-142.88" font-family="Helvetica,sans-Serif" font-size="10.00">+</text>
<text text-anchor="start" x="46.88" y="-142.88" font-family="Helvetica,sans-Serif" font-size="10.00">elem_size</text>
<text text-anchor="start" x="62.12" y="-127.62" font-family="Helvetica,sans-Serif" font-size="10.00"> </text>
<polygon fill="#666666" stroke="#666666" points="0,-169.62 0,-169.62 127.25,-169.62 127.25,-169.62 0,-169.62"/>
<polygon fill="#666666" stroke="#666666" points="0,-139.12 0,-139.12 44.88,-139.12 44.88,-139.12 0,-139.12"/>
<polygon fill="#666666" stroke="#666666" points="44.88,-139.12 44.88,-139.12 127.25,-139.12 127.25,-139.12 44.88,-139.12"/>
<polygon fill="none" stroke="#666666" points="0,-121.88 0,-186.88 127.25,-186.88 127.25,-121.88 0,-121.88"/>
</a>
</g>
</g>
<!-- Node2&#45;&gt;Node1 -->
<g id="edge1_Node000001_Node000002" class="edge">
<title>Node2&#45;&gt;Node1</title>
<g id="a_edge1_Node000001_Node000002"><a xlink:title=" ">
<path fill="none" stroke="#63b8ff" d="M80.81,-122.02C89.02,-108.22 99.48,-92.18 110.62,-79 113.26,-75.89 116.09,-72.79 119.03,-69.75"/>
<polygon fill="none" stroke="#63b8ff" points="118.87,-69.9 120.35,-62.85 127.43,-61.5 125.96,-68.55 118.87,-69.9"/>
</a>
</g>
<text text-anchor="start" x="113.62" y="-83.75" font-family="Helvetica,sans-Serif" font-size="10.00" fill="grey">+tensor</text>
</g>
<!-- Node3 -->
<g id="Node000003" class="node">
<title>Node3</title>
<g id="a_Node000003"><a xlink:href="structTTL__layout__t.html" target="_top" xlink:title="Description of a Tensor layout in memory.">
<polygon fill="white" stroke="none" points="89.75,-320.38 9.5,-320.38 9.5,-255.38 89.75,-255.38 89.75,-320.38"/>
<text text-anchor="start" x="21.12" y="-306.88" font-family="Helvetica,sans-Serif" font-size="10.00">TTL_layout_t</text>
<text text-anchor="start" x="13.5" y="-291.62" font-family="Helvetica,sans-Serif" font-size="10.00">+</text>
<text text-anchor="start" x="23.5" y="-291.62" font-family="Helvetica,sans-Serif" font-size="10.00">row_spacing</text>
<text text-anchor="start" x="13.5" y="-276.38" font-family="Helvetica,sans-Serif" font-size="10.00">+</text>
<text text-anchor="start" x="23.5" y="-276.38" font-family="Helvetica,sans-Serif" font-size="10.00">plane_spacing</text>
<text text-anchor="start" x="48.12" y="-261.12" font-family="Helvetica,sans-Serif" font-size="10.00"> </text>
<polygon fill="#666666" stroke="#666666" points="9.5,-303.12 9.5,-303.12 89.75,-303.12 89.75,-303.12 9.5,-303.12"/>
<polygon fill="#666666" stroke="#666666" points="9.5,-272.62 9.5,-272.62 21.5,-272.62 21.5,-272.62 9.5,-272.62"/>
<polygon fill="#666666" stroke="#666666" points="21.5,-272.62 21.5,-272.62 89.75,-272.62 89.75,-272.62 21.5,-272.62"/>
<polygon fill="none" stroke="#666666" points="9.5,-255.38 9.5,-320.38 89.75,-320.38 89.75,-255.38 9.5,-255.38"/>
</a>
</g>
</g>
<!-- Node3&#45;&gt;Node2 -->
<g id="edge2_Node000002_Node000003" class="edge">
<title>Node3&#45;&gt;Node2</title>
<g id="a_edge2_Node000002_Node000003"><a xlink:title=" ">
<path fill="none" stroke="#63b8ff" d="M48.9,-255.66C48.94,-242.32 49.46,-226.61 51.12,-212.5 51.64,-208.13 52.34,-203.61 53.15,-199.11"/>
<polygon fill="none" stroke="#63b8ff" points="53.11,-199.27 50.36,-192.6 55.46,-187.5 58.21,-194.17 53.11,-199.27"/>
</a>
</g>
<text text-anchor="start" x="54.12" y="-217.25" font-family="Helvetica,sans-Serif" font-size="10.00" fill="grey">+layout</text>
</g>
<!-- Node4 -->
<g id="Node000004" class="node">
<title>Node4</title>
<g id="a_Node000004"><a xlink:href="structTTL__shape__t.html" target="_top" xlink:title="Description of a Shape.">
<polygon fill="white" stroke="none" points="184.5,-328 118.75,-328 118.75,-247.75 184.5,-247.75 184.5,-328"/>
<text text-anchor="start" x="122.75" y="-314.5" font-family="Helvetica,sans-Serif" font-size="10.00">TTL_shape_t</text>
<text text-anchor="start" x="128.12" y="-299.25" font-family="Helvetica,sans-Serif" font-size="10.00">+</text>
<text text-anchor="start" x="143.5" y="-299.25" font-family="Helvetica,sans-Serif" font-size="10.00">width</text>
<text text-anchor="start" x="128.12" y="-284" font-family="Helvetica,sans-Serif" font-size="10.00">+</text>
<text text-anchor="start" x="143.5" y="-284" font-family="Helvetica,sans-Serif" font-size="10.00">height</text>
<text text-anchor="start" x="128.12" y="-268.75" font-family="Helvetica,sans-Serif" font-size="10.00">+</text>
<text text-anchor="start" x="143.5" y="-268.75" font-family="Helvetica,sans-Serif" font-size="10.00">depth</text>
<text text-anchor="start" x="150.12" y="-253.5" font-family="Helvetica,sans-Serif" font-size="10.00"> </text>
<polygon fill="#666666" stroke="#666666" points="118.75,-310.75 118.75,-310.75 184.5,-310.75 184.5,-310.75 118.75,-310.75"/>
<polygon fill="#666666" stroke="#666666" points="118.75,-265 118.75,-265 141.5,-265 141.5,-265 118.75,-265"/>
<polygon fill="#666666" stroke="#666666" points="141.5,-265 141.5,-265 184.5,-265 184.5,-265 141.5,-265"/>
<polygon fill="none" stroke="#666666" points="118.75,-247.75 118.75,-328 184.5,-328 184.5,-247.75 118.75,-247.75"/>
</a>
</g>
</g>
<!-- Node4&#45;&gt;Node1 -->
<g id="edge4_Node000001_Node000004" class="edge">
<title>Node4&#45;&gt;Node1</title>
<g id="a_edge4_Node000001_Node000004"><a xlink:title=" ">
<path fill="none" stroke="#63b8ff" d="M153.46,-247.81C155.68,-200.68 159.38,-121.77 161.66,-73.41"/>
<polygon fill="none" stroke="#63b8ff" points="161.65,-73.52 157.94,-67.34 162.21,-61.53 165.93,-67.71 161.65,-73.52"/>
</a>
</g>
<text text-anchor="start" x="162.59" y="-150.5" font-family="Helvetica,sans-Serif" font-size="10.00" fill="grey">+shape</text>
</g>
<!-- Node4&#45;&gt;Node2 -->
<g id="edge3_Node000002_Node000004" class="edge">
<title>Node4&#45;&gt;Node2</title>
<g id="a_edge3_Node000002_Node000004"><a xlink:title=" ">
<path fill="none" stroke="#63b8ff" d="M123.9,-248C119.66,-241.92 115.37,-235.69 111.38,-229.75 104.38,-219.36 96.99,-208.03 90.17,-197.42"/>
<polygon fill="none" stroke="#63b8ff" points="90.26,-197.56 83.66,-194.66 83.79,-187.45 90.4,-190.35 90.26,-197.56"/>
</a>
</g>
<text text-anchor="start" x="114.38" y="-217.25" font-family="Helvetica,sans-Serif" font-size="10.00" fill="grey">+shape</text>
</g>
<!-- Node5 -->
<g id="Node000005" class="node">
<title>Node5</title>
<g id="a_Node000005"><a xlink:href="structTTL__offset__t.html" target="_top" xlink:title="Description of the 3D offset of an object.">
<polygon fill="white" stroke="none" points="283.38,-194.5 219.88,-194.5 219.88,-114.25 283.38,-114.25 283.38,-194.5"/>
<text text-anchor="start" x="223.88" y="-181" font-family="Helvetica,sans-Serif" font-size="10.00">TTL_offset_t</text>
<text text-anchor="start" x="234.12" y="-165.75" font-family="Helvetica,sans-Serif" font-size="10.00">+</text>
<text text-anchor="start" x="254.38" y="-165.75" font-family="Helvetica,sans-Serif" font-size="10.00">x</text>
<text text-anchor="start" x="234.12" y="-150.5" font-family="Helvetica,sans-Serif" font-size="10.00">+</text>
<text text-anchor="start" x="254.38" y="-150.5" font-family="Helvetica,sans-Serif" font-size="10.00">y</text>
<text text-anchor="start" x="234.12" y="-135.25" font-family="Helvetica,sans-Serif" font-size="10.00">+</text>
<text text-anchor="start" x="254.38" y="-135.25" font-family="Helvetica,sans-Serif" font-size="10.00">z</text>
<text text-anchor="start" x="250.12" y="-120" font-family="Helvetica,sans-Serif" font-size="10.00"> </text>
<polygon fill="#666666" stroke="#666666" points="219.88,-177.25 219.88,-177.25 283.38,-177.25 283.38,-177.25 219.88,-177.25"/>
<polygon fill="#666666" stroke="#666666" points="219.88,-131.5 219.88,-131.5 252.38,-131.5 252.38,-131.5 219.88,-131.5"/>
<polygon fill="#666666" stroke="#666666" points="252.38,-131.5 252.38,-131.5 283.38,-131.5 283.38,-131.5 252.38,-131.5"/>
<polygon fill="none" stroke="#666666" points="219.88,-114.25 219.88,-194.5 283.38,-194.5 283.38,-114.25 219.88,-114.25"/>
</a>
</g>
</g>
<!-- Node5&#45;&gt;Node1 -->
<g id="edge5_Node000001_Node000005" class="edge">
<title>Node5&#45;&gt;Node1</title>
<g id="a_edge5_Node000001_Node000005"><a xlink:title=" ">
<path fill="none" stroke="#63b8ff" d="M223.54,-114.48C213.52,-100.6 202.22,-84.96 192.17,-71.03"/>
<polygon fill="none" stroke="#63b8ff" points="192.31,-71.23 185.55,-68.7 185.28,-61.5 192.04,-64.02 192.31,-71.23"/>
</a>
</g>
<text text-anchor="start" x="213.26" y="-83.75" font-family="Helvetica,sans-Serif" font-size="10.00" fill="grey">+sub_offset</text>
</g>
</g>
</svg>
