<?xml version="1.0" encoding="UTF-8" standalone="no"?>
<!DOCTYPE svg PUBLIC "-//W3C//DTD SVG 1.1//EN"
 "http://www.w3.org/Graphics/SVG/1.1/DTD/svg11.dtd">
<!-- Generated by graphviz version 12.2.1 (20241206.2353)
 -->
<!-- Title: TTL_duplex_const_char_tensor_buffering_t Pages: 1 -->
<svg width="245pt" height="424pt"
 viewBox="0.00 0.00 245.14 423.50" xmlns="http://www.w3.org/2000/svg" xmlns:xlink="http://www.w3.org/1999/xlink">
<g id="graph0" class="graph" transform="scale(1 1) rotate(0) translate(4 419.5)">
<title>TTL_duplex_const_char_tensor_buffering_t</title>
<!-- Node1 -->
<g id="Node000001" class="node">
<title>Node1</title>
<g id="a_Node000001"><a xlink:title="Data required to perform duplex buffer pipelining.">
<polygon fill="#999999" stroke="none" points="169.38,-122 57.12,-122 57.12,0 169.38,0 169.38,-122"/>
<text text-anchor="start" x="61.12" y="-108.5" font-family="Helvetica,sans-Serif" font-size="10.00">TTL_duplex_const_char</text>
<text text-anchor="start" x="72" y="-97.25" font-family="Helvetica,sans-Serif" font-size="10.00">_tensor_buffering_t</text>
<text text-anchor="start" x="65.94" y="-82" font-family="Helvetica,sans-Serif" font-size="10.00">+</text>
<text text-anchor="start" x="80.75" y="-82" font-family="Helvetica,sans-Serif" font-size="10.00">index</text>
<text text-anchor="start" x="65.94" y="-66.75" font-family="Helvetica,sans-Serif" font-size="10.00">+</text>
<text text-anchor="start" x="80.75" y="-66.75" font-family="Helvetica,sans-Serif" font-size="10.00">int_base</text>
<text text-anchor="start" x="65.94" y="-51.5" font-family="Helvetica,sans-Serif" font-size="10.00">+</text>
<text text-anchor="start" x="80.75" y="-51.5" font-family="Helvetica,sans-Serif" font-size="10.00">common</text>
<text text-anchor="start" x="65.94" y="-36.25" font-family="Helvetica,sans-Serif" font-size="10.00">+</text>
<text text-anchor="start" x="80.75" y="-36.25" font-family="Helvetica,sans-Serif" font-size="10.00">events</text>
<text text-anchor="start" x="65.94" y="-21" font-family="Helvetica,sans-Serif" font-size="10.00">+</text>
<text text-anchor="start" x="80.75" y="-21" font-family="Helvetica,sans-Serif" font-size="10.00">prev_out_tensors</text>
<text text-anchor="start" x="111.75" y="-5.75" font-family="Helvetica,sans-Serif" font-size="10.00"> </text>
<polygon fill="#666666" stroke="#666666" points="57.12,-93.5 57.12,-93.5 169.38,-93.5 169.38,-93.5 57.12,-93.5"/>
<polygon fill="#666666" stroke="#666666" points="57.12,-17.25 57.12,-17.25 78.75,-17.25 78.75,-17.25 57.12,-17.25"/>
<polygon fill="#666666" stroke="#666666" points="78.75,-17.25 78.75,-17.25 169.38,-17.25 169.38,-17.25 78.75,-17.25"/>
<polygon fill="none" stroke="#666666" points="57.12,0 57.12,-122 169.38,-122 169.38,0 57.12,0"/>
</a>
</g>
</g>
<!-- Node2 -->
<g id="Node000002" class="node">
<title>Node2</title>
<g id="a_Node000002"><a xlink:href="structTTL__ext__char__tensor__t.html" target="_top" xlink:title="const and non&#45;const tensors in the appropriate address space">
<polygon fill="white" stroke="none" points="108.5,-276.38 0,-276.38 0,-211.38 108.5,-211.38 108.5,-276.38"/>
<text text-anchor="start" x="4" y="-262.88" font-family="Helvetica,sans-Serif" font-size="10.00">TTL_ext_char_tensor_t</text>
<text text-anchor="start" x="15.75" y="-247.62" font-family="Helvetica,sans-Serif" font-size="10.00">+</text>
<text text-anchor="start" x="37.5" y="-247.62" font-family="Helvetica,sans-Serif" font-size="10.00">base</text>
<text text-anchor="start" x="15.75" y="-232.38" font-family="Helvetica,sans-Serif" font-size="10.00">+</text>
<text text-anchor="start" x="37.5" y="-232.38" font-family="Helvetica,sans-Serif" font-size="10.00">elem_size</text>
<text text-anchor="start" x="52.75" y="-217.12" font-family="Helvetica,sans-Serif" font-size="10.00"> </text>
<polygon fill="#666666" stroke="#666666" points="0,-259.12 0,-259.12 108.5,-259.12 108.5,-259.12 0,-259.12"/>
<polygon fill="#666666" stroke="#666666" points="0,-228.62 0,-228.62 35.5,-228.62 35.5,-228.62 0,-228.62"/>
<polygon fill="#666666" stroke="#666666" points="35.5,-228.62 35.5,-228.62 108.5,-228.62 108.5,-228.62 35.5,-228.62"/>
<polygon fill="none" stroke="#666666" points="0,-211.38 0,-276.38 108.5,-276.38 108.5,-211.38 0,-211.38"/>
</a>
</g>
</g>
<!-- Node2&#45;&gt;Node1 -->
<g id="edge1_Node000001_Node000002" class="edge">
<title>Node2&#45;&gt;Node1</title>
<g id="a_edge1_Node000001_Node000002"><a xlink:title=" ">
<path fill="none" stroke="#63b8ff" d="M56.38,-211.59C58.46,-190.85 62.55,-163.27 70.5,-140 71.2,-137.94 71.96,-135.87 72.76,-133.8"/>
<polygon fill="none" stroke="#63b8ff" points="72.74,-133.84 71.39,-126.76 77.42,-122.79 78.76,-129.87 72.74,-133.84"/>
</a>
</g>
<text text-anchor="start" x="73.5" y="-175.25" font-family="Helvetica,sans-Serif" font-size="10.00" fill="grey">+ext_tensor_in</text>
<text text-anchor="start" x="73.5" y="-160" font-family="Helvetica,sans-Serif" font-size="10.00" fill="grey">+ext_tensor_out</text>
<text text-anchor="start" x="73.5" y="-144.75" font-family="Helvetica,sans-Serif" font-size="10.00" fill="grey">+to_export_to</text>
</g>
<!-- Node3 -->
<g id="Node000003" class="node">
<title>Node3</title>
<g id="a_Node000003"><a xlink:href="structTTL__layout__t.html" target="_top" xlink:title="Description of a Tensor layout in memory.">
<polygon fill="white" stroke="none" points="101.38,-407.88 21.12,-407.88 21.12,-342.88 101.38,-342.88 101.38,-407.88"/>
<text text-anchor="start" x="32.75" y="-394.38" font-family="Helvetica,sans-Serif" font-size="10.00">TTL_layout_t</text>
<text text-anchor="start" x="25.12" y="-379.12" font-family="Helvetica,sans-Serif" font-size="10.00">+</text>
<text text-anchor="start" x="35.12" y="-379.12" font-family="Helvetica,sans-Serif" font-size="10.00">row_spacing</text>
<text text-anchor="start" x="25.12" y="-363.88" font-family="Helvetica,sans-Serif" font-size="10.00">+</text>
<text text-anchor="start" x="35.12" y="-363.88" font-family="Helvetica,sans-Serif" font-size="10.00">plane_spacing</text>
<text text-anchor="start" x="59.75" y="-348.62" font-family="Helvetica,sans-Serif" font-size="10.00"> </text>
<polygon fill="#666666" stroke="#666666" points="21.12,-390.62 21.12,-390.62 101.38,-390.62 101.38,-390.62 21.12,-390.62"/>
<polygon fill="#666666" stroke="#666666" points="21.12,-360.12 21.12,-360.12 33.12,-360.12 33.12,-360.12 21.12,-360.12"/>
<polygon fill="#666666" stroke="#666666" points="33.12,-360.12 33.12,-360.12 101.38,-360.12 101.38,-360.12 33.12,-360.12"/>
<polygon fill="none" stroke="#666666" points="21.12,-342.88 21.12,-407.88 101.38,-407.88 101.38,-342.88 21.12,-342.88"/>
</a>
</g>
</g>
<!-- Node3&#45;&gt;Node2 -->
<g id="edge2_Node000002_Node000003" class="edge">
<title>Node3&#45;&gt;Node2</title>
<g id="a_edge2_Node000002_Node000003"><a xlink:title=" ">
<path fill="none" stroke="#63b8ff" d="M36.77,-343.01C31.83,-335.03 27.36,-326.17 24.75,-317.25 21.91,-307.54 23.23,-297.35 26.52,-287.79"/>
<polygon fill="none" stroke="#63b8ff" points="26.46,-287.92 25.17,-280.83 31.22,-276.91 32.51,-284 26.46,-287.92"/>
</a>
</g>
<text text-anchor="start" x="27.75" y="-304.75" font-family="Helvetica,sans-Serif" font-size="10.00" fill="grey">+layout</text>
</g>
<!-- Node5 -->
<g id="Node000005" class="node">
<title>Node5</title>
<g id="a_Node000005"><a xlink:href="structTTL__const__int__char__tensor__t.html" target="_top" xlink:title=" ">
<polygon fill="white" stroke="none" points="221.75,-282 126.75,-282 126.75,-205.75 221.75,-205.75 221.75,-282"/>
<text text-anchor="start" x="130.75" y="-268.5" font-family="Helvetica,sans-Serif" font-size="10.00">TTL_const_int_char</text>
<text text-anchor="start" x="154" y="-257.25" font-family="Helvetica,sans-Serif" font-size="10.00">_tensor_t</text>
<text text-anchor="start" x="139.12" y="-242" font-family="Helvetica,sans-Serif" font-size="10.00">+</text>
<text text-anchor="start" x="157.5" y="-242" font-family="Helvetica,sans-Serif" font-size="10.00">base</text>
<text text-anchor="start" x="139.12" y="-226.75" font-family="Helvetica,sans-Serif" font-size="10.00">+</text>
<text text-anchor="start" x="157.5" y="-226.75" font-family="Helvetica,sans-Serif" font-size="10.00">elem_size</text>
<text text-anchor="start" x="172.75" y="-211.5" font-family="Helvetica,sans-Serif" font-size="10.00"> </text>
<polygon fill="#666666" stroke="#666666" points="126.75,-253.5 126.75,-253.5 221.75,-253.5 221.75,-253.5 126.75,-253.5"/>
<polygon fill="#666666" stroke="#666666" points="126.75,-223 126.75,-223 155.5,-223 155.5,-223 126.75,-223"/>
<polygon fill="#666666" stroke="#666666" points="155.5,-223 155.5,-223 221.75,-223 221.75,-223 155.5,-223"/>
<polygon fill="none" stroke="#666666" points="126.75,-205.75 126.75,-282 221.75,-282 221.75,-205.75 126.75,-205.75"/>
</a>
</g>
</g>
<!-- Node3&#45;&gt;Node5 -->
<g id="edge5_Node000005_Node000003" class="edge">
<title>Node3&#45;&gt;Node5</title>
<g id="a_edge5_Node000005_Node000003"><a xlink:title=" ">
<path fill="none" stroke="#63b8ff" d="M64.05,-343.14C66.7,-328.71 71.83,-312.13 81.75,-300 91.02,-288.66 98.77,-289.82 115.35,-282.27"/>
<polygon fill="none" stroke="#63b8ff" points="115.46,-282.22 118.94,-275.9 126.1,-276.68 122.63,-282.99 115.46,-282.22"/>
</a>
</g>
<text text-anchor="start" x="84.75" y="-304.75" font-family="Helvetica,sans-Serif" font-size="10.00" fill="grey">+layout</text>
</g>
<!-- Node4 -->
<g id="Node000004" class="node">
<title>Node4</title>
<g id="a_Node000004"><a xlink:href="structTTL__shape__t.html" target="_top" xlink:title="Description of a Shape.">
<polygon fill="white" stroke="none" points="200.12,-415.5 134.38,-415.5 134.38,-335.25 200.12,-335.25 200.12,-415.5"/>
<text text-anchor="start" x="138.38" y="-402" font-family="Helvetica,sans-Serif" font-size="10.00">TTL_shape_t</text>
<text text-anchor="start" x="143.75" y="-386.75" font-family="Helvetica,sans-Serif" font-size="10.00">+</text>
<text text-anchor="start" x="159.12" y="-386.75" font-family="Helvetica,sans-Serif" font-size="10.00">width</text>
<text text-anchor="start" x="143.75" y="-371.5" font-family="Helvetica,sans-Serif" font-size="10.00">+</text>
<text text-anchor="start" x="159.12" y="-371.5" font-family="Helvetica,sans-Serif" font-size="10.00">height</text>
<text text-anchor="start" x="143.75" y="-356.25" font-family="Helvetica,sans-Serif" font-size="10.00">+</text>
<text text-anchor="start" x="159.12" y="-356.25" font-family="Helvetica,sans-Serif" font-size="10.00">depth</text>
<text text-anchor="start" x="165.75" y="-341" font-family="Helvetica,sans-Serif" font-size="10.00"> </text>
<polygon fill="#666666" stroke="#666666" points="134.38,-398.25 134.38,-398.25 200.12,-398.25 200.12,-398.25 134.38,-398.25"/>
<polygon fill="#666666" stroke="#666666" points="134.38,-352.5 134.38,-352.5 157.12,-352.5 157.12,-352.5 134.38,-352.5"/>
<polygon fill="#666666" stroke="#666666" points="157.12,-352.5 157.12,-352.5 200.12,-352.5 200.12,-352.5 157.12,-352.5"/>
<polygon fill="none" stroke="#666666" points="134.38,-335.25 134.38,-415.5 200.12,-415.5 200.12,-335.25 134.38,-335.25"/>
</a>
</g>
</g>
<!-- Node4&#45;&gt;Node2 -->
<g id="edge3_Node000002_Node000004" class="edge">
<title>Node4&#45;&gt;Node2</title>
<g id="a_edge3_Node000002_Node000004"><a xlink:title=" ">
<path fill="none" stroke="#63b8ff" d="M147.8,-335.51C140.89,-323.5 132.5,-310.64 123.25,-300 118.66,-294.72 113.52,-289.57 108.16,-284.67"/>
<polygon fill="none" stroke="#63b8ff" points="108.1,-284.62 100.95,-283.7 99.04,-276.75 106.2,-277.67 108.1,-284.62"/>
</a>
</g>
<text text-anchor="start" x="139.16" y="-304.75" font-family="Helvetica,sans-Serif" font-size="10.00" fill="grey">+shape</text>
</g>
<!-- Node4&#45;&gt;Node5 -->
<g id="edge6_Node000005_Node000004" class="edge">
<title>Node4&#45;&gt;Node5</title>
<g id="a_edge6_Node000005_Node000004"><a xlink:title=" ">
<path fill="none" stroke="#63b8ff" d="M180.48,-335.38C182.04,-329.37 183.39,-323.19 184.25,-317.25 185.31,-309.94 185.38,-302.22 184.84,-294.64"/>
<polygon fill="none" stroke="#63b8ff" points="184.83,-294.53 180.18,-289.02 183.48,-282.6 188.13,-288.12 184.83,-294.53"/>
</a>
</g>
<text text-anchor="start" x="188.17" y="-304.75" font-family="Helvetica,sans-Serif" font-size="10.00" fill="grey">+shape</text>
</g>
<!-- Node5&#45;&gt;Node1 -->
<g id="edge4_Node000001_Node000005" class="edge">
<title>Node5&#45;&gt;Node1</title>
<g id="a_edge4_Node000001_Node000005"><a xlink:title=" ">
<path fill="none" stroke="#63b8ff" d="M165.46,-205.85C160.45,-186.11 153.69,-161.52 146.25,-140 145.54,-137.95 144.8,-135.87 144.04,-133.78"/>
<polygon fill="none" stroke="#63b8ff" points="144.05,-133.79 138.18,-129.6 139.8,-122.57 145.66,-126.77 144.05,-133.79"/>
</a>
</g>
<text text-anchor="start" x="163.64" y="-160" font-family="Helvetica,sans-Serif" font-size="10.00" fill="grey">+to_export_from</text>
</g>
</g>
</svg>
