<?xml version="1.0" encoding="UTF-8" standalone="no"?>
<!DOCTYPE svg PUBLIC "-//W3C//DTD SVG 1.1//EN"
 "http://www.w3.org/Graphics/SVG/1.1/DTD/svg11.dtd">
<!-- Generated by graphviz version 12.2.1 (20241206.2353)
 -->
<!-- Title: TTL_io_void_tensor_t Pages: 1 -->
<svg width="282pt" height="443pt"
 viewBox="0.00 0.00 281.88 443.00" xmlns="http://www.w3.org/2000/svg" xmlns:xlink="http://www.w3.org/1999/xlink">
<g id="graph0" class="graph" transform="scale(1 1) rotate(0) translate(4 439)">
<title>TTL_io_void_tensor_t</title>
<!-- Node1 -->
<g id="Node000001" class="node">
<title>Node1</title>
<g id="a_Node000001"><a xlink:title="Describes a pair of internal Tensors after an operation.">
<polygon fill="#999999" stroke="none" points="205.38,-49.75 102.88,-49.75 102.88,0 205.38,0 205.38,-49.75"/>
<text text-anchor="start" x="106.88" y="-36.25" font-family="Helvetica,sans-Serif" font-size="10.00">TTL_io_void_tensor_t</text>
<text text-anchor="start" x="152.62" y="-21" font-family="Helvetica,sans-Serif" font-size="10.00"> </text>
<text text-anchor="start" x="152.62" y="-5.75" font-family="Helvetica,sans-Serif" font-size="10.00"> </text>
<polygon fill="#666666" stroke="#666666" points="102.88,-32.5 102.88,-32.5 205.38,-32.5 205.38,-32.5 102.88,-32.5"/>
<polygon fill="#666666" stroke="#666666" points="102.88,-17.25 102.88,-17.25 205.38,-17.25 205.38,-17.25 102.88,-17.25"/>
<polygon fill="none" stroke="#666666" points="102.88,0 102.88,-49.75 205.38,-49.75 205.38,0 102.88,0"/>
</a>
</g>
</g>
<!-- Node2 -->
<g id="Node000002" class="node">
<title>Node2</title>
<g id="a_Node000002"><a xlink:href="structTTL__int__void__sub__tensor__t.html" target="_top" xlink:title="const and non&#45;const sub tensors in the appropriate address space">
<polygon fill="white" stroke="none" points="217.38,-168 90.88,-168 90.88,-118.25 217.38,-118.25 217.38,-168"/>
<text text-anchor="start" x="94.88" y="-154.5" font-family="Helvetica,sans-Serif" font-size="10.00">TTL_int_void_sub_tensor_t</text>
<text text-anchor="start" x="116.19" y="-139.25" font-family="Helvetica,sans-Serif" font-size="10.00">+</text>
<text text-anchor="start" x="147.5" y="-139.25" font-family="Helvetica,sans-Serif" font-size="10.00">origin</text>
<text text-anchor="start" x="152.62" y="-124" font-family="Helvetica,sans-Serif" font-size="10.00"> </text>
<polygon fill="#666666" stroke="#666666" points="90.88,-150.75 90.88,-150.75 217.38,-150.75 217.38,-150.75 90.88,-150.75"/>
<polygon fill="#666666" stroke="#666666" points="90.88,-135.5 90.88,-135.5 145.5,-135.5 145.5,-135.5 90.88,-135.5"/>
<polygon fill="#666666" stroke="#666666" points="145.5,-135.5 145.5,-135.5 217.38,-135.5 217.38,-135.5 145.5,-135.5"/>
<polygon fill="none" stroke="#666666" points="90.88,-118.25 90.88,-168 217.38,-168 217.38,-118.25 90.88,-118.25"/>
</a>
</g>
</g>
<!-- Node2&#45;&gt;Node1 -->
<g id="edge1_Node000001_Node000002" class="edge">
<title>Node2&#45;&gt;Node1</title>
<g id="a_edge1_Node000001_Node000002"><a xlink:title=" ">
<path fill="none" stroke="#63b8ff" d="M154.12,-118.32C154.12,-102.26 154.12,-80.74 154.12,-62.51"/>
<polygon fill="none" stroke="#63b8ff" points="154.13,-62.55 150.13,-56.55 154.13,-50.55 158.13,-56.55 154.13,-62.55"/>
</a>
</g>
<text text-anchor="start" x="157.12" y="-87.75" font-family="Helvetica,sans-Serif" font-size="10.00" fill="grey">+imported_to</text>
<text text-anchor="start" x="157.12" y="-72.5" font-family="Helvetica,sans-Serif" font-size="10.00" fill="grey">+to_export_from</text>
</g>
<!-- Node3 -->
<g id="Node000003" class="node">
<title>Node3</title>
<g id="a_Node000003"><a xlink:href="structTTL__int__void__tensor__t.html" target="_top" xlink:title="const and non&#45;const tensors in the appropriate address space">
<polygon fill="white" stroke="none" points="117.88,-293.88 12.38,-293.88 12.38,-228.88 117.88,-228.88 117.88,-293.88"/>
<text text-anchor="start" x="16.38" y="-280.38" font-family="Helvetica,sans-Serif" font-size="10.00">TTL_int_void_tensor_t</text>
<text text-anchor="start" x="27.38" y="-265.12" font-family="Helvetica,sans-Serif" font-size="10.00">+</text>
<text text-anchor="start" x="48.38" y="-265.12" font-family="Helvetica,sans-Serif" font-size="10.00">base</text>
<text text-anchor="start" x="27.38" y="-249.88" font-family="Helvetica,sans-Serif" font-size="10.00">+</text>
<text text-anchor="start" x="48.38" y="-249.88" font-family="Helvetica,sans-Serif" font-size="10.00">elem_size</text>
<text text-anchor="start" x="63.62" y="-234.62" font-family="Helvetica,sans-Serif" font-size="10.00"> </text>
<polygon fill="#666666" stroke="#666666" points="12.38,-276.62 12.38,-276.62 117.88,-276.62 117.88,-276.62 12.38,-276.62"/>
<polygon fill="#666666" stroke="#666666" points="12.38,-246.12 12.38,-246.12 46.38,-246.12 46.38,-246.12 12.38,-246.12"/>
<polygon fill="#666666" stroke="#666666" points="46.38,-246.12 46.38,-246.12 117.88,-246.12 117.88,-246.12 46.38,-246.12"/>
<polygon fill="none" stroke="#666666" points="12.38,-228.88 12.38,-293.88 117.88,-293.88 117.88,-228.88 12.38,-228.88"/>
</a>
</g>
</g>
<!-- Node3&#45;&gt;Node2 -->
<g id="edge2_Node000002_Node000003" class="edge">
<title>Node3&#45;&gt;Node2</title>
<g id="a_edge2_Node000002_Node000003"><a xlink:title=" ">
<path fill="none" stroke="#63b8ff" d="M76.62,-228.88C82.63,-214.9 90.89,-198.75 101.12,-186 103.73,-182.75 106.63,-179.6 109.7,-176.58"/>
<polygon fill="none" stroke="#63b8ff" points="109.68,-176.6 111.46,-169.61 118.59,-168.56 116.82,-175.55 109.68,-176.6"/>
</a>
</g>
<text text-anchor="start" x="104.12" y="-190.75" font-family="Helvetica,sans-Serif" font-size="10.00" fill="grey">+tensor</text>
</g>
<!-- Node4 -->
<g id="Node000004" class="node">
<title>Node4</title>
<g id="a_Node000004"><a xlink:href="structTTL__layout__t.html" target="_top" xlink:title="Description of a Tensor layout in memory.">
<polygon fill="white" stroke="none" points="80.25,-427.38 0,-427.38 0,-362.38 80.25,-362.38 80.25,-427.38"/>
<text text-anchor="start" x="11.62" y="-413.88" font-family="Helvetica,sans-Serif" font-size="10.00">TTL_layout_t</text>
<text text-anchor="start" x="4" y="-398.62" font-family="Helvetica,sans-Serif" font-size="10.00">+</text>
<text text-anchor="start" x="14" y="-398.62" font-family="Helvetica,sans-Serif" font-size="10.00">row_spacing</text>
<text text-anchor="start" x="4" y="-383.38" font-family="Helvetica,sans-Serif" font-size="10.00">+</text>
<text text-anchor="start" x="14" y="-383.38" font-family="Helvetica,sans-Serif" font-size="10.00">plane_spacing</text>
<text text-anchor="start" x="38.62" y="-368.12" font-family="Helvetica,sans-Serif" font-size="10.00"> </text>
<polygon fill="#666666" stroke="#666666" points="0,-410.12 0,-410.12 80.25,-410.12 80.25,-410.12 0,-410.12"/>
<polygon fill="#666666" stroke="#666666" points="0,-379.62 0,-379.62 12,-379.62 12,-379.62 0,-379.62"/>
<polygon fill="#666666" stroke="#666666" points="12,-379.62 12,-379.62 80.25,-379.62 80.25,-379.62 12,-379.62"/>
<polygon fill="none" stroke="#666666" points="0,-362.38 0,-427.38 80.25,-427.38 80.25,-362.38 0,-362.38"/>
</a>
</g>
</g>
<!-- Node4&#45;&gt;Node3 -->
<g id="edge3_Node000003_Node000004" class="edge">
<title>Node4&#45;&gt;Node3</title>
<g id="a_edge3_Node000003_Node000004"><a xlink:title=" ">
<path fill="none" stroke="#63b8ff" d="M38.21,-362.47C38.05,-349.1 38.73,-333.41 41.62,-319.5 42.58,-314.93 43.89,-310.26 45.4,-305.65"/>
<polygon fill="none" stroke="#63b8ff" points="45.33,-305.84 43.66,-298.83 49.49,-294.59 51.16,-301.6 45.33,-305.84"/>
</a>
</g>
<text text-anchor="start" x="44.62" y="-324.25" font-family="Helvetica,sans-Serif" font-size="10.00" fill="grey">+layout</text>
</g>
<!-- Node5 -->
<g id="Node000005" class="node">
<title>Node5</title>
<g id="a_Node000005"><a xlink:href="structTTL__shape__t.html" target="_top" xlink:title="Description of a Shape.">
<polygon fill="white" stroke="none" points="175,-435 109.25,-435 109.25,-354.75 175,-354.75 175,-435"/>
<text text-anchor="start" x="113.25" y="-421.5" font-family="Helvetica,sans-Serif" font-size="10.00">TTL_shape_t</text>
<text text-anchor="start" x="118.62" y="-406.25" font-family="Helvetica,sans-Serif" font-size="10.00">+</text>
<text text-anchor="start" x="134" y="-406.25" font-family="Helvetica,sans-Serif" font-size="10.00">width</text>
<text text-anchor="start" x="118.62" y="-391" font-family="Helvetica,sans-Serif" font-size="10.00">+</text>
<text text-anchor="start" x="134" y="-391" font-family="Helvetica,sans-Serif" font-size="10.00">height</text>
<text text-anchor="start" x="118.62" y="-375.75" font-family="Helvetica,sans-Serif" font-size="10.00">+</text>
<text text-anchor="start" x="134" y="-375.75" font-family="Helvetica,sans-Serif" font-size="10.00">depth</text>
<text text-anchor="start" x="140.62" y="-360.5" font-family="Helvetica,sans-Serif" font-size="10.00"> </text>
<polygon fill="#666666" stroke="#666666" points="109.25,-417.75 109.25,-417.75 175,-417.75 175,-417.75 109.25,-417.75"/>
<polygon fill="#666666" stroke="#666666" points="109.25,-372 109.25,-372 132,-372 132,-372 109.25,-372"/>
<polygon fill="#666666" stroke="#666666" points="132,-372 132,-372 175,-372 175,-372 132,-372"/>
<polygon fill="none" stroke="#666666" points="109.25,-354.75 109.25,-435 175,-435 175,-354.75 109.25,-354.75"/>
</a>
</g>
</g>
<!-- Node5&#45;&gt;Node2 -->
<g id="edge5_Node000002_Node000005" class="edge">
<title>Node5&#45;&gt;Node2</title>
<g id="a_edge5_Node000002_Node000005"><a xlink:title=" ">
<path fill="none" stroke="#63b8ff" d="M144,-354.85C146.29,-307.26 150.12,-227.41 152.36,-180.87"/>
<polygon fill="none" stroke="#63b8ff" points="152.37,-180.73 148.66,-174.55 152.94,-168.75 156.65,-174.93 152.37,-180.73"/>
</a>
</g>
<text text-anchor="start" x="153.28" y="-257.5" font-family="Helvetica,sans-Serif" font-size="10.00" fill="grey">+shape</text>
</g>
<!-- Node5&#45;&gt;Node3 -->
<g id="edge4_Node000003_Node000005" class="edge">
<title>Node5&#45;&gt;Node3</title>
<g id="a_edge4_Node000003_Node000005"><a xlink:title=" ">
<path fill="none" stroke="#63b8ff" d="M113.38,-354.76C109.36,-348.82 105.41,-342.69 101.88,-336.75 95.94,-326.77 90.1,-315.69 84.88,-305.2"/>
<polygon fill="none" stroke="#63b8ff" points="84.92,-305.3 78.7,-301.66 79.67,-294.51 85.89,-298.16 84.92,-305.3"/>
</a>
</g>
<text text-anchor="start" x="104.88" y="-324.25" font-family="Helvetica,sans-Serif" font-size="10.00" fill="grey">+shape</text>
</g>
<!-- Node6 -->
<g id="Node000006" class="node">
<title>Node6</title>
<g id="a_Node000006"><a xlink:href="structTTL__offset__t.html" target="_top" xlink:title="Description of the 3D offset of an object.">
<polygon fill="white" stroke="none" points="273.88,-301.5 210.38,-301.5 210.38,-221.25 273.88,-221.25 273.88,-301.5"/>
<text text-anchor="start" x="214.38" y="-288" font-family="Helvetica,sans-Serif" font-size="10.00">TTL_offset_t</text>
<text text-anchor="start" x="224.62" y="-272.75" font-family="Helvetica,sans-Serif" font-size="10.00">+</text>
<text text-anchor="start" x="244.88" y="-272.75" font-family="Helvetica,sans-Serif" font-size="10.00">x</text>
<text text-anchor="start" x="224.62" y="-257.5" font-family="Helvetica,sans-Serif" font-size="10.00">+</text>
<text text-anchor="start" x="244.88" y="-257.5" font-family="Helvetica,sans-Serif" font-size="10.00">y</text>
<text text-anchor="start" x="224.62" y="-242.25" font-family="Helvetica,sans-Serif" font-size="10.00">+</text>
<text text-anchor="start" x="244.88" y="-242.25" font-family="Helvetica,sans-Serif" font-size="10.00">z</text>
<text text-anchor="start" x="240.62" y="-227" font-family="Helvetica,sans-Serif" font-size="10.00"> </text>
<polygon fill="#666666" stroke="#666666" points="210.38,-284.25 210.38,-284.25 273.88,-284.25 273.88,-284.25 210.38,-284.25"/>
<polygon fill="#666666" stroke="#666666" points="210.38,-238.5 210.38,-238.5 242.88,-238.5 242.88,-238.5 210.38,-238.5"/>
<polygon fill="#666666" stroke="#666666" points="242.88,-238.5 242.88,-238.5 273.88,-238.5 273.88,-238.5 242.88,-238.5"/>
<polygon fill="none" stroke="#666666" points="210.38,-221.25 210.38,-301.5 273.88,-301.5 273.88,-221.25 210.38,-221.25"/>
</a>
</g>
</g>
<!-- Node6&#45;&gt;Node2 -->
<g id="edge6_Node000002_Node000006" class="edge">
<title>Node6&#45;&gt;Node2</title>
<g id="a_edge6_Node000002_Node000006"><a xlink:title=" ">
<path fill="none" stroke="#63b8ff" d="M212.58,-221.34C202.02,-207.39 190.21,-191.79 179.99,-178.29"/>
<polygon fill="none" stroke="#63b8ff" points="179.97,-178.26 173.16,-175.89 172.72,-168.7 179.54,-171.06 179.97,-178.26"/>
</a>
</g>
<text text-anchor="start" x="201.12" y="-190.75" font-family="Helvetica,sans-Serif" font-size="10.00" fill="grey">+sub_offset</text>
</g>
</g>
</svg>
