<?xml version="1.0" encoding="UTF-8" standalone="no"?>
<!DOCTYPE svg PUBLIC "-//W3C//DTD SVG 1.1//EN"
 "http://www.w3.org/Graphics/SVG/1.1/DTD/svg11.dtd">
<!-- Generated by graphviz version 12.2.1 (20241206.2353)
 -->
<!-- Title: TTL_simplex_const_uchar_tensor_buffering_t Pages: 1 -->
<svg width="482pt" height="500pt"
 viewBox="0.00 0.00 482.31 500.00" xmlns="http://www.w3.org/2000/svg" xmlns:xlink="http://www.w3.org/1999/xlink">
<g id="graph0" class="graph" transform="scale(1 1) rotate(0) translate(4 496)">
<title>TTL_simplex_const_uchar_tensor_buffering_t</title>
<!-- Node1 -->
<g id="Node000001" class="node">
<title>Node1</title>
<g id="a_Node000001"><a xlink:title=" ">
<polygon fill="#999999" stroke="none" points="341.25,-122 218.5,-122 218.5,0 341.25,0 341.25,-122"/>
<text text-anchor="start" x="222.5" y="-108.5" font-family="Helvetica,sans-Serif" font-size="10.00">TTL_simplex_const_uchar</text>
<text text-anchor="start" x="238.62" y="-97.25" font-family="Helvetica,sans-Serif" font-size="10.00">_tensor_buffering_t</text>
<text text-anchor="start" x="238" y="-82" font-family="Helvetica,sans-Serif" font-size="10.00">+</text>
<text text-anchor="start" x="263.5" y="-82" font-family="Helvetica,sans-Serif" font-size="10.00">index</text>
<text text-anchor="start" x="238" y="-66.75" font-family="Helvetica,sans-Serif" font-size="10.00">+</text>
<text text-anchor="start" x="263.5" y="-66.75" font-family="Helvetica,sans-Serif" font-size="10.00">int_base</text>
<text text-anchor="start" x="238" y="-51.5" font-family="Helvetica,sans-Serif" font-size="10.00">+</text>
<text text-anchor="start" x="263.5" y="-51.5" font-family="Helvetica,sans-Serif" font-size="10.00">common</text>
<text text-anchor="start" x="238" y="-36.25" font-family="Helvetica,sans-Serif" font-size="10.00">+</text>
<text text-anchor="start" x="263.5" y="-36.25" font-family="Helvetica,sans-Serif" font-size="10.00">event_in</text>
<text text-anchor="start" x="238" y="-21" font-family="Helvetica,sans-Serif" font-size="10.00">+</text>
<text text-anchor="start" x="263.5" y="-21" font-family="Helvetica,sans-Serif" font-size="10.00">event_out</text>
<text text-anchor="start" x="278.38" y="-5.75" font-family="Helvetica,sans-Serif" font-size="10.00"> </text>
<polygon fill="#666666" stroke="#666666" points="218.5,-93.5 218.5,-93.5 341.25,-93.5 341.25,-93.5 218.5,-93.5"/>
<polygon fill="#666666" stroke="#666666" points="218.5,-17.25 218.5,-17.25 261.5,-17.25 261.5,-17.25 218.5,-17.25"/>
<polygon fill="#666666" stroke="#666666" points="261.5,-17.25 261.5,-17.25 341.25,-17.25 341.25,-17.25 261.5,-17.25"/>
<polygon fill="none" stroke="#666666" points="218.5,0 218.5,-122 341.25,-122 341.25,0 218.5,0"/>
</a>
</g>
</g>
<!-- Node2 -->
<g id="Node000002" class="node">
<title>Node2</title>
<g id="a_Node000002"><a xlink:href="structTTL__ext__uchar__tensor__t.html" target="_top" xlink:title="const and non&#45;const tensors in the appropriate address space">
<polygon fill="white" stroke="none" points="113.75,-350.88 0,-350.88 0,-285.88 113.75,-285.88 113.75,-350.88"/>
<text text-anchor="start" x="4" y="-337.38" font-family="Helvetica,sans-Serif" font-size="10.00">TTL_ext_uchar_tensor_t</text>
<text text-anchor="start" x="17.06" y="-322.12" font-family="Helvetica,sans-Serif" font-size="10.00">+</text>
<text text-anchor="start" x="40.12" y="-322.12" font-family="Helvetica,sans-Serif" font-size="10.00">base</text>
<text text-anchor="start" x="17.06" y="-306.88" font-family="Helvetica,sans-Serif" font-size="10.00">+</text>
<text text-anchor="start" x="40.12" y="-306.88" font-family="Helvetica,sans-Serif" font-size="10.00">elem_size</text>
<text text-anchor="start" x="55.38" y="-291.62" font-family="Helvetica,sans-Serif" font-size="10.00"> </text>
<polygon fill="#666666" stroke="#666666" points="0,-333.62 0,-333.62 113.75,-333.62 113.75,-333.62 0,-333.62"/>
<polygon fill="#666666" stroke="#666666" points="0,-303.12 0,-303.12 38.12,-303.12 38.12,-303.12 0,-303.12"/>
<polygon fill="#666666" stroke="#666666" points="38.12,-303.12 38.12,-303.12 113.75,-303.12 113.75,-303.12 38.12,-303.12"/>
<polygon fill="none" stroke="#666666" points="0,-285.88 0,-350.88 113.75,-350.88 113.75,-285.88 0,-285.88"/>
</a>
</g>
</g>
<!-- Node2&#45;&gt;Node1 -->
<g id="edge1_Node000001_Node000002" class="edge">
<title>Node2&#45;&gt;Node1</title>
<g id="a_edge1_Node000001_Node000002"><a xlink:title=" ">
<path fill="none" stroke="#63b8ff" d="M67.94,-286.14C79.81,-255.62 100.83,-208.96 129.12,-175.25 151.42,-148.69 181.08,-124.72 208.19,-105.74"/>
<polygon fill="none" stroke="#63b8ff" points="208.18,-105.75 210.87,-99.06 218.08,-98.96 215.4,-105.66 208.18,-105.75"/>
</a>
</g>
<text text-anchor="start" x="132.12" y="-203.88" font-family="Helvetica,sans-Serif" font-size="10.00" fill="grey">+ext_tensor_in</text>
<text text-anchor="start" x="132.12" y="-188.62" font-family="Helvetica,sans-Serif" font-size="10.00" fill="grey">+ext_tensor_out</text>
</g>
<!-- Node3 -->
<g id="Node000003" class="node">
<title>Node3</title>
<g id="a_Node000003"><a xlink:href="structTTL__layout__t.html" target="_top" xlink:title="Description of a Tensor layout in memory.">
<polygon fill="white" stroke="none" points="156,-484.38 75.75,-484.38 75.75,-419.38 156,-419.38 156,-484.38"/>
<text text-anchor="start" x="87.38" y="-470.88" font-family="Helvetica,sans-Serif" font-size="10.00">TTL_layout_t</text>
<text text-anchor="start" x="79.75" y="-455.62" font-family="Helvetica,sans-Serif" font-size="10.00">+</text>
<text text-anchor="start" x="89.75" y="-455.62" font-family="Helvetica,sans-Serif" font-size="10.00">row_spacing</text>
<text text-anchor="start" x="79.75" y="-440.38" font-family="Helvetica,sans-Serif" font-size="10.00">+</text>
<text text-anchor="start" x="89.75" y="-440.38" font-family="Helvetica,sans-Serif" font-size="10.00">plane_spacing</text>
<text text-anchor="start" x="114.38" y="-425.12" font-family="Helvetica,sans-Serif" font-size="10.00"> </text>
<polygon fill="#666666" stroke="#666666" points="75.75,-467.12 75.75,-467.12 156,-467.12 156,-467.12 75.75,-467.12"/>
<polygon fill="#666666" stroke="#666666" points="75.75,-436.62 75.75,-436.62 87.75,-436.62 87.75,-436.62 75.75,-436.62"/>
<polygon fill="#666666" stroke="#666666" points="87.75,-436.62 87.75,-436.62 156,-436.62 156,-436.62 87.75,-436.62"/>
<polygon fill="none" stroke="#666666" points="75.75,-419.38 75.75,-484.38 156,-484.38 156,-419.38 75.75,-419.38"/>
</a>
</g>
</g>
<!-- Node3&#45;&gt;Node2 -->
<g id="edge2_Node000002_Node000003" class="edge">
<title>Node3&#45;&gt;Node2</title>
<g id="a_edge2_Node000002_Node000003"><a xlink:title=" ">
<path fill="none" stroke="#63b8ff" d="M76.05,-428.38C63.91,-419.32 52.02,-407.69 45.38,-393.75 40.91,-384.38 40.32,-373.66 41.64,-363.33"/>
<polygon fill="none" stroke="#63b8ff" points="41.65,-363.25 38.9,-356.58 43.99,-351.48 46.75,-358.14 41.65,-363.25"/>
</a>
</g>
<text text-anchor="start" x="48.38" y="-381.25" font-family="Helvetica,sans-Serif" font-size="10.00" fill="grey">+layout</text>
</g>
<!-- Node8 -->
<g id="Node000008" class="node">
<title>Node8</title>
<g id="a_Node000008"><a xlink:href="structTTL__int__uchar__tensor__t.html" target="_top" xlink:title="const and non&#45;const tensors in the appropriate address space">
<polygon fill="white" stroke="none" points="243.62,-350.88 132.12,-350.88 132.12,-285.88 243.62,-285.88 243.62,-350.88"/>
<text text-anchor="start" x="136.12" y="-337.38" font-family="Helvetica,sans-Serif" font-size="10.00">TTL_int_uchar_tensor_t</text>
<text text-anchor="start" x="148.62" y="-322.12" font-family="Helvetica,sans-Serif" font-size="10.00">+</text>
<text text-anchor="start" x="171.12" y="-322.12" font-family="Helvetica,sans-Serif" font-size="10.00">base</text>
<text text-anchor="start" x="148.62" y="-306.88" font-family="Helvetica,sans-Serif" font-size="10.00">+</text>
<text text-anchor="start" x="171.12" y="-306.88" font-family="Helvetica,sans-Serif" font-size="10.00">elem_size</text>
<text text-anchor="start" x="186.38" y="-291.62" font-family="Helvetica,sans-Serif" font-size="10.00"> </text>
<polygon fill="#666666" stroke="#666666" points="132.12,-333.62 132.12,-333.62 243.62,-333.62 243.62,-333.62 132.12,-333.62"/>
<polygon fill="#666666" stroke="#666666" points="132.12,-303.12 132.12,-303.12 169.12,-303.12 169.12,-303.12 132.12,-303.12"/>
<polygon fill="#666666" stroke="#666666" points="169.12,-303.12 169.12,-303.12 243.62,-303.12 243.62,-303.12 169.12,-303.12"/>
<polygon fill="none" stroke="#666666" points="132.12,-285.88 132.12,-350.88 243.62,-350.88 243.62,-285.88 132.12,-285.88"/>
</a>
</g>
</g>
<!-- Node3&#45;&gt;Node8 -->
<g id="edge9_Node000008_Node000003" class="edge">
<title>Node3&#45;&gt;Node8</title>
<g id="a_edge9_Node000008_Node000003"><a xlink:title=" ">
<path fill="none" stroke="#63b8ff" d="M133.12,-419.38C142.56,-402.14 154.39,-380.54 164.63,-361.83"/>
<polygon fill="none" stroke="#63b8ff" points="164.57,-361.93 163.95,-354.75 170.34,-351.41 170.96,-358.59 164.57,-361.93"/>
</a>
</g>
<text text-anchor="start" x="159.19" y="-381.25" font-family="Helvetica,sans-Serif" font-size="10.00" fill="grey">+layout</text>
</g>
<!-- Node4 -->
<g id="Node000004" class="node">
<title>Node4</title>
<g id="a_Node000004"><a xlink:href="structTTL__shape__t.html" target="_top" xlink:title="Description of a Shape.">
<polygon fill="white" stroke="none" points="285.75,-492 220,-492 220,-411.75 285.75,-411.75 285.75,-492"/>
<text text-anchor="start" x="224" y="-478.5" font-family="Helvetica,sans-Serif" font-size="10.00">TTL_shape_t</text>
<text text-anchor="start" x="229.38" y="-463.25" font-family="Helvetica,sans-Serif" font-size="10.00">+</text>
<text text-anchor="start" x="244.75" y="-463.25" font-family="Helvetica,sans-Serif" font-size="10.00">width</text>
<text text-anchor="start" x="229.38" y="-448" font-family="Helvetica,sans-Serif" font-size="10.00">+</text>
<text text-anchor="start" x="244.75" y="-448" font-family="Helvetica,sans-Serif" font-size="10.00">height</text>
<text text-anchor="start" x="229.38" y="-432.75" font-family="Helvetica,sans-Serif" font-size="10.00">+</text>
<text text-anchor="start" x="244.75" y="-432.75" font-family="Helvetica,sans-Serif" font-size="10.00">depth</text>
<text text-anchor="start" x="251.38" y="-417.5" font-family="Helvetica,sans-Serif" font-size="10.00"> </text>
<polygon fill="#666666" stroke="#666666" points="220,-474.75 220,-474.75 285.75,-474.75 285.75,-474.75 220,-474.75"/>
<polygon fill="#666666" stroke="#666666" points="220,-429 220,-429 242.75,-429 242.75,-429 220,-429"/>
<polygon fill="#666666" stroke="#666666" points="242.75,-429 242.75,-429 285.75,-429 285.75,-429 242.75,-429"/>
<polygon fill="none" stroke="#666666" points="220,-411.75 220,-492 285.75,-492 285.75,-411.75 220,-411.75"/>
</a>
</g>
</g>
<!-- Node4&#45;&gt;Node2 -->
<g id="edge3_Node000002_Node000004" class="edge">
<title>Node4&#45;&gt;Node2</title>
<g id="a_edge3_Node000002_Node000004"><a xlink:title=" ">
<path fill="none" stroke="#63b8ff" d="M220.26,-435.22C203.85,-427.64 183.52,-418.7 164.88,-411.75 139.09,-402.14 127.65,-410.25 105.62,-393.75 94.39,-385.33 84.98,-373.51 77.52,-361.77"/>
<polygon fill="none" stroke="#63b8ff" points="77.52,-361.76 71.03,-358.62 71.43,-351.42 77.92,-354.56 77.52,-361.76"/>
</a>
</g>
<text text-anchor="start" x="108.62" y="-381.25" font-family="Helvetica,sans-Serif" font-size="10.00" fill="grey">+shape</text>
</g>
<!-- Node5 -->
<g id="Node000005" class="node">
<title>Node5</title>
<g id="a_Node000005"><a xlink:href="structTTL__tile__t.html" target="_top" xlink:title=" ">
<polygon fill="white" stroke="none" points="419,-225 366.75,-225 366.75,-175.25 419,-175.25 419,-225"/>
<text text-anchor="start" x="370.75" y="-211.5" font-family="Helvetica,sans-Serif" font-size="10.00">TTL_tile_t</text>
<text text-anchor="start" x="391.38" y="-196.25" font-family="Helvetica,sans-Serif" font-size="10.00"> </text>
<text text-anchor="start" x="391.38" y="-181" font-family="Helvetica,sans-Serif" font-size="10.00"> </text>
<polygon fill="#666666" stroke="#666666" points="366.75,-207.75 366.75,-207.75 419,-207.75 419,-207.75 366.75,-207.75"/>
<polygon fill="#666666" stroke="#666666" points="366.75,-192.5 366.75,-192.5 419,-192.5 419,-192.5 366.75,-192.5"/>
<polygon fill="none" stroke="#666666" points="366.75,-175.25 366.75,-225 419,-225 419,-175.25 366.75,-175.25"/>
</a>
</g>
</g>
<!-- Node4&#45;&gt;Node5 -->
<g id="edge5_Node000005_Node000004" class="edge">
<title>Node4&#45;&gt;Node5</title>
<g id="a_edge5_Node000005_Node000004"><a xlink:title=" ">
<path fill="none" stroke="#63b8ff" d="M285.72,-441.68C323.18,-429.33 383.06,-403.58 412.88,-358.5 441.35,-315.45 441.42,-291.89 424.88,-243 424.06,-240.59 423.05,-238.22 421.89,-235.89"/>
<polygon fill="none" stroke="#63b8ff" points="421.84,-235.81 415.29,-232.78 415.58,-225.57 422.12,-228.6 421.84,-235.81"/>
</a>
</g>
<text text-anchor="start" x="439.06" y="-314.5" font-family="Helvetica,sans-Serif" font-size="10.00" fill="grey">+shape</text>
</g>
<!-- Node7 -->
<g id="Node000007" class="node">
<title>Node7</title>
<g id="a_Node000007"><a xlink:href="structTTL__int__uchar__sub__tensor__t.html" target="_top" xlink:title="const and non&#45;const sub tensors in the appropriate address space">
<polygon fill="white" stroke="none" points="346.12,-225 213.62,-225 213.62,-175.25 346.12,-175.25 346.12,-225"/>
<text text-anchor="start" x="217.62" y="-211.5" font-family="Helvetica,sans-Serif" font-size="10.00">TTL_int_uchar_sub_tensor_t</text>
<text text-anchor="start" x="240.44" y="-196.25" font-family="Helvetica,sans-Serif" font-size="10.00">+</text>
<text text-anchor="start" x="273.25" y="-196.25" font-family="Helvetica,sans-Serif" font-size="10.00">origin</text>
<text text-anchor="start" x="278.38" y="-181" font-family="Helvetica,sans-Serif" font-size="10.00"> </text>
<polygon fill="#666666" stroke="#666666" points="213.62,-207.75 213.62,-207.75 346.12,-207.75 346.12,-207.75 213.62,-207.75"/>
<polygon fill="#666666" stroke="#666666" points="213.62,-192.5 213.62,-192.5 271.25,-192.5 271.25,-192.5 213.62,-192.5"/>
<polygon fill="#666666" stroke="#666666" points="271.25,-192.5 271.25,-192.5 346.12,-192.5 346.12,-192.5 271.25,-192.5"/>
<polygon fill="none" stroke="#666666" points="213.62,-175.25 213.62,-225 346.12,-225 346.12,-175.25 213.62,-175.25"/>
</a>
</g>
</g>
<!-- Node4&#45;&gt;Node7 -->
<g id="edge11_Node000007_Node000004" class="edge">
<title>Node4&#45;&gt;Node7</title>
<g id="a_edge11_Node000007_Node000004"><a xlink:title=" ">
<path fill="none" stroke="#63b8ff" d="M262.55,-412C263.82,-405.92 264.99,-399.69 265.88,-393.75 273.92,-339.88 277.39,-276.81 278.85,-237.91"/>
<polygon fill="none" stroke="#63b8ff" points="278.86,-237.87 275.06,-231.74 279.27,-225.88 283.06,-232.01 278.86,-237.87"/>
</a>
</g>
<text text-anchor="start" x="279.93" y="-314.5" font-family="Helvetica,sans-Serif" font-size="10.00" fill="grey">+shape</text>
</g>
<!-- Node4&#45;&gt;Node8 -->
<g id="edge10_Node000008_Node000004" class="edge">
<title>Node4&#45;&gt;Node8</title>
<g id="a_edge10_Node000008_Node000004"><a xlink:title=" ">
<path fill="none" stroke="#63b8ff" d="M233.55,-411.78C225.78,-396.06 216.8,-377.9 208.87,-361.85"/>
<polygon fill="none" stroke="#63b8ff" points="209.03,-362.18 202.79,-358.57 203.72,-351.42 209.96,-355.03 209.03,-362.18"/>
</a>
</g>
<text text-anchor="start" x="227.27" y="-381.25" font-family="Helvetica,sans-Serif" font-size="10.00" fill="grey">+shape</text>
</g>
<!-- Node5&#45;&gt;Node1 -->
<g id="edge4_Node000001_Node000005" class="edge">
<title>Node5&#45;&gt;Node1</title>
<g id="a_edge4_Node000001_Node000005"><a xlink:title=" ">
<path fill="none" stroke="#63b8ff" d="M386.56,-175.37C382.83,-164.02 377.36,-150.62 369.88,-140 364.18,-131.92 357.47,-124.14 350.33,-116.82"/>
<polygon fill="none" stroke="#63b8ff" points="350.33,-116.82 343.25,-115.5 341.74,-108.45 348.83,-109.77 350.33,-116.82"/>
</a>
</g>
<text text-anchor="start" x="382.25" y="-144.75" font-family="Helvetica,sans-Serif" font-size="10.00" fill="grey">+next_exported_tile</text>
</g>
<!-- Node6 -->
<g id="Node000006" class="node">
<title>Node6</title>
<g id="a_Node000006"><a xlink:href="structTTL__offset__t.html" target="_top" xlink:title="Description of the 3D offset of an object.">
<polygon fill="white" stroke="none" points="403.62,-358.5 340.12,-358.5 340.12,-278.25 403.62,-278.25 403.62,-358.5"/>
<text text-anchor="start" x="344.12" y="-345" font-family="Helvetica,sans-Serif" font-size="10.00">TTL_offset_t</text>
<text text-anchor="start" x="354.38" y="-329.75" font-family="Helvetica,sans-Serif" font-size="10.00">+</text>
<text text-anchor="start" x="374.62" y="-329.75" font-family="Helvetica,sans-Serif" font-size="10.00">x</text>
<text text-anchor="start" x="354.38" y="-314.5" font-family="Helvetica,sans-Serif" font-size="10.00">+</text>
<text text-anchor="start" x="374.62" y="-314.5" font-family="Helvetica,sans-Serif" font-size="10.00">y</text>
<text text-anchor="start" x="354.38" y="-299.25" font-family="Helvetica,sans-Serif" font-size="10.00">+</text>
<text text-anchor="start" x="374.62" y="-299.25" font-family="Helvetica,sans-Serif" font-size="10.00">z</text>
<text text-anchor="start" x="370.38" y="-284" font-family="Helvetica,sans-Serif" font-size="10.00"> </text>
<polygon fill="#666666" stroke="#666666" points="340.12,-341.25 340.12,-341.25 403.62,-341.25 403.62,-341.25 340.12,-341.25"/>
<polygon fill="#666666" stroke="#666666" points="340.12,-295.5 340.12,-295.5 372.62,-295.5 372.62,-295.5 340.12,-295.5"/>
<polygon fill="#666666" stroke="#666666" points="372.62,-295.5 372.62,-295.5 403.62,-295.5 403.62,-295.5 372.62,-295.5"/>
<polygon fill="none" stroke="#666666" points="340.12,-278.25 340.12,-358.5 403.62,-358.5 403.62,-278.25 340.12,-278.25"/>
</a>
</g>
</g>
<!-- Node6&#45;&gt;Node5 -->
<g id="edge6_Node000005_Node000006" class="edge">
<title>Node6&#45;&gt;Node5</title>
<g id="a_edge6_Node000005_Node000006"><a xlink:title=" ">
<path fill="none" stroke="#63b8ff" d="M378.93,-278.34C381.3,-265.22 383.93,-250.64 386.26,-237.72"/>
<polygon fill="none" stroke="#63b8ff" points="386.27,-237.67 383.4,-231.06 388.41,-225.86 391.28,-232.48 386.27,-237.67"/>
</a>
</g>
<text text-anchor="start" x="387.87" y="-247.75" font-family="Helvetica,sans-Serif" font-size="10.00" fill="grey">+offset</text>
</g>
<!-- Node6&#45;&gt;Node7 -->
<g id="edge12_Node000007_Node000006" class="edge">
<title>Node6&#45;&gt;Node7</title>
<g id="a_edge12_Node000007_Node000006"><a xlink:title=" ">
<path fill="none" stroke="#63b8ff" d="M340.36,-282.5C334.1,-275.26 327.67,-267.59 321.88,-260.25 315.64,-252.35 309.2,-243.61 303.29,-235.34"/>
<polygon fill="none" stroke="#63b8ff" points="303.32,-235.38 296.6,-232.78 296.42,-225.57 303.14,-228.17 303.32,-235.38"/>
</a>
</g>
<text text-anchor="start" x="324.88" y="-247.75" font-family="Helvetica,sans-Serif" font-size="10.00" fill="grey">+sub_offset</text>
</g>
<!-- Node7&#45;&gt;Node1 -->
<g id="edge7_Node000001_Node000007" class="edge">
<title>Node7&#45;&gt;Node1</title>
<g id="a_edge7_Node000001_Node000007"><a xlink:title=" ">
<path fill="none" stroke="#63b8ff" d="M279.88,-175.55C279.88,-164.06 279.88,-149.55 279.88,-134.78"/>
<polygon fill="none" stroke="#63b8ff" points="279.88,-134.71 275.88,-128.71 279.88,-122.71 283.88,-128.71 279.88,-134.71"/>
</a>
</g>
<text text-anchor="start" x="282.88" y="-144.75" font-family="Helvetica,sans-Serif" font-size="10.00" fill="grey">+int_prev_imported</text>
</g>
<!-- Node8&#45;&gt;Node7 -->
<g id="edge8_Node000007_Node000008" class="edge">
<title>Node8&#45;&gt;Node7</title>
<g id="a_edge8_Node000007_Node000008"><a xlink:title=" ">
<path fill="none" stroke="#63b8ff" d="M200.77,-285.92C207.37,-271.94 216.26,-255.79 226.88,-243 229.65,-239.65 232.74,-236.39 235.99,-233.27"/>
<polygon fill="none" stroke="#63b8ff" points="235.81,-233.43 237.63,-226.45 244.78,-225.45 242.95,-232.43 235.81,-233.43"/>
</a>
</g>
<text text-anchor="start" x="229.88" y="-247.75" font-family="Helvetica,sans-Serif" font-size="10.00" fill="grey">+tensor</text>
</g>
</g>
</svg>
