<?xml version="1.0" encoding="UTF-8" standalone="no"?>
<!DOCTYPE svg PUBLIC "-//W3C//DTD SVG 1.1//EN"
 "http://www.w3.org/Graphics/SVG/1.1/DTD/svg11.dtd">
<!-- Generated by graphviz version 12.2.1 (20241206.2353)
 -->
<!-- Title: TTL_export_double_const_ulong_tensor_buffering_t Pages: 1 -->
<svg width="263pt" height="382pt"
 viewBox="0.00 0.00 262.88 381.75" xmlns="http://www.w3.org/2000/svg" xmlns:xlink="http://www.w3.org/1999/xlink">
<g id="graph0" class="graph" transform="scale(1 1) rotate(0) translate(4 377.75)">
<title>TTL_export_double_const_ulong_tensor_buffering_t</title>
<!-- Node1 -->
<g id="Node000001" class="node">
<title>Node1</title>
<g id="a_Node000001"><a xlink:title="Data required to perform double buffer pipelining.">
<polygon fill="#999999" stroke="none" points="191.38,-106.75 70.88,-106.75 70.88,0 191.38,0 191.38,-106.75"/>
<text text-anchor="start" x="74.88" y="-93.25" font-family="Helvetica,sans-Serif" font-size="10.00">TTL_export_double_const</text>
<text text-anchor="start" x="75.62" y="-82" font-family="Helvetica,sans-Serif" font-size="10.00">_ulong_tensor_buffering_t</text>
<text text-anchor="start" x="91.12" y="-66.75" font-family="Helvetica,sans-Serif" font-size="10.00">+</text>
<text text-anchor="start" x="117.38" y="-66.75" font-family="Helvetica,sans-Serif" font-size="10.00">index</text>
<text text-anchor="start" x="91.12" y="-51.5" font-family="Helvetica,sans-Serif" font-size="10.00">+</text>
<text text-anchor="start" x="117.38" y="-51.5" font-family="Helvetica,sans-Serif" font-size="10.00">int_base</text>
<text text-anchor="start" x="91.12" y="-36.25" font-family="Helvetica,sans-Serif" font-size="10.00">+</text>
<text text-anchor="start" x="117.38" y="-36.25" font-family="Helvetica,sans-Serif" font-size="10.00">common</text>
<text text-anchor="start" x="91.12" y="-21" font-family="Helvetica,sans-Serif" font-size="10.00">+</text>
<text text-anchor="start" x="117.38" y="-21" font-family="Helvetica,sans-Serif" font-size="10.00">event</text>
<text text-anchor="start" x="129.62" y="-5.75" font-family="Helvetica,sans-Serif" font-size="10.00"> </text>
<polygon fill="#666666" stroke="#666666" points="70.88,-78.25 70.88,-78.25 191.38,-78.25 191.38,-78.25 70.88,-78.25"/>
<polygon fill="#666666" stroke="#666666" points="70.88,-17.25 70.88,-17.25 115.38,-17.25 115.38,-17.25 70.88,-17.25"/>
<polygon fill="#666666" stroke="#666666" points="115.38,-17.25 115.38,-17.25 191.38,-17.25 191.38,-17.25 115.38,-17.25"/>
<polygon fill="none" stroke="#666666" points="70.88,0 70.88,-106.75 191.38,-106.75 191.38,0 70.88,0"/>
</a>
</g>
</g>
<!-- Node2 -->
<g id="Node000002" class="node">
<title>Node2</title>
<g id="a_Node000002"><a xlink:href="structTTL__ext__ulong__tensor__t.html" target="_top" xlink:title="const and non&#45;const tensors in the appropriate address space">
<polygon fill="white" stroke="none" points="137.62,-240.25 24.62,-240.25 24.62,-175.25 137.62,-175.25 137.62,-240.25"/>
<text text-anchor="start" x="28.62" y="-226.75" font-family="Helvetica,sans-Serif" font-size="10.00">TTL_ext_ulong_tensor_t</text>
<text text-anchor="start" x="41.5" y="-211.5" font-family="Helvetica,sans-Serif" font-size="10.00">+</text>
<text text-anchor="start" x="64.38" y="-211.5" font-family="Helvetica,sans-Serif" font-size="10.00">base</text>
<text text-anchor="start" x="41.5" y="-196.25" font-family="Helvetica,sans-Serif" font-size="10.00">+</text>
<text text-anchor="start" x="64.38" y="-196.25" font-family="Helvetica,sans-Serif" font-size="10.00">elem_size</text>
<text text-anchor="start" x="79.62" y="-181" font-family="Helvetica,sans-Serif" font-size="10.00"> </text>
<polygon fill="#666666" stroke="#666666" points="24.62,-223 24.62,-223 137.62,-223 137.62,-223 24.62,-223"/>
<polygon fill="#666666" stroke="#666666" points="24.62,-192.5 24.62,-192.5 62.38,-192.5 62.38,-192.5 24.62,-192.5"/>
<polygon fill="#666666" stroke="#666666" points="62.38,-192.5 62.38,-192.5 137.62,-192.5 137.62,-192.5 62.38,-192.5"/>
<polygon fill="none" stroke="#666666" points="24.62,-175.25 24.62,-240.25 137.62,-240.25 137.62,-175.25 24.62,-175.25"/>
</a>
</g>
</g>
<!-- Node2&#45;&gt;Node1 -->
<g id="edge1_Node000001_Node000002" class="edge">
<title>Node2&#45;&gt;Node1</title>
<g id="a_edge1_Node000001_Node000002"><a xlink:title=" ">
<path fill="none" stroke="#63b8ff" d="M77.9,-175.29C77.32,-159.73 78.18,-140.88 83.38,-124.75 84.09,-122.53 84.9,-120.31 85.79,-118.11"/>
<polygon fill="none" stroke="#63b8ff" points="85.75,-118.19 84.67,-111.06 90.84,-107.32 91.92,-114.45 85.75,-118.19"/>
</a>
</g>
<text text-anchor="start" x="86.38" y="-144.75" font-family="Helvetica,sans-Serif" font-size="10.00" fill="grey">+ext_tensor_in</text>
<text text-anchor="start" x="86.38" y="-129.5" font-family="Helvetica,sans-Serif" font-size="10.00" fill="grey">+ext_tensor_out</text>
</g>
<!-- Node3 -->
<g id="Node000003" class="node">
<title>Node3</title>
<g id="a_Node000003"><a xlink:href="structTTL__layout__t.html" target="_top" xlink:title="Description of a Tensor layout in memory.">
<polygon fill="white" stroke="none" points="80.25,-366.12 0,-366.12 0,-301.12 80.25,-301.12 80.25,-366.12"/>
<text text-anchor="start" x="11.62" y="-352.62" font-family="Helvetica,sans-Serif" font-size="10.00">TTL_layout_t</text>
<text text-anchor="start" x="4" y="-337.38" font-family="Helvetica,sans-Serif" font-size="10.00">+</text>
<text text-anchor="start" x="14" y="-337.38" font-family="Helvetica,sans-Serif" font-size="10.00">row_spacing</text>
<text text-anchor="start" x="4" y="-322.12" font-family="Helvetica,sans-Serif" font-size="10.00">+</text>
<text text-anchor="start" x="14" y="-322.12" font-family="Helvetica,sans-Serif" font-size="10.00">plane_spacing</text>
<text text-anchor="start" x="38.62" y="-306.88" font-family="Helvetica,sans-Serif" font-size="10.00"> </text>
<polygon fill="#666666" stroke="#666666" points="0,-348.88 0,-348.88 80.25,-348.88 80.25,-348.88 0,-348.88"/>
<polygon fill="#666666" stroke="#666666" points="0,-318.38 0,-318.38 12,-318.38 12,-318.38 0,-318.38"/>
<polygon fill="#666666" stroke="#666666" points="12,-318.38 12,-318.38 80.25,-318.38 80.25,-318.38 12,-318.38"/>
<polygon fill="none" stroke="#666666" points="0,-301.12 0,-366.12 80.25,-366.12 80.25,-301.12 0,-301.12"/>
</a>
</g>
</g>
<!-- Node3&#45;&gt;Node2 -->
<g id="edge2_Node000002_Node000003" class="edge">
<title>Node3&#45;&gt;Node2</title>
<g id="a_edge2_Node000002_Node000003"><a xlink:title=" ">
<path fill="none" stroke="#63b8ff" d="M36.35,-301.41C35.81,-287.79 36.71,-271.85 41.62,-258.25 42.48,-255.88 43.5,-253.55 44.64,-251.25"/>
<polygon fill="none" stroke="#63b8ff" points="44.64,-251.26 44.28,-244.05 50.79,-240.95 51.15,-248.16 44.64,-251.26"/>
</a>
</g>
<text text-anchor="start" x="44.62" y="-263" font-family="Helvetica,sans-Serif" font-size="10.00" fill="grey">+layout</text>
</g>
<!-- Node4 -->
<g id="Node000004" class="node">
<title>Node4</title>
<g id="a_Node000004"><a xlink:href="structTTL__shape__t.html" target="_top" xlink:title="Description of a Shape.">
<polygon fill="white" stroke="none" points="169,-373.75 103.25,-373.75 103.25,-293.5 169,-293.5 169,-373.75"/>
<text text-anchor="start" x="107.25" y="-360.25" font-family="Helvetica,sans-Serif" font-size="10.00">TTL_shape_t</text>
<text text-anchor="start" x="112.62" y="-345" font-family="Helvetica,sans-Serif" font-size="10.00">+</text>
<text text-anchor="start" x="128" y="-345" font-family="Helvetica,sans-Serif" font-size="10.00">width</text>
<text text-anchor="start" x="112.62" y="-329.75" font-family="Helvetica,sans-Serif" font-size="10.00">+</text>
<text text-anchor="start" x="128" y="-329.75" font-family="Helvetica,sans-Serif" font-size="10.00">height</text>
<text text-anchor="start" x="112.62" y="-314.5" font-family="Helvetica,sans-Serif" font-size="10.00">+</text>
<text text-anchor="start" x="128" y="-314.5" font-family="Helvetica,sans-Serif" font-size="10.00">depth</text>
<text text-anchor="start" x="134.62" y="-299.25" font-family="Helvetica,sans-Serif" font-size="10.00"> </text>
<polygon fill="#666666" stroke="#666666" points="103.25,-356.5 103.25,-356.5 169,-356.5 169,-356.5 103.25,-356.5"/>
<polygon fill="#666666" stroke="#666666" points="103.25,-310.75 103.25,-310.75 126,-310.75 126,-310.75 103.25,-310.75"/>
<polygon fill="#666666" stroke="#666666" points="126,-310.75 126,-310.75 169,-310.75 169,-310.75 126,-310.75"/>
<polygon fill="none" stroke="#666666" points="103.25,-293.5 103.25,-373.75 169,-373.75 169,-293.5 103.25,-293.5"/>
</a>
</g>
</g>
<!-- Node4&#45;&gt;Node2 -->
<g id="edge3_Node000002_Node000004" class="edge">
<title>Node4&#45;&gt;Node2</title>
<g id="a_edge3_Node000002_Node000004"><a xlink:title=" ">
<path fill="none" stroke="#63b8ff" d="M118.87,-293.77C112.93,-280.38 106.24,-265.31 100.16,-251.62"/>
<polygon fill="none" stroke="#63b8ff" points="100.24,-251.81 94.15,-247.95 95.37,-240.84 101.46,-244.7 100.24,-251.81"/>
</a>
</g>
<text text-anchor="start" x="113.27" y="-263" font-family="Helvetica,sans-Serif" font-size="10.00" fill="grey">+shape</text>
</g>
<!-- Node5 -->
<g id="Node000005" class="node">
<title>Node5</title>
<g id="a_Node000005"><a xlink:href="structTTL__tile__t.html" target="_top" xlink:title=" ">
<polygon fill="white" stroke="none" points="208.25,-232.62 156,-232.62 156,-182.88 208.25,-182.88 208.25,-232.62"/>
<text text-anchor="start" x="160" y="-219.12" font-family="Helvetica,sans-Serif" font-size="10.00">TTL_tile_t</text>
<text text-anchor="start" x="180.62" y="-203.88" font-family="Helvetica,sans-Serif" font-size="10.00"> </text>
<text text-anchor="start" x="180.62" y="-188.62" font-family="Helvetica,sans-Serif" font-size="10.00"> </text>
<polygon fill="#666666" stroke="#666666" points="156,-215.38 156,-215.38 208.25,-215.38 208.25,-215.38 156,-215.38"/>
<polygon fill="#666666" stroke="#666666" points="156,-200.12 156,-200.12 208.25,-200.12 208.25,-200.12 156,-200.12"/>
<polygon fill="none" stroke="#666666" points="156,-182.88 156,-232.62 208.25,-232.62 208.25,-182.88 156,-182.88"/>
</a>
</g>
</g>
<!-- Node4&#45;&gt;Node5 -->
<g id="edge5_Node000005_Node000004" class="edge">
<title>Node4&#45;&gt;Node5</title>
<g id="a_edge5_Node000005_Node000004"><a xlink:title=" ">
<path fill="none" stroke="#63b8ff" d="M146.9,-293.67C150.39,-282.15 154.5,-269.59 158.88,-258.25 160.62,-253.73 162.59,-249.05 164.63,-244.45"/>
<polygon fill="none" stroke="#63b8ff" points="164.68,-244.34 163.55,-237.22 169.7,-233.44 170.82,-240.56 164.68,-244.34"/>
</a>
</g>
<text text-anchor="start" x="161.88" y="-263" font-family="Helvetica,sans-Serif" font-size="10.00" fill="grey">+shape</text>
</g>
<!-- Node5&#45;&gt;Node1 -->
<g id="edge4_Node000001_Node000005" class="edge">
<title>Node5&#45;&gt;Node1</title>
<g id="a_edge4_Node000001_Node000005"><a xlink:title=" ">
<path fill="none" stroke="#63b8ff" d="M176.23,-183.22C171.92,-166.72 165.71,-144.22 159.12,-124.75 158.43,-122.69 157.71,-120.61 156.97,-118.51"/>
<polygon fill="none" stroke="#63b8ff" points="156.97,-118.53 151.15,-114.27 152.85,-107.26 158.67,-111.52 156.97,-118.53"/>
</a>
</g>
<text text-anchor="start" x="171.8" y="-137.12" font-family="Helvetica,sans-Serif" font-size="10.00" fill="grey">+prev_tile</text>
</g>
<!-- Node6 -->
<g id="Node000006" class="node">
<title>Node6</title>
<g id="a_Node000006"><a xlink:href="structTTL__offset__t.html" target="_top" xlink:title="Description of the 3D offset of an object.">
<polygon fill="white" stroke="none" points="254.88,-373.75 191.38,-373.75 191.38,-293.5 254.88,-293.5 254.88,-373.75"/>
<text text-anchor="start" x="195.38" y="-360.25" font-family="Helvetica,sans-Serif" font-size="10.00">TTL_offset_t</text>
<text text-anchor="start" x="205.62" y="-345" font-family="Helvetica,sans-Serif" font-size="10.00">+</text>
<text text-anchor="start" x="225.88" y="-345" font-family="Helvetica,sans-Serif" font-size="10.00">x</text>
<text text-anchor="start" x="205.62" y="-329.75" font-family="Helvetica,sans-Serif" font-size="10.00">+</text>
<text text-anchor="start" x="225.88" y="-329.75" font-family="Helvetica,sans-Serif" font-size="10.00">y</text>
<text text-anchor="start" x="205.62" y="-314.5" font-family="Helvetica,sans-Serif" font-size="10.00">+</text>
<text text-anchor="start" x="225.88" y="-314.5" font-family="Helvetica,sans-Serif" font-size="10.00">z</text>
<text text-anchor="start" x="221.62" y="-299.25" font-family="Helvetica,sans-Serif" font-size="10.00"> </text>
<polygon fill="#666666" stroke="#666666" points="191.38,-356.5 191.38,-356.5 254.88,-356.5 254.88,-356.5 191.38,-356.5"/>
<polygon fill="#666666" stroke="#666666" points="191.38,-310.75 191.38,-310.75 223.88,-310.75 223.88,-310.75 191.38,-310.75"/>
<polygon fill="#666666" stroke="#666666" points="223.88,-310.75 223.88,-310.75 254.88,-310.75 254.88,-310.75 223.88,-310.75"/>
<polygon fill="none" stroke="#666666" points="191.38,-293.5 191.38,-373.75 254.88,-373.75 254.88,-293.5 191.38,-293.5"/>
</a>
</g>
</g>
<!-- Node6&#45;&gt;Node5 -->
<g id="edge6_Node000005_Node000006" class="edge">
<title>Node6&#45;&gt;Node5</title>
<g id="a_edge6_Node000005_Node000006"><a xlink:title=" ">
<path fill="none" stroke="#63b8ff" d="M212.28,-293.84C208.89,-282.33 205.02,-269.73 201.12,-258.25 199.59,-253.71 197.89,-248.97 196.16,-244.3"/>
<polygon fill="none" stroke="#63b8ff" points="196.17,-244.34 190.3,-240.15 191.91,-233.12 197.78,-237.31 196.17,-244.34"/>
</a>
</g>
<text text-anchor="start" x="209.38" y="-263" font-family="Helvetica,sans-Serif" font-size="10.00" fill="grey">+offset</text>
</g>
</g>
</svg>
