<?xml version="1.0" encoding="UTF-8" standalone="no"?>
<!DOCTYPE svg PUBLIC "-//W3C//DTD SVG 1.1//EN"
 "http://www.w3.org/Graphics/SVG/1.1/DTD/svg11.dtd">
<!-- Generated by graphviz version 12.2.1 (20241206.2353)
 -->
<!-- Title: TTL_tile_t Pages: 1 -->
<svg width="156pt" height="191pt"
 viewBox="0.00 0.00 155.62 191.25" xmlns="http://www.w3.org/2000/svg" xmlns:xlink="http://www.w3.org/1999/xlink">
<g id="graph0" class="graph" transform="scale(1 1) rotate(0) translate(4 187.25)">
<title>TTL_tile_t</title>
<!-- Node1 -->
<g id="Node000001" class="node">
<title>Node1</title>
<g id="a_Node000001"><a xlink:title=" ">
<polygon fill="#999999" stroke="none" points="100,-49.75 47.75,-49.75 47.75,0 100,0 100,-49.75"/>
<text text-anchor="start" x="51.75" y="-36.25" font-family="Helvetica,sans-Serif" font-size="10.00">TTL_tile_t</text>
<text text-anchor="start" x="72.38" y="-21" font-family="Helvetica,sans-Serif" font-size="10.00"> </text>
<text text-anchor="start" x="72.38" y="-5.75" font-family="Helvetica,sans-Serif" font-size="10.00"> </text>
<polygon fill="#666666" stroke="#666666" points="47.75,-32.5 47.75,-32.5 100,-32.5 100,-32.5 47.75,-32.5"/>
<polygon fill="#666666" stroke="#666666" points="47.75,-17.25 47.75,-17.25 100,-17.25 100,-17.25 47.75,-17.25"/>
<polygon fill="none" stroke="#666666" points="47.75,0 47.75,-49.75 100,-49.75 100,0 47.75,0"/>
</a>
</g>
</g>
<!-- Node2 -->
<g id="Node000002" class="node">
<title>Node2</title>
<g id="a_Node000002"><a xlink:href="structTTL__shape__t.html" target="_top" xlink:title="Description of a Shape.">
<polygon fill="white" stroke="none" points="65.75,-183.25 0,-183.25 0,-103 65.75,-103 65.75,-183.25"/>
<text text-anchor="start" x="4" y="-169.75" font-family="Helvetica,sans-Serif" font-size="10.00">TTL_shape_t</text>
<text text-anchor="start" x="9.38" y="-154.5" font-family="Helvetica,sans-Serif" font-size="10.00">+</text>
<text text-anchor="start" x="24.75" y="-154.5" font-family="Helvetica,sans-Serif" font-size="10.00">width</text>
<text text-anchor="start" x="9.38" y="-139.25" font-family="Helvetica,sans-Serif" font-size="10.00">+</text>
<text text-anchor="start" x="24.75" y="-139.25" font-family="Helvetica,sans-Serif" font-size="10.00">height</text>
<text text-anchor="start" x="9.38" y="-124" font-family="Helvetica,sans-Serif" font-size="10.00">+</text>
<text text-anchor="start" x="24.75" y="-124" font-family="Helvetica,sans-Serif" font-size="10.00">depth</text>
<text text-anchor="start" x="31.38" y="-108.75" font-family="Helvetica,sans-Serif" font-size="10.00"> </text>
<polygon fill="#666666" stroke="#666666" points="0,-166 0,-166 65.75,-166 65.75,-166 0,-166"/>
<polygon fill="#666666" stroke="#666666" points="0,-120.25 0,-120.25 22.75,-120.25 22.75,-120.25 0,-120.25"/>
<polygon fill="#666666" stroke="#666666" points="22.75,-120.25 22.75,-120.25 65.75,-120.25 65.75,-120.25 22.75,-120.25"/>
<polygon fill="none" stroke="#666666" points="0,-103 0,-183.25 65.75,-183.25 65.75,-103 0,-103"/>
</a>
</g>
</g>
<!-- Node2&#45;&gt;Node1 -->
<g id="edge1_Node000001_Node000002" class="edge">
<title>Node2&#45;&gt;Node1</title>
<g id="a_edge1_Node000001_Node000002"><a xlink:title=" ">
<path fill="none" stroke="#63b8ff" d="M43.85,-103.24C47.35,-91.73 51.41,-79.15 55.62,-67.75 56.38,-65.7 57.18,-63.61 58.02,-61.51"/>
<polygon fill="none" stroke="#63b8ff" points="58.02,-61.51 56.63,-54.43 62.63,-50.43 64.02,-57.51 58.02,-61.51"/>
</a>
</g>
<text text-anchor="start" x="58.62" y="-72.5" font-family="Helvetica,sans-Serif" font-size="10.00" fill="grey">+shape</text>
</g>
<!-- Node3 -->
<g id="Node000003" class="node">
<title>Node3</title>
<g id="a_Node000003"><a xlink:href="structTTL__offset__t.html" target="_top" xlink:title="Description of the 3D offset of an object.">
<polygon fill="white" stroke="none" points="147.62,-183.25 84.12,-183.25 84.12,-103 147.62,-103 147.62,-183.25"/>
<text text-anchor="start" x="88.12" y="-169.75" font-family="Helvetica,sans-Serif" font-size="10.00">TTL_offset_t</text>
<text text-anchor="start" x="98.38" y="-154.5" font-family="Helvetica,sans-Serif" font-size="10.00">+</text>
<text text-anchor="start" x="118.62" y="-154.5" font-family="Helvetica,sans-Serif" font-size="10.00">x</text>
<text text-anchor="start" x="98.38" y="-139.25" font-family="Helvetica,sans-Serif" font-size="10.00">+</text>
<text text-anchor="start" x="118.62" y="-139.25" font-family="Helvetica,sans-Serif" font-size="10.00">y</text>
<text text-anchor="start" x="98.38" y="-124" font-family="Helvetica,sans-Serif" font-size="10.00">+</text>
<text text-anchor="start" x="118.62" y="-124" font-family="Helvetica,sans-Serif" font-size="10.00">z</text>
<text text-anchor="start" x="114.38" y="-108.75" font-family="Helvetica,sans-Serif" font-size="10.00"> </text>
<polygon fill="#666666" stroke="#666666" points="84.12,-166 84.12,-166 147.62,-166 147.62,-166 84.12,-166"/>
<polygon fill="#666666" stroke="#666666" points="84.12,-120.25 84.12,-120.25 116.62,-120.25 116.62,-120.25 84.12,-120.25"/>
<polygon fill="#666666" stroke="#666666" points="116.62,-120.25 116.62,-120.25 147.62,-120.25 147.62,-120.25 116.62,-120.25"/>
<polygon fill="none" stroke="#666666" points="84.12,-103 84.12,-183.25 147.62,-183.25 147.62,-103 84.12,-103"/>
</a>
</g>
</g>
<!-- Node3&#45;&gt;Node1 -->
<g id="edge2_Node000001_Node000003" class="edge">
<title>Node3&#45;&gt;Node1</title>
<g id="a_edge2_Node000001_Node000003"><a xlink:title=" ">
<path fill="none" stroke="#63b8ff" d="M105.6,-103.14C102.23,-91.61 98.22,-79.06 93.88,-67.75 93.04,-65.59 92.15,-63.38 91.21,-61.17"/>
<polygon fill="none" stroke="#63b8ff" points="91.26,-61.27 85.15,-57.44 86.33,-50.33 92.44,-54.16 91.26,-61.27"/>
</a>
</g>
<text text-anchor="start" x="102.57" y="-72.5" font-family="Helvetica,sans-Serif" font-size="10.00" fill="grey">+offset</text>
</g>
</g>
</svg>
