<?xml version="1.0" encoding="UTF-8" standalone="no"?>
<!DOCTYPE svg PUBLIC "-//W3C//DTD SVG 1.1//EN"
 "http://www.w3.org/Graphics/SVG/1.1/DTD/svg11.dtd">
<!-- Generated by graphviz version 12.2.1 (20241206.2353)
 -->
<!-- Title: TTL_import_double_const_uchar_tensor_buffering_t Pages: 1 -->
<svg width="263pt" height="393pt"
 viewBox="0.00 0.00 262.88 393.00" xmlns="http://www.w3.org/2000/svg" xmlns:xlink="http://www.w3.org/1999/xlink">
<g id="graph0" class="graph" transform="scale(1 1) rotate(0) translate(4 389)">
<title>TTL_import_double_const_uchar_tensor_buffering_t</title>
<!-- Node1 -->
<g id="Node000001" class="node">
<title>Node1</title>
<g id="a_Node000001"><a xlink:title="Data required to perform double buffer pipelining.">
<polygon fill="#999999" stroke="none" points="191.75,-106.75 70.5,-106.75 70.5,0 191.75,0 191.75,-106.75"/>
<text text-anchor="start" x="74.5" y="-93.25" font-family="Helvetica,sans-Serif" font-size="10.00">TTL_import_double_const</text>
<text text-anchor="start" x="75.25" y="-82" font-family="Helvetica,sans-Serif" font-size="10.00">_uchar_tensor_buffering_t</text>
<text text-anchor="start" x="90.94" y="-66.75" font-family="Helvetica,sans-Serif" font-size="10.00">+</text>
<text text-anchor="start" x="117.38" y="-66.75" font-family="Helvetica,sans-Serif" font-size="10.00">index</text>
<text text-anchor="start" x="90.94" y="-51.5" font-family="Helvetica,sans-Serif" font-size="10.00">+</text>
<text text-anchor="start" x="117.38" y="-51.5" font-family="Helvetica,sans-Serif" font-size="10.00">int_base</text>
<text text-anchor="start" x="90.94" y="-36.25" font-family="Helvetica,sans-Serif" font-size="10.00">+</text>
<text text-anchor="start" x="117.38" y="-36.25" font-family="Helvetica,sans-Serif" font-size="10.00">common</text>
<text text-anchor="start" x="90.94" y="-21" font-family="Helvetica,sans-Serif" font-size="10.00">+</text>
<text text-anchor="start" x="117.38" y="-21" font-family="Helvetica,sans-Serif" font-size="10.00">event</text>
<text text-anchor="start" x="129.62" y="-5.75" font-family="Helvetica,sans-Serif" font-size="10.00"> </text>
<polygon fill="#666666" stroke="#666666" points="70.5,-78.25 70.5,-78.25 191.75,-78.25 191.75,-78.25 70.5,-78.25"/>
<polygon fill="#666666" stroke="#666666" points="70.5,-17.25 70.5,-17.25 115.38,-17.25 115.38,-17.25 70.5,-17.25"/>
<polygon fill="#666666" stroke="#666666" points="115.38,-17.25 115.38,-17.25 191.75,-17.25 191.75,-17.25 115.38,-17.25"/>
<polygon fill="none" stroke="#666666" points="70.5,0 70.5,-106.75 191.75,-106.75 191.75,0 70.5,0"/>
</a>
</g>
</g>
<!-- Node2 -->
<g id="Node000002" class="node">
<title>Node2</title>
<g id="a_Node000002"><a xlink:href="structTTL__const__ext__uchar__tensor__t.html" target="_top" xlink:title=" ">
<polygon fill="white" stroke="none" points="133.38,-251.5 30.88,-251.5 30.88,-175.25 133.38,-175.25 133.38,-251.5"/>
<text text-anchor="start" x="34.88" y="-238" font-family="Helvetica,sans-Serif" font-size="10.00">TTL_const_ext_uchar</text>
<text text-anchor="start" x="61.88" y="-226.75" font-family="Helvetica,sans-Serif" font-size="10.00">_tensor_t</text>
<text text-anchor="start" x="45.12" y="-211.5" font-family="Helvetica,sans-Serif" font-size="10.00">+</text>
<text text-anchor="start" x="65.38" y="-211.5" font-family="Helvetica,sans-Serif" font-size="10.00">base</text>
<text text-anchor="start" x="45.12" y="-196.25" font-family="Helvetica,sans-Serif" font-size="10.00">+</text>
<text text-anchor="start" x="65.38" y="-196.25" font-family="Helvetica,sans-Serif" font-size="10.00">elem_size</text>
<text text-anchor="start" x="80.62" y="-181" font-family="Helvetica,sans-Serif" font-size="10.00"> </text>
<polygon fill="#666666" stroke="#666666" points="30.88,-223 30.88,-223 133.38,-223 133.38,-223 30.88,-223"/>
<polygon fill="#666666" stroke="#666666" points="30.88,-192.5 30.88,-192.5 63.38,-192.5 63.38,-192.5 30.88,-192.5"/>
<polygon fill="#666666" stroke="#666666" points="63.38,-192.5 63.38,-192.5 133.38,-192.5 133.38,-192.5 63.38,-192.5"/>
<polygon fill="none" stroke="#666666" points="30.88,-175.25 30.88,-251.5 133.38,-251.5 133.38,-175.25 30.88,-175.25"/>
</a>
</g>
</g>
<!-- Node2&#45;&gt;Node1 -->
<g id="edge1_Node000001_Node000002" class="edge">
<title>Node2&#45;&gt;Node1</title>
<g id="a_edge1_Node000001_Node000002"><a xlink:title=" ">
<path fill="none" stroke="#63b8ff" d="M77.99,-175.39C77.39,-159.47 78.3,-140.86 83.38,-124.75 84.08,-122.52 84.87,-120.3 85.75,-118.1"/>
<polygon fill="none" stroke="#63b8ff" points="85.71,-118.18 84.61,-111.06 90.76,-107.3 91.86,-114.42 85.71,-118.18"/>
</a>
</g>
<text text-anchor="start" x="86.38" y="-144.75" font-family="Helvetica,sans-Serif" font-size="10.00" fill="grey">+ext_tensor_in</text>
<text text-anchor="start" x="86.38" y="-129.5" font-family="Helvetica,sans-Serif" font-size="10.00" fill="grey">+ext_tensor_out</text>
</g>
<!-- Node3 -->
<g id="Node000003" class="node">
<title>Node3</title>
<g id="a_Node000003"><a xlink:href="structTTL__layout__t.html" target="_top" xlink:title="Description of a Tensor layout in memory.">
<polygon fill="white" stroke="none" points="80.25,-377.38 0,-377.38 0,-312.38 80.25,-312.38 80.25,-377.38"/>
<text text-anchor="start" x="11.62" y="-363.88" font-family="Helvetica,sans-Serif" font-size="10.00">TTL_layout_t</text>
<text text-anchor="start" x="4" y="-348.62" font-family="Helvetica,sans-Serif" font-size="10.00">+</text>
<text text-anchor="start" x="14" y="-348.62" font-family="Helvetica,sans-Serif" font-size="10.00">row_spacing</text>
<text text-anchor="start" x="4" y="-333.38" font-family="Helvetica,sans-Serif" font-size="10.00">+</text>
<text text-anchor="start" x="14" y="-333.38" font-family="Helvetica,sans-Serif" font-size="10.00">plane_spacing</text>
<text text-anchor="start" x="38.62" y="-318.12" font-family="Helvetica,sans-Serif" font-size="10.00"> </text>
<polygon fill="#666666" stroke="#666666" points="0,-360.12 0,-360.12 80.25,-360.12 80.25,-360.12 0,-360.12"/>
<polygon fill="#666666" stroke="#666666" points="0,-329.62 0,-329.62 12,-329.62 12,-329.62 0,-329.62"/>
<polygon fill="#666666" stroke="#666666" points="12,-329.62 12,-329.62 80.25,-329.62 80.25,-329.62 12,-329.62"/>
<polygon fill="none" stroke="#666666" points="0,-312.38 0,-377.38 80.25,-377.38 80.25,-312.38 0,-312.38"/>
</a>
</g>
</g>
<!-- Node3&#45;&gt;Node2 -->
<g id="edge2_Node000002_Node000003" class="edge">
<title>Node3&#45;&gt;Node2</title>
<g id="a_edge2_Node000002_Node000003"><a xlink:title=" ">
<path fill="none" stroke="#63b8ff" d="M36.59,-312.39C36.13,-298.86 37.02,-283.08 41.62,-269.5 42.43,-267.14 43.37,-264.79 44.42,-262.48"/>
<polygon fill="none" stroke="#63b8ff" points="44.38,-262.56 43.7,-255.38 50.07,-252 50.75,-259.18 44.38,-262.56"/>
</a>
</g>
<text text-anchor="start" x="44.62" y="-274.25" font-family="Helvetica,sans-Serif" font-size="10.00" fill="grey">+layout</text>
</g>
<!-- Node4 -->
<g id="Node000004" class="node">
<title>Node4</title>
<g id="a_Node000004"><a xlink:href="structTTL__shape__t.html" target="_top" xlink:title="Description of a Shape.">
<polygon fill="white" stroke="none" points="169,-385 103.25,-385 103.25,-304.75 169,-304.75 169,-385"/>
<text text-anchor="start" x="107.25" y="-371.5" font-family="Helvetica,sans-Serif" font-size="10.00">TTL_shape_t</text>
<text text-anchor="start" x="112.62" y="-356.25" font-family="Helvetica,sans-Serif" font-size="10.00">+</text>
<text text-anchor="start" x="128" y="-356.25" font-family="Helvetica,sans-Serif" font-size="10.00">width</text>
<text text-anchor="start" x="112.62" y="-341" font-family="Helvetica,sans-Serif" font-size="10.00">+</text>
<text text-anchor="start" x="128" y="-341" font-family="Helvetica,sans-Serif" font-size="10.00">height</text>
<text text-anchor="start" x="112.62" y="-325.75" font-family="Helvetica,sans-Serif" font-size="10.00">+</text>
<text text-anchor="start" x="128" y="-325.75" font-family="Helvetica,sans-Serif" font-size="10.00">depth</text>
<text text-anchor="start" x="134.62" y="-310.5" font-family="Helvetica,sans-Serif" font-size="10.00"> </text>
<polygon fill="#666666" stroke="#666666" points="103.25,-367.75 103.25,-367.75 169,-367.75 169,-367.75 103.25,-367.75"/>
<polygon fill="#666666" stroke="#666666" points="103.25,-322 103.25,-322 126,-322 126,-322 103.25,-322"/>
<polygon fill="#666666" stroke="#666666" points="126,-322 126,-322 169,-322 169,-322 126,-322"/>
<polygon fill="none" stroke="#666666" points="103.25,-304.75 103.25,-385 169,-385 169,-304.75 103.25,-304.75"/>
</a>
</g>
</g>
<!-- Node4&#45;&gt;Node2 -->
<g id="edge3_Node000002_Node000004" class="edge">
<title>Node4&#45;&gt;Node2</title>
<g id="a_edge3_Node000002_Node000004"><a xlink:title=" ">
<path fill="none" stroke="#63b8ff" d="M118.68,-304.93C116.02,-298.86 113.35,-292.65 110.88,-286.75 107.72,-279.22 104.45,-271.22 101.3,-263.39"/>
<polygon fill="none" stroke="#63b8ff" points="101.26,-263.29 95.32,-259.2 96.81,-252.14 102.75,-256.23 101.26,-263.29"/>
</a>
</g>
<text text-anchor="start" x="113.88" y="-274.25" font-family="Helvetica,sans-Serif" font-size="10.00" fill="grey">+shape</text>
</g>
<!-- Node5 -->
<g id="Node000005" class="node">
<title>Node5</title>
<g id="a_Node000005"><a xlink:href="structTTL__tile__t.html" target="_top" xlink:title=" ">
<polygon fill="white" stroke="none" points="207.25,-238.25 155,-238.25 155,-188.5 207.25,-188.5 207.25,-238.25"/>
<text text-anchor="start" x="159" y="-224.75" font-family="Helvetica,sans-Serif" font-size="10.00">TTL_tile_t</text>
<text text-anchor="start" x="179.62" y="-209.5" font-family="Helvetica,sans-Serif" font-size="10.00"> </text>
<text text-anchor="start" x="179.62" y="-194.25" font-family="Helvetica,sans-Serif" font-size="10.00"> </text>
<polygon fill="#666666" stroke="#666666" points="155,-221 155,-221 207.25,-221 207.25,-221 155,-221"/>
<polygon fill="#666666" stroke="#666666" points="155,-205.75 155,-205.75 207.25,-205.75 207.25,-205.75 155,-205.75"/>
<polygon fill="none" stroke="#666666" points="155,-188.5 155,-238.25 207.25,-238.25 207.25,-188.5 155,-188.5"/>
</a>
</g>
</g>
<!-- Node4&#45;&gt;Node5 -->
<g id="edge5_Node000005_Node000004" class="edge">
<title>Node4&#45;&gt;Node5</title>
<g id="a_edge5_Node000005_Node000004"><a xlink:title=" ">
<path fill="none" stroke="#63b8ff" d="M147.3,-305.06C150.8,-293.55 154.82,-280.96 158.88,-269.5 161.12,-263.16 163.67,-256.47 166.21,-250.02"/>
<polygon fill="none" stroke="#63b8ff" points="166.2,-250.04 164.74,-242.98 170.69,-238.92 172.16,-245.98 166.2,-250.04"/>
</a>
</g>
<text text-anchor="start" x="161.88" y="-274.25" font-family="Helvetica,sans-Serif" font-size="10.00" fill="grey">+shape</text>
</g>
<!-- Node5&#45;&gt;Node1 -->
<g id="edge4_Node000001_Node000005" class="edge">
<title>Node5&#45;&gt;Node1</title>
<g id="a_edge4_Node000001_Node000005"><a xlink:title=" ">
<path fill="none" stroke="#63b8ff" d="M176.08,-188.7C172.07,-170.93 166.02,-146.09 159.12,-124.75 158.5,-122.82 157.85,-120.87 157.18,-118.9"/>
<polygon fill="none" stroke="#63b8ff" points="157.18,-118.9 151.4,-114.59 153.15,-107.59 158.93,-111.9 157.18,-118.9"/>
</a>
</g>
<text text-anchor="start" x="171.08" y="-137.12" font-family="Helvetica,sans-Serif" font-size="10.00" fill="grey">+prev_tile</text>
</g>
<!-- Node6 -->
<g id="Node000006" class="node">
<title>Node6</title>
<g id="a_Node000006"><a xlink:href="structTTL__offset__t.html" target="_top" xlink:title="Description of the 3D offset of an object.">
<polygon fill="white" stroke="none" points="254.88,-385 191.38,-385 191.38,-304.75 254.88,-304.75 254.88,-385"/>
<text text-anchor="start" x="195.38" y="-371.5" font-family="Helvetica,sans-Serif" font-size="10.00">TTL_offset_t</text>
<text text-anchor="start" x="205.62" y="-356.25" font-family="Helvetica,sans-Serif" font-size="10.00">+</text>
<text text-anchor="start" x="225.88" y="-356.25" font-family="Helvetica,sans-Serif" font-size="10.00">x</text>
<text text-anchor="start" x="205.62" y="-341" font-family="Helvetica,sans-Serif" font-size="10.00">+</text>
<text text-anchor="start" x="225.88" y="-341" font-family="Helvetica,sans-Serif" font-size="10.00">y</text>
<text text-anchor="start" x="205.62" y="-325.75" font-family="Helvetica,sans-Serif" font-size="10.00">+</text>
<text text-anchor="start" x="225.88" y="-325.75" font-family="Helvetica,sans-Serif" font-size="10.00">z</text>
<text text-anchor="start" x="221.62" y="-310.5" font-family="Helvetica,sans-Serif" font-size="10.00"> </text>
<polygon fill="#666666" stroke="#666666" points="191.38,-367.75 191.38,-367.75 254.88,-367.75 254.88,-367.75 191.38,-367.75"/>
<polygon fill="#666666" stroke="#666666" points="191.38,-322 191.38,-322 223.88,-322 223.88,-322 191.38,-322"/>
<polygon fill="#666666" stroke="#666666" points="223.88,-322 223.88,-322 254.88,-322 254.88,-322 223.88,-322"/>
<polygon fill="none" stroke="#666666" points="191.38,-304.75 191.38,-385 254.88,-385 254.88,-304.75 191.38,-304.75"/>
</a>
</g>
</g>
<!-- Node6&#45;&gt;Node5 -->
<g id="edge6_Node000005_Node000006" class="edge">
<title>Node6&#45;&gt;Node5</title>
<g id="a_edge6_Node000005_Node000006"><a xlink:title=" ">
<path fill="none" stroke="#63b8ff" d="M212.03,-304.75C208.67,-293.34 204.87,-280.88 201.12,-269.5 199.05,-263.19 196.74,-256.52 194.44,-250.09"/>
<polygon fill="none" stroke="#63b8ff" points="194.5,-250.27 188.7,-246 190.41,-238.99 196.22,-243.27 194.5,-250.27"/>
</a>
</g>
<text text-anchor="start" x="209.28" y="-274.25" font-family="Helvetica,sans-Serif" font-size="10.00" fill="grey">+offset</text>
</g>
</g>
</svg>
