<?xml version="1.0" encoding="UTF-8" standalone="no"?>
<!DOCTYPE svg PUBLIC "-//W3C//DTD SVG 1.1//EN"
 "http://www.w3.org/Graphics/SVG/1.1/DTD/svg11.dtd">
<!-- Generated by graphviz version 12.2.1 (20241206.2353)
 -->
<!-- Title: TTL_io_short_tensor_t Pages: 1 -->
<svg width="282pt" height="443pt"
 viewBox="0.00 0.00 281.88 443.00" xmlns="http://www.w3.org/2000/svg" xmlns:xlink="http://www.w3.org/1999/xlink">
<g id="graph0" class="graph" transform="scale(1 1) rotate(0) translate(4 439)">
<title>TTL_io_short_tensor_t</title>
<!-- Node1 -->
<g id="Node000001" class="node">
<title>Node1</title>
<g id="a_Node000001"><a xlink:title="Describes a pair of internal Tensors after an operation.">
<polygon fill="#999999" stroke="none" points="207.25,-49.75 101,-49.75 101,0 207.25,0 207.25,-49.75"/>
<text text-anchor="start" x="105" y="-36.25" font-family="Helvetica,sans-Serif" font-size="10.00">TTL_io_short_tensor_t</text>
<text text-anchor="start" x="152.62" y="-21" font-family="Helvetica,sans-Serif" font-size="10.00"> </text>
<text text-anchor="start" x="152.62" y="-5.75" font-family="Helvetica,sans-Serif" font-size="10.00"> </text>
<polygon fill="#666666" stroke="#666666" points="101,-32.5 101,-32.5 207.25,-32.5 207.25,-32.5 101,-32.5"/>
<polygon fill="#666666" stroke="#666666" points="101,-17.25 101,-17.25 207.25,-17.25 207.25,-17.25 101,-17.25"/>
<polygon fill="none" stroke="#666666" points="101,0 101,-49.75 207.25,-49.75 207.25,0 101,0"/>
</a>
</g>
</g>
<!-- Node2 -->
<g id="Node000002" class="node">
<title>Node2</title>
<g id="a_Node000002"><a xlink:href="structTTL__int__short__sub__tensor__t.html" target="_top" xlink:title="const and non&#45;const sub tensors in the appropriate address space">
<polygon fill="white" stroke="none" points="219.25,-168 89,-168 89,-118.25 219.25,-118.25 219.25,-168"/>
<text text-anchor="start" x="93" y="-154.5" font-family="Helvetica,sans-Serif" font-size="10.00">TTL_int_short_sub_tensor_t</text>
<text text-anchor="start" x="115.25" y="-139.25" font-family="Helvetica,sans-Serif" font-size="10.00">+</text>
<text text-anchor="start" x="147.5" y="-139.25" font-family="Helvetica,sans-Serif" font-size="10.00">origin</text>
<text text-anchor="start" x="152.62" y="-124" font-family="Helvetica,sans-Serif" font-size="10.00"> </text>
<polygon fill="#666666" stroke="#666666" points="89,-150.75 89,-150.75 219.25,-150.75 219.25,-150.75 89,-150.75"/>
<polygon fill="#666666" stroke="#666666" points="89,-135.5 89,-135.5 145.5,-135.5 145.5,-135.5 89,-135.5"/>
<polygon fill="#666666" stroke="#666666" points="145.5,-135.5 145.5,-135.5 219.25,-135.5 219.25,-135.5 145.5,-135.5"/>
<polygon fill="none" stroke="#666666" points="89,-118.25 89,-168 219.25,-168 219.25,-118.25 89,-118.25"/>
</a>
</g>
</g>
<!-- Node2&#45;&gt;Node1 -->
<g id="edge1_Node000001_Node000002" class="edge">
<title>Node2&#45;&gt;Node1</title>
<g id="a_edge1_Node000001_Node000002"><a xlink:title=" ">
<path fill="none" stroke="#63b8ff" d="M154.12,-118.32C154.12,-102.26 154.12,-80.74 154.12,-62.51"/>
<polygon fill="none" stroke="#63b8ff" points="154.13,-62.55 150.13,-56.55 154.13,-50.55 158.13,-56.55 154.13,-62.55"/>
</a>
</g>
<text text-anchor="start" x="157.12" y="-87.75" font-family="Helvetica,sans-Serif" font-size="10.00" fill="grey">+imported_to</text>
<text text-anchor="start" x="157.12" y="-72.5" font-family="Helvetica,sans-Serif" font-size="10.00" fill="grey">+to_export_from</text>
</g>
<!-- Node3 -->
<g id="Node000003" class="node">
<title>Node3</title>
<g id="a_Node000003"><a xlink:href="structTTL__int__short__tensor__t.html" target="_top" xlink:title="const and non&#45;const tensors in the appropriate address space">
<polygon fill="white" stroke="none" points="117.75,-293.88 8.5,-293.88 8.5,-228.88 117.75,-228.88 117.75,-293.88"/>
<text text-anchor="start" x="12.5" y="-280.38" font-family="Helvetica,sans-Serif" font-size="10.00">TTL_int_short_tensor_t</text>
<text text-anchor="start" x="24.44" y="-265.12" font-family="Helvetica,sans-Serif" font-size="10.00">+</text>
<text text-anchor="start" x="46.38" y="-265.12" font-family="Helvetica,sans-Serif" font-size="10.00">base</text>
<text text-anchor="start" x="24.44" y="-249.88" font-family="Helvetica,sans-Serif" font-size="10.00">+</text>
<text text-anchor="start" x="46.38" y="-249.88" font-family="Helvetica,sans-Serif" font-size="10.00">elem_size</text>
<text text-anchor="start" x="61.62" y="-234.62" font-family="Helvetica,sans-Serif" font-size="10.00"> </text>
<polygon fill="#666666" stroke="#666666" points="8.5,-276.62 8.5,-276.62 117.75,-276.62 117.75,-276.62 8.5,-276.62"/>
<polygon fill="#666666" stroke="#666666" points="8.5,-246.12 8.5,-246.12 44.38,-246.12 44.38,-246.12 8.5,-246.12"/>
<polygon fill="#666666" stroke="#666666" points="44.38,-246.12 44.38,-246.12 117.75,-246.12 117.75,-246.12 44.38,-246.12"/>
<polygon fill="none" stroke="#666666" points="8.5,-228.88 8.5,-293.88 117.75,-293.88 117.75,-228.88 8.5,-228.88"/>
</a>
</g>
</g>
<!-- Node3&#45;&gt;Node2 -->
<g id="edge2_Node000002_Node000003" class="edge">
<title>Node3&#45;&gt;Node2</title>
<g id="a_edge2_Node000002_Node000003"><a xlink:title=" ">
<path fill="none" stroke="#63b8ff" d="M75.55,-228.91C81.96,-214.92 90.64,-198.78 101.12,-186 103.89,-182.63 106.96,-179.36 110.2,-176.23"/>
<polygon fill="none" stroke="#63b8ff" points="110.02,-176.4 111.83,-169.42 118.97,-168.41 117.16,-175.39 110.02,-176.4"/>
</a>
</g>
<text text-anchor="start" x="104.12" y="-190.75" font-family="Helvetica,sans-Serif" font-size="10.00" fill="grey">+tensor</text>
</g>
<!-- Node4 -->
<g id="Node000004" class="node">
<title>Node4</title>
<g id="a_Node000004"><a xlink:href="structTTL__layout__t.html" target="_top" xlink:title="Description of a Tensor layout in memory.">
<polygon fill="white" stroke="none" points="80.25,-427.38 0,-427.38 0,-362.38 80.25,-362.38 80.25,-427.38"/>
<text text-anchor="start" x="11.62" y="-413.88" font-family="Helvetica,sans-Serif" font-size="10.00">TTL_layout_t</text>
<text text-anchor="start" x="4" y="-398.62" font-family="Helvetica,sans-Serif" font-size="10.00">+</text>
<text text-anchor="start" x="14" y="-398.62" font-family="Helvetica,sans-Serif" font-size="10.00">row_spacing</text>
<text text-anchor="start" x="4" y="-383.38" font-family="Helvetica,sans-Serif" font-size="10.00">+</text>
<text text-anchor="start" x="14" y="-383.38" font-family="Helvetica,sans-Serif" font-size="10.00">plane_spacing</text>
<text text-anchor="start" x="38.62" y="-368.12" font-family="Helvetica,sans-Serif" font-size="10.00"> </text>
<polygon fill="#666666" stroke="#666666" points="0,-410.12 0,-410.12 80.25,-410.12 80.25,-410.12 0,-410.12"/>
<polygon fill="#666666" stroke="#666666" points="0,-379.62 0,-379.62 12,-379.62 12,-379.62 0,-379.62"/>
<polygon fill="#666666" stroke="#666666" points="12,-379.62 12,-379.62 80.25,-379.62 80.25,-379.62 12,-379.62"/>
<polygon fill="none" stroke="#666666" points="0,-362.38 0,-427.38 80.25,-427.38 80.25,-362.38 0,-362.38"/>
</a>
</g>
</g>
<!-- Node4&#45;&gt;Node3 -->
<g id="edge3_Node000003_Node000004" class="edge">
<title>Node4&#45;&gt;Node3</title>
<g id="a_edge3_Node000003_Node000004"><a xlink:title=" ">
<path fill="none" stroke="#63b8ff" d="M38.41,-362.51C38.29,-349.14 38.94,-333.45 41.62,-319.5 42.47,-315.1 43.62,-310.6 44.96,-306.14"/>
<polygon fill="none" stroke="#63b8ff" points="44.98,-306.07 43.11,-299.11 48.82,-294.7 50.69,-301.66 44.98,-306.07"/>
</a>
</g>
<text text-anchor="start" x="44.62" y="-324.25" font-family="Helvetica,sans-Serif" font-size="10.00" fill="grey">+layout</text>
</g>
<!-- Node5 -->
<g id="Node000005" class="node">
<title>Node5</title>
<g id="a_Node000005"><a xlink:href="structTTL__shape__t.html" target="_top" xlink:title="Description of a Shape.">
<polygon fill="white" stroke="none" points="175,-435 109.25,-435 109.25,-354.75 175,-354.75 175,-435"/>
<text text-anchor="start" x="113.25" y="-421.5" font-family="Helvetica,sans-Serif" font-size="10.00">TTL_shape_t</text>
<text text-anchor="start" x="118.62" y="-406.25" font-family="Helvetica,sans-Serif" font-size="10.00">+</text>
<text text-anchor="start" x="134" y="-406.25" font-family="Helvetica,sans-Serif" font-size="10.00">width</text>
<text text-anchor="start" x="118.62" y="-391" font-family="Helvetica,sans-Serif" font-size="10.00">+</text>
<text text-anchor="start" x="134" y="-391" font-family="Helvetica,sans-Serif" font-size="10.00">height</text>
<text text-anchor="start" x="118.62" y="-375.75" font-family="Helvetica,sans-Serif" font-size="10.00">+</text>
<text text-anchor="start" x="134" y="-375.75" font-family="Helvetica,sans-Serif" font-size="10.00">depth</text>
<text text-anchor="start" x="140.62" y="-360.5" font-family="Helvetica,sans-Serif" font-size="10.00"> </text>
<polygon fill="#666666" stroke="#666666" points="109.25,-417.75 109.25,-417.75 175,-417.75 175,-417.75 109.25,-417.75"/>
<polygon fill="#666666" stroke="#666666" points="109.25,-372 109.25,-372 132,-372 132,-372 109.25,-372"/>
<polygon fill="#666666" stroke="#666666" points="132,-372 132,-372 175,-372 175,-372 132,-372"/>
<polygon fill="none" stroke="#666666" points="109.25,-354.75 109.25,-435 175,-435 175,-354.75 109.25,-354.75"/>
</a>
</g>
</g>
<!-- Node5&#45;&gt;Node2 -->
<g id="edge5_Node000002_Node000005" class="edge">
<title>Node5&#45;&gt;Node2</title>
<g id="a_edge5_Node000002_Node000005"><a xlink:title=" ">
<path fill="none" stroke="#63b8ff" d="M144,-354.85C146.29,-307.26 150.12,-227.41 152.36,-180.87"/>
<polygon fill="none" stroke="#63b8ff" points="152.37,-180.73 148.66,-174.55 152.94,-168.75 156.65,-174.93 152.37,-180.73"/>
</a>
</g>
<text text-anchor="start" x="153.28" y="-257.5" font-family="Helvetica,sans-Serif" font-size="10.00" fill="grey">+shape</text>
</g>
<!-- Node5&#45;&gt;Node3 -->
<g id="edge4_Node000003_Node000005" class="edge">
<title>Node5&#45;&gt;Node3</title>
<g id="a_edge4_Node000003_Node000005"><a xlink:title=" ">
<path fill="none" stroke="#63b8ff" d="M113.71,-355C109.6,-348.98 105.54,-342.76 101.88,-336.75 95.77,-326.72 89.66,-315.63 84.16,-305.14"/>
<polygon fill="none" stroke="#63b8ff" points="84.15,-305.11 77.85,-301.61 78.66,-294.44 84.96,-297.95 84.15,-305.11"/>
</a>
</g>
<text text-anchor="start" x="104.88" y="-324.25" font-family="Helvetica,sans-Serif" font-size="10.00" fill="grey">+shape</text>
</g>
<!-- Node6 -->
<g id="Node000006" class="node">
<title>Node6</title>
<g id="a_Node000006"><a xlink:href="structTTL__offset__t.html" target="_top" xlink:title="Description of the 3D offset of an object.">
<polygon fill="white" stroke="none" points="273.88,-301.5 210.38,-301.5 210.38,-221.25 273.88,-221.25 273.88,-301.5"/>
<text text-anchor="start" x="214.38" y="-288" font-family="Helvetica,sans-Serif" font-size="10.00">TTL_offset_t</text>
<text text-anchor="start" x="224.62" y="-272.75" font-family="Helvetica,sans-Serif" font-size="10.00">+</text>
<text text-anchor="start" x="244.88" y="-272.75" font-family="Helvetica,sans-Serif" font-size="10.00">x</text>
<text text-anchor="start" x="224.62" y="-257.5" font-family="Helvetica,sans-Serif" font-size="10.00">+</text>
<text text-anchor="start" x="244.88" y="-257.5" font-family="Helvetica,sans-Serif" font-size="10.00">y</text>
<text text-anchor="start" x="224.62" y="-242.25" font-family="Helvetica,sans-Serif" font-size="10.00">+</text>
<text text-anchor="start" x="244.88" y="-242.25" font-family="Helvetica,sans-Serif" font-size="10.00">z</text>
<text text-anchor="start" x="240.62" y="-227" font-family="Helvetica,sans-Serif" font-size="10.00"> </text>
<polygon fill="#666666" stroke="#666666" points="210.38,-284.25 210.38,-284.25 273.88,-284.25 273.88,-284.25 210.38,-284.25"/>
<polygon fill="#666666" stroke="#666666" points="210.38,-238.5 210.38,-238.5 242.88,-238.5 242.88,-238.5 210.38,-238.5"/>
<polygon fill="#666666" stroke="#666666" points="242.88,-238.5 242.88,-238.5 273.88,-238.5 273.88,-238.5 242.88,-238.5"/>
<polygon fill="none" stroke="#666666" points="210.38,-221.25 210.38,-301.5 273.88,-301.5 273.88,-221.25 210.38,-221.25"/>
</a>
</g>
</g>
<!-- Node6&#45;&gt;Node2 -->
<g id="edge6_Node000002_Node000006" class="edge">
<title>Node6&#45;&gt;Node2</title>
<g id="a_edge6_Node000002_Node000006"><a xlink:title=" ">
<path fill="none" stroke="#63b8ff" d="M212.58,-221.34C202.02,-207.39 190.21,-191.79 179.99,-178.29"/>
<polygon fill="none" stroke="#63b8ff" points="179.97,-178.26 173.16,-175.89 172.72,-168.7 179.54,-171.06 179.97,-178.26"/>
</a>
</g>
<text text-anchor="start" x="201.12" y="-190.75" font-family="Helvetica,sans-Serif" font-size="10.00" fill="grey">+sub_offset</text>
</g>
</g>
</svg>
