<?xml version="1.0" encoding="UTF-8" standalone="no"?>
<!DOCTYPE svg PUBLIC "-//W3C//DTD SVG 1.1//EN"
 "http://www.w3.org/Graphics/SVG/1.1/DTD/svg11.dtd">
<!-- Generated by graphviz version 12.2.1 (20241206.2353)
 -->
<!-- Title: TTL_int_void_sub_tensor_t Pages: 1 -->
<svg width="282pt" height="325pt"
 viewBox="0.00 0.00 281.88 324.75" xmlns="http://www.w3.org/2000/svg" xmlns:xlink="http://www.w3.org/1999/xlink">
<g id="graph0" class="graph" transform="scale(1 1) rotate(0) translate(4 320.75)">
<title>TTL_int_void_sub_tensor_t</title>
<!-- Node1 -->
<g id="Node000001" class="node">
<title>Node1</title>
<g id="a_Node000001"><a xlink:title="const and non&#45;const sub tensors in the appropriate address space">
<polygon fill="#999999" stroke="none" points="217.38,-49.75 90.88,-49.75 90.88,0 217.38,0 217.38,-49.75"/>
<text text-anchor="start" x="94.88" y="-36.25" font-family="Helvetica,sans-Serif" font-size="10.00">TTL_int_void_sub_tensor_t</text>
<text text-anchor="start" x="116.19" y="-21" font-family="Helvetica,sans-Serif" font-size="10.00">+</text>
<text text-anchor="start" x="147.5" y="-21" font-family="Helvetica,sans-Serif" font-size="10.00">origin</text>
<text text-anchor="start" x="152.62" y="-5.75" font-family="Helvetica,sans-Serif" font-size="10.00"> </text>
<polygon fill="#666666" stroke="#666666" points="90.88,-32.5 90.88,-32.5 217.38,-32.5 217.38,-32.5 90.88,-32.5"/>
<polygon fill="#666666" stroke="#666666" points="90.88,-17.25 90.88,-17.25 145.5,-17.25 145.5,-17.25 90.88,-17.25"/>
<polygon fill="#666666" stroke="#666666" points="145.5,-17.25 145.5,-17.25 217.38,-17.25 217.38,-17.25 145.5,-17.25"/>
<polygon fill="none" stroke="#666666" points="90.88,0 90.88,-49.75 217.38,-49.75 217.38,0 90.88,0"/>
</a>
</g>
</g>
<!-- Node2 -->
<g id="Node000002" class="node">
<title>Node2</title>
<g id="a_Node000002"><a xlink:href="structTTL__int__void__tensor__t.html" target="_top" xlink:title="const and non&#45;const tensors in the appropriate address space">
<polygon fill="white" stroke="none" points="117.88,-175.62 12.38,-175.62 12.38,-110.62 117.88,-110.62 117.88,-175.62"/>
<text text-anchor="start" x="16.38" y="-162.12" font-family="Helvetica,sans-Serif" font-size="10.00">TTL_int_void_tensor_t</text>
<text text-anchor="start" x="27.38" y="-146.88" font-family="Helvetica,sans-Serif" font-size="10.00">+</text>
<text text-anchor="start" x="48.38" y="-146.88" font-family="Helvetica,sans-Serif" font-size="10.00">base</text>
<text text-anchor="start" x="27.38" y="-131.62" font-family="Helvetica,sans-Serif" font-size="10.00">+</text>
<text text-anchor="start" x="48.38" y="-131.62" font-family="Helvetica,sans-Serif" font-size="10.00">elem_size</text>
<text text-anchor="start" x="63.62" y="-116.38" font-family="Helvetica,sans-Serif" font-size="10.00"> </text>
<polygon fill="#666666" stroke="#666666" points="12.38,-158.38 12.38,-158.38 117.88,-158.38 117.88,-158.38 12.38,-158.38"/>
<polygon fill="#666666" stroke="#666666" points="12.38,-127.88 12.38,-127.88 46.38,-127.88 46.38,-127.88 12.38,-127.88"/>
<polygon fill="#666666" stroke="#666666" points="46.38,-127.88 46.38,-127.88 117.88,-127.88 117.88,-127.88 46.38,-127.88"/>
<polygon fill="none" stroke="#666666" points="12.38,-110.62 12.38,-175.62 117.88,-175.62 117.88,-110.62 12.38,-110.62"/>
</a>
</g>
</g>
<!-- Node2&#45;&gt;Node1 -->
<g id="edge1_Node000001_Node000002" class="edge">
<title>Node2&#45;&gt;Node1</title>
<g id="a_edge1_Node000001_Node000002"><a xlink:title=" ">
<path fill="none" stroke="#63b8ff" d="M76.62,-110.63C82.63,-96.65 90.89,-80.5 101.12,-67.75 103.73,-64.5 106.63,-61.35 109.7,-58.33"/>
<polygon fill="none" stroke="#63b8ff" points="109.68,-58.35 111.46,-51.36 118.59,-50.31 116.82,-57.3 109.68,-58.35"/>
</a>
</g>
<text text-anchor="start" x="104.12" y="-72.5" font-family="Helvetica,sans-Serif" font-size="10.00" fill="grey">+tensor</text>
</g>
<!-- Node3 -->
<g id="Node000003" class="node">
<title>Node3</title>
<g id="a_Node000003"><a xlink:href="structTTL__layout__t.html" target="_top" xlink:title="Description of a Tensor layout in memory.">
<polygon fill="white" stroke="none" points="80.25,-309.12 0,-309.12 0,-244.12 80.25,-244.12 80.25,-309.12"/>
<text text-anchor="start" x="11.62" y="-295.62" font-family="Helvetica,sans-Serif" font-size="10.00">TTL_layout_t</text>
<text text-anchor="start" x="4" y="-280.38" font-family="Helvetica,sans-Serif" font-size="10.00">+</text>
<text text-anchor="start" x="14" y="-280.38" font-family="Helvetica,sans-Serif" font-size="10.00">row_spacing</text>
<text text-anchor="start" x="4" y="-265.12" font-family="Helvetica,sans-Serif" font-size="10.00">+</text>
<text text-anchor="start" x="14" y="-265.12" font-family="Helvetica,sans-Serif" font-size="10.00">plane_spacing</text>
<text text-anchor="start" x="38.62" y="-249.88" font-family="Helvetica,sans-Serif" font-size="10.00"> </text>
<polygon fill="#666666" stroke="#666666" points="0,-291.88 0,-291.88 80.25,-291.88 80.25,-291.88 0,-291.88"/>
<polygon fill="#666666" stroke="#666666" points="0,-261.38 0,-261.38 12,-261.38 12,-261.38 0,-261.38"/>
<polygon fill="#666666" stroke="#666666" points="12,-261.38 12,-261.38 80.25,-261.38 80.25,-261.38 12,-261.38"/>
<polygon fill="none" stroke="#666666" points="0,-244.12 0,-309.12 80.25,-309.12 80.25,-244.12 0,-244.12"/>
</a>
</g>
</g>
<!-- Node3&#45;&gt;Node2 -->
<g id="edge2_Node000002_Node000003" class="edge">
<title>Node3&#45;&gt;Node2</title>
<g id="a_edge2_Node000002_Node000003"><a xlink:title=" ">
<path fill="none" stroke="#63b8ff" d="M38.21,-244.22C38.05,-230.85 38.73,-215.16 41.62,-201.25 42.58,-196.68 43.89,-192.01 45.4,-187.4"/>
<polygon fill="none" stroke="#63b8ff" points="45.33,-187.59 43.66,-180.58 49.49,-176.34 51.16,-183.35 45.33,-187.59"/>
</a>
</g>
<text text-anchor="start" x="44.62" y="-206" font-family="Helvetica,sans-Serif" font-size="10.00" fill="grey">+layout</text>
</g>
<!-- Node4 -->
<g id="Node000004" class="node">
<title>Node4</title>
<g id="a_Node000004"><a xlink:href="structTTL__shape__t.html" target="_top" xlink:title="Description of a Shape.">
<polygon fill="white" stroke="none" points="175,-316.75 109.25,-316.75 109.25,-236.5 175,-236.5 175,-316.75"/>
<text text-anchor="start" x="113.25" y="-303.25" font-family="Helvetica,sans-Serif" font-size="10.00">TTL_shape_t</text>
<text text-anchor="start" x="118.62" y="-288" font-family="Helvetica,sans-Serif" font-size="10.00">+</text>
<text text-anchor="start" x="134" y="-288" font-family="Helvetica,sans-Serif" font-size="10.00">width</text>
<text text-anchor="start" x="118.62" y="-272.75" font-family="Helvetica,sans-Serif" font-size="10.00">+</text>
<text text-anchor="start" x="134" y="-272.75" font-family="Helvetica,sans-Serif" font-size="10.00">height</text>
<text text-anchor="start" x="118.62" y="-257.5" font-family="Helvetica,sans-Serif" font-size="10.00">+</text>
<text text-anchor="start" x="134" y="-257.5" font-family="Helvetica,sans-Serif" font-size="10.00">depth</text>
<text text-anchor="start" x="140.62" y="-242.25" font-family="Helvetica,sans-Serif" font-size="10.00"> </text>
<polygon fill="#666666" stroke="#666666" points="109.25,-299.5 109.25,-299.5 175,-299.5 175,-299.5 109.25,-299.5"/>
<polygon fill="#666666" stroke="#666666" points="109.25,-253.75 109.25,-253.75 132,-253.75 132,-253.75 109.25,-253.75"/>
<polygon fill="#666666" stroke="#666666" points="132,-253.75 132,-253.75 175,-253.75 175,-253.75 132,-253.75"/>
<polygon fill="none" stroke="#666666" points="109.25,-236.5 109.25,-316.75 175,-316.75 175,-236.5 109.25,-236.5"/>
</a>
</g>
</g>
<!-- Node4&#45;&gt;Node1 -->
<g id="edge4_Node000001_Node000004" class="edge">
<title>Node4&#45;&gt;Node1</title>
<g id="a_edge4_Node000001_Node000004"><a xlink:title=" ">
<path fill="none" stroke="#63b8ff" d="M144,-236.6C146.29,-189.01 150.12,-109.16 152.36,-62.62"/>
<polygon fill="none" stroke="#63b8ff" points="152.37,-62.48 148.66,-56.3 152.94,-50.5 156.65,-56.68 152.37,-62.48"/>
</a>
</g>
<text text-anchor="start" x="153.28" y="-139.25" font-family="Helvetica,sans-Serif" font-size="10.00" fill="grey">+shape</text>
</g>
<!-- Node4&#45;&gt;Node2 -->
<g id="edge3_Node000002_Node000004" class="edge">
<title>Node4&#45;&gt;Node2</title>
<g id="a_edge3_Node000002_Node000004"><a xlink:title=" ">
<path fill="none" stroke="#63b8ff" d="M113.38,-236.51C109.36,-230.57 105.41,-224.44 101.88,-218.5 95.94,-208.52 90.1,-197.44 84.88,-186.95"/>
<polygon fill="none" stroke="#63b8ff" points="84.92,-187.05 78.7,-183.41 79.67,-176.26 85.89,-179.91 84.92,-187.05"/>
</a>
</g>
<text text-anchor="start" x="104.88" y="-206" font-family="Helvetica,sans-Serif" font-size="10.00" fill="grey">+shape</text>
</g>
<!-- Node5 -->
<g id="Node000005" class="node">
<title>Node5</title>
<g id="a_Node000005"><a xlink:href="structTTL__offset__t.html" target="_top" xlink:title="Description of the 3D offset of an object.">
<polygon fill="white" stroke="none" points="273.88,-183.25 210.38,-183.25 210.38,-103 273.88,-103 273.88,-183.25"/>
<text text-anchor="start" x="214.38" y="-169.75" font-family="Helvetica,sans-Serif" font-size="10.00">TTL_offset_t</text>
<text text-anchor="start" x="224.62" y="-154.5" font-family="Helvetica,sans-Serif" font-size="10.00">+</text>
<text text-anchor="start" x="244.88" y="-154.5" font-family="Helvetica,sans-Serif" font-size="10.00">x</text>
<text text-anchor="start" x="224.62" y="-139.25" font-family="Helvetica,sans-Serif" font-size="10.00">+</text>
<text text-anchor="start" x="244.88" y="-139.25" font-family="Helvetica,sans-Serif" font-size="10.00">y</text>
<text text-anchor="start" x="224.62" y="-124" font-family="Helvetica,sans-Serif" font-size="10.00">+</text>
<text text-anchor="start" x="244.88" y="-124" font-family="Helvetica,sans-Serif" font-size="10.00">z</text>
<text text-anchor="start" x="240.62" y="-108.75" font-family="Helvetica,sans-Serif" font-size="10.00"> </text>
<polygon fill="#666666" stroke="#666666" points="210.38,-166 210.38,-166 273.88,-166 273.88,-166 210.38,-166"/>
<polygon fill="#666666" stroke="#666666" points="210.38,-120.25 210.38,-120.25 242.88,-120.25 242.88,-120.25 210.38,-120.25"/>
<polygon fill="#666666" stroke="#666666" points="242.88,-120.25 242.88,-120.25 273.88,-120.25 273.88,-120.25 242.88,-120.25"/>
<polygon fill="none" stroke="#666666" points="210.38,-103 210.38,-183.25 273.88,-183.25 273.88,-103 210.38,-103"/>
</a>
</g>
</g>
<!-- Node5&#45;&gt;Node1 -->
<g id="edge5_Node000001_Node000005" class="edge">
<title>Node5&#45;&gt;Node1</title>
<g id="a_edge5_Node000001_Node000005"><a xlink:title=" ">
<path fill="none" stroke="#63b8ff" d="M212.58,-103.09C202.02,-89.14 190.21,-73.54 179.99,-60.04"/>
<polygon fill="none" stroke="#63b8ff" points="179.97,-60.01 173.16,-57.64 172.72,-50.45 179.54,-52.81 179.97,-60.01"/>
</a>
</g>
<text text-anchor="start" x="201.12" y="-72.5" font-family="Helvetica,sans-Serif" font-size="10.00" fill="grey">+sub_offset</text>
</g>
</g>
</svg>
