<?xml version="1.0" encoding="UTF-8" standalone="no"?>
<!DOCTYPE svg PUBLIC "-//W3C//DTD SVG 1.1//EN"
 "http://www.w3.org/Graphics/SVG/1.1/DTD/svg11.dtd">
<!-- Generated by graphviz version 12.2.1 (20241206.2353)
 -->
<!-- Title: TTL_const_ext_int_sub_tensor_t Pages: 1 -->
<svg width="294pt" height="336pt"
 viewBox="0.00 0.00 293.50 336.00" xmlns="http://www.w3.org/2000/svg" xmlns:xlink="http://www.w3.org/1999/xlink">
<g id="graph0" class="graph" transform="scale(1 1) rotate(0) translate(4 332)">
<title>TTL_const_ext_int_sub_tensor_t</title>
<!-- Node1 -->
<g id="Node000001" class="node">
<title>Node1</title>
<g id="a_Node000001"><a xlink:title=" ">
<polygon fill="#999999" stroke="none" points="220.75,-61 110.75,-61 110.75,0 220.75,0 220.75,-61"/>
<text text-anchor="start" x="114.75" y="-47.5" font-family="Helvetica,sans-Serif" font-size="10.00">TTL_const_ext_int_sub</text>
<text text-anchor="start" x="145.5" y="-36.25" font-family="Helvetica,sans-Serif" font-size="10.00">_tensor_t</text>
<text text-anchor="start" x="131.94" y="-21" font-family="Helvetica,sans-Serif" font-size="10.00">+</text>
<text text-anchor="start" x="159.12" y="-21" font-family="Helvetica,sans-Serif" font-size="10.00">origin</text>
<text text-anchor="start" x="164.25" y="-5.75" font-family="Helvetica,sans-Serif" font-size="10.00"> </text>
<polygon fill="#666666" stroke="#666666" points="110.75,-32.5 110.75,-32.5 220.75,-32.5 220.75,-32.5 110.75,-32.5"/>
<polygon fill="#666666" stroke="#666666" points="110.75,-17.25 110.75,-17.25 157.12,-17.25 157.12,-17.25 110.75,-17.25"/>
<polygon fill="#666666" stroke="#666666" points="157.12,-17.25 157.12,-17.25 220.75,-17.25 220.75,-17.25 157.12,-17.25"/>
<polygon fill="none" stroke="#666666" points="110.75,0 110.75,-61 220.75,-61 220.75,0 110.75,0"/>
</a>
</g>
</g>
<!-- Node2 -->
<g id="Node000002" class="node">
<title>Node2</title>
<g id="a_Node000002"><a xlink:href="structTTL__const__ext__int__tensor__t.html" target="_top" xlink:title=" ">
<polygon fill="white" stroke="none" points="129.5,-186.88 0,-186.88 0,-121.88 129.5,-121.88 129.5,-186.88"/>
<text text-anchor="start" x="4" y="-173.38" font-family="Helvetica,sans-Serif" font-size="10.00">TTL_const_ext_int_tensor_t</text>
<text text-anchor="start" x="21" y="-158.12" font-family="Helvetica,sans-Serif" font-size="10.00">+</text>
<text text-anchor="start" x="48" y="-158.12" font-family="Helvetica,sans-Serif" font-size="10.00">base</text>
<text text-anchor="start" x="21" y="-142.88" font-family="Helvetica,sans-Serif" font-size="10.00">+</text>
<text text-anchor="start" x="48" y="-142.88" font-family="Helvetica,sans-Serif" font-size="10.00">elem_size</text>
<text text-anchor="start" x="63.25" y="-127.62" font-family="Helvetica,sans-Serif" font-size="10.00"> </text>
<polygon fill="#666666" stroke="#666666" points="0,-169.62 0,-169.62 129.5,-169.62 129.5,-169.62 0,-169.62"/>
<polygon fill="#666666" stroke="#666666" points="0,-139.12 0,-139.12 46,-139.12 46,-139.12 0,-139.12"/>
<polygon fill="#666666" stroke="#666666" points="46,-139.12 46,-139.12 129.5,-139.12 129.5,-139.12 46,-139.12"/>
<polygon fill="none" stroke="#666666" points="0,-121.88 0,-186.88 129.5,-186.88 129.5,-121.88 0,-121.88"/>
</a>
</g>
</g>
<!-- Node2&#45;&gt;Node1 -->
<g id="edge1_Node000001_Node000002" class="edge">
<title>Node2&#45;&gt;Node1</title>
<g id="a_edge1_Node000001_Node000002"><a xlink:title=" ">
<path fill="none" stroke="#63b8ff" d="M82.4,-122.04C90.8,-108.25 101.48,-92.21 112.75,-79 115.4,-75.9 118.24,-72.81 121.19,-69.78"/>
<polygon fill="none" stroke="#63b8ff" points="121.03,-69.93 122.52,-62.88 129.61,-61.54 128.12,-68.59 121.03,-69.93"/>
</a>
</g>
<text text-anchor="start" x="115.75" y="-83.75" font-family="Helvetica,sans-Serif" font-size="10.00" fill="grey">+tensor</text>
</g>
<!-- Node3 -->
<g id="Node000003" class="node">
<title>Node3</title>
<g id="a_Node000003"><a xlink:href="structTTL__layout__t.html" target="_top" xlink:title="Description of a Tensor layout in memory.">
<polygon fill="white" stroke="none" points="91.88,-320.38 11.62,-320.38 11.62,-255.38 91.88,-255.38 91.88,-320.38"/>
<text text-anchor="start" x="23.25" y="-306.88" font-family="Helvetica,sans-Serif" font-size="10.00">TTL_layout_t</text>
<text text-anchor="start" x="15.62" y="-291.62" font-family="Helvetica,sans-Serif" font-size="10.00">+</text>
<text text-anchor="start" x="25.62" y="-291.62" font-family="Helvetica,sans-Serif" font-size="10.00">row_spacing</text>
<text text-anchor="start" x="15.62" y="-276.38" font-family="Helvetica,sans-Serif" font-size="10.00">+</text>
<text text-anchor="start" x="25.62" y="-276.38" font-family="Helvetica,sans-Serif" font-size="10.00">plane_spacing</text>
<text text-anchor="start" x="50.25" y="-261.12" font-family="Helvetica,sans-Serif" font-size="10.00"> </text>
<polygon fill="#666666" stroke="#666666" points="11.62,-303.12 11.62,-303.12 91.88,-303.12 91.88,-303.12 11.62,-303.12"/>
<polygon fill="#666666" stroke="#666666" points="11.62,-272.62 11.62,-272.62 23.62,-272.62 23.62,-272.62 11.62,-272.62"/>
<polygon fill="#666666" stroke="#666666" points="23.62,-272.62 23.62,-272.62 91.88,-272.62 91.88,-272.62 23.62,-272.62"/>
<polygon fill="none" stroke="#666666" points="11.62,-255.38 11.62,-320.38 91.88,-320.38 91.88,-255.38 11.62,-255.38"/>
</a>
</g>
</g>
<!-- Node3&#45;&gt;Node2 -->
<g id="edge2_Node000002_Node000003" class="edge">
<title>Node3&#45;&gt;Node2</title>
<g id="a_edge2_Node000002_Node000003"><a xlink:title=" ">
<path fill="none" stroke="#63b8ff" d="M51.14,-255.67C51.2,-242.34 51.7,-226.62 53.25,-212.5 53.73,-208.14 54.37,-203.63 55.12,-199.13"/>
<polygon fill="none" stroke="#63b8ff" points="55.08,-199.33 52.23,-192.71 57.25,-187.53 60.1,-194.16 55.08,-199.33"/>
</a>
</g>
<text text-anchor="start" x="56.25" y="-217.25" font-family="Helvetica,sans-Serif" font-size="10.00" fill="grey">+layout</text>
</g>
<!-- Node4 -->
<g id="Node000004" class="node">
<title>Node4</title>
<g id="a_Node000004"><a xlink:href="structTTL__shape__t.html" target="_top" xlink:title="Description of a Shape.">
<polygon fill="white" stroke="none" points="186.62,-328 120.88,-328 120.88,-247.75 186.62,-247.75 186.62,-328"/>
<text text-anchor="start" x="124.88" y="-314.5" font-family="Helvetica,sans-Serif" font-size="10.00">TTL_shape_t</text>
<text text-anchor="start" x="130.25" y="-299.25" font-family="Helvetica,sans-Serif" font-size="10.00">+</text>
<text text-anchor="start" x="145.62" y="-299.25" font-family="Helvetica,sans-Serif" font-size="10.00">width</text>
<text text-anchor="start" x="130.25" y="-284" font-family="Helvetica,sans-Serif" font-size="10.00">+</text>
<text text-anchor="start" x="145.62" y="-284" font-family="Helvetica,sans-Serif" font-size="10.00">height</text>
<text text-anchor="start" x="130.25" y="-268.75" font-family="Helvetica,sans-Serif" font-size="10.00">+</text>
<text text-anchor="start" x="145.62" y="-268.75" font-family="Helvetica,sans-Serif" font-size="10.00">depth</text>
<text text-anchor="start" x="152.25" y="-253.5" font-family="Helvetica,sans-Serif" font-size="10.00"> </text>
<polygon fill="#666666" stroke="#666666" points="120.88,-310.75 120.88,-310.75 186.62,-310.75 186.62,-310.75 120.88,-310.75"/>
<polygon fill="#666666" stroke="#666666" points="120.88,-265 120.88,-265 143.62,-265 143.62,-265 120.88,-265"/>
<polygon fill="#666666" stroke="#666666" points="143.62,-265 143.62,-265 186.62,-265 186.62,-265 143.62,-265"/>
<polygon fill="none" stroke="#666666" points="120.88,-247.75 120.88,-328 186.62,-328 186.62,-247.75 120.88,-247.75"/>
</a>
</g>
</g>
<!-- Node4&#45;&gt;Node1 -->
<g id="edge4_Node000001_Node000004" class="edge">
<title>Node4&#45;&gt;Node1</title>
<g id="a_edge4_Node000001_Node000004"><a xlink:title=" ">
<path fill="none" stroke="#63b8ff" d="M155.59,-247.81C157.8,-200.68 161.51,-121.77 163.78,-73.41"/>
<polygon fill="none" stroke="#63b8ff" points="163.78,-73.52 160.06,-67.34 164.34,-61.53 168.05,-67.71 163.78,-73.52"/>
</a>
</g>
<text text-anchor="start" x="164.72" y="-150.5" font-family="Helvetica,sans-Serif" font-size="10.00" fill="grey">+shape</text>
</g>
<!-- Node4&#45;&gt;Node2 -->
<g id="edge3_Node000002_Node000004" class="edge">
<title>Node4&#45;&gt;Node2</title>
<g id="a_edge3_Node000002_Node000004"><a xlink:title=" ">
<path fill="none" stroke="#63b8ff" d="M126.08,-247.97C121.83,-241.9 117.52,-235.67 113.5,-229.75 106.41,-219.33 98.89,-207.99 91.93,-197.38"/>
<polygon fill="none" stroke="#63b8ff" points="91.98,-197.45 85.34,-194.62 85.41,-187.4 92.04,-190.24 91.98,-197.45"/>
</a>
</g>
<text text-anchor="start" x="116.5" y="-217.25" font-family="Helvetica,sans-Serif" font-size="10.00" fill="grey">+shape</text>
</g>
<!-- Node5 -->
<g id="Node000005" class="node">
<title>Node5</title>
<g id="a_Node000005"><a xlink:href="structTTL__offset__t.html" target="_top" xlink:title="Description of the 3D offset of an object.">
<polygon fill="white" stroke="none" points="285.5,-194.5 222,-194.5 222,-114.25 285.5,-114.25 285.5,-194.5"/>
<text text-anchor="start" x="226" y="-181" font-family="Helvetica,sans-Serif" font-size="10.00">TTL_offset_t</text>
<text text-anchor="start" x="236.25" y="-165.75" font-family="Helvetica,sans-Serif" font-size="10.00">+</text>
<text text-anchor="start" x="256.5" y="-165.75" font-family="Helvetica,sans-Serif" font-size="10.00">x</text>
<text text-anchor="start" x="236.25" y="-150.5" font-family="Helvetica,sans-Serif" font-size="10.00">+</text>
<text text-anchor="start" x="256.5" y="-150.5" font-family="Helvetica,sans-Serif" font-size="10.00">y</text>
<text text-anchor="start" x="236.25" y="-135.25" font-family="Helvetica,sans-Serif" font-size="10.00">+</text>
<text text-anchor="start" x="256.5" y="-135.25" font-family="Helvetica,sans-Serif" font-size="10.00">z</text>
<text text-anchor="start" x="252.25" y="-120" font-family="Helvetica,sans-Serif" font-size="10.00"> </text>
<polygon fill="#666666" stroke="#666666" points="222,-177.25 222,-177.25 285.5,-177.25 285.5,-177.25 222,-177.25"/>
<polygon fill="#666666" stroke="#666666" points="222,-131.5 222,-131.5 254.5,-131.5 254.5,-131.5 222,-131.5"/>
<polygon fill="#666666" stroke="#666666" points="254.5,-131.5 254.5,-131.5 285.5,-131.5 285.5,-131.5 254.5,-131.5"/>
<polygon fill="none" stroke="#666666" points="222,-114.25 222,-194.5 285.5,-194.5 285.5,-114.25 222,-114.25"/>
</a>
</g>
</g>
<!-- Node5&#45;&gt;Node1 -->
<g id="edge5_Node000001_Node000005" class="edge">
<title>Node5&#45;&gt;Node1</title>
<g id="a_edge5_Node000001_Node000005"><a xlink:title=" ">
<path fill="none" stroke="#63b8ff" d="M225.66,-114.48C215.64,-100.6 204.35,-84.96 194.29,-71.03"/>
<polygon fill="none" stroke="#63b8ff" points="194.43,-71.23 187.68,-68.7 187.41,-61.5 194.16,-64.02 194.43,-71.23"/>
</a>
</g>
<text text-anchor="start" x="215.39" y="-83.75" font-family="Helvetica,sans-Serif" font-size="10.00" fill="grey">+sub_offset</text>
</g>
</g>
</svg>
