<?xml version="1.0" encoding="UTF-8" standalone="no"?>
<!DOCTYPE svg PUBLIC "-//W3C//DTD SVG 1.1//EN"
 "http://www.w3.org/Graphics/SVG/1.1/DTD/svg11.dtd">
<!-- Generated by graphviz version 12.2.1 (20241206.2353)
 -->
<!-- Title: TTL_simplex_const_short_tensor_buffering_t Pages: 1 -->
<svg width="477pt" height="500pt"
 viewBox="0.00 0.00 477.19 500.00" xmlns="http://www.w3.org/2000/svg" xmlns:xlink="http://www.w3.org/1999/xlink">
<g id="graph0" class="graph" transform="scale(1 1) rotate(0) translate(4 496)">
<title>TTL_simplex_const_short_tensor_buffering_t</title>
<!-- Node1 -->
<g id="Node000001" class="node">
<title>Node1</title>
<g id="a_Node000001"><a xlink:title=" ">
<polygon fill="#999999" stroke="none" points="335,-122 214.5,-122 214.5,0 335,0 335,-122"/>
<text text-anchor="start" x="218.5" y="-108.5" font-family="Helvetica,sans-Serif" font-size="10.00">TTL_simplex_const_short</text>
<text text-anchor="start" x="233.5" y="-97.25" font-family="Helvetica,sans-Serif" font-size="10.00">_tensor_buffering_t</text>
<text text-anchor="start" x="233.44" y="-82" font-family="Helvetica,sans-Serif" font-size="10.00">+</text>
<text text-anchor="start" x="258.38" y="-82" font-family="Helvetica,sans-Serif" font-size="10.00">index</text>
<text text-anchor="start" x="233.44" y="-66.75" font-family="Helvetica,sans-Serif" font-size="10.00">+</text>
<text text-anchor="start" x="258.38" y="-66.75" font-family="Helvetica,sans-Serif" font-size="10.00">int_base</text>
<text text-anchor="start" x="233.44" y="-51.5" font-family="Helvetica,sans-Serif" font-size="10.00">+</text>
<text text-anchor="start" x="258.38" y="-51.5" font-family="Helvetica,sans-Serif" font-size="10.00">common</text>
<text text-anchor="start" x="233.44" y="-36.25" font-family="Helvetica,sans-Serif" font-size="10.00">+</text>
<text text-anchor="start" x="258.38" y="-36.25" font-family="Helvetica,sans-Serif" font-size="10.00">event_in</text>
<text text-anchor="start" x="233.44" y="-21" font-family="Helvetica,sans-Serif" font-size="10.00">+</text>
<text text-anchor="start" x="258.38" y="-21" font-family="Helvetica,sans-Serif" font-size="10.00">event_out</text>
<text text-anchor="start" x="273.25" y="-5.75" font-family="Helvetica,sans-Serif" font-size="10.00"> </text>
<polygon fill="#666666" stroke="#666666" points="214.5,-93.5 214.5,-93.5 335,-93.5 335,-93.5 214.5,-93.5"/>
<polygon fill="#666666" stroke="#666666" points="214.5,-17.25 214.5,-17.25 256.38,-17.25 256.38,-17.25 214.5,-17.25"/>
<polygon fill="#666666" stroke="#666666" points="256.38,-17.25 256.38,-17.25 335,-17.25 335,-17.25 256.38,-17.25"/>
<polygon fill="none" stroke="#666666" points="214.5,0 214.5,-122 335,-122 335,0 214.5,0"/>
</a>
</g>
</g>
<!-- Node2 -->
<g id="Node000002" class="node">
<title>Node2</title>
<g id="a_Node000002"><a xlink:href="structTTL__ext__short__tensor__t.html" target="_top" xlink:title="const and non&#45;const tensors in the appropriate address space">
<polygon fill="white" stroke="none" points="111.5,-350.88 0,-350.88 0,-285.88 111.5,-285.88 111.5,-350.88"/>
<text text-anchor="start" x="4" y="-337.38" font-family="Helvetica,sans-Serif" font-size="10.00">TTL_ext_short_tensor_t</text>
<text text-anchor="start" x="16.5" y="-322.12" font-family="Helvetica,sans-Serif" font-size="10.00">+</text>
<text text-anchor="start" x="39" y="-322.12" font-family="Helvetica,sans-Serif" font-size="10.00">base</text>
<text text-anchor="start" x="16.5" y="-306.88" font-family="Helvetica,sans-Serif" font-size="10.00">+</text>
<text text-anchor="start" x="39" y="-306.88" font-family="Helvetica,sans-Serif" font-size="10.00">elem_size</text>
<text text-anchor="start" x="54.25" y="-291.62" font-family="Helvetica,sans-Serif" font-size="10.00"> </text>
<polygon fill="#666666" stroke="#666666" points="0,-333.62 0,-333.62 111.5,-333.62 111.5,-333.62 0,-333.62"/>
<polygon fill="#666666" stroke="#666666" points="0,-303.12 0,-303.12 37,-303.12 37,-303.12 0,-303.12"/>
<polygon fill="#666666" stroke="#666666" points="37,-303.12 37,-303.12 111.5,-303.12 111.5,-303.12 37,-303.12"/>
<polygon fill="none" stroke="#666666" points="0,-285.88 0,-350.88 111.5,-350.88 111.5,-285.88 0,-285.88"/>
</a>
</g>
</g>
<!-- Node2&#45;&gt;Node1 -->
<g id="edge1_Node000001_Node000002" class="edge">
<title>Node2&#45;&gt;Node1</title>
<g id="a_edge1_Node000001_Node000002"><a xlink:title=" ">
<path fill="none" stroke="#63b8ff" d="M66.1,-286.14C77.28,-255.62 97.28,-208.95 125,-175.25 147.12,-148.36 176.85,-124.19 203.99,-105.16"/>
<polygon fill="none" stroke="#63b8ff" points="204,-105.15 206.69,-98.46 213.9,-98.36 211.21,-105.06 204,-105.15"/>
</a>
</g>
<text text-anchor="start" x="128" y="-203.88" font-family="Helvetica,sans-Serif" font-size="10.00" fill="grey">+ext_tensor_in</text>
<text text-anchor="start" x="128" y="-188.62" font-family="Helvetica,sans-Serif" font-size="10.00" fill="grey">+ext_tensor_out</text>
</g>
<!-- Node3 -->
<g id="Node000003" class="node">
<title>Node3</title>
<g id="a_Node000003"><a xlink:href="structTTL__layout__t.html" target="_top" xlink:title="Description of a Tensor layout in memory.">
<polygon fill="white" stroke="none" points="150.88,-484.38 70.62,-484.38 70.62,-419.38 150.88,-419.38 150.88,-484.38"/>
<text text-anchor="start" x="82.25" y="-470.88" font-family="Helvetica,sans-Serif" font-size="10.00">TTL_layout_t</text>
<text text-anchor="start" x="74.62" y="-455.62" font-family="Helvetica,sans-Serif" font-size="10.00">+</text>
<text text-anchor="start" x="84.62" y="-455.62" font-family="Helvetica,sans-Serif" font-size="10.00">row_spacing</text>
<text text-anchor="start" x="74.62" y="-440.38" font-family="Helvetica,sans-Serif" font-size="10.00">+</text>
<text text-anchor="start" x="84.62" y="-440.38" font-family="Helvetica,sans-Serif" font-size="10.00">plane_spacing</text>
<text text-anchor="start" x="109.25" y="-425.12" font-family="Helvetica,sans-Serif" font-size="10.00"> </text>
<polygon fill="#666666" stroke="#666666" points="70.62,-467.12 70.62,-467.12 150.88,-467.12 150.88,-467.12 70.62,-467.12"/>
<polygon fill="#666666" stroke="#666666" points="70.62,-436.62 70.62,-436.62 82.62,-436.62 82.62,-436.62 70.62,-436.62"/>
<polygon fill="#666666" stroke="#666666" points="82.62,-436.62 82.62,-436.62 150.88,-436.62 150.88,-436.62 82.62,-436.62"/>
<polygon fill="none" stroke="#666666" points="70.62,-419.38 70.62,-484.38 150.88,-484.38 150.88,-419.38 70.62,-419.38"/>
</a>
</g>
</g>
<!-- Node3&#45;&gt;Node2 -->
<g id="edge2_Node000002_Node000003" class="edge">
<title>Node3&#45;&gt;Node2</title>
<g id="a_edge2_Node000002_Node000003"><a xlink:title=" ">
<path fill="none" stroke="#63b8ff" d="M70.93,-428.38C58.78,-419.32 46.89,-407.69 40.25,-393.75 35.78,-384.37 35.53,-373.73 37.32,-363.48"/>
<polygon fill="none" stroke="#63b8ff" points="37.35,-363.35 34.95,-356.55 40.3,-351.72 42.7,-358.51 37.35,-363.35"/>
</a>
</g>
<text text-anchor="start" x="43.25" y="-381.25" font-family="Helvetica,sans-Serif" font-size="10.00" fill="grey">+layout</text>
</g>
<!-- Node8 -->
<g id="Node000008" class="node">
<title>Node8</title>
<g id="a_Node000008"><a xlink:href="structTTL__int__short__tensor__t.html" target="_top" xlink:title="const and non&#45;const tensors in the appropriate address space">
<polygon fill="white" stroke="none" points="238.38,-350.88 129.12,-350.88 129.12,-285.88 238.38,-285.88 238.38,-350.88"/>
<text text-anchor="start" x="133.12" y="-337.38" font-family="Helvetica,sans-Serif" font-size="10.00">TTL_int_short_tensor_t</text>
<text text-anchor="start" x="145.06" y="-322.12" font-family="Helvetica,sans-Serif" font-size="10.00">+</text>
<text text-anchor="start" x="167" y="-322.12" font-family="Helvetica,sans-Serif" font-size="10.00">base</text>
<text text-anchor="start" x="145.06" y="-306.88" font-family="Helvetica,sans-Serif" font-size="10.00">+</text>
<text text-anchor="start" x="167" y="-306.88" font-family="Helvetica,sans-Serif" font-size="10.00">elem_size</text>
<text text-anchor="start" x="182.25" y="-291.62" font-family="Helvetica,sans-Serif" font-size="10.00"> </text>
<polygon fill="#666666" stroke="#666666" points="129.12,-333.62 129.12,-333.62 238.38,-333.62 238.38,-333.62 129.12,-333.62"/>
<polygon fill="#666666" stroke="#666666" points="129.12,-303.12 129.12,-303.12 165,-303.12 165,-303.12 129.12,-303.12"/>
<polygon fill="#666666" stroke="#666666" points="165,-303.12 165,-303.12 238.38,-303.12 238.38,-303.12 165,-303.12"/>
<polygon fill="none" stroke="#666666" points="129.12,-285.88 129.12,-350.88 238.38,-350.88 238.38,-285.88 129.12,-285.88"/>
</a>
</g>
</g>
<!-- Node3&#45;&gt;Node8 -->
<g id="edge9_Node000008_Node000003" class="edge">
<title>Node3&#45;&gt;Node8</title>
<g id="a_edge9_Node000008_Node000003"><a xlink:title=" ">
<path fill="none" stroke="#63b8ff" d="M128.24,-419.38C137.81,-402.14 149.8,-380.54 160.18,-361.83"/>
<polygon fill="none" stroke="#63b8ff" points="160.15,-361.9 159.56,-354.71 165.97,-351.4 166.55,-358.59 160.15,-361.9"/>
</a>
</g>
<text text-anchor="start" x="154.62" y="-381.25" font-family="Helvetica,sans-Serif" font-size="10.00" fill="grey">+layout</text>
</g>
<!-- Node4 -->
<g id="Node000004" class="node">
<title>Node4</title>
<g id="a_Node000004"><a xlink:href="structTTL__shape__t.html" target="_top" xlink:title="Description of a Shape.">
<polygon fill="white" stroke="none" points="280.62,-492 214.88,-492 214.88,-411.75 280.62,-411.75 280.62,-492"/>
<text text-anchor="start" x="218.88" y="-478.5" font-family="Helvetica,sans-Serif" font-size="10.00">TTL_shape_t</text>
<text text-anchor="start" x="224.25" y="-463.25" font-family="Helvetica,sans-Serif" font-size="10.00">+</text>
<text text-anchor="start" x="239.62" y="-463.25" font-family="Helvetica,sans-Serif" font-size="10.00">width</text>
<text text-anchor="start" x="224.25" y="-448" font-family="Helvetica,sans-Serif" font-size="10.00">+</text>
<text text-anchor="start" x="239.62" y="-448" font-family="Helvetica,sans-Serif" font-size="10.00">height</text>
<text text-anchor="start" x="224.25" y="-432.75" font-family="Helvetica,sans-Serif" font-size="10.00">+</text>
<text text-anchor="start" x="239.62" y="-432.75" font-family="Helvetica,sans-Serif" font-size="10.00">depth</text>
<text text-anchor="start" x="246.25" y="-417.5" font-family="Helvetica,sans-Serif" font-size="10.00"> </text>
<polygon fill="#666666" stroke="#666666" points="214.88,-474.75 214.88,-474.75 280.62,-474.75 280.62,-474.75 214.88,-474.75"/>
<polygon fill="#666666" stroke="#666666" points="214.88,-429 214.88,-429 237.62,-429 237.62,-429 214.88,-429"/>
<polygon fill="#666666" stroke="#666666" points="237.62,-429 237.62,-429 280.62,-429 280.62,-429 237.62,-429"/>
<polygon fill="none" stroke="#666666" points="214.88,-411.75 214.88,-492 280.62,-492 280.62,-411.75 214.88,-411.75"/>
</a>
</g>
</g>
<!-- Node4&#45;&gt;Node2 -->
<g id="edge3_Node000002_Node000004" class="edge">
<title>Node4&#45;&gt;Node2</title>
<g id="a_edge3_Node000002_Node000004"><a xlink:title=" ">
<path fill="none" stroke="#63b8ff" d="M215.14,-435.22C198.72,-427.64 178.39,-418.7 159.75,-411.75 133.96,-402.14 122.21,-410.67 100.5,-393.75 89.8,-385.41 81.1,-373.75 74.3,-362.12"/>
<polygon fill="none" stroke="#63b8ff" points="74.24,-362 67.88,-358.6 68.57,-351.43 74.93,-354.82 74.24,-362"/>
</a>
</g>
<text text-anchor="start" x="103.5" y="-381.25" font-family="Helvetica,sans-Serif" font-size="10.00" fill="grey">+shape</text>
</g>
<!-- Node5 -->
<g id="Node000005" class="node">
<title>Node5</title>
<g id="a_Node000005"><a xlink:href="structTTL__tile__t.html" target="_top" xlink:title=" ">
<polygon fill="white" stroke="none" points="413.88,-225 361.62,-225 361.62,-175.25 413.88,-175.25 413.88,-225"/>
<text text-anchor="start" x="365.62" y="-211.5" font-family="Helvetica,sans-Serif" font-size="10.00">TTL_tile_t</text>
<text text-anchor="start" x="386.25" y="-196.25" font-family="Helvetica,sans-Serif" font-size="10.00"> </text>
<text text-anchor="start" x="386.25" y="-181" font-family="Helvetica,sans-Serif" font-size="10.00"> </text>
<polygon fill="#666666" stroke="#666666" points="361.62,-207.75 361.62,-207.75 413.88,-207.75 413.88,-207.75 361.62,-207.75"/>
<polygon fill="#666666" stroke="#666666" points="361.62,-192.5 361.62,-192.5 413.88,-192.5 413.88,-192.5 361.62,-192.5"/>
<polygon fill="none" stroke="#666666" points="361.62,-175.25 361.62,-225 413.88,-225 413.88,-175.25 361.62,-175.25"/>
</a>
</g>
</g>
<!-- Node4&#45;&gt;Node5 -->
<g id="edge5_Node000005_Node000004" class="edge">
<title>Node4&#45;&gt;Node5</title>
<g id="a_edge5_Node000005_Node000004"><a xlink:title=" ">
<path fill="none" stroke="#63b8ff" d="M280.6,-441.68C318.05,-429.33 377.93,-403.58 407.75,-358.5 436.22,-315.45 436.29,-291.89 419.75,-243 418.94,-240.59 417.92,-238.22 416.76,-235.89"/>
<polygon fill="none" stroke="#63b8ff" points="416.71,-235.81 410.17,-232.78 410.45,-225.57 417,-228.6 416.71,-235.81"/>
</a>
</g>
<text text-anchor="start" x="433.94" y="-314.5" font-family="Helvetica,sans-Serif" font-size="10.00" fill="grey">+shape</text>
</g>
<!-- Node7 -->
<g id="Node000007" class="node">
<title>Node7</title>
<g id="a_Node000007"><a xlink:href="structTTL__int__short__sub__tensor__t.html" target="_top" xlink:title="const and non&#45;const sub tensors in the appropriate address space">
<polygon fill="white" stroke="none" points="339.88,-225 209.62,-225 209.62,-175.25 339.88,-175.25 339.88,-225"/>
<text text-anchor="start" x="213.62" y="-211.5" font-family="Helvetica,sans-Serif" font-size="10.00">TTL_int_short_sub_tensor_t</text>
<text text-anchor="start" x="235.88" y="-196.25" font-family="Helvetica,sans-Serif" font-size="10.00">+</text>
<text text-anchor="start" x="268.12" y="-196.25" font-family="Helvetica,sans-Serif" font-size="10.00">origin</text>
<text text-anchor="start" x="273.25" y="-181" font-family="Helvetica,sans-Serif" font-size="10.00"> </text>
<polygon fill="#666666" stroke="#666666" points="209.62,-207.75 209.62,-207.75 339.88,-207.75 339.88,-207.75 209.62,-207.75"/>
<polygon fill="#666666" stroke="#666666" points="209.62,-192.5 209.62,-192.5 266.12,-192.5 266.12,-192.5 209.62,-192.5"/>
<polygon fill="#666666" stroke="#666666" points="266.12,-192.5 266.12,-192.5 339.88,-192.5 339.88,-192.5 266.12,-192.5"/>
<polygon fill="none" stroke="#666666" points="209.62,-175.25 209.62,-225 339.88,-225 339.88,-175.25 209.62,-175.25"/>
</a>
</g>
</g>
<!-- Node4&#45;&gt;Node7 -->
<g id="edge11_Node000007_Node000004" class="edge">
<title>Node4&#45;&gt;Node7</title>
<g id="a_edge11_Node000007_Node000004"><a xlink:title=" ">
<path fill="none" stroke="#63b8ff" d="M257.42,-412C258.7,-405.92 259.86,-399.69 260.75,-393.75 268.79,-339.88 272.26,-276.81 273.73,-237.91"/>
<polygon fill="none" stroke="#63b8ff" points="273.73,-237.87 269.94,-231.74 274.14,-225.88 277.93,-232.01 273.73,-237.87"/>
</a>
</g>
<text text-anchor="start" x="274.8" y="-314.5" font-family="Helvetica,sans-Serif" font-size="10.00" fill="grey">+shape</text>
</g>
<!-- Node4&#45;&gt;Node8 -->
<g id="edge10_Node000008_Node000004" class="edge">
<title>Node4&#45;&gt;Node8</title>
<g id="a_edge10_Node000008_Node000004"><a xlink:title=" ">
<path fill="none" stroke="#63b8ff" d="M228.72,-411.78C221.15,-396.21 212.4,-378.25 204.65,-362.32"/>
<polygon fill="none" stroke="#63b8ff" points="204.6,-362.21 198.38,-358.57 199.35,-351.42 205.57,-355.07 204.6,-362.21"/>
</a>
</g>
<text text-anchor="start" x="222.58" y="-381.25" font-family="Helvetica,sans-Serif" font-size="10.00" fill="grey">+shape</text>
</g>
<!-- Node5&#45;&gt;Node1 -->
<g id="edge4_Node000001_Node000005" class="edge">
<title>Node5&#45;&gt;Node1</title>
<g id="a_edge4_Node000001_Node000005"><a xlink:title=" ">
<path fill="none" stroke="#63b8ff" d="M381.43,-175.37C377.71,-164.02 372.24,-150.62 364.75,-140 358.67,-131.37 351.44,-123.09 343.76,-115.35"/>
<polygon fill="none" stroke="#63b8ff" points="343.88,-115.47 336.78,-114.19 335.22,-107.15 342.32,-108.42 343.88,-115.47"/>
</a>
</g>
<text text-anchor="start" x="377.12" y="-144.75" font-family="Helvetica,sans-Serif" font-size="10.00" fill="grey">+next_exported_tile</text>
</g>
<!-- Node6 -->
<g id="Node000006" class="node">
<title>Node6</title>
<g id="a_Node000006"><a xlink:href="structTTL__offset__t.html" target="_top" xlink:title="Description of the 3D offset of an object.">
<polygon fill="white" stroke="none" points="398.5,-358.5 335,-358.5 335,-278.25 398.5,-278.25 398.5,-358.5"/>
<text text-anchor="start" x="339" y="-345" font-family="Helvetica,sans-Serif" font-size="10.00">TTL_offset_t</text>
<text text-anchor="start" x="349.25" y="-329.75" font-family="Helvetica,sans-Serif" font-size="10.00">+</text>
<text text-anchor="start" x="369.5" y="-329.75" font-family="Helvetica,sans-Serif" font-size="10.00">x</text>
<text text-anchor="start" x="349.25" y="-314.5" font-family="Helvetica,sans-Serif" font-size="10.00">+</text>
<text text-anchor="start" x="369.5" y="-314.5" font-family="Helvetica,sans-Serif" font-size="10.00">y</text>
<text text-anchor="start" x="349.25" y="-299.25" font-family="Helvetica,sans-Serif" font-size="10.00">+</text>
<text text-anchor="start" x="369.5" y="-299.25" font-family="Helvetica,sans-Serif" font-size="10.00">z</text>
<text text-anchor="start" x="365.25" y="-284" font-family="Helvetica,sans-Serif" font-size="10.00"> </text>
<polygon fill="#666666" stroke="#666666" points="335,-341.25 335,-341.25 398.5,-341.25 398.5,-341.25 335,-341.25"/>
<polygon fill="#666666" stroke="#666666" points="335,-295.5 335,-295.5 367.5,-295.5 367.5,-295.5 335,-295.5"/>
<polygon fill="#666666" stroke="#666666" points="367.5,-295.5 367.5,-295.5 398.5,-295.5 398.5,-295.5 367.5,-295.5"/>
<polygon fill="none" stroke="#666666" points="335,-278.25 335,-358.5 398.5,-358.5 398.5,-278.25 335,-278.25"/>
</a>
</g>
</g>
<!-- Node6&#45;&gt;Node5 -->
<g id="edge6_Node000005_Node000006" class="edge">
<title>Node6&#45;&gt;Node5</title>
<g id="a_edge6_Node000005_Node000006"><a xlink:title=" ">
<path fill="none" stroke="#63b8ff" d="M373.8,-278.34C376.17,-265.22 378.8,-250.64 381.14,-237.72"/>
<polygon fill="none" stroke="#63b8ff" points="381.15,-237.67 378.28,-231.06 383.28,-225.86 386.15,-232.48 381.15,-237.67"/>
</a>
</g>
<text text-anchor="start" x="382.75" y="-247.75" font-family="Helvetica,sans-Serif" font-size="10.00" fill="grey">+offset</text>
</g>
<!-- Node6&#45;&gt;Node7 -->
<g id="edge12_Node000007_Node000006" class="edge">
<title>Node6&#45;&gt;Node7</title>
<g id="a_edge12_Node000007_Node000006"><a xlink:title=" ">
<path fill="none" stroke="#63b8ff" d="M335.24,-282.5C328.98,-275.26 322.55,-267.59 316.75,-260.25 310.51,-252.35 304.07,-243.61 298.17,-235.34"/>
<polygon fill="none" stroke="#63b8ff" points="298.2,-235.38 291.47,-232.78 291.29,-225.57 298.02,-228.17 298.2,-235.38"/>
</a>
</g>
<text text-anchor="start" x="319.75" y="-247.75" font-family="Helvetica,sans-Serif" font-size="10.00" fill="grey">+sub_offset</text>
</g>
<!-- Node7&#45;&gt;Node1 -->
<g id="edge7_Node000001_Node000007" class="edge">
<title>Node7&#45;&gt;Node1</title>
<g id="a_edge7_Node000001_Node000007"><a xlink:title=" ">
<path fill="none" stroke="#63b8ff" d="M274.75,-175.55C274.75,-164.06 274.75,-149.55 274.75,-134.78"/>
<polygon fill="none" stroke="#63b8ff" points="274.75,-134.71 270.75,-128.71 274.75,-122.71 278.75,-128.71 274.75,-134.71"/>
</a>
</g>
<text text-anchor="start" x="277.75" y="-144.75" font-family="Helvetica,sans-Serif" font-size="10.00" fill="grey">+int_prev_imported</text>
</g>
<!-- Node8&#45;&gt;Node7 -->
<g id="edge8_Node000007_Node000008" class="edge">
<title>Node8&#45;&gt;Node7</title>
<g id="a_edge8_Node000007_Node000008"><a xlink:title=" ">
<path fill="none" stroke="#63b8ff" d="M196.18,-285.91C202.58,-271.92 211.26,-255.78 221.75,-243 224.51,-239.63 227.59,-236.36 230.83,-233.23"/>
<polygon fill="none" stroke="#63b8ff" points="230.64,-233.4 232.46,-226.42 239.6,-225.41 237.78,-232.39 230.64,-233.4"/>
</a>
</g>
<text text-anchor="start" x="224.75" y="-247.75" font-family="Helvetica,sans-Serif" font-size="10.00" fill="grey">+tensor</text>
</g>
</g>
</svg>
