<?xml version="1.0" encoding="UTF-8" standalone="no"?>
<!DOCTYPE svg PUBLIC "-//W3C//DTD SVG 1.1//EN"
 "http://www.w3.org/Graphics/SVG/1.1/DTD/svg11.dtd">
<!-- Generated by graphviz version 12.2.1 (20241206.2353)
 -->
<!-- Title: TTL_duplex_const_float_tensor_buffering_t Pages: 1 -->
<svg width="244pt" height="424pt"
 viewBox="0.00 0.00 244.39 423.50" xmlns="http://www.w3.org/2000/svg" xmlns:xlink="http://www.w3.org/1999/xlink">
<g id="graph0" class="graph" transform="scale(1 1) rotate(0) translate(4 419.5)">
<title>TTL_duplex_const_float_tensor_buffering_t</title>
<!-- Node1 -->
<g id="Node000001" class="node">
<title>Node1</title>
<g id="a_Node000001"><a xlink:title="Data required to perform duplex buffer pipelining.">
<polygon fill="#999999" stroke="none" points="168.62,-122 57.12,-122 57.12,0 168.62,0 168.62,-122"/>
<text text-anchor="start" x="61.12" y="-108.5" font-family="Helvetica,sans-Serif" font-size="10.00">TTL_duplex_const_float</text>
<text text-anchor="start" x="71.62" y="-97.25" font-family="Helvetica,sans-Serif" font-size="10.00">_tensor_buffering_t</text>
<text text-anchor="start" x="65.75" y="-82" font-family="Helvetica,sans-Serif" font-size="10.00">+</text>
<text text-anchor="start" x="80.38" y="-82" font-family="Helvetica,sans-Serif" font-size="10.00">index</text>
<text text-anchor="start" x="65.75" y="-66.75" font-family="Helvetica,sans-Serif" font-size="10.00">+</text>
<text text-anchor="start" x="80.38" y="-66.75" font-family="Helvetica,sans-Serif" font-size="10.00">int_base</text>
<text text-anchor="start" x="65.75" y="-51.5" font-family="Helvetica,sans-Serif" font-size="10.00">+</text>
<text text-anchor="start" x="80.38" y="-51.5" font-family="Helvetica,sans-Serif" font-size="10.00">common</text>
<text text-anchor="start" x="65.75" y="-36.25" font-family="Helvetica,sans-Serif" font-size="10.00">+</text>
<text text-anchor="start" x="80.38" y="-36.25" font-family="Helvetica,sans-Serif" font-size="10.00">events</text>
<text text-anchor="start" x="65.75" y="-21" font-family="Helvetica,sans-Serif" font-size="10.00">+</text>
<text text-anchor="start" x="80.38" y="-21" font-family="Helvetica,sans-Serif" font-size="10.00">prev_out_tensors</text>
<text text-anchor="start" x="111.38" y="-5.75" font-family="Helvetica,sans-Serif" font-size="10.00"> </text>
<polygon fill="#666666" stroke="#666666" points="57.12,-93.5 57.12,-93.5 168.62,-93.5 168.62,-93.5 57.12,-93.5"/>
<polygon fill="#666666" stroke="#666666" points="57.12,-17.25 57.12,-17.25 78.38,-17.25 78.38,-17.25 57.12,-17.25"/>
<polygon fill="#666666" stroke="#666666" points="78.38,-17.25 78.38,-17.25 168.62,-17.25 168.62,-17.25 78.38,-17.25"/>
<polygon fill="none" stroke="#666666" points="57.12,0 57.12,-122 168.62,-122 168.62,0 57.12,0"/>
</a>
</g>
</g>
<!-- Node2 -->
<g id="Node000002" class="node">
<title>Node2</title>
<g id="a_Node000002"><a xlink:href="structTTL__ext__float__tensor__t.html" target="_top" xlink:title="const and non&#45;const tensors in the appropriate address space">
<polygon fill="white" stroke="none" points="107.75,-276.38 0,-276.38 0,-211.38 107.75,-211.38 107.75,-276.38"/>
<text text-anchor="start" x="4" y="-262.88" font-family="Helvetica,sans-Serif" font-size="10.00">TTL_ext_float_tensor_t</text>
<text text-anchor="start" x="15.56" y="-247.62" font-family="Helvetica,sans-Serif" font-size="10.00">+</text>
<text text-anchor="start" x="37.12" y="-247.62" font-family="Helvetica,sans-Serif" font-size="10.00">base</text>
<text text-anchor="start" x="15.56" y="-232.38" font-family="Helvetica,sans-Serif" font-size="10.00">+</text>
<text text-anchor="start" x="37.12" y="-232.38" font-family="Helvetica,sans-Serif" font-size="10.00">elem_size</text>
<text text-anchor="start" x="52.38" y="-217.12" font-family="Helvetica,sans-Serif" font-size="10.00"> </text>
<polygon fill="#666666" stroke="#666666" points="0,-259.12 0,-259.12 107.75,-259.12 107.75,-259.12 0,-259.12"/>
<polygon fill="#666666" stroke="#666666" points="0,-228.62 0,-228.62 35.12,-228.62 35.12,-228.62 0,-228.62"/>
<polygon fill="#666666" stroke="#666666" points="35.12,-228.62 35.12,-228.62 107.75,-228.62 107.75,-228.62 35.12,-228.62"/>
<polygon fill="none" stroke="#666666" points="0,-211.38 0,-276.38 107.75,-276.38 107.75,-211.38 0,-211.38"/>
</a>
</g>
</g>
<!-- Node2&#45;&gt;Node1 -->
<g id="edge1_Node000001_Node000002" class="edge">
<title>Node2&#45;&gt;Node1</title>
<g id="a_edge1_Node000001_Node000002"><a xlink:title=" ">
<path fill="none" stroke="#63b8ff" d="M56,-211.59C58.09,-190.85 62.18,-163.27 70.12,-140 70.83,-137.94 71.58,-135.87 72.38,-133.8"/>
<polygon fill="none" stroke="#63b8ff" points="72.37,-133.84 71.02,-126.76 77.04,-122.79 78.39,-129.87 72.37,-133.84"/>
</a>
</g>
<text text-anchor="start" x="73.12" y="-175.25" font-family="Helvetica,sans-Serif" font-size="10.00" fill="grey">+ext_tensor_in</text>
<text text-anchor="start" x="73.12" y="-160" font-family="Helvetica,sans-Serif" font-size="10.00" fill="grey">+ext_tensor_out</text>
<text text-anchor="start" x="73.12" y="-144.75" font-family="Helvetica,sans-Serif" font-size="10.00" fill="grey">+to_export_to</text>
</g>
<!-- Node3 -->
<g id="Node000003" class="node">
<title>Node3</title>
<g id="a_Node000003"><a xlink:href="structTTL__layout__t.html" target="_top" xlink:title="Description of a Tensor layout in memory.">
<polygon fill="white" stroke="none" points="100,-407.88 19.75,-407.88 19.75,-342.88 100,-342.88 100,-407.88"/>
<text text-anchor="start" x="31.38" y="-394.38" font-family="Helvetica,sans-Serif" font-size="10.00">TTL_layout_t</text>
<text text-anchor="start" x="23.75" y="-379.12" font-family="Helvetica,sans-Serif" font-size="10.00">+</text>
<text text-anchor="start" x="33.75" y="-379.12" font-family="Helvetica,sans-Serif" font-size="10.00">row_spacing</text>
<text text-anchor="start" x="23.75" y="-363.88" font-family="Helvetica,sans-Serif" font-size="10.00">+</text>
<text text-anchor="start" x="33.75" y="-363.88" font-family="Helvetica,sans-Serif" font-size="10.00">plane_spacing</text>
<text text-anchor="start" x="58.38" y="-348.62" font-family="Helvetica,sans-Serif" font-size="10.00"> </text>
<polygon fill="#666666" stroke="#666666" points="19.75,-390.62 19.75,-390.62 100,-390.62 100,-390.62 19.75,-390.62"/>
<polygon fill="#666666" stroke="#666666" points="19.75,-360.12 19.75,-360.12 31.75,-360.12 31.75,-360.12 19.75,-360.12"/>
<polygon fill="#666666" stroke="#666666" points="31.75,-360.12 31.75,-360.12 100,-360.12 100,-360.12 31.75,-360.12"/>
<polygon fill="none" stroke="#666666" points="19.75,-342.88 19.75,-407.88 100,-407.88 100,-342.88 19.75,-342.88"/>
</a>
</g>
</g>
<!-- Node3&#45;&gt;Node2 -->
<g id="edge2_Node000002_Node000003" class="edge">
<title>Node3&#45;&gt;Node2</title>
<g id="a_edge2_Node000002_Node000003"><a xlink:title=" ">
<path fill="none" stroke="#63b8ff" d="M35.4,-343.01C30.46,-335.03 25.98,-326.17 23.38,-317.25 20.58,-307.69 21.86,-297.7 25.12,-288.3"/>
<polygon fill="none" stroke="#63b8ff" points="25.18,-288.18 23.93,-281.08 30.01,-277.19 31.25,-284.3 25.18,-288.18"/>
</a>
</g>
<text text-anchor="start" x="26.38" y="-304.75" font-family="Helvetica,sans-Serif" font-size="10.00" fill="grey">+layout</text>
</g>
<!-- Node5 -->
<g id="Node000005" class="node">
<title>Node5</title>
<g id="a_Node000005"><a xlink:href="structTTL__const__int__float__tensor__t.html" target="_top" xlink:title=" ">
<polygon fill="white" stroke="none" points="220,-282 125.75,-282 125.75,-205.75 220,-205.75 220,-282"/>
<text text-anchor="start" x="129.75" y="-268.5" font-family="Helvetica,sans-Serif" font-size="10.00">TTL_const_int_float</text>
<text text-anchor="start" x="152.62" y="-257.25" font-family="Helvetica,sans-Serif" font-size="10.00">_tensor_t</text>
<text text-anchor="start" x="137.94" y="-242" font-family="Helvetica,sans-Serif" font-size="10.00">+</text>
<text text-anchor="start" x="156.12" y="-242" font-family="Helvetica,sans-Serif" font-size="10.00">base</text>
<text text-anchor="start" x="137.94" y="-226.75" font-family="Helvetica,sans-Serif" font-size="10.00">+</text>
<text text-anchor="start" x="156.12" y="-226.75" font-family="Helvetica,sans-Serif" font-size="10.00">elem_size</text>
<text text-anchor="start" x="171.38" y="-211.5" font-family="Helvetica,sans-Serif" font-size="10.00"> </text>
<polygon fill="#666666" stroke="#666666" points="125.75,-253.5 125.75,-253.5 220,-253.5 220,-253.5 125.75,-253.5"/>
<polygon fill="#666666" stroke="#666666" points="125.75,-223 125.75,-223 154.12,-223 154.12,-223 125.75,-223"/>
<polygon fill="#666666" stroke="#666666" points="154.12,-223 154.12,-223 220,-223 220,-223 154.12,-223"/>
<polygon fill="none" stroke="#666666" points="125.75,-205.75 125.75,-282 220,-282 220,-205.75 125.75,-205.75"/>
</a>
</g>
</g>
<!-- Node3&#45;&gt;Node5 -->
<g id="edge5_Node000005_Node000003" class="edge">
<title>Node3&#45;&gt;Node5</title>
<g id="a_edge5_Node000005_Node000003"><a xlink:title=" ">
<path fill="none" stroke="#63b8ff" d="M62.61,-343.09C65.25,-328.65 70.39,-312.08 80.38,-300 89.92,-288.46 97.93,-289.87 114.37,-282.57"/>
<polygon fill="none" stroke="#63b8ff" points="114.31,-282.6 117.82,-276.3 124.98,-277.11 121.48,-283.41 114.31,-282.6"/>
</a>
</g>
<text text-anchor="start" x="83.38" y="-304.75" font-family="Helvetica,sans-Serif" font-size="10.00" fill="grey">+layout</text>
</g>
<!-- Node4 -->
<g id="Node000004" class="node">
<title>Node4</title>
<g id="a_Node000004"><a xlink:href="structTTL__shape__t.html" target="_top" xlink:title="Description of a Shape.">
<polygon fill="white" stroke="none" points="198.75,-415.5 133,-415.5 133,-335.25 198.75,-335.25 198.75,-415.5"/>
<text text-anchor="start" x="137" y="-402" font-family="Helvetica,sans-Serif" font-size="10.00">TTL_shape_t</text>
<text text-anchor="start" x="142.38" y="-386.75" font-family="Helvetica,sans-Serif" font-size="10.00">+</text>
<text text-anchor="start" x="157.75" y="-386.75" font-family="Helvetica,sans-Serif" font-size="10.00">width</text>
<text text-anchor="start" x="142.38" y="-371.5" font-family="Helvetica,sans-Serif" font-size="10.00">+</text>
<text text-anchor="start" x="157.75" y="-371.5" font-family="Helvetica,sans-Serif" font-size="10.00">height</text>
<text text-anchor="start" x="142.38" y="-356.25" font-family="Helvetica,sans-Serif" font-size="10.00">+</text>
<text text-anchor="start" x="157.75" y="-356.25" font-family="Helvetica,sans-Serif" font-size="10.00">depth</text>
<text text-anchor="start" x="164.38" y="-341" font-family="Helvetica,sans-Serif" font-size="10.00"> </text>
<polygon fill="#666666" stroke="#666666" points="133,-398.25 133,-398.25 198.75,-398.25 198.75,-398.25 133,-398.25"/>
<polygon fill="#666666" stroke="#666666" points="133,-352.5 133,-352.5 155.75,-352.5 155.75,-352.5 133,-352.5"/>
<polygon fill="#666666" stroke="#666666" points="155.75,-352.5 155.75,-352.5 198.75,-352.5 198.75,-352.5 155.75,-352.5"/>
<polygon fill="none" stroke="#666666" points="133,-335.25 133,-415.5 198.75,-415.5 198.75,-335.25 133,-335.25"/>
</a>
</g>
</g>
<!-- Node4&#45;&gt;Node2 -->
<g id="edge3_Node000002_Node000004" class="edge">
<title>Node4&#45;&gt;Node2</title>
<g id="a_edge3_Node000002_Node000004"><a xlink:title=" ">
<path fill="none" stroke="#63b8ff" d="M146.38,-335.55C139.47,-323.54 131.09,-310.68 121.88,-300 117.35,-294.75 112.27,-289.62 106.99,-284.74"/>
<polygon fill="none" stroke="#63b8ff" points="107.01,-284.76 99.87,-283.8 98.01,-276.83 105.15,-277.79 107.01,-284.76"/>
</a>
</g>
<text text-anchor="start" x="137.75" y="-304.75" font-family="Helvetica,sans-Serif" font-size="10.00" fill="grey">+shape</text>
</g>
<!-- Node4&#45;&gt;Node5 -->
<g id="edge6_Node000005_Node000004" class="edge">
<title>Node4&#45;&gt;Node5</title>
<g id="a_edge6_Node000005_Node000004"><a xlink:title=" ">
<path fill="none" stroke="#63b8ff" d="M179.1,-335.38C180.66,-329.37 182.01,-323.19 182.88,-317.25 183.94,-309.94 184,-302.22 183.46,-294.64"/>
<polygon fill="none" stroke="#63b8ff" points="183.45,-294.53 178.8,-289.02 182.1,-282.6 186.75,-288.12 183.45,-294.53"/>
</a>
</g>
<text text-anchor="start" x="186.8" y="-304.75" font-family="Helvetica,sans-Serif" font-size="10.00" fill="grey">+shape</text>
</g>
<!-- Node5&#45;&gt;Node1 -->
<g id="edge4_Node000001_Node000005" class="edge">
<title>Node5&#45;&gt;Node1</title>
<g id="a_edge4_Node000001_Node000005"><a xlink:title=" ">
<path fill="none" stroke="#63b8ff" d="M164.52,-205.83C159.72,-186.09 153.2,-161.5 145.88,-140 145.17,-137.94 144.44,-135.86 143.69,-133.77"/>
<polygon fill="none" stroke="#63b8ff" points="143.7,-133.79 137.84,-129.58 139.48,-122.55 145.33,-126.76 143.7,-133.79"/>
</a>
</g>
<text text-anchor="start" x="162.89" y="-160" font-family="Helvetica,sans-Serif" font-size="10.00" fill="grey">+to_export_from</text>
</g>
</g>
</svg>
