<?xml version="1.0" encoding="UTF-8" standalone="no"?>
<!DOCTYPE svg PUBLIC "-//W3C//DTD SVG 1.1//EN"
 "http://www.w3.org/Graphics/SVG/1.1/DTD/svg11.dtd">
<!-- Generated by graphviz version 12.2.1 (20241206.2353)
 -->
<!-- Title: TTL_duplex_const_uchar_tensor_buffering_t Pages: 1 -->
<svg width="252pt" height="424pt"
 viewBox="0.00 0.00 252.25 423.50" xmlns="http://www.w3.org/2000/svg" xmlns:xlink="http://www.w3.org/1999/xlink">
<g id="graph0" class="graph" transform="scale(1 1) rotate(0) translate(4 419.5)">
<title>TTL_duplex_const_uchar_tensor_buffering_t</title>
<!-- Node1 -->
<g id="Node000001" class="node">
<title>Node1</title>
<g id="a_Node000001"><a xlink:title="Data required to perform duplex buffer pipelining.">
<polygon fill="#999999" stroke="none" points="177.62,-122 60.12,-122 60.12,0 177.62,0 177.62,-122"/>
<text text-anchor="start" x="64.12" y="-108.5" font-family="Helvetica,sans-Serif" font-size="10.00">TTL_duplex_const_uchar</text>
<text text-anchor="start" x="77.62" y="-97.25" font-family="Helvetica,sans-Serif" font-size="10.00">_tensor_buffering_t</text>
<text text-anchor="start" x="70.25" y="-82" font-family="Helvetica,sans-Serif" font-size="10.00">+</text>
<text text-anchor="start" x="86.38" y="-82" font-family="Helvetica,sans-Serif" font-size="10.00">index</text>
<text text-anchor="start" x="70.25" y="-66.75" font-family="Helvetica,sans-Serif" font-size="10.00">+</text>
<text text-anchor="start" x="86.38" y="-66.75" font-family="Helvetica,sans-Serif" font-size="10.00">int_base</text>
<text text-anchor="start" x="70.25" y="-51.5" font-family="Helvetica,sans-Serif" font-size="10.00">+</text>
<text text-anchor="start" x="86.38" y="-51.5" font-family="Helvetica,sans-Serif" font-size="10.00">common</text>
<text text-anchor="start" x="70.25" y="-36.25" font-family="Helvetica,sans-Serif" font-size="10.00">+</text>
<text text-anchor="start" x="86.38" y="-36.25" font-family="Helvetica,sans-Serif" font-size="10.00">events</text>
<text text-anchor="start" x="70.25" y="-21" font-family="Helvetica,sans-Serif" font-size="10.00">+</text>
<text text-anchor="start" x="86.38" y="-21" font-family="Helvetica,sans-Serif" font-size="10.00">prev_out_tensors</text>
<text text-anchor="start" x="117.38" y="-5.75" font-family="Helvetica,sans-Serif" font-size="10.00"> </text>
<polygon fill="#666666" stroke="#666666" points="60.12,-93.5 60.12,-93.5 177.62,-93.5 177.62,-93.5 60.12,-93.5"/>
<polygon fill="#666666" stroke="#666666" points="60.12,-17.25 60.12,-17.25 84.38,-17.25 84.38,-17.25 60.12,-17.25"/>
<polygon fill="#666666" stroke="#666666" points="84.38,-17.25 84.38,-17.25 177.62,-17.25 177.62,-17.25 84.38,-17.25"/>
<polygon fill="none" stroke="#666666" points="60.12,0 60.12,-122 177.62,-122 177.62,0 60.12,0"/>
</a>
</g>
</g>
<!-- Node2 -->
<g id="Node000002" class="node">
<title>Node2</title>
<g id="a_Node000002"><a xlink:href="structTTL__ext__uchar__tensor__t.html" target="_top" xlink:title="const and non&#45;const tensors in the appropriate address space">
<polygon fill="white" stroke="none" points="113.75,-276.38 0,-276.38 0,-211.38 113.75,-211.38 113.75,-276.38"/>
<text text-anchor="start" x="4" y="-262.88" font-family="Helvetica,sans-Serif" font-size="10.00">TTL_ext_uchar_tensor_t</text>
<text text-anchor="start" x="17.06" y="-247.62" font-family="Helvetica,sans-Serif" font-size="10.00">+</text>
<text text-anchor="start" x="40.12" y="-247.62" font-family="Helvetica,sans-Serif" font-size="10.00">base</text>
<text text-anchor="start" x="17.06" y="-232.38" font-family="Helvetica,sans-Serif" font-size="10.00">+</text>
<text text-anchor="start" x="40.12" y="-232.38" font-family="Helvetica,sans-Serif" font-size="10.00">elem_size</text>
<text text-anchor="start" x="55.38" y="-217.12" font-family="Helvetica,sans-Serif" font-size="10.00"> </text>
<polygon fill="#666666" stroke="#666666" points="0,-259.12 0,-259.12 113.75,-259.12 113.75,-259.12 0,-259.12"/>
<polygon fill="#666666" stroke="#666666" points="0,-228.62 0,-228.62 38.12,-228.62 38.12,-228.62 0,-228.62"/>
<polygon fill="#666666" stroke="#666666" points="38.12,-228.62 38.12,-228.62 113.75,-228.62 113.75,-228.62 38.12,-228.62"/>
<polygon fill="none" stroke="#666666" points="0,-211.38 0,-276.38 113.75,-276.38 113.75,-211.38 0,-211.38"/>
</a>
</g>
</g>
<!-- Node2&#45;&gt;Node1 -->
<g id="edge1_Node000001_Node000002" class="edge">
<title>Node2&#45;&gt;Node1</title>
<g id="a_edge1_Node000001_Node000002"><a xlink:title=" ">
<path fill="none" stroke="#63b8ff" d="M60.57,-211.62C63.61,-190.89 68.8,-163.31 77.12,-140 77.9,-137.82 78.74,-135.62 79.61,-133.42"/>
<polygon fill="none" stroke="#63b8ff" points="79.58,-133.51 78.27,-126.41 84.32,-122.48 85.62,-129.57 79.58,-133.51"/>
</a>
</g>
<text text-anchor="start" x="80.12" y="-175.25" font-family="Helvetica,sans-Serif" font-size="10.00" fill="grey">+ext_tensor_in</text>
<text text-anchor="start" x="80.12" y="-160" font-family="Helvetica,sans-Serif" font-size="10.00" fill="grey">+ext_tensor_out</text>
<text text-anchor="start" x="80.12" y="-144.75" font-family="Helvetica,sans-Serif" font-size="10.00" fill="grey">+to_export_to</text>
</g>
<!-- Node3 -->
<g id="Node000003" class="node">
<title>Node3</title>
<g id="a_Node000003"><a xlink:href="structTTL__layout__t.html" target="_top" xlink:title="Description of a Tensor layout in memory.">
<polygon fill="white" stroke="none" points="106,-407.88 25.75,-407.88 25.75,-342.88 106,-342.88 106,-407.88"/>
<text text-anchor="start" x="37.38" y="-394.38" font-family="Helvetica,sans-Serif" font-size="10.00">TTL_layout_t</text>
<text text-anchor="start" x="29.75" y="-379.12" font-family="Helvetica,sans-Serif" font-size="10.00">+</text>
<text text-anchor="start" x="39.75" y="-379.12" font-family="Helvetica,sans-Serif" font-size="10.00">row_spacing</text>
<text text-anchor="start" x="29.75" y="-363.88" font-family="Helvetica,sans-Serif" font-size="10.00">+</text>
<text text-anchor="start" x="39.75" y="-363.88" font-family="Helvetica,sans-Serif" font-size="10.00">plane_spacing</text>
<text text-anchor="start" x="64.38" y="-348.62" font-family="Helvetica,sans-Serif" font-size="10.00"> </text>
<polygon fill="#666666" stroke="#666666" points="25.75,-390.62 25.75,-390.62 106,-390.62 106,-390.62 25.75,-390.62"/>
<polygon fill="#666666" stroke="#666666" points="25.75,-360.12 25.75,-360.12 37.75,-360.12 37.75,-360.12 25.75,-360.12"/>
<polygon fill="#666666" stroke="#666666" points="37.75,-360.12 37.75,-360.12 106,-360.12 106,-360.12 37.75,-360.12"/>
<polygon fill="none" stroke="#666666" points="25.75,-342.88 25.75,-407.88 106,-407.88 106,-342.88 25.75,-342.88"/>
</a>
</g>
</g>
<!-- Node3&#45;&gt;Node2 -->
<g id="edge2_Node000002_Node000003" class="edge">
<title>Node3&#45;&gt;Node2</title>
<g id="a_edge2_Node000002_Node000003"><a xlink:title=" ">
<path fill="none" stroke="#63b8ff" d="M41.4,-343.01C36.46,-335.03 31.98,-326.17 29.38,-317.25 26.6,-307.74 27.7,-297.71 30.67,-288.24"/>
<polygon fill="none" stroke="#63b8ff" points="30.7,-288.19 29.22,-281.13 35.16,-277.05 36.64,-284.11 30.7,-288.19"/>
</a>
</g>
<text text-anchor="start" x="32.38" y="-304.75" font-family="Helvetica,sans-Serif" font-size="10.00" fill="grey">+layout</text>
</g>
<!-- Node5 -->
<g id="Node000005" class="node">
<title>Node5</title>
<g id="a_Node000005"><a xlink:href="structTTL__const__int__uchar__tensor__t.html" target="_top" xlink:title=" ">
<polygon fill="white" stroke="none" points="232,-282 131.75,-282 131.75,-205.75 232,-205.75 232,-282"/>
<text text-anchor="start" x="135.75" y="-268.5" font-family="Helvetica,sans-Serif" font-size="10.00">TTL_const_int_uchar</text>
<text text-anchor="start" x="161.62" y="-257.25" font-family="Helvetica,sans-Serif" font-size="10.00">_tensor_t</text>
<text text-anchor="start" x="145.44" y="-242" font-family="Helvetica,sans-Serif" font-size="10.00">+</text>
<text text-anchor="start" x="165.12" y="-242" font-family="Helvetica,sans-Serif" font-size="10.00">base</text>
<text text-anchor="start" x="145.44" y="-226.75" font-family="Helvetica,sans-Serif" font-size="10.00">+</text>
<text text-anchor="start" x="165.12" y="-226.75" font-family="Helvetica,sans-Serif" font-size="10.00">elem_size</text>
<text text-anchor="start" x="180.38" y="-211.5" font-family="Helvetica,sans-Serif" font-size="10.00"> </text>
<polygon fill="#666666" stroke="#666666" points="131.75,-253.5 131.75,-253.5 232,-253.5 232,-253.5 131.75,-253.5"/>
<polygon fill="#666666" stroke="#666666" points="131.75,-223 131.75,-223 163.12,-223 163.12,-223 131.75,-223"/>
<polygon fill="#666666" stroke="#666666" points="163.12,-223 163.12,-223 232,-223 232,-223 163.12,-223"/>
<polygon fill="none" stroke="#666666" points="131.75,-205.75 131.75,-282 232,-282 232,-205.75 131.75,-205.75"/>
</a>
</g>
</g>
<!-- Node3&#45;&gt;Node5 -->
<g id="edge5_Node000005_Node000003" class="edge">
<title>Node3&#45;&gt;Node5</title>
<g id="a_edge5_Node000005_Node000003"><a xlink:title=" ">
<path fill="none" stroke="#63b8ff" d="M68.61,-343.09C71.25,-328.65 76.39,-312.08 86.38,-300 95.92,-288.46 103.86,-289.74 120.39,-282.57"/>
<polygon fill="none" stroke="#63b8ff" points="120.34,-282.6 123.91,-276.34 131.07,-277.23 127.49,-283.49 120.34,-282.6"/>
</a>
</g>
<text text-anchor="start" x="89.38" y="-304.75" font-family="Helvetica,sans-Serif" font-size="10.00" fill="grey">+layout</text>
</g>
<!-- Node4 -->
<g id="Node000004" class="node">
<title>Node4</title>
<g id="a_Node000004"><a xlink:href="structTTL__shape__t.html" target="_top" xlink:title="Description of a Shape.">
<polygon fill="white" stroke="none" points="204.75,-415.5 139,-415.5 139,-335.25 204.75,-335.25 204.75,-415.5"/>
<text text-anchor="start" x="143" y="-402" font-family="Helvetica,sans-Serif" font-size="10.00">TTL_shape_t</text>
<text text-anchor="start" x="148.38" y="-386.75" font-family="Helvetica,sans-Serif" font-size="10.00">+</text>
<text text-anchor="start" x="163.75" y="-386.75" font-family="Helvetica,sans-Serif" font-size="10.00">width</text>
<text text-anchor="start" x="148.38" y="-371.5" font-family="Helvetica,sans-Serif" font-size="10.00">+</text>
<text text-anchor="start" x="163.75" y="-371.5" font-family="Helvetica,sans-Serif" font-size="10.00">height</text>
<text text-anchor="start" x="148.38" y="-356.25" font-family="Helvetica,sans-Serif" font-size="10.00">+</text>
<text text-anchor="start" x="163.75" y="-356.25" font-family="Helvetica,sans-Serif" font-size="10.00">depth</text>
<text text-anchor="start" x="170.38" y="-341" font-family="Helvetica,sans-Serif" font-size="10.00"> </text>
<polygon fill="#666666" stroke="#666666" points="139,-398.25 139,-398.25 204.75,-398.25 204.75,-398.25 139,-398.25"/>
<polygon fill="#666666" stroke="#666666" points="139,-352.5 139,-352.5 161.75,-352.5 161.75,-352.5 139,-352.5"/>
<polygon fill="#666666" stroke="#666666" points="161.75,-352.5 161.75,-352.5 204.75,-352.5 204.75,-352.5 161.75,-352.5"/>
<polygon fill="none" stroke="#666666" points="139,-335.25 139,-415.5 204.75,-415.5 204.75,-335.25 139,-335.25"/>
</a>
</g>
</g>
<!-- Node4&#45;&gt;Node2 -->
<g id="edge3_Node000002_Node000004" class="edge">
<title>Node4&#45;&gt;Node2</title>
<g id="a_edge3_Node000002_Node000004"><a xlink:title=" ">
<path fill="none" stroke="#63b8ff" d="M152.52,-335.43C145.61,-323.42 137.2,-310.58 127.88,-300 123.23,-294.73 118.03,-289.61 112.6,-284.75"/>
<polygon fill="none" stroke="#63b8ff" points="112.5,-284.67 105.34,-283.83 103.36,-276.89 110.52,-277.73 112.5,-284.67"/>
</a>
</g>
<text text-anchor="start" x="143.86" y="-304.75" font-family="Helvetica,sans-Serif" font-size="10.00" fill="grey">+shape</text>
</g>
<!-- Node4&#45;&gt;Node5 -->
<g id="edge6_Node000005_Node000004" class="edge">
<title>Node4&#45;&gt;Node5</title>
<g id="a_edge6_Node000005_Node000004"><a xlink:title=" ">
<path fill="none" stroke="#63b8ff" d="M185.1,-335.38C186.66,-329.37 188.01,-323.19 188.88,-317.25 189.93,-309.98 190.15,-302.27 189.85,-294.7"/>
<polygon fill="none" stroke="#63b8ff" points="189.85,-294.64 185.4,-288.96 188.94,-282.68 193.38,-288.36 189.85,-294.64"/>
</a>
</g>
<text text-anchor="start" x="192.97" y="-304.75" font-family="Helvetica,sans-Serif" font-size="10.00" fill="grey">+shape</text>
</g>
<!-- Node5&#45;&gt;Node1 -->
<g id="edge4_Node000001_Node000005" class="edge">
<title>Node5&#45;&gt;Node1</title>
<g id="a_edge4_Node000001_Node000005"><a xlink:title=" ">
<path fill="none" stroke="#63b8ff" d="M172.74,-205.83C167.54,-186.08 160.55,-161.5 152.88,-140 152.14,-137.94 151.38,-135.86 150.59,-133.77"/>
<polygon fill="none" stroke="#63b8ff" points="150.58,-133.73 144.67,-129.6 146.21,-122.55 152.12,-126.69 150.58,-133.73"/>
</a>
</g>
<text text-anchor="start" x="170.75" y="-160" font-family="Helvetica,sans-Serif" font-size="10.00" fill="grey">+to_export_from</text>
</g>
</g>
</svg>
