<?xml version="1.0" encoding="UTF-8" standalone="no"?>
<!DOCTYPE svg PUBLIC "-//W3C//DTD SVG 1.1//EN"
 "http://www.w3.org/Graphics/SVG/1.1/DTD/svg11.dtd">
<!-- Generated by graphviz version 12.2.1 (20241206.2353)
 -->
<!-- Title: TTL_io_ushort_tensor_t Pages: 1 -->
<svg width="282pt" height="454pt"
 viewBox="0.00 0.00 281.88 454.25" xmlns="http://www.w3.org/2000/svg" xmlns:xlink="http://www.w3.org/1999/xlink">
<g id="graph0" class="graph" transform="scale(1 1) rotate(0) translate(4 450.25)">
<title>TTL_io_ushort_tensor_t</title>
<!-- Node1 -->
<g id="Node000001" class="node">
<title>Node1</title>
<g id="a_Node000001"><a xlink:title="Describes a pair of internal Tensors after an operation.">
<polygon fill="#999999" stroke="none" points="209.88,-49.75 98.38,-49.75 98.38,0 209.88,0 209.88,-49.75"/>
<text text-anchor="start" x="102.38" y="-36.25" font-family="Helvetica,sans-Serif" font-size="10.00">TTL_io_ushort_tensor_t</text>
<text text-anchor="start" x="152.62" y="-21" font-family="Helvetica,sans-Serif" font-size="10.00"> </text>
<text text-anchor="start" x="152.62" y="-5.75" font-family="Helvetica,sans-Serif" font-size="10.00"> </text>
<polygon fill="#666666" stroke="#666666" points="98.38,-32.5 98.38,-32.5 209.88,-32.5 209.88,-32.5 98.38,-32.5"/>
<polygon fill="#666666" stroke="#666666" points="98.38,-17.25 98.38,-17.25 209.88,-17.25 209.88,-17.25 98.38,-17.25"/>
<polygon fill="none" stroke="#666666" points="98.38,0 98.38,-49.75 209.88,-49.75 209.88,0 98.38,0"/>
</a>
</g>
</g>
<!-- Node2 -->
<g id="Node000002" class="node">
<title>Node2</title>
<g id="a_Node000002"><a xlink:href="structTTL__int__ushort__sub__tensor__t.html" target="_top" xlink:title="const and non&#45;const sub tensors in the appropriate address space">
<polygon fill="white" stroke="none" points="201.62,-179.25 106.62,-179.25 106.62,-118.25 201.62,-118.25 201.62,-179.25"/>
<text text-anchor="start" x="110.62" y="-165.75" font-family="Helvetica,sans-Serif" font-size="10.00">TTL_int_ushort_sub</text>
<text text-anchor="start" x="133.88" y="-154.5" font-family="Helvetica,sans-Serif" font-size="10.00">_tensor_t</text>
<text text-anchor="start" x="124.06" y="-139.25" font-family="Helvetica,sans-Serif" font-size="10.00">+</text>
<text text-anchor="start" x="147.5" y="-139.25" font-family="Helvetica,sans-Serif" font-size="10.00">origin</text>
<text text-anchor="start" x="152.62" y="-124" font-family="Helvetica,sans-Serif" font-size="10.00"> </text>
<polygon fill="#666666" stroke="#666666" points="106.62,-150.75 106.62,-150.75 201.62,-150.75 201.62,-150.75 106.62,-150.75"/>
<polygon fill="#666666" stroke="#666666" points="106.62,-135.5 106.62,-135.5 145.5,-135.5 145.5,-135.5 106.62,-135.5"/>
<polygon fill="#666666" stroke="#666666" points="145.5,-135.5 145.5,-135.5 201.62,-135.5 201.62,-135.5 145.5,-135.5"/>
<polygon fill="none" stroke="#666666" points="106.62,-118.25 106.62,-179.25 201.62,-179.25 201.62,-118.25 106.62,-118.25"/>
</a>
</g>
</g>
<!-- Node2&#45;&gt;Node1 -->
<g id="edge1_Node000001_Node000002" class="edge">
<title>Node2&#45;&gt;Node1</title>
<g id="a_edge1_Node000001_Node000002"><a xlink:title=" ">
<path fill="none" stroke="#63b8ff" d="M154.12,-118.56C154.12,-101.72 154.12,-80.4 154.12,-62.46"/>
<polygon fill="none" stroke="#63b8ff" points="154.13,-62.42 150.13,-56.42 154.13,-50.42 158.13,-56.42 154.13,-62.42"/>
</a>
</g>
<text text-anchor="start" x="157.12" y="-87.75" font-family="Helvetica,sans-Serif" font-size="10.00" fill="grey">+imported_to</text>
<text text-anchor="start" x="157.12" y="-72.5" font-family="Helvetica,sans-Serif" font-size="10.00" fill="grey">+to_export_from</text>
</g>
<!-- Node3 -->
<g id="Node000003" class="node">
<title>Node3</title>
<g id="a_Node000003"><a xlink:href="structTTL__int__ushort__tensor__t.html" target="_top" xlink:title="const and non&#45;const tensors in the appropriate address space">
<polygon fill="white" stroke="none" points="118.38,-305.12 3.88,-305.12 3.88,-240.12 118.38,-240.12 118.38,-305.12"/>
<text text-anchor="start" x="7.88" y="-291.62" font-family="Helvetica,sans-Serif" font-size="10.00">TTL_int_ushort_tensor_t</text>
<text text-anchor="start" x="21.12" y="-276.38" font-family="Helvetica,sans-Serif" font-size="10.00">+</text>
<text text-anchor="start" x="44.38" y="-276.38" font-family="Helvetica,sans-Serif" font-size="10.00">base</text>
<text text-anchor="start" x="21.12" y="-261.12" font-family="Helvetica,sans-Serif" font-size="10.00">+</text>
<text text-anchor="start" x="44.38" y="-261.12" font-family="Helvetica,sans-Serif" font-size="10.00">elem_size</text>
<text text-anchor="start" x="59.62" y="-245.88" font-family="Helvetica,sans-Serif" font-size="10.00"> </text>
<polygon fill="#666666" stroke="#666666" points="3.88,-287.88 3.88,-287.88 118.38,-287.88 118.38,-287.88 3.88,-287.88"/>
<polygon fill="#666666" stroke="#666666" points="3.88,-257.38 3.88,-257.38 42.38,-257.38 42.38,-257.38 3.88,-257.38"/>
<polygon fill="#666666" stroke="#666666" points="42.38,-257.38 42.38,-257.38 118.38,-257.38 118.38,-257.38 42.38,-257.38"/>
<polygon fill="none" stroke="#666666" points="3.88,-240.12 3.88,-305.12 118.38,-305.12 118.38,-240.12 3.88,-240.12"/>
</a>
</g>
</g>
<!-- Node3&#45;&gt;Node2 -->
<g id="edge2_Node000002_Node000003" class="edge">
<title>Node3&#45;&gt;Node2</title>
<g id="a_edge2_Node000002_Node000003"><a xlink:title=" ">
<path fill="none" stroke="#63b8ff" d="M74.85,-240.48C81.73,-226.57 90.79,-210.38 101.12,-197.25 103.53,-194.19 106.15,-191.17 108.88,-188.22"/>
<polygon fill="none" stroke="#63b8ff" points="108.86,-188.25 110.24,-181.17 117.3,-179.72 115.92,-186.8 108.86,-188.25"/>
</a>
</g>
<text text-anchor="start" x="104.12" y="-202" font-family="Helvetica,sans-Serif" font-size="10.00" fill="grey">+tensor</text>
</g>
<!-- Node4 -->
<g id="Node000004" class="node">
<title>Node4</title>
<g id="a_Node000004"><a xlink:href="structTTL__layout__t.html" target="_top" xlink:title="Description of a Tensor layout in memory.">
<polygon fill="white" stroke="none" points="80.25,-438.62 0,-438.62 0,-373.62 80.25,-373.62 80.25,-438.62"/>
<text text-anchor="start" x="11.62" y="-425.12" font-family="Helvetica,sans-Serif" font-size="10.00">TTL_layout_t</text>
<text text-anchor="start" x="4" y="-409.88" font-family="Helvetica,sans-Serif" font-size="10.00">+</text>
<text text-anchor="start" x="14" y="-409.88" font-family="Helvetica,sans-Serif" font-size="10.00">row_spacing</text>
<text text-anchor="start" x="4" y="-394.62" font-family="Helvetica,sans-Serif" font-size="10.00">+</text>
<text text-anchor="start" x="14" y="-394.62" font-family="Helvetica,sans-Serif" font-size="10.00">plane_spacing</text>
<text text-anchor="start" x="38.62" y="-379.38" font-family="Helvetica,sans-Serif" font-size="10.00"> </text>
<polygon fill="#666666" stroke="#666666" points="0,-421.38 0,-421.38 80.25,-421.38 80.25,-421.38 0,-421.38"/>
<polygon fill="#666666" stroke="#666666" points="0,-390.88 0,-390.88 12,-390.88 12,-390.88 0,-390.88"/>
<polygon fill="#666666" stroke="#666666" points="12,-390.88 12,-390.88 80.25,-390.88 80.25,-390.88 12,-390.88"/>
<polygon fill="none" stroke="#666666" points="0,-373.62 0,-438.62 80.25,-438.62 80.25,-373.62 0,-373.62"/>
</a>
</g>
</g>
<!-- Node4&#45;&gt;Node3 -->
<g id="edge3_Node000003_Node000004" class="edge">
<title>Node4&#45;&gt;Node3</title>
<g id="a_edge3_Node000003_Node000004"><a xlink:title=" ">
<path fill="none" stroke="#63b8ff" d="M38.62,-373.8C38.53,-360.44 39.16,-344.74 41.62,-330.75 42.4,-326.33 43.47,-321.8 44.7,-317.3"/>
<polygon fill="none" stroke="#63b8ff" points="44.72,-317.23 42.66,-310.31 48.25,-305.76 50.31,-312.67 44.72,-317.23"/>
</a>
</g>
<text text-anchor="start" x="44.62" y="-335.5" font-family="Helvetica,sans-Serif" font-size="10.00" fill="grey">+layout</text>
</g>
<!-- Node5 -->
<g id="Node000005" class="node">
<title>Node5</title>
<g id="a_Node000005"><a xlink:href="structTTL__shape__t.html" target="_top" xlink:title="Description of a Shape.">
<polygon fill="white" stroke="none" points="175,-446.25 109.25,-446.25 109.25,-366 175,-366 175,-446.25"/>
<text text-anchor="start" x="113.25" y="-432.75" font-family="Helvetica,sans-Serif" font-size="10.00">TTL_shape_t</text>
<text text-anchor="start" x="118.62" y="-417.5" font-family="Helvetica,sans-Serif" font-size="10.00">+</text>
<text text-anchor="start" x="134" y="-417.5" font-family="Helvetica,sans-Serif" font-size="10.00">width</text>
<text text-anchor="start" x="118.62" y="-402.25" font-family="Helvetica,sans-Serif" font-size="10.00">+</text>
<text text-anchor="start" x="134" y="-402.25" font-family="Helvetica,sans-Serif" font-size="10.00">height</text>
<text text-anchor="start" x="118.62" y="-387" font-family="Helvetica,sans-Serif" font-size="10.00">+</text>
<text text-anchor="start" x="134" y="-387" font-family="Helvetica,sans-Serif" font-size="10.00">depth</text>
<text text-anchor="start" x="140.62" y="-371.75" font-family="Helvetica,sans-Serif" font-size="10.00"> </text>
<polygon fill="#666666" stroke="#666666" points="109.25,-429 109.25,-429 175,-429 175,-429 109.25,-429"/>
<polygon fill="#666666" stroke="#666666" points="109.25,-383.25 109.25,-383.25 132,-383.25 132,-383.25 109.25,-383.25"/>
<polygon fill="#666666" stroke="#666666" points="132,-383.25 132,-383.25 175,-383.25 175,-383.25 132,-383.25"/>
<polygon fill="none" stroke="#666666" points="109.25,-366 109.25,-446.25 175,-446.25 175,-366 109.25,-366"/>
</a>
</g>
</g>
<!-- Node5&#45;&gt;Node2 -->
<g id="edge5_Node000002_Node000005" class="edge">
<title>Node5&#45;&gt;Node2</title>
<g id="a_edge5_Node000002_Node000005"><a xlink:title=" ">
<path fill="none" stroke="#63b8ff" d="M143.96,-366.06C146.18,-318.93 149.88,-240.02 152.16,-191.66"/>
<polygon fill="none" stroke="#63b8ff" points="152.15,-191.77 148.44,-185.59 152.71,-179.78 156.43,-185.96 152.15,-191.77"/>
</a>
</g>
<text text-anchor="start" x="153.09" y="-268.75" font-family="Helvetica,sans-Serif" font-size="10.00" fill="grey">+shape</text>
</g>
<!-- Node5&#45;&gt;Node3 -->
<g id="edge4_Node000003_Node000005" class="edge">
<title>Node5&#45;&gt;Node3</title>
<g id="a_edge4_Node000003_Node000005"><a xlink:title=" ">
<path fill="none" stroke="#63b8ff" d="M113.82,-366.18C109.7,-360.17 105.6,-353.97 101.88,-348 95.53,-337.82 89.09,-326.58 83.26,-315.99"/>
<polygon fill="none" stroke="#63b8ff" points="83.36,-316.17 76.99,-312.8 77.64,-305.62 84.02,-308.99 83.36,-316.17"/>
</a>
</g>
<text text-anchor="start" x="104.88" y="-335.5" font-family="Helvetica,sans-Serif" font-size="10.00" fill="grey">+shape</text>
</g>
<!-- Node6 -->
<g id="Node000006" class="node">
<title>Node6</title>
<g id="a_Node000006"><a xlink:href="structTTL__offset__t.html" target="_top" xlink:title="Description of the 3D offset of an object.">
<polygon fill="white" stroke="none" points="273.88,-312.75 210.38,-312.75 210.38,-232.5 273.88,-232.5 273.88,-312.75"/>
<text text-anchor="start" x="214.38" y="-299.25" font-family="Helvetica,sans-Serif" font-size="10.00">TTL_offset_t</text>
<text text-anchor="start" x="224.62" y="-284" font-family="Helvetica,sans-Serif" font-size="10.00">+</text>
<text text-anchor="start" x="244.88" y="-284" font-family="Helvetica,sans-Serif" font-size="10.00">x</text>
<text text-anchor="start" x="224.62" y="-268.75" font-family="Helvetica,sans-Serif" font-size="10.00">+</text>
<text text-anchor="start" x="244.88" y="-268.75" font-family="Helvetica,sans-Serif" font-size="10.00">y</text>
<text text-anchor="start" x="224.62" y="-253.5" font-family="Helvetica,sans-Serif" font-size="10.00">+</text>
<text text-anchor="start" x="244.88" y="-253.5" font-family="Helvetica,sans-Serif" font-size="10.00">z</text>
<text text-anchor="start" x="240.62" y="-238.25" font-family="Helvetica,sans-Serif" font-size="10.00"> </text>
<polygon fill="#666666" stroke="#666666" points="210.38,-295.5 210.38,-295.5 273.88,-295.5 273.88,-295.5 210.38,-295.5"/>
<polygon fill="#666666" stroke="#666666" points="210.38,-249.75 210.38,-249.75 242.88,-249.75 242.88,-249.75 210.38,-249.75"/>
<polygon fill="#666666" stroke="#666666" points="242.88,-249.75 242.88,-249.75 273.88,-249.75 273.88,-249.75 242.88,-249.75"/>
<polygon fill="none" stroke="#666666" points="210.38,-232.5 210.38,-312.75 273.88,-312.75 273.88,-232.5 210.38,-232.5"/>
</a>
</g>
</g>
<!-- Node6&#45;&gt;Node2 -->
<g id="edge6_Node000002_Node000006" class="edge">
<title>Node6&#45;&gt;Node2</title>
<g id="a_edge6_Node000002_Node000006"><a xlink:title=" ">
<path fill="none" stroke="#63b8ff" d="M214.04,-232.73C204.02,-218.85 192.72,-203.21 182.67,-189.28"/>
<polygon fill="none" stroke="#63b8ff" points="182.81,-189.48 176.05,-186.95 175.78,-179.75 182.54,-182.27 182.81,-189.48"/>
</a>
</g>
<text text-anchor="start" x="203.76" y="-202" font-family="Helvetica,sans-Serif" font-size="10.00" fill="grey">+sub_offset</text>
</g>
</g>
</svg>
