<?xml version="1.0" encoding="UTF-8" standalone="no"?>
<!DOCTYPE svg PUBLIC "-//W3C//DTD SVG 1.1//EN"
 "http://www.w3.org/Graphics/SVG/1.1/DTD/svg11.dtd">
<!-- Generated by graphviz version 12.2.1 (20241206.2353)
 -->
<!-- Title: TTL_duplex_const_ulong_tensor_buffering_t Pages: 1 -->
<svg width="251pt" height="424pt"
 viewBox="0.00 0.00 250.87 423.50" xmlns="http://www.w3.org/2000/svg" xmlns:xlink="http://www.w3.org/1999/xlink">
<g id="graph0" class="graph" transform="scale(1 1) rotate(0) translate(4 419.5)">
<title>TTL_duplex_const_ulong_tensor_buffering_t</title>
<!-- Node1 -->
<g id="Node000001" class="node">
<title>Node1</title>
<g id="a_Node000001"><a xlink:title="Data required to perform duplex buffer pipelining.">
<polygon fill="#999999" stroke="none" points="175.88,-122 59.12,-122 59.12,0 175.88,0 175.88,-122"/>
<text text-anchor="start" x="63.12" y="-108.5" font-family="Helvetica,sans-Serif" font-size="10.00">TTL_duplex_const_ulong</text>
<text text-anchor="start" x="76.25" y="-97.25" font-family="Helvetica,sans-Serif" font-size="10.00">_tensor_buffering_t</text>
<text text-anchor="start" x="69.06" y="-82" font-family="Helvetica,sans-Serif" font-size="10.00">+</text>
<text text-anchor="start" x="85" y="-82" font-family="Helvetica,sans-Serif" font-size="10.00">index</text>
<text text-anchor="start" x="69.06" y="-66.75" font-family="Helvetica,sans-Serif" font-size="10.00">+</text>
<text text-anchor="start" x="85" y="-66.75" font-family="Helvetica,sans-Serif" font-size="10.00">int_base</text>
<text text-anchor="start" x="69.06" y="-51.5" font-family="Helvetica,sans-Serif" font-size="10.00">+</text>
<text text-anchor="start" x="85" y="-51.5" font-family="Helvetica,sans-Serif" font-size="10.00">common</text>
<text text-anchor="start" x="69.06" y="-36.25" font-family="Helvetica,sans-Serif" font-size="10.00">+</text>
<text text-anchor="start" x="85" y="-36.25" font-family="Helvetica,sans-Serif" font-size="10.00">events</text>
<text text-anchor="start" x="69.06" y="-21" font-family="Helvetica,sans-Serif" font-size="10.00">+</text>
<text text-anchor="start" x="85" y="-21" font-family="Helvetica,sans-Serif" font-size="10.00">prev_out_tensors</text>
<text text-anchor="start" x="116" y="-5.75" font-family="Helvetica,sans-Serif" font-size="10.00"> </text>
<polygon fill="#666666" stroke="#666666" points="59.12,-93.5 59.12,-93.5 175.88,-93.5 175.88,-93.5 59.12,-93.5"/>
<polygon fill="#666666" stroke="#666666" points="59.12,-17.25 59.12,-17.25 83,-17.25 83,-17.25 59.12,-17.25"/>
<polygon fill="#666666" stroke="#666666" points="83,-17.25 83,-17.25 175.88,-17.25 175.88,-17.25 83,-17.25"/>
<polygon fill="none" stroke="#666666" points="59.12,0 59.12,-122 175.88,-122 175.88,0 59.12,0"/>
</a>
</g>
</g>
<!-- Node2 -->
<g id="Node000002" class="node">
<title>Node2</title>
<g id="a_Node000002"><a xlink:href="structTTL__ext__ulong__tensor__t.html" target="_top" xlink:title="const and non&#45;const tensors in the appropriate address space">
<polygon fill="white" stroke="none" points="113,-276.38 0,-276.38 0,-211.38 113,-211.38 113,-276.38"/>
<text text-anchor="start" x="4" y="-262.88" font-family="Helvetica,sans-Serif" font-size="10.00">TTL_ext_ulong_tensor_t</text>
<text text-anchor="start" x="16.88" y="-247.62" font-family="Helvetica,sans-Serif" font-size="10.00">+</text>
<text text-anchor="start" x="39.75" y="-247.62" font-family="Helvetica,sans-Serif" font-size="10.00">base</text>
<text text-anchor="start" x="16.88" y="-232.38" font-family="Helvetica,sans-Serif" font-size="10.00">+</text>
<text text-anchor="start" x="39.75" y="-232.38" font-family="Helvetica,sans-Serif" font-size="10.00">elem_size</text>
<text text-anchor="start" x="55" y="-217.12" font-family="Helvetica,sans-Serif" font-size="10.00"> </text>
<polygon fill="#666666" stroke="#666666" points="0,-259.12 0,-259.12 113,-259.12 113,-259.12 0,-259.12"/>
<polygon fill="#666666" stroke="#666666" points="0,-228.62 0,-228.62 37.75,-228.62 37.75,-228.62 0,-228.62"/>
<polygon fill="#666666" stroke="#666666" points="37.75,-228.62 37.75,-228.62 113,-228.62 113,-228.62 37.75,-228.62"/>
<polygon fill="none" stroke="#666666" points="0,-211.38 0,-276.38 113,-276.38 113,-211.38 0,-211.38"/>
</a>
</g>
</g>
<!-- Node2&#45;&gt;Node1 -->
<g id="edge1_Node000001_Node000002" class="edge">
<title>Node2&#45;&gt;Node1</title>
<g id="a_edge1_Node000001_Node000002"><a xlink:title=" ">
<path fill="none" stroke="#63b8ff" d="M59.82,-211.62C62.63,-190.89 67.55,-163.31 75.75,-140 76.52,-137.81 77.34,-135.61 78.21,-133.41"/>
<polygon fill="none" stroke="#63b8ff" points="78.17,-133.5 76.85,-126.41 82.89,-122.46 84.21,-129.55 78.17,-133.5"/>
</a>
</g>
<text text-anchor="start" x="78.75" y="-175.25" font-family="Helvetica,sans-Serif" font-size="10.00" fill="grey">+ext_tensor_in</text>
<text text-anchor="start" x="78.75" y="-160" font-family="Helvetica,sans-Serif" font-size="10.00" fill="grey">+ext_tensor_out</text>
<text text-anchor="start" x="78.75" y="-144.75" font-family="Helvetica,sans-Serif" font-size="10.00" fill="grey">+to_export_to</text>
</g>
<!-- Node3 -->
<g id="Node000003" class="node">
<title>Node3</title>
<g id="a_Node000003"><a xlink:href="structTTL__layout__t.html" target="_top" xlink:title="Description of a Tensor layout in memory.">
<polygon fill="white" stroke="none" points="105.62,-407.88 25.38,-407.88 25.38,-342.88 105.62,-342.88 105.62,-407.88"/>
<text text-anchor="start" x="37" y="-394.38" font-family="Helvetica,sans-Serif" font-size="10.00">TTL_layout_t</text>
<text text-anchor="start" x="29.38" y="-379.12" font-family="Helvetica,sans-Serif" font-size="10.00">+</text>
<text text-anchor="start" x="39.38" y="-379.12" font-family="Helvetica,sans-Serif" font-size="10.00">row_spacing</text>
<text text-anchor="start" x="29.38" y="-363.88" font-family="Helvetica,sans-Serif" font-size="10.00">+</text>
<text text-anchor="start" x="39.38" y="-363.88" font-family="Helvetica,sans-Serif" font-size="10.00">plane_spacing</text>
<text text-anchor="start" x="64" y="-348.62" font-family="Helvetica,sans-Serif" font-size="10.00"> </text>
<polygon fill="#666666" stroke="#666666" points="25.38,-390.62 25.38,-390.62 105.62,-390.62 105.62,-390.62 25.38,-390.62"/>
<polygon fill="#666666" stroke="#666666" points="25.38,-360.12 25.38,-360.12 37.38,-360.12 37.38,-360.12 25.38,-360.12"/>
<polygon fill="#666666" stroke="#666666" points="37.38,-360.12 37.38,-360.12 105.62,-360.12 105.62,-360.12 37.38,-360.12"/>
<polygon fill="none" stroke="#666666" points="25.38,-342.88 25.38,-407.88 105.62,-407.88 105.62,-342.88 25.38,-342.88"/>
</a>
</g>
</g>
<!-- Node3&#45;&gt;Node2 -->
<g id="edge2_Node000002_Node000003" class="edge">
<title>Node3&#45;&gt;Node2</title>
<g id="a_edge2_Node000002_Node000003"><a xlink:title=" ">
<path fill="none" stroke="#63b8ff" d="M41.02,-343.01C36.08,-335.03 31.61,-326.17 29,-317.25 26.22,-307.74 27.32,-297.71 30.3,-288.24"/>
<polygon fill="none" stroke="#63b8ff" points="30.32,-288.19 28.84,-281.13 34.79,-277.05 36.27,-284.11 30.32,-288.19"/>
</a>
</g>
<text text-anchor="start" x="32" y="-304.75" font-family="Helvetica,sans-Serif" font-size="10.00" fill="grey">+layout</text>
</g>
<!-- Node5 -->
<g id="Node000005" class="node">
<title>Node5</title>
<g id="a_Node000005"><a xlink:href="structTTL__const__int__ulong__tensor__t.html" target="_top" xlink:title=" ">
<polygon fill="white" stroke="none" points="230.25,-282 130.75,-282 130.75,-205.75 230.25,-205.75 230.25,-282"/>
<text text-anchor="start" x="134.75" y="-268.5" font-family="Helvetica,sans-Serif" font-size="10.00">TTL_const_int_ulong</text>
<text text-anchor="start" x="160.25" y="-257.25" font-family="Helvetica,sans-Serif" font-size="10.00">_tensor_t</text>
<text text-anchor="start" x="144.25" y="-242" font-family="Helvetica,sans-Serif" font-size="10.00">+</text>
<text text-anchor="start" x="163.75" y="-242" font-family="Helvetica,sans-Serif" font-size="10.00">base</text>
<text text-anchor="start" x="144.25" y="-226.75" font-family="Helvetica,sans-Serif" font-size="10.00">+</text>
<text text-anchor="start" x="163.75" y="-226.75" font-family="Helvetica,sans-Serif" font-size="10.00">elem_size</text>
<text text-anchor="start" x="179" y="-211.5" font-family="Helvetica,sans-Serif" font-size="10.00"> </text>
<polygon fill="#666666" stroke="#666666" points="130.75,-253.5 130.75,-253.5 230.25,-253.5 230.25,-253.5 130.75,-253.5"/>
<polygon fill="#666666" stroke="#666666" points="130.75,-223 130.75,-223 161.75,-223 161.75,-223 130.75,-223"/>
<polygon fill="#666666" stroke="#666666" points="161.75,-223 161.75,-223 230.25,-223 230.25,-223 161.75,-223"/>
<polygon fill="none" stroke="#666666" points="130.75,-205.75 130.75,-282 230.25,-282 230.25,-205.75 130.75,-205.75"/>
</a>
</g>
</g>
<!-- Node3&#45;&gt;Node5 -->
<g id="edge5_Node000005_Node000003" class="edge">
<title>Node3&#45;&gt;Node5</title>
<g id="a_edge5_Node000005_Node000003"><a xlink:title=" ">
<path fill="none" stroke="#63b8ff" d="M68.24,-343.09C70.88,-328.65 76.02,-312.08 86,-300 95.54,-288.46 103.51,-289.78 119.77,-282.72"/>
<polygon fill="none" stroke="#63b8ff" points="119.52,-282.84 123.09,-276.57 130.24,-277.44 126.68,-283.71 119.52,-282.84"/>
</a>
</g>
<text text-anchor="start" x="89" y="-304.75" font-family="Helvetica,sans-Serif" font-size="10.00" fill="grey">+layout</text>
</g>
<!-- Node4 -->
<g id="Node000004" class="node">
<title>Node4</title>
<g id="a_Node000004"><a xlink:href="structTTL__shape__t.html" target="_top" xlink:title="Description of a Shape.">
<polygon fill="white" stroke="none" points="204.38,-415.5 138.62,-415.5 138.62,-335.25 204.38,-335.25 204.38,-415.5"/>
<text text-anchor="start" x="142.62" y="-402" font-family="Helvetica,sans-Serif" font-size="10.00">TTL_shape_t</text>
<text text-anchor="start" x="148" y="-386.75" font-family="Helvetica,sans-Serif" font-size="10.00">+</text>
<text text-anchor="start" x="163.38" y="-386.75" font-family="Helvetica,sans-Serif" font-size="10.00">width</text>
<text text-anchor="start" x="148" y="-371.5" font-family="Helvetica,sans-Serif" font-size="10.00">+</text>
<text text-anchor="start" x="163.38" y="-371.5" font-family="Helvetica,sans-Serif" font-size="10.00">height</text>
<text text-anchor="start" x="148" y="-356.25" font-family="Helvetica,sans-Serif" font-size="10.00">+</text>
<text text-anchor="start" x="163.38" y="-356.25" font-family="Helvetica,sans-Serif" font-size="10.00">depth</text>
<text text-anchor="start" x="170" y="-341" font-family="Helvetica,sans-Serif" font-size="10.00"> </text>
<polygon fill="#666666" stroke="#666666" points="138.62,-398.25 138.62,-398.25 204.38,-398.25 204.38,-398.25 138.62,-398.25"/>
<polygon fill="#666666" stroke="#666666" points="138.62,-352.5 138.62,-352.5 161.38,-352.5 161.38,-352.5 138.62,-352.5"/>
<polygon fill="#666666" stroke="#666666" points="161.38,-352.5 161.38,-352.5 204.38,-352.5 204.38,-352.5 161.38,-352.5"/>
<polygon fill="none" stroke="#666666" points="138.62,-335.25 138.62,-415.5 204.38,-415.5 204.38,-335.25 138.62,-335.25"/>
</a>
</g>
</g>
<!-- Node4&#45;&gt;Node2 -->
<g id="edge3_Node000002_Node000004" class="edge">
<title>Node4&#45;&gt;Node2</title>
<g id="a_edge3_Node000002_Node000004"><a xlink:title=" ">
<path fill="none" stroke="#63b8ff" d="M152.14,-335.43C145.23,-323.42 136.82,-310.58 127.5,-300 122.86,-294.73 117.65,-289.61 112.23,-284.75"/>
<polygon fill="none" stroke="#63b8ff" points="112.12,-284.67 104.96,-283.83 102.98,-276.89 110.15,-277.73 112.12,-284.67"/>
</a>
</g>
<text text-anchor="start" x="143.48" y="-304.75" font-family="Helvetica,sans-Serif" font-size="10.00" fill="grey">+shape</text>
</g>
<!-- Node4&#45;&gt;Node5 -->
<g id="edge6_Node000005_Node000004" class="edge">
<title>Node4&#45;&gt;Node5</title>
<g id="a_edge6_Node000005_Node000004"><a xlink:title=" ">
<path fill="none" stroke="#63b8ff" d="M184.73,-335.38C186.29,-329.37 187.64,-323.19 188.5,-317.25 189.56,-309.97 189.73,-302.25 189.35,-294.68"/>
<polygon fill="none" stroke="#63b8ff" points="189.34,-294.61 184.83,-288.98 188.29,-282.65 192.8,-288.28 189.34,-294.61"/>
</a>
</g>
<text text-anchor="start" x="192.53" y="-304.75" font-family="Helvetica,sans-Serif" font-size="10.00" fill="grey">+shape</text>
</g>
<!-- Node5&#45;&gt;Node1 -->
<g id="edge4_Node000001_Node000005" class="edge">
<title>Node5&#45;&gt;Node1</title>
<g id="a_edge4_Node000001_Node000005"><a xlink:title=" ">
<path fill="none" stroke="#63b8ff" d="M171.36,-205.83C166.17,-186.08 159.17,-161.5 151.5,-140 150.77,-137.94 150,-135.86 149.22,-133.77"/>
<polygon fill="none" stroke="#63b8ff" points="149.2,-133.73 143.29,-129.6 144.84,-122.55 150.75,-126.69 149.2,-133.73"/>
</a>
</g>
<text text-anchor="start" x="169.37" y="-160" font-family="Helvetica,sans-Serif" font-size="10.00" fill="grey">+to_export_from</text>
</g>
</g>
</svg>
