<?xml version="1.0" encoding="UTF-8" standalone="no"?>
<!DOCTYPE svg PUBLIC "-//W3C//DTD SVG 1.1//EN"
 "http://www.w3.org/Graphics/SVG/1.1/DTD/svg11.dtd">
<!-- Generated by graphviz version 12.2.1 (20241206.2353)
 -->
<!-- Title: TTL_simplex_const_float_tensor_buffering_t Pages: 1 -->
<svg width="470pt" height="500pt"
 viewBox="0.00 0.00 470.31 500.00" xmlns="http://www.w3.org/2000/svg" xmlns:xlink="http://www.w3.org/1999/xlink">
<g id="graph0" class="graph" transform="scale(1 1) rotate(0) translate(4 496)">
<title>TTL_simplex_const_float_tensor_buffering_t</title>
<!-- Node1 -->
<g id="Node000001" class="node">
<title>Node1</title>
<g id="a_Node000001"><a xlink:title=" ">
<polygon fill="#999999" stroke="none" points="326.25,-122 209.5,-122 209.5,0 326.25,0 326.25,-122"/>
<text text-anchor="start" x="213.5" y="-108.5" font-family="Helvetica,sans-Serif" font-size="10.00">TTL_simplex_const_float</text>
<text text-anchor="start" x="226.62" y="-97.25" font-family="Helvetica,sans-Serif" font-size="10.00">_tensor_buffering_t</text>
<text text-anchor="start" x="227.5" y="-82" font-family="Helvetica,sans-Serif" font-size="10.00">+</text>
<text text-anchor="start" x="251.5" y="-82" font-family="Helvetica,sans-Serif" font-size="10.00">index</text>
<text text-anchor="start" x="227.5" y="-66.75" font-family="Helvetica,sans-Serif" font-size="10.00">+</text>
<text text-anchor="start" x="251.5" y="-66.75" font-family="Helvetica,sans-Serif" font-size="10.00">int_base</text>
<text text-anchor="start" x="227.5" y="-51.5" font-family="Helvetica,sans-Serif" font-size="10.00">+</text>
<text text-anchor="start" x="251.5" y="-51.5" font-family="Helvetica,sans-Serif" font-size="10.00">common</text>
<text text-anchor="start" x="227.5" y="-36.25" font-family="Helvetica,sans-Serif" font-size="10.00">+</text>
<text text-anchor="start" x="251.5" y="-36.25" font-family="Helvetica,sans-Serif" font-size="10.00">event_in</text>
<text text-anchor="start" x="227.5" y="-21" font-family="Helvetica,sans-Serif" font-size="10.00">+</text>
<text text-anchor="start" x="251.5" y="-21" font-family="Helvetica,sans-Serif" font-size="10.00">event_out</text>
<text text-anchor="start" x="266.38" y="-5.75" font-family="Helvetica,sans-Serif" font-size="10.00"> </text>
<polygon fill="#666666" stroke="#666666" points="209.5,-93.5 209.5,-93.5 326.25,-93.5 326.25,-93.5 209.5,-93.5"/>
<polygon fill="#666666" stroke="#666666" points="209.5,-17.25 209.5,-17.25 249.5,-17.25 249.5,-17.25 209.5,-17.25"/>
<polygon fill="#666666" stroke="#666666" points="249.5,-17.25 249.5,-17.25 326.25,-17.25 326.25,-17.25 249.5,-17.25"/>
<polygon fill="none" stroke="#666666" points="209.5,0 209.5,-122 326.25,-122 326.25,0 209.5,0"/>
</a>
</g>
</g>
<!-- Node2 -->
<g id="Node000002" class="node">
<title>Node2</title>
<g id="a_Node000002"><a xlink:href="structTTL__ext__float__tensor__t.html" target="_top" xlink:title="const and non&#45;const tensors in the appropriate address space">
<polygon fill="white" stroke="none" points="107.75,-350.88 0,-350.88 0,-285.88 107.75,-285.88 107.75,-350.88"/>
<text text-anchor="start" x="4" y="-337.38" font-family="Helvetica,sans-Serif" font-size="10.00">TTL_ext_float_tensor_t</text>
<text text-anchor="start" x="15.56" y="-322.12" font-family="Helvetica,sans-Serif" font-size="10.00">+</text>
<text text-anchor="start" x="37.12" y="-322.12" font-family="Helvetica,sans-Serif" font-size="10.00">base</text>
<text text-anchor="start" x="15.56" y="-306.88" font-family="Helvetica,sans-Serif" font-size="10.00">+</text>
<text text-anchor="start" x="37.12" y="-306.88" font-family="Helvetica,sans-Serif" font-size="10.00">elem_size</text>
<text text-anchor="start" x="52.38" y="-291.62" font-family="Helvetica,sans-Serif" font-size="10.00"> </text>
<polygon fill="#666666" stroke="#666666" points="0,-333.62 0,-333.62 107.75,-333.62 107.75,-333.62 0,-333.62"/>
<polygon fill="#666666" stroke="#666666" points="0,-303.12 0,-303.12 35.12,-303.12 35.12,-303.12 0,-303.12"/>
<polygon fill="#666666" stroke="#666666" points="35.12,-303.12 35.12,-303.12 107.75,-303.12 107.75,-303.12 35.12,-303.12"/>
<polygon fill="none" stroke="#666666" points="0,-285.88 0,-350.88 107.75,-350.88 107.75,-285.88 0,-285.88"/>
</a>
</g>
</g>
<!-- Node2&#45;&gt;Node1 -->
<g id="edge1_Node000001_Node000002" class="edge">
<title>Node2&#45;&gt;Node1</title>
<g id="a_edge1_Node000001_Node000002"><a xlink:title=" ">
<path fill="none" stroke="#63b8ff" d="M63.53,-286.16C74.03,-255.65 93.03,-209 120.12,-175.25 142.1,-147.88 172.01,-123.36 199.18,-104.19"/>
<polygon fill="none" stroke="#63b8ff" points="199.21,-104.17 201.87,-97.47 209.08,-97.35 206.42,-104.05 199.21,-104.17"/>
</a>
</g>
<text text-anchor="start" x="123.12" y="-203.88" font-family="Helvetica,sans-Serif" font-size="10.00" fill="grey">+ext_tensor_in</text>
<text text-anchor="start" x="123.12" y="-188.62" font-family="Helvetica,sans-Serif" font-size="10.00" fill="grey">+ext_tensor_out</text>
</g>
<!-- Node3 -->
<g id="Node000003" class="node">
<title>Node3</title>
<g id="a_Node000003"><a xlink:href="structTTL__layout__t.html" target="_top" xlink:title="Description of a Tensor layout in memory.">
<polygon fill="white" stroke="none" points="144,-484.38 63.75,-484.38 63.75,-419.38 144,-419.38 144,-484.38"/>
<text text-anchor="start" x="75.38" y="-470.88" font-family="Helvetica,sans-Serif" font-size="10.00">TTL_layout_t</text>
<text text-anchor="start" x="67.75" y="-455.62" font-family="Helvetica,sans-Serif" font-size="10.00">+</text>
<text text-anchor="start" x="77.75" y="-455.62" font-family="Helvetica,sans-Serif" font-size="10.00">row_spacing</text>
<text text-anchor="start" x="67.75" y="-440.38" font-family="Helvetica,sans-Serif" font-size="10.00">+</text>
<text text-anchor="start" x="77.75" y="-440.38" font-family="Helvetica,sans-Serif" font-size="10.00">plane_spacing</text>
<text text-anchor="start" x="102.38" y="-425.12" font-family="Helvetica,sans-Serif" font-size="10.00"> </text>
<polygon fill="#666666" stroke="#666666" points="63.75,-467.12 63.75,-467.12 144,-467.12 144,-467.12 63.75,-467.12"/>
<polygon fill="#666666" stroke="#666666" points="63.75,-436.62 63.75,-436.62 75.75,-436.62 75.75,-436.62 63.75,-436.62"/>
<polygon fill="#666666" stroke="#666666" points="75.75,-436.62 75.75,-436.62 144,-436.62 144,-436.62 75.75,-436.62"/>
<polygon fill="none" stroke="#666666" points="63.75,-419.38 63.75,-484.38 144,-484.38 144,-419.38 63.75,-419.38"/>
</a>
</g>
</g>
<!-- Node3&#45;&gt;Node2 -->
<g id="edge2_Node000002_Node000003" class="edge">
<title>Node3&#45;&gt;Node2</title>
<g id="a_edge2_Node000002_Node000003"><a xlink:title=" ">
<path fill="none" stroke="#63b8ff" d="M64.05,-428.38C51.91,-419.32 40.02,-407.69 33.38,-393.75 28.79,-384.12 29.03,-373.29 31.55,-362.93"/>
<polygon fill="none" stroke="#63b8ff" points="31.56,-362.9 29.63,-355.96 35.3,-351.5 37.23,-358.45 31.56,-362.9"/>
</a>
</g>
<text text-anchor="start" x="36.38" y="-381.25" font-family="Helvetica,sans-Serif" font-size="10.00" fill="grey">+layout</text>
</g>
<!-- Node8 -->
<g id="Node000008" class="node">
<title>Node8</title>
<g id="a_Node000008"><a xlink:href="structTTL__int__float__tensor__t.html" target="_top" xlink:title="const and non&#45;const tensors in the appropriate address space">
<polygon fill="white" stroke="none" points="231.62,-350.88 126.12,-350.88 126.12,-285.88 231.62,-285.88 231.62,-350.88"/>
<text text-anchor="start" x="130.12" y="-337.38" font-family="Helvetica,sans-Serif" font-size="10.00">TTL_int_float_tensor_t</text>
<text text-anchor="start" x="141.12" y="-322.12" font-family="Helvetica,sans-Serif" font-size="10.00">+</text>
<text text-anchor="start" x="162.12" y="-322.12" font-family="Helvetica,sans-Serif" font-size="10.00">base</text>
<text text-anchor="start" x="141.12" y="-306.88" font-family="Helvetica,sans-Serif" font-size="10.00">+</text>
<text text-anchor="start" x="162.12" y="-306.88" font-family="Helvetica,sans-Serif" font-size="10.00">elem_size</text>
<text text-anchor="start" x="177.38" y="-291.62" font-family="Helvetica,sans-Serif" font-size="10.00"> </text>
<polygon fill="#666666" stroke="#666666" points="126.12,-333.62 126.12,-333.62 231.62,-333.62 231.62,-333.62 126.12,-333.62"/>
<polygon fill="#666666" stroke="#666666" points="126.12,-303.12 126.12,-303.12 160.12,-303.12 160.12,-303.12 126.12,-303.12"/>
<polygon fill="#666666" stroke="#666666" points="160.12,-303.12 160.12,-303.12 231.62,-303.12 231.62,-303.12 160.12,-303.12"/>
<polygon fill="none" stroke="#666666" points="126.12,-285.88 126.12,-350.88 231.62,-350.88 231.62,-285.88 126.12,-285.88"/>
</a>
</g>
</g>
<!-- Node3&#45;&gt;Node8 -->
<g id="edge9_Node000008_Node000003" class="edge">
<title>Node3&#45;&gt;Node8</title>
<g id="a_edge9_Node000008_Node000003"><a xlink:title=" ">
<path fill="none" stroke="#63b8ff" d="M121.84,-419.38C131.67,-402.14 143.99,-380.54 154.66,-361.83"/>
<polygon fill="none" stroke="#63b8ff" points="154.67,-361.82 154.16,-354.63 160.61,-351.4 161.11,-358.59 154.67,-361.82"/>
</a>
</g>
<text text-anchor="start" x="148.87" y="-381.25" font-family="Helvetica,sans-Serif" font-size="10.00" fill="grey">+layout</text>
</g>
<!-- Node4 -->
<g id="Node000004" class="node">
<title>Node4</title>
<g id="a_Node000004"><a xlink:href="structTTL__shape__t.html" target="_top" xlink:title="Description of a Shape.">
<polygon fill="white" stroke="none" points="273.75,-492 208,-492 208,-411.75 273.75,-411.75 273.75,-492"/>
<text text-anchor="start" x="212" y="-478.5" font-family="Helvetica,sans-Serif" font-size="10.00">TTL_shape_t</text>
<text text-anchor="start" x="217.38" y="-463.25" font-family="Helvetica,sans-Serif" font-size="10.00">+</text>
<text text-anchor="start" x="232.75" y="-463.25" font-family="Helvetica,sans-Serif" font-size="10.00">width</text>
<text text-anchor="start" x="217.38" y="-448" font-family="Helvetica,sans-Serif" font-size="10.00">+</text>
<text text-anchor="start" x="232.75" y="-448" font-family="Helvetica,sans-Serif" font-size="10.00">height</text>
<text text-anchor="start" x="217.38" y="-432.75" font-family="Helvetica,sans-Serif" font-size="10.00">+</text>
<text text-anchor="start" x="232.75" y="-432.75" font-family="Helvetica,sans-Serif" font-size="10.00">depth</text>
<text text-anchor="start" x="239.38" y="-417.5" font-family="Helvetica,sans-Serif" font-size="10.00"> </text>
<polygon fill="#666666" stroke="#666666" points="208,-474.75 208,-474.75 273.75,-474.75 273.75,-474.75 208,-474.75"/>
<polygon fill="#666666" stroke="#666666" points="208,-429 208,-429 230.75,-429 230.75,-429 208,-429"/>
<polygon fill="#666666" stroke="#666666" points="230.75,-429 230.75,-429 273.75,-429 273.75,-429 230.75,-429"/>
<polygon fill="none" stroke="#666666" points="208,-411.75 208,-492 273.75,-492 273.75,-411.75 208,-411.75"/>
</a>
</g>
</g>
<!-- Node4&#45;&gt;Node2 -->
<g id="edge3_Node000002_Node000004" class="edge">
<title>Node4&#45;&gt;Node2</title>
<g id="a_edge3_Node000002_Node000004"><a xlink:title=" ">
<path fill="none" stroke="#63b8ff" d="M208.25,-435.26C191.83,-427.69 171.5,-418.74 152.88,-411.75 127.51,-402.23 115.62,-410.89 94.62,-393.75 84.36,-385.37 76.28,-373.69 70.11,-362.07"/>
<polygon fill="none" stroke="#63b8ff" points="70.18,-362.2 63.97,-358.54 64.96,-351.4 71.17,-355.06 70.18,-362.2"/>
</a>
</g>
<text text-anchor="start" x="97.62" y="-381.25" font-family="Helvetica,sans-Serif" font-size="10.00" fill="grey">+shape</text>
</g>
<!-- Node5 -->
<g id="Node000005" class="node">
<title>Node5</title>
<g id="a_Node000005"><a xlink:href="structTTL__tile__t.html" target="_top" xlink:title=" ">
<polygon fill="white" stroke="none" points="407,-225 354.75,-225 354.75,-175.25 407,-175.25 407,-225"/>
<text text-anchor="start" x="358.75" y="-211.5" font-family="Helvetica,sans-Serif" font-size="10.00">TTL_tile_t</text>
<text text-anchor="start" x="379.38" y="-196.25" font-family="Helvetica,sans-Serif" font-size="10.00"> </text>
<text text-anchor="start" x="379.38" y="-181" font-family="Helvetica,sans-Serif" font-size="10.00"> </text>
<polygon fill="#666666" stroke="#666666" points="354.75,-207.75 354.75,-207.75 407,-207.75 407,-207.75 354.75,-207.75"/>
<polygon fill="#666666" stroke="#666666" points="354.75,-192.5 354.75,-192.5 407,-192.5 407,-192.5 354.75,-192.5"/>
<polygon fill="none" stroke="#666666" points="354.75,-175.25 354.75,-225 407,-225 407,-175.25 354.75,-175.25"/>
</a>
</g>
</g>
<!-- Node4&#45;&gt;Node5 -->
<g id="edge5_Node000005_Node000004" class="edge">
<title>Node4&#45;&gt;Node5</title>
<g id="a_edge5_Node000005_Node000004"><a xlink:title=" ">
<path fill="none" stroke="#63b8ff" d="M273.72,-441.68C311.18,-429.33 371.06,-403.58 400.88,-358.5 429.35,-315.45 429.42,-291.89 412.88,-243 412.06,-240.59 411.05,-238.22 409.89,-235.89"/>
<polygon fill="none" stroke="#63b8ff" points="409.84,-235.81 403.29,-232.78 403.58,-225.57 410.12,-228.6 409.84,-235.81"/>
</a>
</g>
<text text-anchor="start" x="427.06" y="-314.5" font-family="Helvetica,sans-Serif" font-size="10.00" fill="grey">+shape</text>
</g>
<!-- Node7 -->
<g id="Node000007" class="node">
<title>Node7</title>
<g id="a_Node000007"><a xlink:href="structTTL__int__float__sub__tensor__t.html" target="_top" xlink:title="const and non&#45;const sub tensors in the appropriate address space">
<polygon fill="white" stroke="none" points="331.12,-225 204.62,-225 204.62,-175.25 331.12,-175.25 331.12,-225"/>
<text text-anchor="start" x="208.62" y="-211.5" font-family="Helvetica,sans-Serif" font-size="10.00">TTL_int_float_sub_tensor_t</text>
<text text-anchor="start" x="229.94" y="-196.25" font-family="Helvetica,sans-Serif" font-size="10.00">+</text>
<text text-anchor="start" x="261.25" y="-196.25" font-family="Helvetica,sans-Serif" font-size="10.00">origin</text>
<text text-anchor="start" x="266.38" y="-181" font-family="Helvetica,sans-Serif" font-size="10.00"> </text>
<polygon fill="#666666" stroke="#666666" points="204.62,-207.75 204.62,-207.75 331.12,-207.75 331.12,-207.75 204.62,-207.75"/>
<polygon fill="#666666" stroke="#666666" points="204.62,-192.5 204.62,-192.5 259.25,-192.5 259.25,-192.5 204.62,-192.5"/>
<polygon fill="#666666" stroke="#666666" points="259.25,-192.5 259.25,-192.5 331.12,-192.5 331.12,-192.5 259.25,-192.5"/>
<polygon fill="none" stroke="#666666" points="204.62,-175.25 204.62,-225 331.12,-225 331.12,-175.25 204.62,-175.25"/>
</a>
</g>
</g>
<!-- Node4&#45;&gt;Node7 -->
<g id="edge11_Node000007_Node000004" class="edge">
<title>Node4&#45;&gt;Node7</title>
<g id="a_edge11_Node000007_Node000004"><a xlink:title=" ">
<path fill="none" stroke="#63b8ff" d="M250.55,-412C251.82,-405.92 252.99,-399.69 253.88,-393.75 261.92,-339.88 265.39,-276.81 266.85,-237.91"/>
<polygon fill="none" stroke="#63b8ff" points="266.86,-237.87 263.06,-231.74 267.27,-225.88 271.06,-232.01 266.86,-237.87"/>
</a>
</g>
<text text-anchor="start" x="267.93" y="-314.5" font-family="Helvetica,sans-Serif" font-size="10.00" fill="grey">+shape</text>
</g>
<!-- Node4&#45;&gt;Node8 -->
<g id="edge10_Node000008_Node000004" class="edge">
<title>Node4&#45;&gt;Node8</title>
<g id="a_edge10_Node000008_Node000004"><a xlink:title=" ">
<path fill="none" stroke="#63b8ff" d="M222.44,-411.78C215.1,-396.21 206.63,-378.25 199.12,-362.32"/>
<polygon fill="none" stroke="#63b8ff" points="199.11,-362.28 192.93,-358.56 193.99,-351.43 200.16,-355.15 199.11,-362.28"/>
</a>
</g>
<text text-anchor="start" x="216.59" y="-381.25" font-family="Helvetica,sans-Serif" font-size="10.00" fill="grey">+shape</text>
</g>
<!-- Node5&#45;&gt;Node1 -->
<g id="edge4_Node000001_Node000005" class="edge">
<title>Node5&#45;&gt;Node1</title>
<g id="a_edge4_Node000001_Node000005"><a xlink:title=" ">
<path fill="none" stroke="#63b8ff" d="M374.56,-175.37C370.83,-164.02 365.36,-150.62 357.88,-140 351.38,-130.79 343.58,-121.97 335.31,-113.78"/>
<polygon fill="none" stroke="#63b8ff" points="335.21,-113.69 328.1,-112.47 326.49,-105.45 333.6,-106.66 335.21,-113.69"/>
</a>
</g>
<text text-anchor="start" x="370.25" y="-144.75" font-family="Helvetica,sans-Serif" font-size="10.00" fill="grey">+next_exported_tile</text>
</g>
<!-- Node6 -->
<g id="Node000006" class="node">
<title>Node6</title>
<g id="a_Node000006"><a xlink:href="structTTL__offset__t.html" target="_top" xlink:title="Description of the 3D offset of an object.">
<polygon fill="white" stroke="none" points="391.62,-358.5 328.12,-358.5 328.12,-278.25 391.62,-278.25 391.62,-358.5"/>
<text text-anchor="start" x="332.12" y="-345" font-family="Helvetica,sans-Serif" font-size="10.00">TTL_offset_t</text>
<text text-anchor="start" x="342.38" y="-329.75" font-family="Helvetica,sans-Serif" font-size="10.00">+</text>
<text text-anchor="start" x="362.62" y="-329.75" font-family="Helvetica,sans-Serif" font-size="10.00">x</text>
<text text-anchor="start" x="342.38" y="-314.5" font-family="Helvetica,sans-Serif" font-size="10.00">+</text>
<text text-anchor="start" x="362.62" y="-314.5" font-family="Helvetica,sans-Serif" font-size="10.00">y</text>
<text text-anchor="start" x="342.38" y="-299.25" font-family="Helvetica,sans-Serif" font-size="10.00">+</text>
<text text-anchor="start" x="362.62" y="-299.25" font-family="Helvetica,sans-Serif" font-size="10.00">z</text>
<text text-anchor="start" x="358.38" y="-284" font-family="Helvetica,sans-Serif" font-size="10.00"> </text>
<polygon fill="#666666" stroke="#666666" points="328.12,-341.25 328.12,-341.25 391.62,-341.25 391.62,-341.25 328.12,-341.25"/>
<polygon fill="#666666" stroke="#666666" points="328.12,-295.5 328.12,-295.5 360.62,-295.5 360.62,-295.5 328.12,-295.5"/>
<polygon fill="#666666" stroke="#666666" points="360.62,-295.5 360.62,-295.5 391.62,-295.5 391.62,-295.5 360.62,-295.5"/>
<polygon fill="none" stroke="#666666" points="328.12,-278.25 328.12,-358.5 391.62,-358.5 391.62,-278.25 328.12,-278.25"/>
</a>
</g>
</g>
<!-- Node6&#45;&gt;Node5 -->
<g id="edge6_Node000005_Node000006" class="edge">
<title>Node6&#45;&gt;Node5</title>
<g id="a_edge6_Node000005_Node000006"><a xlink:title=" ">
<path fill="none" stroke="#63b8ff" d="M366.93,-278.34C369.3,-265.22 371.93,-250.64 374.26,-237.72"/>
<polygon fill="none" stroke="#63b8ff" points="374.27,-237.67 371.4,-231.06 376.41,-225.86 379.28,-232.48 374.27,-237.67"/>
</a>
</g>
<text text-anchor="start" x="375.87" y="-247.75" font-family="Helvetica,sans-Serif" font-size="10.00" fill="grey">+offset</text>
</g>
<!-- Node6&#45;&gt;Node7 -->
<g id="edge12_Node000007_Node000006" class="edge">
<title>Node6&#45;&gt;Node7</title>
<g id="a_edge12_Node000007_Node000006"><a xlink:title=" ">
<path fill="none" stroke="#63b8ff" d="M328.36,-282.5C322.1,-275.26 315.67,-267.59 309.88,-260.25 303.64,-252.35 297.2,-243.61 291.29,-235.34"/>
<polygon fill="none" stroke="#63b8ff" points="291.32,-235.38 284.6,-232.78 284.42,-225.57 291.14,-228.17 291.32,-235.38"/>
</a>
</g>
<text text-anchor="start" x="312.88" y="-247.75" font-family="Helvetica,sans-Serif" font-size="10.00" fill="grey">+sub_offset</text>
</g>
<!-- Node7&#45;&gt;Node1 -->
<g id="edge7_Node000001_Node000007" class="edge">
<title>Node7&#45;&gt;Node1</title>
<g id="a_edge7_Node000001_Node000007"><a xlink:title=" ">
<path fill="none" stroke="#63b8ff" d="M267.88,-175.55C267.88,-164.06 267.88,-149.55 267.88,-134.78"/>
<polygon fill="none" stroke="#63b8ff" points="267.88,-134.71 263.88,-128.71 267.88,-122.71 271.88,-128.71 267.88,-134.71"/>
</a>
</g>
<text text-anchor="start" x="270.88" y="-144.75" font-family="Helvetica,sans-Serif" font-size="10.00" fill="grey">+int_prev_imported</text>
</g>
<!-- Node8&#45;&gt;Node7 -->
<g id="edge8_Node000007_Node000008" class="edge">
<title>Node8&#45;&gt;Node7</title>
<g id="a_edge8_Node000007_Node000008"><a xlink:title=" ">
<path fill="none" stroke="#63b8ff" d="M190.37,-285.88C196.38,-271.9 204.64,-255.75 214.88,-243 217.48,-239.75 220.38,-236.6 223.45,-233.58"/>
<polygon fill="none" stroke="#63b8ff" points="223.43,-233.6 225.21,-226.61 232.34,-225.56 230.57,-232.55 223.43,-233.6"/>
</a>
</g>
<text text-anchor="start" x="217.88" y="-247.75" font-family="Helvetica,sans-Serif" font-size="10.00" fill="grey">+tensor</text>
</g>
</g>
</svg>
