<?xml version="1.0" encoding="UTF-8" standalone="no"?>
<!DOCTYPE svg PUBLIC "-//W3C//DTD SVG 1.1//EN"
 "http://www.w3.org/Graphics/SVG/1.1/DTD/svg11.dtd">
<!-- Generated by graphviz version 12.2.1 (20241206.2353)
 -->
<!-- Title: TTL_io_tensors&lt; TENSORTYPE &gt; Pages: 1 -->
<svg width="167pt" height="88pt"
 viewBox="0.00 0.00 166.75 88.25" xmlns="http://www.w3.org/2000/svg" xmlns:xlink="http://www.w3.org/1999/xlink">
<g id="graph0" class="graph" transform="scale(1 1) rotate(0) translate(4 84.25)">
<title>TTL_io_tensors&lt; TENSORTYPE &gt;</title>
<!-- Node1 -->
<g id="Node000001" class="node">
<title>Node1</title>
<g id="a_Node000001"><a xlink:title="Describes a pair of internal Tensors after an operation.">
<polygon fill="#999999" stroke="none" points="158.75,-80.25 0,-80.25 0,0 158.75,0 158.75,-80.25"/>
<text text-anchor="start" x="4" y="-66.75" font-family="Helvetica,sans-Serif" font-size="10.00">TTL_io_tensors&lt; TENSORTYPE &gt;</text>
<text text-anchor="start" x="20.62" y="-51.5" font-family="Helvetica,sans-Serif" font-size="10.00">+</text>
<text text-anchor="start" x="47.25" y="-51.5" font-family="Helvetica,sans-Serif" font-size="10.00">imported_to</text>
<text text-anchor="start" x="20.62" y="-36.25" font-family="Helvetica,sans-Serif" font-size="10.00">+</text>
<text text-anchor="start" x="47.25" y="-36.25" font-family="Helvetica,sans-Serif" font-size="10.00">to_export_from</text>
<text text-anchor="start" x="20.62" y="-21" font-family="Helvetica,sans-Serif" font-size="10.00">+</text>
<text text-anchor="start" x="47.25" y="-21" font-family="Helvetica,sans-Serif" font-size="10.00">TTL_io_tensors()</text>
<text text-anchor="start" x="20.62" y="-5.75" font-family="Helvetica,sans-Serif" font-size="10.00">+</text>
<text text-anchor="start" x="47.25" y="-5.75" font-family="Helvetica,sans-Serif" font-size="10.00">empty()</text>
<polygon fill="#666666" stroke="#666666" points="0,-63 0,-63 158.75,-63 158.75,-63 0,-63"/>
<polygon fill="#666666" stroke="#666666" points="0,-32.5 0,-32.5 45.25,-32.5 45.25,-32.5 0,-32.5"/>
<polygon fill="#666666" stroke="#666666" points="45.25,-32.5 45.25,-32.5 158.75,-32.5 158.75,-32.5 45.25,-32.5"/>
<polygon fill="none" stroke="#666666" points="0,0 0,-80.25 158.75,-80.25 158.75,0 0,0"/>
</a>
</g>
</g>
</g>
</svg>
