<?xml version="1.0" encoding="UTF-8" standalone="no"?>
<!DOCTYPE svg PUBLIC "-//W3C//DTD SVG 1.1//EN"
 "http://www.w3.org/Graphics/SVG/1.1/DTD/svg11.dtd">
<!-- Generated by graphviz version 12.2.1 (20241206.2353)
 -->
<!-- Title: TTL_tensor&lt; TENSORTYPE &gt; Pages: 1 -->
<svg width="180pt" height="370pt"
 viewBox="0.00 0.00 179.88 370.25" xmlns="http://www.w3.org/2000/svg" xmlns:xlink="http://www.w3.org/1999/xlink">
<g id="graph0" class="graph" transform="scale(1 1) rotate(0) translate(4 366.25)">
<title>TTL_tensor&lt; TENSORTYPE &gt;</title>
<!-- Node1 -->
<g id="Node000001" class="node">
<title>Node1</title>
<g id="a_Node000001"><a xlink:title="A poor mans base class for an a tensor in the passed address space.">
<polygon fill="#999999" stroke="none" points="157.5,-213.5 16.75,-213.5 16.75,0 157.5,0 157.5,-213.5"/>
<text text-anchor="start" x="20.75" y="-200" font-family="Helvetica,sans-Serif" font-size="10.00">TTL_tensor&lt; TENSORTYPE &gt;</text>
<text text-anchor="start" x="22.75" y="-184.75" font-family="Helvetica,sans-Serif" font-size="10.00">+</text>
<text text-anchor="start" x="34.75" y="-184.75" font-family="Helvetica,sans-Serif" font-size="10.00">base</text>
<text text-anchor="start" x="22.75" y="-169.5" font-family="Helvetica,sans-Serif" font-size="10.00">+</text>
<text text-anchor="start" x="34.75" y="-169.5" font-family="Helvetica,sans-Serif" font-size="10.00">elem_size</text>
<text text-anchor="start" x="22.75" y="-154.25" font-family="Helvetica,sans-Serif" font-size="10.00">+</text>
<text text-anchor="start" x="34.75" y="-154.25" font-family="Helvetica,sans-Serif" font-size="10.00">TTL_tensor()</text>
<text text-anchor="start" x="22.75" y="-139" font-family="Helvetica,sans-Serif" font-size="10.00">+</text>
<text text-anchor="start" x="34.75" y="-139" font-family="Helvetica,sans-Serif" font-size="10.00">TTL_tensor()</text>
<text text-anchor="start" x="22.75" y="-123.75" font-family="Helvetica,sans-Serif" font-size="10.00">+</text>
<text text-anchor="start" x="34.75" y="-123.75" font-family="Helvetica,sans-Serif" font-size="10.00">TTL_tensor()</text>
<text text-anchor="start" x="22.75" y="-108.5" font-family="Helvetica,sans-Serif" font-size="10.00">+</text>
<text text-anchor="start" x="34.75" y="-108.5" font-family="Helvetica,sans-Serif" font-size="10.00">TTL_tensor()</text>
<text text-anchor="start" x="22.75" y="-93.25" font-family="Helvetica,sans-Serif" font-size="10.00">+</text>
<text text-anchor="start" x="34.75" y="-93.25" font-family="Helvetica,sans-Serif" font-size="10.00">TTL_tensor()</text>
<text text-anchor="start" x="22.75" y="-78" font-family="Helvetica,sans-Serif" font-size="10.00">+</text>
<text text-anchor="start" x="34.75" y="-78" font-family="Helvetica,sans-Serif" font-size="10.00">TTL_tensor()</text>
<text text-anchor="start" x="22.75" y="-62.75" font-family="Helvetica,sans-Serif" font-size="10.00">+</text>
<text text-anchor="start" x="34.75" y="-62.75" font-family="Helvetica,sans-Serif" font-size="10.00">operator TTL_tensor</text>
<text text-anchor="start" x="34.75" y="-51.5" font-family="Helvetica,sans-Serif" font-size="10.00">&lt; const TENSORTYPE &gt;()</text>
<text text-anchor="start" x="22.75" y="-36.25" font-family="Helvetica,sans-Serif" font-size="10.00">+</text>
<text text-anchor="start" x="34.75" y="-36.25" font-family="Helvetica,sans-Serif" font-size="10.00">read()</text>
<text text-anchor="start" x="22.75" y="-21" font-family="Helvetica,sans-Serif" font-size="10.00">+</text>
<text text-anchor="start" x="34.75" y="-21" font-family="Helvetica,sans-Serif" font-size="10.00">write()</text>
<text text-anchor="start" x="22.75" y="-5.75" font-family="Helvetica,sans-Serif" font-size="10.00">+</text>
<text text-anchor="start" x="34.75" y="-5.75" font-family="Helvetica,sans-Serif" font-size="10.00">empty()</text>
<polygon fill="#666666" stroke="#666666" points="16.75,-196.25 16.75,-196.25 157.5,-196.25 157.5,-196.25 16.75,-196.25"/>
<polygon fill="#666666" stroke="#666666" points="16.75,-165.75 16.75,-165.75 32.75,-165.75 32.75,-165.75 16.75,-165.75"/>
<polygon fill="#666666" stroke="#666666" points="32.75,-165.75 32.75,-165.75 157.5,-165.75 157.5,-165.75 32.75,-165.75"/>
<polygon fill="none" stroke="#666666" points="16.75,0 16.75,-213.5 157.5,-213.5 157.5,0 16.75,0"/>
</a>
</g>
</g>
<!-- Node2 -->
<g id="Node000002" class="node">
<title>Node2</title>
<g id="a_Node000002"><a xlink:href="structTTL__layout.html" target="_top" xlink:title="Description of a Tensor layout in memory.">
<polygon fill="white" stroke="none" points="80.25,-347 0,-347 0,-282 80.25,-282 80.25,-347"/>
<text text-anchor="start" x="15.75" y="-333.5" font-family="Helvetica,sans-Serif" font-size="10.00">TTL_layout</text>
<text text-anchor="start" x="4" y="-318.25" font-family="Helvetica,sans-Serif" font-size="10.00">+</text>
<text text-anchor="start" x="14" y="-318.25" font-family="Helvetica,sans-Serif" font-size="10.00">row_spacing</text>
<text text-anchor="start" x="4" y="-303" font-family="Helvetica,sans-Serif" font-size="10.00">+</text>
<text text-anchor="start" x="14" y="-303" font-family="Helvetica,sans-Serif" font-size="10.00">plane_spacing</text>
<text text-anchor="start" x="4" y="-287.75" font-family="Helvetica,sans-Serif" font-size="10.00">+</text>
<text text-anchor="start" x="14" y="-287.75" font-family="Helvetica,sans-Serif" font-size="10.00">TTL_layout()</text>
<polygon fill="#666666" stroke="#666666" points="0,-329.75 0,-329.75 80.25,-329.75 80.25,-329.75 0,-329.75"/>
<polygon fill="#666666" stroke="#666666" points="0,-299.25 0,-299.25 12,-299.25 12,-299.25 0,-299.25"/>
<polygon fill="#666666" stroke="#666666" points="12,-299.25 12,-299.25 80.25,-299.25 80.25,-299.25 12,-299.25"/>
<polygon fill="none" stroke="#666666" points="0,-282 0,-347 80.25,-347 80.25,-282 0,-282"/>
</a>
</g>
</g>
<!-- Node2&#45;&gt;Node1 -->
<g id="edge1_Node000001_Node000002" class="edge">
<title>Node2&#45;&gt;Node1</title>
<g id="a_edge1_Node000001_Node000002"><a xlink:title=" ">
<path fill="none" stroke="#63b8ff" d="M47.26,-282.25C50.83,-266.63 55.4,-246.64 60.16,-225.79"/>
<polygon fill="none" stroke="#63b8ff" points="60.19,-225.67 57.62,-218.93 62.86,-213.97 65.42,-220.71 60.19,-225.67"/>
</a>
</g>
<text text-anchor="start" x="61.03" y="-236.25" font-family="Helvetica,sans-Serif" font-size="10.00" fill="grey">+layout</text>
</g>
<!-- Node3 -->
<g id="Node000003" class="node">
<title>Node3</title>
<g id="a_Node000003"><a xlink:href="structTTL__shape.html" target="_top" xlink:title="Description of a Shape.">
<polygon fill="white" stroke="none" points="171.88,-362.25 98.38,-362.25 98.38,-266.75 171.88,-266.75 171.88,-362.25"/>
<text text-anchor="start" x="110.38" y="-348.75" font-family="Helvetica,sans-Serif" font-size="10.00">TTL_shape</text>
<text text-anchor="start" x="102.38" y="-333.5" font-family="Helvetica,sans-Serif" font-size="10.00">+</text>
<text text-anchor="start" x="112.38" y="-333.5" font-family="Helvetica,sans-Serif" font-size="10.00">width</text>
<text text-anchor="start" x="102.38" y="-318.25" font-family="Helvetica,sans-Serif" font-size="10.00">+</text>
<text text-anchor="start" x="112.38" y="-318.25" font-family="Helvetica,sans-Serif" font-size="10.00">height</text>
<text text-anchor="start" x="102.38" y="-303" font-family="Helvetica,sans-Serif" font-size="10.00">+</text>
<text text-anchor="start" x="112.38" y="-303" font-family="Helvetica,sans-Serif" font-size="10.00">depth</text>
<text text-anchor="start" x="102.38" y="-287.75" font-family="Helvetica,sans-Serif" font-size="10.00">+</text>
<text text-anchor="start" x="112.38" y="-287.75" font-family="Helvetica,sans-Serif" font-size="10.00">TTL_shape()</text>
<text text-anchor="start" x="102.38" y="-272.5" font-family="Helvetica,sans-Serif" font-size="10.00">+</text>
<text text-anchor="start" x="112.38" y="-272.5" font-family="Helvetica,sans-Serif" font-size="10.00">empty()</text>
<polygon fill="#666666" stroke="#666666" points="98.38,-345 98.38,-345 171.88,-345 171.88,-345 98.38,-345"/>
<polygon fill="#666666" stroke="#666666" points="98.38,-299.25 98.38,-299.25 110.38,-299.25 110.38,-299.25 98.38,-299.25"/>
<polygon fill="#666666" stroke="#666666" points="110.38,-299.25 110.38,-299.25 171.88,-299.25 171.88,-299.25 110.38,-299.25"/>
<polygon fill="none" stroke="#666666" points="98.38,-266.75 98.38,-362.25 171.88,-362.25 171.88,-266.75 98.38,-266.75"/>
</a>
</g>
</g>
<!-- Node3&#45;&gt;Node1 -->
<g id="edge2_Node000001_Node000003" class="edge">
<title>Node3&#45;&gt;Node1</title>
<g id="a_edge2_Node000001_Node000003"><a xlink:title=" ">
<path fill="none" stroke="#63b8ff" d="M124.23,-266.81C121.34,-254.43 118.09,-240.49 114.74,-226.13"/>
<polygon fill="none" stroke="#63b8ff" points="114.71,-226 109.45,-221.06 111.99,-214.31 117.24,-219.25 114.71,-226"/>
</a>
</g>
<text text-anchor="start" x="122.6" y="-236.25" font-family="Helvetica,sans-Serif" font-size="10.00" fill="grey">+shape</text>
</g>
</g>
</svg>
