<?xml version="1.0" encoding="UTF-8" standalone="no"?>
<!DOCTYPE svg PUBLIC "-//W3C//DTD SVG 1.1//EN"
 "http://www.w3.org/Graphics/SVG/1.1/DTD/svg11.dtd">
<!-- Generated by graphviz version 12.2.1 (20241206.2353)
 -->
<!-- Title: TTL_simplex_buffering&lt; TENSORTYPE &gt; Pages: 1 -->
<svg width="247pt" height="424pt"
 viewBox="0.00 0.00 247.00 423.50" xmlns="http://www.w3.org/2000/svg" xmlns:xlink="http://www.w3.org/1999/xlink">
<g id="graph0" class="graph" transform="scale(1 1) rotate(0) translate(4 419.5)">
<title>TTL_simplex_buffering&lt; TENSORTYPE &gt;</title>
<!-- Node1 -->
<g id="Node000001" class="node">
<title>Node1</title>
<g id="a_Node000001"><a xlink:title=" ">
<polygon fill="#999999" stroke="none" points="163.5,-122 41.25,-122 41.25,0 163.5,0 163.5,-122"/>
<text text-anchor="start" x="53.25" y="-108.5" font-family="Helvetica,sans-Serif" font-size="10.00">TTL_simplex_buffering</text>
<text text-anchor="start" x="61.12" y="-97.25" font-family="Helvetica,sans-Serif" font-size="10.00">&lt; TENSORTYPE &gt;</text>
<text text-anchor="start" x="45.25" y="-82" font-family="Helvetica,sans-Serif" font-size="10.00">+</text>
<text text-anchor="start" x="55.25" y="-82" font-family="Helvetica,sans-Serif" font-size="10.00">m_event_in</text>
<text text-anchor="start" x="45.25" y="-66.75" font-family="Helvetica,sans-Serif" font-size="10.00">+</text>
<text text-anchor="start" x="55.25" y="-66.75" font-family="Helvetica,sans-Serif" font-size="10.00">m_event_out</text>
<text text-anchor="start" x="45.25" y="-51.5" font-family="Helvetica,sans-Serif" font-size="10.00">+</text>
<text text-anchor="start" x="55.25" y="-51.5" font-family="Helvetica,sans-Serif" font-size="10.00">m_int_prev_imported</text>
<text text-anchor="start" x="45.25" y="-36.25" font-family="Helvetica,sans-Serif" font-size="10.00">+</text>
<text text-anchor="start" x="55.25" y="-36.25" font-family="Helvetica,sans-Serif" font-size="10.00">TTL_simplex_buffering()</text>
<text text-anchor="start" x="45.25" y="-21" font-family="Helvetica,sans-Serif" font-size="10.00">+</text>
<text text-anchor="start" x="55.25" y="-21" font-family="Helvetica,sans-Serif" font-size="10.00">step_buffering()</text>
<text text-anchor="start" x="45.25" y="-5.75" font-family="Helvetica,sans-Serif" font-size="10.00">+</text>
<text text-anchor="start" x="55.25" y="-5.75" font-family="Helvetica,sans-Serif" font-size="10.00">finish_buffering()</text>
<polygon fill="#666666" stroke="#666666" points="41.25,-93.5 41.25,-93.5 163.5,-93.5 163.5,-93.5 41.25,-93.5"/>
<polygon fill="#666666" stroke="#666666" points="41.25,-47.75 41.25,-47.75 53.25,-47.75 53.25,-47.75 41.25,-47.75"/>
<polygon fill="#666666" stroke="#666666" points="53.25,-47.75 53.25,-47.75 163.5,-47.75 163.5,-47.75 53.25,-47.75"/>
<polygon fill="none" stroke="#666666" points="41.25,0 41.25,-122 163.5,-122 163.5,0 41.25,0"/>
</a>
</g>
</g>
<!-- Node2 -->
<g id="Node000002" class="node">
<title>Node2</title>
<g id="a_Node000002"><a xlink:href="structTTL__common__buffering.html" target="_top" xlink:title=" ">
<polygon fill="white" stroke="none" points="110.75,-266.75 0,-266.75 0,-175.25 110.75,-175.25 110.75,-266.75"/>
<text text-anchor="start" x="4" y="-253.25" font-family="Helvetica,sans-Serif" font-size="10.00">TTL_common_buffering</text>
<text text-anchor="start" x="8.88" y="-242" font-family="Helvetica,sans-Serif" font-size="10.00">&lt; TENSORTYPE, 3 &gt;</text>
<text text-anchor="start" x="11.25" y="-226.75" font-family="Helvetica,sans-Serif" font-size="10.00">+</text>
<text text-anchor="start" x="28.5" y="-226.75" font-family="Helvetica,sans-Serif" font-size="10.00">index</text>
<text text-anchor="start" x="11.25" y="-211.5" font-family="Helvetica,sans-Serif" font-size="10.00">+</text>
<text text-anchor="start" x="28.5" y="-211.5" font-family="Helvetica,sans-Serif" font-size="10.00">ext_tensor_in</text>
<text text-anchor="start" x="11.25" y="-196.25" font-family="Helvetica,sans-Serif" font-size="10.00">+</text>
<text text-anchor="start" x="28.5" y="-196.25" font-family="Helvetica,sans-Serif" font-size="10.00">ext_tensor_out</text>
<text text-anchor="start" x="11.25" y="-181" font-family="Helvetica,sans-Serif" font-size="10.00">+</text>
<text text-anchor="start" x="28.5" y="-181" font-family="Helvetica,sans-Serif" font-size="10.00">TTL_local()</text>
<polygon fill="#666666" stroke="#666666" points="0,-238.25 0,-238.25 110.75,-238.25 110.75,-238.25 0,-238.25"/>
<polygon fill="#666666" stroke="#666666" points="0,-192.5 0,-192.5 26.5,-192.5 26.5,-192.5 0,-192.5"/>
<polygon fill="#666666" stroke="#666666" points="26.5,-192.5 26.5,-192.5 110.75,-192.5 110.75,-192.5 26.5,-192.5"/>
<polygon fill="none" stroke="#666666" points="0,-175.25 0,-266.75 110.75,-266.75 110.75,-175.25 0,-175.25"/>
</a>
</g>
</g>
<!-- Node2&#45;&gt;Node1 -->
<g id="edge1_Node000001_Node000002" class="edge">
<title>Node2&#45;&gt;Node1</title>
<g id="a_edge1_Node000001_Node000002"><a xlink:title=" ">
<path fill="none" stroke="#63b8ff" d="M57.67,-175.46C59.01,-163.76 61.1,-151.27 64.38,-140 64.98,-137.91 65.64,-135.81 66.34,-133.71"/>
<polygon fill="none" stroke="#63b8ff" points="66.33,-133.75 64.66,-126.74 70.49,-122.5 72.16,-129.52 66.33,-133.75"/>
</a>
</g>
<text text-anchor="start" x="67.38" y="-144.75" font-family="Helvetica,sans-Serif" font-size="10.00" fill="grey">+m_common</text>
</g>
<!-- Node3 -->
<g id="Node000003" class="node">
<title>Node3</title>
<g id="a_Node000003"><a xlink:href="structTTL__tile.html" target="_top" xlink:title=" ">
<polygon fill="white" stroke="none" points="188.38,-253.5 128.38,-253.5 128.38,-188.5 188.38,-188.5 188.38,-253.5"/>
<text text-anchor="start" x="140.38" y="-240" font-family="Helvetica,sans-Serif" font-size="10.00">TTL_tile</text>
<text text-anchor="start" x="156.88" y="-224.75" font-family="Helvetica,sans-Serif" font-size="10.00"> </text>
<text text-anchor="start" x="132.38" y="-209.5" font-family="Helvetica,sans-Serif" font-size="10.00">+</text>
<text text-anchor="start" x="142.38" y="-209.5" font-family="Helvetica,sans-Serif" font-size="10.00">TTL_tile()</text>
<text text-anchor="start" x="132.38" y="-194.25" font-family="Helvetica,sans-Serif" font-size="10.00">+</text>
<text text-anchor="start" x="142.38" y="-194.25" font-family="Helvetica,sans-Serif" font-size="10.00">empty()</text>
<polygon fill="#666666" stroke="#666666" points="128.38,-236.25 128.38,-236.25 188.38,-236.25 188.38,-236.25 128.38,-236.25"/>
<polygon fill="#666666" stroke="#666666" points="128.38,-221 128.38,-221 188.38,-221 188.38,-221 128.38,-221"/>
<polygon fill="none" stroke="#666666" points="128.38,-188.5 128.38,-253.5 188.38,-253.5 188.38,-188.5 128.38,-188.5"/>
</a>
</g>
</g>
<!-- Node3&#45;&gt;Node1 -->
<g id="edge2_Node000001_Node000003" class="edge">
<title>Node3&#45;&gt;Node1</title>
<g id="a_edge2_Node000001_Node000003"><a xlink:title=" ">
<path fill="none" stroke="#63b8ff" d="M147.31,-188.78C141.74,-173.07 134.74,-153.31 127.93,-134.11"/>
<polygon fill="none" stroke="#63b8ff" points="127.93,-134.1 122.15,-129.78 123.92,-122.79 129.69,-127.11 127.93,-134.1"/>
</a>
</g>
<text text-anchor="start" x="138.39" y="-144.75" font-family="Helvetica,sans-Serif" font-size="10.00" fill="grey">+m_next_exported_tile</text>
</g>
<!-- Node4 -->
<g id="Node000004" class="node">
<title>Node4</title>
<g id="a_Node000004"><a xlink:href="structTTL__shape.html" target="_top" xlink:title="Description of a Shape.">
<polygon fill="white" stroke="none" points="150.12,-415.5 76.62,-415.5 76.62,-320 150.12,-320 150.12,-415.5"/>
<text text-anchor="start" x="88.62" y="-402" font-family="Helvetica,sans-Serif" font-size="10.00">TTL_shape</text>
<text text-anchor="start" x="80.62" y="-386.75" font-family="Helvetica,sans-Serif" font-size="10.00">+</text>
<text text-anchor="start" x="90.62" y="-386.75" font-family="Helvetica,sans-Serif" font-size="10.00">width</text>
<text text-anchor="start" x="80.62" y="-371.5" font-family="Helvetica,sans-Serif" font-size="10.00">+</text>
<text text-anchor="start" x="90.62" y="-371.5" font-family="Helvetica,sans-Serif" font-size="10.00">height</text>
<text text-anchor="start" x="80.62" y="-356.25" font-family="Helvetica,sans-Serif" font-size="10.00">+</text>
<text text-anchor="start" x="90.62" y="-356.25" font-family="Helvetica,sans-Serif" font-size="10.00">depth</text>
<text text-anchor="start" x="80.62" y="-341" font-family="Helvetica,sans-Serif" font-size="10.00">+</text>
<text text-anchor="start" x="90.62" y="-341" font-family="Helvetica,sans-Serif" font-size="10.00">TTL_shape()</text>
<text text-anchor="start" x="80.62" y="-325.75" font-family="Helvetica,sans-Serif" font-size="10.00">+</text>
<text text-anchor="start" x="90.62" y="-325.75" font-family="Helvetica,sans-Serif" font-size="10.00">empty()</text>
<polygon fill="#666666" stroke="#666666" points="76.62,-398.25 76.62,-398.25 150.12,-398.25 150.12,-398.25 76.62,-398.25"/>
<polygon fill="#666666" stroke="#666666" points="76.62,-352.5 76.62,-352.5 88.62,-352.5 88.62,-352.5 76.62,-352.5"/>
<polygon fill="#666666" stroke="#666666" points="88.62,-352.5 88.62,-352.5 150.12,-352.5 150.12,-352.5 88.62,-352.5"/>
<polygon fill="none" stroke="#666666" points="76.62,-320 76.62,-415.5 150.12,-415.5 150.12,-320 76.62,-320"/>
</a>
</g>
</g>
<!-- Node4&#45;&gt;Node3 -->
<g id="edge3_Node000003_Node000004" class="edge">
<title>Node4&#45;&gt;Node3</title>
<g id="a_edge3_Node000003_Node000004"><a xlink:title=" ">
<path fill="none" stroke="#63b8ff" d="M127.86,-320.15C133.29,-302.68 139.44,-282.9 144.79,-265.7"/>
<polygon fill="none" stroke="#63b8ff" points="144.78,-265.74 142.74,-258.82 148.34,-254.28 150.38,-261.2 144.78,-265.74"/>
</a>
</g>
<text text-anchor="start" x="141.57" y="-289.5" font-family="Helvetica,sans-Serif" font-size="10.00" fill="grey">+shape</text>
</g>
<!-- Node5 -->
<g id="Node000005" class="node">
<title>Node5</title>
<g id="a_Node000005"><a xlink:href="structTTL__offset.html" target="_top" xlink:title="Description of the 3D offset of an object.">
<polygon fill="white" stroke="none" points="239,-407.88 167.75,-407.88 167.75,-327.62 239,-327.62 239,-407.88"/>
<text text-anchor="start" x="179.75" y="-394.38" font-family="Helvetica,sans-Serif" font-size="10.00">TTL_offset</text>
<text text-anchor="start" x="171.75" y="-379.12" font-family="Helvetica,sans-Serif" font-size="10.00">+</text>
<text text-anchor="start" x="181.75" y="-379.12" font-family="Helvetica,sans-Serif" font-size="10.00">x</text>
<text text-anchor="start" x="171.75" y="-363.88" font-family="Helvetica,sans-Serif" font-size="10.00">+</text>
<text text-anchor="start" x="181.75" y="-363.88" font-family="Helvetica,sans-Serif" font-size="10.00">y</text>
<text text-anchor="start" x="171.75" y="-348.62" font-family="Helvetica,sans-Serif" font-size="10.00">+</text>
<text text-anchor="start" x="181.75" y="-348.62" font-family="Helvetica,sans-Serif" font-size="10.00">z</text>
<text text-anchor="start" x="171.75" y="-333.38" font-family="Helvetica,sans-Serif" font-size="10.00">+</text>
<text text-anchor="start" x="181.75" y="-333.38" font-family="Helvetica,sans-Serif" font-size="10.00">TTL_offset()</text>
<polygon fill="#666666" stroke="#666666" points="167.75,-390.62 167.75,-390.62 239,-390.62 239,-390.62 167.75,-390.62"/>
<polygon fill="#666666" stroke="#666666" points="167.75,-344.88 167.75,-344.88 179.75,-344.88 179.75,-344.88 167.75,-344.88"/>
<polygon fill="#666666" stroke="#666666" points="179.75,-344.88 179.75,-344.88 239,-344.88 239,-344.88 179.75,-344.88"/>
<polygon fill="none" stroke="#666666" points="167.75,-327.62 167.75,-407.88 239,-407.88 239,-327.62 167.75,-327.62"/>
</a>
</g>
</g>
<!-- Node5&#45;&gt;Node3 -->
<g id="edge4_Node000003_Node000005" class="edge">
<title>Node5&#45;&gt;Node3</title>
<g id="a_edge4_Node000003_Node000005"><a xlink:title=" ">
<path fill="none" stroke="#63b8ff" d="M193,-327.81C189.21,-314.14 184.78,-298.71 180.38,-284.75 178.41,-278.51 176.23,-271.96 174.04,-265.54"/>
<polygon fill="none" stroke="#63b8ff" points="174.08,-265.66 168.33,-261.3 170.14,-254.32 175.89,-258.68 174.08,-265.66"/>
</a>
</g>
<text text-anchor="start" x="188.14" y="-289.5" font-family="Helvetica,sans-Serif" font-size="10.00" fill="grey">+offset</text>
</g>
</g>
</svg>
