<?xml version="1.0" encoding="UTF-8" standalone="no"?>
<!DOCTYPE svg PUBLIC "-//W3C//DTD SVG 1.1//EN"
 "http://www.w3.org/Graphics/SVG/1.1/DTD/svg11.dtd">
<!-- Generated by graphviz version 12.2.1 (20241206.2353)
 -->
<!-- Title: TTL_tiler_t Pages: 1 -->
<svg width="279pt" height="329pt"
 viewBox="0.00 0.00 278.88 328.50" xmlns="http://www.w3.org/2000/svg" xmlns:xlink="http://www.w3.org/1999/xlink">
<g id="graph0" class="graph" transform="scale(1 1) rotate(0) translate(4 324.5)">
<title>TTL_tiler_t</title>
<!-- Node1 -->
<g id="Node000001" class="node">
<title>Node1</title>
<g id="a_Node000001"><a xlink:title="TTL_tiler_t is the basic unit that describes how a tile is subdivided.">
<polygon fill="#999999" stroke="none" points="162.38,-126 75.38,-126 75.38,0 162.38,0 162.38,-126"/>
<text text-anchor="start" x="95.25" y="-112.5" font-family="Helvetica,sans-Serif" font-size="10.00">TTL_tiler_t</text>
<text text-anchor="start" x="79.38" y="-97.25" font-family="Helvetica,sans-Serif" font-size="10.00">+</text>
<text text-anchor="start" x="89.38" y="-97.25" font-family="Helvetica,sans-Serif" font-size="10.00">number_of_tiles</text>
<text text-anchor="start" x="79.38" y="-82" font-family="Helvetica,sans-Serif" font-size="10.00">+</text>
<text text-anchor="start" x="89.38" y="-82" font-family="Helvetica,sans-Serif" font-size="10.00">tiles_in_width</text>
<text text-anchor="start" x="79.38" y="-66.75" font-family="Helvetica,sans-Serif" font-size="10.00">+</text>
<text text-anchor="start" x="89.38" y="-66.75" font-family="Helvetica,sans-Serif" font-size="10.00">tiles_in_height</text>
<text text-anchor="start" x="79.38" y="-51.5" font-family="Helvetica,sans-Serif" font-size="10.00">+</text>
<text text-anchor="start" x="89.38" y="-51.5" font-family="Helvetica,sans-Serif" font-size="10.00">tiles_in_depth</text>
<text text-anchor="start" x="79.38" y="-36.25" font-family="Helvetica,sans-Serif" font-size="10.00">+</text>
<text text-anchor="start" x="89.38" y="-36.25" font-family="Helvetica,sans-Serif" font-size="10.00">tiles_in_plane</text>
<text text-anchor="start" x="79.38" y="-21" font-family="Helvetica,sans-Serif" font-size="10.00">+</text>
<text text-anchor="start" x="89.38" y="-21" font-family="Helvetica,sans-Serif" font-size="10.00">cache</text>
<text text-anchor="start" x="117.38" y="-5.75" font-family="Helvetica,sans-Serif" font-size="10.00"> </text>
<polygon fill="#666666" stroke="#666666" points="75.38,-108.75 75.38,-108.75 162.38,-108.75 162.38,-108.75 75.38,-108.75"/>
<polygon fill="#666666" stroke="#666666" points="75.38,-17.25 75.38,-17.25 87.38,-17.25 87.38,-17.25 75.38,-17.25"/>
<polygon fill="#666666" stroke="#666666" points="87.38,-17.25 87.38,-17.25 162.38,-17.25 162.38,-17.25 87.38,-17.25"/>
<polygon fill="none" stroke="#666666" points="75.38,0 75.38,-126 162.38,-126 162.38,0 75.38,0"/>
</a>
</g>
</g>
<!-- Node2 -->
<g id="Node000002" class="node">
<title>Node2</title>
<g id="a_Node000002"><a xlink:href="structTTL__shape__t.html" target="_top" xlink:title="Description of a Shape.">
<polygon fill="white" stroke="none" points="65.75,-297.62 0,-297.62 0,-217.38 65.75,-217.38 65.75,-297.62"/>
<text text-anchor="start" x="4" y="-284.12" font-family="Helvetica,sans-Serif" font-size="10.00">TTL_shape_t</text>
<text text-anchor="start" x="9.38" y="-268.88" font-family="Helvetica,sans-Serif" font-size="10.00">+</text>
<text text-anchor="start" x="24.75" y="-268.88" font-family="Helvetica,sans-Serif" font-size="10.00">width</text>
<text text-anchor="start" x="9.38" y="-253.62" font-family="Helvetica,sans-Serif" font-size="10.00">+</text>
<text text-anchor="start" x="24.75" y="-253.62" font-family="Helvetica,sans-Serif" font-size="10.00">height</text>
<text text-anchor="start" x="9.38" y="-238.38" font-family="Helvetica,sans-Serif" font-size="10.00">+</text>
<text text-anchor="start" x="24.75" y="-238.38" font-family="Helvetica,sans-Serif" font-size="10.00">depth</text>
<text text-anchor="start" x="31.38" y="-223.12" font-family="Helvetica,sans-Serif" font-size="10.00"> </text>
<polygon fill="#666666" stroke="#666666" points="0,-280.38 0,-280.38 65.75,-280.38 65.75,-280.38 0,-280.38"/>
<polygon fill="#666666" stroke="#666666" points="0,-234.62 0,-234.62 22.75,-234.62 22.75,-234.62 0,-234.62"/>
<polygon fill="#666666" stroke="#666666" points="22.75,-234.62 22.75,-234.62 65.75,-234.62 65.75,-234.62 22.75,-234.62"/>
<polygon fill="none" stroke="#666666" points="0,-217.38 0,-297.62 65.75,-297.62 65.75,-217.38 0,-217.38"/>
</a>
</g>
</g>
<!-- Node2&#45;&gt;Node1 -->
<g id="edge1_Node000001_Node000002" class="edge">
<title>Node2&#45;&gt;Node1</title>
<g id="a_edge1_Node000001_Node000002"><a xlink:title=" ">
<path fill="none" stroke="#63b8ff" d="M46.78,-217.51C54.89,-195.65 65.66,-168.02 76.62,-144 77.65,-141.75 78.71,-139.47 79.8,-137.18"/>
<polygon fill="none" stroke="#63b8ff" points="79.76,-137.27 78.79,-130.12 85.01,-126.48 85.98,-133.62 79.76,-137.27"/>
</a>
</g>
<text text-anchor="start" x="79.62" y="-164" font-family="Helvetica,sans-Serif" font-size="10.00" fill="grey">+space</text>
<text text-anchor="start" x="79.62" y="-148.75" font-family="Helvetica,sans-Serif" font-size="10.00" fill="grey">+tile</text>
</g>
<!-- Node3 -->
<g id="Node000003" class="node">
<title>Node3</title>
<g id="a_Node000003"><a xlink:href="structTTL__overlap__t.html" target="_top" xlink:title="Description of the overlap in 3D space of adjacent tiles.">
<polygon fill="white" stroke="none" points="154.38,-297.62 83.38,-297.62 83.38,-217.38 154.38,-217.38 154.38,-297.62"/>
<text text-anchor="start" x="87.38" y="-284.12" font-family="Helvetica,sans-Serif" font-size="10.00">TTL_overlap_t</text>
<text text-anchor="start" x="94.06" y="-268.88" font-family="Helvetica,sans-Serif" font-size="10.00">+</text>
<text text-anchor="start" x="110.75" y="-268.88" font-family="Helvetica,sans-Serif" font-size="10.00">width</text>
<text text-anchor="start" x="94.06" y="-253.62" font-family="Helvetica,sans-Serif" font-size="10.00">+</text>
<text text-anchor="start" x="110.75" y="-253.62" font-family="Helvetica,sans-Serif" font-size="10.00">height</text>
<text text-anchor="start" x="94.06" y="-238.38" font-family="Helvetica,sans-Serif" font-size="10.00">+</text>
<text text-anchor="start" x="110.75" y="-238.38" font-family="Helvetica,sans-Serif" font-size="10.00">depth</text>
<text text-anchor="start" x="117.38" y="-223.12" font-family="Helvetica,sans-Serif" font-size="10.00"> </text>
<polygon fill="#666666" stroke="#666666" points="83.38,-280.38 83.38,-280.38 154.38,-280.38 154.38,-280.38 83.38,-280.38"/>
<polygon fill="#666666" stroke="#666666" points="83.38,-234.62 83.38,-234.62 108.75,-234.62 108.75,-234.62 83.38,-234.62"/>
<polygon fill="#666666" stroke="#666666" points="108.75,-234.62 108.75,-234.62 154.38,-234.62 154.38,-234.62 108.75,-234.62"/>
<polygon fill="none" stroke="#666666" points="83.38,-217.38 83.38,-297.62 154.38,-297.62 154.38,-217.38 83.38,-217.38"/>
</a>
</g>
</g>
<!-- Node3&#45;&gt;Node1 -->
<g id="edge2_Node000001_Node000003" class="edge">
<title>Node3&#45;&gt;Node1</title>
<g id="a_edge2_Node000001_Node000003"><a xlink:title=" ">
<path fill="none" stroke="#63b8ff" d="M118.88,-217.54C118.88,-194.89 118.88,-165.57 118.88,-138.63"/>
<polygon fill="none" stroke="#63b8ff" points="118.88,-138.54 114.88,-132.54 118.88,-126.54 122.88,-132.54 118.88,-138.54"/>
</a>
</g>
<text text-anchor="start" x="121.88" y="-156.38" font-family="Helvetica,sans-Serif" font-size="10.00" fill="grey">+overlap</text>
</g>
<!-- Node4 -->
<g id="Node000004" class="node">
<title>Node4</title>
<g id="a_Node000004"><a xlink:href="structTTL__augmentation__t.html" target="_top" xlink:title="3D description of the augmented margins">
<polygon fill="white" stroke="none" points="270.88,-320.5 172.88,-320.5 172.88,-194.5 270.88,-194.5 270.88,-320.5"/>
<text text-anchor="start" x="176.88" y="-307" font-family="Helvetica,sans-Serif" font-size="10.00">TTL_augmentation_t</text>
<text text-anchor="start" x="189.38" y="-291.75" font-family="Helvetica,sans-Serif" font-size="10.00">+</text>
<text text-anchor="start" x="211.88" y="-291.75" font-family="Helvetica,sans-Serif" font-size="10.00">left</text>
<text text-anchor="start" x="189.38" y="-276.5" font-family="Helvetica,sans-Serif" font-size="10.00">+</text>
<text text-anchor="start" x="211.88" y="-276.5" font-family="Helvetica,sans-Serif" font-size="10.00">right</text>
<text text-anchor="start" x="189.38" y="-261.25" font-family="Helvetica,sans-Serif" font-size="10.00">+</text>
<text text-anchor="start" x="211.88" y="-261.25" font-family="Helvetica,sans-Serif" font-size="10.00">top</text>
<text text-anchor="start" x="189.38" y="-246" font-family="Helvetica,sans-Serif" font-size="10.00">+</text>
<text text-anchor="start" x="211.88" y="-246" font-family="Helvetica,sans-Serif" font-size="10.00">bottom</text>
<text text-anchor="start" x="189.38" y="-230.75" font-family="Helvetica,sans-Serif" font-size="10.00">+</text>
<text text-anchor="start" x="211.88" y="-230.75" font-family="Helvetica,sans-Serif" font-size="10.00">front</text>
<text text-anchor="start" x="189.38" y="-215.5" font-family="Helvetica,sans-Serif" font-size="10.00">+</text>
<text text-anchor="start" x="211.88" y="-215.5" font-family="Helvetica,sans-Serif" font-size="10.00">back</text>
<text text-anchor="start" x="220.38" y="-200.25" font-family="Helvetica,sans-Serif" font-size="10.00"> </text>
<polygon fill="#666666" stroke="#666666" points="172.88,-303.25 172.88,-303.25 270.88,-303.25 270.88,-303.25 172.88,-303.25"/>
<polygon fill="#666666" stroke="#666666" points="172.88,-211.75 172.88,-211.75 209.88,-211.75 209.88,-211.75 172.88,-211.75"/>
<polygon fill="#666666" stroke="#666666" points="209.88,-211.75 209.88,-211.75 270.88,-211.75 270.88,-211.75 209.88,-211.75"/>
<polygon fill="none" stroke="#666666" points="172.88,-194.5 172.88,-320.5 270.88,-320.5 270.88,-194.5 172.88,-194.5"/>
</a>
</g>
</g>
<!-- Node4&#45;&gt;Node1 -->
<g id="edge3_Node000001_Node000004" class="edge">
<title>Node4&#45;&gt;Node1</title>
<g id="a_edge3_Node000001_Node000004"><a xlink:title=" ">
<path fill="none" stroke="#63b8ff" d="M192.84,-194.71C184.72,-178.1 175.7,-160.24 166.88,-144 165.61,-141.66 164.3,-139.3 162.98,-136.92"/>
<polygon fill="none" stroke="#63b8ff" points="162.98,-136.93 156.54,-133.69 157.06,-126.5 163.5,-129.74 162.98,-136.93"/>
</a>
</g>
<text text-anchor="start" x="185.8" y="-156.38" font-family="Helvetica,sans-Serif" font-size="10.00" fill="grey">+augmentation</text>
</g>
</g>
</svg>
