<?xml version="1.0" encoding="UTF-8" standalone="no"?>
<!DOCTYPE svg PUBLIC "-//W3C//DTD SVG 1.1//EN"
 "http://www.w3.org/Graphics/SVG/1.1/DTD/svg11.dtd">
<!-- Generated by graphviz version 12.2.1 (20241206.2353)
 -->
<!-- Title: TTL_simplex_const_char_tensor_buffering_t Pages: 1 -->
<svg width="471pt" height="500pt"
 viewBox="0.00 0.00 470.69 500.00" xmlns="http://www.w3.org/2000/svg" xmlns:xlink="http://www.w3.org/1999/xlink">
<g id="graph0" class="graph" transform="scale(1 1) rotate(0) translate(4 496)">
<title>TTL_simplex_const_char_tensor_buffering_t</title>
<!-- Node1 -->
<g id="Node000001" class="node">
<title>Node1</title>
<g id="a_Node000001"><a xlink:title=" ">
<polygon fill="#999999" stroke="none" points="327,-122 209.5,-122 209.5,0 327,0 327,-122"/>
<text text-anchor="start" x="213.5" y="-108.5" font-family="Helvetica,sans-Serif" font-size="10.00">TTL_simplex_const_char</text>
<text text-anchor="start" x="227" y="-97.25" font-family="Helvetica,sans-Serif" font-size="10.00">_tensor_buffering_t</text>
<text text-anchor="start" x="227.69" y="-82" font-family="Helvetica,sans-Serif" font-size="10.00">+</text>
<text text-anchor="start" x="251.88" y="-82" font-family="Helvetica,sans-Serif" font-size="10.00">index</text>
<text text-anchor="start" x="227.69" y="-66.75" font-family="Helvetica,sans-Serif" font-size="10.00">+</text>
<text text-anchor="start" x="251.88" y="-66.75" font-family="Helvetica,sans-Serif" font-size="10.00">int_base</text>
<text text-anchor="start" x="227.69" y="-51.5" font-family="Helvetica,sans-Serif" font-size="10.00">+</text>
<text text-anchor="start" x="251.88" y="-51.5" font-family="Helvetica,sans-Serif" font-size="10.00">common</text>
<text text-anchor="start" x="227.69" y="-36.25" font-family="Helvetica,sans-Serif" font-size="10.00">+</text>
<text text-anchor="start" x="251.88" y="-36.25" font-family="Helvetica,sans-Serif" font-size="10.00">event_in</text>
<text text-anchor="start" x="227.69" y="-21" font-family="Helvetica,sans-Serif" font-size="10.00">+</text>
<text text-anchor="start" x="251.88" y="-21" font-family="Helvetica,sans-Serif" font-size="10.00">event_out</text>
<text text-anchor="start" x="266.75" y="-5.75" font-family="Helvetica,sans-Serif" font-size="10.00"> </text>
<polygon fill="#666666" stroke="#666666" points="209.5,-93.5 209.5,-93.5 327,-93.5 327,-93.5 209.5,-93.5"/>
<polygon fill="#666666" stroke="#666666" points="209.5,-17.25 209.5,-17.25 249.88,-17.25 249.88,-17.25 209.5,-17.25"/>
<polygon fill="#666666" stroke="#666666" points="249.88,-17.25 249.88,-17.25 327,-17.25 327,-17.25 249.88,-17.25"/>
<polygon fill="none" stroke="#666666" points="209.5,0 209.5,-122 327,-122 327,0 209.5,0"/>
</a>
</g>
</g>
<!-- Node2 -->
<g id="Node000002" class="node">
<title>Node2</title>
<g id="a_Node000002"><a xlink:href="structTTL__ext__char__tensor__t.html" target="_top" xlink:title="const and non&#45;const tensors in the appropriate address space">
<polygon fill="white" stroke="none" points="108.5,-350.88 0,-350.88 0,-285.88 108.5,-285.88 108.5,-350.88"/>
<text text-anchor="start" x="4" y="-337.38" font-family="Helvetica,sans-Serif" font-size="10.00">TTL_ext_char_tensor_t</text>
<text text-anchor="start" x="15.75" y="-322.12" font-family="Helvetica,sans-Serif" font-size="10.00">+</text>
<text text-anchor="start" x="37.5" y="-322.12" font-family="Helvetica,sans-Serif" font-size="10.00">base</text>
<text text-anchor="start" x="15.75" y="-306.88" font-family="Helvetica,sans-Serif" font-size="10.00">+</text>
<text text-anchor="start" x="37.5" y="-306.88" font-family="Helvetica,sans-Serif" font-size="10.00">elem_size</text>
<text text-anchor="start" x="52.75" y="-291.62" font-family="Helvetica,sans-Serif" font-size="10.00"> </text>
<polygon fill="#666666" stroke="#666666" points="0,-333.62 0,-333.62 108.5,-333.62 108.5,-333.62 0,-333.62"/>
<polygon fill="#666666" stroke="#666666" points="0,-303.12 0,-303.12 35.5,-303.12 35.5,-303.12 0,-303.12"/>
<polygon fill="#666666" stroke="#666666" points="35.5,-303.12 35.5,-303.12 108.5,-303.12 108.5,-303.12 35.5,-303.12"/>
<polygon fill="none" stroke="#666666" points="0,-285.88 0,-350.88 108.5,-350.88 108.5,-285.88 0,-285.88"/>
</a>
</g>
</g>
<!-- Node2&#45;&gt;Node1 -->
<g id="edge1_Node000001_Node000002" class="edge">
<title>Node2&#45;&gt;Node1</title>
<g id="a_edge1_Node000001_Node000002"><a xlink:title=" ">
<path fill="none" stroke="#63b8ff" d="M63.63,-286.14C73.88,-255.61 92.52,-208.95 119.5,-175.25 141.53,-147.74 171.63,-123.19 199,-104.04"/>
<polygon fill="none" stroke="#63b8ff" points="199.08,-103.99 201.77,-97.3 208.98,-97.22 206.29,-103.91 199.08,-103.99"/>
</a>
</g>
<text text-anchor="start" x="122.5" y="-203.88" font-family="Helvetica,sans-Serif" font-size="10.00" fill="grey">+ext_tensor_in</text>
<text text-anchor="start" x="122.5" y="-188.62" font-family="Helvetica,sans-Serif" font-size="10.00" fill="grey">+ext_tensor_out</text>
</g>
<!-- Node3 -->
<g id="Node000003" class="node">
<title>Node3</title>
<g id="a_Node000003"><a xlink:href="structTTL__layout__t.html" target="_top" xlink:title="Description of a Tensor layout in memory.">
<polygon fill="white" stroke="none" points="144.38,-484.38 64.12,-484.38 64.12,-419.38 144.38,-419.38 144.38,-484.38"/>
<text text-anchor="start" x="75.75" y="-470.88" font-family="Helvetica,sans-Serif" font-size="10.00">TTL_layout_t</text>
<text text-anchor="start" x="68.12" y="-455.62" font-family="Helvetica,sans-Serif" font-size="10.00">+</text>
<text text-anchor="start" x="78.12" y="-455.62" font-family="Helvetica,sans-Serif" font-size="10.00">row_spacing</text>
<text text-anchor="start" x="68.12" y="-440.38" font-family="Helvetica,sans-Serif" font-size="10.00">+</text>
<text text-anchor="start" x="78.12" y="-440.38" font-family="Helvetica,sans-Serif" font-size="10.00">plane_spacing</text>
<text text-anchor="start" x="102.75" y="-425.12" font-family="Helvetica,sans-Serif" font-size="10.00"> </text>
<polygon fill="#666666" stroke="#666666" points="64.12,-467.12 64.12,-467.12 144.38,-467.12 144.38,-467.12 64.12,-467.12"/>
<polygon fill="#666666" stroke="#666666" points="64.12,-436.62 64.12,-436.62 76.12,-436.62 76.12,-436.62 64.12,-436.62"/>
<polygon fill="#666666" stroke="#666666" points="76.12,-436.62 76.12,-436.62 144.38,-436.62 144.38,-436.62 76.12,-436.62"/>
<polygon fill="none" stroke="#666666" points="64.12,-419.38 64.12,-484.38 144.38,-484.38 144.38,-419.38 64.12,-419.38"/>
</a>
</g>
</g>
<!-- Node3&#45;&gt;Node2 -->
<g id="edge2_Node000002_Node000003" class="edge">
<title>Node3&#45;&gt;Node2</title>
<g id="a_edge2_Node000002_Node000003"><a xlink:title=" ">
<path fill="none" stroke="#63b8ff" d="M64.43,-428.38C52.28,-419.32 40.39,-407.69 33.75,-393.75 29.16,-384.12 29.41,-373.29 31.93,-362.93"/>
<polygon fill="none" stroke="#63b8ff" points="31.94,-362.9 30.01,-355.96 35.68,-351.5 37.61,-358.45 31.94,-362.9"/>
</a>
</g>
<text text-anchor="start" x="36.75" y="-381.25" font-family="Helvetica,sans-Serif" font-size="10.00" fill="grey">+layout</text>
</g>
<!-- Node8 -->
<g id="Node000008" class="node">
<title>Node8</title>
<g id="a_Node000008"><a xlink:href="structTTL__int__char__tensor__t.html" target="_top" xlink:title="const and non&#45;const tensors in the appropriate address space">
<polygon fill="white" stroke="none" points="232.38,-350.88 126.12,-350.88 126.12,-285.88 232.38,-285.88 232.38,-350.88"/>
<text text-anchor="start" x="130.12" y="-337.38" font-family="Helvetica,sans-Serif" font-size="10.00">TTL_int_char_tensor_t</text>
<text text-anchor="start" x="141.31" y="-322.12" font-family="Helvetica,sans-Serif" font-size="10.00">+</text>
<text text-anchor="start" x="162.5" y="-322.12" font-family="Helvetica,sans-Serif" font-size="10.00">base</text>
<text text-anchor="start" x="141.31" y="-306.88" font-family="Helvetica,sans-Serif" font-size="10.00">+</text>
<text text-anchor="start" x="162.5" y="-306.88" font-family="Helvetica,sans-Serif" font-size="10.00">elem_size</text>
<text text-anchor="start" x="177.75" y="-291.62" font-family="Helvetica,sans-Serif" font-size="10.00"> </text>
<polygon fill="#666666" stroke="#666666" points="126.12,-333.62 126.12,-333.62 232.38,-333.62 232.38,-333.62 126.12,-333.62"/>
<polygon fill="#666666" stroke="#666666" points="126.12,-303.12 126.12,-303.12 160.5,-303.12 160.5,-303.12 126.12,-303.12"/>
<polygon fill="#666666" stroke="#666666" points="160.5,-303.12 160.5,-303.12 232.38,-303.12 232.38,-303.12 160.5,-303.12"/>
<polygon fill="none" stroke="#666666" points="126.12,-285.88 126.12,-350.88 232.38,-350.88 232.38,-285.88 126.12,-285.88"/>
</a>
</g>
</g>
<!-- Node3&#45;&gt;Node8 -->
<g id="edge9_Node000008_Node000003" class="edge">
<title>Node3&#45;&gt;Node8</title>
<g id="a_edge9_Node000008_Node000003"><a xlink:title=" ">
<path fill="none" stroke="#63b8ff" d="M122.21,-419.38C132.05,-402.14 144.37,-380.54 155.04,-361.83"/>
<polygon fill="none" stroke="#63b8ff" points="155.04,-361.82 154.54,-354.63 160.99,-351.4 161.49,-358.59 155.04,-361.82"/>
</a>
</g>
<text text-anchor="start" x="149.24" y="-381.25" font-family="Helvetica,sans-Serif" font-size="10.00" fill="grey">+layout</text>
</g>
<!-- Node4 -->
<g id="Node000004" class="node">
<title>Node4</title>
<g id="a_Node000004"><a xlink:href="structTTL__shape__t.html" target="_top" xlink:title="Description of a Shape.">
<polygon fill="white" stroke="none" points="274.12,-492 208.38,-492 208.38,-411.75 274.12,-411.75 274.12,-492"/>
<text text-anchor="start" x="212.38" y="-478.5" font-family="Helvetica,sans-Serif" font-size="10.00">TTL_shape_t</text>
<text text-anchor="start" x="217.75" y="-463.25" font-family="Helvetica,sans-Serif" font-size="10.00">+</text>
<text text-anchor="start" x="233.12" y="-463.25" font-family="Helvetica,sans-Serif" font-size="10.00">width</text>
<text text-anchor="start" x="217.75" y="-448" font-family="Helvetica,sans-Serif" font-size="10.00">+</text>
<text text-anchor="start" x="233.12" y="-448" font-family="Helvetica,sans-Serif" font-size="10.00">height</text>
<text text-anchor="start" x="217.75" y="-432.75" font-family="Helvetica,sans-Serif" font-size="10.00">+</text>
<text text-anchor="start" x="233.12" y="-432.75" font-family="Helvetica,sans-Serif" font-size="10.00">depth</text>
<text text-anchor="start" x="239.75" y="-417.5" font-family="Helvetica,sans-Serif" font-size="10.00"> </text>
<polygon fill="#666666" stroke="#666666" points="208.38,-474.75 208.38,-474.75 274.12,-474.75 274.12,-474.75 208.38,-474.75"/>
<polygon fill="#666666" stroke="#666666" points="208.38,-429 208.38,-429 231.12,-429 231.12,-429 208.38,-429"/>
<polygon fill="#666666" stroke="#666666" points="231.12,-429 231.12,-429 274.12,-429 274.12,-429 231.12,-429"/>
<polygon fill="none" stroke="#666666" points="208.38,-411.75 208.38,-492 274.12,-492 274.12,-411.75 208.38,-411.75"/>
</a>
</g>
</g>
<!-- Node4&#45;&gt;Node2 -->
<g id="edge3_Node000002_Node000004" class="edge">
<title>Node4&#45;&gt;Node2</title>
<g id="a_edge3_Node000002_Node000004"><a xlink:title=" ">
<path fill="none" stroke="#63b8ff" d="M208.62,-435.26C192.2,-427.69 171.88,-418.74 153.25,-411.75 127.88,-402.23 115.99,-410.89 95,-393.75 84.74,-385.37 76.65,-373.69 70.48,-362.07"/>
<polygon fill="none" stroke="#63b8ff" points="70.55,-362.2 64.34,-358.54 65.34,-351.4 71.55,-355.06 70.55,-362.2"/>
</a>
</g>
<text text-anchor="start" x="98" y="-381.25" font-family="Helvetica,sans-Serif" font-size="10.00" fill="grey">+shape</text>
</g>
<!-- Node5 -->
<g id="Node000005" class="node">
<title>Node5</title>
<g id="a_Node000005"><a xlink:href="structTTL__tile__t.html" target="_top" xlink:title=" ">
<polygon fill="white" stroke="none" points="407.38,-225 355.12,-225 355.12,-175.25 407.38,-175.25 407.38,-225"/>
<text text-anchor="start" x="359.12" y="-211.5" font-family="Helvetica,sans-Serif" font-size="10.00">TTL_tile_t</text>
<text text-anchor="start" x="379.75" y="-196.25" font-family="Helvetica,sans-Serif" font-size="10.00"> </text>
<text text-anchor="start" x="379.75" y="-181" font-family="Helvetica,sans-Serif" font-size="10.00"> </text>
<polygon fill="#666666" stroke="#666666" points="355.12,-207.75 355.12,-207.75 407.38,-207.75 407.38,-207.75 355.12,-207.75"/>
<polygon fill="#666666" stroke="#666666" points="355.12,-192.5 355.12,-192.5 407.38,-192.5 407.38,-192.5 355.12,-192.5"/>
<polygon fill="none" stroke="#666666" points="355.12,-175.25 355.12,-225 407.38,-225 407.38,-175.25 355.12,-175.25"/>
</a>
</g>
</g>
<!-- Node4&#45;&gt;Node5 -->
<g id="edge5_Node000005_Node000004" class="edge">
<title>Node4&#45;&gt;Node5</title>
<g id="a_edge5_Node000005_Node000004"><a xlink:title=" ">
<path fill="none" stroke="#63b8ff" d="M274.1,-441.68C311.55,-429.33 371.43,-403.58 401.25,-358.5 429.72,-315.45 429.79,-291.89 413.25,-243 412.44,-240.59 411.42,-238.22 410.26,-235.89"/>
<polygon fill="none" stroke="#63b8ff" points="410.21,-235.81 403.67,-232.78 403.95,-225.57 410.5,-228.6 410.21,-235.81"/>
</a>
</g>
<text text-anchor="start" x="427.44" y="-314.5" font-family="Helvetica,sans-Serif" font-size="10.00" fill="grey">+shape</text>
</g>
<!-- Node7 -->
<g id="Node000007" class="node">
<title>Node7</title>
<g id="a_Node000007"><a xlink:href="structTTL__int__char__sub__tensor__t.html" target="_top" xlink:title="const and non&#45;const sub tensors in the appropriate address space">
<polygon fill="white" stroke="none" points="331.88,-225 204.62,-225 204.62,-175.25 331.88,-175.25 331.88,-225"/>
<text text-anchor="start" x="208.62" y="-211.5" font-family="Helvetica,sans-Serif" font-size="10.00">TTL_int_char_sub_tensor_t</text>
<text text-anchor="start" x="230.12" y="-196.25" font-family="Helvetica,sans-Serif" font-size="10.00">+</text>
<text text-anchor="start" x="261.62" y="-196.25" font-family="Helvetica,sans-Serif" font-size="10.00">origin</text>
<text text-anchor="start" x="266.75" y="-181" font-family="Helvetica,sans-Serif" font-size="10.00"> </text>
<polygon fill="#666666" stroke="#666666" points="204.62,-207.75 204.62,-207.75 331.88,-207.75 331.88,-207.75 204.62,-207.75"/>
<polygon fill="#666666" stroke="#666666" points="204.62,-192.5 204.62,-192.5 259.62,-192.5 259.62,-192.5 204.62,-192.5"/>
<polygon fill="#666666" stroke="#666666" points="259.62,-192.5 259.62,-192.5 331.88,-192.5 331.88,-192.5 259.62,-192.5"/>
<polygon fill="none" stroke="#666666" points="204.62,-175.25 204.62,-225 331.88,-225 331.88,-175.25 204.62,-175.25"/>
</a>
</g>
</g>
<!-- Node4&#45;&gt;Node7 -->
<g id="edge11_Node000007_Node000004" class="edge">
<title>Node4&#45;&gt;Node7</title>
<g id="a_edge11_Node000007_Node000004"><a xlink:title=" ">
<path fill="none" stroke="#63b8ff" d="M250.92,-412C252.2,-405.92 253.36,-399.69 254.25,-393.75 262.29,-339.88 265.76,-276.81 267.23,-237.91"/>
<polygon fill="none" stroke="#63b8ff" points="267.23,-237.87 263.44,-231.74 267.64,-225.88 271.43,-232.01 267.23,-237.87"/>
</a>
</g>
<text text-anchor="start" x="268.3" y="-314.5" font-family="Helvetica,sans-Serif" font-size="10.00" fill="grey">+shape</text>
</g>
<!-- Node4&#45;&gt;Node8 -->
<g id="edge10_Node000008_Node000004" class="edge">
<title>Node4&#45;&gt;Node8</title>
<g id="a_edge10_Node000008_Node000004"><a xlink:title=" ">
<path fill="none" stroke="#63b8ff" d="M222.82,-411.78C215.48,-396.21 207.01,-378.25 199.5,-362.32"/>
<polygon fill="none" stroke="#63b8ff" points="199.48,-362.28 193.3,-358.56 194.36,-351.43 200.54,-355.15 199.48,-362.28"/>
</a>
</g>
<text text-anchor="start" x="216.96" y="-381.25" font-family="Helvetica,sans-Serif" font-size="10.00" fill="grey">+shape</text>
</g>
<!-- Node5&#45;&gt;Node1 -->
<g id="edge4_Node000001_Node000005" class="edge">
<title>Node5&#45;&gt;Node1</title>
<g id="a_edge4_Node000001_Node000005"><a xlink:title=" ">
<path fill="none" stroke="#63b8ff" d="M374.93,-175.37C371.21,-164.02 365.74,-150.62 358.25,-140 351.85,-130.91 344.16,-122.2 336.02,-114.11"/>
<polygon fill="none" stroke="#63b8ff" points="336.04,-114.13 328.93,-112.9 327.33,-105.87 334.43,-107.1 336.04,-114.13"/>
</a>
</g>
<text text-anchor="start" x="370.62" y="-144.75" font-family="Helvetica,sans-Serif" font-size="10.00" fill="grey">+next_exported_tile</text>
</g>
<!-- Node6 -->
<g id="Node000006" class="node">
<title>Node6</title>
<g id="a_Node000006"><a xlink:href="structTTL__offset__t.html" target="_top" xlink:title="Description of the 3D offset of an object.">
<polygon fill="white" stroke="none" points="392,-358.5 328.5,-358.5 328.5,-278.25 392,-278.25 392,-358.5"/>
<text text-anchor="start" x="332.5" y="-345" font-family="Helvetica,sans-Serif" font-size="10.00">TTL_offset_t</text>
<text text-anchor="start" x="342.75" y="-329.75" font-family="Helvetica,sans-Serif" font-size="10.00">+</text>
<text text-anchor="start" x="363" y="-329.75" font-family="Helvetica,sans-Serif" font-size="10.00">x</text>
<text text-anchor="start" x="342.75" y="-314.5" font-family="Helvetica,sans-Serif" font-size="10.00">+</text>
<text text-anchor="start" x="363" y="-314.5" font-family="Helvetica,sans-Serif" font-size="10.00">y</text>
<text text-anchor="start" x="342.75" y="-299.25" font-family="Helvetica,sans-Serif" font-size="10.00">+</text>
<text text-anchor="start" x="363" y="-299.25" font-family="Helvetica,sans-Serif" font-size="10.00">z</text>
<text text-anchor="start" x="358.75" y="-284" font-family="Helvetica,sans-Serif" font-size="10.00"> </text>
<polygon fill="#666666" stroke="#666666" points="328.5,-341.25 328.5,-341.25 392,-341.25 392,-341.25 328.5,-341.25"/>
<polygon fill="#666666" stroke="#666666" points="328.5,-295.5 328.5,-295.5 361,-295.5 361,-295.5 328.5,-295.5"/>
<polygon fill="#666666" stroke="#666666" points="361,-295.5 361,-295.5 392,-295.5 392,-295.5 361,-295.5"/>
<polygon fill="none" stroke="#666666" points="328.5,-278.25 328.5,-358.5 392,-358.5 392,-278.25 328.5,-278.25"/>
</a>
</g>
</g>
<!-- Node6&#45;&gt;Node5 -->
<g id="edge6_Node000005_Node000006" class="edge">
<title>Node6&#45;&gt;Node5</title>
<g id="a_edge6_Node000005_Node000006"><a xlink:title=" ">
<path fill="none" stroke="#63b8ff" d="M367.3,-278.34C369.67,-265.22 372.3,-250.64 374.64,-237.72"/>
<polygon fill="none" stroke="#63b8ff" points="374.65,-237.67 371.78,-231.06 376.78,-225.86 379.65,-232.48 374.65,-237.67"/>
</a>
</g>
<text text-anchor="start" x="376.25" y="-247.75" font-family="Helvetica,sans-Serif" font-size="10.00" fill="grey">+offset</text>
</g>
<!-- Node6&#45;&gt;Node7 -->
<g id="edge12_Node000007_Node000006" class="edge">
<title>Node6&#45;&gt;Node7</title>
<g id="a_edge12_Node000007_Node000006"><a xlink:title=" ">
<path fill="none" stroke="#63b8ff" d="M328.74,-282.5C322.48,-275.26 316.05,-267.59 310.25,-260.25 304.01,-252.35 297.57,-243.61 291.67,-235.34"/>
<polygon fill="none" stroke="#63b8ff" points="291.7,-235.38 284.97,-232.78 284.79,-225.57 291.52,-228.17 291.7,-235.38"/>
</a>
</g>
<text text-anchor="start" x="313.25" y="-247.75" font-family="Helvetica,sans-Serif" font-size="10.00" fill="grey">+sub_offset</text>
</g>
<!-- Node7&#45;&gt;Node1 -->
<g id="edge7_Node000001_Node000007" class="edge">
<title>Node7&#45;&gt;Node1</title>
<g id="a_edge7_Node000001_Node000007"><a xlink:title=" ">
<path fill="none" stroke="#63b8ff" d="M268.25,-175.55C268.25,-164.06 268.25,-149.55 268.25,-134.78"/>
<polygon fill="none" stroke="#63b8ff" points="268.25,-134.71 264.25,-128.71 268.25,-122.71 272.25,-128.71 268.25,-134.71"/>
</a>
</g>
<text text-anchor="start" x="271.25" y="-144.75" font-family="Helvetica,sans-Serif" font-size="10.00" fill="grey">+int_prev_imported</text>
</g>
<!-- Node8&#45;&gt;Node7 -->
<g id="edge8_Node000007_Node000008" class="edge">
<title>Node8&#45;&gt;Node7</title>
<g id="a_edge8_Node000007_Node000008"><a xlink:title=" ">
<path fill="none" stroke="#63b8ff" d="M190.74,-285.88C196.75,-271.9 205.01,-255.75 215.25,-243 217.86,-239.75 220.76,-236.6 223.83,-233.58"/>
<polygon fill="none" stroke="#63b8ff" points="223.81,-233.6 225.58,-226.61 232.72,-225.56 230.94,-232.55 223.81,-233.6"/>
</a>
</g>
<text text-anchor="start" x="218.25" y="-247.75" font-family="Helvetica,sans-Serif" font-size="10.00" fill="grey">+tensor</text>
</g>
</g>
</svg>
