<?xml version="1.0" encoding="UTF-8" standalone="no"?>
<!DOCTYPE svg PUBLIC "-//W3C//DTD SVG 1.1//EN"
 "http://www.w3.org/Graphics/SVG/1.1/DTD/svg11.dtd">
<!-- Generated by graphviz version 12.2.1 (20241206.2353)
 -->
<!-- Title: TTL_sub_tensor&lt; TENSORTYPE &gt; Pages: 1 -->
<svg width="175pt" height="428pt"
 viewBox="0.00 0.00 175.01 427.50" xmlns="http://www.w3.org/2000/svg" xmlns:xlink="http://www.w3.org/1999/xlink">
<g id="graph0" class="graph" transform="scale(1 1) rotate(0) translate(4 423.5)">
<title>TTL_sub_tensor&lt; TENSORTYPE &gt;</title>
<!-- Node1 -->
<g id="Node000001" class="node">
<title>Node1</title>
<g id="a_Node000001"><a xlink:title="A tensor plus its reference to its parent tensor.">
<polygon fill="#999999" stroke="none" points="162.62,-156.5 0.88,-156.5 0.88,0 162.62,0 162.62,-156.5"/>
<text text-anchor="start" x="4.88" y="-143" font-family="Helvetica,sans-Serif" font-size="10.00">TTL_sub_tensor&lt; TENSORTYPE &gt;</text>
<text text-anchor="start" x="21.5" y="-127.75" font-family="Helvetica,sans-Serif" font-size="10.00">+</text>
<text text-anchor="start" x="48.12" y="-127.75" font-family="Helvetica,sans-Serif" font-size="10.00">tensor</text>
<text text-anchor="start" x="21.5" y="-112.5" font-family="Helvetica,sans-Serif" font-size="10.00">+</text>
<text text-anchor="start" x="48.12" y="-112.5" font-family="Helvetica,sans-Serif" font-size="10.00">TTL_sub_tensor()</text>
<text text-anchor="start" x="21.5" y="-97.25" font-family="Helvetica,sans-Serif" font-size="10.00">+</text>
<text text-anchor="start" x="48.12" y="-97.25" font-family="Helvetica,sans-Serif" font-size="10.00">TTL_sub_tensor()</text>
<text text-anchor="start" x="21.5" y="-82" font-family="Helvetica,sans-Serif" font-size="10.00">+</text>
<text text-anchor="start" x="48.12" y="-82" font-family="Helvetica,sans-Serif" font-size="10.00">TTL_sub_tensor()</text>
<text text-anchor="start" x="21.5" y="-66.75" font-family="Helvetica,sans-Serif" font-size="10.00">+</text>
<text text-anchor="start" x="48.12" y="-66.75" font-family="Helvetica,sans-Serif" font-size="10.00">TTL_sub_tensor()</text>
<text text-anchor="start" x="21.5" y="-51.5" font-family="Helvetica,sans-Serif" font-size="10.00">+</text>
<text text-anchor="start" x="48.12" y="-51.5" font-family="Helvetica,sans-Serif" font-size="10.00">TTL_sub_tensor()</text>
<text text-anchor="start" x="21.5" y="-36.25" font-family="Helvetica,sans-Serif" font-size="10.00">+</text>
<text text-anchor="start" x="48.12" y="-36.25" font-family="Helvetica,sans-Serif" font-size="10.00">read()</text>
<text text-anchor="start" x="21.5" y="-21" font-family="Helvetica,sans-Serif" font-size="10.00">+</text>
<text text-anchor="start" x="48.12" y="-21" font-family="Helvetica,sans-Serif" font-size="10.00">write()</text>
<text text-anchor="start" x="21.5" y="-5.75" font-family="Helvetica,sans-Serif" font-size="10.00">+</text>
<text text-anchor="start" x="48.12" y="-5.75" font-family="Helvetica,sans-Serif" font-size="10.00">empty()</text>
<polygon fill="#666666" stroke="#666666" points="0.88,-139.25 0.88,-139.25 162.62,-139.25 162.62,-139.25 0.88,-139.25"/>
<polygon fill="#666666" stroke="#666666" points="0.88,-124 0.88,-124 46.12,-124 46.12,-124 0.88,-124"/>
<polygon fill="#666666" stroke="#666666" points="46.12,-124 46.12,-124 162.62,-124 162.62,-124 46.12,-124"/>
<polygon fill="none" stroke="#666666" points="0.88,0 0.88,-156.5 162.62,-156.5 162.62,0 0.88,0"/>
</a>
</g>
</g>
<!-- Node2 -->
<g id="Node000002" class="node">
<title>Node2</title>
<g id="a_Node000002"><a xlink:href="structTTL__sub__tensor_1_1Origin.html" target="_top" xlink:title=" ">
<polygon fill="white" stroke="none" points="158.5,-270.75 5,-270.75 5,-209.75 158.5,-209.75 158.5,-270.75"/>
<text text-anchor="start" x="9" y="-257.25" font-family="Helvetica,sans-Serif" font-size="10.00">TTL_sub_tensor&lt; TENSORTYPE</text>
<text text-anchor="start" x="62.62" y="-246" font-family="Helvetica,sans-Serif" font-size="10.00"> &gt;::Origin</text>
<text text-anchor="start" x="80.25" y="-230.75" font-family="Helvetica,sans-Serif" font-size="10.00"> </text>
<text text-anchor="start" x="35" y="-215.5" font-family="Helvetica,sans-Serif" font-size="10.00">+</text>
<text text-anchor="start" x="71" y="-215.5" font-family="Helvetica,sans-Serif" font-size="10.00">Origin()</text>
<polygon fill="#666666" stroke="#666666" points="5,-242.25 5,-242.25 158.5,-242.25 158.5,-242.25 5,-242.25"/>
<polygon fill="#666666" stroke="#666666" points="5,-227 5,-227 158.5,-227 158.5,-227 5,-227"/>
<polygon fill="none" stroke="#666666" points="5,-209.75 5,-270.75 158.5,-270.75 158.5,-209.75 5,-209.75"/>
</a>
</g>
</g>
<!-- Node2&#45;&gt;Node1 -->
<g id="edge1_Node000001_Node000002" class="edge">
<title>Node2&#45;&gt;Node1</title>
<g id="a_edge1_Node000001_Node000002"><a xlink:title=" ">
<path fill="none" stroke="#63b8ff" d="M81.75,-209.9C81.75,-198.18 81.75,-183.99 81.75,-169.35"/>
<polygon fill="none" stroke="#63b8ff" points="81.75,-169.31 77.75,-163.31 81.75,-157.31 85.75,-163.31 81.75,-169.31"/>
</a>
</g>
<text text-anchor="start" x="84.75" y="-179.25" font-family="Helvetica,sans-Serif" font-size="10.00" fill="grey">+origin</text>
</g>
<!-- Node3 -->
<g id="Node000003" class="node">
<title>Node3</title>
<g id="a_Node000003"><a xlink:href="structTTL__shape.html" target="_top" xlink:title="Description of a Shape.">
<polygon fill="white" stroke="none" points="73.5,-419.5 0,-419.5 0,-324 73.5,-324 73.5,-419.5"/>
<text text-anchor="start" x="12" y="-406" font-family="Helvetica,sans-Serif" font-size="10.00">TTL_shape</text>
<text text-anchor="start" x="4" y="-390.75" font-family="Helvetica,sans-Serif" font-size="10.00">+</text>
<text text-anchor="start" x="14" y="-390.75" font-family="Helvetica,sans-Serif" font-size="10.00">width</text>
<text text-anchor="start" x="4" y="-375.5" font-family="Helvetica,sans-Serif" font-size="10.00">+</text>
<text text-anchor="start" x="14" y="-375.5" font-family="Helvetica,sans-Serif" font-size="10.00">height</text>
<text text-anchor="start" x="4" y="-360.25" font-family="Helvetica,sans-Serif" font-size="10.00">+</text>
<text text-anchor="start" x="14" y="-360.25" font-family="Helvetica,sans-Serif" font-size="10.00">depth</text>
<text text-anchor="start" x="4" y="-345" font-family="Helvetica,sans-Serif" font-size="10.00">+</text>
<text text-anchor="start" x="14" y="-345" font-family="Helvetica,sans-Serif" font-size="10.00">TTL_shape()</text>
<text text-anchor="start" x="4" y="-329.75" font-family="Helvetica,sans-Serif" font-size="10.00">+</text>
<text text-anchor="start" x="14" y="-329.75" font-family="Helvetica,sans-Serif" font-size="10.00">empty()</text>
<polygon fill="#666666" stroke="#666666" points="0,-402.25 0,-402.25 73.5,-402.25 73.5,-402.25 0,-402.25"/>
<polygon fill="#666666" stroke="#666666" points="0,-356.5 0,-356.5 12,-356.5 12,-356.5 0,-356.5"/>
<polygon fill="#666666" stroke="#666666" points="12,-356.5 12,-356.5 73.5,-356.5 73.5,-356.5 12,-356.5"/>
<polygon fill="none" stroke="#666666" points="0,-324 0,-419.5 73.5,-419.5 73.5,-324 0,-324"/>
</a>
</g>
</g>
<!-- Node3&#45;&gt;Node2 -->
<g id="edge2_Node000002_Node000003" class="edge">
<title>Node3&#45;&gt;Node2</title>
<g id="a_edge2_Node000002_Node000003"><a xlink:title=" ">
<path fill="none" stroke="#63b8ff" d="M52.87,-324.36C57.61,-310.72 62.76,-295.9 67.38,-282.6"/>
<polygon fill="none" stroke="#63b8ff" points="67.39,-282.58 65.58,-275.6 71.33,-271.25 73.13,-278.23 67.39,-282.58"/>
</a>
</g>
<text text-anchor="start" x="67.6" y="-293.5" font-family="Helvetica,sans-Serif" font-size="10.00" fill="grey">+shape</text>
</g>
<!-- Node4 -->
<g id="Node000004" class="node">
<title>Node4</title>
<g id="a_Node000004"><a xlink:href="structTTL__offset.html" target="_top" xlink:title="Description of the 3D offset of an object.">
<polygon fill="white" stroke="none" points="162.38,-411.88 91.12,-411.88 91.12,-331.62 162.38,-331.62 162.38,-411.88"/>
<text text-anchor="start" x="103.12" y="-398.38" font-family="Helvetica,sans-Serif" font-size="10.00">TTL_offset</text>
<text text-anchor="start" x="95.12" y="-383.12" font-family="Helvetica,sans-Serif" font-size="10.00">+</text>
<text text-anchor="start" x="105.12" y="-383.12" font-family="Helvetica,sans-Serif" font-size="10.00">x</text>
<text text-anchor="start" x="95.12" y="-367.88" font-family="Helvetica,sans-Serif" font-size="10.00">+</text>
<text text-anchor="start" x="105.12" y="-367.88" font-family="Helvetica,sans-Serif" font-size="10.00">y</text>
<text text-anchor="start" x="95.12" y="-352.62" font-family="Helvetica,sans-Serif" font-size="10.00">+</text>
<text text-anchor="start" x="105.12" y="-352.62" font-family="Helvetica,sans-Serif" font-size="10.00">z</text>
<text text-anchor="start" x="95.12" y="-337.38" font-family="Helvetica,sans-Serif" font-size="10.00">+</text>
<text text-anchor="start" x="105.12" y="-337.38" font-family="Helvetica,sans-Serif" font-size="10.00">TTL_offset()</text>
<polygon fill="#666666" stroke="#666666" points="91.12,-394.62 91.12,-394.62 162.38,-394.62 162.38,-394.62 91.12,-394.62"/>
<polygon fill="#666666" stroke="#666666" points="91.12,-348.88 91.12,-348.88 103.12,-348.88 103.12,-348.88 91.12,-348.88"/>
<polygon fill="#666666" stroke="#666666" points="103.12,-348.88 103.12,-348.88 162.38,-348.88 162.38,-348.88 103.12,-348.88"/>
<polygon fill="none" stroke="#666666" points="91.12,-331.62 91.12,-411.88 162.38,-411.88 162.38,-331.62 91.12,-331.62"/>
</a>
</g>
</g>
<!-- Node4&#45;&gt;Node2 -->
<g id="edge3_Node000002_Node000004" class="edge">
<title>Node4&#45;&gt;Node2</title>
<g id="a_edge3_Node000002_Node000004"><a xlink:title=" ">
<path fill="none" stroke="#63b8ff" d="M117.93,-331.9C114.38,-318.1 109.89,-302.56 104.75,-288.75 103.95,-286.59 103.08,-284.4 102.16,-282.2"/>
<polygon fill="none" stroke="#63b8ff" points="102.22,-282.31 96.13,-278.45 97.35,-271.34 103.44,-275.21 102.22,-282.31"/>
</a>
</g>
<text text-anchor="start" x="113.01" y="-293.5" font-family="Helvetica,sans-Serif" font-size="10.00" fill="grey">+sub_offset</text>
</g>
</g>
</svg>
