<?xml version="1.0" encoding="UTF-8" standalone="no"?>
<!DOCTYPE svg PUBLIC "-//W3C//DTD SVG 1.1//EN"
 "http://www.w3.org/Graphics/SVG/1.1/DTD/svg11.dtd">
<!-- Generated by graphviz version 12.2.1 (20241206.2353)
 -->
<!-- Title: TTL_simplex_const_int_tensor_buffering_t Pages: 1 -->
<svg width="455pt" height="500pt"
 viewBox="0.00 0.00 454.56 500.00" xmlns="http://www.w3.org/2000/svg" xmlns:xlink="http://www.w3.org/1999/xlink">
<g id="graph0" class="graph" transform="scale(1 1) rotate(0) translate(4 496)">
<title>TTL_simplex_const_int_tensor_buffering_t</title>
<!-- Node1 -->
<g id="Node000001" class="node">
<title>Node1</title>
<g id="a_Node000001"><a xlink:title=" ">
<polygon fill="#999999" stroke="none" points="306.75,-122 197.5,-122 197.5,0 306.75,0 306.75,-122"/>
<text text-anchor="start" x="201.5" y="-108.5" font-family="Helvetica,sans-Serif" font-size="10.00">TTL_simplex_const_int</text>
<text text-anchor="start" x="210.88" y="-97.25" font-family="Helvetica,sans-Serif" font-size="10.00">_tensor_buffering_t</text>
<text text-anchor="start" x="213.62" y="-82" font-family="Helvetica,sans-Serif" font-size="10.00">+</text>
<text text-anchor="start" x="235.75" y="-82" font-family="Helvetica,sans-Serif" font-size="10.00">index</text>
<text text-anchor="start" x="213.62" y="-66.75" font-family="Helvetica,sans-Serif" font-size="10.00">+</text>
<text text-anchor="start" x="235.75" y="-66.75" font-family="Helvetica,sans-Serif" font-size="10.00">int_base</text>
<text text-anchor="start" x="213.62" y="-51.5" font-family="Helvetica,sans-Serif" font-size="10.00">+</text>
<text text-anchor="start" x="235.75" y="-51.5" font-family="Helvetica,sans-Serif" font-size="10.00">common</text>
<text text-anchor="start" x="213.62" y="-36.25" font-family="Helvetica,sans-Serif" font-size="10.00">+</text>
<text text-anchor="start" x="235.75" y="-36.25" font-family="Helvetica,sans-Serif" font-size="10.00">event_in</text>
<text text-anchor="start" x="213.62" y="-21" font-family="Helvetica,sans-Serif" font-size="10.00">+</text>
<text text-anchor="start" x="235.75" y="-21" font-family="Helvetica,sans-Serif" font-size="10.00">event_out</text>
<text text-anchor="start" x="250.62" y="-5.75" font-family="Helvetica,sans-Serif" font-size="10.00"> </text>
<polygon fill="#666666" stroke="#666666" points="197.5,-93.5 197.5,-93.5 306.75,-93.5 306.75,-93.5 197.5,-93.5"/>
<polygon fill="#666666" stroke="#666666" points="197.5,-17.25 197.5,-17.25 233.75,-17.25 233.75,-17.25 197.5,-17.25"/>
<polygon fill="#666666" stroke="#666666" points="233.75,-17.25 233.75,-17.25 306.75,-17.25 306.75,-17.25 233.75,-17.25"/>
<polygon fill="none" stroke="#666666" points="197.5,0 197.5,-122 306.75,-122 306.75,0 197.5,0"/>
</a>
</g>
</g>
<!-- Node2 -->
<g id="Node000002" class="node">
<title>Node2</title>
<g id="a_Node000002"><a xlink:href="structTTL__ext__int__tensor__t.html" target="_top" xlink:title="const and non&#45;const tensors in the appropriate address space">
<polygon fill="white" stroke="none" points="100.25,-350.88 0,-350.88 0,-285.88 100.25,-285.88 100.25,-350.88"/>
<text text-anchor="start" x="4" y="-337.38" font-family="Helvetica,sans-Serif" font-size="10.00">TTL_ext_int_tensor_t</text>
<text text-anchor="start" x="13.69" y="-322.12" font-family="Helvetica,sans-Serif" font-size="10.00">+</text>
<text text-anchor="start" x="33.38" y="-322.12" font-family="Helvetica,sans-Serif" font-size="10.00">base</text>
<text text-anchor="start" x="13.69" y="-306.88" font-family="Helvetica,sans-Serif" font-size="10.00">+</text>
<text text-anchor="start" x="33.38" y="-306.88" font-family="Helvetica,sans-Serif" font-size="10.00">elem_size</text>
<text text-anchor="start" x="48.62" y="-291.62" font-family="Helvetica,sans-Serif" font-size="10.00"> </text>
<polygon fill="#666666" stroke="#666666" points="0,-333.62 0,-333.62 100.25,-333.62 100.25,-333.62 0,-333.62"/>
<polygon fill="#666666" stroke="#666666" points="0,-303.12 0,-303.12 31.38,-303.12 31.38,-303.12 0,-303.12"/>
<polygon fill="#666666" stroke="#666666" points="31.38,-303.12 31.38,-303.12 100.25,-303.12 100.25,-303.12 31.38,-303.12"/>
<polygon fill="none" stroke="#666666" points="0,-285.88 0,-350.88 100.25,-350.88 100.25,-285.88 0,-285.88"/>
</a>
</g>
</g>
<!-- Node2&#45;&gt;Node1 -->
<g id="edge1_Node000001_Node000002" class="edge">
<title>Node2&#45;&gt;Node1</title>
<g id="a_edge1_Node000001_Node000002"><a xlink:title=" ">
<path fill="none" stroke="#63b8ff" d="M57.96,-285.91C66.66,-255.43 82.92,-208.99 108.38,-175.25 129.74,-146.92 159.82,-121.76 186.95,-102.39"/>
<polygon fill="none" stroke="#63b8ff" points="186.98,-102.37 189.62,-95.65 196.83,-95.5 194.19,-102.22 186.98,-102.37"/>
</a>
</g>
<text text-anchor="start" x="111.38" y="-203.88" font-family="Helvetica,sans-Serif" font-size="10.00" fill="grey">+ext_tensor_in</text>
<text text-anchor="start" x="111.38" y="-188.62" font-family="Helvetica,sans-Serif" font-size="10.00" fill="grey">+ext_tensor_out</text>
</g>
<!-- Node3 -->
<g id="Node000003" class="node">
<title>Node3</title>
<g id="a_Node000003"><a xlink:href="structTTL__layout__t.html" target="_top" xlink:title="Description of a Tensor layout in memory.">
<polygon fill="white" stroke="none" points="128.25,-484.38 48,-484.38 48,-419.38 128.25,-419.38 128.25,-484.38"/>
<text text-anchor="start" x="59.62" y="-470.88" font-family="Helvetica,sans-Serif" font-size="10.00">TTL_layout_t</text>
<text text-anchor="start" x="52" y="-455.62" font-family="Helvetica,sans-Serif" font-size="10.00">+</text>
<text text-anchor="start" x="62" y="-455.62" font-family="Helvetica,sans-Serif" font-size="10.00">row_spacing</text>
<text text-anchor="start" x="52" y="-440.38" font-family="Helvetica,sans-Serif" font-size="10.00">+</text>
<text text-anchor="start" x="62" y="-440.38" font-family="Helvetica,sans-Serif" font-size="10.00">plane_spacing</text>
<text text-anchor="start" x="86.62" y="-425.12" font-family="Helvetica,sans-Serif" font-size="10.00"> </text>
<polygon fill="#666666" stroke="#666666" points="48,-467.12 48,-467.12 128.25,-467.12 128.25,-467.12 48,-467.12"/>
<polygon fill="#666666" stroke="#666666" points="48,-436.62 48,-436.62 60,-436.62 60,-436.62 48,-436.62"/>
<polygon fill="#666666" stroke="#666666" points="60,-436.62 60,-436.62 128.25,-436.62 128.25,-436.62 60,-436.62"/>
<polygon fill="none" stroke="#666666" points="48,-419.38 48,-484.38 128.25,-484.38 128.25,-419.38 48,-419.38"/>
</a>
</g>
</g>
<!-- Node3&#45;&gt;Node2 -->
<g id="edge2_Node000002_Node000003" class="edge">
<title>Node3&#45;&gt;Node2</title>
<g id="a_edge2_Node000002_Node000003"><a xlink:title=" ">
<path fill="none" stroke="#63b8ff" d="M48.3,-428.38C36.16,-419.32 24.27,-407.69 17.62,-393.75 12.78,-383.58 14.13,-372.52 18.27,-362.1"/>
<polygon fill="none" stroke="#63b8ff" points="18.2,-362.25 17.3,-355.09 23.56,-351.51 24.46,-358.66 18.2,-362.25"/>
</a>
</g>
<text text-anchor="start" x="20.62" y="-381.25" font-family="Helvetica,sans-Serif" font-size="10.00" fill="grey">+layout</text>
</g>
<!-- Node8 -->
<g id="Node000008" class="node">
<title>Node8</title>
<g id="a_Node000008"><a xlink:href="structTTL__int__int__tensor__t.html" target="_top" xlink:title="const and non&#45;const tensors in the appropriate address space">
<polygon fill="white" stroke="none" points="216.12,-350.88 118.12,-350.88 118.12,-285.88 216.12,-285.88 216.12,-350.88"/>
<text text-anchor="start" x="122.12" y="-337.38" font-family="Helvetica,sans-Serif" font-size="10.00">TTL_int_int_tensor_t</text>
<text text-anchor="start" x="131.25" y="-322.12" font-family="Helvetica,sans-Serif" font-size="10.00">+</text>
<text text-anchor="start" x="150.38" y="-322.12" font-family="Helvetica,sans-Serif" font-size="10.00">base</text>
<text text-anchor="start" x="131.25" y="-306.88" font-family="Helvetica,sans-Serif" font-size="10.00">+</text>
<text text-anchor="start" x="150.38" y="-306.88" font-family="Helvetica,sans-Serif" font-size="10.00">elem_size</text>
<text text-anchor="start" x="165.62" y="-291.62" font-family="Helvetica,sans-Serif" font-size="10.00"> </text>
<polygon fill="#666666" stroke="#666666" points="118.12,-333.62 118.12,-333.62 216.12,-333.62 216.12,-333.62 118.12,-333.62"/>
<polygon fill="#666666" stroke="#666666" points="118.12,-303.12 118.12,-303.12 148.38,-303.12 148.38,-303.12 118.12,-303.12"/>
<polygon fill="#666666" stroke="#666666" points="148.38,-303.12 148.38,-303.12 216.12,-303.12 216.12,-303.12 148.38,-303.12"/>
<polygon fill="none" stroke="#666666" points="118.12,-285.88 118.12,-350.88 216.12,-350.88 216.12,-285.88 118.12,-285.88"/>
</a>
</g>
</g>
<!-- Node3&#45;&gt;Node8 -->
<g id="edge9_Node000008_Node000003" class="edge">
<title>Node3&#45;&gt;Node8</title>
<g id="a_edge9_Node000008_Node000003"><a xlink:title=" ">
<path fill="none" stroke="#63b8ff" d="M107.05,-419.38C117.45,-402.06 130.5,-380.33 141.78,-361.56"/>
<polygon fill="none" stroke="#63b8ff" points="141.71,-361.67 141.37,-354.47 147.89,-351.39 148.23,-358.59 141.71,-361.67"/>
</a>
</g>
<text text-anchor="start" x="135.35" y="-381.25" font-family="Helvetica,sans-Serif" font-size="10.00" fill="grey">+layout</text>
</g>
<!-- Node4 -->
<g id="Node000004" class="node">
<title>Node4</title>
<g id="a_Node000004"><a xlink:href="structTTL__shape__t.html" target="_top" xlink:title="Description of a Shape.">
<polygon fill="white" stroke="none" points="258,-492 192.25,-492 192.25,-411.75 258,-411.75 258,-492"/>
<text text-anchor="start" x="196.25" y="-478.5" font-family="Helvetica,sans-Serif" font-size="10.00">TTL_shape_t</text>
<text text-anchor="start" x="201.62" y="-463.25" font-family="Helvetica,sans-Serif" font-size="10.00">+</text>
<text text-anchor="start" x="217" y="-463.25" font-family="Helvetica,sans-Serif" font-size="10.00">width</text>
<text text-anchor="start" x="201.62" y="-448" font-family="Helvetica,sans-Serif" font-size="10.00">+</text>
<text text-anchor="start" x="217" y="-448" font-family="Helvetica,sans-Serif" font-size="10.00">height</text>
<text text-anchor="start" x="201.62" y="-432.75" font-family="Helvetica,sans-Serif" font-size="10.00">+</text>
<text text-anchor="start" x="217" y="-432.75" font-family="Helvetica,sans-Serif" font-size="10.00">depth</text>
<text text-anchor="start" x="223.62" y="-417.5" font-family="Helvetica,sans-Serif" font-size="10.00"> </text>
<polygon fill="#666666" stroke="#666666" points="192.25,-474.75 192.25,-474.75 258,-474.75 258,-474.75 192.25,-474.75"/>
<polygon fill="#666666" stroke="#666666" points="192.25,-429 192.25,-429 215,-429 215,-429 192.25,-429"/>
<polygon fill="#666666" stroke="#666666" points="215,-429 215,-429 258,-429 258,-429 215,-429"/>
<polygon fill="none" stroke="#666666" points="192.25,-411.75 192.25,-492 258,-492 258,-411.75 192.25,-411.75"/>
</a>
</g>
</g>
<!-- Node4&#45;&gt;Node2 -->
<g id="edge3_Node000002_Node000004" class="edge">
<title>Node4&#45;&gt;Node2</title>
<g id="a_edge3_Node000002_Node000004"><a xlink:title=" ">
<path fill="none" stroke="#63b8ff" d="M192.47,-435.34C176.04,-427.79 155.72,-418.83 137.12,-411.75 112.6,-402.4 100.18,-411.53 80.88,-393.75 71.89,-385.48 65.46,-374.19 60.88,-362.9"/>
<polygon fill="none" stroke="#63b8ff" points="60.91,-362.97 55.14,-358.64 56.91,-351.65 62.68,-355.98 60.91,-362.97"/>
</a>
</g>
<text text-anchor="start" x="83.88" y="-381.25" font-family="Helvetica,sans-Serif" font-size="10.00" fill="grey">+shape</text>
</g>
<!-- Node5 -->
<g id="Node000005" class="node">
<title>Node5</title>
<g id="a_Node000005"><a xlink:href="structTTL__tile__t.html" target="_top" xlink:title=" ">
<polygon fill="white" stroke="none" points="391.25,-225 339,-225 339,-175.25 391.25,-175.25 391.25,-225"/>
<text text-anchor="start" x="343" y="-211.5" font-family="Helvetica,sans-Serif" font-size="10.00">TTL_tile_t</text>
<text text-anchor="start" x="363.62" y="-196.25" font-family="Helvetica,sans-Serif" font-size="10.00"> </text>
<text text-anchor="start" x="363.62" y="-181" font-family="Helvetica,sans-Serif" font-size="10.00"> </text>
<polygon fill="#666666" stroke="#666666" points="339,-207.75 339,-207.75 391.25,-207.75 391.25,-207.75 339,-207.75"/>
<polygon fill="#666666" stroke="#666666" points="339,-192.5 339,-192.5 391.25,-192.5 391.25,-192.5 339,-192.5"/>
<polygon fill="none" stroke="#666666" points="339,-175.25 339,-225 391.25,-225 391.25,-175.25 339,-175.25"/>
</a>
</g>
</g>
<!-- Node4&#45;&gt;Node5 -->
<g id="edge5_Node000005_Node000004" class="edge">
<title>Node4&#45;&gt;Node5</title>
<g id="a_edge5_Node000005_Node000004"><a xlink:title=" ">
<path fill="none" stroke="#63b8ff" d="M257.97,-441.68C295.43,-429.33 355.31,-403.58 385.12,-358.5 413.6,-315.45 413.67,-291.89 397.12,-243 396.31,-240.59 395.3,-238.22 394.14,-235.89"/>
<polygon fill="none" stroke="#63b8ff" points="394.09,-235.81 387.54,-232.78 387.83,-225.57 394.37,-228.6 394.09,-235.81"/>
</a>
</g>
<text text-anchor="start" x="411.31" y="-314.5" font-family="Helvetica,sans-Serif" font-size="10.00" fill="grey">+shape</text>
</g>
<!-- Node7 -->
<g id="Node000007" class="node">
<title>Node7</title>
<g id="a_Node000007"><a xlink:href="structTTL__int__int__sub__tensor__t.html" target="_top" xlink:title="const and non&#45;const sub tensors in the appropriate address space">
<polygon fill="white" stroke="none" points="311.62,-225 192.62,-225 192.62,-175.25 311.62,-175.25 311.62,-225"/>
<text text-anchor="start" x="196.62" y="-211.5" font-family="Helvetica,sans-Serif" font-size="10.00">TTL_int_int_sub_tensor_t</text>
<text text-anchor="start" x="216.06" y="-196.25" font-family="Helvetica,sans-Serif" font-size="10.00">+</text>
<text text-anchor="start" x="245.5" y="-196.25" font-family="Helvetica,sans-Serif" font-size="10.00">origin</text>
<text text-anchor="start" x="250.62" y="-181" font-family="Helvetica,sans-Serif" font-size="10.00"> </text>
<polygon fill="#666666" stroke="#666666" points="192.62,-207.75 192.62,-207.75 311.62,-207.75 311.62,-207.75 192.62,-207.75"/>
<polygon fill="#666666" stroke="#666666" points="192.62,-192.5 192.62,-192.5 243.5,-192.5 243.5,-192.5 192.62,-192.5"/>
<polygon fill="#666666" stroke="#666666" points="243.5,-192.5 243.5,-192.5 311.62,-192.5 311.62,-192.5 243.5,-192.5"/>
<polygon fill="none" stroke="#666666" points="192.62,-175.25 192.62,-225 311.62,-225 311.62,-175.25 192.62,-175.25"/>
</a>
</g>
</g>
<!-- Node4&#45;&gt;Node7 -->
<g id="edge11_Node000007_Node000004" class="edge">
<title>Node4&#45;&gt;Node7</title>
<g id="a_edge11_Node000007_Node000004"><a xlink:title=" ">
<path fill="none" stroke="#63b8ff" d="M234.8,-412C236.07,-405.92 237.24,-399.69 238.12,-393.75 246.17,-339.88 249.64,-276.81 251.1,-237.91"/>
<polygon fill="none" stroke="#63b8ff" points="251.11,-237.87 247.31,-231.74 251.52,-225.88 255.31,-232.01 251.11,-237.87"/>
</a>
</g>
<text text-anchor="start" x="252.18" y="-314.5" font-family="Helvetica,sans-Serif" font-size="10.00" fill="grey">+shape</text>
</g>
<!-- Node4&#45;&gt;Node8 -->
<g id="edge10_Node000008_Node000004" class="edge">
<title>Node4&#45;&gt;Node8</title>
<g id="a_edge10_Node000008_Node000004"><a xlink:title=" ">
<path fill="none" stroke="#63b8ff" d="M207.87,-411.85C205.19,-405.79 202.46,-399.6 199.88,-393.75 195.41,-383.64 190.62,-372.75 186.1,-362.51"/>
<polygon fill="none" stroke="#63b8ff" points="186.18,-362.67 180.1,-358.79 181.34,-351.69 187.42,-355.57 186.18,-362.67"/>
</a>
</g>
<text text-anchor="start" x="202.88" y="-381.25" font-family="Helvetica,sans-Serif" font-size="10.00" fill="grey">+shape</text>
</g>
<!-- Node5&#45;&gt;Node1 -->
<g id="edge4_Node000001_Node000005" class="edge">
<title>Node5&#45;&gt;Node1</title>
<g id="a_edge4_Node000001_Node000005"><a xlink:title=" ">
<path fill="none" stroke="#63b8ff" d="M358.81,-175.37C355.08,-164.02 349.61,-150.62 342.12,-140 334.63,-129.37 325.39,-119.25 315.71,-110.04"/>
<polygon fill="none" stroke="#63b8ff" points="315.87,-110.19 308.74,-109.1 307,-102.11 314.13,-103.19 315.87,-110.19"/>
</a>
</g>
<text text-anchor="start" x="354.5" y="-144.75" font-family="Helvetica,sans-Serif" font-size="10.00" fill="grey">+next_exported_tile</text>
</g>
<!-- Node6 -->
<g id="Node000006" class="node">
<title>Node6</title>
<g id="a_Node000006"><a xlink:href="structTTL__offset__t.html" target="_top" xlink:title="Description of the 3D offset of an object.">
<polygon fill="white" stroke="none" points="375.88,-358.5 312.38,-358.5 312.38,-278.25 375.88,-278.25 375.88,-358.5"/>
<text text-anchor="start" x="316.38" y="-345" font-family="Helvetica,sans-Serif" font-size="10.00">TTL_offset_t</text>
<text text-anchor="start" x="326.62" y="-329.75" font-family="Helvetica,sans-Serif" font-size="10.00">+</text>
<text text-anchor="start" x="346.88" y="-329.75" font-family="Helvetica,sans-Serif" font-size="10.00">x</text>
<text text-anchor="start" x="326.62" y="-314.5" font-family="Helvetica,sans-Serif" font-size="10.00">+</text>
<text text-anchor="start" x="346.88" y="-314.5" font-family="Helvetica,sans-Serif" font-size="10.00">y</text>
<text text-anchor="start" x="326.62" y="-299.25" font-family="Helvetica,sans-Serif" font-size="10.00">+</text>
<text text-anchor="start" x="346.88" y="-299.25" font-family="Helvetica,sans-Serif" font-size="10.00">z</text>
<text text-anchor="start" x="342.62" y="-284" font-family="Helvetica,sans-Serif" font-size="10.00"> </text>
<polygon fill="#666666" stroke="#666666" points="312.38,-341.25 312.38,-341.25 375.88,-341.25 375.88,-341.25 312.38,-341.25"/>
<polygon fill="#666666" stroke="#666666" points="312.38,-295.5 312.38,-295.5 344.88,-295.5 344.88,-295.5 312.38,-295.5"/>
<polygon fill="#666666" stroke="#666666" points="344.88,-295.5 344.88,-295.5 375.88,-295.5 375.88,-295.5 344.88,-295.5"/>
<polygon fill="none" stroke="#666666" points="312.38,-278.25 312.38,-358.5 375.88,-358.5 375.88,-278.25 312.38,-278.25"/>
</a>
</g>
</g>
<!-- Node6&#45;&gt;Node5 -->
<g id="edge6_Node000005_Node000006" class="edge">
<title>Node6&#45;&gt;Node5</title>
<g id="a_edge6_Node000005_Node000006"><a xlink:title=" ">
<path fill="none" stroke="#63b8ff" d="M351.18,-278.34C353.55,-265.22 356.18,-250.64 358.51,-237.72"/>
<polygon fill="none" stroke="#63b8ff" points="358.52,-237.67 355.65,-231.06 360.66,-225.86 363.53,-232.48 358.52,-237.67"/>
</a>
</g>
<text text-anchor="start" x="360.12" y="-247.75" font-family="Helvetica,sans-Serif" font-size="10.00" fill="grey">+offset</text>
</g>
<!-- Node6&#45;&gt;Node7 -->
<g id="edge12_Node000007_Node000006" class="edge">
<title>Node6&#45;&gt;Node7</title>
<g id="a_edge12_Node000007_Node000006"><a xlink:title=" ">
<path fill="none" stroke="#63b8ff" d="M312.61,-282.5C306.35,-275.26 299.92,-267.59 294.12,-260.25 287.89,-252.35 281.45,-243.61 275.54,-235.34"/>
<polygon fill="none" stroke="#63b8ff" points="275.57,-235.38 268.85,-232.78 268.67,-225.57 275.39,-228.17 275.57,-235.38"/>
</a>
</g>
<text text-anchor="start" x="297.12" y="-247.75" font-family="Helvetica,sans-Serif" font-size="10.00" fill="grey">+sub_offset</text>
</g>
<!-- Node7&#45;&gt;Node1 -->
<g id="edge7_Node000001_Node000007" class="edge">
<title>Node7&#45;&gt;Node1</title>
<g id="a_edge7_Node000001_Node000007"><a xlink:title=" ">
<path fill="none" stroke="#63b8ff" d="M252.12,-175.55C252.12,-164.06 252.12,-149.55 252.12,-134.78"/>
<polygon fill="none" stroke="#63b8ff" points="252.13,-134.71 248.13,-128.71 252.13,-122.71 256.13,-128.71 252.13,-134.71"/>
</a>
</g>
<text text-anchor="start" x="255.12" y="-144.75" font-family="Helvetica,sans-Serif" font-size="10.00" fill="grey">+int_prev_imported</text>
</g>
<!-- Node8&#45;&gt;Node7 -->
<g id="edge8_Node000007_Node000008" class="edge">
<title>Node8&#45;&gt;Node7</title>
<g id="a_edge8_Node000007_Node000008"><a xlink:title=" ">
<path fill="none" stroke="#63b8ff" d="M176.6,-286.22C181.83,-272.14 189.29,-255.83 199.12,-243 201.66,-239.7 204.51,-236.5 207.54,-233.46"/>
<polygon fill="none" stroke="#63b8ff" points="207.51,-233.48 209.24,-226.48 216.37,-225.38 214.64,-232.38 207.51,-233.48"/>
</a>
</g>
<text text-anchor="start" x="202.12" y="-247.75" font-family="Helvetica,sans-Serif" font-size="10.00" fill="grey">+tensor</text>
</g>
</g>
</svg>
