<?xml version="1.0" encoding="UTF-8" standalone="no"?>
<!DOCTYPE svg PUBLIC "-//W3C//DTD SVG 1.1//EN"
 "http://www.w3.org/Graphics/SVG/1.1/DTD/svg11.dtd">
<!-- Generated by graphviz version 12.2.1 (20241206.2353)
 -->
<!-- Title: TTL_sub_tensor&lt; TENSORTYPE &gt;::Origin Pages: 1 -->
<svg width="175pt" height="218pt"
 viewBox="0.00 0.00 175.01 217.75" xmlns="http://www.w3.org/2000/svg" xmlns:xlink="http://www.w3.org/1999/xlink">
<g id="graph0" class="graph" transform="scale(1 1) rotate(0) translate(4 213.75)">
<title>TTL_sub_tensor&lt; TENSORTYPE &gt;::Origin</title>
<!-- Node1 -->
<g id="Node000001" class="node">
<title>Node1</title>
<g id="a_Node000001"><a xlink:title=" ">
<polygon fill="#999999" stroke="none" points="158.5,-61 5,-61 5,0 158.5,0 158.5,-61"/>
<text text-anchor="start" x="9" y="-47.5" font-family="Helvetica,sans-Serif" font-size="10.00">TTL_sub_tensor&lt; TENSORTYPE</text>
<text text-anchor="start" x="62.62" y="-36.25" font-family="Helvetica,sans-Serif" font-size="10.00"> &gt;::Origin</text>
<text text-anchor="start" x="80.25" y="-21" font-family="Helvetica,sans-Serif" font-size="10.00"> </text>
<text text-anchor="start" x="35" y="-5.75" font-family="Helvetica,sans-Serif" font-size="10.00">+</text>
<text text-anchor="start" x="71" y="-5.75" font-family="Helvetica,sans-Serif" font-size="10.00">Origin()</text>
<polygon fill="#666666" stroke="#666666" points="5,-32.5 5,-32.5 158.5,-32.5 158.5,-32.5 5,-32.5"/>
<polygon fill="#666666" stroke="#666666" points="5,-17.25 5,-17.25 158.5,-17.25 158.5,-17.25 5,-17.25"/>
<polygon fill="none" stroke="#666666" points="5,0 5,-61 158.5,-61 158.5,0 5,0"/>
</a>
</g>
</g>
<!-- Node2 -->
<g id="Node000002" class="node">
<title>Node2</title>
<g id="a_Node000002"><a xlink:href="structTTL__shape.html" target="_top" xlink:title="Description of a Shape.">
<polygon fill="white" stroke="none" points="73.5,-209.75 0,-209.75 0,-114.25 73.5,-114.25 73.5,-209.75"/>
<text text-anchor="start" x="12" y="-196.25" font-family="Helvetica,sans-Serif" font-size="10.00">TTL_shape</text>
<text text-anchor="start" x="4" y="-181" font-family="Helvetica,sans-Serif" font-size="10.00">+</text>
<text text-anchor="start" x="14" y="-181" font-family="Helvetica,sans-Serif" font-size="10.00">width</text>
<text text-anchor="start" x="4" y="-165.75" font-family="Helvetica,sans-Serif" font-size="10.00">+</text>
<text text-anchor="start" x="14" y="-165.75" font-family="Helvetica,sans-Serif" font-size="10.00">height</text>
<text text-anchor="start" x="4" y="-150.5" font-family="Helvetica,sans-Serif" font-size="10.00">+</text>
<text text-anchor="start" x="14" y="-150.5" font-family="Helvetica,sans-Serif" font-size="10.00">depth</text>
<text text-anchor="start" x="4" y="-135.25" font-family="Helvetica,sans-Serif" font-size="10.00">+</text>
<text text-anchor="start" x="14" y="-135.25" font-family="Helvetica,sans-Serif" font-size="10.00">TTL_shape()</text>
<text text-anchor="start" x="4" y="-120" font-family="Helvetica,sans-Serif" font-size="10.00">+</text>
<text text-anchor="start" x="14" y="-120" font-family="Helvetica,sans-Serif" font-size="10.00">empty()</text>
<polygon fill="#666666" stroke="#666666" points="0,-192.5 0,-192.5 73.5,-192.5 73.5,-192.5 0,-192.5"/>
<polygon fill="#666666" stroke="#666666" points="0,-146.75 0,-146.75 12,-146.75 12,-146.75 0,-146.75"/>
<polygon fill="#666666" stroke="#666666" points="12,-146.75 12,-146.75 73.5,-146.75 73.5,-146.75 12,-146.75"/>
<polygon fill="none" stroke="#666666" points="0,-114.25 0,-209.75 73.5,-209.75 73.5,-114.25 0,-114.25"/>
</a>
</g>
</g>
<!-- Node2&#45;&gt;Node1 -->
<g id="edge1_Node000001_Node000002" class="edge">
<title>Node2&#45;&gt;Node1</title>
<g id="a_edge1_Node000001_Node000002"><a xlink:title=" ">
<path fill="none" stroke="#63b8ff" d="M52.87,-114.61C57.61,-100.97 62.76,-86.15 67.38,-72.85"/>
<polygon fill="none" stroke="#63b8ff" points="67.39,-72.83 65.58,-65.85 71.33,-61.5 73.13,-68.48 67.39,-72.83"/>
</a>
</g>
<text text-anchor="start" x="67.6" y="-83.75" font-family="Helvetica,sans-Serif" font-size="10.00" fill="grey">+shape</text>
</g>
<!-- Node3 -->
<g id="Node000003" class="node">
<title>Node3</title>
<g id="a_Node000003"><a xlink:href="structTTL__offset.html" target="_top" xlink:title="Description of the 3D offset of an object.">
<polygon fill="white" stroke="none" points="162.38,-202.12 91.12,-202.12 91.12,-121.88 162.38,-121.88 162.38,-202.12"/>
<text text-anchor="start" x="103.12" y="-188.62" font-family="Helvetica,sans-Serif" font-size="10.00">TTL_offset</text>
<text text-anchor="start" x="95.12" y="-173.38" font-family="Helvetica,sans-Serif" font-size="10.00">+</text>
<text text-anchor="start" x="105.12" y="-173.38" font-family="Helvetica,sans-Serif" font-size="10.00">x</text>
<text text-anchor="start" x="95.12" y="-158.12" font-family="Helvetica,sans-Serif" font-size="10.00">+</text>
<text text-anchor="start" x="105.12" y="-158.12" font-family="Helvetica,sans-Serif" font-size="10.00">y</text>
<text text-anchor="start" x="95.12" y="-142.88" font-family="Helvetica,sans-Serif" font-size="10.00">+</text>
<text text-anchor="start" x="105.12" y="-142.88" font-family="Helvetica,sans-Serif" font-size="10.00">z</text>
<text text-anchor="start" x="95.12" y="-127.62" font-family="Helvetica,sans-Serif" font-size="10.00">+</text>
<text text-anchor="start" x="105.12" y="-127.62" font-family="Helvetica,sans-Serif" font-size="10.00">TTL_offset()</text>
<polygon fill="#666666" stroke="#666666" points="91.12,-184.88 91.12,-184.88 162.38,-184.88 162.38,-184.88 91.12,-184.88"/>
<polygon fill="#666666" stroke="#666666" points="91.12,-139.12 91.12,-139.12 103.12,-139.12 103.12,-139.12 91.12,-139.12"/>
<polygon fill="#666666" stroke="#666666" points="103.12,-139.12 103.12,-139.12 162.38,-139.12 162.38,-139.12 103.12,-139.12"/>
<polygon fill="none" stroke="#666666" points="91.12,-121.88 91.12,-202.12 162.38,-202.12 162.38,-121.88 91.12,-121.88"/>
</a>
</g>
</g>
<!-- Node3&#45;&gt;Node1 -->
<g id="edge2_Node000001_Node000003" class="edge">
<title>Node3&#45;&gt;Node1</title>
<g id="a_edge2_Node000001_Node000003"><a xlink:title=" ">
<path fill="none" stroke="#63b8ff" d="M117.93,-122.15C114.38,-108.35 109.89,-92.81 104.75,-79 103.95,-76.84 103.08,-74.65 102.16,-72.45"/>
<polygon fill="none" stroke="#63b8ff" points="102.22,-72.56 96.13,-68.7 97.35,-61.59 103.44,-65.46 102.22,-72.56"/>
</a>
</g>
<text text-anchor="start" x="113.01" y="-83.75" font-family="Helvetica,sans-Serif" font-size="10.00" fill="grey">+sub_offset</text>
</g>
</g>
</svg>
