<?xml version="1.0" encoding="UTF-8" standalone="no"?>
<!DOCTYPE svg PUBLIC "-//W3C//DTD SVG 1.1//EN"
 "http://www.w3.org/Graphics/SVG/1.1/DTD/svg11.dtd">
<!-- Generated by graphviz version 12.2.1 (20241206.2353)
 -->
<!-- Title: TTL.h Pages: 1 -->
<svg width="623pt" height="481pt"
 viewBox="0.00 0.00 623.02 480.50" xmlns="http://www.w3.org/2000/svg" xmlns:xlink="http://www.w3.org/1999/xlink">
<g id="graph0" class="graph" transform="scale(1 1) rotate(0) translate(4 476.5)">
<title>TTL.h</title>
<!-- Node1 -->
<g id="Node000001" class="node">
<title>Node1</title>
<g id="a_Node000001"><a xlink:title=" ">
<polygon fill="#999999" stroke="#666666" points="125.75,-472.5 84.25,-472.5 84.25,-453.25 125.75,-453.25 125.75,-472.5"/>
<text text-anchor="middle" x="105" y="-459" font-family="Helvetica,sans-Serif" font-size="10.00">TTL.h</text>
</a>
</g>
</g>
<!-- Node2 -->
<g id="Node000002" class="node">
<title>Node2</title>
<g id="a_Node000002"><a xlink:href="TTL__cpp_2TTL__macros_8h.html" target="_top" xlink:title=" ">
<polygon fill="white" stroke="#666666" points="259.5,-74.5 180.5,-74.5 180.5,-55.25 259.5,-55.25 259.5,-74.5"/>
<text text-anchor="middle" x="220" y="-61" font-family="Helvetica,sans-Serif" font-size="10.00">TTL_macros.h</text>
</a>
</g>
</g>
<!-- Node1&#45;&gt;Node2 -->
<g id="edge1_Node000001_Node000002" class="edge">
<title>Node1&#45;&gt;Node2</title>
<g id="a_edge1_Node000001_Node000002"><a xlink:title=" ">
<path fill="none" stroke="#63b8ff" d="M87.19,-452.97C57.23,-436.59 0,-398.64 0,-347.75 0,-347.75 0,-347.75 0,-174.38 0,-99.45 103.91,-76.26 168.9,-69.09"/>
<polygon fill="#63b8ff" stroke="#63b8ff" points="169.05,-72.59 178.65,-68.11 168.35,-65.63 169.05,-72.59"/>
</a>
</g>
</g>
<!-- Node3 -->
<g id="Node000003" class="node">
<title>Node3</title>
<g id="a_Node000003"><a xlink:href="TTL__cpp_2TTL__pipeline__schemes_8h.html" target="_top" xlink:title=" ">
<polygon fill="white" stroke="#666666" points="336.38,-417.25 211.62,-417.25 211.62,-398 336.38,-398 336.38,-417.25"/>
<text text-anchor="middle" x="274" y="-403.75" font-family="Helvetica,sans-Serif" font-size="10.00">TTL_pipeline_schemes.h</text>
</a>
</g>
</g>
<!-- Node1&#45;&gt;Node3 -->
<g id="edge2_Node000001_Node000003" class="edge">
<title>Node1&#45;&gt;Node3</title>
<g id="a_edge2_Node000001_Node000003"><a xlink:title=" ">
<path fill="none" stroke="#63b8ff" d="M126.06,-455.24C153.09,-446.72 200.53,-431.78 234.4,-421.1"/>
<polygon fill="#63b8ff" stroke="#63b8ff" points="235.39,-424.46 243.87,-418.12 233.28,-417.78 235.39,-424.46"/>
</a>
</g>
</g>
<!-- Node4 -->
<g id="Node000004" class="node">
<title>Node4</title>
<g id="a_Node000004"><a xlink:href="TTL__cpp_2TTL__core_8h.html" target="_top" xlink:title=" ">
<polygon fill="white" stroke="#666666" points="572.75,-295.5 507.25,-295.5 507.25,-276.25 572.75,-276.25 572.75,-295.5"/>
<text text-anchor="middle" x="540" y="-282" font-family="Helvetica,sans-Serif" font-size="10.00">TTL_core.h</text>
</a>
</g>
</g>
<!-- Node3&#45;&gt;Node4 -->
<g id="edge3_Node000003_Node000004" class="edge">
<title>Node3&#45;&gt;Node4</title>
<g id="a_edge3_Node000003_Node000004"><a xlink:title=" ">
<path fill="none" stroke="#63b8ff" d="M336.74,-403.76C403.17,-399.35 501.97,-388.44 528,-362 541.96,-347.83 543.64,-324.33 542.67,-307.38"/>
<polygon fill="#63b8ff" stroke="#63b8ff" points="546.16,-307.09 541.71,-297.47 539.19,-307.76 546.16,-307.09"/>
</a>
</g>
</g>
<!-- Node12 -->
<g id="Node000012" class="node">
<title>Node12</title>
<g id="a_Node000012"><a xlink:href="TTL__cpp_2TTL__import__export_8h.html" target="_top" xlink:title=" ">
<polygon fill="white" stroke="#666666" points="518.62,-356.38 413.38,-356.38 413.38,-337.12 518.62,-337.12 518.62,-356.38"/>
<text text-anchor="middle" x="466" y="-342.88" font-family="Helvetica,sans-Serif" font-size="10.00">TTL_import_export.h</text>
</a>
</g>
</g>
<!-- Node3&#45;&gt;Node12 -->
<g id="edge17_Node000003_Node000012" class="edge">
<title>Node3&#45;&gt;Node12</title>
<g id="a_edge17_Node000003_Node000012"><a xlink:title=" ">
<path fill="none" stroke="#63b8ff" d="M303.58,-397.55C336.28,-387.53 389.14,-371.32 425.63,-360.13"/>
<polygon fill="#63b8ff" stroke="#63b8ff" points="426.41,-363.55 434.94,-357.27 424.35,-356.86 426.41,-363.55"/>
</a>
</g>
</g>
<!-- Node15 -->
<g id="Node000015" class="node">
<title>Node15</title>
<g id="a_Node000015"><a xlink:href="p_2pipelines_2TTL__double__scheme_8h.html" target="_top" xlink:title=" ">
<polygon fill="white" stroke="#666666" points="137.5,-362 28.5,-362 28.5,-331.5 137.5,-331.5 137.5,-362"/>
<text text-anchor="start" x="36.5" y="-348.5" font-family="Helvetica,sans-Serif" font-size="10.00">pipelines/TTL_double</text>
<text text-anchor="middle" x="83" y="-337.25" font-family="Helvetica,sans-Serif" font-size="10.00">_scheme.h</text>
</a>
</g>
</g>
<!-- Node3&#45;&gt;Node15 -->
<g id="edge21_Node000003_Node000015" class="edge">
<title>Node3&#45;&gt;Node15</title>
<g id="a_edge21_Node000003_Node000015"><a xlink:title=" ">
<path fill="none" stroke="#63b8ff" d="M244.57,-397.55C217.19,-389.11 175.59,-376.29 141.46,-365.77"/>
<polygon fill="#63b8ff" stroke="#63b8ff" points="142.71,-362.49 132.12,-362.89 140.64,-369.18 142.71,-362.49"/>
</a>
</g>
</g>
<!-- Node17 -->
<g id="Node000017" class="node">
<title>Node17</title>
<g id="a_Node000017"><a xlink:href="p_2pipelines_2TTL__duplex__scheme_8h.html" target="_top" xlink:title=" ">
<polygon fill="white" stroke="#666666" points="264.12,-362 155.88,-362 155.88,-331.5 264.12,-331.5 264.12,-362"/>
<text text-anchor="start" x="163.88" y="-348.5" font-family="Helvetica,sans-Serif" font-size="10.00">pipelines/TTL_duplex</text>
<text text-anchor="middle" x="210" y="-337.25" font-family="Helvetica,sans-Serif" font-size="10.00">_scheme.h</text>
</a>
</g>
</g>
<!-- Node3&#45;&gt;Node17 -->
<g id="edge24_Node000003_Node000017" class="edge">
<title>Node3&#45;&gt;Node17</title>
<g id="a_edge24_Node000003_Node000017"><a xlink:title=" ">
<path fill="none" stroke="#63b8ff" d="M264.28,-397.68C256.3,-390.34 244.66,-379.63 234.2,-370.01"/>
<polygon fill="#63b8ff" stroke="#63b8ff" points="236.64,-367.5 226.91,-363.31 231.9,-372.65 236.64,-367.5"/>
</a>
</g>
</g>
<!-- Node18 -->
<g id="Node000018" class="node">
<title>Node18</title>
<g id="a_Node000018"><a xlink:href="p_2pipelines_2TTL__simplex__scheme_8h.html" target="_top" xlink:title=" ">
<polygon fill="white" stroke="#666666" points="395.75,-362 282.25,-362 282.25,-331.5 395.75,-331.5 395.75,-362"/>
<text text-anchor="start" x="290.25" y="-348.5" font-family="Helvetica,sans-Serif" font-size="10.00">pipelines/TTL_simplex</text>
<text text-anchor="middle" x="339" y="-337.25" font-family="Helvetica,sans-Serif" font-size="10.00">_scheme.h</text>
</a>
</g>
</g>
<!-- Node3&#45;&gt;Node18 -->
<g id="edge27_Node000003_Node000018" class="edge">
<title>Node3&#45;&gt;Node18</title>
<g id="a_edge27_Node000003_Node000018"><a xlink:title=" ">
<path fill="none" stroke="#63b8ff" d="M283.87,-397.68C291.97,-390.34 303.8,-379.63 314.42,-370.01"/>
<polygon fill="#63b8ff" stroke="#63b8ff" points="316.77,-372.61 321.83,-363.3 312.07,-367.42 316.77,-372.61"/>
</a>
</g>
</g>
<!-- Node5 -->
<g id="Node000005" class="node">
<title>Node5</title>
<g id="a_Node000005"><a xlink:title=" ">
<polygon fill="#e0e0e0" stroke="#999999" points="413.5,-240.25 280.5,-240.25 280.5,-221 413.5,-221 413.5,-240.25"/>
<text text-anchor="middle" x="347" y="-226.75" font-family="Helvetica,sans-Serif" font-size="10.00">TTL_TYPES_INCLUDE_H</text>
</a>
</g>
</g>
<!-- Node4&#45;&gt;Node5 -->
<g id="edge4_Node000004_Node000005" class="edge">
<title>Node4&#45;&gt;Node5</title>
<g id="a_edge4_Node000004_Node000005"><a xlink:title=" ">
<path fill="none" stroke="#63b8ff" d="M507.26,-275.84C475.24,-267.01 426.25,-253.49 390.87,-243.73"/>
<polygon fill="#63b8ff" stroke="#63b8ff" points="391.93,-240.39 381.36,-241.11 390.07,-247.14 391.93,-240.39"/>
</a>
</g>
</g>
<!-- Node6 -->
<g id="Node000006" class="node">
<title>Node6</title>
<g id="a_Node000006"><a xlink:href="TTL__cpp_2TTL__debug_8h.html" target="_top" xlink:title=" ">
<polygon fill="white" stroke="#666666" points="543.5,-240.25 470.5,-240.25 470.5,-221 543.5,-221 543.5,-240.25"/>
<text text-anchor="middle" x="507" y="-226.75" font-family="Helvetica,sans-Serif" font-size="10.00">TTL_debug.h</text>
</a>
</g>
</g>
<!-- Node4&#45;&gt;Node6 -->
<g id="edge5_Node000004_Node000006" class="edge">
<title>Node4&#45;&gt;Node6</title>
<g id="a_edge5_Node000004_Node000006"><a xlink:title=" ">
<path fill="none" stroke="#63b8ff" d="M534.55,-276.08C530.23,-269.11 524.04,-259.12 518.62,-250.37"/>
<polygon fill="#63b8ff" stroke="#63b8ff" points="521.61,-248.55 513.36,-241.9 515.66,-252.24 521.61,-248.55"/>
</a>
</g>
</g>
<!-- Node7 -->
<g id="Node000007" class="node">
<title>Node7</title>
<g id="a_Node000007"><a xlink:href="TTL__cpp_2TTL__tensors_8h.html" target="_top" xlink:title=" ">
<polygon fill="white" stroke="#666666" points="478.5,-185 399.5,-185 399.5,-165.75 478.5,-165.75 478.5,-185"/>
<text text-anchor="middle" x="439" y="-171.5" font-family="Helvetica,sans-Serif" font-size="10.00">TTL_tensors.h</text>
</a>
</g>
</g>
<!-- Node4&#45;&gt;Node7 -->
<g id="edge14_Node000004_Node000007" class="edge">
<title>Node4&#45;&gt;Node7</title>
<g id="a_edge14_Node000004_Node000007"><a xlink:title=" ">
<path fill="none" stroke="#63b8ff" d="M514.75,-275.84C497.74,-268.59 475.94,-256.86 462,-240.25 451.44,-227.67 445.56,-209.86 442.4,-196.24"/>
<polygon fill="#63b8ff" stroke="#63b8ff" points="445.88,-195.79 440.49,-186.67 439.01,-197.16 445.88,-195.79"/>
</a>
</g>
</g>
<!-- Node8 -->
<g id="Node000008" class="node">
<title>Node8</title>
<g id="a_Node000008"><a xlink:href="TTL__cpp_2TTL__types_8h.html" target="_top" xlink:title=" ">
<polygon fill="white" stroke="#666666" points="542,-129.75 472,-129.75 472,-110.5 542,-110.5 542,-129.75"/>
<text text-anchor="middle" x="507" y="-116.25" font-family="Helvetica,sans-Serif" font-size="10.00">TTL_types.h</text>
</a>
</g>
</g>
<!-- Node4&#45;&gt;Node8 -->
<g id="edge16_Node000004_Node000008" class="edge">
<title>Node4&#45;&gt;Node8</title>
<g id="a_edge16_Node000004_Node000008"><a xlink:title=" ">
<path fill="none" stroke="#63b8ff" d="M552.07,-276C577.87,-255.92 634,-205.66 608,-165.75 595.82,-147.05 573.82,-136.13 553.46,-129.78"/>
<polygon fill="#63b8ff" stroke="#63b8ff" points="554.42,-126.41 543.85,-127.1 552.55,-133.16 554.42,-126.41"/>
</a>
</g>
</g>
<!-- Node11 -->
<g id="Node000011" class="node">
<title>Node11</title>
<g id="a_Node000011"><a xlink:href="TTL__cpp_2TTL__tiles_8h.html" target="_top" xlink:title=" ">
<polygon fill="white" stroke="#666666" points="599.38,-185 534.62,-185 534.62,-165.75 599.38,-165.75 599.38,-185"/>
<text text-anchor="middle" x="567" y="-171.5" font-family="Helvetica,sans-Serif" font-size="10.00">TTL_tiles.h</text>
</a>
</g>
</g>
<!-- Node4&#45;&gt;Node11 -->
<g id="edge15_Node000004_Node000011" class="edge">
<title>Node4&#45;&gt;Node11</title>
<g id="a_edge15_Node000004_Node000011"><a xlink:title=" ">
<path fill="none" stroke="#63b8ff" d="M542.77,-276.03C545.53,-267.06 549.81,-252.76 553,-240.25 556.74,-225.56 560.39,-208.82 563.02,-196.17"/>
<polygon fill="#63b8ff" stroke="#63b8ff" points="566.41,-197.08 564.98,-186.58 559.55,-195.68 566.41,-197.08"/>
</a>
</g>
</g>
<!-- Node6&#45;&gt;Node7 -->
<g id="edge6_Node000006_Node000007" class="edge">
<title>Node6&#45;&gt;Node7</title>
<g id="a_edge6_Node000006_Node000007"><a xlink:title=" ">
<path fill="none" stroke="#63b8ff" d="M495.46,-220.59C485.54,-212.82 470.99,-201.42 459.14,-192.15"/>
<polygon fill="#63b8ff" stroke="#63b8ff" points="461.59,-189.62 451.56,-186.21 457.27,-195.13 461.59,-189.62"/>
</a>
</g>
</g>
<!-- Node6&#45;&gt;Node8 -->
<g id="edge13_Node000006_Node000008" class="edge">
<title>Node6&#45;&gt;Node8</title>
<g id="a_edge13_Node000006_Node000008"><a xlink:title=" ">
<path fill="none" stroke="#63b8ff" d="M507,-220.75C507,-203.5 507,-165.08 507,-141.31"/>
<polygon fill="#63b8ff" stroke="#63b8ff" points="510.5,-141.64 507,-131.64 503.5,-141.64 510.5,-141.64"/>
</a>
</g>
</g>
<!-- Node6&#45;&gt;Node11 -->
<g id="edge11_Node000006_Node000011" class="edge">
<title>Node6&#45;&gt;Node11</title>
<g id="a_edge11_Node000006_Node000011"><a xlink:title=" ">
<path fill="none" stroke="#63b8ff" d="M517.18,-220.59C525.76,-212.97 538.27,-201.87 548.6,-192.7"/>
<polygon fill="#63b8ff" stroke="#63b8ff" points="550.68,-195.54 555.84,-186.28 546.04,-190.3 550.68,-195.54"/>
</a>
</g>
</g>
<!-- Node7&#45;&gt;Node8 -->
<g id="edge7_Node000007_Node000008" class="edge">
<title>Node7&#45;&gt;Node8</title>
<g id="a_edge7_Node000007_Node000008"><a xlink:title=" ">
<path fill="none" stroke="#63b8ff" d="M450.54,-165.34C460.46,-157.57 475.01,-146.17 486.86,-136.9"/>
<polygon fill="#63b8ff" stroke="#63b8ff" points="488.73,-139.88 494.44,-130.96 484.41,-134.37 488.73,-139.88"/>
</a>
</g>
</g>
<!-- Node8&#45;&gt;Node2 -->
<g id="edge8_Node000008_Node000002" class="edge">
<title>Node8&#45;&gt;Node2</title>
<g id="a_edge8_Node000008_Node000002"><a xlink:title=" ">
<path fill="none" stroke="#63b8ff" d="M471.52,-112.54C421.04,-103.18 328.25,-85.96 270.58,-75.26"/>
<polygon fill="#63b8ff" stroke="#63b8ff" points="271.49,-71.87 261.02,-73.49 270.22,-78.75 271.49,-71.87"/>
</a>
</g>
</g>
<!-- Node9 -->
<g id="Node000009" class="node">
<title>Node9</title>
<g id="a_Node000009"><a xlink:href="TTL__strong__type_8h.html" target="_top" xlink:title=" ">
<polygon fill="white" stroke="#666666" points="555.5,-74.5 458.5,-74.5 458.5,-55.25 555.5,-55.25 555.5,-74.5"/>
<text text-anchor="middle" x="507" y="-61" font-family="Helvetica,sans-Serif" font-size="10.00">TTL_strong_type.h</text>
</a>
</g>
</g>
<!-- Node8&#45;&gt;Node9 -->
<g id="edge9_Node000008_Node000009" class="edge">
<title>Node8&#45;&gt;Node9</title>
<g id="a_edge9_Node000008_Node000009"><a xlink:title=" ">
<path fill="none" stroke="#63b8ff" d="M507,-110.33C507,-103.82 507,-94.67 507,-86.37"/>
<polygon fill="#63b8ff" stroke="#63b8ff" points="510.5,-86.37 507,-76.37 503.5,-86.37 510.5,-86.37"/>
</a>
</g>
</g>
<!-- Node10 -->
<g id="Node000010" class="node">
<title>Node10</title>
<g id="a_Node000010"><a xlink:title=" ">
<polygon fill="#e0e0e0" stroke="#999999" points="530.75,-19.25 483.25,-19.25 483.25,0 530.75,0 530.75,-19.25"/>
<text text-anchor="middle" x="507" y="-5.75" font-family="Helvetica,sans-Serif" font-size="10.00">stdint.h</text>
</a>
</g>
</g>
<!-- Node9&#45;&gt;Node10 -->
<g id="edge10_Node000009_Node000010" class="edge">
<title>Node9&#45;&gt;Node10</title>
<g id="a_edge10_Node000009_Node000010"><a xlink:title=" ">
<path fill="none" stroke="#63b8ff" d="M507,-55.08C507,-48.57 507,-39.42 507,-31.12"/>
<polygon fill="#63b8ff" stroke="#63b8ff" points="510.5,-31.12 507,-21.12 503.5,-31.12 510.5,-31.12"/>
</a>
</g>
</g>
<!-- Node11&#45;&gt;Node8 -->
<g id="edge12_Node000011_Node000008" class="edge">
<title>Node11&#45;&gt;Node8</title>
<g id="a_edge12_Node000011_Node000008"><a xlink:title=" ">
<path fill="none" stroke="#63b8ff" d="M556.82,-165.34C548.24,-157.72 535.73,-146.62 525.4,-137.45"/>
<polygon fill="#63b8ff" stroke="#63b8ff" points="527.96,-135.05 518.16,-131.03 523.32,-140.29 527.96,-135.05"/>
</a>
</g>
</g>
<!-- Node12&#45;&gt;Node4 -->
<g id="edge18_Node000012_Node000004" class="edge">
<title>Node12&#45;&gt;Node4</title>
<g id="a_edge18_Node000012_Node000004"><a xlink:title=" ">
<path fill="none" stroke="#63b8ff" d="M477.24,-336.81C488.54,-327.82 506.21,-313.76 519.92,-302.85"/>
<polygon fill="#63b8ff" stroke="#63b8ff" points="521.82,-305.81 527.47,-296.84 517.47,-300.33 521.82,-305.81"/>
</a>
</g>
</g>
<!-- Node13 -->
<g id="Node000013" class="node">
<title>Node13</title>
<g id="a_Node000013"><a xlink:href="TTL__cpp_2opencl_2TTL__import__export_8h.html" target="_top" xlink:title=" ">
<polygon fill="white" stroke="#666666" points="489.38,-295.5 352.62,-295.5 352.62,-276.25 489.38,-276.25 489.38,-295.5"/>
<text text-anchor="middle" x="421" y="-282" font-family="Helvetica,sans-Serif" font-size="10.00">opencl/TTL_import_export.h</text>
</a>
</g>
</g>
<!-- Node12&#45;&gt;Node13 -->
<g id="edge19_Node000012_Node000013" class="edge">
<title>Node12&#45;&gt;Node13</title>
<g id="a_edge19_Node000012_Node000013"><a xlink:title=" ">
<path fill="none" stroke="#63b8ff" d="M459.17,-336.81C452.69,-328.34 442.78,-315.37 434.68,-304.77"/>
<polygon fill="#63b8ff" stroke="#63b8ff" points="437.67,-302.92 428.82,-297.1 432.11,-307.17 437.67,-302.92"/>
</a>
</g>
</g>
<!-- Node14 -->
<g id="Node000014" class="node">
<title>Node14</title>
<g id="a_Node000014"><a xlink:href="TTL__c_2TTL__macros_8h.html" target="_top" xlink:title=" ">
<polygon fill="white" stroke="#666666" points="249.75,-240.25 118.25,-240.25 118.25,-221 249.75,-221 249.75,-240.25"/>
<text text-anchor="middle" x="184" y="-226.75" font-family="Helvetica,sans-Serif" font-size="10.00">TTL/TTL_c/TTL_macros.h</text>
</a>
</g>
</g>
<!-- Node13&#45;&gt;Node14 -->
<g id="edge20_Node000013_Node000014" class="edge">
<title>Node13&#45;&gt;Node14</title>
<g id="a_edge20_Node000013_Node000014"><a xlink:title=" ">
<path fill="none" stroke="#63b8ff" d="M380.53,-275.78C340.48,-266.78 279.02,-252.98 235.51,-243.2"/>
<polygon fill="#63b8ff" stroke="#63b8ff" points="236.31,-239.79 225.78,-241.01 234.77,-246.62 236.31,-239.79"/>
</a>
</g>
</g>
<!-- Node15&#45;&gt;Node14 -->
<g id="edge22_Node000015_Node000014" class="edge">
<title>Node15&#45;&gt;Node14</title>
<g id="a_edge22_Node000015_Node000014"><a xlink:title=" ">
<path fill="none" stroke="#63b8ff" d="M95.79,-331.3C114.28,-310.41 148.42,-271.82 168.38,-249.28"/>
<polygon fill="#63b8ff" stroke="#63b8ff" points="170.96,-251.64 174.97,-241.83 165.72,-247 170.96,-251.64"/>
</a>
</g>
</g>
<!-- Node16 -->
<g id="Node000016" class="node">
<title>Node16</title>
<g id="a_Node000016"><a xlink:href="p_2pipelines_2TTL__schemes__common_8h.html" target="_top" xlink:title=" ">
<polygon fill="white" stroke="#666666" points="296.62,-295.5 167.38,-295.5 167.38,-276.25 296.62,-276.25 296.62,-295.5"/>
<text text-anchor="middle" x="232" y="-282" font-family="Helvetica,sans-Serif" font-size="10.00">TTL_schemes_common.h</text>
</a>
</g>
</g>
<!-- Node15&#45;&gt;Node16 -->
<g id="edge23_Node000015_Node000016" class="edge">
<title>Node15&#45;&gt;Node16</title>
<g id="a_edge23_Node000015_Node000016"><a xlink:title=" ">
<path fill="none" stroke="#63b8ff" d="M120.21,-331.05C144.32,-321.52 175.45,-309.22 198.74,-300.02"/>
<polygon fill="#63b8ff" stroke="#63b8ff" points="199.73,-303.39 207.74,-296.46 197.16,-296.88 199.73,-303.39"/>
</a>
</g>
</g>
<!-- Node17&#45;&gt;Node14 -->
<g id="edge25_Node000017_Node000014" class="edge">
<title>Node17&#45;&gt;Node14</title>
<g id="a_edge25_Node000017_Node000014"><a xlink:title=" ">
<path fill="none" stroke="#63b8ff" d="M187.9,-331.09C176.67,-322.27 164.13,-309.95 158,-295.5 151.37,-279.87 160.07,-261.95 169.14,-249.08"/>
<polygon fill="#63b8ff" stroke="#63b8ff" points="171.63,-251.58 174.98,-241.53 166.09,-247.3 171.63,-251.58"/>
</a>
</g>
</g>
<!-- Node17&#45;&gt;Node16 -->
<g id="edge26_Node000017_Node000016" class="edge">
<title>Node17&#45;&gt;Node16</title>
<g id="a_edge26_Node000017_Node000016"><a xlink:title=" ">
<path fill="none" stroke="#63b8ff" d="M215.44,-331.2C218.21,-323.78 221.62,-314.66 224.62,-306.63"/>
<polygon fill="#63b8ff" stroke="#63b8ff" points="227.86,-307.96 228.08,-297.37 221.3,-305.51 227.86,-307.96"/>
</a>
</g>
</g>
<!-- Node18&#45;&gt;Node14 -->
<g id="edge28_Node000018_Node000014" class="edge">
<title>Node18&#45;&gt;Node14</title>
<g id="a_edge28_Node000018_Node000014"><a xlink:title=" ">
<path fill="none" stroke="#63b8ff" d="M335.63,-331.28C331.29,-315.68 322.29,-291.1 306,-276.25 289.04,-260.79 266.28,-250.57 245.02,-243.87"/>
<polygon fill="#63b8ff" stroke="#63b8ff" points="246.11,-240.54 235.53,-241.1 244.15,-247.26 246.11,-240.54"/>
</a>
</g>
</g>
<!-- Node18&#45;&gt;Node16 -->
<g id="edge29_Node000018_Node000016" class="edge">
<title>Node18&#45;&gt;Node16</title>
<g id="a_edge29_Node000018_Node000016"><a xlink:title=" ">
<path fill="none" stroke="#63b8ff" d="M312.28,-331.05C295.82,-321.99 274.82,-310.44 258.42,-301.41"/>
<polygon fill="#63b8ff" stroke="#63b8ff" points="260.18,-298.39 249.74,-296.63 256.81,-304.52 260.18,-298.39"/>
</a>
</g>
</g>
</g>
</svg>
