<?xml version="1.0" encoding="UTF-8" standalone="no"?>
<!DOCTYPE svg PUBLIC "-//W3C//DTD SVG 1.1//EN"
 "http://www.w3.org/Graphics/SVG/1.1/DTD/svg11.dtd">
<!-- Generated by graphviz version 12.2.1 (20241206.2353)
 -->
<!-- Title: TTL_macros.h Pages: 1 -->
<svg width="482pt" height="248pt"
 viewBox="0.00 0.00 482.25 248.25" xmlns="http://www.w3.org/2000/svg" xmlns:xlink="http://www.w3.org/1999/xlink">
<g id="graph0" class="graph" transform="scale(1 1) rotate(0) translate(4 244.25)">
<title>TTL_macros.h</title>
<!-- Node1 -->
<g id="Node000001" class="node">
<title>Node1</title>
<g id="a_Node000001"><a xlink:title=" ">
<polygon fill="#999999" stroke="#666666" points="247,-240.25 168,-240.25 168,-221 247,-221 247,-240.25"/>
<text text-anchor="middle" x="207.5" y="-226.75" font-family="Helvetica,sans-Serif" font-size="10.00">TTL_macros.h</text>
</a>
</g>
</g>
<!-- Node2 -->
<g id="Node000002" class="node">
<title>Node2</title>
<g id="a_Node000002"><a xlink:href="p_2pipelines_2TTL__double__scheme_8h.html" target="_top" xlink:title=" ">
<polygon fill="white" stroke="#666666" points="115,-129.75 0,-129.75 0,-110.5 115,-110.5 115,-129.75"/>
<text text-anchor="middle" x="57.5" y="-116.25" font-family="Helvetica,sans-Serif" font-size="10.00">TTL_double_scheme.h</text>
</a>
</g>
</g>
<!-- Node1&#45;&gt;Node2 -->
<g id="edge1_Node000001_Node000002" class="edge">
<title>Node1&#45;&gt;Node2</title>
<g id="a_edge1_Node000001_Node000002"><a xlink:title=" ">
<path fill="none" stroke="#63b8ff" d="M156.64,-223.34C129.85,-217.54 98.32,-206.4 77.5,-185 62.59,-169.68 58.78,-143.38 57.82,-129.8"/>
<polygon fill="#63b8ff" stroke="#63b8ff" points="155.81,-226.74 166.3,-225.22 157.15,-219.87 155.81,-226.74"/>
</a>
</g>
</g>
<!-- Node5 -->
<g id="Node000005" class="node">
<title>Node5</title>
<g id="a_Node000005"><a xlink:href="p_2pipelines_2TTL__duplex__scheme_8h.html" target="_top" xlink:title=" ">
<polygon fill="white" stroke="#666666" points="200.62,-185 86.38,-185 86.38,-165.75 200.62,-165.75 200.62,-185"/>
<text text-anchor="middle" x="143.5" y="-171.5" font-family="Helvetica,sans-Serif" font-size="10.00">TTL_duplex_scheme.h</text>
</a>
</g>
</g>
<!-- Node1&#45;&gt;Node5 -->
<g id="edge4_Node000001_Node000005" class="edge">
<title>Node1&#45;&gt;Node5</title>
<g id="a_edge4_Node000001_Node000005"><a xlink:title=" ">
<path fill="none" stroke="#63b8ff" d="M188.02,-213.41C176.9,-204.17 163.4,-192.93 154.2,-185.27"/>
<polygon fill="#63b8ff" stroke="#63b8ff" points="185.55,-215.92 195.48,-219.62 190.03,-210.54 185.55,-215.92"/>
</a>
</g>
</g>
<!-- Node6 -->
<g id="Node000006" class="node">
<title>Node6</title>
<g id="a_Node000006"><a xlink:href="TTL__cpp_2opencl_2TTL__import__export_8h.html" target="_top" xlink:title=" ">
<polygon fill="white" stroke="#666666" points="324.12,-185 218.88,-185 218.88,-165.75 324.12,-165.75 324.12,-185"/>
<text text-anchor="middle" x="271.5" y="-171.5" font-family="Helvetica,sans-Serif" font-size="10.00">TTL_import_export.h</text>
</a>
</g>
</g>
<!-- Node1&#45;&gt;Node6 -->
<g id="edge6_Node000001_Node000006" class="edge">
<title>Node1&#45;&gt;Node6</title>
<g id="a_edge6_Node000001_Node000006"><a xlink:title=" ">
<path fill="none" stroke="#63b8ff" d="M226.98,-213.41C238.1,-204.17 251.6,-192.93 260.8,-185.27"/>
<polygon fill="#63b8ff" stroke="#63b8ff" points="224.97,-210.54 219.52,-219.62 229.45,-215.92 224.97,-210.54"/>
</a>
</g>
</g>
<!-- Node9 -->
<g id="Node000009" class="node">
<title>Node9</title>
<g id="a_Node000009"><a xlink:href="p_2pipelines_2TTL__simplex__scheme_8h.html" target="_top" xlink:title=" ">
<polygon fill="white" stroke="#666666" points="474.25,-185 354.75,-185 354.75,-165.75 474.25,-165.75 474.25,-185"/>
<text text-anchor="middle" x="414.5" y="-171.5" font-family="Helvetica,sans-Serif" font-size="10.00">TTL_simplex_scheme.h</text>
</a>
</g>
</g>
<!-- Node1&#45;&gt;Node9 -->
<g id="edge10_Node000001_Node000009" class="edge">
<title>Node1&#45;&gt;Node9</title>
<g id="a_edge10_Node000001_Node000009"><a xlink:title=" ">
<path fill="none" stroke="#63b8ff" d="M253.38,-217.82C291.35,-208.05 344.51,-194.38 379.21,-185.45"/>
<polygon fill="#63b8ff" stroke="#63b8ff" points="252.89,-214.33 244.08,-220.21 254.64,-221.11 252.89,-214.33"/>
</a>
</g>
</g>
<!-- Node3 -->
<g id="Node000003" class="node">
<title>Node3</title>
<g id="a_Node000003"><a xlink:href="TTL__cpp_2TTL__pipeline__schemes_8h.html" target="_top" xlink:title=" ">
<polygon fill="white" stroke="#666666" points="307.88,-74.5 183.12,-74.5 183.12,-55.25 307.88,-55.25 307.88,-74.5"/>
<text text-anchor="middle" x="245.5" y="-61" font-family="Helvetica,sans-Serif" font-size="10.00">TTL_pipeline_schemes.h</text>
</a>
</g>
</g>
<!-- Node2&#45;&gt;Node3 -->
<g id="edge2_Node000002_Node000003" class="edge">
<title>Node2&#45;&gt;Node3</title>
<g id="a_edge2_Node000002_Node000003"><a xlink:title=" ">
<path fill="none" stroke="#63b8ff" d="M100.06,-107.07C134.48,-97.32 182.2,-83.8 213.45,-74.95"/>
<polygon fill="#63b8ff" stroke="#63b8ff" points="99.52,-103.59 90.85,-109.68 101.42,-110.32 99.52,-103.59"/>
</a>
</g>
</g>
<!-- Node4 -->
<g id="Node000004" class="node">
<title>Node4</title>
<g id="a_Node000004"><a xlink:href="TTL__cpp_2TTL_8h.html" target="_top" xlink:title=" ">
<polygon fill="white" stroke="#666666" points="266.25,-19.25 224.75,-19.25 224.75,0 266.25,0 266.25,-19.25"/>
<text text-anchor="middle" x="245.5" y="-5.75" font-family="Helvetica,sans-Serif" font-size="10.00">TTL.h</text>
</a>
</g>
</g>
<!-- Node3&#45;&gt;Node4 -->
<g id="edge3_Node000003_Node000004" class="edge">
<title>Node3&#45;&gt;Node4</title>
<g id="a_edge3_Node000003_Node000004"><a xlink:title=" ">
<path fill="none" stroke="#63b8ff" d="M245.5,-43.63C245.5,-35.34 245.5,-26.17 245.5,-19.61"/>
<polygon fill="#63b8ff" stroke="#63b8ff" points="242,-43.57 245.5,-53.57 249,-43.57 242,-43.57"/>
</a>
</g>
</g>
<!-- Node5&#45;&gt;Node3 -->
<g id="edge5_Node000005_Node000003" class="edge">
<title>Node5&#45;&gt;Node3</title>
<g id="a_edge5_Node000005_Node000003"><a xlink:title=" ">
<path fill="none" stroke="#63b8ff" d="M145.4,-154.46C147.59,-140.82 152.32,-123 162.5,-110.5 176.44,-93.37 198.76,-81.9 216.75,-74.88"/>
<polygon fill="#63b8ff" stroke="#63b8ff" points="141.97,-153.68 144.2,-164.04 148.92,-154.55 141.97,-153.68"/>
</a>
</g>
</g>
<!-- Node7 -->
<g id="Node000007" class="node">
<title>Node7</title>
<g id="a_Node000007"><a xlink:href="TTL__cpp_2c_2TTL__import__export_8h.html" target="_top" xlink:title=" ">
<polygon fill="white" stroke="#666666" points="277.12,-129.75 171.88,-129.75 171.88,-110.5 277.12,-110.5 277.12,-129.75"/>
<text text-anchor="middle" x="224.5" y="-116.25" font-family="Helvetica,sans-Serif" font-size="10.00">TTL_import_export.h</text>
</a>
</g>
</g>
<!-- Node6&#45;&gt;Node7 -->
<g id="edge7_Node000006_Node000007" class="edge">
<title>Node6&#45;&gt;Node7</title>
<g id="a_edge7_Node000006_Node000007"><a xlink:title=" ">
<path fill="none" stroke="#63b8ff" d="M256.17,-157.01C248.25,-148.03 238.9,-137.45 232.43,-130.11"/>
<polygon fill="#63b8ff" stroke="#63b8ff" points="253.5,-159.27 262.74,-164.45 258.74,-154.63 253.5,-159.27"/>
</a>
</g>
</g>
<!-- Node8 -->
<g id="Node000008" class="node">
<title>Node8</title>
<g id="a_Node000008"><a xlink:href="TTL__cpp_2TTL__import__export_8h.html" target="_top" xlink:title=" ">
<polygon fill="white" stroke="#666666" points="400.12,-129.75 294.88,-129.75 294.88,-110.5 400.12,-110.5 400.12,-129.75"/>
<text text-anchor="middle" x="347.5" y="-116.25" font-family="Helvetica,sans-Serif" font-size="10.00">TTL_import_export.h</text>
</a>
</g>
</g>
<!-- Node6&#45;&gt;Node8 -->
<g id="edge8_Node000006_Node000008" class="edge">
<title>Node6&#45;&gt;Node8</title>
<g id="a_edge8_Node000006_Node000008"><a xlink:title=" ">
<path fill="none" stroke="#63b8ff" d="M293.79,-158.76C307.04,-149.47 323.39,-138.02 334.54,-130.2"/>
<polygon fill="#63b8ff" stroke="#63b8ff" points="291.81,-155.87 285.63,-164.47 295.83,-161.6 291.81,-155.87"/>
</a>
</g>
</g>
<!-- Node8&#45;&gt;Node3 -->
<g id="edge9_Node000008_Node000003" class="edge">
<title>Node8&#45;&gt;Node3</title>
<g id="a_edge9_Node000008_Node000003"><a xlink:title=" ">
<path fill="none" stroke="#63b8ff" d="M320.17,-104.86C301.97,-95.36 278.59,-83.15 262.89,-74.95"/>
<polygon fill="#63b8ff" stroke="#63b8ff" points="318.37,-107.87 328.86,-109.39 321.61,-101.66 318.37,-107.87"/>
</a>
</g>
</g>
<!-- Node9&#45;&gt;Node3 -->
<g id="edge11_Node000009_Node000003" class="edge">
<title>Node9&#45;&gt;Node3</title>
<g id="a_edge11_Node000009_Node000003"><a xlink:title=" ">
<path fill="none" stroke="#63b8ff" d="M418.49,-154.11C419.99,-140.3 419.39,-122.44 409.5,-110.5 396.14,-94.36 347.14,-82.4 306.15,-74.94"/>
<polygon fill="#63b8ff" stroke="#63b8ff" points="415.05,-153.44 416.96,-163.86 421.97,-154.53 415.05,-153.44"/>
</a>
</g>
</g>
</g>
</svg>
