<?xml version="1.0" encoding="UTF-8" standalone="no"?>
<!DOCTYPE svg PUBLIC "-//W3C//DTD SVG 1.1//EN"
 "http://www.w3.org/Graphics/SVG/1.1/DTD/svg11.dtd">
<!-- Generated by graphviz version 12.2.1 (20241206.2353)
 -->
<!-- Title: TTL_macros.h Pages: 1 -->
<svg width="252pt" height="414pt"
 viewBox="0.00 0.00 251.94 414.00" xmlns="http://www.w3.org/2000/svg" xmlns:xlink="http://www.w3.org/1999/xlink">
<g id="graph0" class="graph" transform="scale(1 1) rotate(0) translate(4 410)">
<title>TTL_macros.h</title>
<!-- Node1 -->
<g id="Node000001" class="node">
<title>Node1</title>
<g id="a_Node000001"><a xlink:title=" ">
<polygon fill="#999999" stroke="#666666" points="107.5,-406 28.5,-406 28.5,-386.75 107.5,-386.75 107.5,-406"/>
<text text-anchor="middle" x="68" y="-392.5" font-family="Helvetica,sans-Serif" font-size="10.00">TTL_macros.h</text>
</a>
</g>
</g>
<!-- Node2 -->
<g id="Node000002" class="node">
<title>Node2</title>
<g id="a_Node000002"><a xlink:href="TTL__cpp_2TTL_8h.html" target="_top" xlink:title=" ">
<polygon fill="white" stroke="#666666" points="65.75,-19.25 24.25,-19.25 24.25,0 65.75,0 65.75,-19.25"/>
<text text-anchor="middle" x="45" y="-5.75" font-family="Helvetica,sans-Serif" font-size="10.00">TTL.h</text>
</a>
</g>
</g>
<!-- Node1&#45;&gt;Node2 -->
<g id="edge1_Node000001_Node000002" class="edge">
<title>Node1&#45;&gt;Node2</title>
<g id="a_edge1_Node000001_Node000002"><a xlink:title=" ">
<path fill="none" stroke="#63b8ff" d="M49.15,-378.7C29.02,-358.97 0,-324.06 0,-286.88 0,-286.88 0,-286.88 0,-119.12 0,-79.56 25.84,-37.65 38.36,-19.67"/>
<polygon fill="#63b8ff" stroke="#63b8ff" points="46.59,-381.1 56.27,-385.39 51.38,-375.99 46.59,-381.1"/>
</a>
</g>
</g>
<!-- Node3 -->
<g id="Node000003" class="node">
<title>Node3</title>
<g id="a_Node000003"><a xlink:href="TTL__cpp_2TTL__types_8h.html" target="_top" xlink:title=" ">
<polygon fill="white" stroke="#666666" points="171,-350.75 101,-350.75 101,-331.5 171,-331.5 171,-350.75"/>
<text text-anchor="middle" x="136" y="-337.25" font-family="Helvetica,sans-Serif" font-size="10.00">TTL_types.h</text>
</a>
</g>
</g>
<!-- Node1&#45;&gt;Node3 -->
<g id="edge2_Node000001_Node000003" class="edge">
<title>Node1&#45;&gt;Node3</title>
<g id="a_edge2_Node000001_Node000003"><a xlink:title=" ">
<path fill="none" stroke="#63b8ff" d="M88.35,-379.44C100.22,-370.14 114.76,-358.76 124.64,-351.02"/>
<polygon fill="#63b8ff" stroke="#63b8ff" points="86.44,-376.49 80.73,-385.41 90.76,-382 86.44,-376.49"/>
</a>
</g>
</g>
<!-- Node4 -->
<g id="Node000004" class="node">
<title>Node4</title>
<g id="a_Node000004"><a xlink:href="TTL__cpp_2TTL__core_8h.html" target="_top" xlink:title=" ">
<polygon fill="white" stroke="#666666" points="182.75,-185 117.25,-185 117.25,-165.75 182.75,-165.75 182.75,-185"/>
<text text-anchor="middle" x="150" y="-171.5" font-family="Helvetica,sans-Serif" font-size="10.00">TTL_core.h</text>
</a>
</g>
</g>
<!-- Node3&#45;&gt;Node4 -->
<g id="edge3_Node000003_Node000004" class="edge">
<title>Node3&#45;&gt;Node4</title>
<g id="a_edge3_Node000003_Node000004"><a xlink:title=" ">
<path fill="none" stroke="#63b8ff" d="M182.46,-331.47C202.82,-325.12 224.82,-314.2 237,-295.5 264.68,-253.01 197.5,-204.99 165.64,-185.41"/>
<polygon fill="#63b8ff" stroke="#63b8ff" points="181.55,-328.09 172.85,-334.15 183.42,-334.84 181.55,-328.09"/>
</a>
</g>
</g>
<!-- Node7 -->
<g id="Node000007" class="node">
<title>Node7</title>
<g id="a_Node000007"><a xlink:href="TTL__cpp_2TTL__debug_8h.html" target="_top" xlink:title=" ">
<polygon fill="white" stroke="#666666" points="171.5,-240.25 98.5,-240.25 98.5,-221 171.5,-221 171.5,-240.25"/>
<text text-anchor="middle" x="135" y="-226.75" font-family="Helvetica,sans-Serif" font-size="10.00">TTL_debug.h</text>
</a>
</g>
</g>
<!-- Node3&#45;&gt;Node7 -->
<g id="edge8_Node000003_Node000007" class="edge">
<title>Node3&#45;&gt;Node7</title>
<g id="a_edge8_Node000003_Node000007"><a xlink:title=" ">
<path fill="none" stroke="#63b8ff" d="M135.81,-319.78C135.59,-296.05 135.24,-257.89 135.08,-240.63"/>
<polygon fill="#63b8ff" stroke="#63b8ff" points="132.31,-319.77 135.9,-329.73 139.31,-319.7 132.31,-319.77"/>
</a>
</g>
</g>
<!-- Node8 -->
<g id="Node000008" class="node">
<title>Node8</title>
<g id="a_Node000008"><a xlink:href="TTL__cpp_2TTL__tensors_8h.html" target="_top" xlink:title=" ">
<polygon fill="white" stroke="#666666" points="107.5,-295.5 28.5,-295.5 28.5,-276.25 107.5,-276.25 107.5,-295.5"/>
<text text-anchor="middle" x="68" y="-282" font-family="Helvetica,sans-Serif" font-size="10.00">TTL_tensors.h</text>
</a>
</g>
</g>
<!-- Node3&#45;&gt;Node8 -->
<g id="edge10_Node000003_Node000008" class="edge">
<title>Node3&#45;&gt;Node8</title>
<g id="a_edge10_Node000003_Node000008"><a xlink:title=" ">
<path fill="none" stroke="#63b8ff" d="M115.65,-324.19C103.78,-314.89 89.24,-303.51 79.36,-295.77"/>
<polygon fill="#63b8ff" stroke="#63b8ff" points="113.24,-326.75 123.27,-330.16 117.56,-321.24 113.24,-326.75"/>
</a>
</g>
</g>
<!-- Node9 -->
<g id="Node000009" class="node">
<title>Node9</title>
<g id="a_Node000009"><a xlink:href="TTL__cpp_2TTL__tiles_8h.html" target="_top" xlink:title=" ">
<polygon fill="white" stroke="#666666" points="228.38,-295.5 163.62,-295.5 163.62,-276.25 228.38,-276.25 228.38,-295.5"/>
<text text-anchor="middle" x="196" y="-282" font-family="Helvetica,sans-Serif" font-size="10.00">TTL_tiles.h</text>
</a>
</g>
</g>
<!-- Node3&#45;&gt;Node9 -->
<g id="edge13_Node000003_Node000009" class="edge">
<title>Node3&#45;&gt;Node9</title>
<g id="a_edge13_Node000003_Node000009"><a xlink:title=" ">
<path fill="none" stroke="#63b8ff" d="M154.58,-323.64C164.94,-314.44 177.43,-303.35 185.97,-295.77"/>
<polygon fill="#63b8ff" stroke="#63b8ff" points="152.47,-320.83 147.31,-330.09 157.11,-326.07 152.47,-320.83"/>
</a>
</g>
</g>
<!-- Node5 -->
<g id="Node000005" class="node">
<title>Node5</title>
<g id="a_Node000005"><a xlink:href="TTL__cpp_2TTL__import__export_8h.html" target="_top" xlink:title=" ">
<polygon fill="white" stroke="#666666" points="138.62,-129.75 33.38,-129.75 33.38,-110.5 138.62,-110.5 138.62,-129.75"/>
<text text-anchor="middle" x="86" y="-116.25" font-family="Helvetica,sans-Serif" font-size="10.00">TTL_import_export.h</text>
</a>
</g>
</g>
<!-- Node4&#45;&gt;Node5 -->
<g id="edge4_Node000004_Node000005" class="edge">
<title>Node4&#45;&gt;Node5</title>
<g id="a_edge4_Node000004_Node000005"><a xlink:title=" ">
<path fill="none" stroke="#63b8ff" d="M130.52,-158.16C119.4,-148.92 105.9,-137.68 96.7,-130.02"/>
<polygon fill="#63b8ff" stroke="#63b8ff" points="128.05,-160.67 137.98,-164.37 132.53,-155.29 128.05,-160.67"/>
</a>
</g>
</g>
<!-- Node6 -->
<g id="Node000006" class="node">
<title>Node6</title>
<g id="a_Node000006"><a xlink:href="TTL__cpp_2TTL__pipeline__schemes_8h.html" target="_top" xlink:title=" ">
<polygon fill="white" stroke="#666666" points="152.38,-74.5 27.63,-74.5 27.63,-55.25 152.38,-55.25 152.38,-74.5"/>
<text text-anchor="middle" x="90" y="-61" font-family="Helvetica,sans-Serif" font-size="10.00">TTL_pipeline_schemes.h</text>
</a>
</g>
</g>
<!-- Node4&#45;&gt;Node6 -->
<g id="edge7_Node000004_Node000006" class="edge">
<title>Node4&#45;&gt;Node6</title>
<g id="a_edge7_Node000004_Node000006"><a xlink:title=" ">
<path fill="none" stroke="#63b8ff" d="M153.61,-154.4C155.01,-141.22 154.9,-123.97 148,-110.5 139.78,-94.44 122.83,-82.47 109.37,-74.99"/>
<polygon fill="#63b8ff" stroke="#63b8ff" points="150.19,-153.63 152.2,-164.03 157.12,-154.64 150.19,-153.63"/>
</a>
</g>
</g>
<!-- Node5&#45;&gt;Node6 -->
<g id="edge5_Node000005_Node000006" class="edge">
<title>Node5&#45;&gt;Node6</title>
<g id="a_edge5_Node000005_Node000006"><a xlink:title=" ">
<path fill="none" stroke="#63b8ff" d="M87.52,-98.88C88.14,-90.59 88.83,-81.42 89.33,-74.86"/>
<polygon fill="#63b8ff" stroke="#63b8ff" points="84.03,-98.59 86.77,-108.82 91.01,-99.11 84.03,-98.59"/>
</a>
</g>
</g>
<!-- Node6&#45;&gt;Node2 -->
<g id="edge6_Node000006_Node000002" class="edge">
<title>Node6&#45;&gt;Node2</title>
<g id="a_edge6_Node000006_Node000002"><a xlink:title=" ">
<path fill="none" stroke="#63b8ff" d="M75.32,-46.51C67.74,-37.53 58.79,-26.95 52.59,-19.61"/>
<polygon fill="#63b8ff" stroke="#63b8ff" points="72.46,-48.55 81.59,-53.93 77.81,-44.03 72.46,-48.55"/>
</a>
</g>
</g>
<!-- Node7&#45;&gt;Node4 -->
<g id="edge9_Node000007_Node000004" class="edge">
<title>Node7&#45;&gt;Node4</title>
<g id="a_edge9_Node000007_Node000004"><a xlink:title=" ">
<path fill="none" stroke="#63b8ff" d="M140.54,-209.96C142.92,-201.52 145.58,-192.08 147.47,-185.36"/>
<polygon fill="#63b8ff" stroke="#63b8ff" points="137.23,-208.8 137.89,-219.38 143.97,-210.7 137.23,-208.8"/>
</a>
</g>
</g>
<!-- Node8&#45;&gt;Node4 -->
<g id="edge11_Node000008_Node000004" class="edge">
<title>Node8&#45;&gt;Node4</title>
<g id="a_edge11_Node000008_Node000004"><a xlink:title=" ">
<path fill="none" stroke="#63b8ff" d="M71.64,-264.94C74.81,-251.56 80.46,-234.05 90,-221 101.27,-205.6 119.38,-193.17 132.76,-185.38"/>
<polygon fill="#63b8ff" stroke="#63b8ff" points="68.29,-263.85 69.68,-274.35 75.14,-265.28 68.29,-263.85"/>
</a>
</g>
</g>
<!-- Node8&#45;&gt;Node7 -->
<g id="edge12_Node000008_Node000007" class="edge">
<title>Node8&#45;&gt;Node7</title>
<g id="a_edge12_Node000008_Node000007"><a xlink:title=" ">
<path fill="none" stroke="#63b8ff" d="M88.05,-268.94C99.75,-259.64 114.07,-248.26 123.8,-240.52"/>
<polygon fill="#63b8ff" stroke="#63b8ff" points="86.2,-265.94 80.55,-274.9 90.56,-271.42 86.2,-265.94"/>
</a>
</g>
</g>
<!-- Node9&#45;&gt;Node4 -->
<g id="edge14_Node000009_Node000004" class="edge">
<title>Node9&#45;&gt;Node4</title>
<g id="a_edge14_Node000009_Node000004"><a xlink:title=" ">
<path fill="none" stroke="#63b8ff" d="M193.23,-264.54C191,-251.67 187.19,-234.89 181,-221 175.01,-207.56 164.81,-193.93 157.76,-185.33"/>
<polygon fill="#63b8ff" stroke="#63b8ff" points="189.76,-265.01 194.74,-274.36 196.68,-263.95 189.76,-265.01"/>
</a>
</g>
</g>
<!-- Node9&#45;&gt;Node7 -->
<g id="edge15_Node000009_Node000007" class="edge">
<title>Node9&#45;&gt;Node7</title>
<g id="a_edge15_Node000009_Node000007"><a xlink:title=" ">
<path fill="none" stroke="#63b8ff" d="M177.11,-268.39C166.58,-259.19 153.88,-248.1 145.19,-240.52"/>
<polygon fill="#63b8ff" stroke="#63b8ff" points="174.68,-270.91 184.51,-274.85 179.28,-265.63 174.68,-270.91"/>
</a>
</g>
</g>
</g>
</svg>
