<?xml version="1.0" encoding="UTF-8" standalone="no"?>
<!DOCTYPE svg PUBLIC "-//W3C//DTD SVG 1.1//EN"
 "http://www.w3.org/Graphics/SVG/1.1/DTD/svg11.dtd">
<!-- Generated by graphviz version 12.2.1 (20241206.2353)
 -->
<!-- Title: TTL_types.h Pages: 1 -->
<svg width="320pt" height="149pt"
 viewBox="0.00 0.00 320.25 149.00" xmlns="http://www.w3.org/2000/svg" xmlns:xlink="http://www.w3.org/1999/xlink">
<g id="graph0" class="graph" transform="scale(1 1) rotate(0) translate(4 145)">
<title>TTL_types.h</title>
<!-- Node1 -->
<g id="Node000001" class="node">
<title>Node1</title>
<g id="a_Node000001"><a xlink:title=" ">
<polygon fill="#999999" stroke="#666666" points="166.5,-141 96.5,-141 96.5,-121.75 166.5,-121.75 166.5,-141"/>
<text text-anchor="middle" x="131.5" y="-127.5" font-family="Helvetica,sans-Serif" font-size="10.00">TTL_types.h</text>
</a>
</g>
</g>
<!-- Node2 -->
<g id="Node000002" class="node">
<title>Node2</title>
<g id="a_Node000002"><a xlink:title=" ">
<polygon fill="#e0e0e0" stroke="#999999" points="55,-80.12 0,-80.12 0,-60.88 55,-60.88 55,-80.12"/>
<text text-anchor="middle" x="27.5" y="-66.62" font-family="Helvetica,sans-Serif" font-size="10.00">stdbool.h</text>
</a>
</g>
</g>
<!-- Node1&#45;&gt;Node2 -->
<g id="edge1_Node000001_Node000002" class="edge">
<title>Node1&#45;&gt;Node2</title>
<g id="a_edge1_Node000001_Node000002"><a xlink:title=" ">
<path fill="none" stroke="#63b8ff" d="M115.7,-121.43C99.14,-112.05 72.83,-97.16 53.25,-86.08"/>
<polygon fill="#63b8ff" stroke="#63b8ff" points="55.19,-83.15 44.76,-81.27 51.74,-89.24 55.19,-83.15"/>
</a>
</g>
</g>
<!-- Node3 -->
<g id="Node000003" class="node">
<title>Node3</title>
<g id="a_Node000003"><a xlink:title=" ">
<polygon fill="#e0e0e0" stroke="#999999" points="123.75,-80.12 73.25,-80.12 73.25,-60.88 123.75,-60.88 123.75,-80.12"/>
<text text-anchor="middle" x="98.5" y="-66.62" font-family="Helvetica,sans-Serif" font-size="10.00">stddef.h</text>
</a>
</g>
</g>
<!-- Node1&#45;&gt;Node3 -->
<g id="edge2_Node000001_Node000003" class="edge">
<title>Node1&#45;&gt;Node3</title>
<g id="a_edge2_Node000001_Node000003"><a xlink:title=" ">
<path fill="none" stroke="#63b8ff" d="M126.49,-121.43C121.88,-113.22 114.91,-100.78 109.08,-90.37"/>
<polygon fill="#63b8ff" stroke="#63b8ff" points="112.24,-88.86 104.3,-81.85 106.14,-92.28 112.24,-88.86"/>
</a>
</g>
</g>
<!-- Node4 -->
<g id="Node000004" class="node">
<title>Node4</title>
<g id="a_Node000004"><a xlink:title=" ">
<polygon fill="#e0e0e0" stroke="#999999" points="186.75,-80.12 142.25,-80.12 142.25,-60.88 186.75,-60.88 186.75,-80.12"/>
<text text-anchor="middle" x="164.5" y="-66.62" font-family="Helvetica,sans-Serif" font-size="10.00">stdio.h</text>
</a>
</g>
</g>
<!-- Node1&#45;&gt;Node4 -->
<g id="edge3_Node000001_Node000004" class="edge">
<title>Node1&#45;&gt;Node4</title>
<g id="a_edge3_Node000001_Node000004"><a xlink:title=" ">
<path fill="none" stroke="#63b8ff" d="M136.51,-121.43C141.12,-113.22 148.09,-100.78 153.92,-90.37"/>
<polygon fill="#63b8ff" stroke="#63b8ff" points="156.86,-92.28 158.7,-81.85 150.76,-88.86 156.86,-92.28"/>
</a>
</g>
</g>
<!-- Node5 -->
<g id="Node000005" class="node">
<title>Node5</title>
<g id="a_Node000005"><a xlink:href="TTL__cpp_2opencl_2TTL__types_8h.html" target="_top" xlink:title=" ">
<polygon fill="white" stroke="#666666" points="312.25,-85.75 204.75,-85.75 204.75,-55.25 312.25,-55.25 312.25,-85.75"/>
<text text-anchor="start" x="212.75" y="-72.25" font-family="Helvetica,sans-Serif" font-size="10.00">TTL/TTL_cpp/opencl</text>
<text text-anchor="middle" x="258.5" y="-61" font-family="Helvetica,sans-Serif" font-size="10.00">/TTL_types.h</text>
</a>
</g>
</g>
<!-- Node1&#45;&gt;Node5 -->
<g id="edge4_Node000001_Node000005" class="edge">
<title>Node1&#45;&gt;Node5</title>
<g id="a_edge4_Node000001_Node000005"><a xlink:title=" ">
<path fill="none" stroke="#63b8ff" d="M151.07,-121.3C168.48,-113.23 194.56,-101.14 216.65,-90.9"/>
<polygon fill="#63b8ff" stroke="#63b8ff" points="217.83,-94.21 225.43,-86.83 214.88,-87.86 217.83,-94.21"/>
</a>
</g>
</g>
<!-- Node6 -->
<g id="Node000006" class="node">
<title>Node6</title>
<g id="a_Node000006"><a xlink:title=" ">
<polygon fill="#e0e0e0" stroke="#999999" points="282.25,-19.25 234.75,-19.25 234.75,0 282.25,0 282.25,-19.25"/>
<text text-anchor="middle" x="258.5" y="-5.75" font-family="Helvetica,sans-Serif" font-size="10.00">stdint.h</text>
</a>
</g>
</g>
<!-- Node5&#45;&gt;Node6 -->
<g id="edge5_Node000005_Node000006" class="edge">
<title>Node5&#45;&gt;Node6</title>
<g id="a_edge5_Node000005_Node000006"><a xlink:title=" ">
<path fill="none" stroke="#63b8ff" d="M258.5,-54.95C258.5,-47.71 258.5,-38.84 258.5,-30.94"/>
<polygon fill="#63b8ff" stroke="#63b8ff" points="262,-31.21 258.5,-21.21 255,-31.21 262,-31.21"/>
</a>
</g>
</g>
</g>
</svg>
