<?xml version="1.0" encoding="UTF-8" standalone="no"?>
<!DOCTYPE svg PUBLIC "-//W3C//DTD SVG 1.1//EN"
 "http://www.w3.org/Graphics/SVG/1.1/DTD/svg11.dtd">
<!-- Generated by graphviz version 12.2.1 (20241206.2353)
 -->
<!-- Title: TTL_debug.h Pages: 1 -->
<svg width="217pt" height="248pt"
 viewBox="0.00 0.00 217.00 248.25" xmlns="http://www.w3.org/2000/svg" xmlns:xlink="http://www.w3.org/1999/xlink">
<g id="graph0" class="graph" transform="scale(1 1) rotate(0) translate(4 244.25)">
<title>TTL_debug.h</title>
<!-- Node1 -->
<g id="Node000001" class="node">
<title>Node1</title>
<g id="a_Node000001"><a xlink:title=" ">
<polygon fill="#999999" stroke="#666666" points="144,-240.25 71,-240.25 71,-221 144,-221 144,-240.25"/>
<text text-anchor="middle" x="107.5" y="-226.75" font-family="Helvetica,sans-Serif" font-size="10.00">TTL_debug.h</text>
</a>
</g>
</g>
<!-- Node2 -->
<g id="Node000002" class="node">
<title>Node2</title>
<g id="a_Node000002"><a xlink:href="TTL__cpp_2TTL__tensors_8h.html" target="_top" xlink:title=" ">
<polygon fill="white" stroke="#666666" points="79,-185 0,-185 0,-165.75 79,-165.75 79,-185"/>
<text text-anchor="middle" x="39.5" y="-171.5" font-family="Helvetica,sans-Serif" font-size="10.00">TTL_tensors.h</text>
</a>
</g>
</g>
<!-- Node1&#45;&gt;Node2 -->
<g id="edge1_Node000001_Node000002" class="edge">
<title>Node1&#45;&gt;Node2</title>
<g id="a_edge1_Node000001_Node000002"><a xlink:title=" ">
<path fill="none" stroke="#63b8ff" d="M95.96,-220.59C86.04,-212.82 71.49,-201.42 59.64,-192.15"/>
<polygon fill="#63b8ff" stroke="#63b8ff" points="62.09,-189.62 52.06,-186.21 57.77,-195.13 62.09,-189.62"/>
</a>
</g>
</g>
<!-- Node3 -->
<g id="Node000003" class="node">
<title>Node3</title>
<g id="a_Node000003"><a xlink:href="TTL__cpp_2TTL__types_8h.html" target="_top" xlink:title=" ">
<polygon fill="white" stroke="#666666" points="142.5,-129.75 72.5,-129.75 72.5,-110.5 142.5,-110.5 142.5,-129.75"/>
<text text-anchor="middle" x="107.5" y="-116.25" font-family="Helvetica,sans-Serif" font-size="10.00">TTL_types.h</text>
</a>
</g>
</g>
<!-- Node1&#45;&gt;Node3 -->
<g id="edge8_Node000001_Node000003" class="edge">
<title>Node1&#45;&gt;Node3</title>
<g id="a_edge8_Node000001_Node000003"><a xlink:title=" ">
<path fill="none" stroke="#63b8ff" d="M107.5,-220.75C107.5,-203.5 107.5,-165.08 107.5,-141.31"/>
<polygon fill="#63b8ff" stroke="#63b8ff" points="111,-141.64 107.5,-131.64 104,-141.64 111,-141.64"/>
</a>
</g>
</g>
<!-- Node7 -->
<g id="Node000007" class="node">
<title>Node7</title>
<g id="a_Node000007"><a xlink:href="TTL__cpp_2TTL__tiles_8h.html" target="_top" xlink:title=" ">
<polygon fill="white" stroke="#666666" points="199.88,-185 135.12,-185 135.12,-165.75 199.88,-165.75 199.88,-185"/>
<text text-anchor="middle" x="167.5" y="-171.5" font-family="Helvetica,sans-Serif" font-size="10.00">TTL_tiles.h</text>
</a>
</g>
</g>
<!-- Node1&#45;&gt;Node7 -->
<g id="edge6_Node000001_Node000007" class="edge">
<title>Node1&#45;&gt;Node7</title>
<g id="a_edge6_Node000001_Node000007"><a xlink:title=" ">
<path fill="none" stroke="#63b8ff" d="M117.68,-220.59C126.26,-212.97 138.77,-201.87 149.1,-192.7"/>
<polygon fill="#63b8ff" stroke="#63b8ff" points="151.18,-195.54 156.34,-186.28 146.54,-190.3 151.18,-195.54"/>
</a>
</g>
</g>
<!-- Node2&#45;&gt;Node3 -->
<g id="edge2_Node000002_Node000003" class="edge">
<title>Node2&#45;&gt;Node3</title>
<g id="a_edge2_Node000002_Node000003"><a xlink:title=" ">
<path fill="none" stroke="#63b8ff" d="M51.04,-165.34C60.96,-157.57 75.51,-146.17 87.36,-136.9"/>
<polygon fill="#63b8ff" stroke="#63b8ff" points="89.23,-139.88 94.94,-130.96 84.91,-134.37 89.23,-139.88"/>
</a>
</g>
</g>
<!-- Node4 -->
<g id="Node000004" class="node">
<title>Node4</title>
<g id="a_Node000004"><a xlink:href="TTL__cpp_2TTL__macros_8h.html" target="_top" xlink:title=" ">
<polygon fill="white" stroke="#666666" points="94,-74.5 15,-74.5 15,-55.25 94,-55.25 94,-74.5"/>
<text text-anchor="middle" x="54.5" y="-61" font-family="Helvetica,sans-Serif" font-size="10.00">TTL_macros.h</text>
</a>
</g>
</g>
<!-- Node3&#45;&gt;Node4 -->
<g id="edge3_Node000003_Node000004" class="edge">
<title>Node3&#45;&gt;Node4</title>
<g id="a_edge3_Node000003_Node000004"><a xlink:title=" ">
<path fill="none" stroke="#63b8ff" d="M98.75,-110.33C91.35,-102.9 80.54,-92.04 71.45,-82.91"/>
<polygon fill="#63b8ff" stroke="#63b8ff" points="74.04,-80.55 64.51,-75.93 69.08,-85.49 74.04,-80.55"/>
</a>
</g>
</g>
<!-- Node5 -->
<g id="Node000005" class="node">
<title>Node5</title>
<g id="a_Node000005"><a xlink:href="TTL__strong__type_8h.html" target="_top" xlink:title=" ">
<polygon fill="white" stroke="#666666" points="209,-74.5 112,-74.5 112,-55.25 209,-55.25 209,-74.5"/>
<text text-anchor="middle" x="160.5" y="-61" font-family="Helvetica,sans-Serif" font-size="10.00">TTL_strong_type.h</text>
</a>
</g>
</g>
<!-- Node3&#45;&gt;Node5 -->
<g id="edge4_Node000003_Node000005" class="edge">
<title>Node3&#45;&gt;Node5</title>
<g id="a_edge4_Node000003_Node000005"><a xlink:title=" ">
<path fill="none" stroke="#63b8ff" d="M116.25,-110.33C123.65,-102.9 134.46,-92.04 143.55,-82.91"/>
<polygon fill="#63b8ff" stroke="#63b8ff" points="145.92,-85.49 150.49,-75.93 140.96,-80.55 145.92,-85.49"/>
</a>
</g>
</g>
<!-- Node6 -->
<g id="Node000006" class="node">
<title>Node6</title>
<g id="a_Node000006"><a xlink:title=" ">
<polygon fill="#e0e0e0" stroke="#999999" points="184.25,-19.25 136.75,-19.25 136.75,0 184.25,0 184.25,-19.25"/>
<text text-anchor="middle" x="160.5" y="-5.75" font-family="Helvetica,sans-Serif" font-size="10.00">stdint.h</text>
</a>
</g>
</g>
<!-- Node5&#45;&gt;Node6 -->
<g id="edge5_Node000005_Node000006" class="edge">
<title>Node5&#45;&gt;Node6</title>
<g id="a_edge5_Node000005_Node000006"><a xlink:title=" ">
<path fill="none" stroke="#63b8ff" d="M160.5,-55.08C160.5,-48.57 160.5,-39.42 160.5,-31.12"/>
<polygon fill="#63b8ff" stroke="#63b8ff" points="164,-31.12 160.5,-21.12 157,-31.12 164,-31.12"/>
</a>
</g>
</g>
<!-- Node7&#45;&gt;Node3 -->
<g id="edge7_Node000007_Node000003" class="edge">
<title>Node7&#45;&gt;Node3</title>
<g id="a_edge7_Node000007_Node000003"><a xlink:title=" ">
<path fill="none" stroke="#63b8ff" d="M157.32,-165.34C148.74,-157.72 136.23,-146.62 125.9,-137.45"/>
<polygon fill="#63b8ff" stroke="#63b8ff" points="128.46,-135.05 118.66,-131.03 123.82,-140.29 128.46,-135.05"/>
</a>
</g>
</g>
</g>
</svg>
