<?xml version="1.0" encoding="UTF-8" standalone="no"?>
<!DOCTYPE svg PUBLIC "-//W3C//DTD SVG 1.1//EN"
 "http://www.w3.org/Graphics/SVG/1.1/DTD/svg11.dtd">
<!-- Generated by graphviz version 12.2.1 (20241206.2353)
 -->
<!-- Title: TTL_import_export.h Pages: 1 -->
<svg width="246pt" height="193pt"
 viewBox="0.00 0.00 246.00 193.00" xmlns="http://www.w3.org/2000/svg" xmlns:xlink="http://www.w3.org/1999/xlink">
<g id="graph0" class="graph" transform="scale(1 1) rotate(0) translate(4 189)">
<title>TTL_import_export.h</title>
<!-- Node1 -->
<g id="Node000001" class="node">
<title>Node1</title>
<g id="a_Node000001"><a xlink:title=" ">
<polygon fill="#999999" stroke="#666666" points="166.25,-185 61,-185 61,-165.75 166.25,-165.75 166.25,-185"/>
<text text-anchor="middle" x="113.62" y="-171.5" font-family="Helvetica,sans-Serif" font-size="10.00">TTL_import_export.h</text>
</a>
</g>
</g>
<!-- Node2 -->
<g id="Node000002" class="node">
<title>Node2</title>
<g id="a_Node000002"><a xlink:href="TTL__cpp_2c_2TTL__import__export_8h.html" target="_top" xlink:title=" ">
<polygon fill="white" stroke="#666666" points="105.25,-129.75 0,-129.75 0,-110.5 105.25,-110.5 105.25,-129.75"/>
<text text-anchor="middle" x="52.62" y="-116.25" font-family="Helvetica,sans-Serif" font-size="10.00">TTL_import_export.h</text>
</a>
</g>
</g>
<!-- Node1&#45;&gt;Node2 -->
<g id="edge1_Node000001_Node000002" class="edge">
<title>Node1&#45;&gt;Node2</title>
<g id="a_edge1_Node000001_Node000002"><a xlink:title=" ">
<path fill="none" stroke="#63b8ff" d="M94.74,-157.89C84.2,-148.69 71.5,-137.6 62.82,-130.02"/>
<polygon fill="#63b8ff" stroke="#63b8ff" points="92.3,-160.41 102.14,-164.35 96.91,-155.13 92.3,-160.41"/>
</a>
</g>
</g>
<!-- Node3 -->
<g id="Node000003" class="node">
<title>Node3</title>
<g id="a_Node000003"><a xlink:href="TTL__cpp_2TTL__import__export_8h.html" target="_top" xlink:title=" ">
<polygon fill="white" stroke="#666666" points="228.25,-129.75 123,-129.75 123,-110.5 228.25,-110.5 228.25,-129.75"/>
<text text-anchor="middle" x="175.62" y="-116.25" font-family="Helvetica,sans-Serif" font-size="10.00">TTL_import_export.h</text>
</a>
</g>
</g>
<!-- Node1&#45;&gt;Node3 -->
<g id="edge2_Node000001_Node000003" class="edge">
<title>Node1&#45;&gt;Node3</title>
<g id="a_edge2_Node000001_Node000003"><a xlink:title=" ">
<path fill="none" stroke="#63b8ff" d="M132.82,-157.89C143.53,-148.69 156.44,-137.6 165.26,-130.02"/>
<polygon fill="#63b8ff" stroke="#63b8ff" points="130.6,-155.19 125.29,-164.36 135.16,-160.5 130.6,-155.19"/>
</a>
</g>
</g>
<!-- Node4 -->
<g id="Node000004" class="node">
<title>Node4</title>
<g id="a_Node000004"><a xlink:href="TTL__cpp_2TTL__pipeline__schemes_8h.html" target="_top" xlink:title=" ">
<polygon fill="white" stroke="#666666" points="238,-74.5 113.25,-74.5 113.25,-55.25 238,-55.25 238,-74.5"/>
<text text-anchor="middle" x="175.62" y="-61" font-family="Helvetica,sans-Serif" font-size="10.00">TTL_pipeline_schemes.h</text>
</a>
</g>
</g>
<!-- Node3&#45;&gt;Node4 -->
<g id="edge3_Node000003_Node000004" class="edge">
<title>Node3&#45;&gt;Node4</title>
<g id="a_edge3_Node000003_Node000004"><a xlink:title=" ">
<path fill="none" stroke="#63b8ff" d="M175.62,-98.88C175.62,-90.59 175.62,-81.42 175.62,-74.86"/>
<polygon fill="#63b8ff" stroke="#63b8ff" points="172.13,-98.82 175.63,-108.82 179.13,-98.82 172.13,-98.82"/>
</a>
</g>
</g>
<!-- Node5 -->
<g id="Node000005" class="node">
<title>Node5</title>
<g id="a_Node000005"><a xlink:href="TTL__cpp_2TTL_8h.html" target="_top" xlink:title=" ">
<polygon fill="white" stroke="#666666" points="196.38,-19.25 154.88,-19.25 154.88,0 196.38,0 196.38,-19.25"/>
<text text-anchor="middle" x="175.62" y="-5.75" font-family="Helvetica,sans-Serif" font-size="10.00">TTL.h</text>
</a>
</g>
</g>
<!-- Node4&#45;&gt;Node5 -->
<g id="edge4_Node000004_Node000005" class="edge">
<title>Node4&#45;&gt;Node5</title>
<g id="a_edge4_Node000004_Node000005"><a xlink:title=" ">
<path fill="none" stroke="#63b8ff" d="M175.62,-43.63C175.62,-35.34 175.62,-26.17 175.62,-19.61"/>
<polygon fill="#63b8ff" stroke="#63b8ff" points="172.13,-43.57 175.63,-53.57 179.13,-43.57 172.13,-43.57"/>
</a>
</g>
</g>
</g>
</svg>
