<?xml version="1.0" encoding="UTF-8" standalone="no"?>
<!DOCTYPE svg PUBLIC "-//W3C//DTD SVG 1.1//EN"
 "http://www.w3.org/Graphics/SVG/1.1/DTD/svg11.dtd">
<!-- Generated by graphviz version 12.2.1 (20241206.2353)
 -->
<!-- Title: TTL_import_export.h Pages: 1 -->
<svg width="390pt" height="149pt"
 viewBox="0.00 0.00 390.00 149.00" xmlns="http://www.w3.org/2000/svg" xmlns:xlink="http://www.w3.org/1999/xlink">
<g id="graph0" class="graph" transform="scale(1 1) rotate(0) translate(4 145)">
<title>TTL_import_export.h</title>
<!-- Node1 -->
<g id="Node000001" class="node">
<title>Node1</title>
<g id="a_Node000001"><a xlink:title=" ">
<polygon fill="#999999" stroke="#666666" points="208.88,-141 103.62,-141 103.62,-121.75 208.88,-121.75 208.88,-141"/>
<text text-anchor="middle" x="156.25" y="-127.5" font-family="Helvetica,sans-Serif" font-size="10.00">TTL_import_export.h</text>
</a>
</g>
</g>
<!-- Node2 -->
<g id="Node000002" class="node">
<title>Node2</title>
<g id="a_Node000002"><a xlink:title=" ">
<polygon fill="#e0e0e0" stroke="#999999" points="50.5,-80.12 0,-80.12 0,-60.88 50.5,-60.88 50.5,-80.12"/>
<text text-anchor="middle" x="25.25" y="-66.62" font-family="Helvetica,sans-Serif" font-size="10.00">stddef.h</text>
</a>
</g>
</g>
<!-- Node1&#45;&gt;Node2 -->
<g id="edge1_Node000001_Node000002" class="edge">
<title>Node1&#45;&gt;Node2</title>
<g id="a_edge1_Node000001_Node000002"><a xlink:title=" ">
<path fill="none" stroke="#63b8ff" d="M136.07,-121.3C114.56,-111.64 80.27,-96.23 55.53,-85.11"/>
<polygon fill="#63b8ff" stroke="#63b8ff" points="57.18,-82.01 46.62,-81.1 54.31,-88.4 57.18,-82.01"/>
</a>
</g>
</g>
<!-- Node3 -->
<g id="Node000003" class="node">
<title>Node3</title>
<g id="a_Node000003"><a xlink:title=" ">
<polygon fill="#e0e0e0" stroke="#999999" points="116,-80.12 68.5,-80.12 68.5,-60.88 116,-60.88 116,-80.12"/>
<text text-anchor="middle" x="92.25" y="-66.62" font-family="Helvetica,sans-Serif" font-size="10.00">stdint.h</text>
</a>
</g>
</g>
<!-- Node1&#45;&gt;Node3 -->
<g id="edge2_Node000001_Node000003" class="edge">
<title>Node1&#45;&gt;Node3</title>
<g id="a_edge2_Node000001_Node000003"><a xlink:title=" ">
<path fill="none" stroke="#63b8ff" d="M146.53,-121.43C136.94,-112.62 122.06,-98.93 110.31,-88.11"/>
<polygon fill="#63b8ff" stroke="#63b8ff" points="112.9,-85.75 103.18,-81.55 108.17,-90.9 112.9,-85.75"/>
</a>
</g>
</g>
<!-- Node4 -->
<g id="Node000004" class="node">
<title>Node4</title>
<g id="a_Node000004"><a xlink:title=" ">
<polygon fill="#e0e0e0" stroke="#999999" points="178.5,-80.12 134,-80.12 134,-60.88 178.5,-60.88 178.5,-80.12"/>
<text text-anchor="middle" x="156.25" y="-66.62" font-family="Helvetica,sans-Serif" font-size="10.00">stdio.h</text>
</a>
</g>
</g>
<!-- Node1&#45;&gt;Node4 -->
<g id="edge3_Node000001_Node000004" class="edge">
<title>Node1&#45;&gt;Node4</title>
<g id="a_edge3_Node000001_Node000004"><a xlink:title=" ">
<path fill="none" stroke="#63b8ff" d="M156.25,-121.43C156.25,-113.65 156.25,-102.08 156.25,-92.03"/>
<polygon fill="#63b8ff" stroke="#63b8ff" points="159.75,-92.04 156.25,-82.04 152.75,-92.04 159.75,-92.04"/>
</a>
</g>
</g>
<!-- Node5 -->
<g id="Node000005" class="node">
<title>Node5</title>
<g id="a_Node000005"><a xlink:title=" ">
<polygon fill="#e0e0e0" stroke="#999999" points="244,-80.12 196.5,-80.12 196.5,-60.88 244,-60.88 244,-80.12"/>
<text text-anchor="middle" x="220.25" y="-66.62" font-family="Helvetica,sans-Serif" font-size="10.00">string.h</text>
</a>
</g>
</g>
<!-- Node1&#45;&gt;Node5 -->
<g id="edge4_Node000001_Node000005" class="edge">
<title>Node1&#45;&gt;Node5</title>
<g id="a_edge4_Node000001_Node000005"><a xlink:title=" ">
<path fill="none" stroke="#63b8ff" d="M165.97,-121.43C175.56,-112.62 190.44,-98.93 202.19,-88.11"/>
<polygon fill="#63b8ff" stroke="#63b8ff" points="204.33,-90.9 209.32,-81.55 199.6,-85.75 204.33,-90.9"/>
</a>
</g>
</g>
<!-- Node6 -->
<g id="Node000006" class="node">
<title>Node6</title>
<g id="a_Node000006"><a xlink:href="TTL__cpp_2opencl_2TTL__import__export_8h.html" target="_top" xlink:title=" ">
<polygon fill="white" stroke="#666666" points="370.38,-85.75 262.12,-85.75 262.12,-55.25 370.38,-55.25 370.38,-85.75"/>
<text text-anchor="start" x="270.12" y="-72.25" font-family="Helvetica,sans-Serif" font-size="10.00">TTL/TTL_cpp/opencl</text>
<text text-anchor="middle" x="316.25" y="-61" font-family="Helvetica,sans-Serif" font-size="10.00">/TTL_import_export.h</text>
</a>
</g>
</g>
<!-- Node1&#45;&gt;Node6 -->
<g id="edge5_Node000001_Node000006" class="edge">
<title>Node1&#45;&gt;Node6</title>
<g id="a_edge5_Node000001_Node000006"><a xlink:title=" ">
<path fill="none" stroke="#63b8ff" d="M180.9,-121.3C203.44,-113.01 237.48,-100.48 265.78,-90.07"/>
<polygon fill="#63b8ff" stroke="#63b8ff" points="266.72,-93.46 274.89,-86.72 264.3,-86.89 266.72,-93.46"/>
</a>
</g>
</g>
<!-- Node7 -->
<g id="Node000007" class="node">
<title>Node7</title>
<g id="a_Node000007"><a xlink:href="TTL__c_2TTL__macros_8h.html" target="_top" xlink:title=" ">
<polygon fill="white" stroke="#666666" points="382,-19.25 250.5,-19.25 250.5,0 382,0 382,-19.25"/>
<text text-anchor="middle" x="316.25" y="-5.75" font-family="Helvetica,sans-Serif" font-size="10.00">TTL/TTL_c/TTL_macros.h</text>
</a>
</g>
</g>
<!-- Node6&#45;&gt;Node7 -->
<g id="edge6_Node000006_Node000007" class="edge">
<title>Node6&#45;&gt;Node7</title>
<g id="a_edge6_Node000006_Node000007"><a xlink:title=" ">
<path fill="none" stroke="#63b8ff" d="M316.25,-54.95C316.25,-47.71 316.25,-38.84 316.25,-30.94"/>
<polygon fill="#63b8ff" stroke="#63b8ff" points="319.75,-31.21 316.25,-21.21 312.75,-31.21 319.75,-31.21"/>
</a>
</g>
</g>
</g>
</svg>
