<?xml version="1.0" encoding="UTF-8" standalone="no"?>
<!DOCTYPE svg PUBLIC "-//W3C//DTD SVG 1.1//EN"
 "http://www.w3.org/Graphics/SVG/1.1/DTD/svg11.dtd">
<!-- Generated by graphviz version 12.2.1 (20241206.2353)
 -->
<!-- Title: TTL_core.h Pages: 1 -->
<svg width="163pt" height="193pt"
 viewBox="0.00 0.00 163.00 193.00" xmlns="http://www.w3.org/2000/svg" xmlns:xlink="http://www.w3.org/1999/xlink">
<g id="graph0" class="graph" transform="scale(1 1) rotate(0) translate(4 189)">
<title>TTL_core.h</title>
<!-- Node1 -->
<g id="Node000001" class="node">
<title>Node1</title>
<g id="a_Node000001"><a xlink:title=" ">
<polygon fill="#999999" stroke="#666666" points="125.38,-185 59.88,-185 59.88,-165.75 125.38,-165.75 125.38,-185"/>
<text text-anchor="middle" x="92.62" y="-171.5" font-family="Helvetica,sans-Serif" font-size="10.00">TTL_core.h</text>
</a>
</g>
</g>
<!-- Node2 -->
<g id="Node000002" class="node">
<title>Node2</title>
<g id="a_Node000002"><a xlink:href="TTL__cpp_2TTL__import__export_8h.html" target="_top" xlink:title=" ">
<polygon fill="white" stroke="#666666" points="105.25,-129.75 0,-129.75 0,-110.5 105.25,-110.5 105.25,-129.75"/>
<text text-anchor="middle" x="52.62" y="-116.25" font-family="Helvetica,sans-Serif" font-size="10.00">TTL_import_export.h</text>
</a>
</g>
</g>
<!-- Node1&#45;&gt;Node2 -->
<g id="edge1_Node000001_Node000002" class="edge">
<title>Node1&#45;&gt;Node2</title>
<g id="a_edge1_Node000001_Node000002"><a xlink:title=" ">
<path fill="none" stroke="#63b8ff" d="M79.15,-156.44C72.5,-147.59 64.77,-137.29 59.37,-130.11"/>
<polygon fill="#63b8ff" stroke="#63b8ff" points="76.31,-158.48 85.11,-164.37 81.9,-154.27 76.31,-158.48"/>
</a>
</g>
</g>
<!-- Node3 -->
<g id="Node000003" class="node">
<title>Node3</title>
<g id="a_Node000003"><a xlink:href="TTL__cpp_2TTL__pipeline__schemes_8h.html" target="_top" xlink:title=" ">
<polygon fill="white" stroke="#666666" points="155,-74.5 30.25,-74.5 30.25,-55.25 155,-55.25 155,-74.5"/>
<text text-anchor="middle" x="92.62" y="-61" font-family="Helvetica,sans-Serif" font-size="10.00">TTL_pipeline_schemes.h</text>
</a>
</g>
</g>
<!-- Node1&#45;&gt;Node3 -->
<g id="edge4_Node000001_Node000003" class="edge">
<title>Node1&#45;&gt;Node3</title>
<g id="a_edge4_Node000001_Node000003"><a xlink:title=" ">
<path fill="none" stroke="#63b8ff" d="M104.29,-155.56C108.41,-147.86 112.55,-138.67 114.62,-129.75 119.31,-109.65 107.16,-86.99 99.1,-74.8"/>
<polygon fill="#63b8ff" stroke="#63b8ff" points="101.4,-153.55 99.43,-163.96 107.46,-157.06 101.4,-153.55"/>
</a>
</g>
</g>
<!-- Node2&#45;&gt;Node3 -->
<g id="edge2_Node000002_Node000003" class="edge">
<title>Node2&#45;&gt;Node3</title>
<g id="a_edge2_Node000002_Node000003"><a xlink:title=" ">
<path fill="none" stroke="#63b8ff" d="M66.1,-101.19C72.75,-92.34 80.48,-82.04 85.88,-74.86"/>
<polygon fill="#63b8ff" stroke="#63b8ff" points="63.35,-99.02 60.14,-109.12 68.94,-103.23 63.35,-99.02"/>
</a>
</g>
</g>
<!-- Node4 -->
<g id="Node000004" class="node">
<title>Node4</title>
<g id="a_Node000004"><a xlink:href="TTL__cpp_2TTL_8h.html" target="_top" xlink:title=" ">
<polygon fill="white" stroke="#666666" points="113.38,-19.25 71.88,-19.25 71.88,0 113.38,0 113.38,-19.25"/>
<text text-anchor="middle" x="92.62" y="-5.75" font-family="Helvetica,sans-Serif" font-size="10.00">TTL.h</text>
</a>
</g>
</g>
<!-- Node3&#45;&gt;Node4 -->
<g id="edge3_Node000003_Node000004" class="edge">
<title>Node3&#45;&gt;Node4</title>
<g id="a_edge3_Node000003_Node000004"><a xlink:title=" ">
<path fill="none" stroke="#63b8ff" d="M92.62,-43.63C92.62,-35.34 92.62,-26.17 92.62,-19.61"/>
<polygon fill="#63b8ff" stroke="#63b8ff" points="89.13,-43.57 92.63,-53.57 96.13,-43.57 89.13,-43.57"/>
</a>
</g>
</g>
</g>
</svg>
