<?xml version="1.0" encoding="UTF-8" standalone="no"?>
<!DOCTYPE svg PUBLIC "-//W3C//DTD SVG 1.1//EN"
 "http://www.w3.org/Graphics/SVG/1.1/DTD/svg11.dtd">
<!-- Generated by graphviz version 12.2.1 (20241206.2353)
 -->
<!-- Title: TTL_core.h Pages: 1 -->
<svg width="367pt" height="304pt"
 viewBox="0.00 0.00 367.00 303.50" xmlns="http://www.w3.org/2000/svg" xmlns:xlink="http://www.w3.org/1999/xlink">
<g id="graph0" class="graph" transform="scale(1 1) rotate(0) translate(4 299.5)">
<title>TTL_core.h</title>
<!-- Node1 -->
<g id="Node000001" class="node">
<title>Node1</title>
<g id="a_Node000001"><a xlink:title=" ">
<polygon fill="#999999" stroke="#666666" points="259.25,-295.5 193.75,-295.5 193.75,-276.25 259.25,-276.25 259.25,-295.5"/>
<text text-anchor="middle" x="226.5" y="-282" font-family="Helvetica,sans-Serif" font-size="10.00">TTL_core.h</text>
</a>
</g>
</g>
<!-- Node2 -->
<g id="Node000002" class="node">
<title>Node2</title>
<g id="a_Node000002"><a xlink:title=" ">
<polygon fill="#e0e0e0" stroke="#999999" points="133,-240.25 0,-240.25 0,-221 133,-221 133,-240.25"/>
<text text-anchor="middle" x="66.5" y="-226.75" font-family="Helvetica,sans-Serif" font-size="10.00">TTL_TYPES_INCLUDE_H</text>
</a>
</g>
</g>
<!-- Node1&#45;&gt;Node2 -->
<g id="edge1_Node000001_Node000002" class="edge">
<title>Node1&#45;&gt;Node2</title>
<g id="a_edge1_Node000001_Node000002"><a xlink:title=" ">
<path fill="none" stroke="#63b8ff" d="M199.36,-275.84C173.27,-267.16 133.6,-253.96 104.4,-244.24"/>
<polygon fill="#63b8ff" stroke="#63b8ff" points="105.8,-241.02 95.21,-241.18 103.59,-247.66 105.8,-241.02"/>
</a>
</g>
</g>
<!-- Node3 -->
<g id="Node000003" class="node">
<title>Node3</title>
<g id="a_Node000003"><a xlink:href="TTL__cpp_2TTL__debug_8h.html" target="_top" xlink:title=" ">
<polygon fill="white" stroke="#666666" points="263,-240.25 190,-240.25 190,-221 263,-221 263,-240.25"/>
<text text-anchor="middle" x="226.5" y="-226.75" font-family="Helvetica,sans-Serif" font-size="10.00">TTL_debug.h</text>
</a>
</g>
</g>
<!-- Node1&#45;&gt;Node3 -->
<g id="edge2_Node000001_Node000003" class="edge">
<title>Node1&#45;&gt;Node3</title>
<g id="a_edge2_Node000001_Node000003"><a xlink:title=" ">
<path fill="none" stroke="#63b8ff" d="M226.5,-276.08C226.5,-269.57 226.5,-260.42 226.5,-252.12"/>
<polygon fill="#63b8ff" stroke="#63b8ff" points="230,-252.12 226.5,-242.12 223,-252.12 230,-252.12"/>
</a>
</g>
</g>
<!-- Node4 -->
<g id="Node000004" class="node">
<title>Node4</title>
<g id="a_Node000004"><a xlink:href="TTL__cpp_2TTL__tensors_8h.html" target="_top" xlink:title=" ">
<polygon fill="white" stroke="#666666" points="199,-185 120,-185 120,-165.75 199,-165.75 199,-185"/>
<text text-anchor="middle" x="159.5" y="-171.5" font-family="Helvetica,sans-Serif" font-size="10.00">TTL_tensors.h</text>
</a>
</g>
</g>
<!-- Node1&#45;&gt;Node4 -->
<g id="edge11_Node000001_Node000004" class="edge">
<title>Node1&#45;&gt;Node4</title>
<g id="a_edge11_Node000001_Node000004"><a xlink:title=" ">
<path fill="none" stroke="#63b8ff" d="M214.66,-275.78C204.59,-267.49 190.39,-254.41 181.5,-240.25 172.99,-226.7 167.31,-209.46 163.85,-196.3"/>
<polygon fill="#63b8ff" stroke="#63b8ff" points="167.27,-195.58 161.55,-186.67 160.47,-197.21 167.27,-195.58"/>
</a>
</g>
</g>
<!-- Node5 -->
<g id="Node000005" class="node">
<title>Node5</title>
<g id="a_Node000005"><a xlink:href="TTL__cpp_2TTL__types_8h.html" target="_top" xlink:title=" ">
<polygon fill="white" stroke="#666666" points="292.5,-129.75 222.5,-129.75 222.5,-110.5 292.5,-110.5 292.5,-129.75"/>
<text text-anchor="middle" x="257.5" y="-116.25" font-family="Helvetica,sans-Serif" font-size="10.00">TTL_types.h</text>
</a>
</g>
</g>
<!-- Node1&#45;&gt;Node5 -->
<g id="edge13_Node000001_Node000005" class="edge">
<title>Node1&#45;&gt;Node5</title>
<g id="a_edge13_Node000001_Node000005"><a xlink:title=" ">
<path fill="none" stroke="#63b8ff" d="M242.96,-275.95C268.2,-261.09 314.97,-228.55 328.5,-185 331.04,-176.83 332.64,-173.24 328.5,-165.75 320.98,-152.14 307.38,-142.12 294.08,-135.07"/>
<polygon fill="#63b8ff" stroke="#63b8ff" points="295.97,-132.09 285.44,-130.89 292.92,-138.39 295.97,-132.09"/>
</a>
</g>
</g>
<!-- Node9 -->
<g id="Node000009" class="node">
<title>Node9</title>
<g id="a_Node000009"><a xlink:href="TTL__cpp_2TTL__tiles_8h.html" target="_top" xlink:title=" ">
<polygon fill="white" stroke="#666666" points="319.88,-185 255.12,-185 255.12,-165.75 319.88,-165.75 319.88,-185"/>
<text text-anchor="middle" x="287.5" y="-171.5" font-family="Helvetica,sans-Serif" font-size="10.00">TTL_tiles.h</text>
</a>
</g>
</g>
<!-- Node1&#45;&gt;Node9 -->
<g id="edge12_Node000001_Node000009" class="edge">
<title>Node1&#45;&gt;Node9</title>
<g id="a_edge12_Node000001_Node000009"><a xlink:title=" ">
<path fill="none" stroke="#63b8ff" d="M238.98,-276.05C249.51,-267.94 264.16,-254.96 272.5,-240.25 280.16,-226.73 283.92,-209.48 285.75,-196.32"/>
<polygon fill="#63b8ff" stroke="#63b8ff" points="289.2,-197.03 286.82,-186.71 282.24,-196.26 289.2,-197.03"/>
</a>
</g>
</g>
<!-- Node3&#45;&gt;Node4 -->
<g id="edge3_Node000003_Node000004" class="edge">
<title>Node3&#45;&gt;Node4</title>
<g id="a_edge3_Node000003_Node000004"><a xlink:title=" ">
<path fill="none" stroke="#63b8ff" d="M215.13,-220.59C205.45,-212.9 191.3,-201.65 179.69,-192.43"/>
<polygon fill="#63b8ff" stroke="#63b8ff" points="181.89,-189.7 171.88,-186.22 177.53,-195.18 181.89,-189.7"/>
</a>
</g>
</g>
<!-- Node3&#45;&gt;Node5 -->
<g id="edge10_Node000003_Node000005" class="edge">
<title>Node3&#45;&gt;Node5</title>
<g id="a_edge10_Node000003_Node000005"><a xlink:title=" ">
<path fill="none" stroke="#63b8ff" d="M229.04,-220.75C233.99,-203.42 245.04,-164.73 251.83,-140.99"/>
<polygon fill="#63b8ff" stroke="#63b8ff" points="255.13,-142.16 254.51,-131.58 248.4,-140.24 255.13,-142.16"/>
</a>
</g>
</g>
<!-- Node3&#45;&gt;Node9 -->
<g id="edge8_Node000003_Node000009" class="edge">
<title>Node3&#45;&gt;Node9</title>
<g id="a_edge8_Node000003_Node000009"><a xlink:title=" ">
<path fill="none" stroke="#63b8ff" d="M236.85,-220.59C245.58,-212.97 258.29,-201.87 268.8,-192.7"/>
<polygon fill="#63b8ff" stroke="#63b8ff" points="270.93,-195.48 276.16,-186.27 266.33,-190.21 270.93,-195.48"/>
</a>
</g>
</g>
<!-- Node4&#45;&gt;Node5 -->
<g id="edge4_Node000004_Node000005" class="edge">
<title>Node4&#45;&gt;Node5</title>
<g id="a_edge4_Node000004_Node000005"><a xlink:title=" ">
<path fill="none" stroke="#63b8ff" d="M176.12,-165.34C191.19,-157.16 213.64,-144.96 231.15,-135.44"/>
<polygon fill="#63b8ff" stroke="#63b8ff" points="232.35,-138.77 239.46,-130.93 229.01,-132.62 232.35,-138.77"/>
</a>
</g>
</g>
<!-- Node6 -->
<g id="Node000006" class="node">
<title>Node6</title>
<g id="a_Node000006"><a xlink:href="TTL__cpp_2TTL__macros_8h.html" target="_top" xlink:title=" ">
<polygon fill="white" stroke="#666666" points="244,-74.5 165,-74.5 165,-55.25 244,-55.25 244,-74.5"/>
<text text-anchor="middle" x="204.5" y="-61" font-family="Helvetica,sans-Serif" font-size="10.00">TTL_macros.h</text>
</a>
</g>
</g>
<!-- Node5&#45;&gt;Node6 -->
<g id="edge5_Node000005_Node000006" class="edge">
<title>Node5&#45;&gt;Node6</title>
<g id="a_edge5_Node000005_Node000006"><a xlink:title=" ">
<path fill="none" stroke="#63b8ff" d="M248.75,-110.33C241.35,-102.9 230.54,-92.04 221.45,-82.91"/>
<polygon fill="#63b8ff" stroke="#63b8ff" points="224.04,-80.55 214.51,-75.93 219.08,-85.49 224.04,-80.55"/>
</a>
</g>
</g>
<!-- Node7 -->
<g id="Node000007" class="node">
<title>Node7</title>
<g id="a_Node000007"><a xlink:href="TTL__strong__type_8h.html" target="_top" xlink:title=" ">
<polygon fill="white" stroke="#666666" points="359,-74.5 262,-74.5 262,-55.25 359,-55.25 359,-74.5"/>
<text text-anchor="middle" x="310.5" y="-61" font-family="Helvetica,sans-Serif" font-size="10.00">TTL_strong_type.h</text>
</a>
</g>
</g>
<!-- Node5&#45;&gt;Node7 -->
<g id="edge6_Node000005_Node000007" class="edge">
<title>Node5&#45;&gt;Node7</title>
<g id="a_edge6_Node000005_Node000007"><a xlink:title=" ">
<path fill="none" stroke="#63b8ff" d="M266.25,-110.33C273.65,-102.9 284.46,-92.04 293.55,-82.91"/>
<polygon fill="#63b8ff" stroke="#63b8ff" points="295.92,-85.49 300.49,-75.93 290.96,-80.55 295.92,-85.49"/>
</a>
</g>
</g>
<!-- Node8 -->
<g id="Node000008" class="node">
<title>Node8</title>
<g id="a_Node000008"><a xlink:title=" ">
<polygon fill="#e0e0e0" stroke="#999999" points="334.25,-19.25 286.75,-19.25 286.75,0 334.25,0 334.25,-19.25"/>
<text text-anchor="middle" x="310.5" y="-5.75" font-family="Helvetica,sans-Serif" font-size="10.00">stdint.h</text>
</a>
</g>
</g>
<!-- Node7&#45;&gt;Node8 -->
<g id="edge7_Node000007_Node000008" class="edge">
<title>Node7&#45;&gt;Node8</title>
<g id="a_edge7_Node000007_Node000008"><a xlink:title=" ">
<path fill="none" stroke="#63b8ff" d="M310.5,-55.08C310.5,-48.57 310.5,-39.42 310.5,-31.12"/>
<polygon fill="#63b8ff" stroke="#63b8ff" points="314,-31.12 310.5,-21.12 307,-31.12 314,-31.12"/>
</a>
</g>
</g>
<!-- Node9&#45;&gt;Node5 -->
<g id="edge9_Node000009_Node000005" class="edge">
<title>Node9&#45;&gt;Node5</title>
<g id="a_edge9_Node000009_Node000005"><a xlink:title=" ">
<path fill="none" stroke="#63b8ff" d="M282.55,-165.58C278.62,-158.61 272.99,-148.62 268.06,-139.87"/>
<polygon fill="#63b8ff" stroke="#63b8ff" points="271.26,-138.42 263.3,-131.43 265.16,-141.86 271.26,-138.42"/>
</a>
</g>
</g>
</g>
</svg>
