<?xml version="1.0" encoding="UTF-8" standalone="no"?>
<!DOCTYPE svg PUBLIC "-//W3C//DTD SVG 1.1//EN"
 "http://www.w3.org/Graphics/SVG/1.1/DTD/svg11.dtd">
<!-- Generated by graphviz version 12.2.1 (20241206.2353)
 -->
<!-- Title: TTL_tiles.h Pages: 1 -->
<svg width="202pt" height="193pt"
 viewBox="0.00 0.00 202.00 193.00" xmlns="http://www.w3.org/2000/svg" xmlns:xlink="http://www.w3.org/1999/xlink">
<g id="graph0" class="graph" transform="scale(1 1) rotate(0) translate(4 189)">
<title>TTL_tiles.h</title>
<!-- Node1 -->
<g id="Node000001" class="node">
<title>Node1</title>
<g id="a_Node000001"><a xlink:title=" ">
<polygon fill="#999999" stroke="#666666" points="124.88,-185 60.12,-185 60.12,-165.75 124.88,-165.75 124.88,-185"/>
<text text-anchor="middle" x="92.5" y="-171.5" font-family="Helvetica,sans-Serif" font-size="10.00">TTL_tiles.h</text>
</a>
</g>
</g>
<!-- Node2 -->
<g id="Node000002" class="node">
<title>Node2</title>
<g id="a_Node000002"><a xlink:href="TTL__cpp_2TTL__types_8h.html" target="_top" xlink:title=" ">
<polygon fill="white" stroke="#666666" points="127.5,-129.75 57.5,-129.75 57.5,-110.5 127.5,-110.5 127.5,-129.75"/>
<text text-anchor="middle" x="92.5" y="-116.25" font-family="Helvetica,sans-Serif" font-size="10.00">TTL_types.h</text>
</a>
</g>
</g>
<!-- Node1&#45;&gt;Node2 -->
<g id="edge1_Node000001_Node000002" class="edge">
<title>Node1&#45;&gt;Node2</title>
<g id="a_edge1_Node000001_Node000002"><a xlink:title=" ">
<path fill="none" stroke="#63b8ff" d="M92.5,-165.58C92.5,-159.07 92.5,-149.92 92.5,-141.62"/>
<polygon fill="#63b8ff" stroke="#63b8ff" points="96,-141.62 92.5,-131.62 89,-141.62 96,-141.62"/>
</a>
</g>
</g>
<!-- Node3 -->
<g id="Node000003" class="node">
<title>Node3</title>
<g id="a_Node000003"><a xlink:href="TTL__cpp_2TTL__macros_8h.html" target="_top" xlink:title=" ">
<polygon fill="white" stroke="#666666" points="79,-74.5 0,-74.5 0,-55.25 79,-55.25 79,-74.5"/>
<text text-anchor="middle" x="39.5" y="-61" font-family="Helvetica,sans-Serif" font-size="10.00">TTL_macros.h</text>
</a>
</g>
</g>
<!-- Node2&#45;&gt;Node3 -->
<g id="edge2_Node000002_Node000003" class="edge">
<title>Node2&#45;&gt;Node3</title>
<g id="a_edge2_Node000002_Node000003"><a xlink:title=" ">
<path fill="none" stroke="#63b8ff" d="M83.75,-110.33C76.35,-102.9 65.54,-92.04 56.45,-82.91"/>
<polygon fill="#63b8ff" stroke="#63b8ff" points="59.04,-80.55 49.51,-75.93 54.08,-85.49 59.04,-80.55"/>
</a>
</g>
</g>
<!-- Node4 -->
<g id="Node000004" class="node">
<title>Node4</title>
<g id="a_Node000004"><a xlink:href="TTL__strong__type_8h.html" target="_top" xlink:title=" ">
<polygon fill="white" stroke="#666666" points="194,-74.5 97,-74.5 97,-55.25 194,-55.25 194,-74.5"/>
<text text-anchor="middle" x="145.5" y="-61" font-family="Helvetica,sans-Serif" font-size="10.00">TTL_strong_type.h</text>
</a>
</g>
</g>
<!-- Node2&#45;&gt;Node4 -->
<g id="edge3_Node000002_Node000004" class="edge">
<title>Node2&#45;&gt;Node4</title>
<g id="a_edge3_Node000002_Node000004"><a xlink:title=" ">
<path fill="none" stroke="#63b8ff" d="M101.25,-110.33C108.65,-102.9 119.46,-92.04 128.55,-82.91"/>
<polygon fill="#63b8ff" stroke="#63b8ff" points="130.92,-85.49 135.49,-75.93 125.96,-80.55 130.92,-85.49"/>
</a>
</g>
</g>
<!-- Node5 -->
<g id="Node000005" class="node">
<title>Node5</title>
<g id="a_Node000005"><a xlink:title=" ">
<polygon fill="#e0e0e0" stroke="#999999" points="169.25,-19.25 121.75,-19.25 121.75,0 169.25,0 169.25,-19.25"/>
<text text-anchor="middle" x="145.5" y="-5.75" font-family="Helvetica,sans-Serif" font-size="10.00">stdint.h</text>
</a>
</g>
</g>
<!-- Node4&#45;&gt;Node5 -->
<g id="edge4_Node000004_Node000005" class="edge">
<title>Node4&#45;&gt;Node5</title>
<g id="a_edge4_Node000004_Node000005"><a xlink:title=" ">
<path fill="none" stroke="#63b8ff" d="M145.5,-55.08C145.5,-48.57 145.5,-39.42 145.5,-31.12"/>
<polygon fill="#63b8ff" stroke="#63b8ff" points="149,-31.12 145.5,-21.12 142,-31.12 149,-31.12"/>
</a>
</g>
</g>
</g>
</svg>
