<?xml version="1.0" encoding="UTF-8" standalone="no"?>
<!DOCTYPE svg PUBLIC "-//W3C//DTD SVG 1.1//EN"
 "http://www.w3.org/Graphics/SVG/1.1/DTD/svg11.dtd">
<!-- Generated by graphviz version 12.2.1 (20241206.2353)
 -->
<!-- Title: TTL_types.h Pages: 1 -->
<svg width="230pt" height="359pt"
 viewBox="0.00 0.00 230.00 358.75" xmlns="http://www.w3.org/2000/svg" xmlns:xlink="http://www.w3.org/1999/xlink">
<g id="graph0" class="graph" transform="scale(1 1) rotate(0) translate(4 354.75)">
<title>TTL_types.h</title>
<!-- Node1 -->
<g id="Node000001" class="node">
<title>Node1</title>
<g id="a_Node000001"><a xlink:title=" ">
<polygon fill="#999999" stroke="#666666" points="130.62,-350.75 60.62,-350.75 60.62,-331.5 130.62,-331.5 130.62,-350.75"/>
<text text-anchor="middle" x="95.62" y="-337.25" font-family="Helvetica,sans-Serif" font-size="10.00">TTL_types.h</text>
</a>
</g>
</g>
<!-- Node2 -->
<g id="Node000002" class="node">
<title>Node2</title>
<g id="a_Node000002"><a xlink:href="TTL__cpp_2TTL__core_8h.html" target="_top" xlink:title=" ">
<polygon fill="white" stroke="#666666" points="125.38,-185 59.88,-185 59.88,-165.75 125.38,-165.75 125.38,-185"/>
<text text-anchor="middle" x="92.62" y="-171.5" font-family="Helvetica,sans-Serif" font-size="10.00">TTL_core.h</text>
</a>
</g>
</g>
<!-- Node1&#45;&gt;Node2 -->
<g id="edge1_Node000001_Node000002" class="edge">
<title>Node1&#45;&gt;Node2</title>
<g id="a_edge1_Node000001_Node000002"><a xlink:title=" ">
<path fill="none" stroke="#63b8ff" d="M51.47,-326.9C36.45,-320.05 21.29,-309.99 12.62,-295.5 -12.68,-253.16 49.01,-205.05 78.27,-185.43"/>
<polygon fill="#63b8ff" stroke="#63b8ff" points="49.78,-329.99 60.36,-330.56 52.45,-323.51 49.78,-329.99"/>
</a>
</g>
</g>
<!-- Node6 -->
<g id="Node000006" class="node">
<title>Node6</title>
<g id="a_Node000006"><a xlink:href="TTL__cpp_2TTL__debug_8h.html" target="_top" xlink:title=" ">
<polygon fill="white" stroke="#666666" points="162.12,-240.25 89.12,-240.25 89.12,-221 162.12,-221 162.12,-240.25"/>
<text text-anchor="middle" x="125.62" y="-226.75" font-family="Helvetica,sans-Serif" font-size="10.00">TTL_debug.h</text>
</a>
</g>
</g>
<!-- Node1&#45;&gt;Node6 -->
<g id="edge6_Node000001_Node000006" class="edge">
<title>Node1&#45;&gt;Node6</title>
<g id="a_edge6_Node000001_Node000006"><a xlink:title=" ">
<path fill="none" stroke="#63b8ff" d="M102.67,-320.48C105.33,-312.74 108.27,-303.75 110.62,-295.5 116.18,-276 121.26,-252.74 123.84,-240.37"/>
<polygon fill="#63b8ff" stroke="#63b8ff" points="99.38,-319.29 99.36,-329.88 105.98,-321.61 99.38,-319.29"/>
</a>
</g>
</g>
<!-- Node7 -->
<g id="Node000007" class="node">
<title>Node7</title>
<g id="a_Node000007"><a xlink:href="TTL__cpp_2TTL__tensors_8h.html" target="_top" xlink:title=" ">
<polygon fill="white" stroke="#666666" points="101.12,-295.5 22.12,-295.5 22.12,-276.25 101.12,-276.25 101.12,-295.5"/>
<text text-anchor="middle" x="61.62" y="-282" font-family="Helvetica,sans-Serif" font-size="10.00">TTL_tensors.h</text>
</a>
</g>
</g>
<!-- Node1&#45;&gt;Node7 -->
<g id="edge8_Node000001_Node000007" class="edge">
<title>Node1&#45;&gt;Node7</title>
<g id="a_edge8_Node000001_Node000007"><a xlink:title=" ">
<path fill="none" stroke="#63b8ff" d="M83.99,-321.9C78.38,-313.11 71.9,-302.96 67.36,-295.86"/>
<polygon fill="#63b8ff" stroke="#63b8ff" points="80.86,-323.51 89.2,-330.06 86.76,-319.74 80.86,-323.51"/>
</a>
</g>
</g>
<!-- Node8 -->
<g id="Node000008" class="node">
<title>Node8</title>
<g id="a_Node000008"><a xlink:href="TTL__cpp_2TTL__tiles_8h.html" target="_top" xlink:title=" ">
<polygon fill="white" stroke="#666666" points="222,-295.5 157.25,-295.5 157.25,-276.25 222,-276.25 222,-295.5"/>
<text text-anchor="middle" x="189.62" y="-282" font-family="Helvetica,sans-Serif" font-size="10.00">TTL_tiles.h</text>
</a>
</g>
</g>
<!-- Node1&#45;&gt;Node8 -->
<g id="edge11_Node000001_Node000008" class="edge">
<title>Node1&#45;&gt;Node8</title>
<g id="a_edge11_Node000001_Node000008"><a xlink:title=" ">
<path fill="none" stroke="#63b8ff" d="M121.28,-325.59C137.99,-316.13 159.26,-304.08 173.6,-295.95"/>
<polygon fill="#63b8ff" stroke="#63b8ff" points="119.86,-322.37 112.89,-330.35 123.31,-328.46 119.86,-322.37"/>
</a>
</g>
</g>
<!-- Node3 -->
<g id="Node000003" class="node">
<title>Node3</title>
<g id="a_Node000003"><a xlink:href="TTL__cpp_2TTL__import__export_8h.html" target="_top" xlink:title=" ">
<polygon fill="white" stroke="#666666" points="105.25,-129.75 0,-129.75 0,-110.5 105.25,-110.5 105.25,-129.75"/>
<text text-anchor="middle" x="52.62" y="-116.25" font-family="Helvetica,sans-Serif" font-size="10.00">TTL_import_export.h</text>
</a>
</g>
</g>
<!-- Node2&#45;&gt;Node3 -->
<g id="edge2_Node000002_Node000003" class="edge">
<title>Node2&#45;&gt;Node3</title>
<g id="a_edge2_Node000002_Node000003"><a xlink:title=" ">
<path fill="none" stroke="#63b8ff" d="M79.15,-156.44C72.5,-147.59 64.77,-137.29 59.37,-130.11"/>
<polygon fill="#63b8ff" stroke="#63b8ff" points="76.31,-158.48 85.11,-164.37 81.9,-154.27 76.31,-158.48"/>
</a>
</g>
</g>
<!-- Node4 -->
<g id="Node000004" class="node">
<title>Node4</title>
<g id="a_Node000004"><a xlink:href="TTL__cpp_2TTL__pipeline__schemes_8h.html" target="_top" xlink:title=" ">
<polygon fill="white" stroke="#666666" points="155,-74.5 30.25,-74.5 30.25,-55.25 155,-55.25 155,-74.5"/>
<text text-anchor="middle" x="92.62" y="-61" font-family="Helvetica,sans-Serif" font-size="10.00">TTL_pipeline_schemes.h</text>
</a>
</g>
</g>
<!-- Node2&#45;&gt;Node4 -->
<g id="edge5_Node000002_Node000004" class="edge">
<title>Node2&#45;&gt;Node4</title>
<g id="a_edge5_Node000002_Node000004"><a xlink:title=" ">
<path fill="none" stroke="#63b8ff" d="M104.29,-155.56C108.41,-147.86 112.55,-138.67 114.62,-129.75 119.31,-109.65 107.16,-86.99 99.1,-74.8"/>
<polygon fill="#63b8ff" stroke="#63b8ff" points="101.4,-153.55 99.43,-163.96 107.46,-157.06 101.4,-153.55"/>
</a>
</g>
</g>
<!-- Node3&#45;&gt;Node4 -->
<g id="edge3_Node000003_Node000004" class="edge">
<title>Node3&#45;&gt;Node4</title>
<g id="a_edge3_Node000003_Node000004"><a xlink:title=" ">
<path fill="none" stroke="#63b8ff" d="M66.1,-101.19C72.75,-92.34 80.48,-82.04 85.88,-74.86"/>
<polygon fill="#63b8ff" stroke="#63b8ff" points="63.35,-99.02 60.14,-109.12 68.94,-103.23 63.35,-99.02"/>
</a>
</g>
</g>
<!-- Node5 -->
<g id="Node000005" class="node">
<title>Node5</title>
<g id="a_Node000005"><a xlink:href="TTL__cpp_2TTL_8h.html" target="_top" xlink:title=" ">
<polygon fill="white" stroke="#666666" points="113.38,-19.25 71.88,-19.25 71.88,0 113.38,0 113.38,-19.25"/>
<text text-anchor="middle" x="92.62" y="-5.75" font-family="Helvetica,sans-Serif" font-size="10.00">TTL.h</text>
</a>
</g>
</g>
<!-- Node4&#45;&gt;Node5 -->
<g id="edge4_Node000004_Node000005" class="edge">
<title>Node4&#45;&gt;Node5</title>
<g id="a_edge4_Node000004_Node000005"><a xlink:title=" ">
<path fill="none" stroke="#63b8ff" d="M92.62,-43.63C92.62,-35.34 92.62,-26.17 92.62,-19.61"/>
<polygon fill="#63b8ff" stroke="#63b8ff" points="89.13,-43.57 92.63,-53.57 96.13,-43.57 89.13,-43.57"/>
</a>
</g>
</g>
<!-- Node6&#45;&gt;Node2 -->
<g id="edge7_Node000006_Node000002" class="edge">
<title>Node6&#45;&gt;Node2</title>
<g id="a_edge7_Node000006_Node000002"><a xlink:title=" ">
<path fill="none" stroke="#63b8ff" d="M114.15,-211.12C108.75,-202.39 102.55,-192.39 98.19,-185.36"/>
<polygon fill="#63b8ff" stroke="#63b8ff" points="111.14,-212.89 119.38,-219.55 117.09,-209.2 111.14,-212.89"/>
</a>
</g>
</g>
<!-- Node7&#45;&gt;Node2 -->
<g id="edge9_Node000007_Node000002" class="edge">
<title>Node7&#45;&gt;Node2</title>
<g id="a_edge9_Node000007_Node000002"><a xlink:title=" ">
<path fill="none" stroke="#63b8ff" d="M67.25,-264.72C70.78,-252.15 75.44,-235.62 79.62,-221 83.18,-208.59 87.37,-194.26 90.01,-185.26"/>
<polygon fill="#63b8ff" stroke="#63b8ff" points="63.9,-263.74 64.57,-274.31 70.64,-265.63 63.9,-263.74"/>
</a>
</g>
</g>
<!-- Node7&#45;&gt;Node6 -->
<g id="edge10_Node000007_Node000006" class="edge">
<title>Node7&#45;&gt;Node6</title>
<g id="a_edge10_Node000007_Node000006"><a xlink:title=" ">
<path fill="none" stroke="#63b8ff" d="M81.11,-268.66C92.22,-259.42 105.73,-248.18 114.93,-240.52"/>
<polygon fill="#63b8ff" stroke="#63b8ff" points="79.09,-265.79 73.65,-274.87 83.57,-271.17 79.09,-265.79"/>
</a>
</g>
</g>
<!-- Node8&#45;&gt;Node2 -->
<g id="edge12_Node000008_Node000002" class="edge">
<title>Node8&#45;&gt;Node2</title>
<g id="a_edge12_Node000008_Node000002"><a xlink:title=" ">
<path fill="none" stroke="#63b8ff" d="M187.99,-265.04C185.99,-251.43 181.54,-233.63 171.62,-221 158.39,-204.15 136.93,-192.61 119.71,-185.49"/>
<polygon fill="#63b8ff" stroke="#63b8ff" points="184.47,-265.03 189.06,-274.58 191.43,-264.25 184.47,-265.03"/>
</a>
</g>
</g>
<!-- Node8&#45;&gt;Node6 -->
<g id="edge13_Node000008_Node000006" class="edge">
<title>Node8&#45;&gt;Node6</title>
<g id="a_edge13_Node000008_Node000006"><a xlink:title=" ">
<path fill="none" stroke="#63b8ff" d="M170.14,-268.66C159.03,-259.42 145.52,-248.18 136.32,-240.52"/>
<polygon fill="#63b8ff" stroke="#63b8ff" points="167.68,-271.17 177.6,-274.87 172.16,-265.79 167.68,-271.17"/>
</a>
</g>
</g>
</g>
</svg>
