<?xml version="1.0" encoding="UTF-8" standalone="no"?>
<!DOCTYPE svg PUBLIC "-//W3C//DTD SVG 1.1//EN"
 "http://www.w3.org/Graphics/SVG/1.1/DTD/svg11.dtd">
<!-- Generated by graphviz version 12.2.1 (20241206.2353)
 -->
<!-- Title: TTL_import_export.h Pages: 1 -->
<svg width="514pt" height="359pt"
 viewBox="0.00 0.00 514.25 358.75" xmlns="http://www.w3.org/2000/svg" xmlns:xlink="http://www.w3.org/1999/xlink">
<g id="graph0" class="graph" transform="scale(1 1) rotate(0) translate(4 354.75)">
<title>TTL_import_export.h</title>
<!-- Node1 -->
<g id="Node000001" class="node">
<title>Node1</title>
<g id="a_Node000001"><a xlink:title=" ">
<polygon fill="#999999" stroke="#666666" points="370.12,-350.75 264.88,-350.75 264.88,-331.5 370.12,-331.5 370.12,-350.75"/>
<text text-anchor="middle" x="317.5" y="-337.25" font-family="Helvetica,sans-Serif" font-size="10.00">TTL_import_export.h</text>
</a>
</g>
</g>
<!-- Node2 -->
<g id="Node000002" class="node">
<title>Node2</title>
<g id="a_Node000002"><a xlink:href="TTL__cpp_2TTL__core_8h.html" target="_top" xlink:title=" ">
<polygon fill="white" stroke="#666666" points="291.25,-295.5 225.75,-295.5 225.75,-276.25 291.25,-276.25 291.25,-295.5"/>
<text text-anchor="middle" x="258.5" y="-282" font-family="Helvetica,sans-Serif" font-size="10.00">TTL_core.h</text>
</a>
</g>
</g>
<!-- Node1&#45;&gt;Node2 -->
<g id="edge1_Node000001_Node000002" class="edge">
<title>Node1&#45;&gt;Node2</title>
<g id="a_edge1_Node000001_Node000002"><a xlink:title=" ">
<path fill="none" stroke="#63b8ff" d="M307.49,-331.09C299.13,-323.55 287,-312.6 276.9,-303.48"/>
<polygon fill="#63b8ff" stroke="#63b8ff" points="279.25,-300.89 269.48,-296.79 274.56,-306.09 279.25,-300.89"/>
</a>
</g>
</g>
<!-- Node11 -->
<g id="Node000011" class="node">
<title>Node11</title>
<g id="a_Node000011"><a xlink:href="TTL__cpp_2opencl_2TTL__import__export_8h.html" target="_top" xlink:title=" ">
<polygon fill="white" stroke="#666666" points="476.88,-295.5 340.12,-295.5 340.12,-276.25 476.88,-276.25 476.88,-295.5"/>
<text text-anchor="middle" x="408.5" y="-282" font-family="Helvetica,sans-Serif" font-size="10.00">opencl/TTL_import_export.h</text>
</a>
</g>
</g>
<!-- Node1&#45;&gt;Node11 -->
<g id="edge15_Node000001_Node000011" class="edge">
<title>Node1&#45;&gt;Node11</title>
<g id="a_edge15_Node000001_Node000011"><a xlink:title=" ">
<path fill="none" stroke="#63b8ff" d="M332.94,-331.09C346.66,-323.06 367,-311.16 383.12,-301.73"/>
<polygon fill="#63b8ff" stroke="#63b8ff" points="384.82,-304.79 391.68,-296.72 381.28,-298.75 384.82,-304.79"/>
</a>
</g>
</g>
<!-- Node3 -->
<g id="Node000003" class="node">
<title>Node3</title>
<g id="a_Node000003"><a xlink:title=" ">
<polygon fill="#e0e0e0" stroke="#999999" points="133,-240.25 0,-240.25 0,-221 133,-221 133,-240.25"/>
<text text-anchor="middle" x="66.5" y="-226.75" font-family="Helvetica,sans-Serif" font-size="10.00">TTL_TYPES_INCLUDE_H</text>
</a>
</g>
</g>
<!-- Node2&#45;&gt;Node3 -->
<g id="edge2_Node000002_Node000003" class="edge">
<title>Node2&#45;&gt;Node3</title>
<g id="a_edge2_Node000002_Node000003"><a xlink:title=" ">
<path fill="none" stroke="#63b8ff" d="M225.93,-275.84C194.07,-267.01 145.34,-253.49 110.14,-243.73"/>
<polygon fill="#63b8ff" stroke="#63b8ff" points="111.26,-240.41 100.69,-241.11 109.39,-247.15 111.26,-240.41"/>
</a>
</g>
</g>
<!-- Node4 -->
<g id="Node000004" class="node">
<title>Node4</title>
<g id="a_Node000004"><a xlink:href="TTL__cpp_2TTL__debug_8h.html" target="_top" xlink:title=" ">
<polygon fill="white" stroke="#666666" points="263,-240.25 190,-240.25 190,-221 263,-221 263,-240.25"/>
<text text-anchor="middle" x="226.5" y="-226.75" font-family="Helvetica,sans-Serif" font-size="10.00">TTL_debug.h</text>
</a>
</g>
</g>
<!-- Node2&#45;&gt;Node4 -->
<g id="edge3_Node000002_Node000004" class="edge">
<title>Node2&#45;&gt;Node4</title>
<g id="a_edge3_Node000002_Node000004"><a xlink:title=" ">
<path fill="none" stroke="#63b8ff" d="M253.22,-276.08C249.03,-269.11 243.02,-259.12 237.77,-250.37"/>
<polygon fill="#63b8ff" stroke="#63b8ff" points="240.83,-248.68 232.68,-241.91 234.83,-252.28 240.83,-248.68"/>
</a>
</g>
</g>
<!-- Node5 -->
<g id="Node000005" class="node">
<title>Node5</title>
<g id="a_Node000005"><a xlink:href="TTL__cpp_2TTL__tensors_8h.html" target="_top" xlink:title=" ">
<polygon fill="white" stroke="#666666" points="198,-185 119,-185 119,-165.75 198,-165.75 198,-185"/>
<text text-anchor="middle" x="158.5" y="-171.5" font-family="Helvetica,sans-Serif" font-size="10.00">TTL_tensors.h</text>
</a>
</g>
</g>
<!-- Node2&#45;&gt;Node5 -->
<g id="edge12_Node000002_Node000005" class="edge">
<title>Node2&#45;&gt;Node5</title>
<g id="a_edge12_Node000002_Node000005"><a xlink:title=" ">
<path fill="none" stroke="#63b8ff" d="M233.18,-275.9C216.13,-268.68 194.33,-256.96 180.5,-240.25 170.08,-227.66 164.48,-209.85 161.55,-196.24"/>
<polygon fill="#63b8ff" stroke="#63b8ff" points="165.04,-195.88 159.81,-186.67 158.16,-197.13 165.04,-195.88"/>
</a>
</g>
</g>
<!-- Node6 -->
<g id="Node000006" class="node">
<title>Node6</title>
<g id="a_Node000006"><a xlink:href="TTL__cpp_2TTL__types_8h.html" target="_top" xlink:title=" ">
<polygon fill="white" stroke="#666666" points="291.5,-129.75 221.5,-129.75 221.5,-110.5 291.5,-110.5 291.5,-129.75"/>
<text text-anchor="middle" x="256.5" y="-116.25" font-family="Helvetica,sans-Serif" font-size="10.00">TTL_types.h</text>
</a>
</g>
</g>
<!-- Node2&#45;&gt;Node6 -->
<g id="edge14_Node000002_Node000006" class="edge">
<title>Node2&#45;&gt;Node6</title>
<g id="a_edge14_Node000002_Node000006"><a xlink:title=" ">
<path fill="none" stroke="#63b8ff" d="M270.66,-275.98C296.05,-256.27 350.5,-207.38 327.5,-165.75 319.98,-152.14 306.38,-142.12 293.08,-135.07"/>
<polygon fill="#63b8ff" stroke="#63b8ff" points="294.97,-132.09 284.44,-130.89 291.92,-138.39 294.97,-132.09"/>
</a>
</g>
</g>
<!-- Node10 -->
<g id="Node000010" class="node">
<title>Node10</title>
<g id="a_Node000010"><a xlink:href="TTL__cpp_2TTL__tiles_8h.html" target="_top" xlink:title=" ">
<polygon fill="white" stroke="#666666" points="318.88,-185 254.12,-185 254.12,-165.75 318.88,-165.75 318.88,-185"/>
<text text-anchor="middle" x="286.5" y="-171.5" font-family="Helvetica,sans-Serif" font-size="10.00">TTL_tiles.h</text>
</a>
</g>
</g>
<!-- Node2&#45;&gt;Node10 -->
<g id="edge13_Node000002_Node000010" class="edge">
<title>Node2&#45;&gt;Node10</title>
<g id="a_edge13_Node000002_Node000010"><a xlink:title=" ">
<path fill="none" stroke="#63b8ff" d="M261.23,-276.02C263.96,-267.05 268.22,-252.74 271.5,-240.25 275.37,-225.54 279.28,-208.8 282.14,-196.15"/>
<polygon fill="#63b8ff" stroke="#63b8ff" points="285.52,-197.09 284.28,-186.57 278.68,-195.56 285.52,-197.09"/>
</a>
</g>
</g>
<!-- Node4&#45;&gt;Node5 -->
<g id="edge4_Node000004_Node000005" class="edge">
<title>Node4&#45;&gt;Node5</title>
<g id="a_edge4_Node000004_Node000005"><a xlink:title=" ">
<path fill="none" stroke="#63b8ff" d="M214.96,-220.59C205.04,-212.82 190.49,-201.42 178.64,-192.15"/>
<polygon fill="#63b8ff" stroke="#63b8ff" points="181.09,-189.62 171.06,-186.21 176.77,-195.13 181.09,-189.62"/>
</a>
</g>
</g>
<!-- Node4&#45;&gt;Node6 -->
<g id="edge11_Node000004_Node000006" class="edge">
<title>Node4&#45;&gt;Node6</title>
<g id="a_edge11_Node000004_Node000006"><a xlink:title=" ">
<path fill="none" stroke="#63b8ff" d="M228.96,-220.75C233.75,-203.42 244.44,-164.73 251.01,-140.99"/>
<polygon fill="#63b8ff" stroke="#63b8ff" points="254.32,-142.16 253.61,-131.59 247.57,-140.29 254.32,-142.16"/>
</a>
</g>
</g>
<!-- Node4&#45;&gt;Node10 -->
<g id="edge9_Node000004_Node000010" class="edge">
<title>Node4&#45;&gt;Node10</title>
<g id="a_edge9_Node000004_Node000010"><a xlink:title=" ">
<path fill="none" stroke="#63b8ff" d="M236.68,-220.59C245.26,-212.97 257.77,-201.87 268.1,-192.7"/>
<polygon fill="#63b8ff" stroke="#63b8ff" points="270.18,-195.54 275.34,-186.28 265.54,-190.3 270.18,-195.54"/>
</a>
</g>
</g>
<!-- Node5&#45;&gt;Node6 -->
<g id="edge5_Node000005_Node000006" class="edge">
<title>Node5&#45;&gt;Node6</title>
<g id="a_edge5_Node000005_Node000006"><a xlink:title=" ">
<path fill="none" stroke="#63b8ff" d="M175.12,-165.34C190.19,-157.16 212.64,-144.96 230.15,-135.44"/>
<polygon fill="#63b8ff" stroke="#63b8ff" points="231.35,-138.77 238.46,-130.93 228.01,-132.62 231.35,-138.77"/>
</a>
</g>
</g>
<!-- Node7 -->
<g id="Node000007" class="node">
<title>Node7</title>
<g id="a_Node000007"><a xlink:href="TTL__cpp_2TTL__macros_8h.html" target="_top" xlink:title=" ">
<polygon fill="white" stroke="#666666" points="243,-74.5 164,-74.5 164,-55.25 243,-55.25 243,-74.5"/>
<text text-anchor="middle" x="203.5" y="-61" font-family="Helvetica,sans-Serif" font-size="10.00">TTL_macros.h</text>
</a>
</g>
</g>
<!-- Node6&#45;&gt;Node7 -->
<g id="edge6_Node000006_Node000007" class="edge">
<title>Node6&#45;&gt;Node7</title>
<g id="a_edge6_Node000006_Node000007"><a xlink:title=" ">
<path fill="none" stroke="#63b8ff" d="M247.75,-110.33C240.35,-102.9 229.54,-92.04 220.45,-82.91"/>
<polygon fill="#63b8ff" stroke="#63b8ff" points="223.04,-80.55 213.51,-75.93 218.08,-85.49 223.04,-80.55"/>
</a>
</g>
</g>
<!-- Node8 -->
<g id="Node000008" class="node">
<title>Node8</title>
<g id="a_Node000008"><a xlink:href="TTL__strong__type_8h.html" target="_top" xlink:title=" ">
<polygon fill="white" stroke="#666666" points="358,-74.5 261,-74.5 261,-55.25 358,-55.25 358,-74.5"/>
<text text-anchor="middle" x="309.5" y="-61" font-family="Helvetica,sans-Serif" font-size="10.00">TTL_strong_type.h</text>
</a>
</g>
</g>
<!-- Node6&#45;&gt;Node8 -->
<g id="edge7_Node000006_Node000008" class="edge">
<title>Node6&#45;&gt;Node8</title>
<g id="a_edge7_Node000006_Node000008"><a xlink:title=" ">
<path fill="none" stroke="#63b8ff" d="M265.25,-110.33C272.65,-102.9 283.46,-92.04 292.55,-82.91"/>
<polygon fill="#63b8ff" stroke="#63b8ff" points="294.92,-85.49 299.49,-75.93 289.96,-80.55 294.92,-85.49"/>
</a>
</g>
</g>
<!-- Node9 -->
<g id="Node000009" class="node">
<title>Node9</title>
<g id="a_Node000009"><a xlink:title=" ">
<polygon fill="#e0e0e0" stroke="#999999" points="333.25,-19.25 285.75,-19.25 285.75,0 333.25,0 333.25,-19.25"/>
<text text-anchor="middle" x="309.5" y="-5.75" font-family="Helvetica,sans-Serif" font-size="10.00">stdint.h</text>
</a>
</g>
</g>
<!-- Node8&#45;&gt;Node9 -->
<g id="edge8_Node000008_Node000009" class="edge">
<title>Node8&#45;&gt;Node9</title>
<g id="a_edge8_Node000008_Node000009"><a xlink:title=" ">
<path fill="none" stroke="#63b8ff" d="M309.5,-55.08C309.5,-48.57 309.5,-39.42 309.5,-31.12"/>
<polygon fill="#63b8ff" stroke="#63b8ff" points="313,-31.12 309.5,-21.12 306,-31.12 313,-31.12"/>
</a>
</g>
</g>
<!-- Node10&#45;&gt;Node6 -->
<g id="edge10_Node000010_Node000006" class="edge">
<title>Node10&#45;&gt;Node6</title>
<g id="a_edge10_Node000010_Node000006"><a xlink:title=" ">
<path fill="none" stroke="#63b8ff" d="M281.55,-165.58C277.62,-158.61 271.99,-148.62 267.06,-139.87"/>
<polygon fill="#63b8ff" stroke="#63b8ff" points="270.26,-138.42 262.3,-131.43 264.16,-141.86 270.26,-138.42"/>
</a>
</g>
</g>
<!-- Node12 -->
<g id="Node000012" class="node">
<title>Node12</title>
<g id="a_Node000012"><a xlink:href="TTL__c_2TTL__macros_8h.html" target="_top" xlink:title=" ">
<polygon fill="white" stroke="#666666" points="506.25,-240.25 374.75,-240.25 374.75,-221 506.25,-221 506.25,-240.25"/>
<text text-anchor="middle" x="440.5" y="-226.75" font-family="Helvetica,sans-Serif" font-size="10.00">TTL/TTL_c/TTL_macros.h</text>
</a>
</g>
</g>
<!-- Node11&#45;&gt;Node12 -->
<g id="edge16_Node000011_Node000012" class="edge">
<title>Node11&#45;&gt;Node12</title>
<g id="a_edge16_Node000011_Node000012"><a xlink:title=" ">
<path fill="none" stroke="#63b8ff" d="M413.78,-276.08C417.97,-269.11 423.98,-259.12 429.23,-250.37"/>
<polygon fill="#63b8ff" stroke="#63b8ff" points="432.17,-252.28 434.32,-241.91 426.17,-248.68 432.17,-252.28"/>
</a>
</g>
</g>
</g>
</svg>
