<?xml version="1.0" encoding="UTF-8" standalone="no"?>
<!DOCTYPE svg PUBLIC "-//W3C//DTD SVG 1.1//EN"
 "http://www.w3.org/Graphics/SVG/1.1/DTD/svg11.dtd">
<!-- Generated by graphviz version 12.2.1 (20241206.2353)
 -->
<!-- Title: TTL_pipeline_schemes.h Pages: 1 -->
<svg width="710pt" height="425pt"
 viewBox="0.00 0.00 710.12 425.25" xmlns="http://www.w3.org/2000/svg" xmlns:xlink="http://www.w3.org/1999/xlink">
<g id="graph0" class="graph" transform="scale(1 1) rotate(0) translate(4 421.25)">
<title>TTL_pipeline_schemes.h</title>
<!-- Node1 -->
<g id="Node000001" class="node">
<title>Node1</title>
<g id="a_Node000001"><a xlink:title=" ">
<polygon fill="#999999" stroke="#666666" points="451.75,-417.25 327,-417.25 327,-398 451.75,-398 451.75,-417.25"/>
<text text-anchor="middle" x="389.38" y="-403.75" font-family="Helvetica,sans-Serif" font-size="10.00">TTL_pipeline_schemes.h</text>
</a>
</g>
</g>
<!-- Node2 -->
<g id="Node000002" class="node">
<title>Node2</title>
<g id="a_Node000002"><a xlink:href="TTL__cpp_2TTL__core_8h.html" target="_top" xlink:title=" ">
<polygon fill="white" stroke="#666666" points="216.12,-295.5 150.62,-295.5 150.62,-276.25 216.12,-276.25 216.12,-295.5"/>
<text text-anchor="middle" x="183.38" y="-282" font-family="Helvetica,sans-Serif" font-size="10.00">TTL_core.h</text>
</a>
</g>
</g>
<!-- Node1&#45;&gt;Node2 -->
<g id="edge1_Node000001_Node000002" class="edge">
<title>Node1&#45;&gt;Node2</title>
<g id="a_edge1_Node000001_Node000002"><a xlink:title=" ">
<path fill="none" stroke="#63b8ff" d="M326.52,-398.69C279.31,-391.47 219.9,-379.29 202.38,-362 187.95,-347.77 183.92,-324.28 183.05,-307.35"/>
<polygon fill="#63b8ff" stroke="#63b8ff" points="186.55,-307.41 182.9,-297.46 179.55,-307.51 186.55,-307.41"/>
</a>
</g>
</g>
<!-- Node11 -->
<g id="Node000011" class="node">
<title>Node11</title>
<g id="a_Node000011"><a xlink:href="TTL__cpp_2TTL__import__export_8h.html" target="_top" xlink:title=" ">
<polygon fill="white" stroke="#666666" points="317,-356.38 211.75,-356.38 211.75,-337.12 317,-337.12 317,-356.38"/>
<text text-anchor="middle" x="264.38" y="-342.88" font-family="Helvetica,sans-Serif" font-size="10.00">TTL_import_export.h</text>
</a>
</g>
</g>
<!-- Node1&#45;&gt;Node11 -->
<g id="edge15_Node000001_Node000011" class="edge">
<title>Node1&#45;&gt;Node11</title>
<g id="a_edge15_Node000001_Node000011"><a xlink:title=" ">
<path fill="none" stroke="#63b8ff" d="M370.12,-397.55C349.69,-387.93 317.17,-372.62 293.58,-361.51"/>
<polygon fill="#63b8ff" stroke="#63b8ff" points="295.36,-358.47 284.82,-357.38 292.37,-364.81 295.36,-358.47"/>
</a>
</g>
</g>
<!-- Node14 -->
<g id="Node000014" class="node">
<title>Node14</title>
<g id="a_Node000014"><a xlink:href="p_2pipelines_2TTL__double__scheme_8h.html" target="_top" xlink:title=" ">
<polygon fill="white" stroke="#666666" points="443.88,-362 334.88,-362 334.88,-331.5 443.88,-331.5 443.88,-362"/>
<text text-anchor="start" x="342.88" y="-348.5" font-family="Helvetica,sans-Serif" font-size="10.00">pipelines/TTL_double</text>
<text text-anchor="middle" x="389.38" y="-337.25" font-family="Helvetica,sans-Serif" font-size="10.00">_scheme.h</text>
</a>
</g>
</g>
<!-- Node1&#45;&gt;Node14 -->
<g id="edge19_Node000001_Node000014" class="edge">
<title>Node1&#45;&gt;Node14</title>
<g id="a_edge19_Node000001_Node000014"><a xlink:title=" ">
<path fill="none" stroke="#63b8ff" d="M389.38,-397.68C389.38,-391.23 389.38,-382.16 389.38,-373.51"/>
<polygon fill="#63b8ff" stroke="#63b8ff" points="392.88,-373.8 389.38,-363.8 385.88,-373.8 392.88,-373.8"/>
</a>
</g>
</g>
<!-- Node16 -->
<g id="Node000016" class="node">
<title>Node16</title>
<g id="a_Node000016"><a xlink:href="p_2pipelines_2TTL__duplex__scheme_8h.html" target="_top" xlink:title=" ">
<polygon fill="white" stroke="#666666" points="570.5,-362 462.25,-362 462.25,-331.5 570.5,-331.5 570.5,-362"/>
<text text-anchor="start" x="470.25" y="-348.5" font-family="Helvetica,sans-Serif" font-size="10.00">pipelines/TTL_duplex</text>
<text text-anchor="middle" x="516.38" y="-337.25" font-family="Helvetica,sans-Serif" font-size="10.00">_scheme.h</text>
</a>
</g>
</g>
<!-- Node1&#45;&gt;Node16 -->
<g id="edge22_Node000001_Node000016" class="edge">
<title>Node1&#45;&gt;Node16</title>
<g id="a_edge22_Node000001_Node000016"><a xlink:title=" ">
<path fill="none" stroke="#63b8ff" d="M408.94,-397.55C426.36,-389.48 452.43,-377.39 474.53,-367.15"/>
<polygon fill="#63b8ff" stroke="#63b8ff" points="475.7,-370.46 483.3,-363.08 472.76,-364.11 475.7,-370.46"/>
</a>
</g>
</g>
<!-- Node17 -->
<g id="Node000017" class="node">
<title>Node17</title>
<g id="a_Node000017"><a xlink:href="p_2pipelines_2TTL__simplex__scheme_8h.html" target="_top" xlink:title=" ">
<polygon fill="white" stroke="#666666" points="702.12,-362 588.62,-362 588.62,-331.5 702.12,-331.5 702.12,-362"/>
<text text-anchor="start" x="596.62" y="-348.5" font-family="Helvetica,sans-Serif" font-size="10.00">pipelines/TTL_simplex</text>
<text text-anchor="middle" x="645.38" y="-337.25" font-family="Helvetica,sans-Serif" font-size="10.00">_scheme.h</text>
</a>
</g>
</g>
<!-- Node1&#45;&gt;Node17 -->
<g id="edge25_Node000001_Node000017" class="edge">
<title>Node1&#45;&gt;Node17</title>
<g id="a_edge25_Node000001_Node000017"><a xlink:title=" ">
<path fill="none" stroke="#63b8ff" d="M428.81,-397.55C468.29,-388.48 529.8,-374.33 577.19,-363.43"/>
<polygon fill="#63b8ff" stroke="#63b8ff" points="577.87,-366.87 586.83,-361.21 576.3,-360.05 577.87,-366.87"/>
</a>
</g>
</g>
<!-- Node3 -->
<g id="Node000003" class="node">
<title>Node3</title>
<g id="a_Node000003"><a xlink:title=" ">
<polygon fill="#e0e0e0" stroke="#999999" points="249.88,-240.25 116.88,-240.25 116.88,-221 249.88,-221 249.88,-240.25"/>
<text text-anchor="middle" x="183.38" y="-226.75" font-family="Helvetica,sans-Serif" font-size="10.00">TTL_TYPES_INCLUDE_H</text>
</a>
</g>
</g>
<!-- Node2&#45;&gt;Node3 -->
<g id="edge2_Node000002_Node000003" class="edge">
<title>Node2&#45;&gt;Node3</title>
<g id="a_edge2_Node000002_Node000003"><a xlink:title=" ">
<path fill="none" stroke="#63b8ff" d="M183.38,-276.08C183.38,-269.57 183.38,-260.42 183.38,-252.12"/>
<polygon fill="#63b8ff" stroke="#63b8ff" points="186.88,-252.12 183.38,-242.12 179.88,-252.12 186.88,-252.12"/>
</a>
</g>
</g>
<!-- Node4 -->
<g id="Node000004" class="node">
<title>Node4</title>
<g id="a_Node000004"><a xlink:href="TTL__cpp_2TTL__debug_8h.html" target="_top" xlink:title=" ">
<polygon fill="white" stroke="#666666" points="98.88,-240.25 25.88,-240.25 25.88,-221 98.88,-221 98.88,-240.25"/>
<text text-anchor="middle" x="62.38" y="-226.75" font-family="Helvetica,sans-Serif" font-size="10.00">TTL_debug.h</text>
</a>
</g>
</g>
<!-- Node2&#45;&gt;Node4 -->
<g id="edge3_Node000002_Node000004" class="edge">
<title>Node2&#45;&gt;Node4</title>
<g id="a_edge3_Node000002_Node000004"><a xlink:title=" ">
<path fill="none" stroke="#63b8ff" d="M162.85,-275.84C143.81,-267.47 115.22,-254.88 93.4,-245.28"/>
<polygon fill="#63b8ff" stroke="#63b8ff" points="94.95,-242.14 84.39,-241.31 92.13,-248.54 94.95,-242.14"/>
</a>
</g>
</g>
<!-- Node5 -->
<g id="Node000005" class="node">
<title>Node5</title>
<g id="a_Node000005"><a xlink:href="TTL__cpp_2TTL__tensors_8h.html" target="_top" xlink:title=" ">
<polygon fill="white" stroke="#666666" points="199.88,-185 120.88,-185 120.88,-165.75 199.88,-165.75 199.88,-185"/>
<text text-anchor="middle" x="160.38" y="-171.5" font-family="Helvetica,sans-Serif" font-size="10.00">TTL_tensors.h</text>
</a>
</g>
</g>
<!-- Node2&#45;&gt;Node5 -->
<g id="edge12_Node000002_Node000005" class="edge">
<title>Node2&#45;&gt;Node5</title>
<g id="a_edge12_Node000002_Node000005"><a xlink:title=" ">
<path fill="none" stroke="#63b8ff" d="M210.21,-275.85C237.89,-264.99 275,-245.18 259.38,-221 248.47,-204.12 229.48,-193.56 211.04,-186.99"/>
<polygon fill="#63b8ff" stroke="#63b8ff" points="212.34,-183.73 201.75,-184.02 210.21,-190.4 212.34,-183.73"/>
</a>
</g>
</g>
<!-- Node6 -->
<g id="Node000006" class="node">
<title>Node6</title>
<g id="a_Node000006"><a xlink:href="TTL__cpp_2TTL__types_8h.html" target="_top" xlink:title=" ">
<polygon fill="white" stroke="#666666" points="161.38,-129.75 91.38,-129.75 91.38,-110.5 161.38,-110.5 161.38,-129.75"/>
<text text-anchor="middle" x="126.38" y="-116.25" font-family="Helvetica,sans-Serif" font-size="10.00">TTL_types.h</text>
</a>
</g>
</g>
<!-- Node2&#45;&gt;Node6 -->
<g id="edge14_Node000002_Node000006" class="edge">
<title>Node2&#45;&gt;Node6</title>
<g id="a_edge14_Node000002_Node000006"><a xlink:title=" ">
<path fill="none" stroke="#63b8ff" d="M216.58,-276.99C248.07,-267.65 288.75,-249.63 275.38,-221 254.51,-176.31 202.44,-148.69 165.75,-134.13"/>
<polygon fill="#63b8ff" stroke="#63b8ff" points="167.39,-131 156.8,-130.73 164.91,-137.55 167.39,-131"/>
</a>
</g>
</g>
<!-- Node10 -->
<g id="Node000010" class="node">
<title>Node10</title>
<g id="a_Node000010"><a xlink:href="TTL__cpp_2TTL__tiles_8h.html" target="_top" xlink:title=" ">
<polygon fill="white" stroke="#666666" points="64.75,-185 0,-185 0,-165.75 64.75,-165.75 64.75,-185"/>
<text text-anchor="middle" x="32.38" y="-171.5" font-family="Helvetica,sans-Serif" font-size="10.00">TTL_tiles.h</text>
</a>
</g>
</g>
<!-- Node2&#45;&gt;Node10 -->
<g id="edge13_Node000002_Node000010" class="edge">
<title>Node2&#45;&gt;Node10</title>
<g id="a_edge13_Node000002_Node000010"><a xlink:title=" ">
<path fill="none" stroke="#63b8ff" d="M150.47,-280.82C106.61,-274.66 32.6,-261.37 16.38,-240.25 6.38,-227.23 12.63,-208.72 20.05,-194.97"/>
<polygon fill="#63b8ff" stroke="#63b8ff" points="23.01,-196.83 25.18,-186.46 17.02,-193.22 23.01,-196.83"/>
</a>
</g>
</g>
<!-- Node4&#45;&gt;Node5 -->
<g id="edge4_Node000004_Node000005" class="edge">
<title>Node4&#45;&gt;Node5</title>
<g id="a_edge4_Node000004_Node000005"><a xlink:title=" ">
<path fill="none" stroke="#63b8ff" d="M79,-220.59C94.06,-212.41 116.52,-200.21 134.03,-190.69"/>
<polygon fill="#63b8ff" stroke="#63b8ff" points="135.22,-194.02 142.34,-186.18 131.88,-187.87 135.22,-194.02"/>
</a>
</g>
</g>
<!-- Node4&#45;&gt;Node6 -->
<g id="edge11_Node000004_Node000006" class="edge">
<title>Node4&#45;&gt;Node6</title>
<g id="a_edge11_Node000004_Node000006"><a xlink:title=" ">
<path fill="none" stroke="#63b8ff" d="M67.61,-220.75C77.97,-203.18 101.29,-163.66 115.23,-140.02"/>
<polygon fill="#63b8ff" stroke="#63b8ff" points="118.23,-141.82 120.3,-131.43 112.2,-138.27 118.23,-141.82"/>
</a>
</g>
</g>
<!-- Node4&#45;&gt;Node10 -->
<g id="edge9_Node000004_Node000010" class="edge">
<title>Node4&#45;&gt;Node10</title>
<g id="a_edge9_Node000004_Node000010"><a xlink:title=" ">
<path fill="none" stroke="#63b8ff" d="M57.42,-220.83C53.49,-213.86 47.86,-203.87 42.94,-195.12"/>
<polygon fill="#63b8ff" stroke="#63b8ff" points="46.14,-193.67 38.18,-186.68 40.04,-197.11 46.14,-193.67"/>
</a>
</g>
</g>
<!-- Node5&#45;&gt;Node6 -->
<g id="edge5_Node000005_Node000006" class="edge">
<title>Node5&#45;&gt;Node6</title>
<g id="a_edge5_Node000005_Node000006"><a xlink:title=" ">
<path fill="none" stroke="#63b8ff" d="M154.76,-165.58C150.26,-158.53 143.79,-148.4 138.16,-139.58"/>
<polygon fill="#63b8ff" stroke="#63b8ff" points="141.26,-137.93 132.93,-131.38 135.36,-141.7 141.26,-137.93"/>
</a>
</g>
</g>
<!-- Node7 -->
<g id="Node000007" class="node">
<title>Node7</title>
<g id="a_Node000007"><a xlink:href="TTL__cpp_2TTL__macros_8h.html" target="_top" xlink:title=" ">
<polygon fill="white" stroke="#666666" points="112.88,-74.5 33.88,-74.5 33.88,-55.25 112.88,-55.25 112.88,-74.5"/>
<text text-anchor="middle" x="73.38" y="-61" font-family="Helvetica,sans-Serif" font-size="10.00">TTL_macros.h</text>
</a>
</g>
</g>
<!-- Node6&#45;&gt;Node7 -->
<g id="edge6_Node000006_Node000007" class="edge">
<title>Node6&#45;&gt;Node7</title>
<g id="a_edge6_Node000006_Node000007"><a xlink:title=" ">
<path fill="none" stroke="#63b8ff" d="M117.62,-110.33C110.23,-102.9 99.41,-92.04 90.33,-82.91"/>
<polygon fill="#63b8ff" stroke="#63b8ff" points="92.92,-80.55 83.38,-75.93 87.96,-85.49 92.92,-80.55"/>
</a>
</g>
</g>
<!-- Node8 -->
<g id="Node000008" class="node">
<title>Node8</title>
<g id="a_Node000008"><a xlink:href="TTL__strong__type_8h.html" target="_top" xlink:title=" ">
<polygon fill="white" stroke="#666666" points="227.88,-74.5 130.88,-74.5 130.88,-55.25 227.88,-55.25 227.88,-74.5"/>
<text text-anchor="middle" x="179.38" y="-61" font-family="Helvetica,sans-Serif" font-size="10.00">TTL_strong_type.h</text>
</a>
</g>
</g>
<!-- Node6&#45;&gt;Node8 -->
<g id="edge7_Node000006_Node000008" class="edge">
<title>Node6&#45;&gt;Node8</title>
<g id="a_edge7_Node000006_Node000008"><a xlink:title=" ">
<path fill="none" stroke="#63b8ff" d="M135.13,-110.33C142.52,-102.9 153.34,-92.04 162.42,-82.91"/>
<polygon fill="#63b8ff" stroke="#63b8ff" points="164.79,-85.49 169.37,-75.93 159.83,-80.55 164.79,-85.49"/>
</a>
</g>
</g>
<!-- Node9 -->
<g id="Node000009" class="node">
<title>Node9</title>
<g id="a_Node000009"><a xlink:title=" ">
<polygon fill="#e0e0e0" stroke="#999999" points="203.12,-19.25 155.62,-19.25 155.62,0 203.12,0 203.12,-19.25"/>
<text text-anchor="middle" x="179.38" y="-5.75" font-family="Helvetica,sans-Serif" font-size="10.00">stdint.h</text>
</a>
</g>
</g>
<!-- Node8&#45;&gt;Node9 -->
<g id="edge8_Node000008_Node000009" class="edge">
<title>Node8&#45;&gt;Node9</title>
<g id="a_edge8_Node000008_Node000009"><a xlink:title=" ">
<path fill="none" stroke="#63b8ff" d="M179.38,-55.08C179.38,-48.57 179.38,-39.42 179.38,-31.12"/>
<polygon fill="#63b8ff" stroke="#63b8ff" points="182.88,-31.12 179.38,-21.12 175.88,-31.12 182.88,-31.12"/>
</a>
</g>
</g>
<!-- Node10&#45;&gt;Node6 -->
<g id="edge10_Node000010_Node000006" class="edge">
<title>Node10&#45;&gt;Node6</title>
<g id="a_edge10_Node000010_Node000006"><a xlink:title=" ">
<path fill="none" stroke="#63b8ff" d="M48.32,-165.34C62.64,-157.23 83.91,-145.18 100.63,-135.71"/>
<polygon fill="#63b8ff" stroke="#63b8ff" points="102.06,-138.92 109.03,-130.95 98.61,-132.83 102.06,-138.92"/>
</a>
</g>
</g>
<!-- Node11&#45;&gt;Node2 -->
<g id="edge16_Node000011_Node000002" class="edge">
<title>Node11&#45;&gt;Node2</title>
<g id="a_edge16_Node000011_Node000002"><a xlink:title=" ">
<path fill="none" stroke="#63b8ff" d="M252.07,-336.81C239.58,-327.73 219.99,-313.49 204.92,-302.54"/>
<polygon fill="#63b8ff" stroke="#63b8ff" points="207.16,-299.84 197.02,-296.79 203.05,-305.5 207.16,-299.84"/>
</a>
</g>
</g>
<!-- Node12 -->
<g id="Node000012" class="node">
<title>Node12</title>
<g id="a_Node000012"><a xlink:href="TTL__cpp_2opencl_2TTL__import__export_8h.html" target="_top" xlink:title=" ">
<polygon fill="white" stroke="#666666" points="370.75,-295.5 234,-295.5 234,-276.25 370.75,-276.25 370.75,-295.5"/>
<text text-anchor="middle" x="302.38" y="-282" font-family="Helvetica,sans-Serif" font-size="10.00">opencl/TTL_import_export.h</text>
</a>
</g>
</g>
<!-- Node11&#45;&gt;Node12 -->
<g id="edge17_Node000011_Node000012" class="edge">
<title>Node11&#45;&gt;Node12</title>
<g id="a_edge17_Node000011_Node000012"><a xlink:title=" ">
<path fill="none" stroke="#63b8ff" d="M270.15,-336.81C275.5,-328.51 283.64,-315.89 290.4,-305.42"/>
<polygon fill="#63b8ff" stroke="#63b8ff" points="293.25,-307.47 295.73,-297.17 287.36,-303.68 293.25,-307.47"/>
</a>
</g>
</g>
<!-- Node13 -->
<g id="Node000013" class="node">
<title>Node13</title>
<g id="a_Node000013"><a xlink:href="TTL__c_2TTL__macros_8h.html" target="_top" xlink:title=" ">
<polygon fill="white" stroke="#666666" points="563.12,-240.25 431.62,-240.25 431.62,-221 563.12,-221 563.12,-240.25"/>
<text text-anchor="middle" x="497.38" y="-226.75" font-family="Helvetica,sans-Serif" font-size="10.00">TTL/TTL_c/TTL_macros.h</text>
</a>
</g>
</g>
<!-- Node12&#45;&gt;Node13 -->
<g id="edge18_Node000012_Node000013" class="edge">
<title>Node12&#45;&gt;Node13</title>
<g id="a_edge18_Node000012_Node000013"><a xlink:title=" ">
<path fill="none" stroke="#63b8ff" d="M335.45,-275.84C367.81,-267.01 417.3,-253.49 453.05,-243.73"/>
<polygon fill="#63b8ff" stroke="#63b8ff" points="453.95,-247.11 462.67,-241.1 452.1,-240.36 453.95,-247.11"/>
</a>
</g>
</g>
<!-- Node14&#45;&gt;Node13 -->
<g id="edge20_Node000014_Node000013" class="edge">
<title>Node14&#45;&gt;Node13</title>
<g id="a_edge20_Node000014_Node000013"><a xlink:title=" ">
<path fill="none" stroke="#63b8ff" d="M392.22,-331.2C395.84,-315.98 403.35,-292.16 417.38,-276.25 429.25,-262.78 446.22,-252.51 461.47,-245.23"/>
<polygon fill="#63b8ff" stroke="#63b8ff" points="462.59,-248.57 470.3,-241.29 459.74,-242.18 462.59,-248.57"/>
</a>
</g>
</g>
<!-- Node15 -->
<g id="Node000015" class="node">
<title>Node15</title>
<g id="a_Node000015"><a xlink:href="p_2pipelines_2TTL__schemes__common_8h.html" target="_top" xlink:title=" ">
<polygon fill="white" stroke="#666666" points="556,-295.5 426.75,-295.5 426.75,-276.25 556,-276.25 556,-295.5"/>
<text text-anchor="middle" x="491.38" y="-282" font-family="Helvetica,sans-Serif" font-size="10.00">TTL_schemes_common.h</text>
</a>
</g>
</g>
<!-- Node14&#45;&gt;Node15 -->
<g id="edge21_Node000014_Node000015" class="edge">
<title>Node14&#45;&gt;Node15</title>
<g id="a_edge21_Node000014_Node000015"><a xlink:title=" ">
<path fill="none" stroke="#63b8ff" d="M414.85,-331.05C430.53,-321.99 450.56,-310.44 466.19,-301.41"/>
<polygon fill="#63b8ff" stroke="#63b8ff" points="467.51,-304.69 474.42,-296.66 464.01,-298.63 467.51,-304.69"/>
</a>
</g>
</g>
<!-- Node16&#45;&gt;Node13 -->
<g id="edge23_Node000016_Node000013" class="edge">
<title>Node16&#45;&gt;Node13</title>
<g id="a_edge23_Node000016_Node000013"><a xlink:title=" ">
<path fill="none" stroke="#63b8ff" d="M538.31,-331.23C555.99,-317.62 576.25,-296.39 565.38,-276.25 558.18,-262.92 545.06,-252.92 532.26,-245.81"/>
<polygon fill="#63b8ff" stroke="#63b8ff" points="534.03,-242.78 523.53,-241.39 530.87,-249.03 534.03,-242.78"/>
</a>
</g>
</g>
<!-- Node16&#45;&gt;Node15 -->
<g id="edge24_Node000016_Node000015" class="edge">
<title>Node16&#45;&gt;Node15</title>
<g id="a_edge24_Node000016_Node000015"><a xlink:title=" ">
<path fill="none" stroke="#63b8ff" d="M510.2,-331.2C507.01,-323.7 503.08,-314.45 499.64,-306.35"/>
<polygon fill="#63b8ff" stroke="#63b8ff" points="502.95,-305.18 495.82,-297.34 496.51,-307.92 502.95,-305.18"/>
</a>
</g>
</g>
<!-- Node17&#45;&gt;Node13 -->
<g id="edge26_Node000017_Node000013" class="edge">
<title>Node17&#45;&gt;Node13</title>
<g id="a_edge26_Node000017_Node000013"><a xlink:title=" ">
<path fill="none" stroke="#63b8ff" d="M634.33,-331.09C622.45,-316.01 602.41,-292.49 581.38,-276.25 565.4,-263.92 545.53,-253.19 529.13,-245.34"/>
<polygon fill="#63b8ff" stroke="#63b8ff" points="530.84,-242.28 520.3,-241.25 527.9,-248.63 530.84,-242.28"/>
</a>
</g>
</g>
<!-- Node17&#45;&gt;Node15 -->
<g id="edge27_Node000017_Node000015" class="edge">
<title>Node17&#45;&gt;Node15</title>
<g id="a_edge27_Node000017_Node000015"><a xlink:title=" ">
<path fill="none" stroke="#63b8ff" d="M606.91,-331.05C581.88,-321.48 549.53,-309.11 525.43,-299.89"/>
<polygon fill="#63b8ff" stroke="#63b8ff" points="527,-296.75 516.41,-296.44 524.5,-303.28 527,-296.75"/>
</a>
</g>
</g>
</g>
</svg>
